M48
;Layer_Color=9474304
;FILE_FORMAT=4:4
METRIC,LZ
;TYPE=NON_PLATED
T06F00S00C0.5000
%
T06
X00137Y00236
Y00244
Y00252
Y0026
Y00268
Y00276
Y00284
Y00357
Y00365
Y00373
Y00381
Y00389
X00547Y0039
Y00382
Y00374
Y00366
Y00223
Y00215
Y00207
Y00199
Y00191
Y00183
Y00175
Y00398
Y00406
Y00414
Y00507
Y00515
Y00523
Y00531
Y00539
Y00547
Y00555
Y00693
Y00701
Y00709
Y00717
Y00725
Y00733
Y00741
X00137Y00739
Y00731
Y00723
Y00715
Y00707
Y00699
Y00691
Y00599
Y00591
Y00583
Y00575
Y00567
Y00559
Y00551
Y00405
Y00397
Y00794
Y00802
Y0081
Y00818
Y00826
Y00834
Y00842
Y00981
Y00989
Y00997
Y01005
Y01013
Y01021
Y01029
X00547Y00978
Y0097
Y00962
Y00954
Y00946
Y00938
Y0093
Y00843
Y00835
Y00827
Y00819
Y00811
Y00803
Y00795
M30
