G04*
G04 #@! TF.GenerationSoftware,Altium Limited,Altium Designer,25.5.2 (35)*
G04*
G04 Layer_Color=8388736*
%FSLAX44Y44*%
%MOMM*%
G71*
G04*
G04 #@! TF.SameCoordinates,62C8F6CB-47DE-4BB4-89D1-A73908D99D6D*
G04*
G04*
G04 #@! TF.FilePolarity,Negative*
G04*
G01*
G75*
%ADD29R,1.0000X1.5000*%
%ADD43R,1.0061X1.3082*%
%ADD45C,1.2000*%
%ADD48C,0.6000*%
%ADD61C,3.0000*%
G04:AMPARAMS|DCode=62|XSize=3.1mm|YSize=2.1mm|CornerRadius=0.55mm|HoleSize=0mm|Usage=FLASHONLY|Rotation=90.000|XOffset=0mm|YOffset=0mm|HoleType=Round|Shape=RoundedRectangle|*
%AMROUNDEDRECTD62*
21,1,3.1000,1.0000,0,0,90.0*
21,1,2.0000,2.1000,0,0,90.0*
1,1,1.1000,0.5000,1.0000*
1,1,1.1000,0.5000,-1.0000*
1,1,1.1000,-0.5000,-1.0000*
1,1,1.1000,-0.5000,1.0000*
%
%ADD62ROUNDEDRECTD62*%
%ADD63O,0.4500X2.1000*%
G04:AMPARAMS|DCode=64|XSize=0.45mm|YSize=1.35mm|CornerRadius=0.1008mm|HoleSize=0mm|Usage=FLASHONLY|Rotation=270.000|XOffset=0mm|YOffset=0mm|HoleType=Round|Shape=RoundedRectangle|*
%AMROUNDEDRECTD64*
21,1,0.4500,1.1485,0,0,270.0*
21,1,0.2485,1.3500,0,0,270.0*
1,1,0.2015,-0.5743,-0.1243*
1,1,0.2015,-0.5743,0.1243*
1,1,0.2015,0.5743,0.1243*
1,1,0.2015,0.5743,-0.1243*
%
%ADD64ROUNDEDRECTD64*%
G04:AMPARAMS|DCode=65|XSize=1.5mm|YSize=1.8mm|CornerRadius=0.225mm|HoleSize=0mm|Usage=FLASHONLY|Rotation=0.000|XOffset=0mm|YOffset=0mm|HoleType=Round|Shape=RoundedRectangle|*
%AMROUNDEDRECTD65*
21,1,1.5000,1.3500,0,0,0.0*
21,1,1.0500,1.8000,0,0,0.0*
1,1,0.4500,0.5250,-0.6750*
1,1,0.4500,-0.5250,-0.6750*
1,1,0.4500,-0.5250,0.6750*
1,1,0.4500,0.5250,0.6750*
%
%ADD65ROUNDEDRECTD65*%
G04:AMPARAMS|DCode=66|XSize=2mm|YSize=3.3mm|CornerRadius=0mm|HoleSize=0mm|Usage=FLASHONLY|Rotation=180.000|XOffset=0mm|YOffset=0mm|HoleType=Round|Shape=Octagon|*
%AMOCTAGOND66*
4,1,8,0.5000,-1.6500,-0.5000,-1.6500,-1.0000,-1.1500,-1.0000,1.1500,-0.5000,1.6500,0.5000,1.6500,1.0000,1.1500,1.0000,-1.1500,0.5000,-1.6500,0.0*
%
%ADD66OCTAGOND66*%

%ADD67R,0.7000X1.9000*%
G04:AMPARAMS|DCode=68|XSize=0.9mm|YSize=1.1mm|CornerRadius=0.15mm|HoleSize=0mm|Usage=FLASHONLY|Rotation=270.000|XOffset=0mm|YOffset=0mm|HoleType=Round|Shape=RoundedRectangle|*
%AMROUNDEDRECTD68*
21,1,0.9000,0.8000,0,0,270.0*
21,1,0.6000,1.1000,0,0,270.0*
1,1,0.3000,-0.4000,-0.3000*
1,1,0.3000,-0.4000,0.3000*
1,1,0.3000,0.4000,0.3000*
1,1,0.3000,0.4000,-0.3000*
%
%ADD68ROUNDEDRECTD68*%
%ADD69R,1.0000X0.8000*%
G04:AMPARAMS|DCode=70|XSize=1.4mm|YSize=1.2mm|CornerRadius=0.105mm|HoleSize=0mm|Usage=FLASHONLY|Rotation=0.000|XOffset=0mm|YOffset=0mm|HoleType=Round|Shape=RoundedRectangle|*
%AMROUNDEDRECTD70*
21,1,1.4000,0.9900,0,0,0.0*
21,1,1.1900,1.2000,0,0,0.0*
1,1,0.2100,0.5950,-0.4950*
1,1,0.2100,-0.5950,-0.4950*
1,1,0.2100,-0.5950,0.4950*
1,1,0.2100,0.5950,0.4950*
%
%ADD70ROUNDEDRECTD70*%
G04:AMPARAMS|DCode=71|XSize=0.9mm|YSize=1.1mm|CornerRadius=0.15mm|HoleSize=0mm|Usage=FLASHONLY|Rotation=0.000|XOffset=0mm|YOffset=0mm|HoleType=Round|Shape=RoundedRectangle|*
%AMROUNDEDRECTD71*
21,1,0.9000,0.8000,0,0,0.0*
21,1,0.6000,1.1000,0,0,0.0*
1,1,0.3000,0.3000,-0.4000*
1,1,0.3000,-0.3000,-0.4000*
1,1,0.3000,-0.3000,0.4000*
1,1,0.3000,0.3000,0.4000*
%
%ADD71ROUNDEDRECTD71*%
G04:AMPARAMS|DCode=72|XSize=3.2mm|YSize=5.28mm|CornerRadius=0.0965mm|HoleSize=0mm|Usage=FLASHONLY|Rotation=180.000|XOffset=0mm|YOffset=0mm|HoleType=Round|Shape=RoundedRectangle|*
%AMROUNDEDRECTD72*
21,1,3.2000,5.0870,0,0,180.0*
21,1,3.0070,5.2800,0,0,180.0*
1,1,0.1930,-1.5035,2.5435*
1,1,0.1930,1.5035,2.5435*
1,1,0.1930,1.5035,-2.5435*
1,1,0.1930,-1.5035,-2.5435*
%
%ADD72ROUNDEDRECTD72*%
G04:AMPARAMS|DCode=73|XSize=0.7mm|YSize=1.1mm|CornerRadius=0.101mm|HoleSize=0mm|Usage=FLASHONLY|Rotation=90.000|XOffset=0mm|YOffset=0mm|HoleType=Round|Shape=RoundedRectangle|*
%AMROUNDEDRECTD73*
21,1,0.7000,0.8980,0,0,90.0*
21,1,0.4980,1.1000,0,0,90.0*
1,1,0.2020,0.4490,0.2490*
1,1,0.2020,0.4490,-0.2490*
1,1,0.2020,-0.4490,-0.2490*
1,1,0.2020,-0.4490,0.2490*
%
%ADD73ROUNDEDRECTD73*%
G04:AMPARAMS|DCode=74|XSize=0.7mm|YSize=1.55mm|CornerRadius=0.101mm|HoleSize=0mm|Usage=FLASHONLY|Rotation=0.000|XOffset=0mm|YOffset=0mm|HoleType=Round|Shape=RoundedRectangle|*
%AMROUNDEDRECTD74*
21,1,0.7000,1.3480,0,0,0.0*
21,1,0.4980,1.5500,0,0,0.0*
1,1,0.2020,0.2490,-0.6740*
1,1,0.2020,-0.2490,-0.6740*
1,1,0.2020,-0.2490,0.6740*
1,1,0.2020,0.2490,0.6740*
%
%ADD74ROUNDEDRECTD74*%
%ADD75O,1.4500X0.5500*%
G04:AMPARAMS|DCode=76|XSize=0.7mm|YSize=1.3mm|CornerRadius=0.125mm|HoleSize=0mm|Usage=FLASHONLY|Rotation=270.000|XOffset=0mm|YOffset=0mm|HoleType=Round|Shape=RoundedRectangle|*
%AMROUNDEDRECTD76*
21,1,0.7000,1.0500,0,0,270.0*
21,1,0.4500,1.3000,0,0,270.0*
1,1,0.2500,-0.5250,-0.2250*
1,1,0.2500,-0.5250,0.2250*
1,1,0.2500,0.5250,0.2250*
1,1,0.2500,0.5250,-0.2250*
%
%ADD76ROUNDEDRECTD76*%
%ADD77R,2.5000X1.5000*%
G04:AMPARAMS|DCode=78|XSize=1.1mm|YSize=2.1mm|CornerRadius=0.3mm|HoleSize=0mm|Usage=FLASHONLY|Rotation=90.000|XOffset=0mm|YOffset=0mm|HoleType=Round|Shape=RoundedRectangle|*
%AMROUNDEDRECTD78*
21,1,1.1000,1.5000,0,0,90.0*
21,1,0.5000,2.1000,0,0,90.0*
1,1,0.6000,0.7500,0.2500*
1,1,0.6000,0.7500,-0.2500*
1,1,0.6000,-0.7500,-0.2500*
1,1,0.6000,-0.7500,0.2500*
%
%ADD78ROUNDEDRECTD78*%
%ADD79R,0.7000X1.5000*%
G04:AMPARAMS|DCode=80|XSize=1.4mm|YSize=2.64mm|CornerRadius=0.2125mm|HoleSize=0mm|Usage=FLASHONLY|Rotation=0.000|XOffset=0mm|YOffset=0mm|HoleType=Round|Shape=RoundedRectangle|*
%AMROUNDEDRECTD80*
21,1,1.4000,2.2150,0,0,0.0*
21,1,0.9750,2.6400,0,0,0.0*
1,1,0.4250,0.4875,-1.1075*
1,1,0.4250,-0.4875,-1.1075*
1,1,0.4250,-0.4875,1.1075*
1,1,0.4250,0.4875,1.1075*
%
%ADD80ROUNDEDRECTD80*%
%ADD81O,2.1000X0.4500*%
G04:AMPARAMS|DCode=82|XSize=1.5mm|YSize=1.8mm|CornerRadius=0.225mm|HoleSize=0mm|Usage=FLASHONLY|Rotation=360.000|XOffset=0mm|YOffset=0mm|HoleType=Round|Shape=RoundedRectangle|*
%AMROUNDEDRECTD82*
21,1,1.5000,1.3500,0,0,360.0*
21,1,1.0500,1.8000,0,0,360.0*
1,1,0.4500,0.5250,-0.6750*
1,1,0.4500,-0.5250,-0.6750*
1,1,0.4500,-0.5250,0.6750*
1,1,0.4500,0.5250,0.6750*
%
%ADD82ROUNDEDRECTD82*%
G04:AMPARAMS|DCode=83|XSize=1.2mm|YSize=1.1mm|CornerRadius=0.175mm|HoleSize=0mm|Usage=FLASHONLY|Rotation=270.000|XOffset=0mm|YOffset=0mm|HoleType=Round|Shape=RoundedRectangle|*
%AMROUNDEDRECTD83*
21,1,1.2000,0.7500,0,0,270.0*
21,1,0.8500,1.1000,0,0,270.0*
1,1,0.3500,-0.3750,-0.4250*
1,1,0.3500,-0.3750,0.4250*
1,1,0.3500,0.3750,0.4250*
1,1,0.3500,0.3750,-0.4250*
%
%ADD83ROUNDEDRECTD83*%
G04:AMPARAMS|DCode=84|XSize=0.9mm|YSize=1.1mm|CornerRadius=0.15mm|HoleSize=0mm|Usage=FLASHONLY|Rotation=360.000|XOffset=0mm|YOffset=0mm|HoleType=Round|Shape=RoundedRectangle|*
%AMROUNDEDRECTD84*
21,1,0.9000,0.8000,0,0,360.0*
21,1,0.6000,1.1000,0,0,360.0*
1,1,0.3000,0.3000,-0.4000*
1,1,0.3000,-0.3000,-0.4000*
1,1,0.3000,-0.3000,0.4000*
1,1,0.3000,0.3000,0.4000*
%
%ADD84ROUNDEDRECTD84*%
%ADD85C,0.2032*%
%ADD86C,2.1000*%
%ADD87C,1.3000*%
G36*
X547000Y774500D02*
X490000D01*
Y782750D01*
Y783907D01*
X490452Y786177D01*
X491337Y788316D01*
X492623Y790240D01*
X494260Y791877D01*
X496184Y793163D01*
X498323Y794048D01*
X500593Y794500D01*
X547000D01*
Y774500D01*
D02*
G37*
G36*
X194000Y747250D02*
Y746093D01*
X193549Y743823D01*
X192663Y741684D01*
X191377Y739760D01*
X189740Y738123D01*
X187816Y736837D01*
X185677Y735952D01*
X183407Y735500D01*
X137000D01*
Y755500D01*
X194000D01*
Y747250D01*
D02*
G37*
G36*
Y420250D02*
Y419093D01*
X193549Y416823D01*
X192663Y414684D01*
X191377Y412760D01*
X189740Y411123D01*
X187816Y409837D01*
X185677Y408951D01*
X183407Y408500D01*
X137000D01*
Y428500D01*
X194000D01*
Y420250D01*
D02*
G37*
D29*
X419000Y730000D02*
D03*
X441000D02*
D03*
X419000Y403000D02*
D03*
X441000D02*
D03*
D43*
X207261Y788000D02*
D03*
X192739D02*
D03*
D45*
X527000Y662000D02*
D03*
X507000D02*
D03*
X517000Y544000D02*
D03*
X527000Y335000D02*
D03*
X507000D02*
D03*
X517000Y217000D02*
D03*
X167000Y986000D02*
D03*
X177000Y868000D02*
D03*
X157000D02*
D03*
D48*
X475500Y624500D02*
D03*
X453500D02*
D03*
X464500D02*
D03*
Y613500D02*
D03*
X475500D02*
D03*
X453500D02*
D03*
X464500Y602500D02*
D03*
X475500D02*
D03*
X453500D02*
D03*
X464500Y591500D02*
D03*
X475500D02*
D03*
X453500D02*
D03*
Y580500D02*
D03*
X464500D02*
D03*
X475500D02*
D03*
Y297500D02*
D03*
X453500D02*
D03*
X464500D02*
D03*
Y286500D02*
D03*
X475500D02*
D03*
X453500D02*
D03*
X464500Y275500D02*
D03*
X475500D02*
D03*
X453500D02*
D03*
X464500Y264500D02*
D03*
X475500D02*
D03*
X453500D02*
D03*
Y253500D02*
D03*
X464500D02*
D03*
X475500D02*
D03*
X208500Y916500D02*
D03*
X230500Y905500D02*
D03*
X219500D02*
D03*
X208500D02*
D03*
X219500Y916500D02*
D03*
X230500D02*
D03*
X219500Y927500D02*
D03*
X208500D02*
D03*
X230500D02*
D03*
Y938500D02*
D03*
X208500D02*
D03*
X219500D02*
D03*
Y949500D02*
D03*
X208500D02*
D03*
X230500D02*
D03*
D61*
X99000Y1005000D02*
D03*
X586000Y954000D02*
D03*
X99000Y260000D02*
D03*
D62*
X224000Y466000D02*
D03*
X503000D02*
D03*
X224000Y139000D02*
D03*
X503000D02*
D03*
X460000Y1064000D02*
D03*
X181000D02*
D03*
D63*
X341250Y563000D02*
D03*
X347750D02*
D03*
X367250D02*
D03*
X373750D02*
D03*
X380250D02*
D03*
X386750D02*
D03*
X347750Y621000D02*
D03*
X354250D02*
D03*
X373750D02*
D03*
X380250D02*
D03*
X341250D02*
D03*
X360750D02*
D03*
X354250Y563000D02*
D03*
X360750D02*
D03*
X367250Y621000D02*
D03*
X386750D02*
D03*
X341250Y236000D02*
D03*
X347750D02*
D03*
X367250D02*
D03*
X373750D02*
D03*
X380250D02*
D03*
X386750D02*
D03*
X347750Y294000D02*
D03*
X354250D02*
D03*
X373750D02*
D03*
X380250D02*
D03*
X341250D02*
D03*
X360750D02*
D03*
X354250Y236000D02*
D03*
X360750D02*
D03*
X367250Y294000D02*
D03*
X386750D02*
D03*
X297250Y909000D02*
D03*
X316750D02*
D03*
X323250Y967000D02*
D03*
X329750D02*
D03*
X323250Y909000D02*
D03*
X342750D02*
D03*
X303750D02*
D03*
X310250D02*
D03*
X329750D02*
D03*
X336250D02*
D03*
X297250Y967000D02*
D03*
X303750D02*
D03*
X310250D02*
D03*
X316750D02*
D03*
X336250D02*
D03*
X342750D02*
D03*
D64*
X493250Y644750D02*
D03*
X435750Y560250D02*
D03*
Y579750D02*
D03*
Y573250D02*
D03*
Y599250D02*
D03*
Y586250D02*
D03*
X493250Y625250D02*
D03*
Y579750D02*
D03*
X435750Y612250D02*
D03*
Y644750D02*
D03*
Y638250D02*
D03*
Y631750D02*
D03*
Y625250D02*
D03*
Y618750D02*
D03*
Y605750D02*
D03*
Y592750D02*
D03*
Y566750D02*
D03*
X493250Y638250D02*
D03*
Y631750D02*
D03*
Y618750D02*
D03*
Y612250D02*
D03*
Y605750D02*
D03*
Y599250D02*
D03*
Y592750D02*
D03*
Y586250D02*
D03*
Y573250D02*
D03*
Y566750D02*
D03*
Y560250D02*
D03*
Y317750D02*
D03*
X435750Y233250D02*
D03*
Y252750D02*
D03*
Y246250D02*
D03*
Y272250D02*
D03*
Y259250D02*
D03*
X493250Y298250D02*
D03*
Y252750D02*
D03*
X435750Y285250D02*
D03*
Y317750D02*
D03*
Y311250D02*
D03*
Y304750D02*
D03*
Y298250D02*
D03*
Y291750D02*
D03*
Y278750D02*
D03*
Y265750D02*
D03*
Y239750D02*
D03*
X493250Y311250D02*
D03*
Y304750D02*
D03*
Y291750D02*
D03*
Y285250D02*
D03*
Y278750D02*
D03*
Y272250D02*
D03*
Y265750D02*
D03*
Y259250D02*
D03*
Y246250D02*
D03*
Y239750D02*
D03*
Y233250D02*
D03*
X190750Y885250D02*
D03*
X248250Y969750D02*
D03*
Y917750D02*
D03*
X190750Y950250D02*
D03*
Y904750D02*
D03*
X248250Y885250D02*
D03*
Y891750D02*
D03*
Y898250D02*
D03*
Y904750D02*
D03*
Y911250D02*
D03*
Y924250D02*
D03*
Y930750D02*
D03*
Y937250D02*
D03*
Y943750D02*
D03*
Y950250D02*
D03*
Y956750D02*
D03*
Y963250D02*
D03*
X190750Y891750D02*
D03*
Y898250D02*
D03*
Y911250D02*
D03*
Y917750D02*
D03*
Y924250D02*
D03*
Y930750D02*
D03*
Y937250D02*
D03*
Y943750D02*
D03*
Y956750D02*
D03*
Y963250D02*
D03*
Y969750D02*
D03*
D65*
X534680Y642500D02*
D03*
X457570Y665000D02*
D03*
X535430Y562000D02*
D03*
X214570Y502000D02*
D03*
X480430Y665000D02*
D03*
X511820Y642500D02*
D03*
X512570Y562000D02*
D03*
X237430Y502000D02*
D03*
X534680Y315500D02*
D03*
X457570Y338000D02*
D03*
X535430Y235000D02*
D03*
X214570Y175000D02*
D03*
X480430Y338000D02*
D03*
X511820Y315500D02*
D03*
X512570Y235000D02*
D03*
X237430Y175000D02*
D03*
X149320Y887500D02*
D03*
X148570Y968000D02*
D03*
X172180Y887500D02*
D03*
X171430Y968000D02*
D03*
D66*
X470000Y713000D02*
D03*
Y386000D02*
D03*
D67*
Y688000D02*
D03*
Y361000D02*
D03*
D68*
X438000Y706500D02*
D03*
X421000Y706500D02*
D03*
X374000Y728500D02*
D03*
X422000Y675500D02*
D03*
X438000D02*
D03*
X406000Y660500D02*
D03*
X340000Y670500D02*
D03*
X239000Y619500D02*
D03*
X224000Y619500D02*
D03*
X326000Y583500D02*
D03*
X311000D02*
D03*
X164000Y529500D02*
D03*
X148000Y529500D02*
D03*
X164000Y500500D02*
D03*
X421000Y691500D02*
D03*
X438000Y691500D02*
D03*
X390000Y728500D02*
D03*
Y743500D02*
D03*
X374000D02*
D03*
X484000Y529500D02*
D03*
X296000Y655500D02*
D03*
X438000Y660500D02*
D03*
X502000Y529500D02*
D03*
X484000Y544500D02*
D03*
X422000Y660500D02*
D03*
X502000Y544500D02*
D03*
X340000Y685500D02*
D03*
X296000Y670500D02*
D03*
X326000Y598500D02*
D03*
X311000D02*
D03*
X239000Y604500D02*
D03*
X224000Y604500D02*
D03*
X164000Y544500D02*
D03*
X148000Y544500D02*
D03*
Y500500D02*
D03*
X406000Y675500D02*
D03*
X164000Y515500D02*
D03*
X148000Y515500D02*
D03*
X438000Y379500D02*
D03*
X421000Y379500D02*
D03*
X374000Y401500D02*
D03*
X422000Y348500D02*
D03*
X438000D02*
D03*
X406000Y333500D02*
D03*
X340000Y343500D02*
D03*
X239000Y292500D02*
D03*
X224000Y292500D02*
D03*
X326000Y256500D02*
D03*
X311000D02*
D03*
X164000Y202500D02*
D03*
X148000Y202500D02*
D03*
X164000Y173500D02*
D03*
X421000Y364500D02*
D03*
X438000Y364500D02*
D03*
X390000Y401500D02*
D03*
Y416500D02*
D03*
X374000D02*
D03*
X484000Y202500D02*
D03*
X296000Y328500D02*
D03*
X438000Y333500D02*
D03*
X502000Y202500D02*
D03*
X484000Y217500D02*
D03*
X422000Y333500D02*
D03*
X502000Y217500D02*
D03*
X340000Y358500D02*
D03*
X296000Y343500D02*
D03*
X326000Y271500D02*
D03*
X311000D02*
D03*
X239000Y277500D02*
D03*
X224000Y277500D02*
D03*
X164000Y217500D02*
D03*
X148000Y217500D02*
D03*
Y173500D02*
D03*
X406000Y348500D02*
D03*
X164000Y188500D02*
D03*
X148000Y188500D02*
D03*
X246000Y825500D02*
D03*
Y802500D02*
D03*
X262000Y854500D02*
D03*
Y802500D02*
D03*
X246000Y854500D02*
D03*
X278000Y869500D02*
D03*
X344000Y859500D02*
D03*
X389000Y791500D02*
D03*
X374000D02*
D03*
X358000Y946500D02*
D03*
X373000D02*
D03*
X445000Y910500D02*
D03*
X460000Y910500D02*
D03*
X520000Y1000500D02*
D03*
X536000Y1000500D02*
D03*
X520000Y1029500D02*
D03*
X388000Y874500D02*
D03*
X262000Y840500D02*
D03*
X246000Y840500D02*
D03*
Y787500D02*
D03*
X262000Y825500D02*
D03*
Y787500D02*
D03*
X200000Y1000500D02*
D03*
X246000Y869500D02*
D03*
X182000Y1000500D02*
D03*
X200000Y985500D02*
D03*
X262000Y869500D02*
D03*
X182000Y985500D02*
D03*
X374000Y806500D02*
D03*
X344000Y844500D02*
D03*
X388000Y859500D02*
D03*
X358000Y931500D02*
D03*
X373000D02*
D03*
X389000Y806500D02*
D03*
X445000Y925500D02*
D03*
X460000Y925500D02*
D03*
X520000Y985500D02*
D03*
X536000Y985500D02*
D03*
Y1029500D02*
D03*
X278000Y854500D02*
D03*
X520000Y1014500D02*
D03*
X536000Y1014500D02*
D03*
D69*
X393500Y702500D02*
D03*
Y715500D02*
D03*
X374500Y709000D02*
D03*
X393500Y375500D02*
D03*
Y388500D02*
D03*
X374500Y382000D02*
D03*
D70*
X364000Y678000D02*
D03*
X387000Y659000D02*
D03*
Y678000D02*
D03*
X364000Y659000D02*
D03*
Y351000D02*
D03*
X387000Y332000D02*
D03*
Y351000D02*
D03*
X364000Y332000D02*
D03*
X297000Y871000D02*
D03*
X320000Y852000D02*
D03*
X297000D02*
D03*
X320000Y871000D02*
D03*
D71*
X381500Y642000D02*
D03*
X325500Y671000D02*
D03*
X281500Y702000D02*
D03*
X281500Y687000D02*
D03*
X327500Y620000D02*
D03*
X280750Y640000D02*
D03*
X326000Y562000D02*
D03*
X295750Y640000D02*
D03*
X193500Y621000D02*
D03*
X419500Y646000D02*
D03*
X419500Y631000D02*
D03*
X404500D02*
D03*
X419500Y604000D02*
D03*
X296500Y687000D02*
D03*
X296500Y702000D02*
D03*
X404500Y604000D02*
D03*
X325500Y686000D02*
D03*
X366500Y642000D02*
D03*
X404500Y646000D02*
D03*
X208500Y657000D02*
D03*
Y639000D02*
D03*
Y682000D02*
D03*
Y707000D02*
D03*
X310500Y686000D02*
D03*
Y671000D02*
D03*
X223500Y590000D02*
D03*
X238500D02*
D03*
X193500Y639000D02*
D03*
Y657000D02*
D03*
Y707000D02*
D03*
Y682000D02*
D03*
X208500Y621000D02*
D03*
X311000Y562000D02*
D03*
X312500Y620000D02*
D03*
X381500Y315000D02*
D03*
X325500Y344000D02*
D03*
X281500Y375000D02*
D03*
X281500Y360000D02*
D03*
X327500Y293000D02*
D03*
X280750Y313000D02*
D03*
X326000Y235000D02*
D03*
X295750Y313000D02*
D03*
X193500Y294000D02*
D03*
X419500Y319000D02*
D03*
X419500Y304000D02*
D03*
X404500D02*
D03*
X419500Y277000D02*
D03*
X296500Y360000D02*
D03*
X296500Y375000D02*
D03*
X404500Y277000D02*
D03*
X325500Y359000D02*
D03*
X366500Y315000D02*
D03*
X404500Y319000D02*
D03*
X208500Y330000D02*
D03*
Y312000D02*
D03*
Y355000D02*
D03*
Y380000D02*
D03*
X310500Y359000D02*
D03*
Y344000D02*
D03*
X223500Y263000D02*
D03*
X238500D02*
D03*
X193500Y312000D02*
D03*
Y330000D02*
D03*
Y380000D02*
D03*
Y355000D02*
D03*
X208500Y294000D02*
D03*
X311000Y235000D02*
D03*
X312500Y293000D02*
D03*
X302500Y888000D02*
D03*
X358500Y859000D02*
D03*
X402500Y828000D02*
D03*
X209500Y807000D02*
D03*
X194500D02*
D03*
X264500Y899000D02*
D03*
X279500D02*
D03*
X264500Y924000D02*
D03*
X387500Y828000D02*
D03*
X279500Y924000D02*
D03*
X358500Y844000D02*
D03*
X317500Y888000D02*
D03*
X373500Y844000D02*
D03*
Y859000D02*
D03*
X460500Y940000D02*
D03*
X445500D02*
D03*
D72*
X464500Y602500D02*
D03*
Y275500D02*
D03*
X219500Y927500D02*
D03*
D73*
X338000Y645000D02*
D03*
X314000Y654500D02*
D03*
Y635500D02*
D03*
X338000Y318000D02*
D03*
X314000Y327500D02*
D03*
Y308500D02*
D03*
X346000Y885000D02*
D03*
X370000Y875500D02*
D03*
Y894500D02*
D03*
D74*
X280350Y618250D02*
D03*
X254950Y563750D02*
D03*
X267650D02*
D03*
X280350D02*
D03*
X293050D02*
D03*
X254950Y618250D02*
D03*
X293050D02*
D03*
X267650D02*
D03*
X280350Y291250D02*
D03*
X254950Y236750D02*
D03*
X267650D02*
D03*
X280350D02*
D03*
X293050D02*
D03*
X254950Y291250D02*
D03*
X293050D02*
D03*
X267650D02*
D03*
X403650Y911750D02*
D03*
X429050Y966250D02*
D03*
X416350D02*
D03*
X403650D02*
D03*
X390950D02*
D03*
X429050Y911750D02*
D03*
X390950D02*
D03*
X416350D02*
D03*
D75*
X225250Y695000D02*
D03*
Y649000D02*
D03*
X246750Y695000D02*
D03*
Y649000D02*
D03*
X225250Y639500D02*
D03*
Y658500D02*
D03*
X246750Y639500D02*
D03*
X246750Y658500D02*
D03*
X246750Y685500D02*
D03*
X225250D02*
D03*
X246750Y704500D02*
D03*
X225250D02*
D03*
X225250Y368000D02*
D03*
Y322000D02*
D03*
X246750Y368000D02*
D03*
Y322000D02*
D03*
X225250Y312500D02*
D03*
Y331500D02*
D03*
X246750Y312500D02*
D03*
X246750Y331500D02*
D03*
X246750Y358500D02*
D03*
X225250D02*
D03*
X246750Y377500D02*
D03*
X225250D02*
D03*
X458750Y835000D02*
D03*
Y881000D02*
D03*
X437250Y835000D02*
D03*
Y881000D02*
D03*
X458750Y890500D02*
D03*
Y871500D02*
D03*
X437250Y890500D02*
D03*
X437250Y871500D02*
D03*
X437250Y844500D02*
D03*
X458750D02*
D03*
X437250Y825500D02*
D03*
X458750D02*
D03*
D76*
X215000Y531000D02*
D03*
X239000D02*
D03*
Y521500D02*
D03*
Y540500D02*
D03*
X215000Y521500D02*
D03*
Y540500D02*
D03*
Y204000D02*
D03*
X239000D02*
D03*
Y194500D02*
D03*
Y213500D02*
D03*
X215000Y194500D02*
D03*
Y213500D02*
D03*
X222000Y833000D02*
D03*
X469000Y999000D02*
D03*
X198000Y823500D02*
D03*
Y833000D02*
D03*
Y842500D02*
D03*
X222000D02*
D03*
Y823500D02*
D03*
X445000Y999000D02*
D03*
Y1008500D02*
D03*
Y989500D02*
D03*
X469000Y1008500D02*
D03*
Y989500D02*
D03*
D77*
X187000Y509500D02*
D03*
Y544500D02*
D03*
Y182500D02*
D03*
Y217500D02*
D03*
X497000Y1020500D02*
D03*
Y985500D02*
D03*
D78*
X533000Y728000D02*
D03*
Y743000D02*
D03*
Y713000D02*
D03*
Y698000D02*
D03*
X532500Y609750D02*
D03*
Y594750D02*
D03*
Y624750D02*
D03*
Y579750D02*
D03*
X533000Y401000D02*
D03*
Y416000D02*
D03*
Y386000D02*
D03*
Y371000D02*
D03*
X532500Y282750D02*
D03*
Y267750D02*
D03*
Y297750D02*
D03*
Y252750D02*
D03*
X151500Y920250D02*
D03*
Y935250D02*
D03*
Y905250D02*
D03*
Y950250D02*
D03*
X151000Y802100D02*
D03*
Y814800D02*
D03*
Y852900D02*
D03*
Y789400D02*
D03*
Y840200D02*
D03*
Y827500D02*
D03*
D79*
X455000Y686000D02*
D03*
X485000D02*
D03*
X455000Y359000D02*
D03*
X485000D02*
D03*
D80*
X210500Y566000D02*
D03*
X235500D02*
D03*
X210500Y239000D02*
D03*
X235500D02*
D03*
X473500Y964000D02*
D03*
X448500D02*
D03*
D81*
X352000Y807250D02*
D03*
Y826750D02*
D03*
X294000Y800750D02*
D03*
Y807250D02*
D03*
Y826750D02*
D03*
Y794250D02*
D03*
Y820250D02*
D03*
Y813750D02*
D03*
X352000Y820250D02*
D03*
Y813750D02*
D03*
Y794250D02*
D03*
Y787750D02*
D03*
Y781250D02*
D03*
Y800750D02*
D03*
X294000Y787750D02*
D03*
Y781250D02*
D03*
D82*
X221430Y862000D02*
D03*
X469430Y1028000D02*
D03*
X198570Y862000D02*
D03*
X446570Y1028000D02*
D03*
D83*
X225000Y804500D02*
D03*
Y787500D02*
D03*
D84*
X403250Y890000D02*
D03*
X356500Y910000D02*
D03*
X402500Y843000D02*
D03*
X358000Y968000D02*
D03*
X388250Y890000D02*
D03*
X490500Y909000D02*
D03*
X264500Y884000D02*
D03*
X387500Y843000D02*
D03*
X279500Y884000D02*
D03*
X475500Y873000D02*
D03*
Y891000D02*
D03*
Y848000D02*
D03*
Y823000D02*
D03*
X490500Y891000D02*
D03*
Y873000D02*
D03*
Y823000D02*
D03*
Y848000D02*
D03*
X475500Y909000D02*
D03*
X373000Y968000D02*
D03*
X371500Y910000D02*
D03*
D85*
X137000Y236000D02*
D03*
Y244000D02*
D03*
Y252000D02*
D03*
Y284000D02*
D03*
Y276000D02*
D03*
Y268000D02*
D03*
Y260000D02*
D03*
Y357000D02*
D03*
Y365000D02*
D03*
Y373000D02*
D03*
Y405000D02*
D03*
Y397000D02*
D03*
Y389000D02*
D03*
Y381000D02*
D03*
X547000Y414000D02*
D03*
Y406000D02*
D03*
Y398000D02*
D03*
Y366000D02*
D03*
Y374000D02*
D03*
Y382000D02*
D03*
Y390000D02*
D03*
Y223000D02*
D03*
Y215000D02*
D03*
Y207000D02*
D03*
Y175000D02*
D03*
Y183000D02*
D03*
Y191000D02*
D03*
Y199000D02*
D03*
Y555000D02*
D03*
Y547000D02*
D03*
Y539000D02*
D03*
Y507000D02*
D03*
Y515000D02*
D03*
Y523000D02*
D03*
Y531000D02*
D03*
Y741000D02*
D03*
Y733000D02*
D03*
Y725000D02*
D03*
Y693000D02*
D03*
Y701000D02*
D03*
Y709000D02*
D03*
Y717000D02*
D03*
X137000Y691000D02*
D03*
Y699000D02*
D03*
Y707000D02*
D03*
Y739000D02*
D03*
Y731000D02*
D03*
Y723000D02*
D03*
Y715000D02*
D03*
Y551000D02*
D03*
Y559000D02*
D03*
Y567000D02*
D03*
Y599000D02*
D03*
Y591000D02*
D03*
Y583000D02*
D03*
Y575000D02*
D03*
Y818000D02*
D03*
Y826000D02*
D03*
Y834000D02*
D03*
Y842000D02*
D03*
Y810000D02*
D03*
Y802000D02*
D03*
Y794000D02*
D03*
X547000Y843000D02*
D03*
Y835000D02*
D03*
Y827000D02*
D03*
Y795000D02*
D03*
Y803000D02*
D03*
Y811000D02*
D03*
Y819000D02*
D03*
Y954000D02*
D03*
Y946000D02*
D03*
Y938000D02*
D03*
Y930000D02*
D03*
Y962000D02*
D03*
Y970000D02*
D03*
Y978000D02*
D03*
X137000Y981000D02*
D03*
Y989000D02*
D03*
Y997000D02*
D03*
Y1029000D02*
D03*
Y1021000D02*
D03*
Y1013000D02*
D03*
Y1005000D02*
D03*
D86*
X465200Y540000D02*
D03*
Y514600D02*
D03*
X439800Y540000D02*
D03*
Y514600D02*
D03*
X414400Y540000D02*
D03*
Y514600D02*
D03*
X389000Y540000D02*
D03*
Y514600D02*
D03*
X363600Y540000D02*
D03*
Y514600D02*
D03*
X338200Y540000D02*
D03*
Y514600D02*
D03*
X312800Y540000D02*
D03*
Y514600D02*
D03*
X287400Y540000D02*
D03*
Y514600D02*
D03*
X262000Y540000D02*
D03*
Y514600D02*
D03*
X175000Y582000D02*
D03*
Y707000D02*
D03*
Y682000D02*
D03*
Y657000D02*
D03*
Y632000D02*
D03*
Y607000D02*
D03*
X465200Y213000D02*
D03*
Y187600D02*
D03*
X439800Y213000D02*
D03*
Y187600D02*
D03*
X414400Y213000D02*
D03*
Y187600D02*
D03*
X389000Y213000D02*
D03*
Y187600D02*
D03*
X363600Y213000D02*
D03*
Y187600D02*
D03*
X338200Y213000D02*
D03*
Y187600D02*
D03*
X312800Y213000D02*
D03*
Y187600D02*
D03*
X287400Y213000D02*
D03*
Y187600D02*
D03*
X262000Y213000D02*
D03*
Y187600D02*
D03*
X175000Y255000D02*
D03*
Y380000D02*
D03*
Y355000D02*
D03*
Y330000D02*
D03*
Y305000D02*
D03*
Y280000D02*
D03*
X218800Y990000D02*
D03*
Y1015400D02*
D03*
X244200Y990000D02*
D03*
Y1015400D02*
D03*
X269600Y990000D02*
D03*
Y1015400D02*
D03*
X295000Y990000D02*
D03*
Y1015400D02*
D03*
X320400Y990000D02*
D03*
Y1015400D02*
D03*
X345800Y990000D02*
D03*
Y1015400D02*
D03*
X371200Y990000D02*
D03*
Y1015400D02*
D03*
X396600Y990000D02*
D03*
Y1015400D02*
D03*
X422000Y990000D02*
D03*
Y1015400D02*
D03*
X509000Y948000D02*
D03*
Y823000D02*
D03*
Y848000D02*
D03*
Y873000D02*
D03*
Y898000D02*
D03*
Y923000D02*
D03*
D87*
X517000Y524000D02*
D03*
Y197000D02*
D03*
X167000Y1006000D02*
D03*
M02*
