M48
;Layer_Color=9474304
;FILE_FORMAT=4:4
METRIC,LZ
;TYPE=PLATED
T01F00S00C0.2000
T02F00S00C0.3000
T03F00S00C0.7000
T04F00S00C1.0000
T05F00S00C1.1000
%
T01
X00218Y00127
X00224
X0023
Y00133
X00224
X00218
Y00139
X00218005Y00144951
Y00150951
X00224Y00151
Y00145
Y00139
X0023
X00230005Y00144951
Y00150951
X00219Y00163
X00207Y00194
X00172Y00202
X00156Y00199
Y00206
X001565Y0018875
X00159Y00253
X001665Y00268
X00159Y00283
X00189
X002115Y00268
X00231Y00285
Y00301
X00224
X00239
X0025495Y0030095
X00264Y00313
X002565Y00328
X00249Y00343
X00268Y003465
X00267Y00354
Y00359
X00264Y00373
X00274Y00375
X00281Y00383
X00291Y003615
X002885Y003565
X00286Y003515
X00288Y00322
X00287Y00313
X0029305Y00301
X00307Y00301
X00313Y00301
X00327Y00302
X00324Y00313
X00328Y00318
X003315Y00328
X00338Y00325
X00341Y00336
X00325
X00319Y00344
X00333Y00351
X00348Y00352
X00353Y003315
X00374Y003265
X00375Y003365
X00378Y003415
X00375Y003465
X00369Y00373
X00384
X00351Y00391
X00344
X00323Y00389
X00338Y00311
X00348Y00307
X00391Y00311
X00396Y00316
X0038025Y0028025
X0036075Y002485
X0035425
X00336Y00255
X00326Y00248
X00319Y00242
X00311Y00248
X00302Y00256
X00294Y00253
X002925Y002635
X00278Y00265
X00279Y00253
X00264
X00249
Y00223
X00319Y00228
X00324Y00226
X0034775
X003765Y00178
X003015
X00285Y0028
X00286Y00291
X00275
X0021Y00303
X00216Y003125
Y003315
X00219Y00343
X00204
X00189
X00159
Y00373
Y00313
X00216Y00358
Y003775
X00231Y00388
X00226Y00393
X00406Y0038
Y00375
X00429Y00373
X00429Y0038
X0043Y00388
X00438
X004215
X00457Y00387
Y0038
X00447Y00372
X00483Y0038
Y00387
X004965Y00388
X00504Y00373
X005115Y00358
X005265
X00527Y00371
X00533
X00539
Y00386
X00533
X00527
X005415Y00358
X00534Y00343
X004965Y00358
X00468Y00348
X00474Y00313
X00484Y0031125
X004755Y002975
X004645
X004535
Y002865
X004645
X004755
Y002755
X004645
X004535
Y002645
X004645
X004755
Y002535
X004645
X004535
X004515Y00238
X004665
X004215
X00408625Y00246938
X00405156Y00252156
X004085Y002575
X00405Y00263
X00409Y00268
X00412Y00285
X0040625Y003215
X00438Y00325
X00459Y00313
X004895Y0028525
X004965
X005025
Y0026575
X004965Y0026575
X004895Y0026575
X004965Y00178
X005115
X005265
X005415
X00519Y00163
X00504
X00503Y00151
Y00145
Y00139
Y00133
Y00127
X00509
Y00133
Y00139
X00509005Y00144951
Y00150951
X00497005
Y00144951
X00497Y00139
Y00133
Y00127
X00489Y00163
X00474
X004815Y00178
X004515
X00399Y00223
X00507Y00409
X00514
X00509Y00454
X00503
X00497
Y0046
X00503
X00509
Y00466
X00509005Y00471951
Y00477951
X00503Y00478
Y00472
Y00466
X00497
X00497005Y00471951
Y00477951
X00504Y0049
X00519
X005265Y00505
X005415
X005115
X004965
X004815
X00474Y0049
X00489
X004515Y00505
Y00565
X004665
X004645Y005805
Y005915
Y006025
Y006135
Y006245
X004755
Y006135
Y006025
Y005915
Y005805
X004535
Y005915
Y006025
Y006135
Y006245
X00459Y0064
X00474
X00484Y0063825
X004895Y0061225
X004965
X005025
Y0059275
X004965Y0059275
X004895Y0059275
X00409Y00595
X00405Y0059
X004085Y005845
X00405156Y00579156
X00408625Y00573937
X004215Y00565
X00399Y0055
X00412Y00612
X0040625Y006485
X00438Y00652
X00468Y00675
X004965Y00685
X005115
X005265
X00527Y00698
X00533
X00539
Y00713
X00533
X00527
X004965Y00715
X00483Y00714
Y00707
X00457
Y00714
X00438Y00715
X0043
X004215
X00429Y00707
X00429Y007
X00447Y00699
X00406Y00702
Y00707
X003985Y00787
X00496Y00787
X00506
X00501Y00782
Y00792
X00511
X00521
X00531
X00526Y00787
X00521Y00782
X00531
X00536Y00787
X00541Y00792
X00516Y00787
X00511Y00782
X00514Y00736
X00507
X00504Y007
X005415Y00685
X00534Y0067
X00378Y006685
X00375Y006735
Y006635
X00374Y006535
X00353Y006585
X00341Y00663
X00338Y00652
X003315Y00655
X00328Y00645
X00324Y0064
X00327Y00629
X00313Y00628
X00307Y00628
X0029305Y00628
X00286Y00618
X00275
X00285Y00607
X00278Y00592
X00279Y0058
X00294
X00302Y00583
X00311Y00575
X00319Y00569
X00326Y00575
X00336Y00582
X0035425Y005755
X0036075
X0034775Y00553
X00324
X00319Y00555
X002925Y005905
X00264Y0058
X00249
Y0055
X00207Y00521
X00219Y0049
X00218005Y00477951
Y00471951
X00218Y00466
Y0046
Y00454
X00224
X0023
Y0046
X00224
Y00466
Y00472
Y00478
X00230005Y00477951
Y00471951
X0023Y00466
X00216Y00403
X00221Y00398
X0021
X00183Y00411
Y00421
X00188Y00416
X00178
X00173Y00421
X00168Y00416
X00173Y00411
X00163
X00153
X00158Y00416
X00163Y00421
X00153
X00148Y00416
X00143Y00411
X00144Y00403
X001565Y0051575
X00156Y00526
Y00533
X00172Y00529
X00159Y0058
X001665Y00595
X00159Y0061
X00189
X002115Y00595
X00231Y00612
Y00628
X00224
X00239
X0025495Y0062795
X00264Y0064
X002565Y00655
X00249Y0067
X00268Y006735
X00267Y00681
Y00686
X00264Y007
X00274Y00702
X00281Y0071
X00291Y006885
X002885Y006835
X00286Y006785
X00288Y00649
X00287Y0064
X00338Y00638
X00348Y00634
Y00679
X00333Y00678
X00319Y00671
X00325Y00663
X00323Y00716
X00324Y0073
X00344Y00718
X00351
X00366Y00728
X00359Y00746
X00369Y007
X00384
X00391Y00638
X00396Y00643
X0038025Y0060725
X003765Y00505
X003015
Y00418
X00324Y00403
X00366Y00401
X00359Y00419
X0021Y0063
X00216Y006395
Y006585
X00219Y0067
X00204
X00189
X00159
Y007
X00163Y00738
X00153
X00158Y00743
X00163Y00748
X00153
X00148Y00743
X00143Y00738
X00144Y0073
X00173Y00738
Y00748
X00168Y00743
X00178
X00183Y00748
X00188Y00743
X00183Y00738
X0021Y00725
X00221
X00226Y0072
X00231Y00715
X00216Y007045
Y00685
Y0073
X003015Y00745
X003085Y00787
X0032525Y00786
X002785Y00787
X00159Y0064
X00167Y00794
Y00802
Y00815
Y00828
Y0084
Y00853
X002035Y00877
X002Y0089175
X00211Y00892
X00226
X002305Y009055
X002195
X002085
Y009165
X002195
X002305
Y009275
X002195
X002085
Y009385
X002195
X002305
Y009495
X002195
X002085
X001945Y0093725
X001875Y0093725
X001815Y0093725
Y0091775
X001875
X001945
X002185Y00967
X002335
X002635
X00275375Y00956062
X00278844Y00950844
X002755Y009455
X00279Y0094
X00275Y00935
X00269Y0091575
X0030375Y0092275
X00293Y00892
X00288Y00887
X0027775Y008815
X00286Y00862
X00306Y008615
X00309Y008565
Y008665
X0031Y008765
X00331Y008715
X00344Y00868
X00346Y00878
X003535Y00877
X00356Y00885
X00357Y00901
X00371Y00902
X00377Y00902
X0039095Y00902
X00396Y00881
X003955Y008465
X00393Y008415
X00366Y00859
X00359Y00868
X00351Y00852
X00336Y00851
X00316Y00832
X00308Y008265
Y0082
Y008135
Y00807
Y008005
Y00794
X00316Y00802
X003565Y0081375
X00366Y00814
X00364Y00794
X00346Y00892
X00336Y00896
X00348Y00948
X00358Y00955
X00365Y00961
X00373Y00955
X00382Y00947
X00391Y00952
X003915Y009395
X00376Y00922
X00365Y00975
X0036Y00977
X0033625
X0032975Y009545
X0032325
X003085Y01027
X002785
X002335
X002035
X001885
X001735
X001585
X001435
X00151Y01012
X00181
X00196
X00181Y01042
X00181Y01052
Y01058
Y01064
Y0107
Y01076
X00175
Y0107
Y01064
X00174995Y01058049
Y01052049
X00186995
Y01058049
X00187Y01064
Y0107
Y01076
X003835Y01027
Y00997
X00246Y00878
X00271Y00832
X0041Y00828
X00403Y0082
X00421Y00832
X00417Y00844
Y00849
X00416Y008565
X00421Y00862
X00436
X00466
X00468Y008715
Y008905
X00474Y009
X0046Y00902
X00453
X00445
X0042905Y0090205
X00421Y00892
X00397Y0089
X00398Y00912
X00409
X00399Y00923
X00406Y00938
X00421Y00952
X00436
Y00982
X004585Y01027
X00466Y01042
X00465995Y01052049
Y01058049
X00466Y01064
Y0107
Y01076
X0046
X00454
Y0107
X0046
Y01064
Y01058
Y01052
X00453995Y01052049
Y01058049
X00454Y01064
X00451Y01042
X00477Y01009
X005035Y00997
X00512Y01001
X00528Y01004
Y00997
X005275Y0101425
X00526Y00952
X005185Y00937
X00526Y00922
Y00892
Y00862
X00496
X00481
X00468Y00845
Y008255
X00463Y00805
X00458Y0081
X00453Y00815
X00468Y008
X00474Y00805
X00496Y00832
X00526
X00398Y008515
X00453Y00918
X004735Y00937
X004885Y00967
T02
X00148Y00166
X00175
X00181Y00171
X00187Y00166
X00193Y00171
X00199Y00166
X00204Y00186
X002Y00204
X00192
X00225Y00204
X00226Y00188
X00148Y00226
X00216Y00322
X00237
Y00368
X00203
X0035325Y003765
X00375Y00363
X00368Y00279477
X00387Y00279
X00447Y00786
X00375Y0069
X0035325Y007035
X00368Y00606477
X00387Y00606
X00237Y00649
X00216
X00203Y00695
X00237
Y00744
X00271Y00787
X00225Y00531
X00226Y00515
X00204Y00513
X002Y00531
X00192
X00193Y00498
X00199Y00493
X00187
X00181Y00498
X00175Y00493
X00148
Y00553
X00237Y00417
X00236Y00823
Y0083
X00212Y00833
X00211Y00842
X00235Y00856
Y00864
Y00872
X0030925Y008415
X0033075Y008265
X00271Y00794
X00297Y00924
X00316Y00923523
X00447Y00881
X00468
X00481Y00835
X00447
X00459Y00999
X00458Y01015
X0048Y01017
X00484Y00999
X00492
X00491Y01032
X00485Y01037
X00497
X00503Y01032
X00509Y01037
X00536
Y00977
T03
X00517Y00197
Y00217
X00527Y00335
X00507
X00517Y00524
Y00544
X00527Y00662
X00507
X00177Y00868
X00157
X00167Y00986
Y01006
T04
X00175Y00255
Y0028
Y00305
Y0033
Y00355
Y0038
Y00582
Y00607
Y00632
Y00657
Y00682
Y00707
X00509Y00823
Y00848
Y00873
Y00898
Y00923
Y00948
T05
X00262Y001876
X002874
X003128
X003382
X003636
X00389
Y00213
X003636
X003382
X003128
X002874
X00262
X004144
X004398
X004652
Y001876
X004398
X004144
Y005146
X004398
X004652
Y0054
X004398
X004144
X00389
Y005146
X003636
Y0054
X003382
Y005146
X003128
Y0054
X002874
Y005146
X00262
Y0054
X002696Y0099
X002442
X002188
Y010154
X002442
X002696
X00295
Y0099
X003204
Y010154
X003458
Y0099
X003712
Y010154
X003966
Y0099
X00422
Y010154
M30
