G04*
G04 #@! TF.GenerationSoftware,Altium Limited,Altium Designer,25.5.2 (35)*
G04*
G04 Layer_Physical_Order=4*
G04 Layer_Color=16711680*
%FSLAX44Y44*%
%MOMM*%
G71*
G04*
G04 #@! TF.SameCoordinates,62C8F6CB-47DE-4BB4-89D1-A73908D99D6D*
G04*
G04*
G04 #@! TF.FilePolarity,Positive*
G04*
G01*
G75*
%ADD10C,1.0000*%
G04:AMPARAMS|DCode=11|XSize=3mm|YSize=2mm|CornerRadius=0.5mm|HoleSize=0mm|Usage=FLASHONLY|Rotation=90.000|XOffset=0mm|YOffset=0mm|HoleType=Round|Shape=RoundedRectangle|*
%AMROUNDEDRECTD11*
21,1,3.0000,1.0000,0,0,90.0*
21,1,2.0000,2.0000,0,0,90.0*
1,1,1.0000,0.5000,1.0000*
1,1,1.0000,0.5000,-1.0000*
1,1,1.0000,-0.5000,-1.0000*
1,1,1.0000,-0.5000,1.0000*
%
%ADD11ROUNDEDRECTD11*%
G04:AMPARAMS|DCode=20|XSize=0.8mm|YSize=1mm|CornerRadius=0.1mm|HoleSize=0mm|Usage=FLASHONLY|Rotation=0.000|XOffset=0mm|YOffset=0mm|HoleType=Round|Shape=RoundedRectangle|*
%AMROUNDEDRECTD20*
21,1,0.8000,0.8000,0,0,0.0*
21,1,0.6000,1.0000,0,0,0.0*
1,1,0.2000,0.3000,-0.4000*
1,1,0.2000,-0.3000,-0.4000*
1,1,0.2000,-0.3000,0.4000*
1,1,0.2000,0.3000,0.4000*
%
%ADD20ROUNDEDRECTD20*%
G04:AMPARAMS|DCode=27|XSize=1mm|YSize=2mm|CornerRadius=0.25mm|HoleSize=0mm|Usage=FLASHONLY|Rotation=90.000|XOffset=0mm|YOffset=0mm|HoleType=Round|Shape=RoundedRectangle|*
%AMROUNDEDRECTD27*
21,1,1.0000,1.5000,0,0,90.0*
21,1,0.5000,2.0000,0,0,90.0*
1,1,0.5000,0.7500,0.2500*
1,1,0.5000,0.7500,-0.2500*
1,1,0.5000,-0.7500,-0.2500*
1,1,0.5000,-0.7500,0.2500*
%
%ADD27ROUNDEDRECTD27*%
%ADD31C,0.2000*%
%ADD32C,0.3000*%
%ADD34C,0.5000*%
G04:AMPARAMS|DCode=42|XSize=0.8mm|YSize=1mm|CornerRadius=0.1mm|HoleSize=0mm|Usage=FLASHONLY|Rotation=360.000|XOffset=0mm|YOffset=0mm|HoleType=Round|Shape=RoundedRectangle|*
%AMROUNDEDRECTD42*
21,1,0.8000,0.8000,0,0,360.0*
21,1,0.6000,1.0000,0,0,360.0*
1,1,0.2000,0.3000,-0.4000*
1,1,0.2000,-0.3000,-0.4000*
1,1,0.2000,-0.3000,0.4000*
1,1,0.2000,0.3000,0.4000*
%
%ADD42ROUNDEDRECTD42*%
%ADD44C,2.0000*%
%ADD45C,1.2000*%
%ADD46C,0.4000*%
%ADD47C,0.5000*%
%ADD48C,0.6000*%
%ADD51R,0.8000X0.9000*%
%ADD52R,0.7000X0.9000*%
G04:AMPARAMS|DCode=53|XSize=0.3mm|YSize=1.2mm|CornerRadius=0.075mm|HoleSize=0mm|Usage=FLASHONLY|Rotation=180.000|XOffset=0mm|YOffset=0mm|HoleType=Round|Shape=RoundedRectangle|*
%AMROUNDEDRECTD53*
21,1,0.3000,1.0500,0,0,180.0*
21,1,0.1500,1.2000,0,0,180.0*
1,1,0.1500,-0.0750,0.5250*
1,1,0.1500,0.0750,0.5250*
1,1,0.1500,0.0750,-0.5250*
1,1,0.1500,-0.0750,-0.5250*
%
%ADD53ROUNDEDRECTD53*%
G04:AMPARAMS|DCode=54|XSize=1.8mm|YSize=1.84mm|CornerRadius=0.225mm|HoleSize=0mm|Usage=FLASHONLY|Rotation=0.000|XOffset=0mm|YOffset=0mm|HoleType=Round|Shape=RoundedRectangle|*
%AMROUNDEDRECTD54*
21,1,1.8000,1.3900,0,0,0.0*
21,1,1.3500,1.8400,0,0,0.0*
1,1,0.4500,0.6750,-0.6950*
1,1,0.4500,-0.6750,-0.6950*
1,1,0.4500,-0.6750,0.6950*
1,1,0.4500,0.6750,0.6950*
%
%ADD54ROUNDEDRECTD54*%
G04:AMPARAMS|DCode=55|XSize=0.45mm|YSize=0.45mm|CornerRadius=0.0563mm|HoleSize=0mm|Usage=FLASHONLY|Rotation=0.000|XOffset=0mm|YOffset=0mm|HoleType=Round|Shape=RoundedRectangle|*
%AMROUNDEDRECTD55*
21,1,0.4500,0.3375,0,0,0.0*
21,1,0.3375,0.4500,0,0,0.0*
1,1,0.1125,0.1688,-0.1688*
1,1,0.1125,-0.1688,-0.1688*
1,1,0.1125,-0.1688,0.1688*
1,1,0.1125,0.1688,0.1688*
%
%ADD55ROUNDEDRECTD55*%
G04:AMPARAMS|DCode=56|XSize=0.45mm|YSize=0.35mm|CornerRadius=0.0438mm|HoleSize=0mm|Usage=FLASHONLY|Rotation=0.000|XOffset=0mm|YOffset=0mm|HoleType=Round|Shape=RoundedRectangle|*
%AMROUNDEDRECTD56*
21,1,0.4500,0.2625,0,0,0.0*
21,1,0.3625,0.3500,0,0,0.0*
1,1,0.0875,0.1813,-0.1313*
1,1,0.0875,-0.1813,-0.1313*
1,1,0.0875,-0.1813,0.1313*
1,1,0.0875,0.1813,0.1313*
%
%ADD56ROUNDEDRECTD56*%
G04:AMPARAMS|DCode=57|XSize=1.2mm|YSize=0.3mm|CornerRadius=0.075mm|HoleSize=0mm|Usage=FLASHONLY|Rotation=180.000|XOffset=0mm|YOffset=0mm|HoleType=Round|Shape=RoundedRectangle|*
%AMROUNDEDRECTD57*
21,1,1.2000,0.1500,0,0,180.0*
21,1,1.0500,0.3000,0,0,180.0*
1,1,0.1500,-0.5250,0.0750*
1,1,0.1500,0.5250,0.0750*
1,1,0.1500,0.5250,-0.0750*
1,1,0.1500,-0.5250,-0.0750*
%
%ADD57ROUNDEDRECTD57*%
G36*
X461000Y1046940D02*
X465000D01*
X466827Y1047180D01*
X468530Y1047886D01*
X469992Y1049007D01*
X470103Y1049152D01*
X471557Y1048960D01*
X471826Y1048311D01*
X471965Y1048102D01*
X472062Y1047870D01*
X473151Y1046240D01*
X473328Y1046062D01*
X473468Y1045854D01*
X474854Y1044468D01*
X475062Y1044328D01*
X475240Y1044151D01*
X476870Y1043062D01*
X477102Y1042965D01*
X477311Y1042826D01*
X479122Y1042076D01*
X479368Y1042027D01*
X479600Y1041931D01*
X481523Y1041548D01*
X481712D01*
X481895Y1041502D01*
X482875Y1041454D01*
X482938Y1041464D01*
X483000Y1041451D01*
X531584D01*
X532110Y1040181D01*
X531761Y1039832D01*
X531000Y1037995D01*
Y1036005D01*
X531761Y1034168D01*
X532431Y1033497D01*
Y1020952D01*
X531161Y1020219D01*
X530202Y1020773D01*
X528422Y1021250D01*
X526578D01*
X524798Y1020773D01*
X523202Y1019851D01*
X521899Y1018548D01*
X520977Y1016952D01*
X520500Y1015172D01*
Y1014191D01*
X518878Y1012569D01*
X478837D01*
X477796Y1013000D01*
X476204D01*
X474734Y1012391D01*
X473609Y1011266D01*
X473000Y1009796D01*
Y1008204D01*
X473609Y1006734D01*
X474734Y1005609D01*
X476204Y1005000D01*
X477796D01*
X478837Y1005431D01*
X520356D01*
X521721Y1005703D01*
X522879Y1006477D01*
X524374Y1007972D01*
X524798Y1007727D01*
X526578Y1007250D01*
X528422D01*
X530202Y1007727D01*
X531161Y1008281D01*
X532431Y1007548D01*
Y980502D01*
X531761Y979832D01*
X531000Y977995D01*
Y976005D01*
X531761Y974168D01*
X533168Y972761D01*
X535005Y972000D01*
X536995D01*
X538832Y972761D01*
X540239Y974168D01*
X541000Y976005D01*
Y977995D01*
X540239Y979832D01*
X539569Y980502D01*
Y1033497D01*
X540239Y1034168D01*
X541000Y1036005D01*
Y1037995D01*
X540561Y1039055D01*
X541587Y1039897D01*
X541750Y1039788D01*
X542788Y1038750D01*
X543603Y1037529D01*
X544165Y1036173D01*
X544451Y1034734D01*
Y1034000D01*
Y785000D01*
Y784266D01*
X544165Y782827D01*
X543603Y781471D01*
X542788Y780250D01*
X541750Y779212D01*
X540529Y778397D01*
X539173Y777835D01*
X537734Y777549D01*
X146266D01*
X144827Y777835D01*
X143471Y778397D01*
X142250Y779212D01*
X141212Y780250D01*
X140397Y781471D01*
X140074Y782250D01*
X141100Y783091D01*
X141744Y782661D01*
X143500Y782312D01*
X153500D01*
X153500Y782312D01*
X171709D01*
X173465Y782661D01*
X174953Y783656D01*
X180709Y789412D01*
X265212D01*
X266061Y788142D01*
X266000Y787995D01*
Y786005D01*
X266761Y784168D01*
X268168Y782761D01*
X270005Y782000D01*
X271995D01*
X273832Y782761D01*
X275239Y784168D01*
X276000Y786005D01*
Y787995D01*
X275588Y788989D01*
Y792011D01*
X276000Y793005D01*
Y794995D01*
X275838Y795385D01*
X276544Y796441D01*
X301233D01*
X304000Y793674D01*
Y793204D01*
X304609Y791734D01*
X305734Y790609D01*
X307204Y790000D01*
X308796D01*
X310266Y790609D01*
X311391Y791734D01*
X312000Y793204D01*
Y794796D01*
X311391Y796266D01*
X310407Y797250D01*
X311391Y798234D01*
X312000Y799704D01*
Y801296D01*
X311391Y802766D01*
X310407Y803750D01*
X311391Y804734D01*
X312000Y806204D01*
Y807796D01*
X311391Y809266D01*
X310407Y810250D01*
X311391Y811234D01*
X312000Y812704D01*
Y814296D01*
X311391Y815766D01*
X310407Y816750D01*
X311391Y817734D01*
X312000Y819204D01*
Y820796D01*
X311391Y822266D01*
X310407Y823250D01*
X311391Y824234D01*
X312000Y825704D01*
Y827296D01*
X311391Y828766D01*
X310266Y829891D01*
X308796Y830500D01*
X307204D01*
X305734Y829891D01*
X304609Y828766D01*
X304000Y827296D01*
Y826826D01*
X297233Y820059D01*
X183059D01*
Y840000D01*
X183059Y840000D01*
X182826Y841171D01*
X182163Y842163D01*
X171000Y853326D01*
Y853796D01*
X170391Y855266D01*
X169266Y856391D01*
X167796Y857000D01*
X166204D01*
X164734Y856391D01*
X163609Y855266D01*
X163000Y853796D01*
Y852204D01*
X163609Y850734D01*
X164734Y849609D01*
X166204Y849000D01*
X166674D01*
X176941Y838733D01*
Y836044D01*
X175768Y835558D01*
X171000Y840326D01*
Y840796D01*
X170391Y842266D01*
X169266Y843391D01*
X167796Y844000D01*
X166204D01*
X164734Y843391D01*
X163609Y842266D01*
X163000Y840796D01*
Y839204D01*
X163609Y837734D01*
X164734Y836609D01*
X166204Y836000D01*
X166674D01*
X173013Y829662D01*
Y827972D01*
X171839Y827486D01*
X171000Y828326D01*
Y828796D01*
X170391Y830266D01*
X169266Y831391D01*
X167796Y832000D01*
X166204D01*
X164734Y831391D01*
X164210Y830867D01*
X162833Y831285D01*
X162739Y831756D01*
X161744Y833244D01*
X160256Y834239D01*
X158500Y834588D01*
X152000D01*
Y827500D01*
Y820412D01*
X158500D01*
X160256Y820761D01*
X161744Y821756D01*
X162739Y823244D01*
X162998Y824549D01*
X164072Y824992D01*
X164354Y824989D01*
X164734Y824609D01*
X166204Y824000D01*
X166674D01*
X169360Y821315D01*
Y819727D01*
X168090Y818878D01*
X167796Y819000D01*
X166204D01*
X164734Y818391D01*
X163609Y817266D01*
X163000Y815796D01*
Y814204D01*
X163609Y812734D01*
X164734Y811609D01*
X166204Y811000D01*
X166674D01*
X170442Y807232D01*
X169956Y806059D01*
X168541D01*
X168541Y806059D01*
X167942Y805939D01*
X167796Y806000D01*
X166204D01*
X164734Y805391D01*
X163609Y804266D01*
X163000Y802796D01*
Y801204D01*
X163609Y799734D01*
X164623Y798720D01*
X164683Y798000D01*
X164623Y797280D01*
X163609Y796266D01*
X163193Y795262D01*
X161834Y795022D01*
X161825Y795024D01*
X161744Y795144D01*
X160256Y796139D01*
X158500Y796488D01*
X143500D01*
X141744Y796139D01*
X140819Y795521D01*
X139549Y796198D01*
Y820702D01*
X140819Y821379D01*
X141744Y820761D01*
X143500Y820412D01*
X150000D01*
Y827500D01*
Y834588D01*
X143500D01*
X141744Y834239D01*
X140819Y833621D01*
X139549Y834298D01*
Y1034000D01*
Y1034734D01*
X139835Y1036173D01*
X140397Y1037529D01*
X141212Y1038750D01*
X142250Y1039788D01*
X143471Y1040603D01*
X144827Y1041165D01*
X146266Y1041451D01*
X158000D01*
X158062Y1041464D01*
X158125Y1041454D01*
X159105Y1041502D01*
X159289Y1041548D01*
X159478D01*
X161400Y1041931D01*
X161632Y1042027D01*
X161878Y1042076D01*
X163689Y1042826D01*
X163898Y1042965D01*
X164130Y1043062D01*
X165760Y1044151D01*
X165938Y1044328D01*
X166146Y1044468D01*
X167532Y1045854D01*
X167672Y1046062D01*
X167849Y1046240D01*
X168939Y1047870D01*
X169035Y1048102D01*
X169174Y1048311D01*
X169443Y1048960D01*
X170897Y1049152D01*
X171008Y1049007D01*
X172470Y1047886D01*
X174173Y1047180D01*
X176000Y1046940D01*
X180000D01*
Y1064000D01*
X182000D01*
Y1046940D01*
X186000D01*
X187827Y1047180D01*
X189530Y1047886D01*
X190993Y1049007D01*
X191103Y1049152D01*
X192557Y1048960D01*
X192826Y1048311D01*
X192966Y1048102D01*
X193062Y1047870D01*
X194151Y1046240D01*
X194328Y1046062D01*
X194468Y1045854D01*
X195854Y1044468D01*
X196063Y1044328D01*
X196240Y1044151D01*
X197870Y1043062D01*
X198102Y1042965D01*
X198311Y1042826D01*
X200122Y1042076D01*
X200368Y1042027D01*
X200600Y1041931D01*
X202523Y1041548D01*
X202712D01*
X202895Y1041502D01*
X203875Y1041454D01*
X203938Y1041464D01*
X204000Y1041451D01*
X204757D01*
X204820Y1041464D01*
X204883Y1041454D01*
X205886Y1041504D01*
X206070Y1041550D01*
X206259D01*
X208228Y1041941D01*
X208460Y1042037D01*
X208706Y1042086D01*
X210561Y1042855D01*
X210770Y1042994D01*
X211002Y1043090D01*
X212671Y1044206D01*
X212805Y1044339D01*
X212967Y1044436D01*
X213712Y1045111D01*
X213750Y1045162D01*
X213802Y1045198D01*
X215289Y1046685D01*
X218786Y1049021D01*
X222672Y1050631D01*
X226797Y1051451D01*
X414203D01*
X418328Y1050631D01*
X422214Y1049021D01*
X425711Y1046685D01*
X427198Y1045198D01*
X427251Y1045162D01*
X427288Y1045111D01*
X428033Y1044436D01*
X428195Y1044339D01*
X428329Y1044206D01*
X429998Y1043090D01*
X430230Y1042994D01*
X430439Y1042855D01*
X432294Y1042086D01*
X432540Y1042037D01*
X432772Y1041941D01*
X434742Y1041550D01*
X434930D01*
X435114Y1041504D01*
X436118Y1041454D01*
X436180Y1041464D01*
X436243Y1041451D01*
X437000D01*
X437062Y1041464D01*
X437125Y1041454D01*
X438105Y1041502D01*
X438288Y1041548D01*
X438478D01*
X440400Y1041931D01*
X440632Y1042027D01*
X440878Y1042076D01*
X442689Y1042826D01*
X442898Y1042965D01*
X443130Y1043062D01*
X444760Y1044151D01*
X444938Y1044328D01*
X445146Y1044468D01*
X446532Y1045854D01*
X446672Y1046062D01*
X446849Y1046240D01*
X447938Y1047870D01*
X448035Y1048102D01*
X448174Y1048311D01*
X448443Y1048960D01*
X449897Y1049152D01*
X450008Y1049007D01*
X451470Y1047886D01*
X453173Y1047180D01*
X455000Y1046940D01*
X459000D01*
Y1064000D01*
X461000D01*
Y1046940D01*
D02*
G37*
G36*
X520912Y743600D02*
Y740500D01*
X521261Y738744D01*
X522256Y737256D01*
X523744Y736261D01*
X524316Y736147D01*
Y734853D01*
X523744Y734739D01*
X522256Y733744D01*
X521483Y732588D01*
X518660D01*
X517981Y733858D01*
X518239Y734244D01*
X518588Y736000D01*
X518239Y737756D01*
X517244Y739244D01*
X515756Y740239D01*
X514000Y740588D01*
X472901D01*
X470244Y743244D01*
X469914Y743465D01*
X469652Y745167D01*
X469848Y745412D01*
X519100D01*
X520912Y743600D01*
D02*
G37*
G36*
X422789Y751278D02*
X420756Y749244D01*
X419761Y747756D01*
X419622Y747059D01*
X419500D01*
X418330Y746826D01*
X417337Y746163D01*
X416674Y745171D01*
X416441Y744000D01*
Y736000D01*
X416674Y734829D01*
X417337Y733837D01*
X417912Y733453D01*
Y731047D01*
X417337Y730663D01*
X416674Y729670D01*
X416441Y728500D01*
Y722843D01*
X415171Y722317D01*
X413559Y723930D01*
Y728500D01*
X413326Y729670D01*
X412663Y730663D01*
X411671Y731326D01*
X410500Y731559D01*
X404500D01*
X403330Y731326D01*
X402337Y730663D01*
X401674Y729670D01*
X401441Y728500D01*
Y720500D01*
X401674Y719330D01*
X402337Y718337D01*
X403098Y717829D01*
X402941Y716696D01*
X402887Y716559D01*
X362059D01*
Y738828D01*
X362059Y738828D01*
X361826Y739999D01*
X361163Y740991D01*
X361163Y740991D01*
X360857Y741297D01*
X361105Y742542D01*
X361266Y742609D01*
X362391Y743734D01*
X363000Y745204D01*
Y746796D01*
X362391Y748266D01*
X361266Y749391D01*
X359796Y750000D01*
X358204D01*
X356734Y749391D01*
X356402Y749059D01*
X319000D01*
X319000Y749059D01*
X317829Y748826D01*
X316837Y748163D01*
X306733Y738059D01*
X239041D01*
X238788Y739329D01*
X239832Y739761D01*
X241239Y741168D01*
X242000Y743005D01*
Y744995D01*
X241239Y746832D01*
X239832Y748239D01*
X237995Y749000D01*
X236005D01*
X234168Y748239D01*
X232761Y746832D01*
X232000Y744995D01*
Y743005D01*
X232761Y741168D01*
X234168Y739761D01*
X235212Y739329D01*
X234959Y738059D01*
X214000D01*
X212829Y737826D01*
X211837Y737163D01*
X211837Y737163D01*
X207837Y733163D01*
X207174Y732170D01*
X206941Y731000D01*
X206941Y731000D01*
Y727598D01*
X206609Y727266D01*
X206000Y725796D01*
Y724204D01*
X206609Y722734D01*
X207734Y721609D01*
X209204Y721000D01*
X210796D01*
X212266Y721609D01*
X213391Y722734D01*
X214000Y724204D01*
Y725124D01*
X215181Y726010D01*
X215204Y726000D01*
X215827D01*
X216826Y725826D01*
X217000Y724827D01*
Y724204D01*
X217609Y722734D01*
X218734Y721609D01*
X220204Y721000D01*
X220827D01*
X221826Y720826D01*
X222000Y719827D01*
Y719204D01*
X222609Y717734D01*
X223734Y716609D01*
X225204Y716000D01*
X225827D01*
X226826Y715826D01*
X227000Y714827D01*
Y714204D01*
X227609Y712734D01*
X228734Y711609D01*
X230204Y711000D01*
X231796D01*
X233266Y711609D01*
X233598Y711941D01*
X289441D01*
Y710245D01*
X289160Y709823D01*
X288946Y708750D01*
Y698250D01*
X289160Y697177D01*
X289767Y696267D01*
X290677Y695660D01*
X291750Y695446D01*
X293250D01*
X294323Y695660D01*
X295000Y696112D01*
X295677Y695660D01*
X296750Y695446D01*
X298250D01*
X299323Y695660D01*
X300000Y696112D01*
X300677Y695660D01*
X301750Y695446D01*
X303250D01*
X304323Y695660D01*
X305000Y696112D01*
X305677Y695660D01*
X306750Y695446D01*
X308250D01*
X309323Y695660D01*
X310000Y696112D01*
X310677Y695660D01*
X311750Y695446D01*
X313250D01*
X314323Y695660D01*
X315000Y696112D01*
X315677Y695660D01*
X316750Y695446D01*
X318250D01*
X319323Y695660D01*
X320000Y696112D01*
X320677Y695660D01*
X321750Y695446D01*
X323250D01*
X324323Y695660D01*
X325000Y696112D01*
X325677Y695660D01*
X326750Y695446D01*
X328250D01*
X329323Y695660D01*
X330000Y696112D01*
X330677Y695660D01*
X331750Y695446D01*
X333250D01*
X334323Y695660D01*
X335000Y696112D01*
X335677Y695660D01*
X336750Y695446D01*
X338250D01*
X339323Y695660D01*
X340000Y696112D01*
X340677Y695660D01*
X341500Y695496D01*
Y703500D01*
Y711504D01*
X340677Y711340D01*
X340000Y710888D01*
X339323Y711340D01*
X338250Y711554D01*
X336750D01*
X335559Y712612D01*
Y719953D01*
X336670Y720174D01*
X337663Y720837D01*
X338326Y721830D01*
X338559Y723000D01*
Y731000D01*
X338326Y732170D01*
X337663Y733163D01*
X336670Y733826D01*
X335500Y734059D01*
X329500D01*
X328330Y733826D01*
X327337Y733163D01*
X326674Y732170D01*
X326441Y731000D01*
Y723000D01*
X326674Y721830D01*
X327337Y720837D01*
X328330Y720174D01*
X329441Y719953D01*
Y712612D01*
X328250Y711554D01*
X326750D01*
X326169Y712031D01*
X326116Y713459D01*
X326391Y713734D01*
X327000Y715204D01*
Y716796D01*
X326391Y718266D01*
X325266Y719391D01*
X323796Y720000D01*
X322204D01*
X321829Y719844D01*
X320559Y720693D01*
Y735233D01*
X322267Y736941D01*
X355941D01*
Y714672D01*
X355941Y714672D01*
X356174Y713501D01*
X356837Y712509D01*
X358009Y711337D01*
X358009Y711337D01*
X359001Y710674D01*
X360172Y710441D01*
X360172Y710441D01*
X401360D01*
X402039Y709171D01*
X401761Y708756D01*
X401412Y707000D01*
Y697429D01*
X401761Y695673D01*
X401912Y695448D01*
Y693500D01*
X402000Y693057D01*
Y686559D01*
X380289D01*
X379513Y687829D01*
X380000Y689005D01*
Y690995D01*
X379239Y692832D01*
X377832Y694239D01*
X375995Y695000D01*
X374005D01*
X372168Y694239D01*
X370761Y692832D01*
X370445Y692069D01*
X362500D01*
X362426Y692054D01*
X357250D01*
X356177Y691840D01*
X355267Y691233D01*
X354660Y690323D01*
X354446Y689250D01*
Y687750D01*
X354660Y686677D01*
X355112Y686000D01*
X354660Y685323D01*
X354446Y684250D01*
Y682750D01*
X353388Y681559D01*
X351098D01*
X350266Y682391D01*
X348796Y683000D01*
X347204D01*
X345734Y682391D01*
X344609Y681266D01*
X344000Y679796D01*
Y678204D01*
X344609Y676734D01*
X345734Y675609D01*
X347204Y675000D01*
X348796D01*
X349861Y675441D01*
X353388D01*
X354446Y674250D01*
Y672750D01*
X354660Y671677D01*
X355112Y671000D01*
X354660Y670323D01*
X354446Y669250D01*
Y667750D01*
X354660Y666677D01*
X355112Y666000D01*
X354660Y665323D01*
X354446Y664250D01*
Y663605D01*
X353875Y662635D01*
X353201Y662500D01*
X352204D01*
X350734Y661891D01*
X349609Y660766D01*
X349000Y659296D01*
Y657704D01*
X349609Y656234D01*
X350734Y655109D01*
X352204Y654500D01*
X353201D01*
X353875Y654365D01*
X354446Y653395D01*
Y652750D01*
X354660Y651677D01*
X355112Y651000D01*
X354660Y650323D01*
X354446Y649250D01*
Y647750D01*
X354660Y646677D01*
X355112Y646000D01*
X354660Y645323D01*
X354446Y644250D01*
Y642750D01*
X354660Y641677D01*
X355112Y641000D01*
X354660Y640323D01*
X354446Y639250D01*
Y637750D01*
X354660Y636677D01*
X355112Y636000D01*
X354660Y635323D01*
X354446Y634250D01*
Y632750D01*
X354660Y631677D01*
X355267Y630767D01*
X356177Y630160D01*
X357250Y629946D01*
X367750D01*
X368823Y630160D01*
X369244Y630441D01*
X431250D01*
X431250Y630441D01*
X432421Y630674D01*
X433413Y631337D01*
X440163Y638087D01*
X440163Y638087D01*
X440826Y639079D01*
X441059Y640250D01*
Y645683D01*
X442298Y646399D01*
X443601Y647702D01*
X444523Y649298D01*
X445000Y651078D01*
Y652922D01*
X444523Y654702D01*
X443601Y656298D01*
X442298Y657601D01*
X440702Y658523D01*
X438922Y659000D01*
X437079D01*
X435298Y658523D01*
X433702Y657601D01*
X432399Y656298D01*
X431477Y654702D01*
X431000Y652922D01*
Y651078D01*
X431477Y649298D01*
X432399Y647702D01*
X433702Y646399D01*
X434941Y645683D01*
Y641517D01*
X429983Y636559D01*
X395431D01*
X395000Y637204D01*
Y637827D01*
X395174Y638826D01*
X396173Y639000D01*
X396796D01*
X398266Y639609D01*
X399391Y640734D01*
X400000Y642204D01*
Y643385D01*
X400825Y644210D01*
X401138Y644367D01*
X401441Y644275D01*
Y642000D01*
X401674Y640829D01*
X402337Y639837D01*
X403330Y639174D01*
X404500Y638941D01*
X410500D01*
X411671Y639174D01*
X412663Y639837D01*
X413326Y640829D01*
X413559Y642000D01*
Y650000D01*
X413326Y651171D01*
X412663Y652163D01*
X411671Y652826D01*
X411537Y652853D01*
Y654147D01*
X411670Y654174D01*
X412663Y654837D01*
X413326Y655829D01*
X413559Y657000D01*
Y665000D01*
X413326Y666171D01*
X412663Y667163D01*
X411670Y667826D01*
X411537Y667852D01*
Y669147D01*
X411671Y669174D01*
X412663Y669837D01*
X413326Y670829D01*
X413559Y672000D01*
Y680000D01*
X413921Y680441D01*
X416079D01*
X416441Y680000D01*
Y677000D01*
X428559D01*
Y680000D01*
X428921Y680441D01*
X449500D01*
X449500Y680441D01*
X450671Y680674D01*
X451663Y681337D01*
X455826Y685500D01*
X463500D01*
Y698500D01*
X451500D01*
Y689826D01*
X448233Y686559D01*
X444500D01*
Y691000D01*
X432500D01*
Y686559D01*
X426000D01*
Y691500D01*
X415000D01*
Y686559D01*
X413000D01*
Y699000D01*
X410588D01*
Y705000D01*
X419500D01*
Y717441D01*
X419500Y717441D01*
X425500D01*
X426670Y717674D01*
X427663Y718337D01*
X428326Y719330D01*
X428559Y720500D01*
Y728500D01*
X428326Y729670D01*
X427663Y730663D01*
X427088Y731047D01*
Y733453D01*
X427663Y733837D01*
X428326Y734829D01*
X428559Y736000D01*
Y741352D01*
X428588Y741500D01*
Y744100D01*
X429901Y745412D01*
X433427D01*
X434469Y744142D01*
X434441Y744000D01*
Y736000D01*
X434674Y734829D01*
X435337Y733837D01*
X435912Y733453D01*
Y731547D01*
X435337Y731163D01*
X434674Y730171D01*
X434441Y729000D01*
Y721000D01*
X434674Y719829D01*
X435337Y718837D01*
X436329Y718174D01*
X437500Y717941D01*
X440070D01*
X441912Y716100D01*
Y712500D01*
X442000Y712057D01*
Y705500D01*
X454000D01*
Y717941D01*
X458500D01*
X459671Y718174D01*
X460663Y718837D01*
X461326Y719829D01*
X461442Y720412D01*
X468000D01*
X469756Y720761D01*
X471244Y721756D01*
X472901Y723412D01*
X521483D01*
X522256Y722256D01*
X523744Y721261D01*
X524316Y721147D01*
Y719853D01*
X523744Y719739D01*
X522256Y718744D01*
X521261Y717256D01*
X520912Y715500D01*
Y710500D01*
X521261Y708744D01*
X522256Y707256D01*
X523744Y706261D01*
X524316Y706147D01*
Y704853D01*
X523744Y704739D01*
X522256Y703744D01*
X521261Y702256D01*
X520912Y700500D01*
Y695500D01*
X521261Y693744D01*
X522256Y692256D01*
X523744Y691261D01*
X525500Y690912D01*
X540500D01*
X542256Y691261D01*
X543181Y691879D01*
X544451Y691202D01*
Y496000D01*
Y495266D01*
X544165Y493827D01*
X543603Y492471D01*
X542788Y491250D01*
X541750Y490212D01*
X540529Y489397D01*
X539173Y488835D01*
X537734Y488549D01*
X526000D01*
X525938Y488536D01*
X525875Y488546D01*
X524895Y488498D01*
X524711Y488452D01*
X524523D01*
X522600Y488069D01*
X522368Y487973D01*
X522122Y487924D01*
X520311Y487174D01*
X520102Y487035D01*
X519870Y486939D01*
X518240Y485849D01*
X518063Y485672D01*
X517854Y485532D01*
X516468Y484146D01*
X516328Y483937D01*
X516151Y483760D01*
X515061Y482130D01*
X514965Y481898D01*
X514826Y481689D01*
X514557Y481040D01*
X513103Y480848D01*
X512993Y480993D01*
X511530Y482114D01*
X509827Y482820D01*
X508000Y483060D01*
X504000D01*
Y466000D01*
X502000D01*
Y483060D01*
X498000D01*
X496173Y482820D01*
X494470Y482114D01*
X493008Y480993D01*
X492897Y480848D01*
X491443Y481040D01*
X491174Y481689D01*
X491035Y481898D01*
X490938Y482130D01*
X489849Y483760D01*
X489672Y483937D01*
X489532Y484146D01*
X488146Y485532D01*
X487938Y485672D01*
X487760Y485849D01*
X486130Y486939D01*
X485898Y487034D01*
X485689Y487174D01*
X483878Y487924D01*
X483632Y487973D01*
X483400Y488069D01*
X481477Y488452D01*
X481288D01*
X481105Y488498D01*
X480125Y488546D01*
X480062Y488536D01*
X480000Y488549D01*
X479243D01*
X479180Y488536D01*
X479118Y488546D01*
X478114Y488496D01*
X477930Y488451D01*
X477741D01*
X475772Y488059D01*
X475540Y487963D01*
X475294Y487914D01*
X473439Y487145D01*
X473230Y487006D01*
X472998Y486910D01*
X471329Y485794D01*
X471195Y485661D01*
X471033Y485564D01*
X470288Y484888D01*
X470251Y484838D01*
X470198Y484802D01*
X468711Y483315D01*
X465214Y480979D01*
X461328Y479369D01*
X457203Y478549D01*
X269797D01*
X265672Y479369D01*
X261786Y480979D01*
X258289Y483315D01*
X256802Y484802D01*
X256749Y484838D01*
X256712Y484888D01*
X255967Y485564D01*
X255805Y485661D01*
X255671Y485794D01*
X254002Y486910D01*
X253770Y487006D01*
X253561Y487145D01*
X251706Y487914D01*
X251460Y487963D01*
X251228Y488059D01*
X249259Y488451D01*
X249070D01*
X248886Y488496D01*
X247882Y488546D01*
X247820Y488536D01*
X247757Y488549D01*
X247000D01*
X246938Y488536D01*
X246875Y488546D01*
X245895Y488498D01*
X245711Y488452D01*
X245523D01*
X243600Y488069D01*
X243368Y487973D01*
X243122Y487924D01*
X241311Y487174D01*
X241102Y487035D01*
X240870Y486939D01*
X239240Y485849D01*
X239062Y485672D01*
X238854Y485532D01*
X237468Y484146D01*
X237328Y483937D01*
X237151Y483760D01*
X236061Y482130D01*
X235965Y481898D01*
X235826Y481689D01*
X235557Y481040D01*
X234103Y480848D01*
X233993Y480993D01*
X232530Y482114D01*
X230827Y482820D01*
X229000Y483060D01*
X225000D01*
Y466000D01*
X223000D01*
Y483060D01*
X219000D01*
X217173Y482820D01*
X215470Y482114D01*
X214007Y480993D01*
X213897Y480848D01*
X212443Y481040D01*
X212174Y481689D01*
X212035Y481898D01*
X211938Y482130D01*
X210849Y483760D01*
X210672Y483937D01*
X210532Y484146D01*
X209146Y485532D01*
X208937Y485672D01*
X208760Y485849D01*
X207130Y486939D01*
X206898Y487034D01*
X206689Y487174D01*
X204878Y487924D01*
X204632Y487973D01*
X204400Y488069D01*
X202477Y488452D01*
X202288D01*
X202105Y488498D01*
X201125Y488546D01*
X201062Y488536D01*
X201000Y488549D01*
X152416D01*
X151890Y489819D01*
X152239Y490168D01*
X153000Y492005D01*
Y493995D01*
X152239Y495832D01*
X151569Y496502D01*
Y509048D01*
X152839Y509781D01*
X153798Y509227D01*
X155578Y508750D01*
X157422D01*
X159202Y509227D01*
X160798Y510149D01*
X162101Y511452D01*
X163023Y513048D01*
X163500Y514828D01*
Y515809D01*
X165122Y517431D01*
X205163D01*
X206204Y517000D01*
X207796D01*
X209266Y517609D01*
X210391Y518734D01*
X211000Y520204D01*
Y521796D01*
X210391Y523266D01*
X209266Y524391D01*
X207796Y525000D01*
X206204D01*
X205163Y524569D01*
X163644D01*
X162279Y524297D01*
X161121Y523523D01*
X159626Y522028D01*
X159202Y522273D01*
X157422Y522750D01*
X155578D01*
X153798Y522273D01*
X152839Y521719D01*
X151569Y522452D01*
Y549497D01*
X152239Y550168D01*
X153000Y552005D01*
Y553995D01*
X152239Y555832D01*
X150832Y557239D01*
X148995Y558000D01*
X147005D01*
X145168Y557239D01*
X143761Y555832D01*
X143000Y553995D01*
Y552005D01*
X143761Y550168D01*
X144431Y549497D01*
Y496502D01*
X143761Y495832D01*
X143000Y493995D01*
Y492005D01*
X143439Y490945D01*
X142413Y490103D01*
X142250Y490212D01*
X141212Y491250D01*
X140397Y492471D01*
X139835Y493827D01*
X139549Y495266D01*
Y496000D01*
Y745000D01*
Y745734D01*
X139835Y747173D01*
X140397Y748529D01*
X141212Y749750D01*
X142250Y750788D01*
X143471Y751603D01*
X144827Y752165D01*
X146266Y752451D01*
X422303D01*
X422789Y751278D01*
D02*
G37*
G36*
X401441Y680000D02*
Y672000D01*
X401674Y670829D01*
X402337Y669837D01*
X403330Y669174D01*
X403463Y669147D01*
Y667853D01*
X403330Y667826D01*
X402337Y667163D01*
X401674Y666171D01*
X401441Y665000D01*
Y661559D01*
X379669D01*
X378963Y662615D01*
X379000Y662704D01*
Y664296D01*
X378898Y664542D01*
X380266Y665109D01*
X381391Y666234D01*
X382000Y667704D01*
Y669296D01*
X381391Y670766D01*
X380266Y671891D01*
X378898Y672458D01*
X379000Y672704D01*
Y674296D01*
X378391Y675766D01*
X377266Y676891D01*
X375796Y677500D01*
X374204D01*
X372734Y676891D01*
X371285Y676927D01*
X370554Y677750D01*
Y679250D01*
X371612Y680441D01*
X401079D01*
X401441Y680000D01*
D02*
G37*
G36*
X520912Y416600D02*
Y413500D01*
X521261Y411744D01*
X522256Y410256D01*
X523744Y409261D01*
X524316Y409147D01*
Y407853D01*
X523744Y407739D01*
X522256Y406744D01*
X521483Y405588D01*
X518660D01*
X517981Y406858D01*
X518239Y407244D01*
X518588Y409000D01*
X518239Y410756D01*
X517244Y412244D01*
X515756Y413239D01*
X514000Y413588D01*
X472901D01*
X470244Y416244D01*
X469914Y416465D01*
X469652Y418167D01*
X469848Y418412D01*
X519100D01*
X520912Y416600D01*
D02*
G37*
G36*
X422789Y424278D02*
X420756Y422244D01*
X419761Y420756D01*
X419622Y420059D01*
X419500D01*
X418330Y419826D01*
X417337Y419163D01*
X416674Y418171D01*
X416441Y417000D01*
Y409000D01*
X416674Y407830D01*
X417337Y406837D01*
X417912Y406453D01*
Y404047D01*
X417337Y403663D01*
X416674Y402671D01*
X416441Y401500D01*
Y395844D01*
X415171Y395317D01*
X413559Y396930D01*
Y401500D01*
X413326Y402671D01*
X412663Y403663D01*
X411671Y404326D01*
X410500Y404559D01*
X404500D01*
X403330Y404326D01*
X402337Y403663D01*
X401674Y402671D01*
X401441Y401500D01*
Y393500D01*
X401674Y392329D01*
X402337Y391337D01*
X403098Y390829D01*
X402941Y389696D01*
X402887Y389559D01*
X362059D01*
Y411828D01*
X362059Y411828D01*
X361826Y412999D01*
X361163Y413991D01*
X361163Y413991D01*
X360857Y414297D01*
X361105Y415542D01*
X361266Y415609D01*
X362391Y416734D01*
X363000Y418204D01*
Y419796D01*
X362391Y421266D01*
X361266Y422391D01*
X359796Y423000D01*
X358204D01*
X356734Y422391D01*
X356402Y422059D01*
X319000D01*
X319000Y422059D01*
X317829Y421826D01*
X316837Y421163D01*
X306733Y411059D01*
X239041D01*
X238788Y412329D01*
X239832Y412761D01*
X241239Y414168D01*
X242000Y416005D01*
Y417995D01*
X241239Y419832D01*
X239832Y421239D01*
X237995Y422000D01*
X236005D01*
X234168Y421239D01*
X232761Y419832D01*
X232000Y417995D01*
Y416005D01*
X232761Y414168D01*
X234168Y412761D01*
X235212Y412329D01*
X234959Y411059D01*
X214000D01*
X212829Y410826D01*
X211837Y410163D01*
X211837Y410163D01*
X207837Y406163D01*
X207174Y405171D01*
X206941Y404000D01*
X206941Y404000D01*
Y400598D01*
X206609Y400266D01*
X206000Y398796D01*
Y397204D01*
X206609Y395734D01*
X207734Y394609D01*
X209204Y394000D01*
X210796D01*
X212266Y394609D01*
X213391Y395734D01*
X214000Y397204D01*
Y398124D01*
X215181Y399010D01*
X215204Y399000D01*
X215827D01*
X216826Y398826D01*
X217000Y397827D01*
Y397204D01*
X217609Y395734D01*
X218734Y394609D01*
X220204Y394000D01*
X220827D01*
X221826Y393826D01*
X222000Y392827D01*
Y392204D01*
X222609Y390734D01*
X223734Y389609D01*
X225204Y389000D01*
X225827D01*
X226826Y388826D01*
X227000Y387827D01*
Y387204D01*
X227609Y385734D01*
X228734Y384609D01*
X230204Y384000D01*
X231796D01*
X233266Y384609D01*
X233598Y384941D01*
X289441D01*
Y383245D01*
X289160Y382823D01*
X288946Y381750D01*
Y371250D01*
X289160Y370177D01*
X289767Y369267D01*
X290677Y368660D01*
X291750Y368446D01*
X293250D01*
X294323Y368660D01*
X295000Y369112D01*
X295677Y368660D01*
X296750Y368446D01*
X298250D01*
X299323Y368660D01*
X300000Y369112D01*
X300677Y368660D01*
X301750Y368446D01*
X303250D01*
X304323Y368660D01*
X305000Y369112D01*
X305677Y368660D01*
X306750Y368446D01*
X308250D01*
X309323Y368660D01*
X310000Y369112D01*
X310677Y368660D01*
X311750Y368446D01*
X313250D01*
X314323Y368660D01*
X315000Y369112D01*
X315677Y368660D01*
X316750Y368446D01*
X318250D01*
X319323Y368660D01*
X320000Y369112D01*
X320677Y368660D01*
X321750Y368446D01*
X323250D01*
X324323Y368660D01*
X325000Y369112D01*
X325677Y368660D01*
X326750Y368446D01*
X328250D01*
X329323Y368660D01*
X330000Y369112D01*
X330677Y368660D01*
X331750Y368446D01*
X333250D01*
X334323Y368660D01*
X335000Y369112D01*
X335677Y368660D01*
X336750Y368446D01*
X338250D01*
X339323Y368660D01*
X340000Y369112D01*
X340677Y368660D01*
X341500Y368496D01*
Y376500D01*
Y384504D01*
X340677Y384340D01*
X340000Y383888D01*
X339323Y384340D01*
X338250Y384554D01*
X336750D01*
X335559Y385612D01*
Y392953D01*
X336670Y393174D01*
X337663Y393837D01*
X338326Y394829D01*
X338559Y396000D01*
Y404000D01*
X338326Y405171D01*
X337663Y406163D01*
X336670Y406826D01*
X335500Y407059D01*
X329500D01*
X328330Y406826D01*
X327337Y406163D01*
X326674Y405171D01*
X326441Y404000D01*
Y396000D01*
X326674Y394829D01*
X327337Y393837D01*
X328330Y393174D01*
X329441Y392953D01*
Y385612D01*
X328250Y384554D01*
X326750D01*
X326169Y385031D01*
X326116Y386459D01*
X326391Y386734D01*
X327000Y388204D01*
Y389796D01*
X326391Y391266D01*
X325266Y392391D01*
X323796Y393000D01*
X322204D01*
X321829Y392844D01*
X320559Y393693D01*
Y408233D01*
X322267Y409941D01*
X355941D01*
Y387672D01*
X355941Y387672D01*
X356174Y386501D01*
X356837Y385509D01*
X358009Y384337D01*
X358009Y384337D01*
X359001Y383674D01*
X360172Y383441D01*
X360172Y383441D01*
X401360D01*
X402039Y382171D01*
X401761Y381756D01*
X401412Y380000D01*
Y370429D01*
X401761Y368673D01*
X401912Y368447D01*
Y366500D01*
X402000Y366057D01*
Y359559D01*
X380289D01*
X379513Y360829D01*
X380000Y362005D01*
Y363994D01*
X379239Y365832D01*
X377832Y367239D01*
X375995Y368000D01*
X374005D01*
X372168Y367239D01*
X370761Y365832D01*
X370445Y365069D01*
X362500D01*
X362426Y365054D01*
X357250D01*
X356177Y364840D01*
X355267Y364233D01*
X354660Y363323D01*
X354446Y362250D01*
Y360750D01*
X354660Y359677D01*
X355112Y359000D01*
X354660Y358323D01*
X354446Y357250D01*
Y355750D01*
X353388Y354559D01*
X351098D01*
X350266Y355391D01*
X348796Y356000D01*
X347204D01*
X345734Y355391D01*
X344609Y354266D01*
X344000Y352796D01*
Y351204D01*
X344609Y349734D01*
X345734Y348609D01*
X347204Y348000D01*
X348796D01*
X349861Y348441D01*
X353388D01*
X354446Y347250D01*
Y345750D01*
X354660Y344677D01*
X355112Y344000D01*
X354660Y343323D01*
X354446Y342250D01*
Y340750D01*
X354660Y339677D01*
X355112Y339000D01*
X354660Y338323D01*
X354446Y337250D01*
Y336605D01*
X353875Y335635D01*
X353201Y335500D01*
X352204D01*
X350734Y334891D01*
X349609Y333766D01*
X349000Y332296D01*
Y330704D01*
X349609Y329234D01*
X350734Y328109D01*
X352204Y327500D01*
X353201D01*
X353875Y327365D01*
X354446Y326395D01*
Y325750D01*
X354660Y324677D01*
X355112Y324000D01*
X354660Y323323D01*
X354446Y322250D01*
Y320750D01*
X354660Y319677D01*
X355112Y319000D01*
X354660Y318323D01*
X354446Y317250D01*
Y315750D01*
X354660Y314677D01*
X355112Y314000D01*
X354660Y313323D01*
X354446Y312250D01*
Y310750D01*
X354660Y309677D01*
X355112Y309000D01*
X354660Y308323D01*
X354446Y307250D01*
Y305750D01*
X354660Y304677D01*
X355267Y303767D01*
X356177Y303160D01*
X357250Y302946D01*
X367750D01*
X368823Y303160D01*
X369244Y303441D01*
X431250D01*
X431250Y303441D01*
X432421Y303674D01*
X433413Y304337D01*
X440163Y311087D01*
X440163Y311087D01*
X440826Y312079D01*
X441059Y313250D01*
Y318683D01*
X442298Y319399D01*
X443601Y320702D01*
X444523Y322298D01*
X445000Y324078D01*
Y325922D01*
X444523Y327702D01*
X443601Y329298D01*
X442298Y330601D01*
X440702Y331523D01*
X438922Y332000D01*
X437079D01*
X435298Y331523D01*
X433702Y330601D01*
X432399Y329298D01*
X431477Y327702D01*
X431000Y325922D01*
Y324078D01*
X431477Y322298D01*
X432399Y320702D01*
X433702Y319399D01*
X434941Y318683D01*
Y314517D01*
X429983Y309559D01*
X395431D01*
X395000Y310204D01*
Y310827D01*
X395174Y311826D01*
X396173Y312000D01*
X396796D01*
X398266Y312609D01*
X399391Y313734D01*
X400000Y315204D01*
Y316385D01*
X400825Y317210D01*
X401138Y317367D01*
X401441Y317275D01*
Y315000D01*
X401674Y313829D01*
X402337Y312837D01*
X403330Y312174D01*
X404500Y311941D01*
X410500D01*
X411671Y312174D01*
X412663Y312837D01*
X413326Y313829D01*
X413559Y315000D01*
Y323000D01*
X413326Y324170D01*
X412663Y325163D01*
X411671Y325826D01*
X411537Y325853D01*
Y327147D01*
X411670Y327174D01*
X412663Y327837D01*
X413326Y328829D01*
X413559Y330000D01*
Y338000D01*
X413326Y339170D01*
X412663Y340163D01*
X411670Y340826D01*
X411537Y340853D01*
Y342147D01*
X411671Y342174D01*
X412663Y342837D01*
X413326Y343829D01*
X413559Y345000D01*
Y353000D01*
X413921Y353441D01*
X416079D01*
X416441Y353000D01*
Y350000D01*
X428559D01*
Y353000D01*
X428921Y353441D01*
X449500D01*
X449500Y353441D01*
X450671Y353674D01*
X451663Y354337D01*
X455826Y358500D01*
X463500D01*
Y371500D01*
X451500D01*
Y362826D01*
X448233Y359559D01*
X444500D01*
Y364000D01*
X432500D01*
Y359559D01*
X426000D01*
Y364500D01*
X415000D01*
Y359559D01*
X413000D01*
Y372000D01*
X410588D01*
Y378000D01*
X419500D01*
Y390441D01*
X419500Y390441D01*
X425500D01*
X426670Y390674D01*
X427663Y391337D01*
X428326Y392329D01*
X428559Y393500D01*
Y401500D01*
X428326Y402671D01*
X427663Y403663D01*
X427088Y404047D01*
Y406453D01*
X427663Y406837D01*
X428326Y407830D01*
X428559Y409000D01*
Y414352D01*
X428588Y414500D01*
Y417099D01*
X429901Y418412D01*
X433427D01*
X434469Y417142D01*
X434441Y417000D01*
Y409000D01*
X434674Y407830D01*
X435337Y406837D01*
X435912Y406453D01*
Y404547D01*
X435337Y404163D01*
X434674Y403171D01*
X434441Y402000D01*
Y394000D01*
X434674Y392830D01*
X435337Y391837D01*
X436329Y391174D01*
X437500Y390941D01*
X440070D01*
X441912Y389100D01*
Y385500D01*
X442000Y385057D01*
Y378500D01*
X454000D01*
Y390941D01*
X458500D01*
X459671Y391174D01*
X460663Y391837D01*
X461326Y392830D01*
X461442Y393412D01*
X468000D01*
X469756Y393761D01*
X471244Y394756D01*
X472901Y396412D01*
X521483D01*
X522256Y395256D01*
X523744Y394261D01*
X524316Y394147D01*
Y392853D01*
X523744Y392739D01*
X522256Y391744D01*
X521261Y390256D01*
X520912Y388500D01*
Y383500D01*
X521261Y381744D01*
X522256Y380256D01*
X523744Y379261D01*
X524316Y379147D01*
Y377853D01*
X523744Y377739D01*
X522256Y376744D01*
X521261Y375256D01*
X520912Y373500D01*
Y368500D01*
X521261Y366744D01*
X522256Y365256D01*
X523744Y364261D01*
X525500Y363912D01*
X540500D01*
X542256Y364261D01*
X543181Y364879D01*
X544451Y364202D01*
Y169000D01*
Y168266D01*
X544165Y166827D01*
X543603Y165471D01*
X542788Y164250D01*
X541750Y163212D01*
X540529Y162397D01*
X539173Y161835D01*
X537734Y161549D01*
X526000D01*
X525938Y161536D01*
X525875Y161546D01*
X524895Y161498D01*
X524711Y161452D01*
X524523D01*
X522600Y161069D01*
X522368Y160973D01*
X522122Y160924D01*
X520311Y160174D01*
X520102Y160035D01*
X519870Y159938D01*
X518240Y158849D01*
X518063Y158672D01*
X517854Y158532D01*
X516468Y157146D01*
X516328Y156938D01*
X516151Y156760D01*
X515061Y155130D01*
X514965Y154898D01*
X514826Y154689D01*
X514557Y154040D01*
X513103Y153848D01*
X512993Y153993D01*
X511530Y155114D01*
X509827Y155820D01*
X508000Y156060D01*
X504000D01*
Y139000D01*
X502000D01*
Y156060D01*
X498000D01*
X496173Y155820D01*
X494470Y155114D01*
X493008Y153993D01*
X492897Y153848D01*
X491443Y154040D01*
X491174Y154689D01*
X491035Y154898D01*
X490938Y155130D01*
X489849Y156760D01*
X489672Y156938D01*
X489532Y157146D01*
X488146Y158532D01*
X487938Y158672D01*
X487760Y158849D01*
X486130Y159938D01*
X485898Y160035D01*
X485689Y160174D01*
X483878Y160924D01*
X483632Y160973D01*
X483400Y161069D01*
X481477Y161452D01*
X481288D01*
X481105Y161498D01*
X480125Y161546D01*
X480062Y161536D01*
X480000Y161549D01*
X479243D01*
X479180Y161536D01*
X479118Y161546D01*
X478114Y161496D01*
X477930Y161451D01*
X477741D01*
X475772Y161059D01*
X475540Y160963D01*
X475294Y160914D01*
X473439Y160145D01*
X473230Y160006D01*
X472998Y159910D01*
X471329Y158794D01*
X471195Y158661D01*
X471033Y158564D01*
X470288Y157888D01*
X470251Y157838D01*
X470198Y157802D01*
X468711Y156315D01*
X465214Y153979D01*
X461328Y152369D01*
X457203Y151549D01*
X269797D01*
X265672Y152369D01*
X261786Y153979D01*
X258289Y156315D01*
X256802Y157802D01*
X256749Y157838D01*
X256712Y157888D01*
X255967Y158564D01*
X255805Y158661D01*
X255671Y158794D01*
X254002Y159910D01*
X253770Y160006D01*
X253561Y160145D01*
X251706Y160914D01*
X251460Y160963D01*
X251228Y161059D01*
X249259Y161451D01*
X249070D01*
X248886Y161496D01*
X247882Y161546D01*
X247820Y161536D01*
X247757Y161549D01*
X247000D01*
X246938Y161536D01*
X246875Y161546D01*
X245895Y161498D01*
X245711Y161452D01*
X245523D01*
X243600Y161069D01*
X243368Y160973D01*
X243122Y160924D01*
X241311Y160174D01*
X241102Y160035D01*
X240870Y159938D01*
X239240Y158849D01*
X239062Y158672D01*
X238854Y158532D01*
X237468Y157146D01*
X237328Y156938D01*
X237151Y156760D01*
X236061Y155130D01*
X235965Y154898D01*
X235826Y154689D01*
X235557Y154040D01*
X234103Y153848D01*
X233993Y153993D01*
X232530Y155114D01*
X230827Y155820D01*
X229000Y156060D01*
X225000D01*
Y139000D01*
X223000D01*
Y156060D01*
X219000D01*
X217173Y155820D01*
X215470Y155114D01*
X214007Y153993D01*
X213897Y153848D01*
X212443Y154040D01*
X212174Y154689D01*
X212035Y154898D01*
X211938Y155130D01*
X210849Y156760D01*
X210672Y156938D01*
X210532Y157146D01*
X209146Y158532D01*
X208937Y158672D01*
X208760Y158849D01*
X207130Y159938D01*
X206898Y160035D01*
X206689Y160174D01*
X204878Y160924D01*
X204632Y160973D01*
X204400Y161069D01*
X202477Y161452D01*
X202288D01*
X202105Y161498D01*
X201125Y161546D01*
X201062Y161536D01*
X201000Y161549D01*
X152416D01*
X151890Y162819D01*
X152239Y163168D01*
X153000Y165005D01*
Y166995D01*
X152239Y168832D01*
X151569Y169503D01*
Y182048D01*
X152839Y182781D01*
X153798Y182227D01*
X155578Y181750D01*
X157422D01*
X159202Y182227D01*
X160798Y183149D01*
X162101Y184452D01*
X163023Y186048D01*
X163500Y187828D01*
Y188809D01*
X165122Y190431D01*
X205163D01*
X206204Y190000D01*
X207796D01*
X209266Y190609D01*
X210391Y191734D01*
X211000Y193204D01*
Y194796D01*
X210391Y196266D01*
X209266Y197391D01*
X207796Y198000D01*
X206204D01*
X205163Y197569D01*
X163644D01*
X162279Y197297D01*
X161121Y196523D01*
X159626Y195028D01*
X159202Y195273D01*
X157422Y195750D01*
X155578D01*
X153798Y195273D01*
X152839Y194719D01*
X151569Y195452D01*
Y222498D01*
X152239Y223168D01*
X153000Y225005D01*
Y226995D01*
X152239Y228832D01*
X150832Y230239D01*
X148995Y231000D01*
X147005D01*
X145168Y230239D01*
X143761Y228832D01*
X143000Y226995D01*
Y225005D01*
X143761Y223168D01*
X144431Y222498D01*
Y169503D01*
X143761Y168832D01*
X143000Y166995D01*
Y165005D01*
X143439Y163945D01*
X142413Y163103D01*
X142250Y163212D01*
X141212Y164250D01*
X140397Y165471D01*
X139835Y166827D01*
X139549Y168266D01*
Y169000D01*
Y418000D01*
Y418734D01*
X139835Y420173D01*
X140397Y421529D01*
X141212Y422750D01*
X142250Y423788D01*
X143471Y424603D01*
X144827Y425165D01*
X146266Y425451D01*
X422303D01*
X422789Y424278D01*
D02*
G37*
G36*
X401441Y353000D02*
Y345000D01*
X401674Y343829D01*
X402337Y342837D01*
X403330Y342174D01*
X403463Y342147D01*
Y340853D01*
X403330Y340826D01*
X402337Y340163D01*
X401674Y339170D01*
X401441Y338000D01*
Y334559D01*
X379669D01*
X378963Y335615D01*
X379000Y335704D01*
Y337296D01*
X378898Y337542D01*
X380266Y338109D01*
X381391Y339234D01*
X382000Y340704D01*
Y342296D01*
X381391Y343766D01*
X380266Y344891D01*
X378898Y345458D01*
X379000Y345704D01*
Y347296D01*
X378391Y348766D01*
X377266Y349891D01*
X375796Y350500D01*
X374204D01*
X372734Y349891D01*
X371285Y349927D01*
X370554Y350750D01*
Y352250D01*
X371612Y353441D01*
X401079D01*
X401441Y353000D01*
D02*
G37*
%LPC*%
G36*
X169500Y1013612D02*
Y1008500D01*
X174612D01*
X174455Y1009088D01*
X173402Y1010912D01*
X171912Y1012402D01*
X170088Y1013455D01*
X169500Y1013612D01*
D02*
G37*
G36*
X164500Y1013612D02*
X163912Y1013455D01*
X162088Y1012402D01*
X160598Y1010912D01*
X159545Y1009088D01*
X159388Y1008500D01*
X164500D01*
Y1013612D01*
D02*
G37*
G36*
X423580Y1027400D02*
X420420D01*
X417368Y1026582D01*
X414632Y1025002D01*
X412398Y1022768D01*
X410818Y1020032D01*
X410000Y1016980D01*
Y1013820D01*
X410818Y1010768D01*
X412398Y1008032D01*
X414632Y1005798D01*
X417368Y1004218D01*
X420420Y1003400D01*
X423580D01*
X426632Y1004218D01*
X429368Y1005798D01*
X431602Y1008032D01*
X433182Y1010768D01*
X434000Y1013820D01*
Y1016980D01*
X433182Y1020032D01*
X431602Y1022768D01*
X429368Y1025002D01*
X426632Y1026582D01*
X423580Y1027400D01*
D02*
G37*
G36*
X398180D02*
X395020D01*
X391968Y1026582D01*
X389232Y1025002D01*
X386998Y1022768D01*
X385418Y1020032D01*
X384600Y1016980D01*
Y1013820D01*
X385418Y1010768D01*
X386998Y1008032D01*
X389232Y1005798D01*
X391968Y1004218D01*
X395020Y1003400D01*
X398180D01*
X401232Y1004218D01*
X403968Y1005798D01*
X406202Y1008032D01*
X407782Y1010768D01*
X408600Y1013820D01*
Y1016980D01*
X407782Y1020032D01*
X406202Y1022768D01*
X403968Y1025002D01*
X401232Y1026582D01*
X398180Y1027400D01*
D02*
G37*
G36*
X372780D02*
X369620D01*
X366568Y1026582D01*
X363832Y1025002D01*
X361598Y1022768D01*
X360018Y1020032D01*
X359200Y1016980D01*
Y1013820D01*
X360018Y1010768D01*
X361598Y1008032D01*
X363832Y1005798D01*
X366568Y1004218D01*
X369620Y1003400D01*
X372780D01*
X375832Y1004218D01*
X378568Y1005798D01*
X380802Y1008032D01*
X382382Y1010768D01*
X383200Y1013820D01*
Y1016980D01*
X382382Y1020032D01*
X380802Y1022768D01*
X378568Y1025002D01*
X375832Y1026582D01*
X372780Y1027400D01*
D02*
G37*
G36*
X347380D02*
X344220D01*
X341168Y1026582D01*
X338432Y1025002D01*
X336198Y1022768D01*
X334618Y1020032D01*
X333800Y1016980D01*
Y1013820D01*
X334618Y1010768D01*
X336198Y1008032D01*
X338432Y1005798D01*
X341168Y1004218D01*
X344220Y1003400D01*
X347380D01*
X350432Y1004218D01*
X353168Y1005798D01*
X355402Y1008032D01*
X356982Y1010768D01*
X357800Y1013820D01*
Y1016980D01*
X356982Y1020032D01*
X355402Y1022768D01*
X353168Y1025002D01*
X350432Y1026582D01*
X347380Y1027400D01*
D02*
G37*
G36*
X321980D02*
X318820D01*
X315768Y1026582D01*
X313032Y1025002D01*
X310798Y1022768D01*
X309218Y1020032D01*
X308400Y1016980D01*
Y1013820D01*
X309218Y1010768D01*
X310798Y1008032D01*
X313032Y1005798D01*
X315768Y1004218D01*
X318820Y1003400D01*
X321980D01*
X325032Y1004218D01*
X327768Y1005798D01*
X330002Y1008032D01*
X331582Y1010768D01*
X332400Y1013820D01*
Y1016980D01*
X331582Y1020032D01*
X330002Y1022768D01*
X327768Y1025002D01*
X325032Y1026582D01*
X321980Y1027400D01*
D02*
G37*
G36*
X296580D02*
X293420D01*
X290368Y1026582D01*
X287632Y1025002D01*
X285398Y1022768D01*
X283818Y1020032D01*
X283000Y1016980D01*
Y1013820D01*
X283818Y1010768D01*
X285398Y1008032D01*
X287632Y1005798D01*
X290368Y1004218D01*
X293420Y1003400D01*
X296580D01*
X299632Y1004218D01*
X302368Y1005798D01*
X304602Y1008032D01*
X306182Y1010768D01*
X307000Y1013820D01*
Y1016980D01*
X306182Y1020032D01*
X304602Y1022768D01*
X302368Y1025002D01*
X299632Y1026582D01*
X296580Y1027400D01*
D02*
G37*
G36*
X271180D02*
X268020D01*
X264968Y1026582D01*
X262232Y1025002D01*
X259998Y1022768D01*
X258418Y1020032D01*
X257600Y1016980D01*
Y1013820D01*
X258418Y1010768D01*
X259998Y1008032D01*
X262232Y1005798D01*
X264968Y1004218D01*
X268020Y1003400D01*
X271180D01*
X274232Y1004218D01*
X276968Y1005798D01*
X279202Y1008032D01*
X280782Y1010768D01*
X281600Y1013820D01*
Y1016980D01*
X280782Y1020032D01*
X279202Y1022768D01*
X276968Y1025002D01*
X274232Y1026582D01*
X271180Y1027400D01*
D02*
G37*
G36*
X220446Y1027900D02*
X217154D01*
X213975Y1027048D01*
X211125Y1025403D01*
X208797Y1023075D01*
X207152Y1020225D01*
X206300Y1017046D01*
Y1013754D01*
X207152Y1010575D01*
X208797Y1007725D01*
X211125Y1005397D01*
X213975Y1003752D01*
X215447Y1003357D01*
Y1002043D01*
X213975Y1001648D01*
X211125Y1000003D01*
X208797Y997675D01*
X207152Y994825D01*
X206300Y991646D01*
Y988354D01*
X207152Y985175D01*
X208797Y982325D01*
X211125Y979997D01*
X213975Y978352D01*
X217154Y977500D01*
X220446D01*
X223625Y978352D01*
X226475Y979997D01*
X228803Y982325D01*
X230448Y985175D01*
X231101Y987613D01*
X232416D01*
X233018Y985368D01*
X234598Y982632D01*
X236832Y980398D01*
X239568Y978818D01*
X242620Y978000D01*
X245780D01*
X248832Y978818D01*
X251568Y980398D01*
X253802Y982632D01*
X255382Y985368D01*
X256200Y988420D01*
Y991580D01*
X255382Y994632D01*
X253802Y997368D01*
X251568Y999602D01*
X248832Y1001182D01*
X245780Y1002000D01*
X242620D01*
X239568Y1001182D01*
X236832Y999602D01*
X234598Y997368D01*
X233018Y994632D01*
X232416Y992387D01*
X231101D01*
X230448Y994825D01*
X228803Y997675D01*
X226475Y1000003D01*
X223625Y1001648D01*
X222153Y1002043D01*
Y1003357D01*
X223625Y1003752D01*
X226475Y1005397D01*
X228803Y1007725D01*
X230448Y1010575D01*
X231101Y1013013D01*
X232416D01*
X233018Y1010768D01*
X234598Y1008032D01*
X236832Y1005798D01*
X239568Y1004218D01*
X242620Y1003400D01*
X245780D01*
X248832Y1004218D01*
X251568Y1005798D01*
X253802Y1008032D01*
X255382Y1010768D01*
X256200Y1013820D01*
Y1016980D01*
X255382Y1020032D01*
X253802Y1022768D01*
X251568Y1025002D01*
X248832Y1026582D01*
X245780Y1027400D01*
X242620D01*
X239568Y1026582D01*
X236832Y1025002D01*
X234598Y1022768D01*
X233018Y1020032D01*
X232416Y1017787D01*
X231101D01*
X230448Y1020225D01*
X228803Y1023075D01*
X226475Y1025403D01*
X223625Y1027048D01*
X220446Y1027900D01*
D02*
G37*
G36*
X164500Y1003500D02*
X159388D01*
X159545Y1002912D01*
X160598Y1001088D01*
X162088Y999598D01*
X163912Y998545D01*
X164500Y998388D01*
Y1003500D01*
D02*
G37*
G36*
X174612D02*
X169500D01*
Y998388D01*
X170088Y998545D01*
X171912Y999598D01*
X173402Y1001088D01*
X174455Y1002912D01*
X174612Y1003500D01*
D02*
G37*
G36*
X423580Y1002000D02*
X420420D01*
X417368Y1001182D01*
X414632Y999602D01*
X412398Y997368D01*
X410818Y994632D01*
X410000Y991580D01*
Y988420D01*
X410818Y985368D01*
X412398Y982632D01*
X414632Y980398D01*
X417368Y978818D01*
X420420Y978000D01*
X423580D01*
X426632Y978818D01*
X429368Y980398D01*
X431602Y982632D01*
X433182Y985368D01*
X434000Y988420D01*
Y991580D01*
X433182Y994632D01*
X431602Y997368D01*
X429368Y999602D01*
X426632Y1001182D01*
X423580Y1002000D01*
D02*
G37*
G36*
X398180D02*
X395020D01*
X391968Y1001182D01*
X389232Y999602D01*
X386998Y997368D01*
X385418Y994632D01*
X384600Y991580D01*
Y988420D01*
X385418Y985368D01*
X386998Y982632D01*
X389232Y980398D01*
X391968Y978818D01*
X395020Y978000D01*
X398180D01*
X401232Y978818D01*
X403968Y980398D01*
X406202Y982632D01*
X407782Y985368D01*
X408600Y988420D01*
Y991580D01*
X407782Y994632D01*
X406202Y997368D01*
X403968Y999602D01*
X401232Y1001182D01*
X398180Y1002000D01*
D02*
G37*
G36*
X372780D02*
X369620D01*
X366568Y1001182D01*
X363832Y999602D01*
X361598Y997368D01*
X360018Y994632D01*
X359200Y991580D01*
Y988420D01*
X360018Y985368D01*
X361598Y982632D01*
X363832Y980398D01*
X366568Y978818D01*
X369620Y978000D01*
X372780D01*
X375832Y978818D01*
X378568Y980398D01*
X380802Y982632D01*
X382382Y985368D01*
X383200Y988420D01*
Y991580D01*
X382382Y994632D01*
X380802Y997368D01*
X378568Y999602D01*
X375832Y1001182D01*
X372780Y1002000D01*
D02*
G37*
G36*
X347380D02*
X344220D01*
X341168Y1001182D01*
X338432Y999602D01*
X336198Y997368D01*
X334618Y994632D01*
X333800Y991580D01*
Y988420D01*
X334618Y985368D01*
X336198Y982632D01*
X336559Y982270D01*
X336033Y981000D01*
X335454D01*
X333984Y980391D01*
X332859Y979266D01*
X332250Y977796D01*
Y976204D01*
X332859Y974734D01*
X333984Y973609D01*
X335454Y973000D01*
X337046D01*
X338516Y973609D01*
X339641Y974734D01*
X340250Y976204D01*
Y977796D01*
X340203Y977908D01*
X341079Y978733D01*
X341205Y978808D01*
X344220Y978000D01*
X347380D01*
X350432Y978818D01*
X353168Y980398D01*
X355402Y982632D01*
X356982Y985368D01*
X357800Y988420D01*
Y991580D01*
X356982Y994632D01*
X355402Y997368D01*
X353168Y999602D01*
X350432Y1001182D01*
X347380Y1002000D01*
D02*
G37*
G36*
X321980D02*
X318820D01*
X315768Y1001182D01*
X313032Y999602D01*
X310798Y997368D01*
X309218Y994632D01*
X308400Y991580D01*
Y988420D01*
X309218Y985368D01*
X310798Y982632D01*
X313032Y980398D01*
X315768Y978818D01*
X318820Y978000D01*
X321980D01*
X325032Y978818D01*
X327768Y980398D01*
X330002Y982632D01*
X331582Y985368D01*
X332400Y988420D01*
Y991580D01*
X331582Y994632D01*
X330002Y997368D01*
X327768Y999602D01*
X325032Y1001182D01*
X321980Y1002000D01*
D02*
G37*
G36*
X296580D02*
X293420D01*
X290368Y1001182D01*
X287632Y999602D01*
X285398Y997368D01*
X283818Y994632D01*
X283000Y991580D01*
Y988420D01*
X283818Y985368D01*
X285398Y982632D01*
X287632Y980398D01*
X290368Y978818D01*
X293420Y978000D01*
X296580D01*
X299632Y978818D01*
X302368Y980398D01*
X304602Y982632D01*
X306182Y985368D01*
X307000Y988420D01*
Y991580D01*
X306182Y994632D01*
X304602Y997368D01*
X302368Y999602D01*
X299632Y1001182D01*
X296580Y1002000D01*
D02*
G37*
G36*
X271180D02*
X268020D01*
X264968Y1001182D01*
X262232Y999602D01*
X259998Y997368D01*
X258418Y994632D01*
X257600Y991580D01*
Y988420D01*
X258418Y985368D01*
X259998Y982632D01*
X262232Y980398D01*
X264968Y978818D01*
X268020Y978000D01*
X271180D01*
X274232Y978818D01*
X276968Y980398D01*
X279202Y982632D01*
X280782Y985368D01*
X281600Y988420D01*
Y991580D01*
X280782Y994632D01*
X279202Y997368D01*
X276968Y999602D01*
X274232Y1001182D01*
X271180Y1002000D01*
D02*
G37*
G36*
X168119Y994500D02*
X165881D01*
X163719Y993921D01*
X161781Y992802D01*
X160198Y991219D01*
X159079Y989281D01*
X158500Y987119D01*
Y984881D01*
X159079Y982719D01*
X160198Y980781D01*
X161781Y979198D01*
X163719Y978079D01*
X165881Y977500D01*
X168119D01*
X170281Y978079D01*
X172219Y979198D01*
X173802Y980781D01*
X174921Y982719D01*
X175500Y984881D01*
Y987119D01*
X174921Y989281D01*
X173802Y991219D01*
X172219Y992802D01*
X170281Y993921D01*
X168119Y994500D01*
D02*
G37*
G36*
X271437Y960300D02*
X268062D01*
X267063Y960101D01*
X266215Y959535D01*
X265649Y958687D01*
X265647Y958681D01*
X264353D01*
X264351Y958687D01*
X263785Y959535D01*
X262937Y960101D01*
X261938Y960300D01*
X261250D01*
Y956000D01*
X260250D01*
Y955000D01*
X255950D01*
Y954313D01*
X256149Y953313D01*
X256329Y953044D01*
X256141Y952764D01*
X255952Y951813D01*
Y951500D01*
X260250D01*
Y949500D01*
X255952D01*
Y949187D01*
X256141Y948236D01*
X256299Y948000D01*
X256141Y947764D01*
X255952Y946813D01*
Y946500D01*
X260250D01*
Y944500D01*
X255952D01*
Y944187D01*
X256141Y943236D01*
X256329Y942956D01*
X256149Y942687D01*
X255950Y941687D01*
Y941000D01*
X260250D01*
Y940000D01*
X261250D01*
Y935700D01*
X261938D01*
X262937Y935899D01*
X263785Y936465D01*
X264351Y937313D01*
X264353Y937319D01*
X265647D01*
X265649Y937313D01*
X266215Y936465D01*
X267063Y935899D01*
X268062Y935700D01*
X271000D01*
Y934204D01*
X271609Y932734D01*
X272240Y932103D01*
X272265Y931745D01*
X272034Y930629D01*
X271337Y930163D01*
X270674Y929171D01*
X270441Y928000D01*
Y921267D01*
X269279Y920105D01*
X267883Y920302D01*
X267559Y920857D01*
Y923000D01*
X262500D01*
Y916941D01*
X263827D01*
X264611Y916677D01*
X265000Y915746D01*
Y914954D01*
X265609Y913484D01*
X266734Y912359D01*
X268204Y911750D01*
X269796D01*
X271266Y912359D01*
X272391Y913484D01*
X273000Y914954D01*
Y915174D01*
X274767Y916941D01*
X279500D01*
X280671Y917174D01*
X281663Y917837D01*
X282326Y918829D01*
X282559Y920000D01*
Y923000D01*
X282559Y923000D01*
Y926733D01*
X283767Y927941D01*
X302764D01*
X302954Y926750D01*
X301484Y926141D01*
X300359Y925016D01*
X299750Y923546D01*
Y921954D01*
X300359Y920484D01*
X301484Y919359D01*
X302954Y918750D01*
X304546D01*
X306016Y919359D01*
X307141Y920484D01*
X307750Y921954D01*
Y923546D01*
X307141Y925016D01*
X306016Y926141D01*
X304546Y926750D01*
X304736Y927941D01*
X331783D01*
X333441Y926283D01*
Y918244D01*
X333160Y917823D01*
X332946Y916750D01*
Y906250D01*
X333160Y905177D01*
X333767Y904267D01*
X334677Y903660D01*
X335750Y903446D01*
X337250D01*
X338323Y903660D01*
X339000Y904112D01*
X339677Y903660D01*
X340750Y903446D01*
X342250D01*
X343323Y903660D01*
X344000Y904112D01*
X344677Y903660D01*
X345750Y903446D01*
X347250D01*
X348323Y903660D01*
X349000Y904112D01*
X349677Y903660D01*
X350750Y903446D01*
X352250D01*
X353323Y903660D01*
X354000Y904112D01*
X354677Y903660D01*
X355750Y903446D01*
X357250D01*
X358323Y903660D01*
X359000Y904112D01*
X359677Y903660D01*
X360750Y903446D01*
X362250D01*
X363323Y903660D01*
X364000Y904112D01*
X364677Y903660D01*
X365750Y903446D01*
X365895D01*
X367000Y902796D01*
X367000Y902299D01*
Y901204D01*
X367609Y899734D01*
X368734Y898609D01*
X370204Y898000D01*
X371796D01*
X373266Y898609D01*
X374000Y899343D01*
X374734Y898609D01*
X376204Y898000D01*
X377796D01*
X379266Y898609D01*
X380391Y899734D01*
X381000Y901204D01*
Y902299D01*
X381000Y902796D01*
X382105Y903446D01*
X382250D01*
X383323Y903660D01*
X384000Y904112D01*
X384677Y903660D01*
X385750Y903446D01*
X386515D01*
X386950Y902796D01*
Y901204D01*
X387559Y899734D01*
X388684Y898609D01*
X390154Y898000D01*
X391746D01*
X393216Y898609D01*
X394341Y899734D01*
X394950Y901204D01*
Y902796D01*
X394341Y904266D01*
X394275Y904331D01*
X394840Y905177D01*
X395054Y906250D01*
Y916750D01*
X394840Y917823D01*
X394559Y918244D01*
Y921953D01*
X395671Y922174D01*
X396663Y922837D01*
X397326Y923829D01*
X397559Y925000D01*
Y933000D01*
X397326Y934171D01*
X396663Y935163D01*
X395671Y935826D01*
X395069Y935946D01*
Y937663D01*
X395500Y938704D01*
Y940296D01*
X394891Y941766D01*
X393766Y942891D01*
X392296Y943500D01*
X390704D01*
X389234Y942891D01*
X388109Y941766D01*
X387500Y940296D01*
Y938704D01*
X387932Y937663D01*
Y935946D01*
X387329Y935826D01*
X386337Y935163D01*
X385674Y934171D01*
X385441Y933000D01*
Y925000D01*
X385674Y923829D01*
X386337Y922837D01*
X387329Y922174D01*
X388441Y921953D01*
Y920612D01*
X387500Y919776D01*
Y911500D01*
X385500D01*
Y919504D01*
X384677Y919340D01*
X384000Y918888D01*
X383323Y919340D01*
X382250Y919554D01*
X380750D01*
X379677Y919340D01*
X379000Y918888D01*
X378323Y919340D01*
X377250Y919554D01*
X375750D01*
X374677Y919340D01*
X374000Y918888D01*
X373323Y919340D01*
X372250Y919554D01*
X370750D01*
X369677Y919340D01*
X369000Y918888D01*
X368323Y919340D01*
X367500Y919504D01*
Y911500D01*
X365500D01*
Y919776D01*
X364559Y920612D01*
Y927500D01*
X364559Y927500D01*
X364326Y928671D01*
X363663Y929663D01*
X341991Y951335D01*
X340999Y951998D01*
X339828Y952231D01*
X291158D01*
X285163Y958225D01*
X285163Y958225D01*
X284171Y958888D01*
X283000Y959121D01*
X277973D01*
X277641Y959454D01*
X276171Y960062D01*
X274579D01*
X273289Y959528D01*
X273285Y959535D01*
X272437Y960101D01*
X271437Y960300D01*
D02*
G37*
G36*
X259250D02*
X258563D01*
X257563Y960101D01*
X256715Y959535D01*
X256149Y958687D01*
X255950Y957688D01*
Y957000D01*
X259250D01*
Y960300D01*
D02*
G37*
G36*
X510580Y960000D02*
X510000D01*
Y949000D01*
X521000D01*
Y949580D01*
X520182Y952632D01*
X518602Y955368D01*
X516368Y957602D01*
X513632Y959182D01*
X510580Y960000D01*
D02*
G37*
G36*
X508000D02*
X507420D01*
X504368Y959182D01*
X501632Y957602D01*
X499398Y955368D01*
X497818Y952632D01*
X497000Y949580D01*
Y949000D01*
X508000D01*
Y960000D01*
D02*
G37*
G36*
X164750Y953283D02*
X160500D01*
Y944500D01*
X169083D01*
Y948950D01*
X168753Y950608D01*
X167814Y952014D01*
X166408Y952953D01*
X164750Y953283D01*
D02*
G37*
G36*
X155500D02*
X151250D01*
X149592Y952953D01*
X148186Y952014D01*
X147247Y950608D01*
X146917Y948950D01*
Y944500D01*
X155500D01*
Y953283D01*
D02*
G37*
G36*
X259250Y939000D02*
X255950D01*
Y938313D01*
X256149Y937313D01*
X256715Y936465D01*
X257563Y935899D01*
X258563Y935700D01*
X259250D01*
Y939000D01*
D02*
G37*
G36*
X194750Y953283D02*
X181250D01*
X179592Y952953D01*
X178186Y952014D01*
X177247Y950608D01*
X176917Y948950D01*
Y935050D01*
X177247Y933392D01*
X178186Y931986D01*
X179592Y931047D01*
X181250Y930717D01*
X194750D01*
X196408Y931047D01*
X197814Y931986D01*
X198753Y933392D01*
X199083Y935050D01*
Y948950D01*
X198753Y950608D01*
X197814Y952014D01*
X196408Y952953D01*
X194750Y953283D01*
D02*
G37*
G36*
X169083Y939500D02*
X160500D01*
Y930717D01*
X164750D01*
X166408Y931047D01*
X167814Y931986D01*
X168753Y933392D01*
X169083Y935050D01*
Y939500D01*
D02*
G37*
G36*
X155500D02*
X146917D01*
Y935050D01*
X147247Y933392D01*
X148186Y931986D01*
X149592Y931047D01*
X151250Y930717D01*
X155500D01*
Y939500D01*
D02*
G37*
G36*
X409500Y936059D02*
X407500D01*
Y930000D01*
X412559D01*
Y933000D01*
X412326Y934171D01*
X411663Y935163D01*
X410671Y935826D01*
X409500Y936059D01*
D02*
G37*
G36*
X405500D02*
X403500D01*
X402329Y935826D01*
X401337Y935163D01*
X400674Y934171D01*
X400441Y933000D01*
Y930000D01*
X405500D01*
Y936059D01*
D02*
G37*
G36*
X264500Y931059D02*
X262500D01*
Y925000D01*
X267559D01*
Y928000D01*
X267326Y929171D01*
X266663Y930163D01*
X265671Y930826D01*
X264500Y931059D01*
D02*
G37*
G36*
X260500D02*
X258500D01*
X257330Y930826D01*
X256337Y930163D01*
X255674Y929171D01*
X255441Y928000D01*
Y925000D01*
X260500D01*
Y931059D01*
D02*
G37*
G36*
X412559Y928000D02*
X407500D01*
Y921941D01*
X409500D01*
X410671Y922174D01*
X411663Y922837D01*
X412326Y923829D01*
X412559Y925000D01*
Y928000D01*
D02*
G37*
G36*
X405500D02*
X400441D01*
Y925000D01*
X400674Y923829D01*
X401337Y922837D01*
X402329Y922174D01*
X403500Y921941D01*
X405500D01*
Y928000D01*
D02*
G37*
G36*
X260500Y923000D02*
X255441D01*
Y920000D01*
X255674Y918829D01*
X256337Y917837D01*
X257330Y917174D01*
X258500Y916941D01*
X260500D01*
Y923000D01*
D02*
G37*
G36*
X164750Y924533D02*
X160500D01*
Y915750D01*
X169083D01*
Y920200D01*
X168753Y921858D01*
X167814Y923264D01*
X166408Y924203D01*
X164750Y924533D01*
D02*
G37*
G36*
X155500D02*
X151250D01*
X149592Y924203D01*
X148186Y923264D01*
X147247Y921858D01*
X146917Y920200D01*
Y915750D01*
X155500D01*
Y924533D01*
D02*
G37*
G36*
X194750D02*
X181250D01*
X179592Y924203D01*
X178186Y923264D01*
X177247Y921858D01*
X176917Y920200D01*
Y906300D01*
X177247Y904642D01*
X178186Y903236D01*
X179592Y902297D01*
X181250Y901967D01*
X194750D01*
X196408Y902297D01*
X197814Y903236D01*
X198753Y904642D01*
X199083Y906300D01*
Y920200D01*
X198753Y921858D01*
X197814Y923264D01*
X196408Y924203D01*
X194750Y924533D01*
D02*
G37*
G36*
X169083Y910750D02*
X160500D01*
Y901967D01*
X164750D01*
X166408Y902297D01*
X167814Y903236D01*
X168753Y904642D01*
X169083Y906300D01*
Y910750D01*
D02*
G37*
G36*
X155500D02*
X146917D01*
Y906300D01*
X147247Y904642D01*
X148186Y903236D01*
X149592Y902297D01*
X151250Y901967D01*
X155500D01*
Y910750D01*
D02*
G37*
G36*
X326750Y900054D02*
X316250D01*
X315177Y899840D01*
X314755Y899559D01*
X252750D01*
X252750Y899559D01*
X251579Y899326D01*
X250587Y898663D01*
X243837Y891913D01*
X243837Y891913D01*
X243174Y890920D01*
X242941Y889750D01*
Y884317D01*
X241702Y883601D01*
X240399Y882298D01*
X239477Y880702D01*
X239000Y878922D01*
Y877078D01*
X239477Y875298D01*
X240399Y873702D01*
X241702Y872399D01*
X243298Y871477D01*
X245079Y871000D01*
X246922D01*
X248702Y871477D01*
X250298Y872399D01*
X251601Y873702D01*
X252523Y875298D01*
X253000Y877078D01*
Y878922D01*
X252523Y880702D01*
X251601Y882298D01*
X250298Y883601D01*
X249059Y884317D01*
Y888483D01*
X254017Y893441D01*
X288569D01*
X289000Y892796D01*
Y892173D01*
X288826Y891174D01*
X287827Y891000D01*
X287204D01*
X285734Y890391D01*
X284609Y889266D01*
X284000Y887796D01*
Y886615D01*
X283175Y885790D01*
X282862Y885633D01*
X282559Y885725D01*
Y888000D01*
X282326Y889171D01*
X281663Y890163D01*
X280671Y890826D01*
X279500Y891059D01*
X273500D01*
X272330Y890826D01*
X271337Y890163D01*
X270674Y889171D01*
X270441Y888000D01*
Y880000D01*
X270674Y878829D01*
X271337Y877837D01*
X272330Y877174D01*
X272463Y877147D01*
Y875853D01*
X272330Y875826D01*
X271337Y875163D01*
X270674Y874171D01*
X270441Y873000D01*
Y865000D01*
X270674Y863829D01*
X271337Y862837D01*
X272330Y862174D01*
X272463Y862148D01*
Y860853D01*
X272330Y860826D01*
X271337Y860163D01*
X270674Y859171D01*
X270441Y858000D01*
Y850000D01*
X270674Y848829D01*
X271337Y847837D01*
X272330Y847174D01*
X273500Y846941D01*
X279500D01*
X280671Y847174D01*
X281663Y847837D01*
X282326Y848829D01*
X282559Y850000D01*
Y858000D01*
X282326Y859171D01*
X281663Y860163D01*
X280671Y860826D01*
X280537Y860853D01*
Y862147D01*
X280671Y862174D01*
X281663Y862837D01*
X282326Y863829D01*
X282559Y865000D01*
Y868441D01*
X304331D01*
X305037Y867385D01*
X305000Y867296D01*
Y865704D01*
X305102Y865458D01*
X303734Y864891D01*
X302609Y863766D01*
X302000Y862296D01*
Y860704D01*
X302609Y859234D01*
X303734Y858109D01*
X305102Y857542D01*
X305000Y857296D01*
Y855704D01*
X305609Y854234D01*
X306734Y853109D01*
X308204Y852500D01*
X309796D01*
X311266Y853109D01*
X312715Y853073D01*
X313446Y852250D01*
Y850750D01*
X313660Y849677D01*
X314112Y849000D01*
X313660Y848323D01*
X313446Y847250D01*
Y846171D01*
X312340Y845615D01*
X312220Y845601D01*
X312082Y845739D01*
X310245Y846500D01*
X308256D01*
X306418Y845739D01*
X305011Y844332D01*
X304250Y842495D01*
Y840505D01*
X305011Y838668D01*
X306418Y837261D01*
X308256Y836500D01*
X310245D01*
X312082Y837261D01*
X312752Y837931D01*
X321500D01*
X321574Y837946D01*
X326750D01*
X327823Y838160D01*
X328733Y838767D01*
X329340Y839677D01*
X329554Y840750D01*
Y842250D01*
X329340Y843323D01*
X328888Y844000D01*
X329340Y844677D01*
X329554Y845750D01*
Y847250D01*
X330326Y848191D01*
X333152D01*
X333734Y847609D01*
X335204Y847000D01*
X336796D01*
X338266Y847609D01*
X339391Y848734D01*
X340000Y850204D01*
Y851796D01*
X339391Y853266D01*
X338266Y854391D01*
X336796Y855000D01*
X335204D01*
X333734Y854391D01*
X333652Y854309D01*
X330505D01*
X329520Y855579D01*
X329554Y855750D01*
Y857250D01*
X329340Y858323D01*
X328888Y859000D01*
X329340Y859677D01*
X329554Y860750D01*
Y862250D01*
X329340Y863323D01*
X328888Y864000D01*
X329340Y864677D01*
X329554Y865750D01*
Y866395D01*
X330125Y867365D01*
X330799Y867500D01*
X331796D01*
X333266Y868109D01*
X334391Y869234D01*
X335000Y870704D01*
Y872296D01*
X334391Y873766D01*
X333266Y874891D01*
X331796Y875500D01*
X330799D01*
X330125Y875635D01*
X329554Y876605D01*
Y877250D01*
X329340Y878323D01*
X328888Y879000D01*
X329340Y879677D01*
X329554Y880750D01*
Y882250D01*
X329340Y883323D01*
X328888Y884000D01*
X329340Y884677D01*
X329554Y885750D01*
Y887250D01*
X329340Y888323D01*
X328888Y889000D01*
X329340Y889677D01*
X329554Y890750D01*
Y892250D01*
X329340Y893323D01*
X328888Y894000D01*
X329340Y894677D01*
X329554Y895750D01*
Y897250D01*
X329340Y898323D01*
X328733Y899233D01*
X327823Y899840D01*
X326750Y900054D01*
D02*
G37*
G36*
X429846Y906050D02*
X428254D01*
X426784Y905441D01*
X425659Y904316D01*
X425050Y902846D01*
Y901254D01*
X425659Y899784D01*
X426784Y898659D01*
X428254Y898050D01*
X429846D01*
X431316Y898659D01*
X432441Y899784D01*
X433050Y901254D01*
Y902846D01*
X432441Y904316D01*
X431316Y905441D01*
X429846Y906050D01*
D02*
G37*
G36*
X474796Y904000D02*
X473204D01*
X471734Y903391D01*
X470609Y902266D01*
X470000Y900796D01*
Y899204D01*
X470609Y897734D01*
X471734Y896609D01*
X473204Y896000D01*
X474796D01*
X476266Y896609D01*
X477391Y897734D01*
X478000Y899204D01*
Y900796D01*
X477391Y902266D01*
X476266Y903391D01*
X474796Y904000D01*
D02*
G37*
G36*
X336796Y900000D02*
X335204D01*
X333734Y899391D01*
X332609Y898266D01*
X332000Y896796D01*
Y895204D01*
X332609Y893734D01*
X333734Y892609D01*
X335204Y892000D01*
X336796D01*
X338266Y892609D01*
X339391Y893734D01*
X340000Y895204D01*
Y896796D01*
X339391Y898266D01*
X338266Y899391D01*
X336796Y900000D01*
D02*
G37*
G36*
X200796Y895750D02*
X199204D01*
X197734Y895141D01*
X196609Y894016D01*
X196000Y892546D01*
Y890954D01*
X196609Y889484D01*
X197734Y888359D01*
X199204Y887750D01*
X200796D01*
X202266Y888359D01*
X203391Y889484D01*
X204000Y890954D01*
Y892546D01*
X203391Y894016D01*
X202266Y895141D01*
X200796Y895750D01*
D02*
G37*
G36*
X468796Y894500D02*
X467204D01*
X465734Y893891D01*
X464609Y892766D01*
X464000Y891296D01*
Y889704D01*
X464609Y888234D01*
X465734Y887109D01*
X467204Y886500D01*
X468796D01*
X470266Y887109D01*
X471391Y888234D01*
X472000Y889704D01*
Y891296D01*
X471391Y892766D01*
X470266Y893891D01*
X468796Y894500D01*
D02*
G37*
G36*
X264500Y891059D02*
X262500D01*
Y885000D01*
X267559D01*
Y888000D01*
X267326Y889171D01*
X266663Y890163D01*
X265671Y890826D01*
X264500Y891059D01*
D02*
G37*
G36*
X260500D02*
X258500D01*
X257330Y890826D01*
X256337Y890163D01*
X255674Y889171D01*
X255441Y888000D01*
Y885000D01*
X260500D01*
Y891059D01*
D02*
G37*
G36*
X447995Y886000D02*
X446006D01*
X444168Y885239D01*
X442761Y883832D01*
X442000Y881995D01*
Y880005D01*
X442761Y878168D01*
X444168Y876761D01*
X446006Y876000D01*
X447995D01*
X449832Y876761D01*
X451239Y878168D01*
X452000Y880005D01*
Y881995D01*
X451239Y883832D01*
X449832Y885239D01*
X447995Y886000D01*
D02*
G37*
G36*
X159500Y875612D02*
Y870500D01*
X164612D01*
X164455Y871088D01*
X163402Y872912D01*
X161912Y874402D01*
X160088Y875455D01*
X159500Y875612D01*
D02*
G37*
G36*
X154500D02*
X153912Y875455D01*
X152088Y874402D01*
X150598Y872912D01*
X149545Y871088D01*
X149388Y870500D01*
X154500D01*
Y875612D01*
D02*
G37*
G36*
X267559Y883000D02*
X255441D01*
Y880000D01*
X255674Y878829D01*
X256337Y877837D01*
X257330Y877174D01*
X257463Y877147D01*
Y875853D01*
X257330Y875826D01*
X256337Y875163D01*
X255674Y874171D01*
X255441Y873000D01*
Y870000D01*
X267559D01*
Y873000D01*
X267326Y874171D01*
X266663Y875163D01*
X265671Y875826D01*
X265537Y875853D01*
Y877147D01*
X265671Y877174D01*
X266663Y877837D01*
X267326Y878829D01*
X267559Y880000D01*
Y883000D01*
D02*
G37*
G36*
X468796Y875500D02*
X467204D01*
X465734Y874891D01*
X464609Y873766D01*
X464000Y872296D01*
Y870704D01*
X464609Y869234D01*
X465734Y868109D01*
X467204Y867500D01*
X468796D01*
X470266Y868109D01*
X471391Y869234D01*
X472000Y870704D01*
Y872296D01*
X471391Y873766D01*
X470266Y874891D01*
X468796Y875500D01*
D02*
G37*
G36*
X164612Y865500D02*
X159500D01*
Y860388D01*
X160088Y860545D01*
X161912Y861598D01*
X163402Y863088D01*
X164455Y864912D01*
X164612Y865500D01*
D02*
G37*
G36*
X154500D02*
X149388D01*
X149545Y864912D01*
X150598Y863088D01*
X152088Y861598D01*
X153912Y860545D01*
X154500Y860388D01*
Y865500D01*
D02*
G37*
G36*
X178119Y876500D02*
X175881D01*
X173719Y875921D01*
X171781Y874802D01*
X170198Y873219D01*
X169079Y871281D01*
X168500Y869119D01*
Y866881D01*
X169079Y864719D01*
X170198Y862781D01*
X171781Y861198D01*
X173719Y860079D01*
X175881Y859500D01*
X178119D01*
X180281Y860079D01*
X182219Y861198D01*
X183802Y862781D01*
X184921Y864719D01*
X185500Y866881D01*
Y869119D01*
X184921Y871281D01*
X183802Y873219D01*
X182219Y874802D01*
X180281Y875921D01*
X178119Y876500D01*
D02*
G37*
G36*
X267559Y868000D02*
X255441D01*
Y865000D01*
X255674Y863829D01*
X256337Y862837D01*
X257330Y862174D01*
X257463Y862148D01*
Y860853D01*
X257330Y860826D01*
X256337Y860163D01*
X255674Y859171D01*
X255441Y858000D01*
Y855000D01*
X267559D01*
Y858000D01*
X267326Y859171D01*
X266663Y860163D01*
X265671Y860826D01*
X265537Y860853D01*
Y862147D01*
X265671Y862174D01*
X266663Y862837D01*
X267326Y863829D01*
X267559Y865000D01*
Y868000D01*
D02*
G37*
G36*
X267559Y853000D02*
X262500D01*
Y846941D01*
X264500D01*
X265671Y847174D01*
X266663Y847837D01*
X267326Y848829D01*
X267559Y850000D01*
Y853000D01*
D02*
G37*
G36*
X260500D02*
X255441D01*
Y850000D01*
X255674Y848829D01*
X256337Y847837D01*
X257330Y847174D01*
X258500Y846941D01*
X260500D01*
Y853000D01*
D02*
G37*
G36*
X411750Y900054D02*
X401250D01*
X400177Y899840D01*
X399267Y899233D01*
X398660Y898323D01*
X398446Y897250D01*
Y895750D01*
X398660Y894677D01*
X399112Y894000D01*
X398660Y893323D01*
X398446Y892250D01*
Y890750D01*
X398660Y889677D01*
X399112Y889000D01*
X398660Y888323D01*
X398446Y887250D01*
Y885750D01*
X398660Y884677D01*
X399112Y884000D01*
X398660Y883323D01*
X398446Y882250D01*
Y880750D01*
X398660Y879677D01*
X399112Y879000D01*
X398660Y878323D01*
X398446Y877250D01*
Y875750D01*
X398660Y874677D01*
X399112Y874000D01*
X398660Y873323D01*
X398446Y872250D01*
Y870750D01*
X398660Y869677D01*
X399112Y869000D01*
X398660Y868323D01*
X398446Y867250D01*
Y865750D01*
X398660Y864677D01*
X399112Y864000D01*
X398660Y863323D01*
X398446Y862250D01*
Y860750D01*
X398660Y859677D01*
X399112Y859000D01*
X398660Y858323D01*
X398446Y857250D01*
Y855750D01*
X398241Y855500D01*
X397204D01*
X395734Y854891D01*
X394609Y853766D01*
X394000Y852296D01*
Y850704D01*
X394609Y849234D01*
X395734Y848109D01*
X397204Y847500D01*
X398241D01*
X398446Y847250D01*
Y845750D01*
X397388Y844559D01*
X395598D01*
X395266Y844891D01*
X393796Y845500D01*
X392204D01*
X390734Y844891D01*
X389609Y843766D01*
X389000Y842296D01*
Y840704D01*
X389609Y839234D01*
X390734Y838109D01*
X392204Y837500D01*
X393796D01*
X395266Y838109D01*
X395598Y838441D01*
X399756D01*
X400177Y838160D01*
X401250Y837946D01*
X411750D01*
X412823Y838160D01*
X413733Y838767D01*
X414340Y839677D01*
X414554Y840750D01*
Y842250D01*
X414340Y843323D01*
X413888Y844000D01*
X414340Y844677D01*
X414504Y845500D01*
X406500D01*
Y847500D01*
X414504D01*
X414340Y848323D01*
X413888Y849000D01*
X414340Y849677D01*
X414554Y850750D01*
Y851395D01*
X415125Y852365D01*
X415799Y852500D01*
X416796D01*
X418266Y853109D01*
X419391Y854234D01*
X420000Y855704D01*
Y857296D01*
X419391Y858766D01*
X418266Y859891D01*
X416796Y860500D01*
X415799D01*
X415125Y860635D01*
X414554Y861605D01*
Y862250D01*
X414340Y863323D01*
X413888Y864000D01*
X414340Y864677D01*
X414554Y865750D01*
Y867250D01*
X414340Y868323D01*
X413888Y869000D01*
X414340Y869677D01*
X414554Y870750D01*
Y872250D01*
X414340Y873323D01*
X413888Y874000D01*
X414340Y874677D01*
X414554Y875750D01*
Y877250D01*
X414340Y878323D01*
X413888Y879000D01*
X414340Y879677D01*
X414554Y880750D01*
Y882250D01*
X414340Y883323D01*
X413888Y884000D01*
X414340Y884677D01*
X414554Y885750D01*
Y887250D01*
X414340Y888323D01*
X413888Y889000D01*
X414340Y889677D01*
X414554Y890750D01*
Y892250D01*
X414340Y893323D01*
X413888Y894000D01*
X414340Y894677D01*
X414554Y895750D01*
Y897250D01*
X414340Y898323D01*
X413733Y899233D01*
X412823Y899840D01*
X411750Y900054D01*
D02*
G37*
G36*
X468796Y849000D02*
X467204D01*
X465734Y848391D01*
X464609Y847266D01*
X464000Y845796D01*
Y844204D01*
X464609Y842734D01*
X465734Y841609D01*
X467204Y841000D01*
X468796D01*
X470266Y841609D01*
X471391Y842734D01*
X472000Y844204D01*
Y845796D01*
X471391Y847266D01*
X470266Y848391D01*
X468796Y849000D01*
D02*
G37*
G36*
X392250Y834554D02*
X390750D01*
X389677Y834340D01*
X389000Y833888D01*
X388323Y834340D01*
X387250Y834554D01*
X385750D01*
X384677Y834340D01*
X384000Y833888D01*
X383323Y834340D01*
X382250Y834554D01*
X380750D01*
X379677Y834340D01*
X379000Y833888D01*
X378323Y834340D01*
X377250Y834554D01*
X375750D01*
X374677Y834340D01*
X374000Y833888D01*
X373323Y834340D01*
X372250Y834554D01*
X370750D01*
X369677Y834340D01*
X369000Y833888D01*
X368323Y834340D01*
X367250Y834554D01*
X365750D01*
X364677Y834340D01*
X364000Y833888D01*
X363323Y834340D01*
X362250Y834554D01*
X360750D01*
X359677Y834340D01*
X359000Y833888D01*
X358323Y834340D01*
X357250Y834554D01*
X355750D01*
X354677Y834340D01*
X354000Y833888D01*
X353323Y834340D01*
X352250Y834554D01*
X350750D01*
X349677Y834340D01*
X349000Y833888D01*
X348323Y834340D01*
X347250Y834554D01*
X345750D01*
X344677Y834340D01*
X344000Y833888D01*
X343323Y834340D01*
X342500Y834504D01*
Y826500D01*
Y818496D01*
X343323Y818660D01*
X344000Y819112D01*
X344677Y818660D01*
X345750Y818446D01*
X347250D01*
X348441Y817388D01*
Y810797D01*
X347329Y810576D01*
X346337Y809913D01*
X345674Y808921D01*
X345441Y807750D01*
Y799750D01*
X345674Y798579D01*
X346337Y797587D01*
X347329Y796924D01*
X348500Y796691D01*
X354500D01*
X355671Y796924D01*
X356663Y797587D01*
X357326Y798579D01*
X357559Y799750D01*
Y807750D01*
X357405Y808525D01*
X357364Y808979D01*
X358082Y810076D01*
X358766Y810359D01*
X359478Y811071D01*
X360018Y811473D01*
X361216Y811364D01*
X361501Y811174D01*
X362672Y810941D01*
X362672Y810941D01*
X363402D01*
X363734Y810609D01*
X365204Y810000D01*
X366796D01*
X367171Y810156D01*
X368441Y809307D01*
Y802767D01*
X363674Y798000D01*
X363204D01*
X361734Y797391D01*
X360609Y796266D01*
X360000Y794796D01*
Y793204D01*
X360609Y791734D01*
X361734Y790609D01*
X361803Y789215D01*
X361728Y789059D01*
X327848D01*
X327516Y789391D01*
X326046Y790000D01*
X324454D01*
X322984Y789391D01*
X321859Y788266D01*
X321250Y786796D01*
Y785204D01*
X321859Y783734D01*
X322984Y782609D01*
X324454Y782000D01*
X326046D01*
X327516Y782609D01*
X327848Y782941D01*
X364000D01*
X364000Y782941D01*
X365171Y783174D01*
X366163Y783837D01*
X366163Y783837D01*
X374267Y791941D01*
X444959D01*
X445212Y790671D01*
X444168Y790239D01*
X442761Y788832D01*
X442000Y786994D01*
Y785005D01*
X442761Y783168D01*
X444168Y781761D01*
X446006Y781000D01*
X447995D01*
X449832Y781761D01*
X451239Y783168D01*
X452000Y785005D01*
Y786994D01*
X451239Y788832D01*
X449832Y790239D01*
X448788Y790671D01*
X449041Y791941D01*
X471000D01*
X471000Y791941D01*
X472171Y792174D01*
X473163Y792837D01*
X473163Y792837D01*
X476163Y795837D01*
X476826Y796829D01*
X477059Y798000D01*
X477059Y798000D01*
Y802402D01*
X477391Y802734D01*
X478000Y804204D01*
Y805796D01*
X477391Y807266D01*
X476266Y808391D01*
X474796Y809000D01*
X473204D01*
X471734Y808391D01*
X470609Y807266D01*
X470000Y805796D01*
Y804876D01*
X468819Y803990D01*
X468796Y804000D01*
X468173D01*
X467174Y804174D01*
X467000Y805173D01*
Y805796D01*
X466391Y807266D01*
X465266Y808391D01*
X463796Y809000D01*
X463173D01*
X462174Y809174D01*
X462000Y810173D01*
Y810796D01*
X461391Y812266D01*
X460266Y813391D01*
X458796Y814000D01*
X458173D01*
X457174Y814174D01*
X457000Y815173D01*
Y815796D01*
X456391Y817266D01*
X455266Y818391D01*
X453796Y819000D01*
X452204D01*
X450734Y818391D01*
X450402Y818059D01*
X394559D01*
Y819755D01*
X394840Y820177D01*
X395054Y821250D01*
Y831750D01*
X394840Y832823D01*
X394233Y833733D01*
X393323Y834340D01*
X392250Y834554D01*
D02*
G37*
G36*
X337250D02*
X335750D01*
X334677Y834340D01*
X333767Y833733D01*
X333160Y832823D01*
X333061Y832329D01*
X331805Y831475D01*
X331745Y831500D01*
X329755D01*
X327918Y830739D01*
X326511Y829332D01*
X325750Y827495D01*
Y825505D01*
X326511Y823668D01*
X327918Y822261D01*
X329755Y821500D01*
X331745D01*
X331805Y821525D01*
X333061Y820671D01*
X333160Y820177D01*
X333767Y819267D01*
X334677Y818660D01*
X335750Y818446D01*
X337250D01*
X338323Y818660D01*
X339000Y819112D01*
X339677Y818660D01*
X340500Y818496D01*
Y826500D01*
Y834504D01*
X339677Y834340D01*
X339000Y833888D01*
X338323Y834340D01*
X337250Y834554D01*
D02*
G37*
G36*
X447995Y840000D02*
X446006D01*
X444168Y839239D01*
X442761Y837832D01*
X442000Y835994D01*
Y834005D01*
X442761Y832168D01*
X444168Y830761D01*
X446006Y830000D01*
X447995D01*
X449832Y830761D01*
X451239Y832168D01*
X452000Y834005D01*
Y835994D01*
X451239Y837832D01*
X449832Y839239D01*
X447995Y840000D01*
D02*
G37*
G36*
X468796Y829500D02*
X467204D01*
X465734Y828891D01*
X464609Y827766D01*
X464000Y826296D01*
Y824704D01*
X464609Y823234D01*
X465734Y822109D01*
X467204Y821500D01*
X468796D01*
X470266Y822109D01*
X471391Y823234D01*
X472000Y824704D01*
Y826296D01*
X471391Y827766D01*
X470266Y828891D01*
X468796Y829500D01*
D02*
G37*
G36*
X521000Y947000D02*
X497000D01*
Y946420D01*
X497818Y943368D01*
X499398Y940632D01*
X501632Y938398D01*
X504368Y936818D01*
X506833Y936157D01*
Y934843D01*
X504368Y934182D01*
X501632Y932602D01*
X499398Y930368D01*
X497818Y927632D01*
X497000Y924580D01*
Y921420D01*
X497818Y918368D01*
X499398Y915632D01*
X501632Y913398D01*
X504368Y911818D01*
X506833Y911157D01*
Y909843D01*
X504368Y909182D01*
X501632Y907602D01*
X499398Y905368D01*
X497818Y902632D01*
X497000Y899580D01*
Y896420D01*
X497818Y893368D01*
X499398Y890632D01*
X501632Y888398D01*
X504368Y886818D01*
X506833Y886157D01*
Y884843D01*
X504368Y884182D01*
X501632Y882602D01*
X499398Y880368D01*
X497818Y877632D01*
X497000Y874580D01*
Y871420D01*
X497818Y868368D01*
X499398Y865632D01*
X501632Y863398D01*
X504368Y861818D01*
X506833Y861157D01*
Y859843D01*
X504368Y859182D01*
X501632Y857602D01*
X499398Y855368D01*
X497818Y852632D01*
X497000Y849580D01*
Y846420D01*
X497818Y843368D01*
X499398Y840632D01*
X501632Y838398D01*
X504368Y836818D01*
X506833Y836157D01*
Y834843D01*
X504368Y834182D01*
X501632Y832602D01*
X499398Y830368D01*
X497818Y827632D01*
X497000Y824580D01*
Y821420D01*
X497818Y818368D01*
X499398Y815632D01*
X501632Y813398D01*
X504368Y811818D01*
X507420Y811000D01*
X510580D01*
X513632Y811818D01*
X516368Y813398D01*
X518602Y815632D01*
X520182Y818368D01*
X521000Y821420D01*
Y824580D01*
X520182Y827632D01*
X518602Y830368D01*
X516368Y832602D01*
X513632Y834182D01*
X511167Y834843D01*
Y836157D01*
X513632Y836818D01*
X516368Y838398D01*
X518602Y840632D01*
X520182Y843368D01*
X521000Y846420D01*
Y849580D01*
X520182Y852632D01*
X518602Y855368D01*
X516368Y857602D01*
X513632Y859182D01*
X511167Y859843D01*
Y861157D01*
X513632Y861818D01*
X516368Y863398D01*
X518602Y865632D01*
X520182Y868368D01*
X521000Y871420D01*
Y874580D01*
X520182Y877632D01*
X518602Y880368D01*
X516368Y882602D01*
X513632Y884182D01*
X511167Y884843D01*
Y886157D01*
X513632Y886818D01*
X516368Y888398D01*
X518602Y890632D01*
X520182Y893368D01*
X521000Y896420D01*
Y899580D01*
X520182Y902632D01*
X518602Y905368D01*
X516368Y907602D01*
X513632Y909182D01*
X511167Y909843D01*
Y911157D01*
X513632Y911818D01*
X516368Y913398D01*
X518602Y915632D01*
X520182Y918368D01*
X521000Y921420D01*
Y924580D01*
X520182Y927632D01*
X518602Y930368D01*
X516368Y932602D01*
X513632Y934182D01*
X511167Y934843D01*
Y936157D01*
X513632Y936818D01*
X516368Y938398D01*
X518602Y940632D01*
X520182Y943368D01*
X521000Y946420D01*
Y947000D01*
D02*
G37*
G36*
X339500Y810809D02*
X337500D01*
Y804750D01*
X342559D01*
Y807750D01*
X342326Y808921D01*
X341663Y809913D01*
X340671Y810576D01*
X339500Y810809D01*
D02*
G37*
G36*
X335500D02*
X333500D01*
X332329Y810576D01*
X331337Y809913D01*
X330674Y808921D01*
X330441Y807750D01*
Y804750D01*
X335500D01*
Y810809D01*
D02*
G37*
G36*
X342559Y802750D02*
X337500D01*
Y796691D01*
X339500D01*
X340671Y796924D01*
X341663Y797587D01*
X342326Y798579D01*
X342559Y799750D01*
Y802750D01*
D02*
G37*
G36*
X335500D02*
X330441D01*
Y799750D01*
X330674Y798579D01*
X331337Y797587D01*
X332329Y796924D01*
X333500Y796691D01*
X335500D01*
Y802750D01*
D02*
G37*
G36*
X410500Y747059D02*
X408500D01*
Y741000D01*
X413559D01*
Y744000D01*
X413326Y745171D01*
X412663Y746163D01*
X411670Y746826D01*
X410500Y747059D01*
D02*
G37*
G36*
X406500D02*
X404500D01*
X403330Y746826D01*
X402337Y746163D01*
X401674Y745171D01*
X401441Y744000D01*
Y741000D01*
X406500D01*
Y747059D01*
D02*
G37*
G36*
X413559Y739000D02*
X408500D01*
Y732941D01*
X410500D01*
X411670Y733174D01*
X412663Y733837D01*
X413326Y734829D01*
X413559Y736000D01*
Y739000D01*
D02*
G37*
G36*
X406500D02*
X401441D01*
Y736000D01*
X401674Y734829D01*
X402337Y733837D01*
X403330Y733174D01*
X404500Y732941D01*
X406500D01*
Y739000D01*
D02*
G37*
G36*
X350500Y734059D02*
X348500D01*
Y728000D01*
X353559D01*
Y731000D01*
X353326Y732170D01*
X352663Y733163D01*
X351670Y733826D01*
X350500Y734059D01*
D02*
G37*
G36*
X346500D02*
X344500D01*
X343330Y733826D01*
X342337Y733163D01*
X341674Y732170D01*
X341441Y731000D01*
Y728000D01*
X346500D01*
Y734059D01*
D02*
G37*
G36*
X353559Y726000D02*
X348500D01*
Y719941D01*
X350500D01*
X351670Y720174D01*
X352663Y720837D01*
X353326Y721830D01*
X353559Y723000D01*
Y726000D01*
D02*
G37*
G36*
X346500D02*
X341441D01*
Y723000D01*
X341674Y721830D01*
X342337Y720837D01*
X343330Y720174D01*
X344500Y719941D01*
X346500D01*
Y726000D01*
D02*
G37*
G36*
X348250Y711554D02*
X346750D01*
X345677Y711340D01*
X345000Y710888D01*
X344323Y711340D01*
X343500Y711504D01*
Y703500D01*
Y695496D01*
X344323Y695660D01*
X345000Y696112D01*
X345677Y695660D01*
X346750Y695446D01*
X348250D01*
X349323Y695660D01*
X350233Y696267D01*
X350840Y697177D01*
X350939Y697671D01*
X352196Y698525D01*
X352256Y698500D01*
X354245D01*
X356082Y699261D01*
X357489Y700668D01*
X358250Y702505D01*
Y704495D01*
X357489Y706332D01*
X356082Y707739D01*
X354245Y708500D01*
X352256D01*
X352196Y708475D01*
X350939Y709329D01*
X350840Y709823D01*
X350233Y710733D01*
X349323Y711340D01*
X348250Y711554D01*
D02*
G37*
G36*
X216796Y708500D02*
X215204D01*
X213734Y707891D01*
X212609Y706766D01*
X212000Y705296D01*
Y703704D01*
X212609Y702234D01*
X213734Y701109D01*
X215204Y700500D01*
X216796D01*
X218266Y701109D01*
X219391Y702234D01*
X220000Y703704D01*
Y705296D01*
X219391Y706766D01*
X218266Y707891D01*
X216796Y708500D01*
D02*
G37*
G36*
X426000Y699000D02*
X421500D01*
Y693500D01*
X426000D01*
Y699000D01*
D02*
G37*
G36*
X419500D02*
X415000D01*
Y693500D01*
X419500D01*
Y699000D01*
D02*
G37*
G36*
X444500Y698500D02*
X439500D01*
Y693000D01*
X444500D01*
Y698500D01*
D02*
G37*
G36*
X437500D02*
X432500D01*
Y693000D01*
X437500D01*
Y698500D01*
D02*
G37*
G36*
X291796Y692500D02*
X290204D01*
X288734Y691891D01*
X288402Y691559D01*
X284244D01*
X283823Y691840D01*
X282750Y692054D01*
X272250D01*
X271177Y691840D01*
X270267Y691233D01*
X269660Y690323D01*
X269446Y689250D01*
Y687750D01*
X269660Y686677D01*
X270112Y686000D01*
X269660Y685323D01*
X269496Y684500D01*
X277500D01*
Y682500D01*
X269496D01*
X269660Y681677D01*
X270112Y681000D01*
X269660Y680323D01*
X269446Y679250D01*
Y678605D01*
X268875Y677635D01*
X268201Y677500D01*
X267204D01*
X265734Y676891D01*
X264609Y675766D01*
X264000Y674296D01*
Y672704D01*
X264609Y671234D01*
X265734Y670109D01*
X267204Y669500D01*
X268201D01*
X268875Y669365D01*
X269446Y668395D01*
Y667750D01*
X269660Y666677D01*
X270112Y666000D01*
X269660Y665323D01*
X269446Y664250D01*
Y662750D01*
X269660Y661677D01*
X270112Y661000D01*
X269660Y660323D01*
X269446Y659250D01*
Y657750D01*
X269660Y656677D01*
X270112Y656000D01*
X269660Y655323D01*
X269446Y654250D01*
Y652750D01*
X269660Y651677D01*
X270112Y651000D01*
X269660Y650323D01*
X269446Y649250D01*
Y647750D01*
X269660Y646677D01*
X270112Y646000D01*
X269660Y645323D01*
X269446Y644250D01*
Y642750D01*
X269660Y641677D01*
X270112Y641000D01*
X269660Y640323D01*
X269446Y639250D01*
Y637750D01*
X269660Y636677D01*
X270112Y636000D01*
X269660Y635323D01*
X269446Y634250D01*
Y632750D01*
X269660Y631677D01*
X270267Y630767D01*
X271177Y630160D01*
X272250Y629946D01*
X282750D01*
X283823Y630160D01*
X284733Y630767D01*
X285340Y631677D01*
X285554Y632750D01*
Y634250D01*
X285340Y635323D01*
X284888Y636000D01*
X285340Y636677D01*
X285554Y637750D01*
Y639250D01*
X285340Y640323D01*
X284888Y641000D01*
X285340Y641677D01*
X285554Y642750D01*
Y644250D01*
X285340Y645323D01*
X284888Y646000D01*
X285340Y646677D01*
X285554Y647750D01*
Y649250D01*
X285340Y650323D01*
X284888Y651000D01*
X285340Y651677D01*
X285554Y652750D01*
Y654250D01*
X285340Y655323D01*
X284888Y656000D01*
X285340Y656677D01*
X285554Y657750D01*
Y659250D01*
X285340Y660323D01*
X284888Y661000D01*
X285340Y661677D01*
X285554Y662750D01*
Y664250D01*
X285340Y665323D01*
X284888Y666000D01*
X285340Y666677D01*
X285554Y667750D01*
Y669250D01*
X285340Y670323D01*
X284888Y671000D01*
X285340Y671677D01*
X285554Y672750D01*
Y674250D01*
X285759Y674500D01*
X286796D01*
X288266Y675109D01*
X289391Y676234D01*
X290000Y677704D01*
Y679296D01*
X289391Y680766D01*
X288266Y681891D01*
X286796Y682500D01*
X285759D01*
X285554Y682750D01*
Y684250D01*
X286612Y685441D01*
X288402D01*
X288734Y685109D01*
X290204Y684500D01*
X291796D01*
X293266Y685109D01*
X294391Y686234D01*
X295000Y687704D01*
Y689296D01*
X294391Y690766D01*
X293266Y691891D01*
X291796Y692500D01*
D02*
G37*
G36*
X237995Y700000D02*
X236005D01*
X234168Y699239D01*
X232761Y697832D01*
X232000Y695995D01*
Y694005D01*
X232761Y692168D01*
X234168Y690761D01*
X236005Y690000D01*
X237995D01*
X239832Y690761D01*
X241239Y692168D01*
X242000Y694005D01*
Y695995D01*
X241239Y697832D01*
X239832Y699239D01*
X237995Y700000D01*
D02*
G37*
G36*
X216796Y689000D02*
X215204D01*
X213734Y688391D01*
X212609Y687266D01*
X212000Y685796D01*
Y684204D01*
X212609Y682734D01*
X213734Y681609D01*
X215204Y681000D01*
X216796D01*
X218266Y681609D01*
X219391Y682734D01*
X220000Y684204D01*
Y685796D01*
X219391Y687266D01*
X218266Y688391D01*
X216796Y689000D01*
D02*
G37*
G36*
X529500Y669612D02*
Y664500D01*
X534612D01*
X534455Y665088D01*
X533402Y666912D01*
X531912Y668402D01*
X530088Y669455D01*
X529500Y669612D01*
D02*
G37*
G36*
X524500D02*
X523912Y669455D01*
X522088Y668402D01*
X520598Y666912D01*
X519545Y665088D01*
X519388Y664500D01*
X524500D01*
Y669612D01*
D02*
G37*
G36*
X428559Y675000D02*
X416441D01*
Y672000D01*
X416674Y670829D01*
X417337Y669837D01*
X418330Y669174D01*
X418463Y669147D01*
Y667853D01*
X418330Y667826D01*
X417337Y667163D01*
X416674Y666171D01*
X416441Y665000D01*
Y662000D01*
X422500D01*
X428559D01*
Y665000D01*
X428326Y666171D01*
X427663Y667163D01*
X426670Y667826D01*
X426537Y667852D01*
Y669147D01*
X426670Y669174D01*
X427663Y669837D01*
X428326Y670829D01*
X428559Y672000D01*
Y675000D01*
D02*
G37*
G36*
X216796Y662500D02*
X215204D01*
X213734Y661891D01*
X212609Y660766D01*
X212000Y659296D01*
Y657704D01*
X212609Y656234D01*
X213734Y655109D01*
X215204Y654500D01*
X216796D01*
X218266Y655109D01*
X219391Y656234D01*
X220000Y657704D01*
Y659296D01*
X219391Y660766D01*
X218266Y661891D01*
X216796Y662500D01*
D02*
G37*
G36*
X534612Y659500D02*
X529500D01*
Y654388D01*
X530088Y654545D01*
X531912Y655598D01*
X533402Y657088D01*
X534455Y658912D01*
X534612Y659500D01*
D02*
G37*
G36*
X524500D02*
X519388D01*
X519545Y658912D01*
X520598Y657088D01*
X522088Y655598D01*
X523912Y654545D01*
X524500Y654388D01*
Y659500D01*
D02*
G37*
G36*
X508119Y670500D02*
X505881D01*
X503719Y669921D01*
X501781Y668802D01*
X500198Y667219D01*
X499079Y665281D01*
X498500Y663119D01*
Y660881D01*
X499079Y658719D01*
X500198Y656781D01*
X501781Y655198D01*
X503719Y654079D01*
X505881Y653500D01*
X508119D01*
X510281Y654079D01*
X512219Y655198D01*
X513802Y656781D01*
X514921Y658719D01*
X515500Y660881D01*
Y663119D01*
X514921Y665281D01*
X513802Y667219D01*
X512219Y668802D01*
X510281Y669921D01*
X508119Y670500D01*
D02*
G37*
G36*
X428559Y660000D02*
X422500D01*
X416441D01*
Y657000D01*
X416674Y655829D01*
X417337Y654837D01*
X418330Y654174D01*
X418463Y654147D01*
Y652852D01*
X418330Y652826D01*
X417337Y652163D01*
X416674Y651171D01*
X416441Y650000D01*
Y647000D01*
X422500D01*
X428559D01*
Y650000D01*
X428326Y651171D01*
X427663Y652163D01*
X426670Y652826D01*
X426537Y652853D01*
Y654147D01*
X426670Y654174D01*
X427663Y654837D01*
X428326Y655829D01*
X428559Y657000D01*
Y660000D01*
D02*
G37*
G36*
X237995Y654000D02*
X236005D01*
X234168Y653239D01*
X232761Y651832D01*
X232000Y649995D01*
Y648005D01*
X232761Y646168D01*
X234168Y644761D01*
X236005Y644000D01*
X237995D01*
X239832Y644761D01*
X241239Y646168D01*
X242000Y648005D01*
Y649995D01*
X241239Y651832D01*
X239832Y653239D01*
X237995Y654000D01*
D02*
G37*
G36*
X428559Y645000D02*
X423500D01*
Y638941D01*
X425500D01*
X426670Y639174D01*
X427663Y639837D01*
X428326Y640829D01*
X428559Y642000D01*
Y645000D01*
D02*
G37*
G36*
X421500D02*
X416441D01*
Y642000D01*
X416674Y640829D01*
X417337Y639837D01*
X418330Y639174D01*
X419500Y638941D01*
X421500D01*
Y645000D01*
D02*
G37*
G36*
X216796Y643500D02*
X215204D01*
X213734Y642891D01*
X212609Y641766D01*
X212000Y640296D01*
Y638704D01*
X212609Y637234D01*
X213734Y636109D01*
X215204Y635500D01*
X216796D01*
X218266Y636109D01*
X219391Y637234D01*
X220000Y638704D01*
Y640296D01*
X219391Y641766D01*
X218266Y642891D01*
X216796Y643500D01*
D02*
G37*
G36*
X484796Y642250D02*
X483204D01*
X481734Y641641D01*
X480609Y640516D01*
X480000Y639046D01*
Y637454D01*
X480609Y635984D01*
X481734Y634859D01*
X483204Y634250D01*
X484796D01*
X486266Y634859D01*
X487391Y635984D01*
X488000Y637454D01*
Y639046D01*
X487391Y640516D01*
X486266Y641641D01*
X484796Y642250D01*
D02*
G37*
G36*
X348796Y638000D02*
X347204D01*
X345734Y637391D01*
X344609Y636266D01*
X344000Y634796D01*
Y633204D01*
X344609Y631734D01*
X345734Y630609D01*
X347204Y630000D01*
X348796D01*
X350266Y630609D01*
X351391Y631734D01*
X352000Y633204D01*
Y634796D01*
X351391Y636266D01*
X350266Y637391D01*
X348796Y638000D01*
D02*
G37*
G36*
X210796Y634000D02*
X209204D01*
X207734Y633391D01*
X206609Y632266D01*
X206000Y630796D01*
Y629204D01*
X206609Y627734D01*
X207734Y626609D01*
X209204Y626000D01*
X210796D01*
X212266Y626609D01*
X213391Y627734D01*
X214000Y629204D01*
Y630796D01*
X213391Y632266D01*
X212266Y633391D01*
X210796Y634000D01*
D02*
G37*
G36*
X307796Y632000D02*
X306204D01*
X304734Y631391D01*
X303609Y630266D01*
X303000Y628796D01*
Y627701D01*
X303000Y627204D01*
X301895Y626554D01*
X301750D01*
X300677Y626340D01*
X300000Y625888D01*
X299323Y626340D01*
X298250Y626554D01*
X297485D01*
X297050Y627204D01*
Y628796D01*
X296441Y630266D01*
X295316Y631391D01*
X293846Y632000D01*
X292254D01*
X290784Y631391D01*
X289659Y630266D01*
X289050Y628796D01*
Y627204D01*
X289659Y625734D01*
X289725Y625669D01*
X289160Y624823D01*
X288946Y623750D01*
Y613250D01*
X289160Y612177D01*
X289441Y611755D01*
Y608047D01*
X288330Y607826D01*
X287337Y607163D01*
X286674Y606171D01*
X286441Y605000D01*
Y597000D01*
X286674Y595830D01*
X287337Y594837D01*
X288330Y594174D01*
X288931Y594054D01*
Y592337D01*
X288500Y591296D01*
Y589704D01*
X289109Y588234D01*
X290234Y587109D01*
X291704Y586500D01*
X293296D01*
X294766Y587109D01*
X295891Y588234D01*
X296500Y589704D01*
Y591296D01*
X296069Y592337D01*
Y594054D01*
X296670Y594174D01*
X297663Y594837D01*
X298326Y595830D01*
X298559Y597000D01*
Y605000D01*
X298326Y606171D01*
X297663Y607163D01*
X296670Y607826D01*
X295559Y608047D01*
Y609388D01*
X296500Y610224D01*
Y618500D01*
X298500D01*
Y610496D01*
X299323Y610660D01*
X300000Y611112D01*
X300677Y610660D01*
X301750Y610446D01*
X303250D01*
X304323Y610660D01*
X305000Y611112D01*
X305677Y610660D01*
X306750Y610446D01*
X308250D01*
X309323Y610660D01*
X310000Y611112D01*
X310677Y610660D01*
X311750Y610446D01*
X313250D01*
X314323Y610660D01*
X315000Y611112D01*
X315677Y610660D01*
X316500Y610496D01*
Y618500D01*
X318500D01*
Y610224D01*
X319441Y609388D01*
Y602500D01*
X319441Y602500D01*
X319674Y601329D01*
X320337Y600337D01*
X342009Y578665D01*
X343001Y578002D01*
X344172Y577769D01*
X392842D01*
X398837Y571775D01*
X398837Y571775D01*
X399829Y571112D01*
X401000Y570879D01*
X406027D01*
X406359Y570546D01*
X407829Y569938D01*
X409421D01*
X410711Y570472D01*
X410715Y570465D01*
X411563Y569899D01*
X412562Y569700D01*
X415938D01*
X416937Y569899D01*
X417785Y570465D01*
X418351Y571313D01*
X418353Y571319D01*
X419647D01*
X419649Y571313D01*
X420215Y570465D01*
X421063Y569899D01*
X422063Y569700D01*
X422750D01*
Y574000D01*
X423750D01*
Y575000D01*
X428050D01*
Y575687D01*
X427851Y576687D01*
X427672Y576956D01*
X427859Y577236D01*
X428048Y578187D01*
Y578500D01*
X423750D01*
Y580500D01*
X428048D01*
Y580812D01*
X427859Y581763D01*
X427701Y582000D01*
X427859Y582237D01*
X428048Y583187D01*
Y583500D01*
X423750D01*
Y585500D01*
X428048D01*
Y585812D01*
X427859Y586763D01*
X427672Y587044D01*
X427851Y587313D01*
X428050Y588312D01*
Y589000D01*
X423750D01*
Y590000D01*
X422750D01*
Y594300D01*
X422063D01*
X421063Y594101D01*
X420215Y593535D01*
X419649Y592687D01*
X419647Y592681D01*
X418353D01*
X418351Y592687D01*
X417785Y593535D01*
X416937Y594101D01*
X415938Y594300D01*
X413000D01*
Y595796D01*
X412391Y597266D01*
X411760Y597897D01*
X411735Y598256D01*
X411966Y599371D01*
X412663Y599837D01*
X413326Y600830D01*
X413559Y602000D01*
Y608316D01*
X414266Y608609D01*
X415171Y609514D01*
X416207Y609261D01*
X416441Y609125D01*
Y607000D01*
X421500D01*
Y613059D01*
X419500D01*
X418330Y612826D01*
X417337Y612163D01*
X417270Y612062D01*
X416000Y612448D01*
Y612796D01*
X415391Y614266D01*
X414266Y615391D01*
X412796Y616000D01*
X411204D01*
X409734Y615391D01*
X408609Y614266D01*
X408109Y613059D01*
X404500D01*
X403330Y612826D01*
X402337Y612163D01*
X401674Y611171D01*
X401441Y610000D01*
Y607000D01*
X401441Y607000D01*
Y603267D01*
X400233Y602059D01*
X381236D01*
X381046Y603250D01*
X382516Y603859D01*
X383641Y604984D01*
X384250Y606454D01*
Y608046D01*
X383641Y609516D01*
X382516Y610641D01*
X381046Y611250D01*
X379454D01*
X377984Y610641D01*
X376859Y609516D01*
X376250Y608046D01*
Y606454D01*
X376859Y604984D01*
X377984Y603859D01*
X379454Y603250D01*
X379264Y602059D01*
X352217D01*
X350559Y603717D01*
Y611755D01*
X350840Y612177D01*
X351054Y613250D01*
Y623750D01*
X350840Y624823D01*
X350233Y625733D01*
X349323Y626340D01*
X348250Y626554D01*
X346750D01*
X345677Y626340D01*
X345000Y625888D01*
X344323Y626340D01*
X343250Y626554D01*
X341750D01*
X340677Y626340D01*
X340000Y625888D01*
X339323Y626340D01*
X338250Y626554D01*
X336750D01*
X335677Y626340D01*
X335000Y625888D01*
X334323Y626340D01*
X333250Y626554D01*
X331750D01*
X330677Y626340D01*
X330000Y625888D01*
X329323Y626340D01*
X328250Y626554D01*
X326750D01*
X325677Y626340D01*
X325000Y625888D01*
X324323Y626340D01*
X323250Y626554D01*
X321750D01*
X320677Y626340D01*
X320000Y625888D01*
X319323Y626340D01*
X318250Y626554D01*
X318105D01*
X317000Y627204D01*
X317000Y627701D01*
Y628796D01*
X316391Y630266D01*
X315266Y631391D01*
X313796Y632000D01*
X312204D01*
X310734Y631391D01*
X310000Y630657D01*
X309266Y631391D01*
X307796Y632000D01*
D02*
G37*
G36*
X255746Y631950D02*
X254154D01*
X252684Y631341D01*
X251559Y630216D01*
X250950Y628746D01*
Y627154D01*
X251559Y625684D01*
X252684Y624559D01*
X254154Y623950D01*
X255746D01*
X257216Y624559D01*
X258341Y625684D01*
X258950Y627154D01*
Y628746D01*
X258341Y630216D01*
X257216Y631341D01*
X255746Y631950D01*
D02*
G37*
G36*
X532750Y628033D02*
X528500D01*
Y619250D01*
X537083D01*
Y623700D01*
X536753Y625358D01*
X535814Y626764D01*
X534408Y627703D01*
X532750Y628033D01*
D02*
G37*
G36*
X523500D02*
X519250D01*
X517592Y627703D01*
X516186Y626764D01*
X515247Y625358D01*
X514917Y623700D01*
Y619250D01*
X523500D01*
Y628033D01*
D02*
G37*
G36*
X425500Y613059D02*
X423500D01*
Y607000D01*
X428559D01*
Y610000D01*
X428326Y611171D01*
X427663Y612163D01*
X426670Y612826D01*
X425500Y613059D01*
D02*
G37*
G36*
X537083Y614250D02*
X528500D01*
Y605467D01*
X532750D01*
X534408Y605797D01*
X535814Y606736D01*
X536753Y608142D01*
X537083Y609800D01*
Y614250D01*
D02*
G37*
G36*
X523500D02*
X514917D01*
Y609800D01*
X515247Y608142D01*
X516186Y606736D01*
X517592Y605797D01*
X519250Y605467D01*
X523500D01*
Y614250D01*
D02*
G37*
G36*
X502750Y628033D02*
X489250D01*
X487592Y627703D01*
X486186Y626764D01*
X485247Y625358D01*
X484917Y623700D01*
Y609800D01*
X485247Y608142D01*
X486186Y606736D01*
X487592Y605797D01*
X489250Y605467D01*
X502750D01*
X504408Y605797D01*
X505814Y606736D01*
X506753Y608142D01*
X507083Y609800D01*
Y623700D01*
X506753Y625358D01*
X505814Y626764D01*
X504408Y627703D01*
X502750Y628033D01*
D02*
G37*
G36*
X280500Y608059D02*
X278500D01*
Y602000D01*
X283559D01*
Y605000D01*
X283326Y606171D01*
X282663Y607163D01*
X281670Y607826D01*
X280500Y608059D01*
D02*
G37*
G36*
X276500D02*
X274500D01*
X273330Y607826D01*
X272337Y607163D01*
X271674Y606171D01*
X271441Y605000D01*
Y602000D01*
X276500D01*
Y608059D01*
D02*
G37*
G36*
X428559Y605000D02*
X423500D01*
Y598941D01*
X425500D01*
X426670Y599174D01*
X427663Y599837D01*
X428326Y600830D01*
X428559Y602000D01*
Y605000D01*
D02*
G37*
G36*
X421500D02*
X416441D01*
Y602000D01*
X416674Y600830D01*
X417337Y599837D01*
X418330Y599174D01*
X419500Y598941D01*
X421500D01*
Y605000D01*
D02*
G37*
G36*
X283559Y600000D02*
X278500D01*
Y593941D01*
X280500D01*
X281670Y594174D01*
X282663Y594837D01*
X283326Y595830D01*
X283559Y597000D01*
Y600000D01*
D02*
G37*
G36*
X276500D02*
X271441D01*
Y597000D01*
X271674Y595830D01*
X272337Y594837D01*
X273330Y594174D01*
X274500Y593941D01*
X276500D01*
Y600000D01*
D02*
G37*
G36*
X425438Y594300D02*
X424750D01*
Y591000D01*
X428050D01*
Y591688D01*
X427851Y592687D01*
X427285Y593535D01*
X426437Y594101D01*
X425438Y594300D01*
D02*
G37*
G36*
X532750Y599283D02*
X528500D01*
Y590500D01*
X537083D01*
Y594950D01*
X536753Y596608D01*
X535814Y598014D01*
X534408Y598953D01*
X532750Y599283D01*
D02*
G37*
G36*
X523500D02*
X519250D01*
X517592Y598953D01*
X516186Y598014D01*
X515247Y596608D01*
X514917Y594950D01*
Y590500D01*
X523500D01*
Y599283D01*
D02*
G37*
G36*
X176580Y719000D02*
X173420D01*
X170368Y718182D01*
X167632Y716602D01*
X165398Y714368D01*
X163818Y711632D01*
X163000Y708580D01*
Y705420D01*
X163818Y702368D01*
X165398Y699632D01*
X167632Y697398D01*
X170368Y695818D01*
X172833Y695157D01*
Y693843D01*
X170368Y693182D01*
X167632Y691602D01*
X165398Y689368D01*
X163818Y686632D01*
X163000Y683580D01*
Y680420D01*
X163818Y677368D01*
X165398Y674632D01*
X167632Y672398D01*
X170368Y670818D01*
X172833Y670157D01*
Y668843D01*
X170368Y668182D01*
X167632Y666602D01*
X165398Y664368D01*
X163818Y661632D01*
X163000Y658580D01*
Y655420D01*
X163818Y652368D01*
X165398Y649632D01*
X167632Y647398D01*
X170368Y645818D01*
X172833Y645157D01*
Y643843D01*
X170368Y643182D01*
X167632Y641602D01*
X165398Y639368D01*
X163818Y636632D01*
X163000Y633580D01*
Y630420D01*
X163818Y627368D01*
X165398Y624632D01*
X167632Y622398D01*
X170368Y620818D01*
X172833Y620157D01*
Y618843D01*
X170368Y618182D01*
X167632Y616602D01*
X165398Y614368D01*
X163818Y611632D01*
X163000Y608580D01*
Y605420D01*
X163818Y602368D01*
X165398Y599632D01*
X167632Y597398D01*
X170368Y595818D01*
X172833Y595157D01*
Y593843D01*
X170368Y593182D01*
X167632Y591602D01*
X165398Y589368D01*
X163818Y586632D01*
X163000Y583580D01*
Y583000D01*
X175000D01*
X187000D01*
Y583580D01*
X186182Y586632D01*
X184602Y589368D01*
X182368Y591602D01*
X179632Y593182D01*
X177167Y593843D01*
Y595157D01*
X179632Y595818D01*
X182368Y597398D01*
X184602Y599632D01*
X186182Y602368D01*
X187000Y605420D01*
Y608580D01*
X186182Y611632D01*
X184602Y614368D01*
X182368Y616602D01*
X179632Y618182D01*
X177167Y618843D01*
Y620157D01*
X179632Y620818D01*
X182368Y622398D01*
X184602Y624632D01*
X186182Y627368D01*
X187000Y630420D01*
Y633580D01*
X186182Y636632D01*
X184602Y639368D01*
X182368Y641602D01*
X179632Y643182D01*
X177167Y643843D01*
Y645157D01*
X179632Y645818D01*
X182368Y647398D01*
X184602Y649632D01*
X186182Y652368D01*
X187000Y655420D01*
Y658580D01*
X186182Y661632D01*
X184602Y664368D01*
X182368Y666602D01*
X179632Y668182D01*
X177167Y668843D01*
Y670157D01*
X179632Y670818D01*
X182368Y672398D01*
X184602Y674632D01*
X186182Y677368D01*
X187000Y680420D01*
Y683580D01*
X186182Y686632D01*
X184602Y689368D01*
X182368Y691602D01*
X179632Y693182D01*
X177167Y693843D01*
Y695157D01*
X179632Y695818D01*
X182368Y697398D01*
X184602Y699632D01*
X186182Y702368D01*
X187000Y705420D01*
Y708580D01*
X186182Y711632D01*
X184602Y714368D01*
X182368Y716602D01*
X179632Y718182D01*
X176580Y719000D01*
D02*
G37*
G36*
X537083Y585500D02*
X528500D01*
Y576717D01*
X532750D01*
X534408Y577047D01*
X535814Y577986D01*
X536753Y579392D01*
X537083Y581050D01*
Y585500D01*
D02*
G37*
G36*
X523500D02*
X514917D01*
Y581050D01*
X515247Y579392D01*
X516186Y577986D01*
X517592Y577047D01*
X519250Y576717D01*
X523500D01*
Y585500D01*
D02*
G37*
G36*
X502750Y599283D02*
X489250D01*
X487592Y598953D01*
X486186Y598014D01*
X485247Y596608D01*
X484917Y594950D01*
Y581050D01*
X485247Y579392D01*
X486186Y577986D01*
X487592Y577047D01*
X489250Y576717D01*
X502750D01*
X504408Y577047D01*
X505814Y577986D01*
X506753Y579392D01*
X507083Y581050D01*
Y594950D01*
X506753Y596608D01*
X505814Y598014D01*
X504408Y598953D01*
X502750Y599283D01*
D02*
G37*
G36*
X187000Y581000D02*
X176000D01*
Y570000D01*
X176580D01*
X179632Y570818D01*
X182368Y572398D01*
X184602Y574632D01*
X186182Y577368D01*
X187000Y580420D01*
Y581000D01*
D02*
G37*
G36*
X174000D02*
X163000D01*
Y580420D01*
X163818Y577368D01*
X165398Y574632D01*
X167632Y572398D01*
X170368Y570818D01*
X173420Y570000D01*
X174000D01*
Y581000D01*
D02*
G37*
G36*
X428050Y573000D02*
X424750D01*
Y569700D01*
X425438D01*
X426437Y569899D01*
X427285Y570465D01*
X427851Y571313D01*
X428050Y572313D01*
Y573000D01*
D02*
G37*
G36*
X348546Y557000D02*
X346954D01*
X345484Y556391D01*
X344359Y555266D01*
X343750Y553796D01*
Y552204D01*
X343797Y552092D01*
X342921Y551267D01*
X342795Y551192D01*
X339780Y552000D01*
X336620D01*
X333568Y551182D01*
X330832Y549602D01*
X328598Y547368D01*
X327018Y544632D01*
X326200Y541580D01*
Y538420D01*
X327018Y535368D01*
X328598Y532632D01*
X330832Y530398D01*
X333568Y528818D01*
X336620Y528000D01*
X339780D01*
X342832Y528818D01*
X345568Y530398D01*
X347802Y532632D01*
X349382Y535368D01*
X350200Y538420D01*
Y541580D01*
X349382Y544632D01*
X347802Y547368D01*
X347441Y547730D01*
X347967Y549000D01*
X348546D01*
X350016Y549609D01*
X351141Y550734D01*
X351750Y552204D01*
Y553796D01*
X351141Y555266D01*
X350016Y556391D01*
X348546Y557000D01*
D02*
G37*
G36*
X466846Y552500D02*
X463554D01*
X460375Y551648D01*
X457525Y550003D01*
X455197Y547675D01*
X453552Y544825D01*
X452899Y542387D01*
X451584D01*
X450982Y544632D01*
X449402Y547368D01*
X447168Y549602D01*
X444432Y551182D01*
X441380Y552000D01*
X438220D01*
X435168Y551182D01*
X432432Y549602D01*
X430198Y547368D01*
X428618Y544632D01*
X427800Y541580D01*
Y538420D01*
X428618Y535368D01*
X430198Y532632D01*
X432432Y530398D01*
X435168Y528818D01*
X438220Y528000D01*
X441380D01*
X444432Y528818D01*
X447168Y530398D01*
X449402Y532632D01*
X450982Y535368D01*
X451584Y537613D01*
X452899D01*
X453552Y535175D01*
X455197Y532325D01*
X457525Y529997D01*
X460375Y528352D01*
X461847Y527957D01*
Y526643D01*
X460375Y526248D01*
X457525Y524603D01*
X455197Y522275D01*
X453552Y519425D01*
X452899Y516987D01*
X451584D01*
X450982Y519232D01*
X449402Y521968D01*
X447168Y524202D01*
X444432Y525782D01*
X441380Y526600D01*
X438220D01*
X435168Y525782D01*
X432432Y524202D01*
X430198Y521968D01*
X428618Y519232D01*
X427800Y516180D01*
Y513020D01*
X428618Y509968D01*
X430198Y507232D01*
X432432Y504998D01*
X435168Y503418D01*
X438220Y502600D01*
X441380D01*
X444432Y503418D01*
X447168Y504998D01*
X449402Y507232D01*
X450982Y509968D01*
X451584Y512213D01*
X452899D01*
X453552Y509775D01*
X455197Y506925D01*
X457525Y504598D01*
X460375Y502952D01*
X463554Y502100D01*
X466846D01*
X470025Y502952D01*
X472875Y504598D01*
X475202Y506925D01*
X476848Y509775D01*
X477700Y512954D01*
Y516246D01*
X476848Y519425D01*
X475202Y522275D01*
X472875Y524603D01*
X470025Y526248D01*
X468553Y526643D01*
Y527957D01*
X470025Y528352D01*
X472875Y529997D01*
X475202Y532325D01*
X476848Y535175D01*
X477700Y538354D01*
Y541646D01*
X476848Y544825D01*
X475202Y547675D01*
X472875Y550003D01*
X470025Y551648D01*
X466846Y552500D01*
D02*
G37*
G36*
X518119Y552500D02*
X515881D01*
X513719Y551921D01*
X511781Y550802D01*
X510198Y549219D01*
X509079Y547281D01*
X508500Y545119D01*
Y542881D01*
X509079Y540719D01*
X510198Y538781D01*
X511781Y537198D01*
X513719Y536079D01*
X515881Y535500D01*
X518119D01*
X520281Y536079D01*
X522219Y537198D01*
X523802Y538781D01*
X524921Y540719D01*
X525500Y542881D01*
Y545119D01*
X524921Y547281D01*
X523802Y549219D01*
X522219Y550802D01*
X520281Y551921D01*
X518119Y552500D01*
D02*
G37*
G36*
X415980Y552000D02*
X412820D01*
X409768Y551182D01*
X407032Y549602D01*
X404798Y547368D01*
X403218Y544632D01*
X402400Y541580D01*
Y538420D01*
X403218Y535368D01*
X404798Y532632D01*
X407032Y530398D01*
X409768Y528818D01*
X412820Y528000D01*
X415980D01*
X419032Y528818D01*
X421768Y530398D01*
X424002Y532632D01*
X425582Y535368D01*
X426400Y538420D01*
Y541580D01*
X425582Y544632D01*
X424002Y547368D01*
X421768Y549602D01*
X419032Y551182D01*
X415980Y552000D01*
D02*
G37*
G36*
X390580D02*
X387420D01*
X384368Y551182D01*
X381632Y549602D01*
X379398Y547368D01*
X377818Y544632D01*
X377000Y541580D01*
Y538420D01*
X377818Y535368D01*
X379398Y532632D01*
X381632Y530398D01*
X384368Y528818D01*
X387420Y528000D01*
X390580D01*
X393632Y528818D01*
X396368Y530398D01*
X398602Y532632D01*
X400182Y535368D01*
X401000Y538420D01*
Y541580D01*
X400182Y544632D01*
X398602Y547368D01*
X396368Y549602D01*
X393632Y551182D01*
X390580Y552000D01*
D02*
G37*
G36*
X365180D02*
X362020D01*
X358968Y551182D01*
X356232Y549602D01*
X353998Y547368D01*
X352418Y544632D01*
X351600Y541580D01*
Y538420D01*
X352418Y535368D01*
X353998Y532632D01*
X356232Y530398D01*
X358968Y528818D01*
X362020Y528000D01*
X365180D01*
X368232Y528818D01*
X370968Y530398D01*
X373202Y532632D01*
X374782Y535368D01*
X375600Y538420D01*
Y541580D01*
X374782Y544632D01*
X373202Y547368D01*
X370968Y549602D01*
X368232Y551182D01*
X365180Y552000D01*
D02*
G37*
G36*
X314380D02*
X311220D01*
X308168Y551182D01*
X305432Y549602D01*
X303198Y547368D01*
X301618Y544632D01*
X300800Y541580D01*
Y538420D01*
X301618Y535368D01*
X303198Y532632D01*
X305432Y530398D01*
X308168Y528818D01*
X311220Y528000D01*
X314380D01*
X317432Y528818D01*
X320168Y530398D01*
X322402Y532632D01*
X323982Y535368D01*
X324800Y538420D01*
Y541580D01*
X323982Y544632D01*
X322402Y547368D01*
X320168Y549602D01*
X317432Y551182D01*
X314380Y552000D01*
D02*
G37*
G36*
X288980D02*
X285820D01*
X282768Y551182D01*
X280032Y549602D01*
X277798Y547368D01*
X276218Y544632D01*
X275400Y541580D01*
Y538420D01*
X276218Y535368D01*
X277798Y532632D01*
X280032Y530398D01*
X282768Y528818D01*
X285820Y528000D01*
X288980D01*
X292032Y528818D01*
X294768Y530398D01*
X297002Y532632D01*
X298582Y535368D01*
X299400Y538420D01*
Y541580D01*
X298582Y544632D01*
X297002Y547368D01*
X294768Y549602D01*
X292032Y551182D01*
X288980Y552000D01*
D02*
G37*
G36*
X263580D02*
X260420D01*
X257368Y551182D01*
X254632Y549602D01*
X252398Y547368D01*
X250818Y544632D01*
X250000Y541580D01*
Y538420D01*
X250818Y535368D01*
X252398Y532632D01*
X254632Y530398D01*
X257368Y528818D01*
X260420Y528000D01*
X263580D01*
X266632Y528818D01*
X269368Y530398D01*
X271602Y532632D01*
X273182Y535368D01*
X274000Y538420D01*
Y541580D01*
X273182Y544632D01*
X271602Y547368D01*
X269368Y549602D01*
X266632Y551182D01*
X263580Y552000D01*
D02*
G37*
G36*
X519500Y531612D02*
Y526500D01*
X524612D01*
X524455Y527088D01*
X523402Y528912D01*
X521912Y530402D01*
X520088Y531455D01*
X519500Y531612D01*
D02*
G37*
G36*
X514500Y531612D02*
X513912Y531455D01*
X512088Y530402D01*
X510598Y528912D01*
X509545Y527088D01*
X509388Y526500D01*
X514500D01*
Y531612D01*
D02*
G37*
G36*
X524612Y521500D02*
X519500D01*
Y516388D01*
X520088Y516545D01*
X521912Y517598D01*
X523402Y519088D01*
X524455Y520912D01*
X524612Y521500D01*
D02*
G37*
G36*
X514500D02*
X509388D01*
X509545Y520912D01*
X510598Y519088D01*
X512088Y517598D01*
X513912Y516545D01*
X514500Y516388D01*
Y521500D01*
D02*
G37*
G36*
X415980Y526600D02*
X412820D01*
X409768Y525782D01*
X407032Y524202D01*
X404798Y521968D01*
X403218Y519232D01*
X402400Y516180D01*
Y513020D01*
X403218Y509968D01*
X404798Y507232D01*
X407032Y504998D01*
X409768Y503418D01*
X412820Y502600D01*
X415980D01*
X419032Y503418D01*
X421768Y504998D01*
X424002Y507232D01*
X425582Y509968D01*
X426400Y513020D01*
Y516180D01*
X425582Y519232D01*
X424002Y521968D01*
X421768Y524202D01*
X419032Y525782D01*
X415980Y526600D01*
D02*
G37*
G36*
X390580D02*
X387420D01*
X384368Y525782D01*
X381632Y524202D01*
X379398Y521968D01*
X377818Y519232D01*
X377000Y516180D01*
Y513020D01*
X377818Y509968D01*
X379398Y507232D01*
X381632Y504998D01*
X384368Y503418D01*
X387420Y502600D01*
X390580D01*
X393632Y503418D01*
X396368Y504998D01*
X398602Y507232D01*
X400182Y509968D01*
X401000Y513020D01*
Y516180D01*
X400182Y519232D01*
X398602Y521968D01*
X396368Y524202D01*
X393632Y525782D01*
X390580Y526600D01*
D02*
G37*
G36*
X365180D02*
X362020D01*
X358968Y525782D01*
X356232Y524202D01*
X353998Y521968D01*
X352418Y519232D01*
X351600Y516180D01*
Y513020D01*
X352418Y509968D01*
X353998Y507232D01*
X356232Y504998D01*
X358968Y503418D01*
X362020Y502600D01*
X365180D01*
X368232Y503418D01*
X370968Y504998D01*
X373202Y507232D01*
X374782Y509968D01*
X375600Y513020D01*
Y516180D01*
X374782Y519232D01*
X373202Y521968D01*
X370968Y524202D01*
X368232Y525782D01*
X365180Y526600D01*
D02*
G37*
G36*
X339780D02*
X336620D01*
X333568Y525782D01*
X330832Y524202D01*
X328598Y521968D01*
X327018Y519232D01*
X326200Y516180D01*
Y513020D01*
X327018Y509968D01*
X328598Y507232D01*
X330832Y504998D01*
X333568Y503418D01*
X336620Y502600D01*
X339780D01*
X342832Y503418D01*
X345568Y504998D01*
X347802Y507232D01*
X349382Y509968D01*
X350200Y513020D01*
Y516180D01*
X349382Y519232D01*
X347802Y521968D01*
X345568Y524202D01*
X342832Y525782D01*
X339780Y526600D01*
D02*
G37*
G36*
X314380D02*
X311220D01*
X308168Y525782D01*
X305432Y524202D01*
X303198Y521968D01*
X301618Y519232D01*
X300800Y516180D01*
Y513020D01*
X301618Y509968D01*
X303198Y507232D01*
X305432Y504998D01*
X308168Y503418D01*
X311220Y502600D01*
X314380D01*
X317432Y503418D01*
X320168Y504998D01*
X322402Y507232D01*
X323982Y509968D01*
X324800Y513020D01*
Y516180D01*
X323982Y519232D01*
X322402Y521968D01*
X320168Y524202D01*
X317432Y525782D01*
X314380Y526600D01*
D02*
G37*
G36*
X288980D02*
X285820D01*
X282768Y525782D01*
X280032Y524202D01*
X277798Y521968D01*
X276218Y519232D01*
X275400Y516180D01*
Y513020D01*
X276218Y509968D01*
X277798Y507232D01*
X280032Y504998D01*
X282768Y503418D01*
X285820Y502600D01*
X288980D01*
X292032Y503418D01*
X294768Y504998D01*
X297002Y507232D01*
X298582Y509968D01*
X299400Y513020D01*
Y516180D01*
X298582Y519232D01*
X297002Y521968D01*
X294768Y524202D01*
X292032Y525782D01*
X288980Y526600D01*
D02*
G37*
G36*
X263580D02*
X260420D01*
X257368Y525782D01*
X254632Y524202D01*
X252398Y521968D01*
X250818Y519232D01*
X250000Y516180D01*
Y513020D01*
X250818Y509968D01*
X252398Y507232D01*
X254632Y504998D01*
X257368Y503418D01*
X260420Y502600D01*
X263580D01*
X266632Y503418D01*
X269368Y504998D01*
X271602Y507232D01*
X273182Y509968D01*
X274000Y513020D01*
Y516180D01*
X273182Y519232D01*
X271602Y521968D01*
X269368Y524202D01*
X266632Y525782D01*
X263580Y526600D01*
D02*
G37*
G36*
X410500Y420059D02*
X408500D01*
Y414000D01*
X413559D01*
Y417000D01*
X413326Y418171D01*
X412663Y419163D01*
X411670Y419826D01*
X410500Y420059D01*
D02*
G37*
G36*
X406500D02*
X404500D01*
X403330Y419826D01*
X402337Y419163D01*
X401674Y418171D01*
X401441Y417000D01*
Y414000D01*
X406500D01*
Y420059D01*
D02*
G37*
G36*
X413559Y412000D02*
X408500D01*
Y405941D01*
X410500D01*
X411670Y406174D01*
X412663Y406837D01*
X413326Y407830D01*
X413559Y409000D01*
Y412000D01*
D02*
G37*
G36*
X406500D02*
X401441D01*
Y409000D01*
X401674Y407830D01*
X402337Y406837D01*
X403330Y406174D01*
X404500Y405941D01*
X406500D01*
Y412000D01*
D02*
G37*
G36*
X350500Y407059D02*
X348500D01*
Y401000D01*
X353559D01*
Y404000D01*
X353326Y405171D01*
X352663Y406163D01*
X351670Y406826D01*
X350500Y407059D01*
D02*
G37*
G36*
X346500D02*
X344500D01*
X343330Y406826D01*
X342337Y406163D01*
X341674Y405171D01*
X341441Y404000D01*
Y401000D01*
X346500D01*
Y407059D01*
D02*
G37*
G36*
X353559Y399000D02*
X348500D01*
Y392941D01*
X350500D01*
X351670Y393174D01*
X352663Y393837D01*
X353326Y394829D01*
X353559Y396000D01*
Y399000D01*
D02*
G37*
G36*
X346500D02*
X341441D01*
Y396000D01*
X341674Y394829D01*
X342337Y393837D01*
X343330Y393174D01*
X344500Y392941D01*
X346500D01*
Y399000D01*
D02*
G37*
G36*
X348250Y384554D02*
X346750D01*
X345677Y384340D01*
X345000Y383888D01*
X344323Y384340D01*
X343500Y384504D01*
Y376500D01*
Y368496D01*
X344323Y368660D01*
X345000Y369112D01*
X345677Y368660D01*
X346750Y368446D01*
X348250D01*
X349323Y368660D01*
X350233Y369267D01*
X350840Y370177D01*
X350939Y370671D01*
X352196Y371525D01*
X352256Y371500D01*
X354245D01*
X356082Y372261D01*
X357489Y373668D01*
X358250Y375505D01*
Y377495D01*
X357489Y379332D01*
X356082Y380739D01*
X354245Y381500D01*
X352256D01*
X352196Y381475D01*
X350939Y382329D01*
X350840Y382823D01*
X350233Y383733D01*
X349323Y384340D01*
X348250Y384554D01*
D02*
G37*
G36*
X216796Y381500D02*
X215204D01*
X213734Y380891D01*
X212609Y379766D01*
X212000Y378296D01*
Y376704D01*
X212609Y375234D01*
X213734Y374109D01*
X215204Y373500D01*
X216796D01*
X218266Y374109D01*
X219391Y375234D01*
X220000Y376704D01*
Y378296D01*
X219391Y379766D01*
X218266Y380891D01*
X216796Y381500D01*
D02*
G37*
G36*
X426000Y372000D02*
X421500D01*
Y366500D01*
X426000D01*
Y372000D01*
D02*
G37*
G36*
X419500D02*
X415000D01*
Y366500D01*
X419500D01*
Y372000D01*
D02*
G37*
G36*
X444500Y371500D02*
X439500D01*
Y366000D01*
X444500D01*
Y371500D01*
D02*
G37*
G36*
X437500D02*
X432500D01*
Y366000D01*
X437500D01*
Y371500D01*
D02*
G37*
G36*
X291796Y365500D02*
X290204D01*
X288734Y364891D01*
X288402Y364559D01*
X284244D01*
X283823Y364840D01*
X282750Y365054D01*
X272250D01*
X271177Y364840D01*
X270267Y364233D01*
X269660Y363323D01*
X269446Y362250D01*
Y360750D01*
X269660Y359677D01*
X270112Y359000D01*
X269660Y358323D01*
X269496Y357500D01*
X277500D01*
Y355500D01*
X269496D01*
X269660Y354677D01*
X270112Y354000D01*
X269660Y353323D01*
X269446Y352250D01*
Y351605D01*
X268875Y350635D01*
X268201Y350500D01*
X267204D01*
X265734Y349891D01*
X264609Y348766D01*
X264000Y347296D01*
Y345704D01*
X264609Y344234D01*
X265734Y343109D01*
X267204Y342500D01*
X268201D01*
X268875Y342365D01*
X269446Y341395D01*
Y340750D01*
X269660Y339677D01*
X270112Y339000D01*
X269660Y338323D01*
X269446Y337250D01*
Y335750D01*
X269660Y334677D01*
X270112Y334000D01*
X269660Y333323D01*
X269446Y332250D01*
Y330750D01*
X269660Y329677D01*
X270112Y329000D01*
X269660Y328323D01*
X269446Y327250D01*
Y325750D01*
X269660Y324677D01*
X270112Y324000D01*
X269660Y323323D01*
X269446Y322250D01*
Y320750D01*
X269660Y319677D01*
X270112Y319000D01*
X269660Y318323D01*
X269446Y317250D01*
Y315750D01*
X269660Y314677D01*
X270112Y314000D01*
X269660Y313323D01*
X269446Y312250D01*
Y310750D01*
X269660Y309677D01*
X270112Y309000D01*
X269660Y308323D01*
X269446Y307250D01*
Y305750D01*
X269660Y304677D01*
X270267Y303767D01*
X271177Y303160D01*
X272250Y302946D01*
X282750D01*
X283823Y303160D01*
X284733Y303767D01*
X285340Y304677D01*
X285554Y305750D01*
Y307250D01*
X285340Y308323D01*
X284888Y309000D01*
X285340Y309677D01*
X285554Y310750D01*
Y312250D01*
X285340Y313323D01*
X284888Y314000D01*
X285340Y314677D01*
X285554Y315750D01*
Y317250D01*
X285340Y318323D01*
X284888Y319000D01*
X285340Y319677D01*
X285554Y320750D01*
Y322250D01*
X285340Y323323D01*
X284888Y324000D01*
X285340Y324677D01*
X285554Y325750D01*
Y327250D01*
X285340Y328323D01*
X284888Y329000D01*
X285340Y329677D01*
X285554Y330750D01*
Y332250D01*
X285340Y333323D01*
X284888Y334000D01*
X285340Y334677D01*
X285554Y335750D01*
Y337250D01*
X285340Y338323D01*
X284888Y339000D01*
X285340Y339677D01*
X285554Y340750D01*
Y342250D01*
X285340Y343323D01*
X284888Y344000D01*
X285340Y344677D01*
X285554Y345750D01*
Y347250D01*
X285759Y347500D01*
X286796D01*
X288266Y348109D01*
X289391Y349234D01*
X290000Y350704D01*
Y352296D01*
X289391Y353766D01*
X288266Y354891D01*
X286796Y355500D01*
X285759D01*
X285554Y355750D01*
Y357250D01*
X286612Y358441D01*
X288402D01*
X288734Y358109D01*
X290204Y357500D01*
X291796D01*
X293266Y358109D01*
X294391Y359234D01*
X295000Y360704D01*
Y362296D01*
X294391Y363766D01*
X293266Y364891D01*
X291796Y365500D01*
D02*
G37*
G36*
X237995Y373000D02*
X236005D01*
X234168Y372239D01*
X232761Y370832D01*
X232000Y368995D01*
Y367005D01*
X232761Y365168D01*
X234168Y363761D01*
X236005Y363000D01*
X237995D01*
X239832Y363761D01*
X241239Y365168D01*
X242000Y367005D01*
Y368995D01*
X241239Y370832D01*
X239832Y372239D01*
X237995Y373000D01*
D02*
G37*
G36*
X216796Y362000D02*
X215204D01*
X213734Y361391D01*
X212609Y360266D01*
X212000Y358796D01*
Y357204D01*
X212609Y355734D01*
X213734Y354609D01*
X215204Y354000D01*
X216796D01*
X218266Y354609D01*
X219391Y355734D01*
X220000Y357204D01*
Y358796D01*
X219391Y360266D01*
X218266Y361391D01*
X216796Y362000D01*
D02*
G37*
G36*
X529500Y342612D02*
Y337500D01*
X534612D01*
X534455Y338088D01*
X533402Y339912D01*
X531912Y341402D01*
X530088Y342455D01*
X529500Y342612D01*
D02*
G37*
G36*
X524500D02*
X523912Y342455D01*
X522088Y341402D01*
X520598Y339912D01*
X519545Y338088D01*
X519388Y337500D01*
X524500D01*
Y342612D01*
D02*
G37*
G36*
X428559Y348000D02*
X416441D01*
Y345000D01*
X416674Y343829D01*
X417337Y342837D01*
X418330Y342174D01*
X418463Y342147D01*
Y340853D01*
X418330Y340826D01*
X417337Y340163D01*
X416674Y339170D01*
X416441Y338000D01*
Y335000D01*
X422500D01*
X428559D01*
Y338000D01*
X428326Y339170D01*
X427663Y340163D01*
X426670Y340826D01*
X426537Y340853D01*
Y342147D01*
X426670Y342174D01*
X427663Y342837D01*
X428326Y343829D01*
X428559Y345000D01*
Y348000D01*
D02*
G37*
G36*
X216796Y335500D02*
X215204D01*
X213734Y334891D01*
X212609Y333766D01*
X212000Y332296D01*
Y330704D01*
X212609Y329234D01*
X213734Y328109D01*
X215204Y327500D01*
X216796D01*
X218266Y328109D01*
X219391Y329234D01*
X220000Y330704D01*
Y332296D01*
X219391Y333766D01*
X218266Y334891D01*
X216796Y335500D01*
D02*
G37*
G36*
X534612Y332500D02*
X529500D01*
Y327388D01*
X530088Y327545D01*
X531912Y328598D01*
X533402Y330088D01*
X534455Y331912D01*
X534612Y332500D01*
D02*
G37*
G36*
X524500D02*
X519388D01*
X519545Y331912D01*
X520598Y330088D01*
X522088Y328598D01*
X523912Y327545D01*
X524500Y327388D01*
Y332500D01*
D02*
G37*
G36*
X508119Y343500D02*
X505881D01*
X503719Y342921D01*
X501781Y341802D01*
X500198Y340219D01*
X499079Y338281D01*
X498500Y336119D01*
Y333881D01*
X499079Y331719D01*
X500198Y329781D01*
X501781Y328198D01*
X503719Y327079D01*
X505881Y326500D01*
X508119D01*
X510281Y327079D01*
X512219Y328198D01*
X513802Y329781D01*
X514921Y331719D01*
X515500Y333881D01*
Y336119D01*
X514921Y338281D01*
X513802Y340219D01*
X512219Y341802D01*
X510281Y342921D01*
X508119Y343500D01*
D02*
G37*
G36*
X428559Y333000D02*
X422500D01*
X416441D01*
Y330000D01*
X416674Y328829D01*
X417337Y327837D01*
X418330Y327174D01*
X418463Y327147D01*
Y325853D01*
X418330Y325826D01*
X417337Y325163D01*
X416674Y324170D01*
X416441Y323000D01*
Y320000D01*
X422500D01*
X428559D01*
Y323000D01*
X428326Y324170D01*
X427663Y325163D01*
X426670Y325826D01*
X426537Y325853D01*
Y327147D01*
X426670Y327174D01*
X427663Y327837D01*
X428326Y328829D01*
X428559Y330000D01*
Y333000D01*
D02*
G37*
G36*
X237995Y327000D02*
X236005D01*
X234168Y326239D01*
X232761Y324832D01*
X232000Y322995D01*
Y321005D01*
X232761Y319168D01*
X234168Y317761D01*
X236005Y317000D01*
X237995D01*
X239832Y317761D01*
X241239Y319168D01*
X242000Y321005D01*
Y322995D01*
X241239Y324832D01*
X239832Y326239D01*
X237995Y327000D01*
D02*
G37*
G36*
X428559Y318000D02*
X423500D01*
Y311941D01*
X425500D01*
X426670Y312174D01*
X427663Y312837D01*
X428326Y313829D01*
X428559Y315000D01*
Y318000D01*
D02*
G37*
G36*
X421500D02*
X416441D01*
Y315000D01*
X416674Y313829D01*
X417337Y312837D01*
X418330Y312174D01*
X419500Y311941D01*
X421500D01*
Y318000D01*
D02*
G37*
G36*
X216796Y316500D02*
X215204D01*
X213734Y315891D01*
X212609Y314766D01*
X212000Y313296D01*
Y311704D01*
X212609Y310234D01*
X213734Y309109D01*
X215204Y308500D01*
X216796D01*
X218266Y309109D01*
X219391Y310234D01*
X220000Y311704D01*
Y313296D01*
X219391Y314766D01*
X218266Y315891D01*
X216796Y316500D01*
D02*
G37*
G36*
X484796Y315250D02*
X483204D01*
X481734Y314641D01*
X480609Y313516D01*
X480000Y312046D01*
Y310454D01*
X480609Y308984D01*
X481734Y307859D01*
X483204Y307250D01*
X484796D01*
X486266Y307859D01*
X487391Y308984D01*
X488000Y310454D01*
Y312046D01*
X487391Y313516D01*
X486266Y314641D01*
X484796Y315250D01*
D02*
G37*
G36*
X348796Y311000D02*
X347204D01*
X345734Y310391D01*
X344609Y309266D01*
X344000Y307796D01*
Y306204D01*
X344609Y304734D01*
X345734Y303609D01*
X347204Y303000D01*
X348796D01*
X350266Y303609D01*
X351391Y304734D01*
X352000Y306204D01*
Y307796D01*
X351391Y309266D01*
X350266Y310391D01*
X348796Y311000D01*
D02*
G37*
G36*
X210796Y307000D02*
X209204D01*
X207734Y306391D01*
X206609Y305266D01*
X206000Y303796D01*
Y302204D01*
X206609Y300734D01*
X207734Y299609D01*
X209204Y299000D01*
X210796D01*
X212266Y299609D01*
X213391Y300734D01*
X214000Y302204D01*
Y303796D01*
X213391Y305266D01*
X212266Y306391D01*
X210796Y307000D01*
D02*
G37*
G36*
X307796Y305000D02*
X306204D01*
X304734Y304391D01*
X303609Y303266D01*
X303000Y301796D01*
Y300700D01*
X303000Y300204D01*
X301895Y299554D01*
X301750D01*
X300677Y299340D01*
X300000Y298888D01*
X299323Y299340D01*
X298250Y299554D01*
X297485D01*
X297050Y300204D01*
Y301796D01*
X296441Y303266D01*
X295316Y304391D01*
X293846Y305000D01*
X292254D01*
X290784Y304391D01*
X289659Y303266D01*
X289050Y301796D01*
Y300204D01*
X289659Y298734D01*
X289725Y298669D01*
X289160Y297823D01*
X288946Y296750D01*
Y286250D01*
X289160Y285177D01*
X289441Y284755D01*
Y281047D01*
X288330Y280826D01*
X287337Y280163D01*
X286674Y279170D01*
X286441Y278000D01*
Y270000D01*
X286674Y268829D01*
X287337Y267837D01*
X288330Y267174D01*
X288931Y267054D01*
Y265337D01*
X288500Y264296D01*
Y262704D01*
X289109Y261234D01*
X290234Y260109D01*
X291704Y259500D01*
X293296D01*
X294766Y260109D01*
X295891Y261234D01*
X296500Y262704D01*
Y264296D01*
X296069Y265337D01*
Y267054D01*
X296670Y267174D01*
X297663Y267837D01*
X298326Y268829D01*
X298559Y270000D01*
Y278000D01*
X298326Y279170D01*
X297663Y280163D01*
X296670Y280826D01*
X295559Y281047D01*
Y282388D01*
X296500Y283224D01*
Y291500D01*
X298500D01*
Y283496D01*
X299323Y283660D01*
X300000Y284112D01*
X300677Y283660D01*
X301750Y283446D01*
X303250D01*
X304323Y283660D01*
X305000Y284112D01*
X305677Y283660D01*
X306750Y283446D01*
X308250D01*
X309323Y283660D01*
X310000Y284112D01*
X310677Y283660D01*
X311750Y283446D01*
X313250D01*
X314323Y283660D01*
X315000Y284112D01*
X315677Y283660D01*
X316500Y283496D01*
Y291500D01*
X318500D01*
Y283224D01*
X319441Y282388D01*
Y275500D01*
X319441Y275500D01*
X319674Y274329D01*
X320337Y273337D01*
X342009Y251665D01*
X343001Y251002D01*
X344172Y250769D01*
X392842D01*
X398837Y244775D01*
X398837Y244775D01*
X399829Y244112D01*
X401000Y243879D01*
X406027D01*
X406359Y243547D01*
X407829Y242938D01*
X409421D01*
X410711Y243472D01*
X410715Y243465D01*
X411563Y242899D01*
X412562Y242700D01*
X415938D01*
X416937Y242899D01*
X417785Y243465D01*
X418351Y244313D01*
X418353Y244319D01*
X419647D01*
X419649Y244313D01*
X420215Y243465D01*
X421063Y242899D01*
X422063Y242700D01*
X422750D01*
Y247000D01*
X423750D01*
Y248000D01*
X428050D01*
Y248687D01*
X427851Y249687D01*
X427672Y249956D01*
X427859Y250236D01*
X428048Y251187D01*
Y251500D01*
X423750D01*
Y253500D01*
X428048D01*
Y253813D01*
X427859Y254764D01*
X427701Y255000D01*
X427859Y255236D01*
X428048Y256187D01*
Y256500D01*
X423750D01*
Y258500D01*
X428048D01*
Y258813D01*
X427859Y259764D01*
X427672Y260044D01*
X427851Y260313D01*
X428050Y261313D01*
Y262000D01*
X423750D01*
Y263000D01*
X422750D01*
Y267300D01*
X422063D01*
X421063Y267101D01*
X420215Y266535D01*
X419649Y265687D01*
X419647Y265681D01*
X418353D01*
X418351Y265687D01*
X417785Y266535D01*
X416937Y267101D01*
X415938Y267300D01*
X413000D01*
Y268796D01*
X412391Y270266D01*
X411760Y270897D01*
X411735Y271255D01*
X411966Y272371D01*
X412663Y272837D01*
X413326Y273829D01*
X413559Y275000D01*
Y281316D01*
X414266Y281609D01*
X415171Y282514D01*
X416207Y282261D01*
X416441Y282125D01*
Y280000D01*
X421500D01*
Y286059D01*
X419500D01*
X418330Y285826D01*
X417337Y285163D01*
X417270Y285062D01*
X416000Y285448D01*
Y285796D01*
X415391Y287266D01*
X414266Y288391D01*
X412796Y289000D01*
X411204D01*
X409734Y288391D01*
X408609Y287266D01*
X408109Y286059D01*
X404500D01*
X403330Y285826D01*
X402337Y285163D01*
X401674Y284170D01*
X401441Y283000D01*
Y280000D01*
X401441Y280000D01*
Y276267D01*
X400233Y275059D01*
X381236D01*
X381046Y276250D01*
X382516Y276859D01*
X383641Y277984D01*
X384250Y279454D01*
Y281046D01*
X383641Y282516D01*
X382516Y283641D01*
X381046Y284250D01*
X379454D01*
X377984Y283641D01*
X376859Y282516D01*
X376250Y281046D01*
Y279454D01*
X376859Y277984D01*
X377984Y276859D01*
X379454Y276250D01*
X379264Y275059D01*
X352217D01*
X350559Y276717D01*
Y284755D01*
X350840Y285177D01*
X351054Y286250D01*
Y296750D01*
X350840Y297823D01*
X350233Y298733D01*
X349323Y299340D01*
X348250Y299554D01*
X346750D01*
X345677Y299340D01*
X345000Y298888D01*
X344323Y299340D01*
X343250Y299554D01*
X341750D01*
X340677Y299340D01*
X340000Y298888D01*
X339323Y299340D01*
X338250Y299554D01*
X336750D01*
X335677Y299340D01*
X335000Y298888D01*
X334323Y299340D01*
X333250Y299554D01*
X331750D01*
X330677Y299340D01*
X330000Y298888D01*
X329323Y299340D01*
X328250Y299554D01*
X326750D01*
X325677Y299340D01*
X325000Y298888D01*
X324323Y299340D01*
X323250Y299554D01*
X321750D01*
X320677Y299340D01*
X320000Y298888D01*
X319323Y299340D01*
X318250Y299554D01*
X318105D01*
X317000Y300204D01*
X317000Y300700D01*
Y301796D01*
X316391Y303266D01*
X315266Y304391D01*
X313796Y305000D01*
X312204D01*
X310734Y304391D01*
X310000Y303657D01*
X309266Y304391D01*
X307796Y305000D01*
D02*
G37*
G36*
X255746Y304950D02*
X254154D01*
X252684Y304341D01*
X251559Y303216D01*
X250950Y301746D01*
Y300154D01*
X251559Y298684D01*
X252684Y297559D01*
X254154Y296950D01*
X255746D01*
X257216Y297559D01*
X258341Y298684D01*
X258950Y300154D01*
Y301746D01*
X258341Y303216D01*
X257216Y304341D01*
X255746Y304950D01*
D02*
G37*
G36*
X532750Y301033D02*
X528500D01*
Y292250D01*
X537083D01*
Y296700D01*
X536753Y298358D01*
X535814Y299764D01*
X534408Y300703D01*
X532750Y301033D01*
D02*
G37*
G36*
X523500D02*
X519250D01*
X517592Y300703D01*
X516186Y299764D01*
X515247Y298358D01*
X514917Y296700D01*
Y292250D01*
X523500D01*
Y301033D01*
D02*
G37*
G36*
X425500Y286059D02*
X423500D01*
Y280000D01*
X428559D01*
Y283000D01*
X428326Y284170D01*
X427663Y285163D01*
X426670Y285826D01*
X425500Y286059D01*
D02*
G37*
G36*
X537083Y287250D02*
X528500D01*
Y278467D01*
X532750D01*
X534408Y278797D01*
X535814Y279736D01*
X536753Y281142D01*
X537083Y282800D01*
Y287250D01*
D02*
G37*
G36*
X523500D02*
X514917D01*
Y282800D01*
X515247Y281142D01*
X516186Y279736D01*
X517592Y278797D01*
X519250Y278467D01*
X523500D01*
Y287250D01*
D02*
G37*
G36*
X502750Y301033D02*
X489250D01*
X487592Y300703D01*
X486186Y299764D01*
X485247Y298358D01*
X484917Y296700D01*
Y282800D01*
X485247Y281142D01*
X486186Y279736D01*
X487592Y278797D01*
X489250Y278467D01*
X502750D01*
X504408Y278797D01*
X505814Y279736D01*
X506753Y281142D01*
X507083Y282800D01*
Y296700D01*
X506753Y298358D01*
X505814Y299764D01*
X504408Y300703D01*
X502750Y301033D01*
D02*
G37*
G36*
X280500Y281059D02*
X278500D01*
Y275000D01*
X283559D01*
Y278000D01*
X283326Y279170D01*
X282663Y280163D01*
X281670Y280826D01*
X280500Y281059D01*
D02*
G37*
G36*
X276500D02*
X274500D01*
X273330Y280826D01*
X272337Y280163D01*
X271674Y279170D01*
X271441Y278000D01*
Y275000D01*
X276500D01*
Y281059D01*
D02*
G37*
G36*
X428559Y278000D02*
X423500D01*
Y271941D01*
X425500D01*
X426670Y272174D01*
X427663Y272837D01*
X428326Y273829D01*
X428559Y275000D01*
Y278000D01*
D02*
G37*
G36*
X421500D02*
X416441D01*
Y275000D01*
X416674Y273829D01*
X417337Y272837D01*
X418330Y272174D01*
X419500Y271941D01*
X421500D01*
Y278000D01*
D02*
G37*
G36*
X283559Y273000D02*
X278500D01*
Y266941D01*
X280500D01*
X281670Y267174D01*
X282663Y267837D01*
X283326Y268829D01*
X283559Y270000D01*
Y273000D01*
D02*
G37*
G36*
X276500D02*
X271441D01*
Y270000D01*
X271674Y268829D01*
X272337Y267837D01*
X273330Y267174D01*
X274500Y266941D01*
X276500D01*
Y273000D01*
D02*
G37*
G36*
X425438Y267300D02*
X424750D01*
Y264000D01*
X428050D01*
Y264688D01*
X427851Y265687D01*
X427285Y266535D01*
X426437Y267101D01*
X425438Y267300D01*
D02*
G37*
G36*
X532750Y272283D02*
X528500D01*
Y263500D01*
X537083D01*
Y267950D01*
X536753Y269608D01*
X535814Y271014D01*
X534408Y271953D01*
X532750Y272283D01*
D02*
G37*
G36*
X523500D02*
X519250D01*
X517592Y271953D01*
X516186Y271014D01*
X515247Y269608D01*
X514917Y267950D01*
Y263500D01*
X523500D01*
Y272283D01*
D02*
G37*
G36*
X176580Y392000D02*
X173420D01*
X170368Y391182D01*
X167632Y389602D01*
X165398Y387368D01*
X163818Y384632D01*
X163000Y381580D01*
Y378420D01*
X163818Y375368D01*
X165398Y372632D01*
X167632Y370398D01*
X170368Y368818D01*
X172833Y368157D01*
Y366843D01*
X170368Y366182D01*
X167632Y364602D01*
X165398Y362368D01*
X163818Y359632D01*
X163000Y356580D01*
Y353420D01*
X163818Y350368D01*
X165398Y347632D01*
X167632Y345398D01*
X170368Y343818D01*
X172833Y343157D01*
Y341843D01*
X170368Y341182D01*
X167632Y339602D01*
X165398Y337368D01*
X163818Y334632D01*
X163000Y331580D01*
Y328420D01*
X163818Y325368D01*
X165398Y322632D01*
X167632Y320398D01*
X170368Y318818D01*
X172833Y318157D01*
Y316843D01*
X170368Y316182D01*
X167632Y314602D01*
X165398Y312368D01*
X163818Y309632D01*
X163000Y306580D01*
Y303420D01*
X163818Y300368D01*
X165398Y297632D01*
X167632Y295398D01*
X170368Y293818D01*
X172833Y293157D01*
Y291843D01*
X170368Y291182D01*
X167632Y289602D01*
X165398Y287368D01*
X163818Y284632D01*
X163000Y281580D01*
Y278420D01*
X163818Y275368D01*
X165398Y272632D01*
X167632Y270398D01*
X170368Y268818D01*
X172833Y268157D01*
Y266843D01*
X170368Y266182D01*
X167632Y264602D01*
X165398Y262368D01*
X163818Y259632D01*
X163000Y256580D01*
Y256000D01*
X175000D01*
X187000D01*
Y256580D01*
X186182Y259632D01*
X184602Y262368D01*
X182368Y264602D01*
X179632Y266182D01*
X177167Y266843D01*
Y268157D01*
X179632Y268818D01*
X182368Y270398D01*
X184602Y272632D01*
X186182Y275368D01*
X187000Y278420D01*
Y281580D01*
X186182Y284632D01*
X184602Y287368D01*
X182368Y289602D01*
X179632Y291182D01*
X177167Y291843D01*
Y293157D01*
X179632Y293818D01*
X182368Y295398D01*
X184602Y297632D01*
X186182Y300368D01*
X187000Y303420D01*
Y306580D01*
X186182Y309632D01*
X184602Y312368D01*
X182368Y314602D01*
X179632Y316182D01*
X177167Y316843D01*
Y318157D01*
X179632Y318818D01*
X182368Y320398D01*
X184602Y322632D01*
X186182Y325368D01*
X187000Y328420D01*
Y331580D01*
X186182Y334632D01*
X184602Y337368D01*
X182368Y339602D01*
X179632Y341182D01*
X177167Y341843D01*
Y343157D01*
X179632Y343818D01*
X182368Y345398D01*
X184602Y347632D01*
X186182Y350368D01*
X187000Y353420D01*
Y356580D01*
X186182Y359632D01*
X184602Y362368D01*
X182368Y364602D01*
X179632Y366182D01*
X177167Y366843D01*
Y368157D01*
X179632Y368818D01*
X182368Y370398D01*
X184602Y372632D01*
X186182Y375368D01*
X187000Y378420D01*
Y381580D01*
X186182Y384632D01*
X184602Y387368D01*
X182368Y389602D01*
X179632Y391182D01*
X176580Y392000D01*
D02*
G37*
G36*
X537083Y258500D02*
X528500D01*
Y249717D01*
X532750D01*
X534408Y250047D01*
X535814Y250986D01*
X536753Y252392D01*
X537083Y254050D01*
Y258500D01*
D02*
G37*
G36*
X523500D02*
X514917D01*
Y254050D01*
X515247Y252392D01*
X516186Y250986D01*
X517592Y250047D01*
X519250Y249717D01*
X523500D01*
Y258500D01*
D02*
G37*
G36*
X502750Y272283D02*
X489250D01*
X487592Y271953D01*
X486186Y271014D01*
X485247Y269608D01*
X484917Y267950D01*
Y254050D01*
X485247Y252392D01*
X486186Y250986D01*
X487592Y250047D01*
X489250Y249717D01*
X502750D01*
X504408Y250047D01*
X505814Y250986D01*
X506753Y252392D01*
X507083Y254050D01*
Y267950D01*
X506753Y269608D01*
X505814Y271014D01*
X504408Y271953D01*
X502750Y272283D01*
D02*
G37*
G36*
X187000Y254000D02*
X176000D01*
Y243000D01*
X176580D01*
X179632Y243818D01*
X182368Y245398D01*
X184602Y247632D01*
X186182Y250368D01*
X187000Y253420D01*
Y254000D01*
D02*
G37*
G36*
X174000D02*
X163000D01*
Y253420D01*
X163818Y250368D01*
X165398Y247632D01*
X167632Y245398D01*
X170368Y243818D01*
X173420Y243000D01*
X174000D01*
Y254000D01*
D02*
G37*
G36*
X428050Y246000D02*
X424750D01*
Y242700D01*
X425438D01*
X426437Y242899D01*
X427285Y243465D01*
X427851Y244313D01*
X428050Y245312D01*
Y246000D01*
D02*
G37*
G36*
X348546Y230000D02*
X346954D01*
X345484Y229391D01*
X344359Y228266D01*
X343750Y226796D01*
Y225204D01*
X343797Y225092D01*
X342921Y224267D01*
X342795Y224192D01*
X339780Y225000D01*
X336620D01*
X333568Y224182D01*
X330832Y222602D01*
X328598Y220368D01*
X327018Y217632D01*
X326200Y214580D01*
Y211420D01*
X327018Y208368D01*
X328598Y205632D01*
X330832Y203398D01*
X333568Y201818D01*
X336620Y201000D01*
X339780D01*
X342832Y201818D01*
X345568Y203398D01*
X347802Y205632D01*
X349382Y208368D01*
X350200Y211420D01*
Y214580D01*
X349382Y217632D01*
X347802Y220368D01*
X347441Y220730D01*
X347967Y222000D01*
X348546D01*
X350016Y222609D01*
X351141Y223734D01*
X351750Y225204D01*
Y226796D01*
X351141Y228266D01*
X350016Y229391D01*
X348546Y230000D01*
D02*
G37*
G36*
X466846Y225500D02*
X463554D01*
X460375Y224648D01*
X457525Y223002D01*
X455197Y220675D01*
X453552Y217825D01*
X452899Y215387D01*
X451584D01*
X450982Y217632D01*
X449402Y220368D01*
X447168Y222602D01*
X444432Y224182D01*
X441380Y225000D01*
X438220D01*
X435168Y224182D01*
X432432Y222602D01*
X430198Y220368D01*
X428618Y217632D01*
X427800Y214580D01*
Y211420D01*
X428618Y208368D01*
X430198Y205632D01*
X432432Y203398D01*
X435168Y201818D01*
X438220Y201000D01*
X441380D01*
X444432Y201818D01*
X447168Y203398D01*
X449402Y205632D01*
X450982Y208368D01*
X451584Y210613D01*
X452899D01*
X453552Y208175D01*
X455197Y205325D01*
X457525Y202997D01*
X460375Y201352D01*
X461847Y200957D01*
Y199643D01*
X460375Y199248D01*
X457525Y197603D01*
X455197Y195275D01*
X453552Y192425D01*
X452899Y189987D01*
X451584D01*
X450982Y192232D01*
X449402Y194968D01*
X447168Y197202D01*
X444432Y198782D01*
X441380Y199600D01*
X438220D01*
X435168Y198782D01*
X432432Y197202D01*
X430198Y194968D01*
X428618Y192232D01*
X427800Y189180D01*
Y186020D01*
X428618Y182968D01*
X430198Y180232D01*
X432432Y177998D01*
X435168Y176418D01*
X438220Y175600D01*
X441380D01*
X444432Y176418D01*
X447168Y177998D01*
X449402Y180232D01*
X450982Y182968D01*
X451584Y185213D01*
X452899D01*
X453552Y182775D01*
X455197Y179925D01*
X457525Y177598D01*
X460375Y175952D01*
X463554Y175100D01*
X466846D01*
X470025Y175952D01*
X472875Y177598D01*
X475202Y179925D01*
X476848Y182775D01*
X477700Y185954D01*
Y189246D01*
X476848Y192425D01*
X475202Y195275D01*
X472875Y197603D01*
X470025Y199248D01*
X468553Y199643D01*
Y200957D01*
X470025Y201352D01*
X472875Y202997D01*
X475202Y205325D01*
X476848Y208175D01*
X477700Y211354D01*
Y214646D01*
X476848Y217825D01*
X475202Y220675D01*
X472875Y223002D01*
X470025Y224648D01*
X466846Y225500D01*
D02*
G37*
G36*
X518119Y225500D02*
X515881D01*
X513719Y224921D01*
X511781Y223802D01*
X510198Y222219D01*
X509079Y220281D01*
X508500Y218119D01*
Y215881D01*
X509079Y213719D01*
X510198Y211781D01*
X511781Y210198D01*
X513719Y209079D01*
X515881Y208500D01*
X518119D01*
X520281Y209079D01*
X522219Y210198D01*
X523802Y211781D01*
X524921Y213719D01*
X525500Y215881D01*
Y218119D01*
X524921Y220281D01*
X523802Y222219D01*
X522219Y223802D01*
X520281Y224921D01*
X518119Y225500D01*
D02*
G37*
G36*
X415980Y225000D02*
X412820D01*
X409768Y224182D01*
X407032Y222602D01*
X404798Y220368D01*
X403218Y217632D01*
X402400Y214580D01*
Y211420D01*
X403218Y208368D01*
X404798Y205632D01*
X407032Y203398D01*
X409768Y201818D01*
X412820Y201000D01*
X415980D01*
X419032Y201818D01*
X421768Y203398D01*
X424002Y205632D01*
X425582Y208368D01*
X426400Y211420D01*
Y214580D01*
X425582Y217632D01*
X424002Y220368D01*
X421768Y222602D01*
X419032Y224182D01*
X415980Y225000D01*
D02*
G37*
G36*
X390580D02*
X387420D01*
X384368Y224182D01*
X381632Y222602D01*
X379398Y220368D01*
X377818Y217632D01*
X377000Y214580D01*
Y211420D01*
X377818Y208368D01*
X379398Y205632D01*
X381632Y203398D01*
X384368Y201818D01*
X387420Y201000D01*
X390580D01*
X393632Y201818D01*
X396368Y203398D01*
X398602Y205632D01*
X400182Y208368D01*
X401000Y211420D01*
Y214580D01*
X400182Y217632D01*
X398602Y220368D01*
X396368Y222602D01*
X393632Y224182D01*
X390580Y225000D01*
D02*
G37*
G36*
X365180D02*
X362020D01*
X358968Y224182D01*
X356232Y222602D01*
X353998Y220368D01*
X352418Y217632D01*
X351600Y214580D01*
Y211420D01*
X352418Y208368D01*
X353998Y205632D01*
X356232Y203398D01*
X358968Y201818D01*
X362020Y201000D01*
X365180D01*
X368232Y201818D01*
X370968Y203398D01*
X373202Y205632D01*
X374782Y208368D01*
X375600Y211420D01*
Y214580D01*
X374782Y217632D01*
X373202Y220368D01*
X370968Y222602D01*
X368232Y224182D01*
X365180Y225000D01*
D02*
G37*
G36*
X314380D02*
X311220D01*
X308168Y224182D01*
X305432Y222602D01*
X303198Y220368D01*
X301618Y217632D01*
X300800Y214580D01*
Y211420D01*
X301618Y208368D01*
X303198Y205632D01*
X305432Y203398D01*
X308168Y201818D01*
X311220Y201000D01*
X314380D01*
X317432Y201818D01*
X320168Y203398D01*
X322402Y205632D01*
X323982Y208368D01*
X324800Y211420D01*
Y214580D01*
X323982Y217632D01*
X322402Y220368D01*
X320168Y222602D01*
X317432Y224182D01*
X314380Y225000D01*
D02*
G37*
G36*
X288980D02*
X285820D01*
X282768Y224182D01*
X280032Y222602D01*
X277798Y220368D01*
X276218Y217632D01*
X275400Y214580D01*
Y211420D01*
X276218Y208368D01*
X277798Y205632D01*
X280032Y203398D01*
X282768Y201818D01*
X285820Y201000D01*
X288980D01*
X292032Y201818D01*
X294768Y203398D01*
X297002Y205632D01*
X298582Y208368D01*
X299400Y211420D01*
Y214580D01*
X298582Y217632D01*
X297002Y220368D01*
X294768Y222602D01*
X292032Y224182D01*
X288980Y225000D01*
D02*
G37*
G36*
X263580D02*
X260420D01*
X257368Y224182D01*
X254632Y222602D01*
X252398Y220368D01*
X250818Y217632D01*
X250000Y214580D01*
Y211420D01*
X250818Y208368D01*
X252398Y205632D01*
X254632Y203398D01*
X257368Y201818D01*
X260420Y201000D01*
X263580D01*
X266632Y201818D01*
X269368Y203398D01*
X271602Y205632D01*
X273182Y208368D01*
X274000Y211420D01*
Y214580D01*
X273182Y217632D01*
X271602Y220368D01*
X269368Y222602D01*
X266632Y224182D01*
X263580Y225000D01*
D02*
G37*
G36*
X519500Y204612D02*
Y199500D01*
X524612D01*
X524455Y200088D01*
X523402Y201912D01*
X521912Y203402D01*
X520088Y204455D01*
X519500Y204612D01*
D02*
G37*
G36*
X514500Y204612D02*
X513912Y204455D01*
X512088Y203402D01*
X510598Y201912D01*
X509545Y200088D01*
X509388Y199500D01*
X514500D01*
Y204612D01*
D02*
G37*
G36*
X524612Y194500D02*
X519500D01*
Y189388D01*
X520088Y189545D01*
X521912Y190598D01*
X523402Y192088D01*
X524455Y193912D01*
X524612Y194500D01*
D02*
G37*
G36*
X514500D02*
X509388D01*
X509545Y193912D01*
X510598Y192088D01*
X512088Y190598D01*
X513912Y189545D01*
X514500Y189388D01*
Y194500D01*
D02*
G37*
G36*
X415980Y199600D02*
X412820D01*
X409768Y198782D01*
X407032Y197202D01*
X404798Y194968D01*
X403218Y192232D01*
X402400Y189180D01*
Y186020D01*
X403218Y182968D01*
X404798Y180232D01*
X407032Y177998D01*
X409768Y176418D01*
X412820Y175600D01*
X415980D01*
X419032Y176418D01*
X421768Y177998D01*
X424002Y180232D01*
X425582Y182968D01*
X426400Y186020D01*
Y189180D01*
X425582Y192232D01*
X424002Y194968D01*
X421768Y197202D01*
X419032Y198782D01*
X415980Y199600D01*
D02*
G37*
G36*
X390580D02*
X387420D01*
X384368Y198782D01*
X381632Y197202D01*
X379398Y194968D01*
X377818Y192232D01*
X377000Y189180D01*
Y186020D01*
X377818Y182968D01*
X379398Y180232D01*
X381632Y177998D01*
X384368Y176418D01*
X387420Y175600D01*
X390580D01*
X393632Y176418D01*
X396368Y177998D01*
X398602Y180232D01*
X400182Y182968D01*
X401000Y186020D01*
Y189180D01*
X400182Y192232D01*
X398602Y194968D01*
X396368Y197202D01*
X393632Y198782D01*
X390580Y199600D01*
D02*
G37*
G36*
X365180D02*
X362020D01*
X358968Y198782D01*
X356232Y197202D01*
X353998Y194968D01*
X352418Y192232D01*
X351600Y189180D01*
Y186020D01*
X352418Y182968D01*
X353998Y180232D01*
X356232Y177998D01*
X358968Y176418D01*
X362020Y175600D01*
X365180D01*
X368232Y176418D01*
X370968Y177998D01*
X373202Y180232D01*
X374782Y182968D01*
X375600Y186020D01*
Y189180D01*
X374782Y192232D01*
X373202Y194968D01*
X370968Y197202D01*
X368232Y198782D01*
X365180Y199600D01*
D02*
G37*
G36*
X339780D02*
X336620D01*
X333568Y198782D01*
X330832Y197202D01*
X328598Y194968D01*
X327018Y192232D01*
X326200Y189180D01*
Y186020D01*
X327018Y182968D01*
X328598Y180232D01*
X330832Y177998D01*
X333568Y176418D01*
X336620Y175600D01*
X339780D01*
X342832Y176418D01*
X345568Y177998D01*
X347802Y180232D01*
X349382Y182968D01*
X350200Y186020D01*
Y189180D01*
X349382Y192232D01*
X347802Y194968D01*
X345568Y197202D01*
X342832Y198782D01*
X339780Y199600D01*
D02*
G37*
G36*
X314380D02*
X311220D01*
X308168Y198782D01*
X305432Y197202D01*
X303198Y194968D01*
X301618Y192232D01*
X300800Y189180D01*
Y186020D01*
X301618Y182968D01*
X303198Y180232D01*
X305432Y177998D01*
X308168Y176418D01*
X311220Y175600D01*
X314380D01*
X317432Y176418D01*
X320168Y177998D01*
X322402Y180232D01*
X323982Y182968D01*
X324800Y186020D01*
Y189180D01*
X323982Y192232D01*
X322402Y194968D01*
X320168Y197202D01*
X317432Y198782D01*
X314380Y199600D01*
D02*
G37*
G36*
X288980D02*
X285820D01*
X282768Y198782D01*
X280032Y197202D01*
X277798Y194968D01*
X276218Y192232D01*
X275400Y189180D01*
Y186020D01*
X276218Y182968D01*
X277798Y180232D01*
X280032Y177998D01*
X282768Y176418D01*
X285820Y175600D01*
X288980D01*
X292032Y176418D01*
X294768Y177998D01*
X297002Y180232D01*
X298582Y182968D01*
X299400Y186020D01*
Y189180D01*
X298582Y192232D01*
X297002Y194968D01*
X294768Y197202D01*
X292032Y198782D01*
X288980Y199600D01*
D02*
G37*
G36*
X263580D02*
X260420D01*
X257368Y198782D01*
X254632Y197202D01*
X252398Y194968D01*
X250818Y192232D01*
X250000Y189180D01*
Y186020D01*
X250818Y182968D01*
X252398Y180232D01*
X254632Y177998D01*
X257368Y176418D01*
X260420Y175600D01*
X263580D01*
X266632Y176418D01*
X269368Y177998D01*
X271602Y180232D01*
X273182Y182968D01*
X274000Y186020D01*
Y189180D01*
X273182Y192232D01*
X271602Y194968D01*
X269368Y197202D01*
X266632Y198782D01*
X263580Y199600D01*
D02*
G37*
%LPD*%
D10*
X99000Y1005000D02*
D03*
Y260000D02*
D03*
X586000Y954000D02*
D03*
X156500Y515750D02*
D03*
X438000Y652000D02*
D03*
X156500Y188750D02*
D03*
X438000Y325000D02*
D03*
X527500Y1014250D02*
D03*
X246000Y878000D02*
D03*
D11*
X224000Y466000D02*
D03*
X503000D02*
D03*
X224000Y139000D02*
D03*
X503000D02*
D03*
X460000Y1064000D02*
D03*
X181000D02*
D03*
D20*
X407500Y740000D02*
D03*
X347500Y727000D02*
D03*
X422500Y676000D02*
D03*
Y646000D02*
D03*
X422500Y661000D02*
D03*
X422500Y606000D02*
D03*
X277500Y601000D02*
D03*
X455500Y740000D02*
D03*
X440500D02*
D03*
X422500Y724500D02*
D03*
X407500D02*
D03*
X422500Y740000D02*
D03*
X440500Y725000D02*
D03*
X455500D02*
D03*
X407500Y661000D02*
D03*
X407500Y676000D02*
D03*
X332500Y727000D02*
D03*
X407500Y606000D02*
D03*
X292500Y601000D02*
D03*
X407500Y646000D02*
D03*
X407500Y413000D02*
D03*
X347500Y400000D02*
D03*
X422500Y349000D02*
D03*
Y319000D02*
D03*
X422500Y334000D02*
D03*
X422500Y279000D02*
D03*
X277500Y274000D02*
D03*
X455500Y413000D02*
D03*
X440500D02*
D03*
X422500Y397500D02*
D03*
X407500D02*
D03*
X422500Y413000D02*
D03*
X440500Y398000D02*
D03*
X455500D02*
D03*
X407500Y334000D02*
D03*
X407500Y349000D02*
D03*
X332500Y400000D02*
D03*
X407500Y279000D02*
D03*
X292500Y274000D02*
D03*
X407500Y319000D02*
D03*
X261500Y854000D02*
D03*
X276500D02*
D03*
X336500Y803750D02*
D03*
X351500D02*
D03*
D27*
X533000Y743000D02*
D03*
Y713000D02*
D03*
Y698000D02*
D03*
Y728000D02*
D03*
Y416000D02*
D03*
Y386000D02*
D03*
Y371000D02*
D03*
Y401000D02*
D03*
X151000Y827500D02*
D03*
Y789400D02*
D03*
D31*
X210000Y731000D02*
X214000Y735000D01*
X210000Y725000D02*
Y731000D01*
X214000Y735000D02*
X308000D01*
X319000Y746000D01*
X362500Y683500D02*
X449500D01*
X456500Y690500D01*
Y692000D01*
X360172Y713500D02*
X414000D01*
X321000Y740000D02*
X357828D01*
X359000Y714672D02*
X360172Y713500D01*
X359000Y714672D02*
Y738828D01*
X357828Y740000D02*
X359000Y738828D01*
X317500Y703500D02*
Y736500D01*
X321000Y740000D01*
X319000Y746000D02*
X359000D01*
X414594Y579156D02*
X414750Y579313D01*
X396828Y584328D02*
X402000Y579156D01*
X405156D02*
X414594D01*
X402000D02*
X405156D01*
X412000Y611500D02*
Y612000D01*
X407500Y606000D02*
Y607000D01*
X412000Y611500D01*
X345722Y584328D02*
X396828D01*
X344050Y586000D02*
X345722Y584328D01*
X327500Y602500D02*
Y618500D01*
X344000Y586000D02*
X344050D01*
X327500Y602500D02*
X344000Y586000D01*
X394109Y580828D02*
X401000Y573937D01*
X408625D01*
X322500Y602500D02*
Y618500D01*
X344172Y580828D02*
X394109D01*
X322500Y602500D02*
X344172Y580828D01*
X414625Y573937D02*
X414750Y573812D01*
X408625Y573937D02*
X414625D01*
X402959Y591500D02*
X404459Y590000D01*
X414562D01*
X337500Y602500D02*
Y618500D01*
X348500Y591500D02*
X402959D01*
X337500Y602500D02*
X348500Y591500D01*
X332500Y602500D02*
Y618500D01*
X347172Y587828D02*
X399172D01*
X332500Y602500D02*
X347172Y587828D01*
X399172D02*
X402500Y584500D01*
X414250D01*
X322750Y703750D02*
Y715750D01*
X322500Y703500D02*
X322750Y703750D01*
Y715750D02*
X323000Y716000D01*
X332500Y703500D02*
Y722000D01*
X348541Y679000D02*
X349041Y678500D01*
X362500D01*
X348000Y679000D02*
X348541D01*
X362500Y658500D02*
X407500D01*
X353000Y659000D02*
X353250Y658750D01*
X438000Y640250D02*
Y652000D01*
X431250Y633500D02*
X438000Y640250D01*
X362500Y633500D02*
X431250D01*
X312750Y627750D02*
X313000Y628000D01*
X312500Y618500D02*
X312750Y618750D01*
Y627750D01*
X286000Y678500D02*
X286000Y678500D01*
X277500Y678500D02*
X286000D01*
X277500Y688500D02*
X291000D01*
X407500Y661000D02*
Y676000D01*
X407500D01*
X407500Y658500D02*
Y661000D01*
X268250Y673750D02*
X277250D01*
X277500Y673500D01*
X268000Y674000D02*
X268250Y673750D01*
X362500Y648500D02*
X406250D01*
X404500Y607000D02*
X407500D01*
X401500Y599000D02*
X404500Y602000D01*
X350950Y599000D02*
X401500D01*
X404500Y602000D02*
Y607000D01*
X347500Y602450D02*
Y618500D01*
Y602450D02*
X350950Y599000D01*
X362500Y653500D02*
X374000D01*
X362500Y668500D02*
X378000D01*
X362500Y673500D02*
X375000D01*
X307250Y618750D02*
Y627750D01*
X307000Y628000D02*
X307250Y627750D01*
Y618750D02*
X307500Y618500D01*
X291328Y715000D02*
X292500Y713828D01*
X231000Y715000D02*
X291328D01*
X292500Y703500D02*
Y713828D01*
X390750Y638250D02*
X391000Y638000D01*
X362750Y638250D02*
X390750D01*
X362500Y638500D02*
X362750Y638250D01*
Y643250D02*
X395750D01*
X396000Y643000D01*
X362500Y643500D02*
X362750Y643250D01*
X342500Y602500D02*
Y618500D01*
Y602500D02*
X350000Y595000D01*
X409000D01*
X292500Y601000D02*
Y618500D01*
X292500Y601000D02*
X292500Y601000D01*
X297500Y703500D02*
Y718828D01*
X296328Y720000D02*
X297500Y718828D01*
X226000Y720000D02*
X296328D01*
X301329Y725000D02*
X302500Y723828D01*
Y703500D02*
Y723828D01*
X221000Y725000D02*
X301329D01*
X307500Y703500D02*
Y727500D01*
X305000Y730000D02*
X307500Y727500D01*
X216000Y730000D02*
X305000D01*
X362750Y663250D02*
X374750D01*
X375000Y663000D01*
X362500Y663500D02*
X362750Y663250D01*
X353250Y658750D02*
X362250D01*
X362500Y658500D01*
X210000Y404000D02*
X214000Y408000D01*
X210000Y398000D02*
Y404000D01*
X214000Y408000D02*
X308000D01*
X319000Y419000D01*
X362500Y356500D02*
X449500D01*
X456500Y363500D01*
Y365000D01*
X360172Y386500D02*
X414000D01*
X321000Y413000D02*
X357828D01*
X359000Y387672D02*
X360172Y386500D01*
X359000Y387672D02*
Y411828D01*
X357828Y413000D02*
X359000Y411828D01*
X317500Y376500D02*
Y409500D01*
X321000Y413000D01*
X319000Y419000D02*
X359000D01*
X414594Y252156D02*
X414750Y252313D01*
X396828Y257328D02*
X402000Y252156D01*
X405156D02*
X414594D01*
X402000D02*
X405156D01*
X412000Y284500D02*
Y285000D01*
X407500Y279000D02*
Y280000D01*
X412000Y284500D01*
X345722Y257328D02*
X396828D01*
X344050Y259000D02*
X345722Y257328D01*
X327500Y275500D02*
Y291500D01*
X344000Y259000D02*
X344050D01*
X327500Y275500D02*
X344000Y259000D01*
X394109Y253828D02*
X401000Y246938D01*
X408625D01*
X322500Y275500D02*
Y291500D01*
X344172Y253828D02*
X394109D01*
X322500Y275500D02*
X344172Y253828D01*
X414625Y246938D02*
X414750Y246812D01*
X408625Y246938D02*
X414625D01*
X402959Y264500D02*
X404459Y263000D01*
X414562D01*
X337500Y275500D02*
Y291500D01*
X348500Y264500D02*
X402959D01*
X337500Y275500D02*
X348500Y264500D01*
X332500Y275500D02*
Y291500D01*
X347172Y260828D02*
X399172D01*
X332500Y275500D02*
X347172Y260828D01*
X399172D02*
X402500Y257500D01*
X414250D01*
X322750Y376750D02*
Y388750D01*
X322500Y376500D02*
X322750Y376750D01*
Y388750D02*
X323000Y389000D01*
X332500Y376500D02*
Y395000D01*
X348541Y352000D02*
X349041Y351500D01*
X362500D01*
X348000Y352000D02*
X348541D01*
X362500Y331500D02*
X407500D01*
X353000Y332000D02*
X353250Y331750D01*
X438000Y313250D02*
Y325000D01*
X431250Y306500D02*
X438000Y313250D01*
X362500Y306500D02*
X431250D01*
X312750Y300750D02*
X313000Y301000D01*
X312500Y291500D02*
X312750Y291750D01*
Y300750D01*
X286000Y351500D02*
X286000Y351500D01*
X277500Y351500D02*
X286000D01*
X277500Y361500D02*
X291000D01*
X407500Y334000D02*
Y349000D01*
X407500D01*
X407500Y331500D02*
Y334000D01*
X268250Y346750D02*
X277250D01*
X277500Y346500D01*
X268000Y347000D02*
X268250Y346750D01*
X362500Y321500D02*
X406250D01*
X404500Y280000D02*
X407500D01*
X401500Y272000D02*
X404500Y275000D01*
X350950Y272000D02*
X401500D01*
X404500Y275000D02*
Y280000D01*
X347500Y275450D02*
Y291500D01*
Y275450D02*
X350950Y272000D01*
X362500Y326500D02*
X374000D01*
X362500Y341500D02*
X378000D01*
X362500Y346500D02*
X375000D01*
X307250Y291750D02*
Y300750D01*
X307000Y301000D02*
X307250Y300750D01*
Y291750D02*
X307500Y291500D01*
X291328Y388000D02*
X292500Y386828D01*
X231000Y388000D02*
X291328D01*
X292500Y376500D02*
Y386828D01*
X390750Y311250D02*
X391000Y311000D01*
X362750Y311250D02*
X390750D01*
X362500Y311500D02*
X362750Y311250D01*
Y316250D02*
X395750D01*
X396000Y316000D01*
X362500Y316500D02*
X362750Y316250D01*
X342500Y275500D02*
Y291500D01*
Y275500D02*
X350000Y268000D01*
X409000D01*
X292500Y274000D02*
Y291500D01*
X292500Y274000D02*
X292500Y274000D01*
X297500Y376500D02*
Y391828D01*
X296328Y393000D02*
X297500Y391828D01*
X226000Y393000D02*
X296328D01*
X301329Y398000D02*
X302500Y396828D01*
Y376500D02*
Y396828D01*
X221000Y398000D02*
X301329D01*
X307500Y376500D02*
Y400500D01*
X305000Y403000D02*
X307500Y400500D01*
X216000Y403000D02*
X305000D01*
X362750Y336250D02*
X374750D01*
X375000Y336000D01*
X362500Y336500D02*
X362750Y336250D01*
X353250Y331750D02*
X362250D01*
X362500Y331500D01*
X474000Y798000D02*
X471000Y795000D01*
X474000Y805000D02*
Y798000D01*
X471000Y795000D02*
X373000D01*
X321500Y871500D02*
X276500D01*
X331000Y871000D02*
X330750Y871250D01*
X246000Y889750D02*
Y878000D01*
X252750Y896500D02*
X246000Y889750D01*
X321500Y896500D02*
X252750D01*
X371250Y902250D02*
X371000Y902000D01*
X371500Y911500D02*
X371250Y911250D01*
Y902250D01*
X175500Y806500D02*
X167000Y815000D01*
X168541Y803000D02*
X167541Y802000D01*
X167000D01*
X304959Y803000D02*
X168541D01*
X305879Y806500D02*
X175500D01*
X176071Y830929D02*
Y815828D01*
X172418Y822582D02*
Y814531D01*
X176950Y810000D02*
X172418Y814531D01*
X301500Y813500D02*
X178400D01*
X176071Y815828D01*
X304429Y810000D02*
X176950D01*
X302500Y799500D02*
X172500D01*
X167000Y794000D01*
X180000Y840000D02*
Y818171D01*
X305996Y806617D02*
X305879Y806500D01*
X308000Y820000D02*
X301500Y813500D01*
X307929Y813500D02*
X304429Y810000D01*
X181172Y817000D02*
X180000Y818171D01*
X307617Y806617D02*
X305996D01*
X298500Y817000D02*
X181172D01*
X308000Y826500D02*
X298500Y817000D01*
X308000Y813500D02*
X307929D01*
X307459Y800500D02*
X304959Y803000D01*
X308000Y807000D02*
X307617Y806617D01*
X308000Y794000D02*
X302500Y799500D01*
X398000Y851500D02*
X398000Y851500D01*
X406500Y851500D02*
X398000D01*
X406500Y841500D02*
X393000D01*
X364000Y786000D02*
X325250D01*
X276500Y869000D02*
Y854000D01*
X276500D01*
X276500Y871500D02*
Y869000D01*
X351500Y803500D02*
X351250D01*
X351500Y826500D02*
Y803500D01*
X415750Y856250D02*
X406750D01*
X406500Y856500D01*
X416000Y856000D02*
X415750Y856250D01*
X321500Y881500D02*
X277750D01*
X279500Y923000D02*
X276500D01*
X269250Y915750D02*
X269000D01*
X276500Y923000D02*
X269250Y915750D01*
X282500Y931000D02*
X279500Y928000D01*
X333050Y931000D02*
X282500D01*
X279500Y928000D02*
Y923000D01*
X336500Y927550D02*
Y911500D01*
Y927550D02*
X333050Y931000D01*
X321500Y876500D02*
X310000D01*
X321500Y861500D02*
X306000D01*
X321500Y856500D02*
X309000D01*
X281500Y945500D02*
X269750D01*
X284828Y942172D02*
X281500Y945500D01*
X376750Y911250D02*
Y902250D01*
X377000Y902000D02*
X376750Y902250D01*
Y911250D02*
X376500Y911500D01*
X356500Y826500D02*
Y813750D01*
X356500Y813750D02*
X356500Y813750D01*
X392672Y815000D02*
X391500Y816172D01*
X453000Y815000D02*
X392672D01*
X391500Y826500D02*
Y816172D01*
X366000Y814000D02*
X362672D01*
X361500Y826500D02*
Y815172D01*
X362672Y814000D02*
X361500Y815172D01*
X278844Y950844D02*
X269406D01*
X269250Y950687D01*
X356500Y927500D02*
X340000Y944000D01*
X339950D01*
X356500Y927500D02*
Y911500D01*
X287172Y945672D02*
X282000Y950844D01*
X278844D01*
X339950Y944000D02*
X338278Y945672D01*
X287172D01*
X275375Y956062D02*
X269375D01*
X269250Y956188D01*
X361500Y927500D02*
X339828Y949172D01*
X289891D01*
X361500Y927500D02*
Y911500D01*
X283000Y956062D02*
X275375D01*
X289891Y949172D02*
X283000Y956062D01*
X346500Y927500D02*
X335500Y938500D01*
X281041D01*
X346500Y927500D02*
Y911500D01*
X279541Y940000D02*
X269438D01*
X281041Y938500D02*
X279541Y940000D01*
X293250Y891750D02*
X293000Y892000D01*
X321250Y891750D02*
X293250D01*
X321500Y891500D02*
X321250Y891750D01*
X351500Y927500D02*
X336828Y942172D01*
X284828D01*
X351500Y927500D02*
Y911500D01*
X321250Y886750D02*
X288250D01*
X288000Y887000D01*
X321500Y886500D02*
X321250Y886750D01*
X341500Y927500D02*
Y911500D01*
Y927500D02*
X334000Y935000D01*
X275000D01*
X391500Y929000D02*
Y911500D01*
X391500Y929000D02*
X391500Y929000D01*
X386500Y826500D02*
Y811172D01*
X387672Y810000D02*
X386500Y811172D01*
X458000Y810000D02*
X387672D01*
X382672Y805000D02*
X381500Y806172D01*
Y826500D02*
Y806172D01*
X463000Y805000D02*
X382672D01*
X376500Y826500D02*
Y802500D01*
X379000Y800000D02*
X376500Y802500D01*
X468000Y800000D02*
X379000D01*
X371500Y826500D02*
Y801500D01*
X364000Y794000D01*
X373000Y795000D02*
X364000Y786000D01*
X308000Y800500D02*
X307459D01*
X321250Y866750D02*
X309250D01*
X309000Y867000D01*
X321500Y866500D02*
X321250Y866750D01*
X330750Y871250D02*
X321750D01*
X321500Y871500D01*
X321750Y851250D02*
X321500Y851500D01*
X335750Y851250D02*
X321750D01*
X336000Y851000D02*
X335750Y851250D01*
X180000Y840000D02*
X167000Y853000D01*
X176071Y830929D02*
X167000Y840000D01*
X172418Y822582D02*
X167000Y828000D01*
D32*
X277500Y683500D02*
X288500D01*
X362500Y688500D02*
X372688D01*
X374188Y690000D01*
X375000D01*
X163644Y521000D02*
X207000D01*
X158394Y515750D02*
X163644Y521000D01*
X156500Y515750D02*
X158394D01*
X347500Y703500D02*
X353250D01*
X292500Y590500D02*
Y601000D01*
X148000Y493000D02*
Y553000D01*
X277500Y356500D02*
X288500D01*
X362500Y361500D02*
X372688D01*
X374188Y363000D01*
X375000D01*
X163644Y194000D02*
X207000D01*
X158394Y188750D02*
X163644Y194000D01*
X156500Y188750D02*
X158394D01*
X347500Y376500D02*
X353250D01*
X292500Y263500D02*
Y274000D01*
X148000Y166000D02*
Y226000D01*
X321500Y841500D02*
X309250D01*
X520356Y1009000D02*
X477000D01*
X525606Y1014250D02*
X520356Y1009000D01*
X527500Y1014250D02*
X525606D01*
X406500Y846500D02*
X395500D01*
X336500Y826500D02*
X330750D01*
X391500Y939500D02*
Y929000D01*
X536000Y1037000D02*
Y977000D01*
D34*
X532000Y728000D02*
X533000Y729000D01*
X471000Y728000D02*
X532000D01*
X468000Y725000D02*
X471000Y728000D01*
X455500Y725000D02*
X468000D01*
X467000Y740000D02*
X471000Y736000D01*
X455500Y740000D02*
X467000D01*
X471000Y736000D02*
X514000D01*
X446500Y712500D02*
X447000Y712000D01*
X446500Y712500D02*
Y718000D01*
X440500Y724000D02*
X446500Y718000D01*
X440500Y724000D02*
Y725000D01*
Y725500D02*
Y740000D01*
X424000Y741500D02*
Y746000D01*
X422500Y728500D02*
Y740000D01*
X521000Y750000D02*
X528000Y743000D01*
X428000Y750000D02*
X521000D01*
X422500Y740000D02*
X424000Y741500D01*
Y746000D02*
X428000Y750000D01*
X413000Y713500D02*
X414600D01*
X413000D02*
Y718000D01*
X407500Y723500D02*
X413000Y718000D01*
X407500Y723500D02*
Y724500D01*
X406000Y697429D02*
Y707000D01*
X406500Y693500D02*
Y696929D01*
X406000Y697429D02*
X406500Y696929D01*
Y693500D02*
X407500Y692500D01*
X422500Y728500D02*
X422500Y728500D01*
X528000Y743000D02*
X533000D01*
X532000Y401000D02*
X533000Y402000D01*
X471000Y401000D02*
X532000D01*
X468000Y398000D02*
X471000Y401000D01*
X455500Y398000D02*
X468000D01*
X467000Y413000D02*
X471000Y409000D01*
X455500Y413000D02*
X467000D01*
X471000Y409000D02*
X514000D01*
X446500Y385500D02*
X447000Y385000D01*
X446500Y385500D02*
Y391000D01*
X440500Y397000D02*
X446500Y391000D01*
X440500Y397000D02*
Y398000D01*
Y398500D02*
Y413000D01*
X424000Y414500D02*
Y419000D01*
X422500Y401500D02*
Y413000D01*
X521000Y423000D02*
X528000Y416000D01*
X428000Y423000D02*
X521000D01*
X422500Y413000D02*
X424000Y414500D01*
Y419000D02*
X428000Y423000D01*
X413000Y386500D02*
X414600D01*
X413000D02*
Y391000D01*
X407500Y396500D02*
X413000Y391000D01*
X407500Y396500D02*
Y397500D01*
X406000Y370429D02*
Y380000D01*
X406500Y366500D02*
Y369929D01*
X406000Y370429D02*
X406500Y369929D01*
Y366500D02*
X407500Y365500D01*
X422500Y401500D02*
X422500Y401500D01*
X528000Y416000D02*
X533000D01*
X178809Y794000D02*
X171709Y786900D01*
X153500D02*
X151000Y789400D01*
X171709Y786900D02*
X153500D01*
X271000Y794000D02*
X178809D01*
X271000D02*
Y787000D01*
X271000Y787000D01*
D42*
X261500Y869000D02*
D03*
X276500D02*
D03*
X276500Y924000D02*
D03*
X261500D02*
D03*
Y884000D02*
D03*
X406500Y929000D02*
D03*
X391500D02*
D03*
X276500Y884000D02*
D03*
D44*
X465200Y540000D02*
D03*
Y514600D02*
D03*
X439800Y540000D02*
D03*
Y514600D02*
D03*
X414400Y540000D02*
D03*
Y514600D02*
D03*
X389000Y540000D02*
D03*
Y514600D02*
D03*
X363600Y540000D02*
D03*
Y514600D02*
D03*
X338200Y540000D02*
D03*
Y514600D02*
D03*
X312800Y540000D02*
D03*
Y514600D02*
D03*
X287400Y540000D02*
D03*
Y514600D02*
D03*
X262000Y540000D02*
D03*
Y514600D02*
D03*
X175000Y582000D02*
D03*
Y707000D02*
D03*
Y682000D02*
D03*
Y657000D02*
D03*
Y632000D02*
D03*
Y607000D02*
D03*
X465200Y213000D02*
D03*
Y187600D02*
D03*
X439800Y213000D02*
D03*
Y187600D02*
D03*
X414400Y213000D02*
D03*
Y187600D02*
D03*
X389000Y213000D02*
D03*
Y187600D02*
D03*
X363600Y213000D02*
D03*
Y187600D02*
D03*
X338200Y213000D02*
D03*
Y187600D02*
D03*
X312800Y213000D02*
D03*
Y187600D02*
D03*
X287400Y213000D02*
D03*
Y187600D02*
D03*
X262000Y213000D02*
D03*
Y187600D02*
D03*
X175000Y255000D02*
D03*
Y380000D02*
D03*
Y355000D02*
D03*
Y330000D02*
D03*
Y305000D02*
D03*
Y280000D02*
D03*
X218800Y990000D02*
D03*
Y1015400D02*
D03*
X244200Y990000D02*
D03*
Y1015400D02*
D03*
X269600Y990000D02*
D03*
Y1015400D02*
D03*
X295000Y990000D02*
D03*
Y1015400D02*
D03*
X320400Y990000D02*
D03*
Y1015400D02*
D03*
X345800Y990000D02*
D03*
Y1015400D02*
D03*
X371200Y990000D02*
D03*
Y1015400D02*
D03*
X396600Y990000D02*
D03*
Y1015400D02*
D03*
X422000Y990000D02*
D03*
Y1015400D02*
D03*
X509000Y948000D02*
D03*
Y823000D02*
D03*
Y848000D02*
D03*
Y873000D02*
D03*
Y898000D02*
D03*
Y923000D02*
D03*
D45*
X527000Y662000D02*
D03*
X517000Y524000D02*
D03*
X507000Y662000D02*
D03*
X517000Y544000D02*
D03*
X527000Y335000D02*
D03*
X517000Y197000D02*
D03*
X507000Y335000D02*
D03*
X517000Y217000D02*
D03*
X167000Y986000D02*
D03*
Y1006000D02*
D03*
X177000Y868000D02*
D03*
X157000D02*
D03*
D46*
X218005Y477951D02*
D03*
X224000Y478000D02*
D03*
X230005Y477951D02*
D03*
X218005Y471951D02*
D03*
X224000Y472000D02*
D03*
X230005Y471951D02*
D03*
X230000Y454000D02*
D03*
X224000D02*
D03*
X218000D02*
D03*
X230000Y460000D02*
D03*
X224000D02*
D03*
X218000D02*
D03*
X230000Y466000D02*
D03*
X218000D02*
D03*
X224000D02*
D03*
X497005Y477951D02*
D03*
X503000Y478000D02*
D03*
X509005Y477951D02*
D03*
X497005Y471951D02*
D03*
X503000Y472000D02*
D03*
X509005Y471951D02*
D03*
X509000Y454000D02*
D03*
X503000D02*
D03*
X497000D02*
D03*
X509000Y460000D02*
D03*
X503000D02*
D03*
X497000D02*
D03*
X509000Y466000D02*
D03*
X497000D02*
D03*
X503000D02*
D03*
X347750Y553000D02*
D03*
X210000Y725000D02*
D03*
X483000Y707000D02*
D03*
Y714000D02*
D03*
X447000Y699000D02*
D03*
X541500Y685000D02*
D03*
X534000Y670000D02*
D03*
X541500Y505000D02*
D03*
X526500Y685000D02*
D03*
Y505000D02*
D03*
X519000Y490000D02*
D03*
X504000Y700000D02*
D03*
X511500Y685000D02*
D03*
Y505000D02*
D03*
X504000Y490000D02*
D03*
X496500Y715000D02*
D03*
Y685000D02*
D03*
Y505000D02*
D03*
X489000Y490000D02*
D03*
X474000Y640000D02*
D03*
X481500Y505000D02*
D03*
X474000Y490000D02*
D03*
X459000Y640000D02*
D03*
X466500Y565000D02*
D03*
X451500D02*
D03*
Y505000D02*
D03*
X429000Y700000D02*
D03*
X421500Y715000D02*
D03*
Y565000D02*
D03*
X399000Y550000D02*
D03*
X384000Y700000D02*
D03*
X369000D02*
D03*
X376500Y505000D02*
D03*
X324000Y730000D02*
D03*
X331500Y655000D02*
D03*
X324000Y640000D02*
D03*
X301500Y745000D02*
D03*
X294000Y580000D02*
D03*
X301500Y505000D02*
D03*
X279000Y580000D02*
D03*
X264000Y700000D02*
D03*
Y640000D02*
D03*
Y580000D02*
D03*
X249000Y670000D02*
D03*
X256500Y655000D02*
D03*
X249000Y580000D02*
D03*
Y550000D02*
D03*
X219000Y670000D02*
D03*
Y490000D02*
D03*
X204000Y670000D02*
D03*
X211500Y595000D02*
D03*
X189000Y670000D02*
D03*
Y610000D02*
D03*
X159000Y700000D02*
D03*
Y670000D02*
D03*
Y640000D02*
D03*
Y610000D02*
D03*
X166500Y595000D02*
D03*
X159000Y580000D02*
D03*
X144000Y730000D02*
D03*
X457000Y707000D02*
D03*
X438000Y715000D02*
D03*
X344000Y718000D02*
D03*
X351000D02*
D03*
X468000Y675000D02*
D03*
X366000Y728000D02*
D03*
X429000Y707000D02*
D03*
X457000Y714000D02*
D03*
X430000Y715000D02*
D03*
X341000Y663000D02*
D03*
X354250Y575500D02*
D03*
X360750D02*
D03*
X288500Y683500D02*
D03*
X333000Y678000D02*
D03*
X319000Y671000D02*
D03*
X281000Y710000D02*
D03*
X338000Y652000D02*
D03*
X325000Y663000D02*
D03*
X328000Y645000D02*
D03*
X338000Y638000D02*
D03*
X327000Y629000D02*
D03*
X288000Y649000D02*
D03*
X287000Y640000D02*
D03*
X286000Y618000D02*
D03*
X285000Y607000D02*
D03*
X183000Y748000D02*
D03*
X188000Y743000D02*
D03*
X173000Y748000D02*
D03*
X178000Y743000D02*
D03*
X274000Y702000D02*
D03*
X173000Y738000D02*
D03*
X183000D02*
D03*
X163000Y748000D02*
D03*
X158000Y743000D02*
D03*
X153000Y748000D02*
D03*
X148000Y743000D02*
D03*
X168000D02*
D03*
X163000Y738000D02*
D03*
X143000D02*
D03*
X153000D02*
D03*
X267000Y686000D02*
D03*
Y681000D02*
D03*
X231000Y628000D02*
D03*
X239000D02*
D03*
X275000Y618000D02*
D03*
X231000Y612000D02*
D03*
X224000Y628000D02*
D03*
X336000Y582000D02*
D03*
X311000Y575000D02*
D03*
X326000D02*
D03*
X324000Y553000D02*
D03*
X319000Y569000D02*
D03*
Y555000D02*
D03*
X302000Y583000D02*
D03*
X278000Y592000D02*
D03*
X172000Y529000D02*
D03*
X156000Y533000D02*
D03*
Y526000D02*
D03*
X514000Y736000D02*
D03*
X507000D02*
D03*
X406000Y702000D02*
D03*
Y707000D02*
D03*
X359000Y746000D02*
D03*
X405156Y579156D02*
D03*
X412000Y612000D02*
D03*
X408625Y573937D02*
D03*
X405000Y590000D02*
D03*
X408500Y584500D02*
D03*
X323000Y716000D02*
D03*
X539000Y698000D02*
D03*
X527000D02*
D03*
X533000D02*
D03*
X527000Y713000D02*
D03*
X539000D02*
D03*
X533000D02*
D03*
X313000Y628000D02*
D03*
X484000Y638250D02*
D03*
X286000Y678500D02*
D03*
X291000Y688500D02*
D03*
X268000Y673500D02*
D03*
X406250Y648500D02*
D03*
X378000Y668500D02*
D03*
X374000Y653500D02*
D03*
X489500Y592750D02*
D03*
Y612250D02*
D03*
X496500D02*
D03*
X502500D02*
D03*
X307000Y628000D02*
D03*
X502500Y592750D02*
D03*
X496500Y592750D02*
D03*
X391000Y638000D02*
D03*
X396000Y643000D02*
D03*
X409000Y595000D02*
D03*
X292500Y590500D02*
D03*
X221000Y725000D02*
D03*
X216000Y730000D02*
D03*
X231000Y715000D02*
D03*
X226000Y720000D02*
D03*
X207000Y521000D02*
D03*
X375000Y663500D02*
D03*
Y673500D02*
D03*
X353000Y658500D02*
D03*
X348000Y679000D02*
D03*
X216000Y685000D02*
D03*
Y658500D02*
D03*
Y639500D02*
D03*
X210000Y630000D02*
D03*
X380250Y607250D02*
D03*
X348000Y634000D02*
D03*
X216000Y704500D02*
D03*
X254950Y627950D02*
D03*
X293050Y628000D02*
D03*
X218005Y150951D02*
D03*
X224000Y151000D02*
D03*
X230005Y150951D02*
D03*
X218005Y144951D02*
D03*
X224000Y145000D02*
D03*
X230005Y144951D02*
D03*
X230000Y127000D02*
D03*
X224000D02*
D03*
X218000D02*
D03*
X230000Y133000D02*
D03*
X224000D02*
D03*
X218000D02*
D03*
X230000Y139000D02*
D03*
X218000D02*
D03*
X224000D02*
D03*
X497005Y150951D02*
D03*
X503000Y151000D02*
D03*
X509005Y150951D02*
D03*
X497005Y144951D02*
D03*
X503000Y145000D02*
D03*
X509005Y144951D02*
D03*
X509000Y127000D02*
D03*
X503000D02*
D03*
X497000D02*
D03*
X509000Y133000D02*
D03*
X503000D02*
D03*
X497000D02*
D03*
X509000Y139000D02*
D03*
X497000D02*
D03*
X503000D02*
D03*
X347750Y226000D02*
D03*
X210000Y398000D02*
D03*
X483000Y380000D02*
D03*
Y387000D02*
D03*
X447000Y372000D02*
D03*
X541500Y358000D02*
D03*
X534000Y343000D02*
D03*
X541500Y178000D02*
D03*
X526500Y358000D02*
D03*
Y178000D02*
D03*
X519000Y163000D02*
D03*
X504000Y373000D02*
D03*
X511500Y358000D02*
D03*
Y178000D02*
D03*
X504000Y163000D02*
D03*
X496500Y388000D02*
D03*
Y358000D02*
D03*
Y178000D02*
D03*
X489000Y163000D02*
D03*
X474000Y313000D02*
D03*
X481500Y178000D02*
D03*
X474000Y163000D02*
D03*
X459000Y313000D02*
D03*
X466500Y238000D02*
D03*
X451500D02*
D03*
Y178000D02*
D03*
X429000Y373000D02*
D03*
X421500Y388000D02*
D03*
Y238000D02*
D03*
X399000Y223000D02*
D03*
X384000Y373000D02*
D03*
X369000D02*
D03*
X376500Y178000D02*
D03*
X324000Y403000D02*
D03*
X331500Y328000D02*
D03*
X324000Y313000D02*
D03*
X301500Y418000D02*
D03*
X294000Y253000D02*
D03*
X301500Y178000D02*
D03*
X279000Y253000D02*
D03*
X264000Y373000D02*
D03*
Y313000D02*
D03*
Y253000D02*
D03*
X249000Y343000D02*
D03*
X256500Y328000D02*
D03*
X249000Y253000D02*
D03*
Y223000D02*
D03*
X219000Y343000D02*
D03*
Y163000D02*
D03*
X204000Y343000D02*
D03*
X211500Y268000D02*
D03*
X189000Y343000D02*
D03*
Y283000D02*
D03*
X159000Y373000D02*
D03*
Y343000D02*
D03*
Y313000D02*
D03*
Y283000D02*
D03*
X166500Y268000D02*
D03*
X159000Y253000D02*
D03*
X144000Y403000D02*
D03*
X457000Y380000D02*
D03*
X438000Y388000D02*
D03*
X344000Y391000D02*
D03*
X351000D02*
D03*
X468000Y348000D02*
D03*
X366000Y401000D02*
D03*
X429000Y380000D02*
D03*
X457000Y387000D02*
D03*
X430000Y388000D02*
D03*
X341000Y336000D02*
D03*
X354250Y248500D02*
D03*
X360750D02*
D03*
X288500Y356500D02*
D03*
X333000Y351000D02*
D03*
X319000Y344000D02*
D03*
X281000Y383000D02*
D03*
X338000Y325000D02*
D03*
X325000Y336000D02*
D03*
X328000Y318000D02*
D03*
X338000Y311000D02*
D03*
X327000Y302000D02*
D03*
X288000Y322000D02*
D03*
X287000Y313000D02*
D03*
X286000Y291000D02*
D03*
X285000Y280000D02*
D03*
X183000Y421000D02*
D03*
X188000Y416000D02*
D03*
X173000Y421000D02*
D03*
X178000Y416000D02*
D03*
X274000Y375000D02*
D03*
X173000Y411000D02*
D03*
X183000D02*
D03*
X163000Y421000D02*
D03*
X158000Y416000D02*
D03*
X153000Y421000D02*
D03*
X148000Y416000D02*
D03*
X168000D02*
D03*
X163000Y411000D02*
D03*
X143000D02*
D03*
X153000D02*
D03*
X267000Y359000D02*
D03*
Y354000D02*
D03*
X231000Y301000D02*
D03*
X239000D02*
D03*
X275000Y291000D02*
D03*
X231000Y285000D02*
D03*
X224000Y301000D02*
D03*
X336000Y255000D02*
D03*
X311000Y248000D02*
D03*
X326000D02*
D03*
X324000Y226000D02*
D03*
X319000Y242000D02*
D03*
Y228000D02*
D03*
X302000Y256000D02*
D03*
X278000Y265000D02*
D03*
X172000Y202000D02*
D03*
X156000Y206000D02*
D03*
Y199000D02*
D03*
X514000Y409000D02*
D03*
X507000D02*
D03*
X406000Y375000D02*
D03*
Y380000D02*
D03*
X359000Y419000D02*
D03*
X405156Y252156D02*
D03*
X412000Y285000D02*
D03*
X408625Y246938D02*
D03*
X405000Y263000D02*
D03*
X408500Y257500D02*
D03*
X323000Y389000D02*
D03*
X539000Y371000D02*
D03*
X527000D02*
D03*
X533000D02*
D03*
X527000Y386000D02*
D03*
X539000D02*
D03*
X533000D02*
D03*
X313000Y301000D02*
D03*
X484000Y311250D02*
D03*
X286000Y351500D02*
D03*
X291000Y361500D02*
D03*
X268000Y346500D02*
D03*
X406250Y321500D02*
D03*
X378000Y341500D02*
D03*
X374000Y326500D02*
D03*
X489500Y265750D02*
D03*
Y285250D02*
D03*
X496500D02*
D03*
X502500D02*
D03*
X307000Y301000D02*
D03*
X502500Y265750D02*
D03*
X496500Y265750D02*
D03*
X391000Y311000D02*
D03*
X396000Y316000D02*
D03*
X409000Y268000D02*
D03*
X292500Y263500D02*
D03*
X221000Y398000D02*
D03*
X216000Y403000D02*
D03*
X231000Y388000D02*
D03*
X226000Y393000D02*
D03*
X207000Y194000D02*
D03*
X375000Y336500D02*
D03*
Y346500D02*
D03*
X353000Y331500D02*
D03*
X348000Y352000D02*
D03*
X216000Y358000D02*
D03*
Y331500D02*
D03*
Y312500D02*
D03*
X210000Y303000D02*
D03*
X380250Y280250D02*
D03*
X348000Y307000D02*
D03*
X216000Y377500D02*
D03*
X254950Y300950D02*
D03*
X293050Y301000D02*
D03*
X465995Y1052049D02*
D03*
X460000Y1052000D02*
D03*
X453995Y1052049D02*
D03*
X465995Y1058049D02*
D03*
X460000Y1058000D02*
D03*
X453995Y1058049D02*
D03*
X454000Y1076000D02*
D03*
X460000D02*
D03*
X466000D02*
D03*
X454000Y1070000D02*
D03*
X460000D02*
D03*
X466000D02*
D03*
X454000Y1064000D02*
D03*
X466000D02*
D03*
X460000D02*
D03*
X186995Y1052049D02*
D03*
X181000Y1052000D02*
D03*
X174995Y1052049D02*
D03*
X186995Y1058049D02*
D03*
X181000Y1058000D02*
D03*
X174995Y1058049D02*
D03*
X175000Y1076000D02*
D03*
X181000D02*
D03*
X187000D02*
D03*
X175000Y1070000D02*
D03*
X181000D02*
D03*
X187000D02*
D03*
X175000Y1064000D02*
D03*
X187000D02*
D03*
X181000D02*
D03*
X474000Y805000D02*
D03*
X521000Y792000D02*
D03*
X511000D02*
D03*
X501000D02*
D03*
X526000Y787000D02*
D03*
X516000D02*
D03*
X506000D02*
D03*
X496000D02*
D03*
X501000Y782000D02*
D03*
X541000Y792000D02*
D03*
X531000D02*
D03*
X536000Y787000D02*
D03*
X511000Y782000D02*
D03*
X521000D02*
D03*
X531000D02*
D03*
X151000Y1012000D02*
D03*
X143500Y1027000D02*
D03*
X158500D02*
D03*
X181000Y1012000D02*
D03*
X173500Y1027000D02*
D03*
X181000Y1042000D02*
D03*
X196000Y1012000D02*
D03*
X188500Y1027000D02*
D03*
X203500Y877000D02*
D03*
X211000Y892000D02*
D03*
X203500Y1027000D02*
D03*
X226000Y892000D02*
D03*
X218500Y967000D02*
D03*
X233500D02*
D03*
Y1027000D02*
D03*
X271000Y832000D02*
D03*
X263500Y967000D02*
D03*
X278500Y787000D02*
D03*
X286000Y862000D02*
D03*
X278500Y1027000D02*
D03*
X308500Y787000D02*
D03*
X316000Y802000D02*
D03*
Y832000D02*
D03*
X308500Y1027000D02*
D03*
X353500Y877000D02*
D03*
X376000Y922000D02*
D03*
X391000Y952000D02*
D03*
X383500Y997000D02*
D03*
Y1027000D02*
D03*
X398500Y787000D02*
D03*
X421000Y832000D02*
D03*
Y862000D02*
D03*
Y892000D02*
D03*
Y952000D02*
D03*
X436000Y862000D02*
D03*
Y952000D02*
D03*
Y982000D02*
D03*
X451000Y1042000D02*
D03*
X466000Y862000D02*
D03*
X458500Y1027000D02*
D03*
X466000Y1042000D02*
D03*
X481000Y862000D02*
D03*
X473500Y937000D02*
D03*
X496000Y832000D02*
D03*
Y862000D02*
D03*
X488500Y967000D02*
D03*
X503500Y997000D02*
D03*
X526000Y832000D02*
D03*
Y862000D02*
D03*
Y892000D02*
D03*
Y922000D02*
D03*
X518500Y937000D02*
D03*
X526000Y952000D02*
D03*
X371000Y902000D02*
D03*
X200000Y891750D02*
D03*
X167000Y815000D02*
D03*
Y802000D02*
D03*
X398000Y851500D02*
D03*
X393000Y841500D02*
D03*
X325250Y786000D02*
D03*
X417000Y849000D02*
D03*
X416000Y856500D02*
D03*
X277750Y881500D02*
D03*
X269000Y915750D02*
D03*
X344000Y868000D02*
D03*
X346000Y878000D02*
D03*
Y892000D02*
D03*
X348000Y948000D02*
D03*
X323250Y954500D02*
D03*
X329750D02*
D03*
X351000Y852000D02*
D03*
X366000Y859000D02*
D03*
X356000Y885000D02*
D03*
X359000Y868000D02*
D03*
X395500Y846500D02*
D03*
X396000Y881000D02*
D03*
X357000Y901000D02*
D03*
X358000Y955000D02*
D03*
X365000Y961000D02*
D03*
X373000Y955000D02*
D03*
X397000Y890000D02*
D03*
X398000Y912000D02*
D03*
X382000Y947000D02*
D03*
X399000Y923000D02*
D03*
X403000Y820000D02*
D03*
X410000Y828000D02*
D03*
X417000Y844000D02*
D03*
X409000Y912000D02*
D03*
X445000Y902000D02*
D03*
X406000Y938000D02*
D03*
X453000Y902000D02*
D03*
X460000D02*
D03*
X453000Y918000D02*
D03*
X360000Y977000D02*
D03*
X365000Y975000D02*
D03*
X512000Y1001000D02*
D03*
X528000Y997000D02*
D03*
Y1004000D02*
D03*
X306000Y861500D02*
D03*
X310000Y876500D02*
D03*
X194500Y937250D02*
D03*
Y917750D02*
D03*
X187500D02*
D03*
X181500D02*
D03*
X275500Y945500D02*
D03*
X377000Y902000D02*
D03*
X356500Y813750D02*
D03*
X181500Y937250D02*
D03*
X187500Y937250D02*
D03*
X278844Y950844D02*
D03*
X275375Y956062D02*
D03*
X279000Y940000D02*
D03*
X293000Y892000D02*
D03*
X288000Y887000D02*
D03*
X275000Y935000D02*
D03*
X391500Y939500D02*
D03*
X364000Y794000D02*
D03*
X463000Y805000D02*
D03*
X468000Y800000D02*
D03*
X453000Y815000D02*
D03*
X458000Y810000D02*
D03*
X336250Y977000D02*
D03*
X477000Y1009000D02*
D03*
X309000Y866500D02*
D03*
Y856500D02*
D03*
X331000Y871500D02*
D03*
X336000Y851000D02*
D03*
X366000Y814000D02*
D03*
X468000Y845000D02*
D03*
Y871500D02*
D03*
Y890500D02*
D03*
X474000Y900000D02*
D03*
X303750Y922750D02*
D03*
X336000Y896000D02*
D03*
X468000Y825500D02*
D03*
X429050Y902050D02*
D03*
X390950Y902000D02*
D03*
X308000Y813500D02*
D03*
Y820000D02*
D03*
Y794000D02*
D03*
Y826500D02*
D03*
Y800500D02*
D03*
Y807000D02*
D03*
X167000Y853000D02*
D03*
Y794000D02*
D03*
Y840000D02*
D03*
Y828000D02*
D03*
D47*
X475500Y624500D02*
D03*
X453500D02*
D03*
X464500D02*
D03*
Y613500D02*
D03*
X475500D02*
D03*
X453500D02*
D03*
X464500Y602500D02*
D03*
X475500D02*
D03*
X453500D02*
D03*
X464500Y591500D02*
D03*
X475500D02*
D03*
X453500D02*
D03*
Y580500D02*
D03*
X464500D02*
D03*
X475500D02*
D03*
Y297500D02*
D03*
X453500D02*
D03*
X464500D02*
D03*
Y286500D02*
D03*
X475500D02*
D03*
X453500D02*
D03*
X464500Y275500D02*
D03*
X475500D02*
D03*
X453500D02*
D03*
X464500Y264500D02*
D03*
X475500D02*
D03*
X453500D02*
D03*
Y253500D02*
D03*
X464500D02*
D03*
X475500D02*
D03*
X208500Y916500D02*
D03*
X230500Y905500D02*
D03*
X219500D02*
D03*
X208500D02*
D03*
X219500Y916500D02*
D03*
X230500D02*
D03*
X219500Y927500D02*
D03*
X208500D02*
D03*
X230500D02*
D03*
Y938500D02*
D03*
X208500D02*
D03*
X219500D02*
D03*
Y949500D02*
D03*
X208500D02*
D03*
X230500D02*
D03*
D48*
X387000Y606000D02*
D03*
X368000Y606477D02*
D03*
X203000Y695000D02*
D03*
X216000Y649000D02*
D03*
X225000Y531000D02*
D03*
X226000Y515000D02*
D03*
X192000Y531000D02*
D03*
X200000D02*
D03*
X204000Y513000D02*
D03*
X181000Y498000D02*
D03*
X193000D02*
D03*
X175000Y493000D02*
D03*
X199000D02*
D03*
X187000D02*
D03*
X375000Y690000D02*
D03*
X237000Y744000D02*
D03*
X353250Y703500D02*
D03*
X237000Y649000D02*
D03*
Y695000D02*
D03*
X148000Y553000D02*
D03*
Y493000D02*
D03*
X387000Y279000D02*
D03*
X368000Y279477D02*
D03*
X203000Y368000D02*
D03*
X216000Y322000D02*
D03*
X225000Y204000D02*
D03*
X226000Y188000D02*
D03*
X192000Y204000D02*
D03*
X200000D02*
D03*
X204000Y186000D02*
D03*
X181000Y171000D02*
D03*
X193000D02*
D03*
X175000Y166000D02*
D03*
X199000D02*
D03*
X187000D02*
D03*
X375000Y363000D02*
D03*
X237000Y417000D02*
D03*
X353250Y376500D02*
D03*
X237000Y322000D02*
D03*
Y368000D02*
D03*
X148000Y226000D02*
D03*
Y166000D02*
D03*
X309250Y841500D02*
D03*
X447000Y786000D02*
D03*
X330750Y826500D02*
D03*
X211000Y842000D02*
D03*
X212000Y833000D02*
D03*
X236000Y823000D02*
D03*
X235000Y856000D02*
D03*
Y864000D02*
D03*
X236000Y830000D02*
D03*
X235000Y872000D02*
D03*
X297000Y924000D02*
D03*
X316000Y923523D02*
D03*
X481000Y835000D02*
D03*
X468000Y881000D02*
D03*
X458000Y1015000D02*
D03*
X459000Y999000D02*
D03*
X492000Y999000D02*
D03*
X484000D02*
D03*
X480000Y1017000D02*
D03*
X503000Y1032000D02*
D03*
X491000D02*
D03*
X497000Y1037000D02*
D03*
X485000D02*
D03*
X509000D02*
D03*
X271000Y794000D02*
D03*
X271000Y787000D02*
D03*
X447000Y881000D02*
D03*
Y835000D02*
D03*
X536000Y977000D02*
D03*
Y1037000D02*
D03*
D51*
X438500Y692000D02*
D03*
X448000Y712000D02*
D03*
X457500Y692000D02*
D03*
X438500Y365000D02*
D03*
X448000Y385000D02*
D03*
X457500Y365000D02*
D03*
D52*
X420500Y692500D02*
D03*
X414000Y711500D02*
D03*
X407500Y692500D02*
D03*
X420500Y365500D02*
D03*
X414000Y384500D02*
D03*
X407500Y365500D02*
D03*
D53*
X342500Y703500D02*
D03*
X317500Y618500D02*
D03*
X297500D02*
D03*
X317500Y703500D02*
D03*
X327500Y618500D02*
D03*
X322500D02*
D03*
X337500D02*
D03*
X332500D02*
D03*
X322500Y703500D02*
D03*
X337500D02*
D03*
X332500D02*
D03*
X327500D02*
D03*
X312500D02*
D03*
X297500D02*
D03*
X302500Y618500D02*
D03*
X307500D02*
D03*
X312500D02*
D03*
X342500D02*
D03*
X347500D02*
D03*
X292500D02*
D03*
X347500Y703500D02*
D03*
X307500D02*
D03*
X302500D02*
D03*
X292500D02*
D03*
X342500Y376500D02*
D03*
X317500Y291500D02*
D03*
X297500D02*
D03*
X317500Y376500D02*
D03*
X327500Y291500D02*
D03*
X322500D02*
D03*
X337500D02*
D03*
X332500D02*
D03*
X322500Y376500D02*
D03*
X337500D02*
D03*
X332500D02*
D03*
X327500D02*
D03*
X312500D02*
D03*
X297500D02*
D03*
X302500Y291500D02*
D03*
X307500D02*
D03*
X312500D02*
D03*
X342500D02*
D03*
X347500D02*
D03*
X292500D02*
D03*
X347500Y376500D02*
D03*
X307500D02*
D03*
X302500D02*
D03*
X292500D02*
D03*
X346500Y826500D02*
D03*
X351500D02*
D03*
X356500D02*
D03*
X361500D02*
D03*
X366500D02*
D03*
X371500D02*
D03*
X386500D02*
D03*
X381500Y911500D02*
D03*
X376500D02*
D03*
X371500D02*
D03*
X361500D02*
D03*
X356500D02*
D03*
X351500D02*
D03*
X346500D02*
D03*
X341500D02*
D03*
X336500D02*
D03*
X391500D02*
D03*
X336500Y826500D02*
D03*
X341500D02*
D03*
X386500Y911500D02*
D03*
X366500D02*
D03*
X376500Y826500D02*
D03*
X381500D02*
D03*
X391500D02*
D03*
D54*
X526000Y616750D02*
D03*
Y588000D02*
D03*
X496000Y616750D02*
D03*
Y588000D02*
D03*
X526000Y289750D02*
D03*
Y261000D02*
D03*
X496000Y289750D02*
D03*
Y261000D02*
D03*
X158000Y942000D02*
D03*
Y913250D02*
D03*
X188000D02*
D03*
Y942000D02*
D03*
D55*
X423750Y574000D02*
D03*
Y590000D02*
D03*
X414250D02*
D03*
Y574000D02*
D03*
X423750Y247000D02*
D03*
Y263000D02*
D03*
X414250D02*
D03*
Y247000D02*
D03*
X269750Y956000D02*
D03*
Y940000D02*
D03*
X260250Y956000D02*
D03*
Y940000D02*
D03*
D56*
X423750Y584500D02*
D03*
Y579500D02*
D03*
X414250D02*
D03*
Y584500D02*
D03*
X423750Y257500D02*
D03*
Y252500D02*
D03*
X414250D02*
D03*
Y257500D02*
D03*
X269750Y945500D02*
D03*
Y950500D02*
D03*
X260250D02*
D03*
Y945500D02*
D03*
D57*
X277500Y683500D02*
D03*
Y678500D02*
D03*
Y673500D02*
D03*
Y653500D02*
D03*
Y648500D02*
D03*
Y643500D02*
D03*
Y638500D02*
D03*
Y633500D02*
D03*
X362500D02*
D03*
Y638500D02*
D03*
Y643500D02*
D03*
Y648500D02*
D03*
Y653500D02*
D03*
Y668500D02*
D03*
Y673500D02*
D03*
Y678500D02*
D03*
Y683500D02*
D03*
X277500Y668500D02*
D03*
Y663500D02*
D03*
Y658500D02*
D03*
Y688500D02*
D03*
X362500D02*
D03*
Y663500D02*
D03*
Y658500D02*
D03*
X277500Y356500D02*
D03*
Y351500D02*
D03*
Y346500D02*
D03*
Y326500D02*
D03*
Y321500D02*
D03*
Y316500D02*
D03*
Y311500D02*
D03*
Y306500D02*
D03*
X362500D02*
D03*
Y311500D02*
D03*
Y316500D02*
D03*
Y321500D02*
D03*
Y326500D02*
D03*
Y341500D02*
D03*
Y346500D02*
D03*
Y351500D02*
D03*
Y356500D02*
D03*
X277500Y341500D02*
D03*
Y336500D02*
D03*
Y331500D02*
D03*
Y361500D02*
D03*
X362500D02*
D03*
Y336500D02*
D03*
Y331500D02*
D03*
X406500Y851500D02*
D03*
Y856500D02*
D03*
Y876500D02*
D03*
Y881500D02*
D03*
Y886500D02*
D03*
Y891500D02*
D03*
Y896500D02*
D03*
X321500D02*
D03*
Y891500D02*
D03*
Y886500D02*
D03*
Y881500D02*
D03*
Y876500D02*
D03*
Y861500D02*
D03*
Y856500D02*
D03*
Y851500D02*
D03*
Y846500D02*
D03*
X406500Y861500D02*
D03*
Y866500D02*
D03*
Y871500D02*
D03*
Y841500D02*
D03*
X321500D02*
D03*
X406500Y846500D02*
D03*
X321500Y866500D02*
D03*
Y871500D02*
D03*
M02*
