G04*
G04 #@! TF.GenerationSoftware,Altium Limited,Altium Designer,19.1.6 (110)*
G04*
G04 Layer_Physical_Order=4*
G04 Layer_Color=16711680*
%FSLAX44Y44*%
%MOMM*%
G71*
G01*
G75*
%ADD10C,0.2500*%
%ADD13C,0.2000*%
G04:AMPARAMS|DCode=18|XSize=0.8mm|YSize=1mm|CornerRadius=0.1mm|HoleSize=0mm|Usage=FLASHONLY|Rotation=0.000|XOffset=0mm|YOffset=0mm|HoleType=Round|Shape=RoundedRectangle|*
%AMROUNDEDRECTD18*
21,1,0.8000,0.8000,0,0,0.0*
21,1,0.6000,1.0000,0,0,0.0*
1,1,0.2000,0.3000,-0.4000*
1,1,0.2000,-0.3000,-0.4000*
1,1,0.2000,-0.3000,0.4000*
1,1,0.2000,0.3000,0.4000*
%
%ADD18ROUNDEDRECTD18*%
G04:AMPARAMS|DCode=19|XSize=0.8mm|YSize=1mm|CornerRadius=0.1mm|HoleSize=0mm|Usage=FLASHONLY|Rotation=90.000|XOffset=0mm|YOffset=0mm|HoleType=Round|Shape=RoundedRectangle|*
%AMROUNDEDRECTD19*
21,1,0.8000,0.8000,0,0,90.0*
21,1,0.6000,1.0000,0,0,90.0*
1,1,0.2000,0.4000,0.3000*
1,1,0.2000,0.4000,-0.3000*
1,1,0.2000,-0.4000,-0.3000*
1,1,0.2000,-0.4000,0.3000*
%
%ADD19ROUNDEDRECTD19*%
%ADD32R,1.4000X2.4000*%
%ADD48C,2.1000*%
%ADD55R,1.4000X1.4000*%
%ADD56C,1.4000*%
%ADD64C,0.3000*%
%ADD66C,0.5000*%
%ADD67C,1.0000*%
%ADD69C,1.5000*%
%ADD71C,1.2000*%
%ADD72C,0.2540*%
%ADD73O,2.0000X1.5240*%
%ADD74C,2.0000*%
%ADD75C,1.8000*%
%ADD76P,1.9483X8X202.5*%
G04:AMPARAMS|DCode=77|XSize=2.1mm|YSize=2.1mm|CornerRadius=0.525mm|HoleSize=0mm|Usage=FLASHONLY|Rotation=90.000|XOffset=0mm|YOffset=0mm|HoleType=Round|Shape=RoundedRectangle|*
%AMROUNDEDRECTD77*
21,1,2.1000,1.0500,0,0,90.0*
21,1,1.0500,2.1000,0,0,90.0*
1,1,1.0500,0.5250,0.5250*
1,1,1.0500,0.5250,-0.5250*
1,1,1.0500,-0.5250,-0.5250*
1,1,1.0500,-0.5250,0.5250*
%
%ADD77ROUNDEDRECTD77*%
%ADD78C,1.6000*%
%ADD79R,1.6000X1.6000*%
%ADD80C,1.3500*%
%ADD81O,5.5000X2.5400*%
%ADD82O,1.3970X1.7780*%
%ADD83O,1.4000X1.6510*%
%ADD84P,1.7318X8X292.5*%
%ADD85C,0.7000*%
%ADD86C,6.0000*%
%ADD87C,0.6000*%
%ADD88C,0.4000*%
G04:AMPARAMS|DCode=89|XSize=0.6mm|YSize=1.45mm|CornerRadius=0.051mm|HoleSize=0mm|Usage=FLASHONLY|Rotation=270.000|XOffset=0mm|YOffset=0mm|HoleType=Round|Shape=RoundedRectangle|*
%AMROUNDEDRECTD89*
21,1,0.6000,1.3480,0,0,270.0*
21,1,0.4980,1.4500,0,0,270.0*
1,1,0.1020,-0.6740,-0.2490*
1,1,0.1020,-0.6740,0.2490*
1,1,0.1020,0.6740,0.2490*
1,1,0.1020,0.6740,-0.2490*
%
%ADD89ROUNDEDRECTD89*%
%ADD90O,2.0000X0.3500*%
%ADD91O,1.9000X0.6000*%
G04:AMPARAMS|DCode=92|XSize=1.27mm|YSize=2.1mm|CornerRadius=0.1588mm|HoleSize=0mm|Usage=FLASHONLY|Rotation=90.000|XOffset=0mm|YOffset=0mm|HoleType=Round|Shape=RoundedRectangle|*
%AMROUNDEDRECTD92*
21,1,1.2700,1.7825,0,0,90.0*
21,1,0.9525,2.1000,0,0,90.0*
1,1,0.3175,0.8913,0.4763*
1,1,0.3175,0.8913,-0.4763*
1,1,0.3175,-0.8913,-0.4763*
1,1,0.3175,-0.8913,0.4763*
%
%ADD92ROUNDEDRECTD92*%
G04:AMPARAMS|DCode=93|XSize=1.3mm|YSize=1.1mm|CornerRadius=0.055mm|HoleSize=0mm|Usage=FLASHONLY|Rotation=0.000|XOffset=0mm|YOffset=0mm|HoleType=Round|Shape=RoundedRectangle|*
%AMROUNDEDRECTD93*
21,1,1.3000,0.9900,0,0,0.0*
21,1,1.1900,1.1000,0,0,0.0*
1,1,0.1100,0.5950,-0.4950*
1,1,0.1100,-0.5950,-0.4950*
1,1,0.1100,-0.5950,0.4950*
1,1,0.1100,0.5950,0.4950*
%
%ADD93ROUNDEDRECTD93*%
%ADD94R,0.7000X0.9000*%
%ADD95O,0.4500X1.3500*%
%ADD96R,0.8000X0.9000*%
%ADD97R,1.8000X1.8400*%
%ADD98O,1.6500X0.6500*%
%ADD99R,0.9000X0.7000*%
G04:AMPARAMS|DCode=100|XSize=1.55mm|YSize=0.6mm|CornerRadius=0.051mm|HoleSize=0mm|Usage=FLASHONLY|Rotation=180.000|XOffset=0mm|YOffset=0mm|HoleType=Round|Shape=RoundedRectangle|*
%AMROUNDEDRECTD100*
21,1,1.5500,0.4980,0,0,180.0*
21,1,1.4480,0.6000,0,0,180.0*
1,1,0.1020,-0.7240,0.2490*
1,1,0.1020,0.7240,0.2490*
1,1,0.1020,0.7240,-0.2490*
1,1,0.1020,-0.7240,-0.2490*
%
%ADD100ROUNDEDRECTD100*%
%ADD101R,1.7000X2.5000*%
%ADD102R,4.0000X1.5000*%
G04:AMPARAMS|DCode=103|XSize=0.6mm|YSize=1.2mm|CornerRadius=0.075mm|HoleSize=0mm|Usage=FLASHONLY|Rotation=90.000|XOffset=0mm|YOffset=0mm|HoleType=Round|Shape=RoundedRectangle|*
%AMROUNDEDRECTD103*
21,1,0.6000,1.0500,0,0,90.0*
21,1,0.4500,1.2000,0,0,90.0*
1,1,0.1500,0.5250,0.2250*
1,1,0.1500,0.5250,-0.2250*
1,1,0.1500,-0.5250,-0.2250*
1,1,0.1500,-0.5250,0.2250*
%
%ADD103ROUNDEDRECTD103*%
%ADD104R,1.0000X3.3000*%
%ADD105R,1.7200X3.2000*%
%ADD106C,0.8000*%
%ADD107C,0.3500*%
%ADD108C,0.4000*%
%ADD109C,0.3810*%
G36*
X1057325Y1246823D02*
X1062068Y1245552D01*
X1066605Y1243672D01*
X1070859Y1241217D01*
X1074754Y1238227D01*
X1078227Y1234754D01*
X1081217Y1230858D01*
X1083672Y1226605D01*
X1085552Y1222068D01*
X1086823Y1217324D01*
X1087463Y1212462D01*
X1087451Y1210012D01*
X1087452Y1210006D01*
X1087451Y1210000D01*
X1087464Y570000D01*
Y567544D01*
X1086823Y562675D01*
X1085552Y557932D01*
X1083672Y553395D01*
X1081217Y549142D01*
X1078227Y545246D01*
X1074754Y541773D01*
X1070858Y538783D01*
X1066605Y536328D01*
X1062068Y534448D01*
X1057325Y533177D01*
X1052462Y532537D01*
X1050012Y532549D01*
X1050006Y532548D01*
X1050000Y532549D01*
X260000Y532536D01*
X257545D01*
X252675Y533177D01*
X247932Y534448D01*
X243395Y536328D01*
X239142Y538783D01*
X235245Y541773D01*
X231773Y545246D01*
X228783Y549142D01*
X226328Y553395D01*
X224448Y557932D01*
X223177Y562676D01*
X222537Y567538D01*
X222549Y569988D01*
X222548Y569994D01*
X222549Y570000D01*
X222536Y1210000D01*
Y1212455D01*
X223177Y1217325D01*
X224448Y1222068D01*
X226328Y1226605D01*
X228783Y1230858D01*
X231773Y1234754D01*
X235245Y1238227D01*
X239142Y1241217D01*
X243395Y1243672D01*
X247932Y1245552D01*
X252676Y1246823D01*
X257538Y1247463D01*
X259988Y1247451D01*
X259994Y1247452D01*
X260000Y1247451D01*
X574619Y1247456D01*
X574647Y1247387D01*
X574830Y1246186D01*
X574077Y1245683D01*
X573414Y1244690D01*
X573181Y1243520D01*
Y1240520D01*
X585299D01*
Y1243520D01*
X585066Y1244690D01*
X584403Y1245683D01*
X583649Y1246186D01*
X583832Y1247385D01*
X583861Y1247456D01*
X589619Y1247456D01*
X589649Y1247384D01*
X589831Y1246186D01*
X589077Y1245683D01*
X588414Y1244690D01*
X588181Y1243520D01*
Y1235520D01*
X588414Y1234350D01*
X589077Y1233357D01*
X590070Y1232694D01*
X590341Y1232640D01*
Y1230125D01*
X589041Y1229586D01*
X587161Y1228144D01*
X585718Y1226264D01*
X585571Y1225907D01*
X584205Y1225928D01*
X582988Y1227513D01*
X581111Y1228953D01*
X578926Y1229859D01*
X577580Y1230036D01*
Y1219200D01*
Y1208364D01*
X578926Y1208541D01*
X581111Y1209447D01*
X582988Y1210887D01*
X584428Y1212764D01*
X584834Y1213743D01*
X586288Y1213934D01*
X587161Y1212796D01*
X589041Y1211354D01*
X591231Y1210447D01*
X593580Y1210137D01*
X595929Y1210447D01*
X598119Y1211354D01*
X599999Y1212796D01*
X601378Y1214594D01*
X602060Y1214685D01*
X602100D01*
X602782Y1214594D01*
X604161Y1212796D01*
X606041Y1211354D01*
X608231Y1210447D01*
X609580Y1210269D01*
Y1220470D01*
Y1230671D01*
X608231Y1230493D01*
X606041Y1229586D01*
X604161Y1228144D01*
X602782Y1226346D01*
X602100Y1226255D01*
X602060D01*
X601378Y1226346D01*
X599999Y1228144D01*
X598119Y1229586D01*
X597479Y1229852D01*
Y1232509D01*
X598410Y1232694D01*
X599403Y1233357D01*
X600061Y1234342D01*
X600101Y1234349D01*
X601319D01*
X601359Y1234342D01*
X602017Y1233357D01*
X603009Y1232694D01*
X604180Y1232461D01*
X610180D01*
X611351Y1232694D01*
X612343Y1233357D01*
X613006Y1234350D01*
X613239Y1235520D01*
Y1243520D01*
X613006Y1244690D01*
X612343Y1245683D01*
X611589Y1246187D01*
X611769Y1247380D01*
X611800Y1247457D01*
X617560Y1247457D01*
X617592Y1247378D01*
X617771Y1246187D01*
X617017Y1245683D01*
X616354Y1244690D01*
X616121Y1243520D01*
Y1235520D01*
X616354Y1234350D01*
X617017Y1233357D01*
X618009Y1232694D01*
X619180Y1232461D01*
X625180D01*
X626351Y1232694D01*
X627343Y1233357D01*
X628006Y1234350D01*
X628239Y1235520D01*
Y1235951D01*
X641142D01*
X644131Y1232962D01*
Y1105108D01*
X639872Y1100849D01*
X619180D01*
Y1103171D01*
X619240Y1103630D01*
X619180Y1104089D01*
Y1115280D01*
X597980D01*
Y1079280D01*
X601270D01*
Y1048135D01*
X592425Y1039290D01*
X585790D01*
X582850Y1042230D01*
X572850D01*
X567850Y1037230D01*
Y1027230D01*
X572850Y1022230D01*
X582850D01*
X585790Y1025170D01*
X595350D01*
X597177Y1025410D01*
X598880Y1026115D01*
X600342Y1027237D01*
X613322Y1040218D01*
X614445Y1041680D01*
X615150Y1043383D01*
X615390Y1045210D01*
Y1079280D01*
X619180D01*
Y1093711D01*
X641350D01*
X642716Y1093983D01*
X643873Y1094757D01*
X650223Y1101107D01*
X650997Y1102264D01*
X651269Y1103630D01*
Y1234440D01*
X650997Y1235806D01*
X650223Y1236963D01*
X645143Y1242043D01*
X643986Y1242817D01*
X642620Y1243089D01*
X628239D01*
Y1243520D01*
X628006Y1244690D01*
X627343Y1245683D01*
X626589Y1246187D01*
X626767Y1247377D01*
X626800Y1247457D01*
X1050000Y1247464D01*
X1052456D01*
X1057325Y1246823D01*
D02*
G37*
%LPC*%
G36*
X585299Y1238520D02*
X580240D01*
Y1232461D01*
X582240D01*
X583410Y1232694D01*
X584403Y1233357D01*
X585066Y1234350D01*
X585299Y1235520D01*
Y1238520D01*
D02*
G37*
G36*
X578240D02*
X573181D01*
Y1235520D01*
X573414Y1234350D01*
X574077Y1233357D01*
X575070Y1232694D01*
X576240Y1232461D01*
X578240D01*
Y1238520D01*
D02*
G37*
G36*
X559580Y1234202D02*
X556190Y1233756D01*
X553032Y1232447D01*
X550319Y1230366D01*
X550274Y1230308D01*
X548624Y1231574D01*
X545709Y1232782D01*
X542580Y1233193D01*
X539451Y1232782D01*
X536536Y1231574D01*
X534032Y1229653D01*
X532111Y1227149D01*
X530904Y1224234D01*
X530492Y1221105D01*
Y1217295D01*
X530904Y1214166D01*
X532111Y1211251D01*
X534032Y1208747D01*
X536536Y1206826D01*
X539451Y1205619D01*
X542580Y1205207D01*
X545709Y1205619D01*
X546421Y1205913D01*
X547477Y1205208D01*
Y1193243D01*
X545903Y1191670D01*
X529980D01*
Y1147670D01*
X559180D01*
Y1170713D01*
X568139Y1179671D01*
X570062Y1182178D01*
X571271Y1185097D01*
X571684Y1188230D01*
Y1208223D01*
X572953Y1209072D01*
X574234Y1208541D01*
X575580Y1208364D01*
Y1219200D01*
Y1230036D01*
X574234Y1229859D01*
X572049Y1228953D01*
X570712Y1227928D01*
X568841Y1230366D01*
X566129Y1232447D01*
X562970Y1233756D01*
X559580Y1234202D01*
D02*
G37*
G36*
X611580Y1230671D02*
Y1221470D01*
X619658D01*
Y1221725D01*
X619348Y1224074D01*
X618441Y1226264D01*
X616999Y1228144D01*
X615119Y1229586D01*
X612929Y1230493D01*
X611580Y1230671D01*
D02*
G37*
G36*
X1051480Y1242330D02*
Y1211310D01*
X1082500D01*
X1082184Y1215331D01*
X1081008Y1220229D01*
X1079080Y1224883D01*
X1076449Y1229177D01*
X1073177Y1233007D01*
X1069347Y1236279D01*
X1065053Y1238910D01*
X1060399Y1240838D01*
X1055501Y1242014D01*
X1051480Y1242330D01*
D02*
G37*
G36*
X1049480D02*
X1045459Y1242014D01*
X1040561Y1240838D01*
X1035907Y1238910D01*
X1031613Y1236279D01*
X1027783Y1233007D01*
X1024511Y1229177D01*
X1021880Y1224883D01*
X1019952Y1220229D01*
X1018776Y1215331D01*
X1018460Y1211310D01*
X1049480D01*
Y1242330D01*
D02*
G37*
G36*
X261350D02*
Y1211310D01*
X292370D01*
X292054Y1215331D01*
X290878Y1220229D01*
X288950Y1224883D01*
X286319Y1229177D01*
X283047Y1233007D01*
X279217Y1236279D01*
X274923Y1238910D01*
X270269Y1240838D01*
X265371Y1242014D01*
X261350Y1242330D01*
D02*
G37*
G36*
X259350D02*
X255329Y1242014D01*
X250431Y1240838D01*
X245777Y1238910D01*
X241483Y1236279D01*
X237653Y1233007D01*
X234381Y1229177D01*
X231750Y1224883D01*
X229822Y1220229D01*
X228646Y1215331D01*
X228330Y1211310D01*
X259350D01*
Y1242330D01*
D02*
G37*
G36*
X619658Y1219470D02*
X611580D01*
Y1210269D01*
X612929Y1210447D01*
X615119Y1211354D01*
X616999Y1212796D01*
X618441Y1214676D01*
X619348Y1216865D01*
X619658Y1219215D01*
Y1219470D01*
D02*
G37*
G36*
X336850Y1233470D02*
X310850D01*
Y1207470D01*
X336850D01*
Y1233470D01*
D02*
G37*
G36*
X404050Y1206089D02*
X401050D01*
Y1201030D01*
X407109D01*
Y1203030D01*
X406876Y1204201D01*
X406213Y1205193D01*
X405220Y1205856D01*
X404050Y1206089D01*
D02*
G37*
G36*
X399050D02*
X396050D01*
X394879Y1205856D01*
X393887Y1205193D01*
X393224Y1204201D01*
X392991Y1203030D01*
Y1201030D01*
X399050D01*
Y1206089D01*
D02*
G37*
G36*
X430660Y1204763D02*
Y1194800D01*
X440623D01*
X440377Y1196672D01*
X439268Y1199348D01*
X437505Y1201645D01*
X435207Y1203409D01*
X432532Y1204517D01*
X430660Y1204763D01*
D02*
G37*
G36*
X428660D02*
X426788Y1204517D01*
X424113Y1203409D01*
X421815Y1201645D01*
X420051Y1199348D01*
X418943Y1196672D01*
X418697Y1194800D01*
X428660D01*
Y1204763D01*
D02*
G37*
G36*
X407109Y1199030D02*
X401050D01*
Y1193971D01*
X404050D01*
X405220Y1194204D01*
X406213Y1194867D01*
X406876Y1195860D01*
X407109Y1197030D01*
Y1199030D01*
D02*
G37*
G36*
X399050D02*
X392991D01*
Y1197030D01*
X393224Y1195860D01*
X393887Y1194867D01*
X394879Y1194204D01*
X396050Y1193971D01*
X399050D01*
Y1199030D01*
D02*
G37*
G36*
X440623Y1192800D02*
X430660D01*
Y1182837D01*
X432532Y1183083D01*
X435207Y1184192D01*
X437505Y1185955D01*
X439268Y1188252D01*
X440377Y1190928D01*
X440623Y1192800D01*
D02*
G37*
G36*
X428660D02*
X418697D01*
X418943Y1190928D01*
X420051Y1188252D01*
X421815Y1185955D01*
X424113Y1184192D01*
X426788Y1183083D01*
X428660Y1182837D01*
Y1192800D01*
D02*
G37*
G36*
X1082500Y1209310D02*
X1051480D01*
Y1178290D01*
X1055501Y1178606D01*
X1060399Y1179782D01*
X1065053Y1181710D01*
X1069347Y1184341D01*
X1073177Y1187613D01*
X1076449Y1191443D01*
X1079080Y1195737D01*
X1081008Y1200391D01*
X1082184Y1205289D01*
X1082500Y1209310D01*
D02*
G37*
G36*
X1049480D02*
X1018460D01*
X1018776Y1205289D01*
X1019952Y1200391D01*
X1021880Y1195737D01*
X1024511Y1191443D01*
X1027783Y1187613D01*
X1031613Y1184341D01*
X1035907Y1181710D01*
X1040561Y1179782D01*
X1045459Y1178606D01*
X1049480Y1178290D01*
Y1209310D01*
D02*
G37*
G36*
X292370D02*
X261350D01*
Y1178290D01*
X265371Y1178606D01*
X270269Y1179782D01*
X274923Y1181710D01*
X279217Y1184341D01*
X283047Y1187613D01*
X286319Y1191443D01*
X288950Y1195737D01*
X290878Y1200391D01*
X292054Y1205289D01*
X292370Y1209310D01*
D02*
G37*
G36*
X259350D02*
X228330D01*
X228646Y1205289D01*
X229822Y1200391D01*
X231750Y1195737D01*
X234381Y1191443D01*
X237653Y1187613D01*
X241483Y1184341D01*
X245777Y1181710D01*
X250431Y1179782D01*
X255329Y1178606D01*
X259350Y1178290D01*
Y1209310D01*
D02*
G37*
G36*
X619180Y1187670D02*
X609580D01*
Y1170670D01*
X619180D01*
Y1187670D01*
D02*
G37*
G36*
X607580D02*
X597980D01*
Y1170670D01*
X607580D01*
Y1187670D01*
D02*
G37*
G36*
X404050Y1191089D02*
X396050D01*
X394879Y1190856D01*
X393887Y1190193D01*
X393224Y1189201D01*
X392991Y1188030D01*
Y1182030D01*
X393224Y1180860D01*
X393465Y1180499D01*
X393783Y1179560D01*
X393465Y1178622D01*
X393224Y1178260D01*
X392991Y1177090D01*
Y1171090D01*
X393224Y1169920D01*
X393887Y1168927D01*
X394879Y1168264D01*
X396050Y1168031D01*
X404050D01*
X405220Y1168264D01*
X406213Y1168927D01*
X406271Y1169015D01*
X407799D01*
X407857Y1168927D01*
X408849Y1168264D01*
X410020Y1168031D01*
X418020D01*
X419190Y1168264D01*
X420183Y1168927D01*
X420846Y1169920D01*
X420966Y1170521D01*
X436254D01*
X436470Y1170198D01*
X436612Y1169340D01*
X436470Y1168482D01*
X436090Y1167913D01*
X435876Y1166840D01*
Y1165590D01*
X443930D01*
X451984D01*
Y1166840D01*
X451770Y1167913D01*
X451390Y1168482D01*
X451248Y1169340D01*
X451390Y1170198D01*
X451770Y1170767D01*
X451984Y1171840D01*
Y1176340D01*
X451770Y1177413D01*
X451163Y1178323D01*
X450253Y1178930D01*
X449180Y1179144D01*
X438680D01*
X437607Y1178930D01*
X436697Y1178323D01*
X436254Y1177659D01*
X420966D01*
X420846Y1178260D01*
X420183Y1179253D01*
X419190Y1179916D01*
X418020Y1180149D01*
X410020D01*
X408849Y1179916D01*
X407857Y1179253D01*
X406906Y1180028D01*
X406613Y1180435D01*
X406635Y1180499D01*
X406876Y1180860D01*
X407109Y1182030D01*
Y1188030D01*
X406876Y1189201D01*
X406213Y1190193D01*
X405220Y1190856D01*
X404050Y1191089D01*
D02*
G37*
G36*
X374650Y1233582D02*
X371256Y1233135D01*
X368094Y1231825D01*
X365378Y1229742D01*
X363294Y1227026D01*
X361985Y1223864D01*
X361538Y1220470D01*
X361985Y1217076D01*
X362042Y1216937D01*
Y1175270D01*
X362472Y1172007D01*
X363731Y1168966D01*
X365170Y1167091D01*
Y1159277D01*
X350288D01*
Y1161961D01*
X351158Y1163095D01*
X351964Y1165042D01*
X352239Y1167130D01*
X351964Y1169218D01*
X351158Y1171164D01*
X349876Y1172836D01*
X348298Y1174046D01*
X348209Y1174750D01*
X348298Y1175454D01*
X349876Y1176664D01*
X351158Y1178335D01*
X351964Y1180282D01*
X352239Y1182370D01*
X351964Y1184458D01*
X351158Y1186404D01*
X350288Y1187539D01*
Y1193800D01*
X349822Y1196141D01*
X348496Y1198126D01*
X345956Y1200666D01*
X343971Y1201992D01*
X341630Y1202458D01*
X314960D01*
X312619Y1201992D01*
X310634Y1200666D01*
X309364Y1199396D01*
X308038Y1197411D01*
X307807Y1196250D01*
X303170D01*
Y1182251D01*
X302251Y1181054D01*
X300992Y1178013D01*
X300562Y1174750D01*
Y1158148D01*
X277356D01*
X275733Y1159480D01*
X273040Y1160919D01*
X270118Y1161806D01*
X267080Y1162105D01*
X264041Y1161806D01*
X261120Y1160919D01*
X258427Y1159480D01*
X256067Y1157543D01*
X254130Y1155183D01*
X252690Y1152490D01*
X251804Y1149568D01*
X251505Y1146530D01*
X251804Y1143492D01*
X252690Y1140570D01*
X254130Y1137877D01*
X256067Y1135517D01*
X258427Y1133580D01*
X261120Y1132141D01*
X264041Y1131254D01*
X267080Y1130955D01*
X270118Y1131254D01*
X273040Y1132141D01*
X274521Y1132932D01*
X306070D01*
X309333Y1133362D01*
X312374Y1134621D01*
X314985Y1136625D01*
X322085Y1143725D01*
X324089Y1146336D01*
X325348Y1149377D01*
X325778Y1152640D01*
Y1174750D01*
X325348Y1178013D01*
X324089Y1181054D01*
X323170Y1182251D01*
Y1190222D01*
X338052D01*
Y1187539D01*
X337182Y1186404D01*
X336376Y1184458D01*
X336101Y1182370D01*
X336376Y1180282D01*
X337182Y1178335D01*
X338464Y1176664D01*
X340042Y1175454D01*
X340131Y1174750D01*
X340042Y1174046D01*
X338464Y1172836D01*
X337182Y1171164D01*
X336376Y1169218D01*
X336101Y1167130D01*
X336376Y1165042D01*
X337182Y1163095D01*
X338052Y1161961D01*
Y1155700D01*
X338518Y1153359D01*
X339844Y1151374D01*
X342384Y1148834D01*
X344369Y1147508D01*
X346710Y1147042D01*
X373998D01*
X376339Y1147508D01*
X378324Y1148834D01*
X379496Y1150006D01*
X380822Y1151991D01*
X381072Y1153250D01*
X385170D01*
Y1167249D01*
X386089Y1168446D01*
X387348Y1171487D01*
X387778Y1174750D01*
X387348Y1178013D01*
X387258Y1178231D01*
Y1216937D01*
X387315Y1217076D01*
X387762Y1220470D01*
X387315Y1223864D01*
X386006Y1227026D01*
X383922Y1229742D01*
X381206Y1231825D01*
X378044Y1233135D01*
X374650Y1233582D01*
D02*
G37*
G36*
X975700Y1165299D02*
X969700D01*
X968530Y1165066D01*
X967537Y1164403D01*
X966874Y1163410D01*
X966641Y1162240D01*
Y1156812D01*
X966044Y1156215D01*
X965200Y1155875D01*
X964356Y1156215D01*
X963759Y1156812D01*
Y1162240D01*
X963526Y1163410D01*
X962863Y1164403D01*
X961870Y1165066D01*
X960700Y1165299D01*
X954700D01*
X953530Y1165066D01*
X952537Y1164403D01*
X951874Y1163410D01*
X951641Y1162240D01*
Y1154240D01*
X951874Y1153070D01*
X952537Y1152077D01*
X953530Y1151414D01*
X954700Y1151181D01*
X958044D01*
Y1145832D01*
X957943Y1145330D01*
Y1142067D01*
X956674Y1141219D01*
X955533Y1141691D01*
X952400Y1142104D01*
X949267Y1141691D01*
X946348Y1140482D01*
X943841Y1138559D01*
X941918Y1136052D01*
X940709Y1133133D01*
X940415Y1130904D01*
X940340Y1130334D01*
X939060D01*
X938985Y1130904D01*
X938691Y1133133D01*
X937482Y1136052D01*
X935558Y1138559D01*
X933052Y1140482D01*
X930133Y1141691D01*
X927000Y1142104D01*
X923867Y1141691D01*
X922727Y1141219D01*
X921457Y1142067D01*
Y1142297D01*
X921556Y1142799D01*
Y1151181D01*
X924900D01*
X926070Y1151414D01*
X927063Y1152077D01*
X927726Y1153070D01*
X927959Y1154240D01*
Y1162240D01*
X927726Y1163410D01*
X927063Y1164403D01*
X926070Y1165066D01*
X924900Y1165299D01*
X918900D01*
X917729Y1165066D01*
X916737Y1164403D01*
X916074Y1163410D01*
X915841Y1162240D01*
Y1156812D01*
X915244Y1156215D01*
X914400Y1155875D01*
X913556Y1156215D01*
X912959Y1156812D01*
Y1162240D01*
X912726Y1163410D01*
X912063Y1164403D01*
X911070Y1165066D01*
X909900Y1165299D01*
X903900D01*
X902729Y1165066D01*
X901737Y1164403D01*
X901074Y1163410D01*
X900841Y1162240D01*
Y1154240D01*
X901074Y1153070D01*
X901737Y1152077D01*
X902729Y1151414D01*
X903900Y1151181D01*
X907243D01*
Y1145832D01*
X907143Y1145330D01*
Y1142067D01*
X905873Y1141219D01*
X904733Y1141691D01*
X901600Y1142104D01*
X898467Y1141691D01*
X895548Y1140482D01*
X893042Y1138559D01*
X891118Y1136052D01*
X889909Y1133133D01*
X889615Y1130904D01*
X889540Y1130334D01*
X888260D01*
X888185Y1130904D01*
X887891Y1133133D01*
X886682Y1136052D01*
X884759Y1138559D01*
X882252Y1140482D01*
X879333Y1141691D01*
X876200Y1142104D01*
X873067Y1141691D01*
X871926Y1141219D01*
X870657Y1142067D01*
Y1142297D01*
X870757Y1142799D01*
Y1151181D01*
X874100D01*
X875270Y1151414D01*
X876263Y1152077D01*
X876926Y1153070D01*
X877159Y1154240D01*
Y1162240D01*
X876926Y1163410D01*
X876263Y1164403D01*
X875270Y1165066D01*
X874100Y1165299D01*
X868100D01*
X866929Y1165066D01*
X865937Y1164403D01*
X865274Y1163410D01*
X865041Y1162240D01*
Y1156812D01*
X864444Y1156215D01*
X863600Y1155875D01*
X862756Y1156215D01*
X862159Y1156812D01*
Y1162240D01*
X861926Y1163410D01*
X861263Y1164403D01*
X860270Y1165066D01*
X859100Y1165299D01*
X853100D01*
X851929Y1165066D01*
X850937Y1164403D01*
X850274Y1163410D01*
X850041Y1162240D01*
Y1154240D01*
X850274Y1153070D01*
X850937Y1152077D01*
X851929Y1151414D01*
X853100Y1151181D01*
X856443D01*
Y1145832D01*
X856344Y1145330D01*
Y1142067D01*
X855073Y1141219D01*
X853933Y1141691D01*
X850800Y1142104D01*
X847667Y1141691D01*
X844748Y1140482D01*
X842242Y1138559D01*
X840318Y1136052D01*
X839109Y1133133D01*
X838816Y1130904D01*
X838740Y1130334D01*
X837460D01*
X837384Y1130904D01*
X837091Y1133133D01*
X835882Y1136052D01*
X833959Y1138559D01*
X831452Y1140482D01*
X828533Y1141691D01*
X825400Y1142104D01*
X822267Y1141691D01*
X821126Y1141219D01*
X819856Y1142067D01*
Y1142297D01*
X819957Y1142799D01*
Y1151181D01*
X823300D01*
X824471Y1151414D01*
X825463Y1152077D01*
X826126Y1153070D01*
X826359Y1154240D01*
Y1162240D01*
X826126Y1163410D01*
X825463Y1164403D01*
X824471Y1165066D01*
X823300Y1165299D01*
X817300D01*
X816130Y1165066D01*
X815137Y1164403D01*
X814474Y1163410D01*
X814241Y1162240D01*
Y1156812D01*
X813644Y1156215D01*
X812800Y1155875D01*
X811956Y1156215D01*
X811359Y1156812D01*
Y1162240D01*
X811126Y1163410D01*
X810463Y1164403D01*
X809471Y1165066D01*
X808300Y1165299D01*
X802300D01*
X801130Y1165066D01*
X800137Y1164403D01*
X799474Y1163410D01*
X799241Y1162240D01*
Y1154240D01*
X799474Y1153070D01*
X800137Y1152077D01*
X801130Y1151414D01*
X802300Y1151181D01*
X805643D01*
Y1145832D01*
X805544Y1145330D01*
Y1142067D01*
X804274Y1141219D01*
X803133Y1141691D01*
X800000Y1142104D01*
X796867Y1141691D01*
X793948Y1140482D01*
X791441Y1138559D01*
X789518Y1136052D01*
X788309Y1133133D01*
X787896Y1130000D01*
X788309Y1126867D01*
X789518Y1123948D01*
X791441Y1121441D01*
X793948Y1119518D01*
X796867Y1118309D01*
X799096Y1118016D01*
X799666Y1117940D01*
Y1116660D01*
X799096Y1116584D01*
X796867Y1116291D01*
X793948Y1115082D01*
X791441Y1113158D01*
X789518Y1110652D01*
X788309Y1107733D01*
X787896Y1104600D01*
X788309Y1101467D01*
X789518Y1098548D01*
X791441Y1096041D01*
X793948Y1094118D01*
X796867Y1092909D01*
X800000Y1092496D01*
X803133Y1092909D01*
X804274Y1093381D01*
X805544Y1092533D01*
Y912067D01*
X804274Y911219D01*
X803133Y911691D01*
X800000Y912104D01*
X796867Y911691D01*
X793948Y910482D01*
X791441Y908559D01*
X789518Y906052D01*
X788309Y903133D01*
X787896Y900000D01*
X788309Y896867D01*
X789518Y893948D01*
X791441Y891441D01*
X793948Y889518D01*
X796867Y888309D01*
X799096Y888016D01*
X799666Y887940D01*
Y886660D01*
X799096Y886584D01*
X796867Y886291D01*
X793948Y885082D01*
X791441Y883158D01*
X789518Y880652D01*
X788309Y877733D01*
X787896Y874600D01*
X788309Y871467D01*
X789518Y868548D01*
X791441Y866041D01*
X793948Y864118D01*
X796867Y862909D01*
X800000Y862496D01*
X803133Y862909D01*
X804274Y863381D01*
X805544Y862533D01*
Y682067D01*
X804274Y681219D01*
X803133Y681691D01*
X800000Y682104D01*
X796867Y681691D01*
X793948Y680482D01*
X791441Y678559D01*
X789518Y676052D01*
X788309Y673133D01*
X787896Y670000D01*
X788309Y666867D01*
X789518Y663948D01*
X791441Y661441D01*
X793948Y659518D01*
X796867Y658309D01*
X799096Y658016D01*
X799666Y657940D01*
Y656660D01*
X799096Y656584D01*
X796867Y656291D01*
X793948Y655082D01*
X791441Y653158D01*
X789518Y650652D01*
X788309Y647733D01*
X787896Y644600D01*
X788309Y641467D01*
X789518Y638548D01*
X791441Y636041D01*
X793948Y634118D01*
X796867Y632909D01*
X800000Y632496D01*
X803133Y632909D01*
X806052Y634118D01*
X808559Y636041D01*
X810482Y638548D01*
X811691Y641467D01*
X811984Y643696D01*
X812060Y644266D01*
X813340D01*
X813416Y643696D01*
X813709Y641467D01*
X814918Y638548D01*
X816842Y636041D01*
X819348Y634118D01*
X822267Y632909D01*
X825400Y632496D01*
X828533Y632909D01*
X831452Y634118D01*
X833959Y636041D01*
X835882Y638548D01*
X837091Y641467D01*
X837384Y643696D01*
X837460Y644266D01*
X838740D01*
X838816Y643696D01*
X839109Y641467D01*
X840318Y638548D01*
X842242Y636041D01*
X844748Y634118D01*
X847667Y632909D01*
X850800Y632496D01*
X853933Y632909D01*
X856852Y634118D01*
X856911Y634163D01*
X858171Y632903D01*
Y623737D01*
X854713Y620279D01*
X713808D01*
X691963Y642123D01*
X690971Y642786D01*
X689800Y643019D01*
X689800Y643019D01*
X652511D01*
X652294Y643343D01*
X652094Y644736D01*
X652922Y645977D01*
X653035Y646542D01*
X656303Y649810D01*
X656966Y650802D01*
X657199Y651973D01*
X657199Y651973D01*
Y662850D01*
X657199Y662850D01*
X656966Y664020D01*
X656303Y665013D01*
X653673Y667643D01*
X652681Y668306D01*
X651510Y668539D01*
X651510Y668539D01*
X648559D01*
Y669480D01*
X648326Y670650D01*
X647663Y671643D01*
X646671Y672306D01*
X645500Y672539D01*
X639500D01*
X638330Y672306D01*
X637337Y671643D01*
X636674Y670650D01*
X636441Y669480D01*
Y661480D01*
X636674Y660310D01*
X637337Y659317D01*
X637762Y659033D01*
X637377Y657763D01*
X632890D01*
X632511Y657688D01*
X632015Y658884D01*
X632663Y659317D01*
X633326Y660310D01*
X633559Y661480D01*
Y669480D01*
X633326Y670650D01*
X632663Y671643D01*
X631670Y672306D01*
X630500Y672539D01*
X624500D01*
X623330Y672306D01*
X622337Y671643D01*
X621674Y670650D01*
X621441Y669480D01*
Y661480D01*
X621674Y660310D01*
X622337Y659317D01*
X623330Y658654D01*
X624441Y658433D01*
Y655222D01*
X624441Y655222D01*
X624674Y654051D01*
X625337Y653059D01*
X626509Y651887D01*
X626509Y651887D01*
X627501Y651224D01*
X628672Y650991D01*
X628672Y650991D01*
X629342D01*
X629344Y650989D01*
X629904Y649721D01*
X629358Y648903D01*
X629067Y647440D01*
X629358Y645977D01*
X630186Y644736D01*
Y643643D01*
X629358Y642403D01*
X629067Y640940D01*
X629358Y639477D01*
X629986Y638537D01*
X630108Y637690D01*
X629986Y636843D01*
X629358Y635903D01*
X629067Y634440D01*
X629358Y632977D01*
X630186Y631736D01*
Y630644D01*
X629358Y629403D01*
X629067Y627940D01*
X629358Y626477D01*
X629986Y625537D01*
X630108Y624690D01*
X629986Y623843D01*
X629358Y622903D01*
X629067Y621440D01*
X629358Y619977D01*
X630186Y618736D01*
Y617644D01*
X629358Y616403D01*
X629067Y614940D01*
X629358Y613477D01*
X629986Y612537D01*
X630108Y611690D01*
X629986Y610843D01*
X629358Y609903D01*
X629067Y608440D01*
X629358Y606977D01*
X630186Y605736D01*
X631427Y604908D01*
X632890Y604617D01*
X649390D01*
X650853Y604908D01*
X652094Y605736D01*
X652511Y606361D01*
X672013D01*
X698337Y580037D01*
X698337Y580037D01*
X699330Y579374D01*
X700500Y579141D01*
X951840D01*
X951841Y579141D01*
X953011Y579374D01*
X954003Y580037D01*
X969363Y595396D01*
X969363Y595397D01*
X970026Y596389D01*
X970259Y597560D01*
X970259Y597560D01*
Y632950D01*
X970381Y633566D01*
X971529Y634286D01*
X971748Y634118D01*
X974667Y632909D01*
X977800Y632496D01*
X980933Y632909D01*
X983852Y634118D01*
X986358Y636041D01*
X988141Y638364D01*
X988144Y638366D01*
X988942Y638423D01*
X989556Y638306D01*
X990668Y636226D01*
X992542Y633942D01*
X994826Y632068D01*
X997432Y630675D01*
X1000259Y629817D01*
X1003200Y629527D01*
X1006141Y629817D01*
X1008968Y630675D01*
X1011574Y632068D01*
X1013858Y633942D01*
X1015732Y636226D01*
X1017125Y638832D01*
X1017983Y641659D01*
X1018273Y644600D01*
X1017983Y647541D01*
X1017125Y650368D01*
X1015732Y652974D01*
X1013858Y655258D01*
X1012366Y656482D01*
Y658118D01*
X1013858Y659342D01*
X1015732Y661626D01*
X1017125Y664232D01*
X1017983Y667059D01*
X1018273Y670000D01*
X1017983Y672941D01*
X1017125Y675768D01*
X1015732Y678374D01*
X1013858Y680658D01*
X1011574Y682532D01*
X1008968Y683925D01*
X1006141Y684783D01*
X1003200Y685073D01*
X1000259Y684783D01*
X997432Y683925D01*
X994826Y682532D01*
X992542Y680658D01*
X990668Y678374D01*
X989556Y676294D01*
X988942Y676177D01*
X988144Y676235D01*
X988141Y676236D01*
X986358Y678559D01*
X983852Y680482D01*
X980933Y681691D01*
X977800Y682104D01*
X974667Y681691D01*
X973527Y681219D01*
X972256Y682067D01*
Y862533D01*
X973527Y863381D01*
X974667Y862909D01*
X977800Y862496D01*
X980933Y862909D01*
X983852Y864118D01*
X986358Y866041D01*
X988141Y868364D01*
X988144Y868365D01*
X988942Y868423D01*
X989556Y868306D01*
X990668Y866226D01*
X992542Y863942D01*
X994826Y862068D01*
X997432Y860675D01*
X1000259Y859817D01*
X1003200Y859527D01*
X1006141Y859817D01*
X1008968Y860675D01*
X1011574Y862068D01*
X1013858Y863942D01*
X1015732Y866226D01*
X1017125Y868832D01*
X1017983Y871659D01*
X1018273Y874600D01*
X1017983Y877541D01*
X1017125Y880368D01*
X1015732Y882974D01*
X1013858Y885258D01*
X1012366Y886482D01*
Y888118D01*
X1013858Y889342D01*
X1015732Y891626D01*
X1017125Y894232D01*
X1017983Y897059D01*
X1018273Y900000D01*
X1017983Y902941D01*
X1017125Y905768D01*
X1015732Y908374D01*
X1013858Y910658D01*
X1011574Y912532D01*
X1008968Y913925D01*
X1006141Y914783D01*
X1003200Y915073D01*
X1000259Y914783D01*
X997432Y913925D01*
X994826Y912532D01*
X992542Y910658D01*
X990668Y908374D01*
X989556Y906294D01*
X988942Y906177D01*
X988144Y906235D01*
X988141Y906236D01*
X986358Y908559D01*
X983852Y910482D01*
X980933Y911691D01*
X977800Y912104D01*
X974667Y911691D01*
X973527Y911219D01*
X972256Y912067D01*
Y1092533D01*
X973527Y1093381D01*
X974667Y1092909D01*
X977800Y1092496D01*
X980933Y1092909D01*
X983852Y1094118D01*
X986358Y1096041D01*
X988141Y1098364D01*
X988144Y1098365D01*
X988942Y1098423D01*
X989556Y1098306D01*
X990668Y1096226D01*
X992542Y1093942D01*
X994826Y1092068D01*
X997432Y1090675D01*
X1000259Y1089817D01*
X1003200Y1089527D01*
X1006141Y1089817D01*
X1008968Y1090675D01*
X1011574Y1092068D01*
X1013858Y1093942D01*
X1015732Y1096226D01*
X1017125Y1098832D01*
X1017983Y1101659D01*
X1018273Y1104600D01*
X1017983Y1107541D01*
X1017125Y1110368D01*
X1015732Y1112974D01*
X1013858Y1115258D01*
X1012366Y1116482D01*
Y1118118D01*
X1013858Y1119342D01*
X1015732Y1121626D01*
X1017125Y1124232D01*
X1017983Y1127059D01*
X1018273Y1130000D01*
X1017983Y1132941D01*
X1017125Y1135768D01*
X1015732Y1138374D01*
X1013858Y1140658D01*
X1011574Y1142532D01*
X1008968Y1143925D01*
X1006141Y1144783D01*
X1003200Y1145073D01*
X1000259Y1144783D01*
X997432Y1143925D01*
X994826Y1142532D01*
X992542Y1140658D01*
X990668Y1138374D01*
X989556Y1136294D01*
X988942Y1136177D01*
X988144Y1136235D01*
X988141Y1136236D01*
X986358Y1138559D01*
X983852Y1140482D01*
X980933Y1141691D01*
X977800Y1142104D01*
X974667Y1141691D01*
X973527Y1141219D01*
X972256Y1142067D01*
Y1142297D01*
X972356Y1142799D01*
Y1151181D01*
X975700D01*
X976870Y1151414D01*
X977863Y1152077D01*
X978526Y1153070D01*
X978759Y1154240D01*
Y1162240D01*
X978526Y1163410D01*
X977863Y1164403D01*
X976870Y1165066D01*
X975700Y1165299D01*
D02*
G37*
G36*
X619180Y1168670D02*
X609580D01*
Y1151670D01*
X619180D01*
Y1168670D01*
D02*
G37*
G36*
X607580D02*
X597980D01*
Y1151670D01*
X607580D01*
Y1168670D01*
D02*
G37*
G36*
X1056100Y1165377D02*
X1042300D01*
Y1151550D01*
X1070795D01*
X1070422Y1154388D01*
X1068940Y1157963D01*
X1066584Y1161034D01*
X1063513Y1163391D01*
X1059937Y1164872D01*
X1056100Y1165377D01*
D02*
G37*
G36*
X1040300D02*
X1026500D01*
X1022663Y1164872D01*
X1019087Y1163391D01*
X1016016Y1161034D01*
X1013660Y1157963D01*
X1012178Y1154388D01*
X1011805Y1151550D01*
X1040300D01*
Y1165377D01*
D02*
G37*
G36*
X776700D02*
X762900D01*
Y1151550D01*
X791395D01*
X791022Y1154388D01*
X789540Y1157963D01*
X787184Y1161034D01*
X784113Y1163391D01*
X780537Y1164872D01*
X776700Y1165377D01*
D02*
G37*
G36*
X760900D02*
X747100D01*
X743263Y1164872D01*
X739687Y1163391D01*
X736616Y1161034D01*
X734260Y1157963D01*
X732778Y1154388D01*
X732405Y1151550D01*
X760900D01*
Y1165377D01*
D02*
G37*
G36*
X485140Y1210328D02*
X474980D01*
X473029Y1209940D01*
X471375Y1208835D01*
X465025Y1202485D01*
X463920Y1200831D01*
X463532Y1198880D01*
Y1190832D01*
X457405Y1184705D01*
X456300Y1183051D01*
X455912Y1181100D01*
X455912Y1163871D01*
X455961Y1163623D01*
X455937Y1163372D01*
X456154Y1162655D01*
X456300Y1161920D01*
X456441Y1161710D01*
X456514Y1161468D01*
X456941Y1160948D01*
X456784Y1160744D01*
X456282Y1159532D01*
X456185Y1159387D01*
X455615Y1158692D01*
X455527Y1158402D01*
X455358Y1158150D01*
X455183Y1157268D01*
X454922Y1156408D01*
X454952Y1156106D01*
X454893Y1155809D01*
X454892Y1151884D01*
X453539Y1150530D01*
X452196Y1150582D01*
X451844Y1151027D01*
X451714Y1151683D01*
X451770Y1151767D01*
X451984Y1152840D01*
Y1157340D01*
X451770Y1158413D01*
X451390Y1158982D01*
X451248Y1159840D01*
X451390Y1160698D01*
X451770Y1161267D01*
X451984Y1162340D01*
Y1163590D01*
X443930D01*
X435876D01*
Y1162340D01*
X436090Y1161267D01*
X436470Y1160698D01*
X436612Y1159840D01*
X436470Y1158982D01*
X436090Y1158413D01*
X435876Y1157340D01*
Y1152840D01*
X436090Y1151767D01*
X436697Y1150857D01*
X437607Y1150250D01*
X437868Y1150198D01*
X437954Y1150149D01*
X438769Y1148910D01*
X438780Y1148766D01*
X438711Y1148420D01*
Y1142420D01*
X438944Y1141249D01*
X438969Y1141211D01*
X438493Y1139639D01*
X438240Y1139534D01*
X436778Y1138412D01*
X436710Y1138324D01*
X435440Y1138755D01*
Y1148110D01*
X423679D01*
Y1152744D01*
X423605Y1153118D01*
X423536Y1153495D01*
X423527Y1153508D01*
X423524Y1153524D01*
X423311Y1153842D01*
X423104Y1154163D01*
X422665Y1154616D01*
X422515Y1154720D01*
X422390Y1154853D01*
X421372Y1155584D01*
X421340Y1155598D01*
X421316Y1155623D01*
X421011Y1155749D01*
X421079Y1156090D01*
Y1162090D01*
X420846Y1163260D01*
X420183Y1164253D01*
X419190Y1164916D01*
X418020Y1165149D01*
X410020D01*
X408849Y1164916D01*
X407857Y1164253D01*
X407799Y1164165D01*
X406271D01*
X406213Y1164253D01*
X405220Y1164916D01*
X404050Y1165149D01*
X396050D01*
X394879Y1164916D01*
X393887Y1164253D01*
X392757Y1164405D01*
X392665Y1164427D01*
X392624Y1164450D01*
X392522Y1164462D01*
X392373Y1164497D01*
X391987Y1164591D01*
X391985Y1164591D01*
X391984Y1164591D01*
X391605Y1164531D01*
X391200Y1164467D01*
X391199Y1164467D01*
X391198Y1164466D01*
X390454Y1164192D01*
X390420Y1164171D01*
X390380Y1164163D01*
X390081Y1163964D01*
X389776Y1163776D01*
X389752Y1163743D01*
X389718Y1163721D01*
X389519Y1163423D01*
X389308Y1163133D01*
X389299Y1163093D01*
X389276Y1163059D01*
X389206Y1162708D01*
X389122Y1162359D01*
X389129Y1162319D01*
X389121Y1162279D01*
X389121Y1149380D01*
X389119Y1149348D01*
X388172Y1148111D01*
X388171Y1148110D01*
X382440D01*
Y1135110D01*
X391440D01*
X400440D01*
Y1146413D01*
X401338Y1147311D01*
X403091Y1147311D01*
X403091Y1106036D01*
X403106Y1105957D01*
X403097Y1105878D01*
X403184Y1105570D01*
X403246Y1105256D01*
X403291Y1105189D01*
X403312Y1105112D01*
X403510Y1104860D01*
X403688Y1104594D01*
X403755Y1104550D01*
X403804Y1104487D01*
X403947Y1104364D01*
X404244Y1104198D01*
X404531Y1104014D01*
X405658Y1103574D01*
X405836Y1103543D01*
X406002Y1103474D01*
X406223D01*
X406441Y1103435D01*
X406618Y1103474D01*
X406798D01*
X407002Y1103558D01*
X407219Y1103606D01*
X407366Y1103709D01*
X407533Y1103778D01*
X408175Y1104207D01*
X408940Y1104359D01*
X409705Y1104207D01*
X410354Y1103774D01*
X410787Y1103125D01*
X410939Y1102360D01*
X410787Y1101595D01*
X410354Y1100946D01*
X409705Y1100513D01*
X408940Y1100361D01*
X408175Y1100513D01*
X407533Y1100942D01*
X407366Y1101011D01*
X407219Y1101114D01*
X407002Y1101162D01*
X406798Y1101246D01*
X406617D01*
X406441Y1101285D01*
X406224Y1101246D01*
X406002D01*
X405835Y1101177D01*
X405658Y1101146D01*
X404531Y1100706D01*
X404244Y1100522D01*
X403947Y1100356D01*
X403804Y1100233D01*
X403755Y1100170D01*
X403688Y1100126D01*
X403510Y1099860D01*
X403312Y1099608D01*
X403291Y1099531D01*
X403246Y1099464D01*
X403184Y1099150D01*
X403097Y1098842D01*
X403106Y1098763D01*
X403091Y1098684D01*
Y1082040D01*
X402474Y1081289D01*
X353057D01*
X350727Y1083619D01*
X350478Y1084871D01*
X349594Y1086194D01*
X348271Y1087078D01*
X346710Y1087388D01*
X345149Y1087078D01*
X343826Y1086194D01*
X342942Y1084871D01*
X342645Y1083376D01*
X341630Y1083578D01*
X340615Y1083376D01*
X340318Y1084871D01*
X339434Y1086194D01*
X338111Y1087078D01*
X336550Y1087388D01*
X334989Y1087078D01*
X333666Y1086194D01*
X332782Y1084871D01*
X332472Y1083310D01*
X332782Y1081749D01*
X333491Y1080688D01*
Y1074420D01*
X333491Y1074420D01*
X333724Y1073250D01*
X334387Y1072257D01*
X340737Y1065907D01*
X340737Y1065907D01*
X341729Y1065244D01*
X342900Y1065011D01*
X355080D01*
X355511Y1063741D01*
X354418Y1062902D01*
X353296Y1061440D01*
X352590Y1059737D01*
X352350Y1057910D01*
X352590Y1056083D01*
X352734Y1055735D01*
X351961Y1054727D01*
X351400Y1054801D01*
X349829D01*
X348750Y1055248D01*
X346400Y1055558D01*
X335070D01*
Y1060680D01*
X307070D01*
Y1032280D01*
Y1006880D01*
Y981480D01*
X307070D01*
Y961578D01*
X305070D01*
Y981480D01*
X305070D01*
Y1006880D01*
Y1032280D01*
Y1060680D01*
X289624D01*
X285112Y1065192D01*
X283023Y1066795D01*
X280590Y1067803D01*
X278960Y1068017D01*
X278093Y1069073D01*
X275733Y1071010D01*
X273040Y1072449D01*
X270118Y1073336D01*
X267080Y1073635D01*
X264041Y1073336D01*
X261120Y1072449D01*
X258427Y1071010D01*
X256067Y1069073D01*
X254130Y1066713D01*
X252690Y1064020D01*
X251804Y1061099D01*
X251505Y1058060D01*
X251804Y1055022D01*
X252690Y1052100D01*
X254130Y1049407D01*
X256067Y1047047D01*
X258427Y1045110D01*
X261120Y1043671D01*
X264041Y1042784D01*
X267080Y1042485D01*
X270118Y1042784D01*
X273040Y1043671D01*
X275733Y1045110D01*
X276088Y1045402D01*
X277070Y1044584D01*
Y1036556D01*
X275800Y1035955D01*
X275733Y1036010D01*
X273040Y1037449D01*
X270118Y1038336D01*
X267080Y1038635D01*
X264041Y1038336D01*
X261120Y1037449D01*
X258427Y1036010D01*
X256067Y1034073D01*
X254130Y1031713D01*
X252690Y1029020D01*
X251804Y1026099D01*
X251505Y1023060D01*
X251804Y1020022D01*
X252690Y1017100D01*
X254130Y1014407D01*
X256067Y1012047D01*
X258427Y1010110D01*
X261120Y1008671D01*
X264041Y1007784D01*
X267080Y1007485D01*
X270118Y1007784D01*
X273040Y1008671D01*
X275733Y1010110D01*
X275800Y1010165D01*
X277070Y1009564D01*
Y1005766D01*
X274700D01*
X272089Y1005423D01*
X269657Y1004415D01*
X268463Y1003499D01*
X267080Y1003635D01*
X264041Y1003336D01*
X261120Y1002449D01*
X258427Y1001010D01*
X256067Y999073D01*
X254130Y996713D01*
X252690Y994020D01*
X251804Y991099D01*
X251505Y988060D01*
X251804Y985022D01*
X252690Y982100D01*
X254130Y979407D01*
X256067Y977047D01*
X258427Y975110D01*
X261120Y973671D01*
X264041Y972784D01*
X267080Y972485D01*
X270118Y972784D01*
X273040Y973671D01*
X275733Y975110D01*
X275922Y975265D01*
X277070Y974722D01*
Y973324D01*
X271625Y967879D01*
X270118Y968336D01*
X267080Y968635D01*
X264041Y968336D01*
X261120Y967449D01*
X258427Y966010D01*
X256067Y964073D01*
X254130Y961713D01*
X252690Y959020D01*
X251804Y956098D01*
X251505Y953060D01*
X251804Y950022D01*
X252690Y947100D01*
X254130Y944407D01*
X256067Y942047D01*
X258427Y940110D01*
X261120Y938671D01*
X264041Y937784D01*
X267080Y937485D01*
X270118Y937784D01*
X273040Y938671D01*
X273076Y938689D01*
X273840Y937658D01*
X269831Y933649D01*
X261830D01*
X259154Y933296D01*
X256661Y932263D01*
X254520Y930620D01*
X252876Y928479D01*
X251844Y925986D01*
X251491Y923310D01*
Y912810D01*
X251844Y910134D01*
X252876Y907641D01*
X254520Y905500D01*
X256661Y903857D01*
X259154Y902824D01*
X261830Y902472D01*
X272330D01*
X275006Y902824D01*
X277499Y903857D01*
X279640Y905500D01*
X281283Y907641D01*
X282316Y910134D01*
X282668Y912810D01*
Y920811D01*
X305280Y943422D01*
X333785D01*
X336135Y943732D01*
X338324Y944639D01*
X340204Y946081D01*
X342625Y948502D01*
X346400D01*
X348750Y948812D01*
X349829Y949259D01*
X351400D01*
X353554Y949542D01*
X355561Y950374D01*
X357284Y951696D01*
X358606Y953419D01*
X359438Y955426D01*
X359721Y957580D01*
X359438Y959734D01*
X358606Y961741D01*
X357284Y963464D01*
Y964396D01*
X358606Y966119D01*
X359438Y968126D01*
X359721Y970280D01*
X359438Y972434D01*
X358606Y974441D01*
X357284Y976164D01*
X355561Y977486D01*
X354995Y977721D01*
X354870Y978985D01*
X355185Y979195D01*
X356345Y980932D01*
X356753Y982980D01*
X356345Y985028D01*
X355185Y986765D01*
X354870Y986975D01*
X354995Y988239D01*
X355561Y988474D01*
X357284Y989796D01*
X358606Y991519D01*
X359438Y993526D01*
X359721Y995680D01*
X359438Y997834D01*
X358606Y999841D01*
X357284Y1001564D01*
X355561Y1002886D01*
X354995Y1003121D01*
X354870Y1004385D01*
X355185Y1004595D01*
X356345Y1006332D01*
X356753Y1008380D01*
X356345Y1010428D01*
X355185Y1012165D01*
X354870Y1012375D01*
X354995Y1013639D01*
X355561Y1013874D01*
X357284Y1015196D01*
X358606Y1016919D01*
X359438Y1018926D01*
X359721Y1021080D01*
X359438Y1023234D01*
X358606Y1025241D01*
X357284Y1026964D01*
X355561Y1028286D01*
X354995Y1028521D01*
X354870Y1029785D01*
X355185Y1029995D01*
X356345Y1031732D01*
X356753Y1033780D01*
X356345Y1035828D01*
X355185Y1037565D01*
X354870Y1037775D01*
X354995Y1039039D01*
X355561Y1039274D01*
X357284Y1040596D01*
X358606Y1042319D01*
X359438Y1044326D01*
X359721Y1046480D01*
X359438Y1048634D01*
X359030Y1049619D01*
X359135Y1049959D01*
X359869Y1050910D01*
X361237Y1051090D01*
X362940Y1051796D01*
X364402Y1052918D01*
X365524Y1054380D01*
X366230Y1056083D01*
X366470Y1057910D01*
X366230Y1059737D01*
X365524Y1061440D01*
X364402Y1062902D01*
X363309Y1063741D01*
X363740Y1065011D01*
X422913D01*
X437171Y1050754D01*
X436715Y1049597D01*
X436616Y1049512D01*
X434180Y1049833D01*
X429420D01*
X426909Y1049502D01*
X424568Y1048533D01*
X422559Y1046991D01*
X421017Y1044982D01*
X420048Y1042641D01*
X419717Y1040130D01*
X420048Y1037619D01*
X421017Y1035278D01*
X422559Y1033269D01*
X424568Y1031727D01*
X426909Y1030758D01*
X429420Y1030427D01*
X434180D01*
X436691Y1030758D01*
X439031Y1031727D01*
X441041Y1033269D01*
X442583Y1035278D01*
X443552Y1037619D01*
X443883Y1040130D01*
X443562Y1042566D01*
X443647Y1042664D01*
X444804Y1043120D01*
X468111Y1019813D01*
Y860865D01*
X467016Y860134D01*
X466132Y858811D01*
X465822Y857250D01*
X465955Y856579D01*
X464975Y855309D01*
X463467D01*
X462487Y856289D01*
X462238Y857541D01*
X461354Y858864D01*
X460031Y859748D01*
X458470Y860058D01*
X456909Y859748D01*
X455586Y858864D01*
X454702Y857541D01*
X454392Y855980D01*
X454702Y854419D01*
X455586Y853096D01*
X456909Y852212D01*
X458161Y851963D01*
X460037Y850087D01*
X460037Y850087D01*
X460346Y849881D01*
X461052Y848651D01*
X460742Y847090D01*
X461052Y845529D01*
X461936Y844206D01*
X463259Y843322D01*
X464820Y843012D01*
X466381Y843322D01*
X467442Y844031D01*
X473017D01*
X473017Y844031D01*
X474187Y844264D01*
X475180Y844927D01*
X481333Y851080D01*
X481333Y851080D01*
X481996Y852073D01*
X482229Y853243D01*
Y932070D01*
X498350D01*
Y936891D01*
X502350D01*
Y933960D01*
X507295D01*
X508350Y933440D01*
X508350Y932690D01*
Y920440D01*
X520350D01*
Y923531D01*
X535940D01*
X537306Y923803D01*
X538463Y924577D01*
X542273Y928387D01*
X543047Y929544D01*
X543319Y930910D01*
Y932972D01*
X543889Y933208D01*
X545769Y934651D01*
X547211Y936531D01*
X548118Y938720D01*
X548428Y941070D01*
X548118Y943419D01*
X547211Y945609D01*
X545769Y947489D01*
X543889Y948932D01*
X541699Y949838D01*
X539350Y950148D01*
X537001Y949838D01*
X536030Y949436D01*
X533126Y952341D01*
X531968Y953114D01*
X530603Y953386D01*
X524471D01*
X519850Y958007D01*
Y965960D01*
X508850D01*
Y952960D01*
X514803D01*
X519533Y948230D01*
X519007Y946960D01*
X515350D01*
Y934181D01*
X514350Y933613D01*
X513350Y934181D01*
X513350Y934710D01*
Y946960D01*
X502350D01*
Y944029D01*
X498350D01*
Y950070D01*
X493738D01*
Y951798D01*
X494120Y951874D01*
X495113Y952537D01*
X495776Y953530D01*
X496009Y954700D01*
Y960700D01*
X495776Y961870D01*
X495113Y962863D01*
X494120Y963526D01*
X492950Y963759D01*
X484950D01*
X483779Y963526D01*
X483499Y963338D01*
X482229Y964017D01*
Y966383D01*
X483499Y967062D01*
X483779Y966874D01*
X484950Y966641D01*
X487950D01*
Y972700D01*
Y978759D01*
X484950D01*
X483779Y978526D01*
X483499Y978338D01*
X482229Y979017D01*
Y1024394D01*
X481996Y1025564D01*
X481333Y1026557D01*
X481333Y1026557D01*
X429062Y1078828D01*
X429548Y1080001D01*
X485695Y1080001D01*
X485977Y1080057D01*
X486263Y1080081D01*
X486364Y1080134D01*
X486476Y1080156D01*
X486714Y1080316D01*
X486969Y1080448D01*
X487043Y1080535D01*
X487137Y1080598D01*
X488508Y1080913D01*
X488659Y1080812D01*
X490220Y1080502D01*
X491781Y1080812D01*
X491932Y1080913D01*
X493303Y1080598D01*
X493397Y1080535D01*
X493471Y1080448D01*
X493726Y1080316D01*
X493964Y1080156D01*
X494076Y1080134D01*
X494177Y1080081D01*
X494463Y1080057D01*
X494745Y1080001D01*
X501650D01*
X502430Y1080156D01*
X503092Y1080598D01*
X503534Y1081260D01*
X503689Y1082040D01*
X503689Y1115060D01*
X503534Y1115840D01*
X503092Y1116502D01*
X502430Y1116944D01*
X501650Y1117099D01*
X438579Y1117099D01*
X438168Y1117600D01*
X437780Y1119551D01*
X437085Y1120591D01*
X438024Y1121471D01*
X438240Y1121305D01*
X439943Y1120600D01*
X441770Y1120360D01*
X449770D01*
X451597Y1120600D01*
X453300Y1121305D01*
X453849Y1121727D01*
X458470D01*
X460689Y1122019D01*
X462757Y1122875D01*
X462805Y1122913D01*
X497840D01*
X500140Y1123370D01*
X503520D01*
Y1126830D01*
X503957Y1129030D01*
X503957Y1145540D01*
X503520Y1147740D01*
Y1150370D01*
X501411D01*
X500181Y1151192D01*
X497840Y1151658D01*
X482274Y1151658D01*
X481097Y1152834D01*
Y1155834D01*
X481038Y1156132D01*
X481068Y1156434D01*
X480807Y1157294D01*
X480632Y1158176D01*
X480463Y1158428D01*
X480375Y1158718D01*
X479805Y1159413D01*
X479338Y1160112D01*
X479076Y1160744D01*
X478993Y1160852D01*
X479001Y1160863D01*
X479476Y1161442D01*
X479549Y1161684D01*
X479690Y1161895D01*
X479836Y1162629D01*
X480053Y1163346D01*
X480029Y1163597D01*
X480078Y1163846D01*
X480078Y1170098D01*
X493825Y1183845D01*
X494930Y1185499D01*
X495318Y1187450D01*
Y1200150D01*
X494930Y1202101D01*
X493825Y1203755D01*
X488745Y1208835D01*
X487091Y1209940D01*
X485140Y1210328D01*
D02*
G37*
G36*
X1070795Y1149550D02*
X1042300D01*
Y1135723D01*
X1056100D01*
X1059937Y1136228D01*
X1063513Y1137710D01*
X1066584Y1140066D01*
X1068940Y1143137D01*
X1070422Y1146713D01*
X1070795Y1149550D01*
D02*
G37*
G36*
X1040300D02*
X1011805D01*
X1012178Y1146713D01*
X1013660Y1143137D01*
X1016016Y1140066D01*
X1019087Y1137710D01*
X1022663Y1136228D01*
X1026500Y1135723D01*
X1040300D01*
Y1149550D01*
D02*
G37*
G36*
X791395Y1149550D02*
X762900D01*
Y1135723D01*
X776700D01*
X780537Y1136228D01*
X784113Y1137710D01*
X787184Y1140066D01*
X789540Y1143137D01*
X791022Y1146713D01*
X791395Y1149550D01*
D02*
G37*
G36*
X760900D02*
X732405D01*
X732778Y1146713D01*
X734260Y1143137D01*
X736616Y1140066D01*
X739687Y1137710D01*
X743263Y1136228D01*
X747100Y1135723D01*
X760900D01*
Y1149550D01*
D02*
G37*
G36*
X400440Y1133110D02*
X392440D01*
Y1120110D01*
X400440D01*
Y1133110D01*
D02*
G37*
G36*
X390440D02*
X382440D01*
Y1120110D01*
X390440D01*
Y1133110D01*
D02*
G37*
G36*
X272330Y1124093D02*
X268080D01*
Y1112530D01*
X279642D01*
Y1116780D01*
X279393Y1118673D01*
X278663Y1120436D01*
X277501Y1121951D01*
X275986Y1123113D01*
X274223Y1123843D01*
X272330Y1124093D01*
D02*
G37*
G36*
X266080D02*
X261830D01*
X259937Y1123843D01*
X258174Y1123113D01*
X256659Y1121951D01*
X255497Y1120436D01*
X254767Y1118673D01*
X254517Y1116780D01*
Y1112530D01*
X266080D01*
Y1124093D01*
D02*
G37*
G36*
X400440Y1113820D02*
X392440D01*
Y1100820D01*
X400440D01*
Y1113820D01*
D02*
G37*
G36*
X390440D02*
X382440D01*
Y1100820D01*
X390440D01*
Y1113820D01*
D02*
G37*
G36*
X279642Y1110530D02*
X268080D01*
Y1098967D01*
X272330D01*
X274223Y1099217D01*
X275986Y1099947D01*
X277501Y1101109D01*
X278663Y1102624D01*
X279393Y1104387D01*
X279642Y1106280D01*
Y1110530D01*
D02*
G37*
G36*
X266080D02*
X254517D01*
Y1106280D01*
X254767Y1104387D01*
X255497Y1102624D01*
X256659Y1101109D01*
X258174Y1099947D01*
X259937Y1099217D01*
X261830Y1098967D01*
X266080D01*
Y1110530D01*
D02*
G37*
G36*
X555180Y1115280D02*
X545580D01*
Y1098280D01*
X555180D01*
Y1115280D01*
D02*
G37*
G36*
X543580D02*
X533980D01*
Y1098280D01*
X543580D01*
Y1115280D01*
D02*
G37*
G36*
X400440Y1098820D02*
X392440D01*
Y1085820D01*
X400440D01*
Y1098820D01*
D02*
G37*
G36*
X390440D02*
X382440D01*
Y1085820D01*
X390440D01*
Y1098820D01*
D02*
G37*
G36*
X555180Y1096280D02*
X545580D01*
Y1079280D01*
X555180D01*
Y1096280D01*
D02*
G37*
G36*
X543580D02*
X533980D01*
Y1079280D01*
X543580D01*
Y1096280D01*
D02*
G37*
G36*
X387350Y1060468D02*
X385399Y1060080D01*
X383745Y1058975D01*
X382640Y1057321D01*
X382252Y1055370D01*
X382640Y1053419D01*
X383745Y1051765D01*
X385177Y1050809D01*
X385048Y1049753D01*
X384965Y1049539D01*
X379730D01*
X378559Y1049306D01*
X377567Y1048643D01*
X377567Y1048643D01*
X370297Y1041373D01*
X369634Y1040380D01*
X369401Y1039210D01*
X369401Y1039210D01*
Y930855D01*
X369401Y930855D01*
X369634Y929684D01*
X370297Y928692D01*
X407851Y891138D01*
Y854277D01*
X406581Y853363D01*
X406350Y853409D01*
X393441D01*
X392915Y854679D01*
X393964Y855729D01*
X393964Y855729D01*
X394627Y856721D01*
X394814Y857661D01*
X397700D01*
X398871Y857894D01*
X399863Y858557D01*
X400526Y859549D01*
X400759Y860720D01*
Y866720D01*
X400526Y867890D01*
X399863Y868883D01*
X398871Y869546D01*
X397700Y869779D01*
X389700D01*
X388530Y869546D01*
X387537Y868883D01*
X387479Y868795D01*
X385951D01*
X385893Y868883D01*
X384901Y869546D01*
X383730Y869779D01*
X375730D01*
X374560Y869546D01*
X373567Y868883D01*
X373231Y868380D01*
X367256D01*
X367049Y868589D01*
X367035Y868648D01*
X367396Y870043D01*
X368903Y870667D01*
X370731Y872069D01*
X371962Y873674D01*
X372852Y873812D01*
X373443Y873742D01*
X373567Y873557D01*
X374560Y872894D01*
X375730Y872661D01*
X378730D01*
Y878720D01*
Y884779D01*
X375730D01*
X374560Y884546D01*
X373567Y883883D01*
X373193Y883323D01*
X373181Y883316D01*
X371866Y883206D01*
X371731Y883247D01*
X370731Y884551D01*
X368903Y885953D01*
X366774Y886835D01*
X364490Y887135D01*
X362206Y886835D01*
X360077Y885953D01*
X358249Y884551D01*
X356847Y882723D01*
X355965Y880594D01*
X355670Y878348D01*
X345460D01*
Y884450D01*
X324460D01*
Y878217D01*
X323364Y877999D01*
X321876Y877004D01*
X321333Y876462D01*
X320347Y877271D01*
X320940Y878159D01*
X321328Y880110D01*
X320940Y882061D01*
X319835Y883715D01*
X318181Y884820D01*
X316230Y885208D01*
X314279Y884820D01*
X312625Y883715D01*
X311520Y882061D01*
X311132Y880110D01*
X311520Y878159D01*
X312625Y876505D01*
X314279Y875400D01*
X316230Y875012D01*
X318181Y875400D01*
X319069Y875993D01*
X319878Y875007D01*
X318066Y873194D01*
X317071Y871706D01*
X316722Y869950D01*
Y851940D01*
X311340D01*
Y829540D01*
X311340D01*
Y829080D01*
X311340D01*
Y806680D01*
X315452D01*
Y791210D01*
X315801Y789454D01*
X316796Y787966D01*
X319336Y785426D01*
X320824Y784431D01*
X322580Y784082D01*
X324460D01*
Y774170D01*
X345460D01*
Y784082D01*
X354230D01*
X355936Y782375D01*
X355664Y780310D01*
X355965Y778026D01*
X356847Y775897D01*
X358249Y774069D01*
X360077Y772667D01*
X362206Y771785D01*
X364490Y771485D01*
X366774Y771785D01*
X368903Y772667D01*
X370731Y774069D01*
X372133Y775897D01*
X373559Y776020D01*
X373567Y776007D01*
X374560Y775344D01*
X375730Y775111D01*
X383730D01*
X384901Y775344D01*
X385893Y776007D01*
X386556Y777000D01*
X386777Y778111D01*
X392550D01*
X392550Y778111D01*
X393721Y778344D01*
X394713Y779007D01*
X400943Y785237D01*
X400943Y785237D01*
X401606Y786229D01*
X401839Y787400D01*
Y805211D01*
X406350D01*
X407329Y805406D01*
X408160Y805960D01*
X408714Y806791D01*
X408909Y807770D01*
Y811329D01*
X410179Y811855D01*
X421557Y800477D01*
X422549Y799814D01*
X423719Y799581D01*
X459658D01*
X460719Y798872D01*
X462280Y798562D01*
X463841Y798872D01*
X465164Y799756D01*
X466048Y801079D01*
X466358Y802640D01*
X466048Y804201D01*
X465164Y805524D01*
X463841Y806408D01*
X462346Y806705D01*
X462548Y807720D01*
X462238Y809281D01*
X461354Y810604D01*
X460031Y811488D01*
X458536Y811785D01*
X458738Y812800D01*
X458428Y814361D01*
X457544Y815684D01*
X456221Y816568D01*
X454750Y816860D01*
X454379Y817004D01*
X453784Y817599D01*
X453640Y817970D01*
X453348Y819441D01*
X452464Y820764D01*
X451141Y821648D01*
X449580Y821958D01*
X448019Y821648D01*
X446958Y820939D01*
X426717D01*
X425969Y821687D01*
Y900430D01*
X425969Y900430D01*
X425736Y901600D01*
X425073Y902593D01*
X425073Y902593D01*
X392949Y934717D01*
Y953254D01*
X393707Y953606D01*
X394219Y953726D01*
X395852Y952635D01*
X397900Y952227D01*
X401900D01*
Y957580D01*
Y962933D01*
X397900D01*
X395852Y962525D01*
X394219Y961434D01*
X393707Y961554D01*
X392949Y961906D01*
Y965954D01*
X393707Y966306D01*
X394219Y966426D01*
X395852Y965335D01*
X397900Y964927D01*
X407900D01*
X409948Y965335D01*
X411685Y966495D01*
X412845Y968232D01*
X413253Y970280D01*
X412845Y972328D01*
X411685Y974065D01*
X409948Y975225D01*
X407900Y975633D01*
X397900D01*
X395852Y975225D01*
X394115Y974065D01*
X393630Y973339D01*
X392430D01*
X391259Y973106D01*
X390267Y972443D01*
X390267Y972443D01*
X389042Y971218D01*
X387869Y971704D01*
Y990603D01*
X389887Y992621D01*
X393630D01*
X394115Y991895D01*
X395852Y990735D01*
X397900Y990327D01*
X407900D01*
X409948Y990735D01*
X411685Y991895D01*
X412845Y993632D01*
X413253Y995680D01*
X412845Y997728D01*
X411685Y999465D01*
X409948Y1000625D01*
X407900Y1001033D01*
X397900D01*
X395852Y1000625D01*
X394115Y999465D01*
X393630Y998739D01*
X388620D01*
X388620Y998739D01*
X387449Y998506D01*
X386457Y997843D01*
X384312Y995698D01*
X383139Y996184D01*
Y1000381D01*
X384409Y1001075D01*
X386080Y1000742D01*
X388031Y1001130D01*
X389685Y1002235D01*
X390790Y1003889D01*
X391178Y1005840D01*
X390790Y1007791D01*
X389685Y1009445D01*
X388939Y1009943D01*
X389324Y1011213D01*
X391092D01*
X391092Y1011213D01*
X392083Y1011411D01*
X392564Y1010979D01*
X392946Y1010386D01*
X392746Y1009380D01*
X401900D01*
Y1013733D01*
X397900D01*
X396371Y1013429D01*
X395745Y1014599D01*
X397043Y1015898D01*
X397900Y1015727D01*
X407900D01*
X409948Y1016135D01*
X411685Y1017295D01*
X412845Y1019032D01*
X413253Y1021080D01*
X412845Y1023128D01*
X411685Y1024865D01*
X409948Y1026025D01*
X407900Y1026433D01*
X397900D01*
X395852Y1026025D01*
X394115Y1024865D01*
X392955Y1023128D01*
X392547Y1021080D01*
X392718Y1020223D01*
X389825Y1017331D01*
X386027D01*
X386027Y1017331D01*
X384856Y1017098D01*
X383864Y1016435D01*
X383864Y1016435D01*
X377917Y1010488D01*
X377254Y1009496D01*
X377021Y1008325D01*
X377021Y1008325D01*
Y933555D01*
X375751Y932876D01*
X375519Y933031D01*
Y1037943D01*
X380997Y1043421D01*
X393630D01*
X394115Y1042695D01*
X395852Y1041535D01*
X397900Y1041127D01*
X407900D01*
X409948Y1041535D01*
X411685Y1042695D01*
X412845Y1044432D01*
X413253Y1046480D01*
X412845Y1048528D01*
X411685Y1050265D01*
X409948Y1051425D01*
X407900Y1051833D01*
X397900D01*
X395852Y1051425D01*
X394115Y1050265D01*
X393630Y1049539D01*
X389735D01*
X389652Y1049753D01*
X389523Y1050809D01*
X390955Y1051765D01*
X392060Y1053419D01*
X392448Y1055370D01*
X392060Y1057321D01*
X390955Y1058975D01*
X389301Y1060080D01*
X387350Y1060468D01*
D02*
G37*
G36*
X407900Y1039133D02*
X403900D01*
Y1034780D01*
X413054D01*
X412845Y1035828D01*
X411685Y1037565D01*
X409948Y1038725D01*
X407900Y1039133D01*
D02*
G37*
G36*
X401900D02*
X397900D01*
X395852Y1038725D01*
X394115Y1037565D01*
X392955Y1035828D01*
X392746Y1034780D01*
X401900D01*
Y1039133D01*
D02*
G37*
G36*
X413054Y1032780D02*
X403900D01*
Y1028427D01*
X407900D01*
X409948Y1028835D01*
X411685Y1029995D01*
X412845Y1031732D01*
X413054Y1032780D01*
D02*
G37*
G36*
X401900D02*
X392746D01*
X392955Y1031732D01*
X394115Y1029995D01*
X395852Y1028835D01*
X397900Y1028427D01*
X401900D01*
Y1032780D01*
D02*
G37*
G36*
X407900Y1013733D02*
X403900D01*
Y1009380D01*
X413054D01*
X412845Y1010428D01*
X411685Y1012165D01*
X409948Y1013325D01*
X407900Y1013733D01*
D02*
G37*
G36*
X434180Y1024433D02*
X429420D01*
X426909Y1024102D01*
X424568Y1023133D01*
X422559Y1021591D01*
X421017Y1019582D01*
X420048Y1017241D01*
X419717Y1014730D01*
X420048Y1012219D01*
X421017Y1009878D01*
X422559Y1007869D01*
X424568Y1006327D01*
X426909Y1005358D01*
X429420Y1005027D01*
X434180D01*
X436691Y1005358D01*
X439031Y1006327D01*
X441041Y1007869D01*
X442583Y1009878D01*
X443552Y1012219D01*
X443883Y1014730D01*
X443552Y1017241D01*
X442583Y1019582D01*
X441041Y1021591D01*
X439031Y1023133D01*
X436691Y1024102D01*
X434180Y1024433D01*
D02*
G37*
G36*
X413054Y1007380D02*
X403900D01*
Y1003027D01*
X407900D01*
X409948Y1003435D01*
X411685Y1004595D01*
X412845Y1006332D01*
X413054Y1007380D01*
D02*
G37*
G36*
X401900D02*
X392746D01*
X392955Y1006332D01*
X394115Y1004595D01*
X395852Y1003435D01*
X397900Y1003027D01*
X401900D01*
Y1007380D01*
D02*
G37*
G36*
X514350Y1009918D02*
X512789Y1009608D01*
X511466Y1008724D01*
X510582Y1007401D01*
X510272Y1005840D01*
X510582Y1004279D01*
X511466Y1002956D01*
X512789Y1002072D01*
X514350Y1001762D01*
X515911Y1002072D01*
X517234Y1002956D01*
X518118Y1004279D01*
X518428Y1005840D01*
X518118Y1007401D01*
X517234Y1008724D01*
X515911Y1009608D01*
X514350Y1009918D01*
D02*
G37*
G36*
X578850Y1007185D02*
Y998230D01*
X587805D01*
X587593Y999840D01*
X586585Y1002273D01*
X584982Y1004362D01*
X582893Y1005965D01*
X580461Y1006973D01*
X578850Y1007185D01*
D02*
G37*
G36*
X576850D02*
X575239Y1006973D01*
X572807Y1005965D01*
X570718Y1004362D01*
X569115Y1002273D01*
X568107Y999840D01*
X567895Y998230D01*
X576850D01*
Y1007185D01*
D02*
G37*
G36*
X434180Y999033D02*
X432800D01*
Y990330D01*
X443751D01*
X443552Y991841D01*
X442583Y994182D01*
X441041Y996191D01*
X439031Y997733D01*
X436691Y998702D01*
X434180Y999033D01*
D02*
G37*
G36*
X430800D02*
X429420D01*
X426909Y998702D01*
X424568Y997733D01*
X422559Y996191D01*
X421017Y994182D01*
X420048Y991841D01*
X419849Y990330D01*
X430800D01*
Y999033D01*
D02*
G37*
G36*
X576850Y996230D02*
X567895D01*
X568107Y994620D01*
X569115Y992187D01*
X570718Y990098D01*
X572807Y988495D01*
X575239Y987487D01*
X576850Y987275D01*
Y996230D01*
D02*
G37*
G36*
X587805D02*
X578850D01*
Y987275D01*
X580461Y987487D01*
X582893Y988495D01*
X584982Y990098D01*
X586585Y992187D01*
X587593Y994620D01*
X587805Y996230D01*
D02*
G37*
G36*
X407900Y988333D02*
X403900D01*
Y983980D01*
X413054D01*
X412845Y985028D01*
X411685Y986765D01*
X409948Y987925D01*
X407900Y988333D01*
D02*
G37*
G36*
X401900D02*
X397900D01*
X395852Y987925D01*
X394115Y986765D01*
X392955Y985028D01*
X392746Y983980D01*
X401900D01*
Y988333D01*
D02*
G37*
G36*
X443751Y988330D02*
X432800D01*
Y979627D01*
X434180D01*
X436691Y979958D01*
X439031Y980927D01*
X441041Y982469D01*
X442583Y984479D01*
X443552Y986819D01*
X443751Y988330D01*
D02*
G37*
G36*
X430800D02*
X419849D01*
X420048Y986819D01*
X421017Y984479D01*
X422559Y982469D01*
X424568Y980927D01*
X426909Y979958D01*
X429420Y979627D01*
X430800D01*
Y988330D01*
D02*
G37*
G36*
X413054Y981980D02*
X403900D01*
Y977627D01*
X407900D01*
X409948Y978035D01*
X411685Y979195D01*
X412845Y980932D01*
X413054Y981980D01*
D02*
G37*
G36*
X401900D02*
X392746D01*
X392955Y980932D01*
X394115Y979195D01*
X395852Y978035D01*
X397900Y977627D01*
X401900D01*
Y981980D01*
D02*
G37*
G36*
X492950Y978759D02*
X489950D01*
Y973700D01*
X496009D01*
Y975700D01*
X495776Y976870D01*
X495113Y977863D01*
X494120Y978526D01*
X492950Y978759D01*
D02*
G37*
G36*
X496009Y971700D02*
X489950D01*
Y966641D01*
X492950D01*
X494120Y966874D01*
X495113Y967537D01*
X495776Y968530D01*
X496009Y969700D01*
Y971700D01*
D02*
G37*
G36*
X407900Y962933D02*
X403900D01*
Y958580D01*
X413054D01*
X412845Y959628D01*
X411685Y961365D01*
X409948Y962525D01*
X407900Y962933D01*
D02*
G37*
G36*
X434180Y973633D02*
X429420D01*
X426909Y973302D01*
X424568Y972333D01*
X422559Y970791D01*
X421017Y968782D01*
X420048Y966441D01*
X419717Y963930D01*
X420048Y961419D01*
X421017Y959079D01*
X422559Y957069D01*
X424568Y955527D01*
X426909Y954558D01*
X429420Y954227D01*
X434180D01*
X436691Y954558D01*
X439031Y955527D01*
X441041Y957069D01*
X442583Y959079D01*
X443552Y961419D01*
X443883Y963930D01*
X443552Y966441D01*
X442583Y968782D01*
X441041Y970791D01*
X439031Y972333D01*
X436691Y973302D01*
X434180Y973633D01*
D02*
G37*
G36*
X413054Y956580D02*
X403900D01*
Y952227D01*
X407900D01*
X409948Y952635D01*
X411685Y953795D01*
X412845Y955532D01*
X413054Y956580D01*
D02*
G37*
G36*
X1056100Y935377D02*
X1042300D01*
Y921550D01*
X1070795D01*
X1070422Y924388D01*
X1068940Y927963D01*
X1066584Y931034D01*
X1063513Y933391D01*
X1059937Y934872D01*
X1056100Y935377D01*
D02*
G37*
G36*
X776700D02*
X762900D01*
Y921550D01*
X791395D01*
X791022Y924388D01*
X789540Y927963D01*
X787184Y931034D01*
X784113Y933391D01*
X780537Y934872D01*
X776700Y935377D01*
D02*
G37*
G36*
X760900D02*
X747100D01*
X743263Y934872D01*
X739687Y933391D01*
X736616Y931034D01*
X734260Y927963D01*
X732778Y924388D01*
X732405Y921550D01*
X760900D01*
Y935377D01*
D02*
G37*
G36*
X1040300D02*
X1026500D01*
X1022663Y934872D01*
X1019087Y933391D01*
X1016016Y931034D01*
X1013660Y927963D01*
X1012178Y924388D01*
X1011805Y921550D01*
X1040300D01*
Y935377D01*
D02*
G37*
G36*
X510850Y913440D02*
X505850D01*
Y907940D01*
X510850D01*
Y913440D01*
D02*
G37*
G36*
X503850D02*
X498850D01*
Y907940D01*
X503850D01*
Y913440D01*
D02*
G37*
G36*
X461010Y942358D02*
X459059Y941970D01*
X457405Y940865D01*
X456300Y939211D01*
X455912Y937260D01*
X456300Y935309D01*
X457118Y934085D01*
X456300Y932861D01*
X455912Y930910D01*
X456300Y928959D01*
X457118Y927735D01*
X456300Y926511D01*
X455912Y924560D01*
X456300Y922609D01*
X457118Y921385D01*
X456300Y920161D01*
X455912Y918210D01*
X456300Y916259D01*
X457118Y915035D01*
X456300Y913811D01*
X455912Y911860D01*
X456300Y909909D01*
X457405Y908255D01*
X459059Y907150D01*
X461010Y906762D01*
X462961Y907150D01*
X464615Y908255D01*
X465720Y909909D01*
X466108Y911860D01*
X465720Y913811D01*
X464902Y915035D01*
X465720Y916259D01*
X466108Y918210D01*
X465720Y920161D01*
X464902Y921385D01*
X465720Y922609D01*
X466108Y924560D01*
X465720Y926511D01*
X464902Y927735D01*
X465720Y928959D01*
X466108Y930910D01*
X465720Y932861D01*
X464902Y934085D01*
X465720Y935309D01*
X466108Y937260D01*
X465720Y939211D01*
X464615Y940865D01*
X462961Y941970D01*
X461010Y942358D01*
D02*
G37*
G36*
X1070795Y919550D02*
X1042300D01*
Y905723D01*
X1056100D01*
X1059937Y906228D01*
X1063513Y907710D01*
X1066584Y910066D01*
X1068940Y913137D01*
X1070422Y916713D01*
X1070795Y919550D01*
D02*
G37*
G36*
X1040300D02*
X1011805D01*
X1012178Y916713D01*
X1013660Y913137D01*
X1016016Y910066D01*
X1019087Y907710D01*
X1022663Y906228D01*
X1026500Y905723D01*
X1040300D01*
Y919550D01*
D02*
G37*
G36*
X791395D02*
X762900D01*
Y905723D01*
X776700D01*
X780537Y906228D01*
X784113Y907710D01*
X787184Y910066D01*
X789540Y913137D01*
X791022Y916713D01*
X791395Y919550D01*
D02*
G37*
G36*
X760900D02*
X732405D01*
X732778Y916713D01*
X734260Y913137D01*
X736616Y910066D01*
X739687Y907710D01*
X743263Y906228D01*
X747100Y905723D01*
X760900D01*
Y919550D01*
D02*
G37*
G36*
X510850Y905940D02*
X505850D01*
Y900440D01*
X510850D01*
Y905940D01*
D02*
G37*
G36*
X503850D02*
X498850D01*
Y900440D01*
X503850D01*
Y905940D01*
D02*
G37*
G36*
X551180Y908068D02*
X549229Y907680D01*
X547575Y906575D01*
X546470Y904921D01*
X546082Y902970D01*
X546470Y901019D01*
X547575Y899365D01*
X549229Y898260D01*
X551180Y897872D01*
X553131Y898260D01*
X554785Y899365D01*
X555890Y901019D01*
X556278Y902970D01*
X555890Y904921D01*
X554785Y906575D01*
X553131Y907680D01*
X551180Y908068D01*
D02*
G37*
G36*
X529850Y913440D02*
X517850D01*
Y900440D01*
X521451D01*
Y892892D01*
X520742Y891831D01*
X520432Y890270D01*
X520742Y888709D01*
X521626Y887386D01*
X522949Y886502D01*
X524510Y886192D01*
X526071Y886502D01*
X527394Y887386D01*
X528278Y888709D01*
X528588Y890270D01*
X528278Y891831D01*
X527569Y892892D01*
Y900440D01*
X529850D01*
Y913440D01*
D02*
G37*
G36*
X605790Y889018D02*
X603839Y888630D01*
X602185Y887525D01*
X601080Y885871D01*
X600692Y883920D01*
X601080Y881969D01*
X601168Y881838D01*
X600252Y880922D01*
X600121Y881010D01*
X598170Y881398D01*
X596219Y881010D01*
X594565Y879905D01*
X593460Y878251D01*
X593072Y876300D01*
X593460Y874349D01*
X594565Y872695D01*
X596219Y871590D01*
X598170Y871202D01*
X600121Y871590D01*
X601775Y872695D01*
X602185D01*
X603839Y871590D01*
X605790Y871202D01*
X607741Y871590D01*
X609395Y872695D01*
X610500Y874349D01*
X610888Y876300D01*
X610500Y878251D01*
X609911Y879133D01*
X609484Y880110D01*
X609911Y881087D01*
X610500Y881969D01*
X610888Y883920D01*
X610500Y885871D01*
X609395Y887525D01*
X607741Y888630D01*
X605790Y889018D01*
D02*
G37*
G36*
X397700Y884779D02*
X394700D01*
Y879720D01*
X400759D01*
Y881720D01*
X400526Y882890D01*
X399863Y883883D01*
X398871Y884546D01*
X397700Y884779D01*
D02*
G37*
G36*
X400759Y877720D02*
X394700D01*
Y872661D01*
X397700D01*
X398871Y872894D01*
X399863Y873557D01*
X400526Y874549D01*
X400759Y875720D01*
Y877720D01*
D02*
G37*
G36*
X383730Y884779D02*
X380730D01*
Y878720D01*
Y872661D01*
X383730D01*
X384901Y872894D01*
X385893Y873557D01*
X385951Y873645D01*
X387479D01*
X387537Y873557D01*
X388530Y872894D01*
X389700Y872661D01*
X392700D01*
Y878720D01*
Y884779D01*
X389700D01*
X388530Y884546D01*
X387537Y883883D01*
X387479Y883795D01*
X385951D01*
X385893Y883883D01*
X384901Y884546D01*
X383730Y884779D01*
D02*
G37*
G36*
X305460Y884450D02*
X295960D01*
Y870950D01*
X305460D01*
Y884450D01*
D02*
G37*
G36*
X293960D02*
X284460D01*
Y870950D01*
X293960D01*
Y884450D01*
D02*
G37*
G36*
X268080Y876786D02*
Y865310D01*
X279556D01*
X279258Y867573D01*
X277999Y870614D01*
X275995Y873225D01*
X273384Y875229D01*
X270343Y876488D01*
X268080Y876786D01*
D02*
G37*
G36*
X266080D02*
X263817Y876488D01*
X260776Y875229D01*
X258165Y873225D01*
X256161Y870614D01*
X254902Y867573D01*
X254604Y865310D01*
X266080D01*
Y876786D01*
D02*
G37*
G36*
X305460Y868950D02*
X295960D01*
Y855450D01*
X305460D01*
Y868950D01*
D02*
G37*
G36*
X293960D02*
X284460D01*
Y855450D01*
X293960D01*
Y868950D01*
D02*
G37*
G36*
X266080Y863310D02*
X254604D01*
X254902Y861047D01*
X256161Y858006D01*
X258165Y855395D01*
X260776Y853391D01*
X263817Y852132D01*
X266080Y851834D01*
Y863310D01*
D02*
G37*
G36*
X279556D02*
X268080D01*
Y851834D01*
X270343Y852132D01*
X273384Y853391D01*
X275995Y855395D01*
X277999Y858006D01*
X279258Y861047D01*
X279556Y863310D01*
D02*
G37*
G36*
X303340Y851940D02*
X281340D01*
Y845328D01*
X276860D01*
X275104Y844979D01*
X273616Y843984D01*
X270892Y841261D01*
X270343Y841488D01*
X267080Y841918D01*
X263817Y841488D01*
X260776Y840229D01*
X258165Y838225D01*
X256161Y835614D01*
X254902Y832573D01*
X254472Y829310D01*
X254902Y826047D01*
X256161Y823006D01*
X258165Y820395D01*
X260776Y818391D01*
X263817Y817132D01*
X267080Y816702D01*
X270343Y817132D01*
X273384Y818391D01*
X275995Y820395D01*
X277999Y823006D01*
X279258Y826047D01*
X279688Y829310D01*
X279258Y832573D01*
X278207Y835111D01*
X279027Y836152D01*
X281340D01*
Y830350D01*
X281340Y829540D01*
X281340Y828270D01*
Y813609D01*
X274316Y806585D01*
X274223Y806623D01*
X272330Y806873D01*
X261830D01*
X259937Y806623D01*
X258174Y805893D01*
X256659Y804731D01*
X255497Y803216D01*
X254767Y801453D01*
X254517Y799560D01*
Y789060D01*
X254767Y787167D01*
X255497Y785404D01*
X256659Y783889D01*
X258174Y782727D01*
X259937Y781997D01*
X261830Y781748D01*
X272330D01*
X274223Y781997D01*
X275986Y782727D01*
X277501Y783889D01*
X278663Y785404D01*
X279393Y787167D01*
X279642Y789060D01*
Y798934D01*
X283190Y802481D01*
X284460Y801955D01*
Y789670D01*
X293960D01*
Y803170D01*
X285675D01*
X285149Y804440D01*
X287389Y806680D01*
X303340D01*
Y828270D01*
X303340Y829080D01*
X303340Y830350D01*
Y851940D01*
D02*
G37*
G36*
X559140Y828749D02*
X557140D01*
Y822690D01*
X562199D01*
Y825690D01*
X561966Y826861D01*
X561303Y827853D01*
X560311Y828516D01*
X559140Y828749D01*
D02*
G37*
G36*
X555140D02*
X553140D01*
X551969Y828516D01*
X550977Y827853D01*
X550314Y826861D01*
X550081Y825690D01*
Y822690D01*
X555140D01*
Y828749D01*
D02*
G37*
G36*
X562199Y820690D02*
X557140D01*
Y814631D01*
X559140D01*
X560311Y814864D01*
X561303Y815527D01*
X561966Y816519D01*
X562199Y817690D01*
Y820690D01*
D02*
G37*
G36*
X555140D02*
X550081D01*
Y817690D01*
X550314Y816519D01*
X550977Y815527D01*
X551969Y814864D01*
X553140Y814631D01*
X555140D01*
Y820690D01*
D02*
G37*
G36*
X610870Y822978D02*
X608919Y822590D01*
X607265Y821485D01*
X606160Y819831D01*
X605772Y817880D01*
X606160Y815929D01*
X607265Y814275D01*
X608919Y813170D01*
X610870Y812782D01*
X612821Y813170D01*
X614475Y814275D01*
X615580Y815929D01*
X615968Y817880D01*
X615580Y819831D01*
X614475Y821485D01*
X612821Y822590D01*
X610870Y822978D01*
D02*
G37*
G36*
X558470Y812070D02*
X553520D01*
Y805520D01*
X561070D01*
Y809470D01*
X560872Y810465D01*
X560308Y811308D01*
X559465Y811872D01*
X558470Y812070D01*
D02*
G37*
G36*
X561070Y803520D02*
X553520D01*
Y796970D01*
X558470D01*
X559465Y797168D01*
X560308Y797732D01*
X560872Y798575D01*
X561070Y799570D01*
Y803520D01*
D02*
G37*
G36*
X544140Y828749D02*
X538140D01*
X536969Y828516D01*
X535977Y827853D01*
X535314Y826861D01*
X535081Y825690D01*
Y825024D01*
X533400D01*
X532124Y824770D01*
X531043Y824047D01*
X527352Y820358D01*
X526630Y819276D01*
X526376Y818000D01*
Y812070D01*
X523570D01*
X522575Y811872D01*
X521732Y811308D01*
X521168Y810465D01*
X520970Y809470D01*
Y799570D01*
X521168Y798575D01*
X521732Y797732D01*
X522575Y797168D01*
X523570Y796970D01*
X535470D01*
X535996Y797075D01*
X536496Y797152D01*
X537761Y796507D01*
X538136Y795946D01*
X538379Y795784D01*
Y794256D01*
X538136Y794094D01*
X537761Y793533D01*
X536496Y792888D01*
X535996Y792965D01*
X535470Y793070D01*
X530520D01*
Y785520D01*
X529520D01*
Y784520D01*
X520970D01*
Y780570D01*
X521168Y779575D01*
X520947Y778463D01*
X520737Y778323D01*
X520074Y777330D01*
X519841Y776160D01*
Y773160D01*
X525900D01*
X531959D01*
Y776160D01*
X531851Y776700D01*
X532710Y777970D01*
X534005D01*
X534148Y777884D01*
X534949Y776700D01*
X534841Y776160D01*
Y768160D01*
X535074Y766990D01*
X535737Y765997D01*
X536730Y765334D01*
X537900Y765101D01*
X543900D01*
X545070Y765334D01*
X546063Y765997D01*
X546726Y766990D01*
X546959Y768160D01*
Y768826D01*
X549910D01*
X551186Y769080D01*
X552267Y769802D01*
X554808Y772342D01*
X555530Y773424D01*
X555784Y774700D01*
Y777970D01*
X558470D01*
X559465Y778168D01*
X560308Y778732D01*
X560872Y779575D01*
X561070Y780570D01*
Y790470D01*
X560872Y791465D01*
X560308Y792308D01*
X559465Y792872D01*
X558470Y793070D01*
X546570D01*
X546044Y792965D01*
X545544Y792888D01*
X544278Y793533D01*
X543904Y794094D01*
X543661Y794256D01*
Y795784D01*
X543904Y795946D01*
X544278Y796507D01*
X545544Y797152D01*
X546044Y797075D01*
X546570Y796970D01*
X551520D01*
Y804520D01*
Y812070D01*
X546570D01*
X545624Y811882D01*
X545568Y811876D01*
X544354Y812584D01*
Y814674D01*
X545311Y814864D01*
X546303Y815527D01*
X546966Y816519D01*
X547199Y817690D01*
Y825690D01*
X546966Y826861D01*
X546303Y827853D01*
X545311Y828516D01*
X544140Y828749D01*
D02*
G37*
G36*
X604640Y801388D02*
X602689Y801000D01*
X601035Y799895D01*
X599930Y798241D01*
X599542Y796290D01*
X599930Y794339D01*
X601035Y792685D01*
X602689Y791580D01*
X604640Y791192D01*
X606591Y791580D01*
X608245Y792685D01*
X609350Y794339D01*
X609738Y796290D01*
X609350Y798241D01*
X608245Y799895D01*
X606591Y801000D01*
X604640Y801388D01*
D02*
G37*
G36*
X305460Y803170D02*
X295960D01*
Y789670D01*
X305460D01*
Y803170D01*
D02*
G37*
G36*
X528520Y793070D02*
X523570D01*
X522575Y792872D01*
X521732Y792308D01*
X521168Y791465D01*
X520970Y790470D01*
Y786520D01*
X528520D01*
Y793070D01*
D02*
G37*
G36*
X305460Y787670D02*
X295960D01*
Y774170D01*
X305460D01*
Y787670D01*
D02*
G37*
G36*
X293960D02*
X284460D01*
Y774170D01*
X293960D01*
Y787670D01*
D02*
G37*
G36*
X604520Y778528D02*
X602569Y778140D01*
X600915Y777035D01*
X599810Y775381D01*
X599422Y773430D01*
X599810Y771479D01*
X600915Y769825D01*
X602569Y768720D01*
X604520Y768332D01*
X606471Y768720D01*
X608125Y769825D01*
X609230Y771479D01*
X609618Y773430D01*
X609230Y775381D01*
X608125Y777035D01*
X606471Y778140D01*
X604520Y778528D01*
D02*
G37*
G36*
X531959Y771160D02*
X526900D01*
Y765101D01*
X528900D01*
X530070Y765334D01*
X531063Y765997D01*
X531726Y766990D01*
X531959Y768160D01*
Y771160D01*
D02*
G37*
G36*
X524900D02*
X519841D01*
Y768160D01*
X520074Y766990D01*
X520737Y765997D01*
X521730Y765334D01*
X522900Y765101D01*
X524900D01*
Y771160D01*
D02*
G37*
G36*
X309190Y766519D02*
X303190D01*
X302020Y766286D01*
X301027Y765623D01*
X300364Y764631D01*
X300248Y764048D01*
X291572D01*
X291456Y764631D01*
X290793Y765623D01*
X289800Y766286D01*
X288630Y766519D01*
X282630D01*
X281460Y766286D01*
X280467Y765623D01*
X279804Y764631D01*
X279571Y763460D01*
Y755460D01*
X279804Y754289D01*
X280467Y753297D01*
X279934Y752126D01*
X279804Y751930D01*
X279571Y750760D01*
Y742760D01*
X279804Y741590D01*
X280467Y740597D01*
X280539Y739021D01*
X280208Y738648D01*
X278993D01*
X278811Y738770D01*
X276860Y739158D01*
X275850Y738957D01*
X275529Y738893D01*
X275033Y740089D01*
X275350Y740301D01*
X275793Y740597D01*
X276456Y741590D01*
X276689Y742760D01*
Y745760D01*
X271630D01*
Y739701D01*
X273630D01*
X274181Y739811D01*
X274676Y738615D01*
X274360Y738403D01*
X273255Y737665D01*
X272150Y736011D01*
X271762Y734060D01*
X272150Y732109D01*
X273255Y730455D01*
X274909Y729350D01*
X276860Y728962D01*
X278811Y729350D01*
X278993Y729472D01*
X281077D01*
X281259Y729350D01*
X281474Y729307D01*
X286926Y723856D01*
X288414Y722861D01*
X290170Y722512D01*
X294070D01*
Y720600D01*
X305070D01*
Y733600D01*
X294070D01*
Y731688D01*
X292071D01*
X287963Y735796D01*
X287920Y736011D01*
X286815Y737665D01*
X285668Y738431D01*
X286053Y739701D01*
X288630D01*
X289800Y739934D01*
X290793Y740597D01*
X291456Y741590D01*
X291689Y742760D01*
Y750760D01*
X291456Y751930D01*
X290793Y752923D01*
X291326Y754094D01*
X291456Y754289D01*
X291572Y754872D01*
X299953D01*
X300627Y753781D01*
X300570Y752600D01*
X300570D01*
X300570Y752600D01*
Y739600D01*
X311570D01*
Y752600D01*
X311570Y752600D01*
X311700Y753816D01*
X312016Y754289D01*
X312249Y755460D01*
Y763460D01*
X312016Y764631D01*
X311353Y765623D01*
X310361Y766286D01*
X309190Y766519D01*
D02*
G37*
G36*
X324190D02*
X318190D01*
X317020Y766286D01*
X316027Y765623D01*
X315364Y764631D01*
X315131Y763460D01*
Y755460D01*
X315364Y754289D01*
X316027Y753297D01*
X317020Y752634D01*
X318190Y752401D01*
X324190D01*
X325360Y752634D01*
X326353Y753297D01*
X327016Y754289D01*
X327249Y755460D01*
Y756401D01*
X413342D01*
X413422Y755999D01*
X414306Y754676D01*
X415629Y753792D01*
X417190Y753482D01*
X418751Y753792D01*
X420074Y754676D01*
X420958Y755999D01*
X421268Y757560D01*
X420958Y759121D01*
X420074Y760444D01*
X418751Y761328D01*
X417190Y761638D01*
X417165Y761634D01*
X416189Y762286D01*
X415018Y762519D01*
X415018Y762519D01*
X327249D01*
Y763460D01*
X327016Y764631D01*
X326353Y765623D01*
X325360Y766286D01*
X324190Y766519D01*
D02*
G37*
G36*
X556260Y755918D02*
X554699Y755608D01*
X553376Y754724D01*
X552492Y753401D01*
X552182Y751840D01*
X552463Y750428D01*
X551954Y750003D01*
X551407Y749722D01*
X550201Y750528D01*
X548640Y750838D01*
X547079Y750528D01*
X546018Y749819D01*
X537210D01*
X537210Y749819D01*
X536040Y749586D01*
X535047Y748923D01*
X531237Y745113D01*
X530574Y744120D01*
X530341Y742950D01*
X530341Y742950D01*
Y598167D01*
X527427Y595253D01*
X526764Y594260D01*
X526531Y593090D01*
X526531Y593090D01*
Y557530D01*
X526531Y557530D01*
X526764Y556359D01*
X527427Y555367D01*
X532157Y550637D01*
X533149Y549974D01*
X534320Y549741D01*
X534320Y549741D01*
X576126D01*
X576340Y549420D01*
X577171Y548866D01*
X578150Y548671D01*
X591630D01*
X592609Y548866D01*
X593440Y549420D01*
X593994Y550251D01*
X594189Y551230D01*
Y556210D01*
X593994Y557189D01*
X593440Y558020D01*
X592609Y558574D01*
X591630Y558769D01*
X578150D01*
X577171Y558574D01*
X576340Y558020D01*
X575786Y557189D01*
X575591Y556210D01*
Y555859D01*
X544993D01*
X544270Y557129D01*
X544490Y557500D01*
X558630D01*
Y574412D01*
X562413D01*
X562797Y573837D01*
X563789Y573174D01*
X564960Y572941D01*
X572960D01*
X574131Y573174D01*
X575123Y573837D01*
X575507Y574412D01*
X576952D01*
X577171Y574266D01*
X578150Y574071D01*
X591630D01*
X592609Y574266D01*
X593008Y574532D01*
X603250D01*
X605006Y574881D01*
X606494Y575876D01*
X613994Y583376D01*
X614989Y584864D01*
X615338Y586620D01*
Y608440D01*
Y628530D01*
Y660203D01*
X615913Y660587D01*
X616576Y661580D01*
X616809Y662750D01*
Y670750D01*
X616576Y671920D01*
X615913Y672913D01*
X614921Y673576D01*
X613750Y673809D01*
X607750D01*
X606580Y673576D01*
X605587Y672913D01*
X604924Y671920D01*
X604691Y670750D01*
Y662750D01*
X604924Y661580D01*
X605587Y660587D01*
X606162Y660203D01*
Y631509D01*
X595469D01*
X594790Y632779D01*
X594922Y632977D01*
X595015Y633440D01*
X583140D01*
Y635440D01*
X595015D01*
X594922Y635903D01*
X594294Y636843D01*
X594172Y637690D01*
X594294Y638537D01*
X594922Y639477D01*
X595214Y640940D01*
X594922Y642403D01*
X594094Y643643D01*
Y644736D01*
X594922Y645977D01*
X595015Y646440D01*
X583140D01*
Y648440D01*
X595015D01*
X594922Y648903D01*
X594294Y649843D01*
X594172Y650690D01*
X594294Y651537D01*
X594922Y652477D01*
X595015Y652940D01*
X583140D01*
Y653940D01*
X582140D01*
Y657763D01*
X574890D01*
X573427Y657472D01*
X573289Y657380D01*
X572019Y658059D01*
Y739058D01*
X572728Y740119D01*
X573038Y741680D01*
X572728Y743241D01*
X571844Y744564D01*
X570521Y745448D01*
X568960Y745758D01*
X567399Y745448D01*
X566193Y744642D01*
X565646Y744923D01*
X565137Y745348D01*
X565418Y746760D01*
X565108Y748321D01*
X564224Y749644D01*
X562901Y750528D01*
X561430Y750820D01*
X561059Y750964D01*
X560464Y751559D01*
X560320Y751930D01*
X560028Y753401D01*
X559144Y754724D01*
X557821Y755608D01*
X556260Y755918D01*
D02*
G37*
G36*
X238760Y798009D02*
X236672Y797734D01*
X234725Y796928D01*
X233054Y795646D01*
X231772Y793975D01*
X230966Y792028D01*
X230691Y789940D01*
X230966Y787852D01*
X231315Y787008D01*
Y786522D01*
X230966Y785678D01*
X230691Y783590D01*
X230966Y781502D01*
X231315Y780658D01*
Y775048D01*
X230228Y773421D01*
X229762Y771080D01*
Y763080D01*
X230228Y760739D01*
X231554Y758754D01*
X233539Y757428D01*
X235880Y756963D01*
X241880D01*
X243018Y757189D01*
X244000Y756383D01*
Y739300D01*
X264000D01*
Y740507D01*
X265270Y740892D01*
X265467Y740597D01*
X266460Y739934D01*
X267630Y739701D01*
X269630D01*
Y746760D01*
X270630D01*
Y747760D01*
X276689D01*
Y750760D01*
X276456Y751930D01*
X275793Y752923D01*
X276326Y754094D01*
X276456Y754289D01*
X276689Y755460D01*
Y763460D01*
X276456Y764631D01*
X275793Y765623D01*
X275035Y766130D01*
X274749Y767566D01*
X273754Y769054D01*
X271925Y770883D01*
X270437Y771878D01*
X268681Y772227D01*
X259711D01*
X259706Y772251D01*
X259043Y773243D01*
X258050Y773906D01*
X256880Y774139D01*
X250880D01*
X249709Y773906D01*
X248845Y773328D01*
X248234Y773372D01*
X247420Y773588D01*
X246445Y775048D01*
Y781237D01*
X246554Y781502D01*
X246829Y783590D01*
X246554Y785678D01*
X246445Y785943D01*
Y787588D01*
X246554Y787852D01*
X246829Y789940D01*
X246554Y792028D01*
X245748Y793975D01*
X244466Y795646D01*
X242794Y796928D01*
X240848Y797734D01*
X238760Y798009D01*
D02*
G37*
G36*
X346710Y740428D02*
X344759Y740040D01*
X343535Y739222D01*
X342311Y740040D01*
X340360Y740428D01*
X338409Y740040D01*
X337185Y739222D01*
X335961Y740040D01*
X334010Y740428D01*
X332059Y740040D01*
X330835Y739222D01*
X329611Y740040D01*
X327660Y740428D01*
X325709Y740040D01*
X324055Y738935D01*
X322950Y737281D01*
X322562Y735330D01*
X322950Y733379D01*
X324055Y731725D01*
X325709Y730620D01*
X327660Y730232D01*
X329611Y730620D01*
X330835Y731438D01*
X332059Y730620D01*
X334010Y730232D01*
X335961Y730620D01*
X337185Y731438D01*
X338409Y730620D01*
X340360Y730232D01*
X342311Y730620D01*
X343535Y731438D01*
X344759Y730620D01*
X346710Y730232D01*
X348661Y730620D01*
X350315Y731725D01*
X351420Y733379D01*
X351808Y735330D01*
X351420Y737281D01*
X350315Y738935D01*
X348661Y740040D01*
X346710Y740428D01*
D02*
G37*
G36*
X318070Y733600D02*
X313570D01*
Y728100D01*
X318070D01*
Y733600D01*
D02*
G37*
G36*
X311570D02*
X307070D01*
Y728100D01*
X311570D01*
Y733600D01*
D02*
G37*
G36*
X255000Y733855D02*
Y724900D01*
X263955D01*
X263743Y726510D01*
X262735Y728943D01*
X261132Y731032D01*
X259043Y732635D01*
X256611Y733643D01*
X255000Y733855D01*
D02*
G37*
G36*
X253000D02*
X251390Y733643D01*
X248957Y732635D01*
X246868Y731032D01*
X245265Y728943D01*
X244257Y726510D01*
X244045Y724900D01*
X253000D01*
Y733855D01*
D02*
G37*
G36*
X318070Y726100D02*
X313570D01*
Y720600D01*
X318070D01*
Y726100D01*
D02*
G37*
G36*
X311570D02*
X307070D01*
Y720600D01*
X311570D01*
Y726100D01*
D02*
G37*
G36*
X431800Y718838D02*
X429849Y718450D01*
X428967Y717861D01*
X427990Y717434D01*
X427013Y717861D01*
X426131Y718450D01*
X424180Y718838D01*
X422229Y718450D01*
X420575Y717345D01*
X419470Y715691D01*
X419082Y713740D01*
X419470Y711789D01*
X420575Y710135D01*
X422229Y709030D01*
X424180Y708642D01*
X426131Y709030D01*
X427013Y709619D01*
X427990Y710046D01*
X428967Y709619D01*
X429849Y709030D01*
X431800Y708642D01*
X433751Y709030D01*
X435405Y710135D01*
X436510Y711789D01*
X436898Y713740D01*
X436510Y715691D01*
X435405Y717345D01*
X433751Y718450D01*
X431800Y718838D01*
D02*
G37*
G36*
X364490Y717818D02*
X362929Y717508D01*
X361606Y716624D01*
X360722Y715301D01*
X360412Y713740D01*
X360722Y712179D01*
X361606Y710856D01*
X362929Y709972D01*
X364490Y709662D01*
X366051Y709972D01*
X367374Y710856D01*
X368258Y712179D01*
X368568Y713740D01*
X368258Y715301D01*
X367374Y716624D01*
X366051Y717508D01*
X364490Y717818D01*
D02*
G37*
G36*
X263955Y722900D02*
X254000D01*
X244045D01*
X244257Y721290D01*
X245265Y718857D01*
X246868Y716768D01*
X248957Y715165D01*
X249028Y713761D01*
X248717Y713553D01*
X248054Y712561D01*
X247821Y711390D01*
Y708390D01*
X259939D01*
Y711390D01*
X259706Y712561D01*
X259043Y713553D01*
X258824Y713699D01*
X258965Y715133D01*
X259043Y715165D01*
X261132Y716768D01*
X262735Y718857D01*
X263743Y721290D01*
X263955Y722900D01*
D02*
G37*
G36*
X342390Y704150D02*
X336890D01*
Y699650D01*
X342390D01*
Y704150D01*
D02*
G37*
G36*
X334890D02*
X329390D01*
Y699650D01*
X334890D01*
Y704150D01*
D02*
G37*
G36*
X276170Y705559D02*
X274170D01*
Y699500D01*
X279229D01*
Y702500D01*
X278996Y703671D01*
X278333Y704663D01*
X277341Y705326D01*
X276170Y705559D01*
D02*
G37*
G36*
X272170D02*
X270170D01*
X269000Y705326D01*
X268007Y704663D01*
X267344Y703671D01*
X267111Y702500D01*
Y699500D01*
X272170D01*
Y705559D01*
D02*
G37*
G36*
X435610Y699788D02*
X433659Y699400D01*
X432435Y698582D01*
X431211Y699400D01*
X429260Y699788D01*
X427309Y699400D01*
X425655Y698295D01*
X425631Y698259D01*
X412630D01*
X411264Y697987D01*
X410107Y697213D01*
X409333Y696056D01*
X409061Y694690D01*
Y691476D01*
X408460Y691356D01*
X407467Y690693D01*
X406804Y689700D01*
X406571Y688530D01*
Y680530D01*
X406804Y679360D01*
X407467Y678367D01*
Y677993D01*
X406804Y677001D01*
X406571Y675830D01*
Y667830D01*
X406804Y666659D01*
X407467Y665667D01*
X408460Y665004D01*
X409630Y664771D01*
X415630D01*
X416800Y665004D01*
X417793Y665667D01*
X418456Y666659D01*
X418488Y666823D01*
X419899Y667407D01*
X420329Y667120D01*
X422280Y666732D01*
X435280D01*
X437231Y667120D01*
X438885Y668225D01*
X439990Y669879D01*
X440378Y671830D01*
X439990Y673781D01*
X438885Y675435D01*
X437231Y676540D01*
X435280Y676928D01*
X422280D01*
X420329Y676540D01*
X419899Y676253D01*
X418488Y676837D01*
X418456Y677001D01*
X417793Y677993D01*
Y678367D01*
X418456Y679360D01*
X418488Y679523D01*
X419899Y680107D01*
X420329Y679820D01*
X422280Y679432D01*
X435280D01*
X437231Y679820D01*
X438885Y680925D01*
X439990Y682579D01*
X440378Y684530D01*
X439990Y686481D01*
X438885Y688135D01*
X437898Y688794D01*
X437847Y688973D01*
X437985Y690264D01*
X439215Y691085D01*
X440320Y692739D01*
X440708Y694690D01*
X440320Y696641D01*
X439215Y698295D01*
X437561Y699400D01*
X435610Y699788D01*
D02*
G37*
G36*
X342390Y697650D02*
X336890D01*
Y693150D01*
X342390D01*
Y697650D01*
D02*
G37*
G36*
X334890D02*
X329390D01*
Y693150D01*
X334890D01*
Y697650D01*
D02*
G37*
G36*
X1056100Y705377D02*
X1042300D01*
Y691550D01*
X1070795D01*
X1070422Y694388D01*
X1068940Y697963D01*
X1066584Y701034D01*
X1063513Y703391D01*
X1059937Y704872D01*
X1056100Y705377D01*
D02*
G37*
G36*
X776700D02*
X762900D01*
Y691550D01*
X791395D01*
X791022Y694388D01*
X789540Y697963D01*
X787184Y701034D01*
X784113Y703391D01*
X780537Y704872D01*
X776700Y705377D01*
D02*
G37*
G36*
X760900D02*
X747100D01*
X743263Y704872D01*
X739687Y703391D01*
X736616Y701034D01*
X734260Y697963D01*
X732778Y694388D01*
X732405Y691550D01*
X760900D01*
Y705377D01*
D02*
G37*
G36*
X1040300D02*
X1026500D01*
X1022663Y704872D01*
X1019087Y703391D01*
X1016016Y701034D01*
X1013660Y697963D01*
X1012178Y694388D01*
X1011805Y691550D01*
X1040300D01*
Y705377D01*
D02*
G37*
G36*
X599440Y706138D02*
X597489Y705750D01*
X595835Y704645D01*
X594730Y702991D01*
X594342Y701040D01*
X594730Y699089D01*
X595548Y697865D01*
X594730Y696641D01*
X594342Y694690D01*
X594730Y692739D01*
X595548Y691515D01*
X594730Y690291D01*
X594342Y688340D01*
X594730Y686389D01*
X595835Y684735D01*
X597489Y683630D01*
X599440Y683242D01*
X601391Y683630D01*
X603045Y684735D01*
X604150Y686389D01*
X604538Y688340D01*
X604450Y688782D01*
X605348Y689680D01*
X605790Y689592D01*
X607741Y689980D01*
X609395Y691085D01*
X610500Y692739D01*
X610888Y694690D01*
X610500Y696641D01*
X609395Y698295D01*
X607741Y699400D01*
X605790Y699788D01*
X605348Y699700D01*
X604450Y700598D01*
X604538Y701040D01*
X604150Y702991D01*
X603045Y704645D01*
X601391Y705750D01*
X599440Y706138D01*
D02*
G37*
G36*
X517080Y690469D02*
X509080D01*
X507910Y690236D01*
X506917Y689573D01*
X506626Y689137D01*
X505190Y688709D01*
X504990Y688733D01*
X504231Y689240D01*
X502280Y689628D01*
X489280D01*
X487329Y689240D01*
X485675Y688135D01*
X485310Y687589D01*
X482358D01*
X482154Y687894D01*
X480831Y688778D01*
X479270Y689088D01*
X477709Y688778D01*
X476386Y687894D01*
X475502Y686571D01*
X475192Y685010D01*
X475502Y683449D01*
X476386Y682126D01*
X477709Y681242D01*
X479270Y680932D01*
X480831Y681242D01*
X481174Y681471D01*
X485310D01*
X485675Y680925D01*
X487329Y679820D01*
X489280Y679432D01*
X502280D01*
X504231Y679820D01*
X504947Y680299D01*
X505236Y680286D01*
X506529Y679828D01*
X506917Y679247D01*
X507910Y678584D01*
X509080Y678351D01*
X517080D01*
X518251Y678584D01*
X519243Y679247D01*
X519906Y680239D01*
X520139Y681410D01*
Y687410D01*
X519906Y688580D01*
X519243Y689573D01*
X518251Y690236D01*
X517080Y690469D01*
D02*
G37*
G36*
X400630Y691589D02*
X398630D01*
Y685530D01*
X403689D01*
Y688530D01*
X403456Y689700D01*
X402793Y690693D01*
X401800Y691356D01*
X400630Y691589D01*
D02*
G37*
G36*
X396630D02*
X394630D01*
X393460Y691356D01*
X392467Y690693D01*
X391804Y689700D01*
X391571Y688530D01*
Y685530D01*
X396630D01*
Y691589D01*
D02*
G37*
G36*
X1070795Y689550D02*
X1042300D01*
Y675723D01*
X1056100D01*
X1059937Y676228D01*
X1063513Y677710D01*
X1066584Y680066D01*
X1068940Y683137D01*
X1070422Y686713D01*
X1070795Y689550D01*
D02*
G37*
G36*
X1040300D02*
X1011805D01*
X1012178Y686713D01*
X1013660Y683137D01*
X1016016Y680066D01*
X1019087Y677710D01*
X1022663Y676228D01*
X1026500Y675723D01*
X1040300D01*
Y689550D01*
D02*
G37*
G36*
X791395D02*
X762900D01*
Y675723D01*
X776700D01*
X780537Y676228D01*
X784113Y677710D01*
X787184Y680066D01*
X789540Y683137D01*
X791022Y686713D01*
X791395Y689550D01*
D02*
G37*
G36*
X760900D02*
X732405D01*
X732778Y686713D01*
X734260Y683137D01*
X736616Y680066D01*
X739687Y677710D01*
X743263Y676228D01*
X747100Y675723D01*
X760900D01*
Y689550D01*
D02*
G37*
G36*
X502280Y676928D02*
X489280D01*
X487329Y676540D01*
X485675Y675435D01*
X485310Y674889D01*
X467518D01*
X467154Y675434D01*
X465831Y676318D01*
X464270Y676628D01*
X462709Y676318D01*
X461386Y675434D01*
X460502Y674111D01*
X460192Y672550D01*
X460502Y670989D01*
X461386Y669666D01*
X462709Y668782D01*
X464270Y668472D01*
X465776Y668771D01*
X485310D01*
X485675Y668225D01*
X487329Y667120D01*
X489280Y666732D01*
X502280D01*
X504231Y667120D01*
X504751Y667468D01*
X506021Y666789D01*
Y666410D01*
X506254Y665239D01*
X506917Y664247D01*
X507910Y663584D01*
X509045Y663358D01*
X509131Y663145D01*
X509393Y662081D01*
X509312Y661961D01*
X509002Y660400D01*
X509312Y658839D01*
X510196Y657516D01*
X511519Y656632D01*
X513080Y656322D01*
X514641Y656632D01*
X515964Y657516D01*
X516848Y658839D01*
X517158Y660400D01*
X516848Y661961D01*
X516767Y662081D01*
X517029Y663145D01*
X517115Y663358D01*
X518251Y663584D01*
X519243Y664247D01*
X519906Y665239D01*
X520139Y666410D01*
Y672410D01*
X519906Y673580D01*
X519243Y674573D01*
X518251Y675236D01*
X517080Y675469D01*
X509080D01*
X507910Y675236D01*
X506917Y674573D01*
X506461D01*
X505885Y675435D01*
X504231Y676540D01*
X502280Y676928D01*
D02*
G37*
G36*
X241880Y714449D02*
X235880D01*
X234709Y714216D01*
X233717Y713553D01*
X233054Y712561D01*
X232821Y711390D01*
Y703390D01*
X233054Y702219D01*
X233717Y701227D01*
X234172Y700923D01*
Y694690D01*
X234521Y692934D01*
X235516Y691446D01*
X240596Y686366D01*
X242084Y685371D01*
X243840Y685022D01*
X244000D01*
Y679610D01*
X264000D01*
Y681212D01*
X267228D01*
X267344Y680630D01*
X268007Y679637D01*
X269000Y678974D01*
X269737Y678827D01*
Y677533D01*
X269000Y677386D01*
X268007Y676723D01*
X267344Y675731D01*
X267228Y675148D01*
X260350D01*
X258594Y674799D01*
X257106Y673804D01*
X257066Y673764D01*
X256611Y673953D01*
X254000Y674296D01*
X251390Y673953D01*
X248957Y672945D01*
X246868Y671342D01*
X245265Y669253D01*
X244257Y666821D01*
X243914Y664210D01*
X244257Y661600D01*
X245265Y659167D01*
X246868Y657078D01*
X248957Y655475D01*
X251390Y654467D01*
X254000Y654124D01*
X256611Y654467D01*
X259043Y655475D01*
X261132Y657078D01*
X262735Y659167D01*
X263743Y661600D01*
X264086Y664210D01*
X263980Y665017D01*
X264817Y665972D01*
X267228D01*
X267344Y665389D01*
X268007Y664397D01*
Y664023D01*
X267344Y663030D01*
X267111Y661860D01*
Y658860D01*
X273170D01*
X279229D01*
Y661860D01*
X278996Y663030D01*
X278333Y664023D01*
Y664397D01*
X278996Y665389D01*
X279229Y666560D01*
Y674560D01*
X278996Y675731D01*
X278333Y676723D01*
X277341Y677386D01*
X276603Y677533D01*
Y678827D01*
X277341Y678974D01*
X278333Y679637D01*
X278996Y680630D01*
X279229Y681800D01*
Y689800D01*
X278996Y690971D01*
X278333Y691963D01*
X278866Y693134D01*
X278996Y693329D01*
X279229Y694500D01*
Y697500D01*
X267111D01*
Y694500D01*
X267344Y693329D01*
X268007Y692337D01*
X267474Y691166D01*
X267344Y690971D01*
X267228Y690388D01*
X264000D01*
Y699610D01*
X258909D01*
X258523Y700880D01*
X259043Y701227D01*
X259706Y702219D01*
X259939Y703390D01*
Y706390D01*
X247821D01*
Y703390D01*
X248054Y702219D01*
X248717Y701227D01*
X249237Y700880D01*
X248851Y699610D01*
X244000D01*
X243348Y700610D01*
Y700763D01*
X244043Y701227D01*
X244706Y702219D01*
X244939Y703390D01*
Y711390D01*
X244706Y712561D01*
X244043Y713553D01*
X243050Y714216D01*
X241880Y714449D01*
D02*
G37*
G36*
X342390Y676210D02*
X336890D01*
Y671710D01*
X342390D01*
Y676210D01*
D02*
G37*
G36*
X598750Y673809D02*
X596750D01*
Y667750D01*
X601809D01*
Y670750D01*
X601576Y671920D01*
X600913Y672913D01*
X599921Y673576D01*
X598750Y673809D01*
D02*
G37*
G36*
X594750D02*
X592750D01*
X591580Y673576D01*
X590587Y672913D01*
X589924Y671920D01*
X589691Y670750D01*
Y667750D01*
X594750D01*
Y673809D01*
D02*
G37*
G36*
X342390Y669710D02*
X336890D01*
Y665210D01*
X342390D01*
Y669710D01*
D02*
G37*
G36*
X502280Y664228D02*
X489280D01*
X487329Y663840D01*
X485675Y662735D01*
X485310Y662189D01*
X477411D01*
X477154Y662574D01*
X475831Y663458D01*
X474270Y663768D01*
X472709Y663458D01*
X471386Y662574D01*
X470502Y661251D01*
X470192Y659690D01*
X470502Y658129D01*
X471386Y656806D01*
X472709Y655922D01*
X474270Y655612D01*
X475831Y655922D01*
X476054Y656071D01*
X485310D01*
X485675Y655525D01*
X487329Y654420D01*
X489280Y654032D01*
X502280D01*
X504231Y654420D01*
X505885Y655525D01*
X506990Y657179D01*
X507378Y659130D01*
X506990Y661081D01*
X505885Y662735D01*
X504231Y663840D01*
X502280Y664228D01*
D02*
G37*
G36*
X601809Y665750D02*
X596750D01*
Y659691D01*
X598750D01*
X599921Y659924D01*
X600913Y660587D01*
X601576Y661580D01*
X601809Y662750D01*
Y665750D01*
D02*
G37*
G36*
X594750D02*
X589691D01*
Y662750D01*
X589924Y661580D01*
X590587Y660587D01*
X591580Y659924D01*
X592750Y659691D01*
X594750D01*
Y665750D01*
D02*
G37*
G36*
X403689Y683530D02*
X391571D01*
Y680530D01*
X391804Y679360D01*
X392467Y678367D01*
Y677993D01*
X391804Y677001D01*
X391571Y675830D01*
Y667830D01*
X391804Y666659D01*
X392467Y665667D01*
X393432Y665022D01*
X393462Y664998D01*
X393991Y663603D01*
X393742Y663231D01*
X393432Y661670D01*
X393742Y660109D01*
X394626Y658786D01*
X395949Y657902D01*
X397510Y657592D01*
X399071Y657902D01*
X400394Y658786D01*
X400821Y659426D01*
X400943Y659507D01*
X401606Y660499D01*
X401839Y661670D01*
X401606Y662840D01*
X401116Y663573D01*
X401324Y664511D01*
X401502Y664827D01*
X401642Y664973D01*
X401800Y665004D01*
X402793Y665667D01*
X403456Y666659D01*
X403689Y667830D01*
Y675830D01*
X403456Y677001D01*
X402793Y677993D01*
Y678367D01*
X403456Y679360D01*
X403689Y680530D01*
Y683530D01*
D02*
G37*
G36*
X435280Y664228D02*
X422280D01*
X420329Y663840D01*
X418675Y662735D01*
X417570Y661081D01*
X417182Y659130D01*
X417570Y657179D01*
X418675Y655525D01*
X420329Y654420D01*
X422280Y654032D01*
X435280D01*
X437231Y654420D01*
X438885Y655525D01*
X439564Y656541D01*
X456648D01*
X457709Y655832D01*
X459270Y655522D01*
X460831Y655832D01*
X462154Y656716D01*
X463038Y658039D01*
X463348Y659600D01*
X463038Y661161D01*
X462154Y662484D01*
X460831Y663368D01*
X459270Y663678D01*
X457709Y663368D01*
X456648Y662659D01*
X438936D01*
X438885Y662735D01*
X437231Y663840D01*
X435280Y664228D01*
D02*
G37*
G36*
X591390Y657763D02*
X584140D01*
Y654940D01*
X595015D01*
X594922Y655403D01*
X594094Y656644D01*
X592853Y657472D01*
X591390Y657763D01*
D02*
G37*
G36*
X279229Y656860D02*
X274170D01*
Y650801D01*
X276170D01*
X277341Y651034D01*
X278333Y651697D01*
X278996Y652690D01*
X279229Y653860D01*
Y656860D01*
D02*
G37*
G36*
X272170D02*
X267111D01*
Y653860D01*
X267344Y652690D01*
X268007Y651697D01*
X269000Y651034D01*
X270170Y650801D01*
X272170D01*
Y656860D01*
D02*
G37*
G36*
X502280Y651528D02*
X496780D01*
Y647430D01*
X507179D01*
X506990Y648381D01*
X505885Y650035D01*
X504231Y651140D01*
X502280Y651528D01*
D02*
G37*
G36*
X494780D02*
X489280D01*
X487329Y651140D01*
X485675Y650035D01*
X484570Y648381D01*
X484381Y647430D01*
X494780D01*
Y651528D01*
D02*
G37*
G36*
X369570Y654318D02*
X368009Y654008D01*
X366686Y653124D01*
X365802Y651801D01*
X365492Y650240D01*
X365802Y648679D01*
X366686Y647356D01*
X368009Y646472D01*
X369570Y646162D01*
X371131Y646472D01*
X372454Y647356D01*
X373338Y648679D01*
X373648Y650240D01*
X373338Y651801D01*
X372454Y653124D01*
X371131Y654008D01*
X369570Y654318D01*
D02*
G37*
G36*
X435280Y651528D02*
X422280D01*
X420329Y651140D01*
X418675Y650035D01*
X417570Y648381D01*
X417182Y646430D01*
X417570Y644479D01*
X418675Y642825D01*
X420329Y641720D01*
X422280Y641332D01*
X435280D01*
X437231Y641720D01*
X438885Y642825D01*
X439250Y643371D01*
X464738D01*
X465799Y642662D01*
X467360Y642352D01*
X468921Y642662D01*
X470244Y643546D01*
X471128Y644869D01*
X471438Y646430D01*
X471128Y647991D01*
X470244Y649314D01*
X468921Y650198D01*
X467360Y650508D01*
X465799Y650198D01*
X464738Y649489D01*
X439250D01*
X438885Y650035D01*
X437231Y651140D01*
X435280Y651528D01*
D02*
G37*
G36*
X507179Y645430D02*
X496780D01*
Y641332D01*
X502280D01*
X504231Y641720D01*
X505885Y642825D01*
X506990Y644479D01*
X507179Y645430D01*
D02*
G37*
G36*
X494780D02*
X484381D01*
X484570Y644479D01*
X485675Y642825D01*
X487329Y641720D01*
X489280Y641332D01*
X494780D01*
Y645430D01*
D02*
G37*
G36*
X291170Y705559D02*
X285170D01*
X284000Y705326D01*
X283007Y704663D01*
X282344Y703671D01*
X282111Y702500D01*
Y694500D01*
X282344Y693329D01*
X283007Y692337D01*
X282474Y691166D01*
X282344Y690971D01*
X282111Y689800D01*
Y681800D01*
X282344Y680630D01*
X283007Y679637D01*
X284000Y678974D01*
X284737Y678827D01*
Y677533D01*
X284000Y677386D01*
X283007Y676723D01*
X282344Y675731D01*
X282111Y674560D01*
Y666560D01*
X282344Y665389D01*
X283007Y664397D01*
Y664023D01*
X282344Y663030D01*
X282111Y661860D01*
Y653860D01*
X282344Y652690D01*
X283007Y651697D01*
X284000Y651034D01*
X285170Y650801D01*
X291170D01*
X292341Y651034D01*
X293333Y651697D01*
X293996Y652690D01*
X294229Y653860D01*
Y661860D01*
X293996Y663030D01*
X293333Y664023D01*
Y664397D01*
X293996Y665389D01*
X294112Y665972D01*
X295793D01*
X296097Y665517D01*
X297090Y664854D01*
X298260Y664621D01*
X302980D01*
X306636Y660966D01*
X308124Y659971D01*
X309880Y659622D01*
X310390D01*
Y658710D01*
X321802D01*
Y620090D01*
X317477D01*
X316078Y619812D01*
X314891Y619019D01*
X314098Y617832D01*
X313878Y616728D01*
X308203D01*
X308021Y616850D01*
X306070Y617238D01*
X304119Y616850D01*
X303937Y616728D01*
X301853D01*
X301671Y616850D01*
X299720Y617238D01*
X297769Y616850D01*
X297587Y616728D01*
X295503D01*
X295321Y616850D01*
X293370Y617238D01*
X291419Y616850D01*
X289765Y615745D01*
X288660Y614091D01*
X288272Y612140D01*
X288660Y610189D01*
X289765Y608535D01*
X291419Y607430D01*
X293370Y607042D01*
X295321Y607430D01*
X295503Y607552D01*
X297587D01*
X297769Y607430D01*
X299720Y607042D01*
X301671Y607430D01*
X301853Y607552D01*
X303937D01*
X304119Y607430D01*
X306070Y607042D01*
X308021Y607430D01*
X308203Y607552D01*
X313820D01*
Y606908D01*
X314098Y605508D01*
X314891Y604321D01*
X316078Y603528D01*
X317477Y603250D01*
X335303D01*
X336702Y603528D01*
X337889Y604321D01*
X338682Y605508D01*
X338960Y606908D01*
Y607082D01*
X346240D01*
X347996Y607431D01*
X349484Y608426D01*
X366390Y625332D01*
X428377D01*
X429132Y624215D01*
X428693Y623329D01*
X398780D01*
X397414Y623057D01*
X396257Y622283D01*
X391177Y617203D01*
X390403Y616046D01*
X390131Y614680D01*
Y608598D01*
X388153Y607779D01*
X385855Y606015D01*
X384091Y603717D01*
X382983Y601042D01*
X382605Y598170D01*
X382983Y595298D01*
X384091Y592622D01*
X385855Y590325D01*
X388153Y588562D01*
X390828Y587453D01*
X393700Y587075D01*
X396572Y587453D01*
X399248Y588562D01*
X401545Y590325D01*
X403308Y592622D01*
X404417Y595298D01*
X404795Y598170D01*
X404417Y601042D01*
X403308Y603717D01*
X401545Y606015D01*
X399248Y607779D01*
X397269Y608598D01*
Y613202D01*
X400258Y616191D01*
X429671D01*
Y615760D01*
X429904Y614590D01*
X430567Y613597D01*
X431559Y612934D01*
X432730Y612701D01*
X438730D01*
X439901Y612934D01*
X440893Y613597D01*
X441556Y614590D01*
X441789Y615760D01*
Y623760D01*
X441729Y624062D01*
X442586Y625184D01*
X443874D01*
X444731Y624062D01*
X444671Y623760D01*
Y615760D01*
X444904Y614590D01*
X445567Y613597D01*
X446559Y612934D01*
X447654Y612716D01*
Y611489D01*
X447507Y611268D01*
X446181Y611113D01*
X446114Y611214D01*
X444791Y612098D01*
X443230Y612408D01*
X441669Y612098D01*
X440346Y611214D01*
X439462Y609891D01*
X439152Y608330D01*
X439462Y606769D01*
X440346Y605446D01*
X440447Y605379D01*
X440062Y604109D01*
X434150D01*
X432980Y603876D01*
X431987Y603213D01*
X431370Y602289D01*
X431276Y602274D01*
X430100Y602840D01*
Y603670D01*
X424600Y609170D01*
X413600D01*
X408100Y603670D01*
Y592670D01*
X413600Y587170D01*
X424600D01*
X430100Y592670D01*
Y593260D01*
X431276Y593826D01*
X431370Y593811D01*
X431987Y592887D01*
X432980Y592224D01*
X434150Y591991D01*
X442150D01*
X443321Y592224D01*
X444313Y592887D01*
X444976Y593880D01*
X445209Y595050D01*
Y600197D01*
X446226Y601049D01*
X446847Y600869D01*
X447154Y600628D01*
X447178Y600602D01*
X447507Y598952D01*
X448446Y597546D01*
X449852Y596607D01*
X451510Y596277D01*
X453168Y596607D01*
X454574Y597546D01*
X455513Y598952D01*
X455613Y599450D01*
X456907D01*
X457007Y598952D01*
X457946Y597546D01*
X459352Y596607D01*
X461010Y596277D01*
X462668Y596607D01*
X464074Y597546D01*
X465013Y598952D01*
X465113Y599450D01*
X466407D01*
X466507Y598952D01*
X467446Y597546D01*
X468852Y596607D01*
X470510Y596277D01*
X472168Y596607D01*
X473574Y597546D01*
X474513Y598952D01*
X474843Y600610D01*
Y609610D01*
X474513Y611268D01*
X473574Y612674D01*
X472168Y613613D01*
X470510Y613943D01*
X468852Y613613D01*
X467446Y612674D01*
X466507Y611268D01*
X466407Y610770D01*
X465113D01*
X465013Y611268D01*
X464579Y611919D01*
Y614461D01*
X465249Y615464D01*
X465598Y617220D01*
Y627380D01*
X465249Y629136D01*
X464254Y630624D01*
X461714Y633164D01*
X460226Y634159D01*
X458470Y634508D01*
X364490D01*
X362734Y634159D01*
X361246Y633164D01*
X344339Y616258D01*
X338960D01*
Y616432D01*
X338682Y617832D01*
X337889Y619019D01*
X336702Y619812D01*
X335303Y620090D01*
X330978D01*
Y652210D01*
X342390D01*
Y663210D01*
X330978D01*
Y665210D01*
X334890D01*
Y670710D01*
Y676210D01*
X330978D01*
Y680150D01*
X342390D01*
Y691150D01*
X329390D01*
Y690125D01*
X329319D01*
X327563Y689776D01*
X326075Y688781D01*
X324660Y687366D01*
X323390Y687893D01*
Y697650D01*
X310390D01*
Y696515D01*
X309657D01*
X307901Y696166D01*
X306412Y695171D01*
X302980Y691739D01*
X298260D01*
X297090Y691506D01*
X296097Y690843D01*
X295793Y690388D01*
X294112D01*
X293996Y690971D01*
X293333Y691963D01*
X293866Y693134D01*
X293996Y693329D01*
X294229Y694500D01*
Y702500D01*
X293996Y703671D01*
X293333Y704663D01*
X292341Y705326D01*
X291170Y705559D01*
D02*
G37*
G36*
X470510Y592443D02*
X468852Y592113D01*
X467446Y591174D01*
X466507Y589768D01*
X466407Y589270D01*
X465113D01*
X465013Y589768D01*
X464074Y591174D01*
X462668Y592113D01*
X462010Y592244D01*
Y583610D01*
X460010D01*
Y592244D01*
X459352Y592113D01*
X457946Y591174D01*
X457007Y589768D01*
X456907Y589270D01*
X455613D01*
X455513Y589768D01*
X454574Y591174D01*
X453168Y592113D01*
X451510Y592443D01*
X449852Y592113D01*
X448446Y591174D01*
X447507Y589768D01*
X447177Y588110D01*
Y586924D01*
X445035D01*
X444976Y587220D01*
X444313Y588213D01*
X443321Y588876D01*
X442150Y589109D01*
X434150D01*
X432980Y588876D01*
X431987Y588213D01*
X431324Y587220D01*
X431091Y586050D01*
Y580050D01*
X431324Y578880D01*
X431987Y577887D01*
X432980Y577224D01*
X434150Y576991D01*
X442150D01*
X443321Y577224D01*
X444313Y577887D01*
X444976Y578880D01*
X445209Y580050D01*
Y580296D01*
X447177D01*
Y579110D01*
X447507Y577452D01*
X448196Y576419D01*
Y565551D01*
X448285Y565104D01*
X448042Y563880D01*
X448352Y562319D01*
X448573Y561989D01*
X447988Y560578D01*
X447830Y560546D01*
X446837Y559883D01*
X446174Y558890D01*
X445941Y557720D01*
Y549720D01*
X446174Y548549D01*
X446837Y547557D01*
X447830Y546894D01*
X449000Y546661D01*
X455000D01*
X456171Y546894D01*
X457163Y547557D01*
X457826Y548549D01*
X458059Y549720D01*
Y550151D01*
X472440D01*
X473806Y550423D01*
X474963Y551197D01*
X480043Y556277D01*
X480817Y557434D01*
X481089Y558800D01*
Y581071D01*
X481288Y581369D01*
X481598Y582930D01*
X481288Y584491D01*
X480404Y585814D01*
X479081Y586698D01*
X477520Y587008D01*
X476113Y586729D01*
X475725Y586843D01*
X474843Y587387D01*
Y588110D01*
X474513Y589768D01*
X473574Y591174D01*
X472168Y592113D01*
X470510Y592443D01*
D02*
G37*
G36*
X368300Y609265D02*
X365428Y608887D01*
X362752Y607779D01*
X360455Y606015D01*
X358691Y603717D01*
X357583Y601042D01*
X357205Y598170D01*
X357583Y595298D01*
X358691Y592622D01*
X360455Y590325D01*
X362752Y588562D01*
X365428Y587453D01*
X368300Y587075D01*
X371172Y587453D01*
X373848Y588562D01*
X376145Y590325D01*
X377909Y592622D01*
X379017Y595298D01*
X379395Y598170D01*
X379017Y601042D01*
X377909Y603717D01*
X376145Y606015D01*
X373848Y607779D01*
X371172Y608887D01*
X368300Y609265D01*
D02*
G37*
G36*
X646130Y596869D02*
X632650D01*
X631671Y596674D01*
X630840Y596120D01*
X630286Y595289D01*
X630091Y594310D01*
Y589330D01*
X630286Y588351D01*
X630840Y587520D01*
X631671Y586966D01*
X632650Y586771D01*
X646130D01*
X647109Y586966D01*
X647940Y587520D01*
X648494Y588351D01*
X648689Y589330D01*
Y594310D01*
X648494Y595289D01*
X647940Y596120D01*
X647109Y596674D01*
X646130Y596869D01*
D02*
G37*
G36*
X368300Y583865D02*
X365428Y583487D01*
X362752Y582379D01*
X360455Y580615D01*
X358691Y578317D01*
X358129Y576958D01*
X338915D01*
X338682Y578132D01*
X337889Y579319D01*
X336702Y580112D01*
X335303Y580390D01*
X317477D01*
X316078Y580112D01*
X314891Y579319D01*
X314098Y578132D01*
X313820Y576732D01*
Y567207D01*
X314098Y565808D01*
X314891Y564621D01*
X316078Y563828D01*
X317477Y563550D01*
X335303D01*
X336702Y563828D01*
X337889Y564621D01*
X338682Y565808D01*
X338960Y567207D01*
Y567782D01*
X358460D01*
X358691Y567223D01*
X360455Y564925D01*
X362752Y563162D01*
X365428Y562053D01*
X368300Y561675D01*
X371172Y562053D01*
X373848Y563162D01*
X376145Y564925D01*
X377909Y567223D01*
X379017Y569898D01*
X379395Y572770D01*
X379017Y575642D01*
X377909Y578317D01*
X376145Y580615D01*
X373848Y582379D01*
X371172Y583487D01*
X368300Y583865D01*
D02*
G37*
G36*
X394700Y583733D02*
Y573770D01*
X404663D01*
X404417Y575642D01*
X403308Y578317D01*
X401545Y580615D01*
X399248Y582379D01*
X396572Y583487D01*
X394700Y583733D01*
D02*
G37*
G36*
X392700D02*
X390828Y583487D01*
X388153Y582379D01*
X385855Y580615D01*
X384091Y578317D01*
X382983Y575642D01*
X382737Y573770D01*
X392700D01*
Y583733D01*
D02*
G37*
G36*
X523630Y585500D02*
X515630D01*
Y572500D01*
X523630D01*
Y585500D01*
D02*
G37*
G36*
X513630D02*
X505630D01*
Y572500D01*
X513630D01*
Y585500D01*
D02*
G37*
G36*
X1051480Y602250D02*
Y571230D01*
X1082500D01*
X1082184Y575251D01*
X1081008Y580149D01*
X1079080Y584802D01*
X1076449Y589097D01*
X1073177Y592927D01*
X1069347Y596198D01*
X1065053Y598830D01*
X1060399Y600758D01*
X1055501Y601934D01*
X1051480Y602250D01*
D02*
G37*
G36*
X1049480D02*
X1045459Y601934D01*
X1040561Y600758D01*
X1035907Y598830D01*
X1031613Y596198D01*
X1027783Y592927D01*
X1024511Y589097D01*
X1021880Y584802D01*
X1019952Y580149D01*
X1018776Y575251D01*
X1018460Y571230D01*
X1049480D01*
Y602250D01*
D02*
G37*
G36*
X261350D02*
Y571230D01*
X292370D01*
X292054Y575251D01*
X290878Y580149D01*
X288950Y584802D01*
X286319Y589097D01*
X283047Y592927D01*
X279217Y596198D01*
X274923Y598830D01*
X270269Y600758D01*
X265371Y601934D01*
X261350Y602250D01*
D02*
G37*
G36*
X259350D02*
X255329Y601934D01*
X250431Y600758D01*
X245777Y598830D01*
X241483Y596198D01*
X237653Y592927D01*
X234381Y589097D01*
X231750Y584802D01*
X229822Y580149D01*
X228646Y575251D01*
X228330Y571230D01*
X259350D01*
Y602250D01*
D02*
G37*
G36*
X488950Y580408D02*
X486999Y580020D01*
X485345Y578915D01*
X484240Y577261D01*
X483852Y575310D01*
X484240Y573359D01*
X485345Y571705D01*
X486999Y570600D01*
X488950Y570212D01*
X490901Y570600D01*
X492555Y571705D01*
X493660Y573359D01*
X494048Y575310D01*
X493660Y577261D01*
X492555Y578915D01*
X490901Y580020D01*
X488950Y580408D01*
D02*
G37*
G36*
X583890Y571469D02*
X578150D01*
X577171Y571274D01*
X576340Y570720D01*
X575917Y570086D01*
X575304Y569793D01*
X574437Y569621D01*
X574131Y569826D01*
X572960Y570059D01*
X569960D01*
Y564000D01*
Y557941D01*
X572960D01*
X574131Y558174D01*
X575123Y558837D01*
X575786Y559829D01*
X575985Y560830D01*
X576679Y561324D01*
X577045Y561504D01*
X577289Y561542D01*
X578150Y561371D01*
X583890D01*
Y566420D01*
Y571469D01*
D02*
G37*
G36*
X591630D02*
X585890D01*
Y567420D01*
X594189D01*
Y568910D01*
X593994Y569889D01*
X593440Y570720D01*
X592609Y571274D01*
X591630Y571469D01*
D02*
G37*
G36*
X567960Y570059D02*
X564960D01*
X563789Y569826D01*
X562797Y569163D01*
X562134Y568171D01*
X561901Y567000D01*
Y565000D01*
X567960D01*
Y570059D01*
D02*
G37*
G36*
X646130Y584169D02*
X632650D01*
X631671Y583974D01*
X630840Y583420D01*
X630286Y582589D01*
X630091Y581610D01*
Y576630D01*
X630286Y575651D01*
X630840Y574820D01*
X631671Y574266D01*
X632650Y574071D01*
X643462D01*
X643477Y574049D01*
X643889Y573637D01*
X643902Y573620D01*
Y572557D01*
X642819Y571469D01*
X632650D01*
X631671Y571274D01*
X630840Y570720D01*
X630286Y569889D01*
X630091Y568910D01*
Y563930D01*
X630286Y562951D01*
X630840Y562120D01*
X631671Y561566D01*
X632650Y561371D01*
X646130D01*
X647109Y561566D01*
X647940Y562120D01*
X648494Y562951D01*
X648689Y563930D01*
Y567441D01*
X680453D01*
X688717Y559177D01*
X689709Y558514D01*
X690880Y558281D01*
X690880Y558281D01*
X805098D01*
X806159Y557572D01*
X807720Y557262D01*
X809281Y557572D01*
X810604Y558456D01*
X811488Y559779D01*
X811798Y561340D01*
X811649Y562091D01*
X812591Y563361D01*
X815258D01*
X816319Y562652D01*
X817880Y562342D01*
X819441Y562652D01*
X820764Y563536D01*
X821648Y564859D01*
X821958Y566420D01*
X821648Y567981D01*
X820764Y569304D01*
X819441Y570188D01*
X817880Y570498D01*
X816319Y570188D01*
X815258Y569479D01*
X693487D01*
X685763Y577203D01*
X684771Y577866D01*
X683600Y578099D01*
X683600Y578099D01*
X648689D01*
Y581610D01*
X648494Y582589D01*
X647940Y583420D01*
X647109Y583974D01*
X646130Y584169D01*
D02*
G37*
G36*
X404663Y571770D02*
X394700D01*
Y561807D01*
X396572Y562053D01*
X399248Y563162D01*
X401545Y564925D01*
X403308Y567223D01*
X404417Y569898D01*
X404663Y571770D01*
D02*
G37*
G36*
X392700D02*
X382737D01*
X382983Y569898D01*
X384091Y567223D01*
X385855Y564925D01*
X388153Y563162D01*
X390828Y562053D01*
X392700Y561807D01*
Y571770D01*
D02*
G37*
G36*
X594189Y565420D02*
X585890D01*
Y561371D01*
X591630D01*
X592609Y561566D01*
X593440Y562120D01*
X593994Y562951D01*
X594189Y563930D01*
Y565420D01*
D02*
G37*
G36*
X655900Y560779D02*
X649900D01*
X648729Y560546D01*
X647737Y559883D01*
X647074Y558891D01*
X646718Y558652D01*
X646130Y558769D01*
X632650D01*
X631671Y558574D01*
X630840Y558020D01*
X630286Y557189D01*
X630091Y556210D01*
Y551230D01*
X630286Y550251D01*
X630840Y549420D01*
X631671Y548866D01*
X632650Y548671D01*
X646130D01*
X646718Y548788D01*
X647074Y548549D01*
X647737Y547557D01*
X648729Y546894D01*
X649900Y546661D01*
X655900D01*
X657070Y546894D01*
X658063Y547557D01*
X658726Y548549D01*
X658959Y549720D01*
Y557720D01*
X658726Y558890D01*
X658063Y559883D01*
X657070Y560546D01*
X655900Y560779D01*
D02*
G37*
G36*
X567960Y563000D02*
X561901D01*
Y561000D01*
X562134Y559829D01*
X562797Y558837D01*
X563789Y558174D01*
X564960Y557941D01*
X567960D01*
Y563000D01*
D02*
G37*
G36*
X523630Y570500D02*
X515630D01*
Y557500D01*
X523630D01*
Y570500D01*
D02*
G37*
G36*
X513630D02*
X505630D01*
Y557500D01*
X513630D01*
Y570500D01*
D02*
G37*
G36*
X670900Y560779D02*
X668900D01*
Y554720D01*
X673959D01*
Y557720D01*
X673726Y558890D01*
X673063Y559883D01*
X672070Y560546D01*
X670900Y560779D01*
D02*
G37*
G36*
X666900D02*
X664900D01*
X663729Y560546D01*
X662737Y559883D01*
X662074Y558890D01*
X661841Y557720D01*
Y554720D01*
X666900D01*
Y560779D01*
D02*
G37*
G36*
X673959Y552720D02*
X668900D01*
Y546661D01*
X670900D01*
X672070Y546894D01*
X673063Y547557D01*
X673726Y548549D01*
X673959Y549720D01*
Y552720D01*
D02*
G37*
G36*
X666900D02*
X661841D01*
Y549720D01*
X662074Y548549D01*
X662737Y547557D01*
X663729Y546894D01*
X664900Y546661D01*
X666900D01*
Y552720D01*
D02*
G37*
G36*
X419100Y583865D02*
X416228Y583487D01*
X413553Y582379D01*
X411255Y580615D01*
X409492Y578317D01*
X408383Y575642D01*
X408005Y572770D01*
X408383Y569898D01*
X409492Y567223D01*
X411255Y564925D01*
X413553Y563162D01*
X415786Y562236D01*
Y560070D01*
X416039Y558802D01*
X416757Y557727D01*
X423107Y551377D01*
X424182Y550659D01*
X425450Y550406D01*
X430941D01*
Y549720D01*
X431174Y548549D01*
X431837Y547557D01*
X432830Y546894D01*
X434000Y546661D01*
X440000D01*
X441171Y546894D01*
X442163Y547557D01*
X442826Y548549D01*
X443059Y549720D01*
Y557720D01*
X442826Y558890D01*
X442163Y559883D01*
X441171Y560546D01*
X440000Y560779D01*
X434000D01*
X432830Y560546D01*
X431837Y559883D01*
X431174Y558890D01*
X430941Y557720D01*
Y557034D01*
X426823D01*
X422793Y561063D01*
X422989Y562474D01*
X424647Y563162D01*
X426945Y564925D01*
X428708Y567223D01*
X429817Y569898D01*
X430195Y572770D01*
X429817Y575642D01*
X428708Y578317D01*
X426945Y580615D01*
X424647Y582379D01*
X421972Y583487D01*
X419100Y583865D01*
D02*
G37*
G36*
X1082500Y569230D02*
X1051480D01*
Y538210D01*
X1055501Y538526D01*
X1060399Y539702D01*
X1065053Y541629D01*
X1069347Y544261D01*
X1073177Y547532D01*
X1076449Y551362D01*
X1079080Y555657D01*
X1081008Y560311D01*
X1082184Y565208D01*
X1082500Y569230D01*
D02*
G37*
G36*
X1049480D02*
X1018460D01*
X1018776Y565208D01*
X1019952Y560311D01*
X1021880Y555657D01*
X1024511Y551362D01*
X1027783Y547532D01*
X1031613Y544261D01*
X1035907Y541629D01*
X1040561Y539702D01*
X1045459Y538526D01*
X1049480Y538210D01*
Y569230D01*
D02*
G37*
G36*
X292370D02*
X261350D01*
Y538210D01*
X265371Y538526D01*
X270269Y539702D01*
X274923Y541629D01*
X279217Y544261D01*
X283047Y547532D01*
X286319Y551362D01*
X288950Y555657D01*
X290878Y560311D01*
X292054Y565208D01*
X292370Y569230D01*
D02*
G37*
G36*
X259350D02*
X228330D01*
X228646Y565208D01*
X229822Y560311D01*
X231750Y555657D01*
X234381Y551362D01*
X237653Y547532D01*
X241483Y544261D01*
X245777Y541629D01*
X250431Y539702D01*
X255329Y538526D01*
X259350Y538210D01*
Y569230D01*
D02*
G37*
%LPD*%
G36*
X940709Y1101467D02*
X941918Y1098548D01*
X943841Y1096041D01*
X946348Y1094118D01*
X949267Y1092909D01*
X952400Y1092496D01*
X955533Y1092909D01*
X956674Y1093381D01*
X957943Y1092533D01*
Y912067D01*
X956674Y911219D01*
X955533Y911691D01*
X952400Y912104D01*
X949267Y911691D01*
X946348Y910482D01*
X943841Y908559D01*
X941918Y906052D01*
X940709Y903133D01*
X940340Y900334D01*
X939060D01*
X938691Y903133D01*
X937482Y906052D01*
X935558Y908559D01*
X933052Y910482D01*
X930133Y911691D01*
X927000Y912104D01*
X923867Y911691D01*
X922727Y911219D01*
X921457Y912067D01*
Y1092533D01*
X922727Y1093381D01*
X923867Y1092909D01*
X927000Y1092496D01*
X930133Y1092909D01*
X933052Y1094118D01*
X935558Y1096041D01*
X937482Y1098548D01*
X938691Y1101467D01*
X939060Y1104266D01*
X940340D01*
X940709Y1101467D01*
D02*
G37*
G36*
X889909D02*
X891118Y1098548D01*
X893042Y1096041D01*
X895548Y1094118D01*
X898467Y1092909D01*
X901600Y1092496D01*
X904733Y1092909D01*
X905873Y1093381D01*
X907143Y1092533D01*
Y912067D01*
X905873Y911219D01*
X904733Y911691D01*
X901600Y912104D01*
X898467Y911691D01*
X895548Y910482D01*
X893042Y908559D01*
X891118Y906052D01*
X889909Y903133D01*
X889540Y900334D01*
X888260D01*
X887891Y903133D01*
X886682Y906052D01*
X884759Y908559D01*
X882252Y910482D01*
X879333Y911691D01*
X876200Y912104D01*
X873067Y911691D01*
X871926Y911219D01*
X870657Y912067D01*
Y1092533D01*
X871926Y1093381D01*
X873067Y1092909D01*
X876200Y1092496D01*
X879333Y1092909D01*
X882252Y1094118D01*
X884759Y1096041D01*
X886682Y1098548D01*
X887891Y1101467D01*
X888260Y1104266D01*
X889540D01*
X889909Y1101467D01*
D02*
G37*
G36*
X839109D02*
X840318Y1098548D01*
X842242Y1096041D01*
X844748Y1094118D01*
X847667Y1092909D01*
X850800Y1092496D01*
X853933Y1092909D01*
X855073Y1093381D01*
X856344Y1092533D01*
Y912067D01*
X855073Y911219D01*
X853933Y911691D01*
X850800Y912104D01*
X847667Y911691D01*
X844748Y910482D01*
X842242Y908559D01*
X840318Y906052D01*
X839109Y903133D01*
X838740Y900334D01*
X837459D01*
X837091Y903133D01*
X835882Y906052D01*
X833959Y908559D01*
X831452Y910482D01*
X828533Y911691D01*
X825400Y912104D01*
X822267Y911691D01*
X821126Y911219D01*
X819856Y912067D01*
Y1092533D01*
X821126Y1093381D01*
X822267Y1092909D01*
X825400Y1092496D01*
X828533Y1092909D01*
X831452Y1094118D01*
X833959Y1096041D01*
X835882Y1098548D01*
X837091Y1101467D01*
X837459Y1104266D01*
X838740D01*
X839109Y1101467D01*
D02*
G37*
G36*
X940709Y871467D02*
X941918Y868548D01*
X943841Y866041D01*
X946348Y864118D01*
X949267Y862909D01*
X952400Y862496D01*
X955533Y862909D01*
X956674Y863381D01*
X957943Y862533D01*
Y682067D01*
X956674Y681219D01*
X955533Y681691D01*
X952400Y682104D01*
X949267Y681691D01*
X946348Y680482D01*
X943841Y678559D01*
X941918Y676052D01*
X940709Y673133D01*
X940340Y670334D01*
X939060D01*
X938691Y673133D01*
X937482Y676052D01*
X935558Y678559D01*
X933052Y680482D01*
X930133Y681691D01*
X927000Y682104D01*
X923867Y681691D01*
X922727Y681219D01*
X921457Y682067D01*
Y862533D01*
X922727Y863381D01*
X923867Y862909D01*
X927000Y862496D01*
X930133Y862909D01*
X933052Y864118D01*
X935558Y866041D01*
X937482Y868548D01*
X938691Y871467D01*
X939060Y874266D01*
X940340D01*
X940709Y871467D01*
D02*
G37*
G36*
X889909D02*
X891118Y868548D01*
X893042Y866041D01*
X895548Y864118D01*
X898467Y862909D01*
X901600Y862496D01*
X904733Y862909D01*
X905873Y863381D01*
X907143Y862533D01*
Y682067D01*
X905873Y681219D01*
X904733Y681691D01*
X901600Y682104D01*
X898467Y681691D01*
X895548Y680482D01*
X893042Y678559D01*
X891118Y676052D01*
X889909Y673133D01*
X889540Y670334D01*
X888260D01*
X887891Y673133D01*
X886682Y676052D01*
X884759Y678559D01*
X882252Y680482D01*
X879333Y681691D01*
X876200Y682104D01*
X873067Y681691D01*
X871926Y681219D01*
X870657Y682067D01*
Y862533D01*
X871926Y863381D01*
X873067Y862909D01*
X876200Y862496D01*
X879333Y862909D01*
X882252Y864118D01*
X884759Y866041D01*
X886682Y868548D01*
X887891Y871467D01*
X888260Y874266D01*
X889540D01*
X889909Y871467D01*
D02*
G37*
G36*
X839109D02*
X840318Y868548D01*
X842242Y866041D01*
X844748Y864118D01*
X847667Y862909D01*
X850800Y862496D01*
X853933Y862909D01*
X855073Y863381D01*
X856344Y862533D01*
Y682067D01*
X855073Y681219D01*
X853933Y681691D01*
X850800Y682104D01*
X847667Y681691D01*
X844748Y680482D01*
X842242Y678559D01*
X840318Y676052D01*
X839109Y673133D01*
X838740Y670334D01*
X837459D01*
X837091Y673133D01*
X835882Y676052D01*
X833959Y678559D01*
X831452Y680482D01*
X828533Y681691D01*
X825400Y682104D01*
X822267Y681691D01*
X821126Y681219D01*
X819856Y682067D01*
Y862533D01*
X821126Y863381D01*
X822267Y862909D01*
X825400Y862496D01*
X828533Y862909D01*
X831452Y864118D01*
X833959Y866041D01*
X835882Y868548D01*
X837091Y871467D01*
X837459Y874266D01*
X838740D01*
X839109Y871467D01*
D02*
G37*
G36*
X889909Y641467D02*
X891118Y638548D01*
X893042Y636041D01*
X895548Y634118D01*
X898467Y632909D01*
X901600Y632496D01*
X904733Y632909D01*
X907652Y634118D01*
X910158Y636041D01*
X912082Y638548D01*
X913291Y641467D01*
X913660Y644266D01*
X914940D01*
X915309Y641467D01*
X916518Y638548D01*
X918441Y636041D01*
X920948Y634118D01*
X923867Y632909D01*
X927000Y632496D01*
X930133Y632909D01*
X933052Y634118D01*
X935558Y636041D01*
X937482Y638548D01*
X938691Y641467D01*
X939060Y644266D01*
X940340D01*
X940709Y641467D01*
X941918Y638548D01*
X943841Y636041D01*
X946348Y634118D01*
X949267Y632909D01*
X952400Y632496D01*
X955533Y632909D01*
X958331Y634068D01*
X959267Y633729D01*
X959601Y633564D01*
Y600707D01*
X948693Y589799D01*
X703648D01*
X677323Y616123D01*
X676331Y616786D01*
X675161Y617019D01*
X675160Y617019D01*
X652511D01*
X652294Y617343D01*
X652172Y618190D01*
X652294Y619037D01*
X652511Y619361D01*
X679333D01*
X703957Y594737D01*
X703957Y594737D01*
X704949Y594074D01*
X706120Y593841D01*
X909238D01*
X910299Y593132D01*
X911860Y592822D01*
X913421Y593132D01*
X914744Y594016D01*
X915628Y595339D01*
X915920Y596810D01*
X916064Y597181D01*
X916659Y597776D01*
X917030Y597920D01*
X918501Y598212D01*
X919824Y599096D01*
X920708Y600419D01*
X921018Y601980D01*
X920708Y603541D01*
X919824Y604864D01*
X918501Y605748D01*
X916940Y606058D01*
X915379Y605748D01*
X914318Y605039D01*
X708727D01*
X684643Y629123D01*
X683651Y629786D01*
X682480Y630019D01*
X682480Y630019D01*
X652511D01*
X652294Y630343D01*
X652172Y631190D01*
X652294Y632037D01*
X652511Y632361D01*
X686653D01*
X708497Y610517D01*
X709490Y609854D01*
X710660Y609621D01*
X857860D01*
X857860Y609621D01*
X859031Y609854D01*
X860023Y610517D01*
X867933Y618427D01*
X868596Y619419D01*
X868829Y620589D01*
X868829Y620590D01*
Y632903D01*
X870089Y634163D01*
X870148Y634118D01*
X873067Y632909D01*
X876200Y632496D01*
X879333Y632909D01*
X882252Y634118D01*
X884759Y636041D01*
X886682Y638548D01*
X887891Y641467D01*
X888260Y644266D01*
X889540D01*
X889909Y641467D01*
D02*
G37*
G36*
X490220Y1200150D02*
Y1187450D01*
X474980Y1172210D01*
X474980Y1163846D01*
X473998Y1163040D01*
X473180Y1163203D01*
X462680D01*
X461992Y1163066D01*
X461010Y1163871D01*
X461010Y1181100D01*
X468630Y1188720D01*
Y1198880D01*
X474980Y1205230D01*
X485140D01*
X490220Y1200150D01*
D02*
G37*
G36*
X474980Y1155835D02*
X474980Y1149350D01*
X478790Y1145540D01*
X497840Y1145540D01*
X497840Y1129030D01*
X457200D01*
X457200Y1145540D01*
X461010Y1149350D01*
X461010Y1155809D01*
X461992Y1156614D01*
X462680Y1156477D01*
X473180D01*
X473998Y1156640D01*
X474980Y1155835D01*
D02*
G37*
G36*
X392001Y1162508D02*
X392991Y1161668D01*
Y1160090D01*
X400050D01*
Y1159090D01*
X401050D01*
Y1153031D01*
X404050D01*
X405220Y1153264D01*
X406213Y1153927D01*
X406271Y1154015D01*
X407799D01*
X407857Y1153927D01*
X408849Y1153264D01*
X410020Y1153031D01*
X413020D01*
Y1159090D01*
X415020D01*
Y1153031D01*
X418020D01*
X419190Y1153264D01*
X420183Y1153927D01*
X421201Y1153196D01*
X421640Y1152744D01*
Y1148110D01*
X417440D01*
Y1135110D01*
X426440D01*
Y1133110D01*
X417440D01*
Y1122188D01*
X414020D01*
X412264Y1121839D01*
X410776Y1120844D01*
X409781Y1119356D01*
X409432Y1117600D01*
X409781Y1115844D01*
X410776Y1114356D01*
X412264Y1113361D01*
X414020Y1113012D01*
X417440D01*
Y1100820D01*
X426440D01*
X435440D01*
Y1113772D01*
X436314Y1114356D01*
X436785Y1115060D01*
X501650Y1115060D01*
X501650Y1082040D01*
X494745D01*
X494046Y1083310D01*
X494298Y1084580D01*
X493988Y1086141D01*
X493104Y1087464D01*
X491781Y1088348D01*
X490220Y1088658D01*
X488659Y1088348D01*
X487336Y1087464D01*
X486452Y1086141D01*
X486142Y1084580D01*
X486394Y1083310D01*
X485695Y1082040D01*
X405130Y1082040D01*
Y1098684D01*
X405273Y1098806D01*
X406400Y1099246D01*
X407379Y1098592D01*
X408940Y1098282D01*
X410501Y1098592D01*
X411824Y1099476D01*
X412708Y1100799D01*
X413018Y1102360D01*
X412708Y1103921D01*
X411824Y1105244D01*
X410501Y1106128D01*
X408940Y1106438D01*
X407379Y1106128D01*
X406400Y1105474D01*
X405273Y1105914D01*
X405130Y1106036D01*
X405130Y1149350D01*
X391160Y1149350D01*
X391160Y1162279D01*
X391904Y1162553D01*
X392001Y1162508D01*
D02*
G37*
%LPC*%
G36*
X399050Y1158090D02*
X392991D01*
Y1156090D01*
X393224Y1154920D01*
X393887Y1153927D01*
X394879Y1153264D01*
X396050Y1153031D01*
X399050D01*
Y1158090D01*
D02*
G37*
G36*
X499520Y1110370D02*
X478520D01*
Y1101870D01*
X499520D01*
Y1110370D01*
D02*
G37*
G36*
X476520D02*
X455520D01*
Y1101870D01*
X476520D01*
Y1110370D01*
D02*
G37*
G36*
X499520Y1099870D02*
X478520D01*
Y1091370D01*
X499520D01*
Y1099870D01*
D02*
G37*
G36*
X476520D02*
X455520D01*
Y1091370D01*
X476520D01*
Y1099870D01*
D02*
G37*
G36*
X435440Y1098820D02*
X427440D01*
Y1085820D01*
X435440D01*
Y1098820D01*
D02*
G37*
G36*
X425440D02*
X417440D01*
Y1085820D01*
X425440D01*
Y1098820D01*
D02*
G37*
%LPD*%
G36*
X347299Y858890D02*
X349250Y858502D01*
X351201Y858890D01*
X351383Y859012D01*
X354737D01*
X354919Y858890D01*
X356870Y858502D01*
X358821Y858890D01*
X359003Y859012D01*
X362357D01*
X362539Y858890D01*
X364490Y858502D01*
X366441Y858890D01*
X366909Y859203D01*
X373135D01*
X373567Y858557D01*
X374560Y857894D01*
X374975Y857811D01*
X375106Y856575D01*
X371479Y852948D01*
X353728D01*
X353329Y853214D01*
X352350Y853409D01*
X337870D01*
X336891Y853214D01*
X336060Y852660D01*
X335506Y851829D01*
X335311Y850850D01*
Y845870D01*
X335506Y844891D01*
X336060Y844060D01*
X336891Y843506D01*
X337870Y843311D01*
X352350D01*
X353329Y843506D01*
X353728Y843772D01*
X364731D01*
Y814070D01*
X365003Y812704D01*
X365777Y811547D01*
X374202Y803121D01*
X373943Y801584D01*
X373567Y801333D01*
X372904Y800340D01*
X372671Y799170D01*
Y793170D01*
X372904Y792000D01*
X373567Y791007D01*
X374560Y790344D01*
X375730Y790111D01*
X383730D01*
X384901Y790344D01*
X385893Y791007D01*
X386556Y792000D01*
X386789Y793170D01*
Y799170D01*
X386556Y800340D01*
X385893Y801333D01*
X384901Y801996D01*
X383730Y802229D01*
X383026D01*
Y802913D01*
X382754Y804278D01*
X381981Y805436D01*
X375929Y811488D01*
X376555Y812658D01*
X377190Y812532D01*
X378751Y812842D01*
X380074Y813726D01*
X380481Y814336D01*
X381751Y813951D01*
Y812800D01*
X381751Y812800D01*
X381984Y811629D01*
X382647Y810637D01*
X385187Y808097D01*
X385187Y808097D01*
X386179Y807434D01*
X387350Y807201D01*
X389424D01*
X389506Y806791D01*
X390060Y805960D01*
X390891Y805406D01*
X391870Y805211D01*
X395721D01*
Y788667D01*
X391283Y784229D01*
X386777D01*
X386556Y785340D01*
X385893Y786333D01*
X384901Y786996D01*
X383730Y787229D01*
X375730D01*
X374560Y786996D01*
X373567Y786333D01*
X373070Y785588D01*
X372082Y785374D01*
X371619Y785392D01*
X370731Y786551D01*
X368903Y787953D01*
X366774Y788835D01*
X364490Y789136D01*
X362425Y788864D01*
X359374Y791914D01*
X357886Y792909D01*
X356130Y793258D01*
X345460D01*
Y803170D01*
X324628D01*
Y806680D01*
X333340D01*
Y819391D01*
X335572D01*
X336060Y818660D01*
X336891Y818106D01*
X337870Y817911D01*
X352350D01*
X353329Y818106D01*
X354160Y818660D01*
X354714Y819491D01*
X354909Y820470D01*
Y825450D01*
X354714Y826429D01*
X354160Y827260D01*
X353329Y827814D01*
X352350Y828009D01*
X337870D01*
X336891Y827814D01*
X336060Y827260D01*
X335572Y826529D01*
X333340D01*
Y829080D01*
X333340D01*
Y829540D01*
X333340D01*
Y832091D01*
X335572D01*
X336060Y831360D01*
X336891Y830806D01*
X337870Y830611D01*
X352350D01*
X353329Y830806D01*
X354160Y831360D01*
X354714Y832191D01*
X354909Y833170D01*
Y838150D01*
X354714Y839129D01*
X354160Y839960D01*
X353329Y840514D01*
X352350Y840709D01*
X337870D01*
X336891Y840514D01*
X336060Y839960D01*
X335572Y839229D01*
X333340D01*
Y851940D01*
X325898D01*
Y855450D01*
X345460D01*
Y858592D01*
X346730Y859270D01*
X347299Y858890D01*
D02*
G37*
%LPC*%
G36*
X352350Y815309D02*
X346110D01*
Y811260D01*
X354909D01*
Y812750D01*
X354714Y813729D01*
X354160Y814560D01*
X353329Y815114D01*
X352350Y815309D01*
D02*
G37*
G36*
X344110D02*
X337870D01*
X336891Y815114D01*
X336060Y814560D01*
X335506Y813729D01*
X335311Y812750D01*
Y811260D01*
X344110D01*
Y815309D01*
D02*
G37*
G36*
X354909Y809260D02*
X346110D01*
Y805211D01*
X352350D01*
X353329Y805406D01*
X354160Y805960D01*
X354714Y806791D01*
X354909Y807770D01*
Y809260D01*
D02*
G37*
G36*
X344110D02*
X335311D01*
Y807770D01*
X335506Y806791D01*
X336060Y805960D01*
X336891Y805406D01*
X337870Y805211D01*
X344110D01*
Y809260D01*
D02*
G37*
%LPD*%
G36*
X553201Y744101D02*
Y622300D01*
X553201Y622300D01*
X553434Y621129D01*
X554097Y620137D01*
X561457Y612777D01*
X562449Y612114D01*
X563620Y611881D01*
X571179D01*
X571831Y610611D01*
X571358Y609903D01*
X571067Y608440D01*
X571358Y606977D01*
X572186Y605736D01*
X573427Y604908D01*
X574890Y604617D01*
X591390D01*
X592671Y604871D01*
X606162D01*
Y588521D01*
X601349Y583708D01*
X593008D01*
X592609Y583974D01*
X591630Y584169D01*
X578150D01*
X577171Y583974D01*
X576593Y583588D01*
X575507D01*
X575123Y584163D01*
X574131Y584826D01*
X572960Y585059D01*
X564960D01*
X563789Y584826D01*
X562797Y584163D01*
X562413Y583588D01*
X558630D01*
Y585500D01*
X540630D01*
Y583815D01*
X539360Y582773D01*
X538480Y582948D01*
X536529Y582560D01*
X534875Y581455D01*
X533919Y580023D01*
X532863Y580152D01*
X532649Y580235D01*
Y591823D01*
X535305Y594479D01*
X540127Y589657D01*
X540127Y589657D01*
X541119Y588994D01*
X542290Y588761D01*
X575704D01*
X575786Y588351D01*
X576340Y587520D01*
X577171Y586966D01*
X578150Y586771D01*
X591630D01*
X592609Y586966D01*
X593440Y587520D01*
X593994Y588351D01*
X594189Y589330D01*
Y594310D01*
X593994Y595289D01*
X593440Y596120D01*
X592609Y596674D01*
X591630Y596869D01*
X578150D01*
X577171Y596674D01*
X576340Y596120D01*
X575786Y595289D01*
X575704Y594879D01*
X543557D01*
X540459Y597977D01*
Y736144D01*
X541712Y736834D01*
X541999Y736642D01*
X543560Y736332D01*
X545121Y736642D01*
X546444Y737526D01*
X547328Y738849D01*
X547638Y740410D01*
X547395Y741634D01*
X548004Y742485D01*
X548340Y742741D01*
X548640Y742682D01*
X550201Y742992D01*
X551524Y743876D01*
X551931Y744486D01*
X553201Y744101D01*
D02*
G37*
D10*
X425450Y553720D02*
X437000D01*
X419100Y560070D02*
X425450Y553720D01*
X419100Y560070D02*
Y572770D01*
X438150Y582930D02*
X438830Y583610D01*
X639390Y553720D02*
X652900D01*
X638810D02*
X639390D01*
X451510Y565551D02*
Y583610D01*
Y565551D02*
X451833Y565228D01*
Y564167D02*
Y565228D01*
Y564167D02*
X452120Y563880D01*
X438830Y583610D02*
X451510D01*
X419100Y598170D02*
X438030D01*
X438150Y598050D01*
D13*
X341630Y1079500D02*
X347790Y1073340D01*
X424567D01*
X336550Y1074420D02*
Y1083310D01*
Y1074420D02*
X342900Y1068070D01*
X424180D01*
X346710Y1083310D02*
X351790Y1078230D01*
X425334D01*
X424180Y1068070D02*
X471170Y1021080D01*
X425334Y1078230D02*
X479170Y1024394D01*
X424567Y1073340D02*
X475170Y1022737D01*
X414910Y817106D02*
Y894062D01*
X380080Y928892D02*
X414910Y894062D01*
X380080Y928892D02*
Y1008325D01*
X386027Y1014272D01*
X391092D01*
X397900Y1021080D01*
X402900D01*
X372460Y930855D02*
Y1039210D01*
Y930855D02*
X410910Y892405D01*
X372460Y1039210D02*
X379730Y1046480D01*
X402900D01*
X410910Y815450D02*
Y892405D01*
X479170Y853243D02*
Y1024394D01*
X473017Y847090D02*
X479170Y853243D01*
X397510Y662940D02*
X398780Y661670D01*
X397510D02*
X398780D01*
X397510Y662940D02*
Y671710D01*
X397630Y671830D01*
X424296Y807720D02*
X458470D01*
X423719Y802640D02*
X462280D01*
X464820Y847090D02*
X473017D01*
X410910Y815450D02*
X423719Y802640D01*
X414910Y817106D02*
X424296Y807720D01*
X537400Y738060D02*
X539750Y740410D01*
X537400Y596710D02*
Y738060D01*
Y596710D02*
X542290Y591820D01*
X533400Y742950D02*
X537210Y746760D01*
X533400Y596900D02*
Y742950D01*
X529590Y593090D02*
X533400Y596900D01*
X529590Y557530D02*
Y593090D01*
Y557530D02*
X534320Y552800D01*
X583970D01*
X584890Y553720D01*
X542290Y591820D02*
X584890D01*
X398780Y787400D02*
Y810260D01*
X706120Y596900D02*
X911860D01*
X707460Y601980D02*
X916940D01*
X680600Y622420D02*
X706120Y596900D01*
X682480Y626960D02*
X707460Y601980D01*
X692221Y566420D02*
X817880D01*
X690880Y561340D02*
X807720D01*
X681720Y570500D02*
X690880Y561340D01*
X646812Y570500D02*
X681720D01*
X646812Y575040D02*
X683600D01*
X692221Y566420D01*
X639390Y579120D02*
X643640D01*
X645640Y577120D01*
Y576212D02*
Y577120D01*
Y576212D02*
X646812Y575040D01*
X639390Y566420D02*
X643640D01*
X645640Y568420D01*
Y569328D01*
X646812Y570500D01*
X650776Y622420D02*
X680600D01*
X641140Y627940D02*
X649796D01*
X650776Y626960D01*
X682480D01*
X641140Y621440D02*
X649796D01*
X650776Y622420D01*
X974628Y644600D02*
X977800D01*
X967370Y637342D02*
X974628Y644600D01*
X967370Y633805D02*
Y637342D01*
X967200Y633635D02*
X967370Y633805D01*
X952400Y644600D02*
X955572D01*
X962830Y637342D01*
Y635686D02*
Y637342D01*
X962660Y635516D02*
X962830Y635686D01*
X967200Y597560D02*
Y633635D01*
X951841Y582200D02*
X967200Y597560D01*
X962660Y599440D02*
Y635516D01*
X949960Y586740D02*
X962660Y599440D01*
X700500Y582200D02*
X951841D01*
X702381Y586740D02*
X949960D01*
X675161Y613960D02*
X702381Y586740D01*
X673280Y609420D02*
X700500Y582200D01*
X650776Y609420D02*
X673280D01*
X649796Y608440D02*
X650776Y609420D01*
X641140Y608440D02*
X649796D01*
X650776Y613960D02*
X675161D01*
X649796Y614940D02*
X650776Y613960D01*
X641140Y614940D02*
X649796D01*
X865770Y634170D02*
X876200Y644600D01*
X865770Y620589D02*
Y634170D01*
X857860Y612680D02*
X865770Y620589D01*
X850800Y644600D02*
X861230Y634170D01*
Y622470D02*
Y634170D01*
X855980Y617220D02*
X861230Y622470D01*
X710660Y612680D02*
X857860D01*
X712541Y617220D02*
X855980D01*
X687920Y635420D02*
X710660Y612680D01*
X689800Y639960D02*
X712541Y617220D01*
X650776Y635420D02*
X687920D01*
X650776Y639960D02*
X689800D01*
X649796Y634440D02*
X650776Y635420D01*
X641140Y634440D02*
X649796D01*
Y640940D02*
X650776Y639960D01*
X641140Y640940D02*
X649796D01*
X556260Y622300D02*
X563620Y614940D01*
X556260Y622300D02*
Y751840D01*
X563620Y614940D02*
X583140D01*
X561340Y624840D02*
X564740Y621440D01*
X583140D01*
X561340Y624840D02*
Y746760D01*
X570353Y641227D02*
X582853D01*
X568960Y642620D02*
X570353Y641227D01*
X568960Y642620D02*
Y741680D01*
X582853Y641227D02*
X583140Y640940D01*
X539750Y740410D02*
X543560D01*
X537210Y746760D02*
X548640D01*
X651510Y665480D02*
X654140Y662850D01*
X642620Y665480D02*
X651510D01*
X654140Y651973D02*
Y662850D01*
X649607Y647440D02*
X654140Y651973D01*
X641140Y647440D02*
X649607D01*
X627500Y655222D02*
Y665480D01*
X628672Y654050D02*
X641350D01*
X627500Y655222D02*
X628672Y654050D01*
X524510Y890270D02*
Y906780D01*
X475170Y854900D02*
Y1022737D01*
X471170Y858520D02*
Y1021080D01*
X469900Y857250D02*
X471170Y858520D01*
X412750Y671830D02*
X428780D01*
X478790Y685800D02*
X479021D01*
X497840Y684530D02*
X512960D01*
X480291D02*
X495780D01*
X479021Y685800D02*
X480291Y684530D01*
X512960D02*
X513080Y684410D01*
X321310Y759460D02*
X415018D01*
X416918Y757560D01*
X417190D01*
X473887Y659307D02*
X475194D01*
X473710Y659130D02*
X473887Y659307D01*
X475194D02*
X475371Y659130D01*
X495780D01*
X464820Y671830D02*
X465157Y672167D01*
X465194D01*
X465531Y671830D01*
X495780D01*
X428780Y646430D02*
X467360D01*
X427190Y659600D02*
X459270D01*
X426720Y659130D02*
X427190Y659600D01*
X424873Y812800D02*
X454660D01*
X418910Y818763D02*
Y897246D01*
Y818763D02*
X424873Y812800D01*
X392430Y970280D02*
X402900D01*
X389890Y967740D02*
X392430Y970280D01*
X389890Y933450D02*
Y967740D01*
X472520Y852250D02*
X475170Y854900D01*
X462200Y852250D02*
X472520D01*
X458470Y855980D02*
X462200Y852250D01*
X425450Y817880D02*
X449580D01*
X422910Y820420D02*
X425450Y817880D01*
X422910Y820420D02*
Y900430D01*
X384810Y931346D02*
X418910Y897246D01*
X389890Y933450D02*
X422910Y900430D01*
X398780Y822960D02*
Y829310D01*
X377190Y816610D02*
Y829310D01*
X398780D01*
X377190D02*
Y843280D01*
X384810Y834390D02*
Y844550D01*
Y812800D02*
Y822960D01*
X391802Y861822D02*
X393700Y863720D01*
X391802Y857892D02*
Y861822D01*
X377190Y843280D02*
X391802Y857892D01*
X398780Y829310D02*
Y835330D01*
X399110Y835660D01*
X384810Y812800D02*
X387350Y810260D01*
X384810Y844550D02*
X388620Y848360D01*
X399110D01*
X398780Y810260D02*
X399110D01*
X387350D02*
X398780D01*
X312420Y1174750D02*
X313690Y1176020D01*
Y1195070D01*
X314960Y1196340D01*
X341630D01*
X344170Y1193800D01*
Y1182370D02*
Y1193800D01*
Y1155700D02*
Y1167130D01*
Y1155700D02*
X346710Y1153160D01*
X373998D01*
X375170Y1154332D01*
Y1174750D01*
X392550Y781170D02*
X398780Y787400D01*
X379730Y781170D02*
X392550D01*
X384810Y931346D02*
Y991870D01*
X388620Y995680D01*
X402900D01*
D18*
X820300Y1158240D02*
D03*
X805300D02*
D03*
X871100D02*
D03*
X856100D02*
D03*
X972700D02*
D03*
X957700D02*
D03*
X921900D02*
D03*
X906900D02*
D03*
X610750Y666750D02*
D03*
X595750D02*
D03*
X627500Y665480D02*
D03*
X642500D02*
D03*
X667900Y553720D02*
D03*
X652900D02*
D03*
X412630Y684530D02*
D03*
X397630D02*
D03*
Y671830D02*
D03*
X412630D02*
D03*
X556140Y821690D02*
D03*
X541140D02*
D03*
X525900Y772160D02*
D03*
X540900D02*
D03*
X270630Y746760D02*
D03*
X285630D02*
D03*
X306190Y759460D02*
D03*
X321190D02*
D03*
X270630D02*
D03*
X285630D02*
D03*
X253880Y767080D02*
D03*
X238880D02*
D03*
X288170Y698500D02*
D03*
X273170D02*
D03*
X273170Y657860D02*
D03*
X288170D02*
D03*
Y670560D02*
D03*
X273170D02*
D03*
X288170Y685800D02*
D03*
X273170D02*
D03*
X238880Y707390D02*
D03*
X253880D02*
D03*
X450730Y619760D02*
D03*
X435730D02*
D03*
X452000Y553720D02*
D03*
X437000D02*
D03*
X622180Y1239520D02*
D03*
X607180D02*
D03*
X579240D02*
D03*
X594240D02*
D03*
D19*
X568960Y564000D02*
D03*
Y579000D02*
D03*
X513080Y684410D02*
D03*
Y669410D02*
D03*
X488950Y972700D02*
D03*
Y957700D02*
D03*
X302260Y685680D02*
D03*
Y670680D02*
D03*
X438150Y583050D02*
D03*
Y598050D02*
D03*
X393700Y878720D02*
D03*
Y863720D02*
D03*
X379730Y781170D02*
D03*
Y796170D02*
D03*
Y878720D02*
D03*
Y863720D02*
D03*
X400050Y1200030D02*
D03*
Y1185030D02*
D03*
Y1174090D02*
D03*
Y1159090D02*
D03*
X414020Y1174090D02*
D03*
Y1159090D02*
D03*
X445770Y1145420D02*
D03*
Y1130420D02*
D03*
D32*
X549630Y571500D02*
D03*
X514630D02*
D03*
X426440Y1099820D02*
D03*
X391440D02*
D03*
X426440Y1134110D02*
D03*
X391440D02*
D03*
D48*
X267080Y829310D02*
D03*
Y864310D02*
D03*
Y1058060D02*
D03*
Y1023060D02*
D03*
Y953060D02*
D03*
Y988060D02*
D03*
Y1146530D02*
D03*
D55*
X489350Y941070D02*
D03*
D56*
X539350D02*
D03*
D64*
X400050Y1159090D02*
G03*
X400900Y1158240I850J0D01*
G01*
X609600Y1097280D02*
X641350D01*
X647700Y1103630D01*
Y1234440D01*
X642620Y1239520D02*
X647700Y1234440D01*
X622300Y1239520D02*
X642620D01*
X610750Y608440D02*
X610760D01*
X583140D02*
X610750D01*
X610760D02*
X610870Y608330D01*
X610750Y628530D02*
X610870Y628650D01*
X610160Y627940D02*
X610750Y628530D01*
X583140Y627940D02*
X610160D01*
X570170Y565210D02*
X583680D01*
X584890Y566420D01*
X568960Y564000D02*
X570170Y565210D01*
X412750Y684530D02*
X428780D01*
X461010Y605110D02*
Y617220D01*
X402170Y1159510D02*
X416560D01*
X412630Y694690D02*
X429260D01*
X412630Y684530D02*
Y694690D01*
X429260D02*
X435610D01*
X513080Y660400D02*
Y669410D01*
X368300Y814070D02*
Y848360D01*
Y814070D02*
X379457Y802913D01*
Y796443D02*
Y802913D01*
Y796443D02*
X379730Y796170D01*
X477520Y558800D02*
Y582930D01*
X472440Y553720D02*
X477520Y558800D01*
X452000Y553720D02*
X472440D01*
X398780Y619760D02*
X435730D01*
X393700Y614680D02*
X398780Y619760D01*
X393700Y598170D02*
Y614680D01*
X451223Y605397D02*
Y619267D01*
X450730Y619760D02*
X451223Y619267D01*
Y605397D02*
X451510Y605110D01*
X443230Y608330D02*
X446517Y605043D01*
X539350Y941070D02*
X539750Y940670D01*
X539350Y941070D02*
Y941070D01*
X530603Y949817D02*
X539350Y941070D01*
X514350Y958460D02*
Y959460D01*
Y958460D02*
X522993Y949817D01*
X530603D01*
X539750Y930910D02*
Y940670D01*
X535940Y927100D02*
X539750Y930910D01*
X514510Y927100D02*
X535940D01*
X514350Y926940D02*
X514510Y927100D01*
X489350Y941070D02*
X489350D01*
X489960Y940460D02*
X507850D01*
X489350Y941070D02*
X489960Y940460D01*
X446517Y605043D02*
X450817D01*
X450850Y605010D01*
Y604520D02*
Y605010D01*
X471190Y582930D02*
X477520D01*
X470510Y583610D02*
X471190Y582930D01*
X316230Y681990D02*
Y692150D01*
Y664210D02*
Y675640D01*
X443840Y1174090D02*
X444500Y1174750D01*
X399390Y1185030D02*
X400050Y1184370D01*
X414020Y1174090D02*
X415950D01*
X415290Y1174750D02*
X415950Y1174090D01*
X443840D01*
X401160Y1183640D02*
X401320D01*
X400050Y1182530D02*
X401160Y1183640D01*
X400050Y1174090D02*
Y1182530D01*
X401980Y1174090D02*
X414020D01*
X401320Y1174750D02*
X401980Y1174090D01*
X327420Y835660D02*
X345110D01*
X327420Y822960D02*
X345110D01*
X322340Y817880D02*
X327420Y822960D01*
X322340Y840740D02*
X327420Y835660D01*
X594240Y1239520D02*
X607060D01*
X593910Y1239190D02*
X594240Y1239520D01*
X593910Y1220920D02*
Y1239190D01*
D66*
X364490Y863791D02*
X378531D01*
X306070Y612140D02*
X326390D01*
X238880Y767080D02*
Y789820D01*
X549630Y574500D02*
X554130Y579000D01*
X549630Y571500D02*
Y574500D01*
X554130Y579000D02*
X568960D01*
X538480Y571500D02*
Y577850D01*
Y565150D02*
Y571500D01*
Y558800D02*
Y565150D01*
X610750Y586620D02*
Y608440D01*
X603250Y579120D02*
X610750Y586620D01*
X584890Y579120D02*
X603250D01*
X538480Y571500D02*
X549630D01*
X610750Y608440D02*
Y628530D01*
Y666750D01*
X584080Y579000D02*
X584200Y579120D01*
X568960Y579000D02*
X584080D01*
X458470Y629920D02*
X461010Y627380D01*
Y617220D02*
Y627380D01*
X364490Y629920D02*
X458470D01*
X426580Y1133970D02*
X426720Y1134110D01*
X426440Y1117049D02*
X426991Y1117600D01*
X276860Y734060D02*
X283210D01*
X290170Y727100D01*
X299570D01*
X346240Y611670D02*
X364490Y629920D01*
X326390Y611670D02*
X346240D01*
X299720Y612140D02*
X306070D01*
X293370D02*
X299720D01*
X326390Y657860D02*
Y682608D01*
Y612140D02*
Y657860D01*
X326540Y657710D01*
X335890D01*
X326390Y682608D02*
X329319Y685537D01*
X335777D01*
X335890Y685650D01*
X356870Y803910D02*
Y810260D01*
X345110D02*
X356870D01*
X368300Y848360D02*
X373380D01*
X345110D02*
X368300D01*
X238760Y789940D02*
X238880Y789820D01*
X426991Y1117600D02*
X433070D01*
X426720D02*
X426991D01*
X426580Y1117740D02*
X426720Y1117600D01*
X426580Y1117740D02*
Y1133970D01*
X414020Y1117600D02*
X420370D01*
X426720D01*
X426440Y1099820D02*
Y1117049D01*
X356870Y863600D02*
X364490D01*
X349250D02*
X356870D01*
X379730Y854710D02*
Y863720D01*
X373380Y848360D02*
X379730Y854710D01*
X458470Y1130300D02*
X462280Y1134110D01*
X445890Y1130300D02*
X458470D01*
X445770Y1130420D02*
X445890Y1130300D01*
X488950Y957700D02*
X489150Y957500D01*
Y941270D02*
Y957500D01*
Y941270D02*
X489350Y941070D01*
X253880Y749300D02*
Y767080D01*
X268681Y767639D02*
X270510Y765810D01*
Y760580D02*
Y765810D01*
Y760580D02*
X270630Y760460D01*
X255380Y767639D02*
X268681D01*
X255270Y767749D02*
Y768350D01*
Y767749D02*
X255380Y767639D01*
X270630Y759460D02*
Y760460D01*
X253880Y749300D02*
X254000D01*
X285630Y746760D02*
Y759460D01*
X285630Y746760D02*
X285630Y746760D01*
X306130Y759400D02*
X306190Y759460D01*
X306130Y746160D02*
Y759400D01*
X306070Y746100D02*
X306130Y746160D01*
X285630Y759460D02*
X306190D01*
X243840Y689610D02*
X254000D01*
X238760Y694690D02*
X243840Y689610D01*
X238760Y694690D02*
Y707390D01*
X326790Y572370D02*
X367900D01*
X326390Y571970D02*
X326790Y572370D01*
X367900D02*
X368300Y572770D01*
X288170Y685800D02*
X288290D01*
X287020D02*
X288170D01*
X288290Y670560D02*
X302260D01*
Y670680D02*
X303260D01*
X288170Y685920D02*
X288290Y685800D01*
X309657Y691927D02*
X316007D01*
X304910Y687180D02*
X309657Y691927D01*
X304760Y687180D02*
X304910D01*
X316007Y691927D02*
X316230Y692150D01*
X303260Y685680D02*
X304760Y687180D01*
X302260Y685680D02*
X303260D01*
X288290Y685800D02*
X302140D01*
X302260Y685680D01*
X288170Y685920D02*
Y698500D01*
X288170Y670440D02*
X288290Y670560D01*
X309880Y664210D02*
X316230D01*
X304910Y669180D02*
X309880Y664210D01*
X304760Y669180D02*
X304910D01*
X303260Y670680D02*
X304760Y669180D01*
X288170Y670560D02*
X288290D01*
X288170Y657860D02*
Y670440D01*
X254000Y664210D02*
X260350Y670560D01*
X252730Y662940D02*
X254000Y664210D01*
X260350Y670560D02*
X273170D01*
X325120Y873760D02*
X359940D01*
X364490Y878310D01*
X321310Y869950D02*
X325120Y873760D01*
X321310Y841770D02*
Y869950D01*
Y841770D02*
X322340Y840740D01*
X322580Y788670D02*
X334960D01*
X320040Y791210D02*
X322580Y788670D01*
X320040Y791210D02*
Y815380D01*
X334960Y788670D02*
X356130D01*
X364490Y780310D01*
X320040Y815380D02*
X322340Y817680D01*
X267080Y794945D02*
X269165D01*
X292100Y817880D02*
X292340D01*
X269165Y794945D02*
X292100Y817880D01*
X292140Y840740D02*
X292340Y840540D01*
X257810Y685800D02*
X273050D01*
X254000Y689610D02*
X257810Y685800D01*
X276860Y840740D02*
X292140D01*
X267970Y831850D02*
X276860Y840740D01*
X322340Y817680D02*
Y817880D01*
X292340Y840540D02*
Y840740D01*
D67*
X259308Y571272D02*
Y609372D01*
X236220Y1179452D02*
X261620Y1204852D01*
Y1211580D01*
X551180Y1134110D02*
X600710D01*
X759460Y688340D02*
X761900Y690780D01*
X1041400Y579310D02*
Y688340D01*
X761900Y690780D02*
Y920550D01*
Y1150550D01*
X1041300D02*
Y1201320D01*
Y1150520D02*
X1041400Y1150620D01*
X1041300Y1201320D02*
X1051560Y1211580D01*
X761900Y1150550D02*
Y1151128D01*
X266598Y1112012D02*
X267080Y1111530D01*
X242586Y1112012D02*
X266598D01*
X236220Y1118378D02*
X242586Y1112012D01*
X1041300Y920550D02*
Y1150520D01*
Y690550D02*
Y920550D01*
X604520Y1137920D02*
X608580Y1141980D01*
X600710Y1134110D02*
X604520Y1137920D01*
X1041400Y579310D02*
X1050480Y570230D01*
X259080Y609600D02*
X259308Y609372D01*
Y571272D02*
X260350Y570230D01*
X236220Y1118378D02*
Y1179452D01*
X608330Y1045210D02*
Y1096010D01*
X595350Y1032230D02*
X608330Y1045210D01*
X577850Y1032230D02*
X595350D01*
X609600Y1198880D02*
X610870Y1200150D01*
X582438Y1198880D02*
X609600D01*
X576580Y1204738D02*
X582438Y1198880D01*
X576580Y1204738D02*
Y1220470D01*
X608580Y1141980D02*
Y1169670D01*
X610580Y1200440D02*
X610870Y1200150D01*
Y1170940D02*
Y1200150D01*
X609600Y1169670D02*
X610870Y1170940D01*
X610580Y1200440D02*
Y1220470D01*
X544580Y1127510D02*
X551180Y1134110D01*
X544580Y1097280D02*
Y1127510D01*
X608580Y1100030D02*
X612180Y1103630D01*
X608580Y1097280D02*
Y1100030D01*
X289560Y1046480D02*
X291070D01*
X277980Y1058060D02*
X289560Y1046480D01*
X267080Y1058060D02*
X277980D01*
X266700Y952500D02*
X270510D01*
X288290Y970280D02*
X291070D01*
X270510Y952500D02*
X288290Y970280D01*
X269060Y1021080D02*
X291070D01*
X267080Y1023060D02*
X269060Y1021080D01*
X274700Y995680D02*
X291070D01*
X267080Y988060D02*
X274700Y995680D01*
D69*
X374650Y1175270D02*
Y1217930D01*
Y1175270D02*
X375170Y1174750D01*
X266700Y1145540D02*
X306070D01*
X313170Y1152640D02*
Y1174750D01*
X306070Y1145540D02*
X313170Y1152640D01*
D71*
X544830Y1173480D02*
X559580Y1188230D01*
Y1220470D01*
D72*
X540960Y791150D02*
X541020Y791210D01*
X540960Y772220D02*
Y791150D01*
X540900Y772160D02*
X540960Y772220D01*
X541020Y798830D02*
Y821570D01*
X529710Y818000D02*
X533400Y821690D01*
X541020D01*
X529710Y805300D02*
Y818000D01*
X541020Y821570D02*
X541140Y821690D01*
X540900Y772160D02*
X549910D01*
X552450Y774700D01*
Y784860D01*
D73*
X431800Y963930D02*
D03*
Y989330D02*
D03*
Y1014730D02*
D03*
Y1040130D02*
D03*
D74*
X901600Y874600D02*
D03*
X927000D02*
D03*
X952400Y1104600D02*
D03*
X977800D02*
D03*
X901600D02*
D03*
X927000D02*
D03*
X850800D02*
D03*
X876200D02*
D03*
X800000D02*
D03*
X825400D02*
D03*
Y644600D02*
D03*
X927000D02*
D03*
X977800D02*
D03*
X901600Y1130000D02*
D03*
X927000D02*
D03*
X850800Y874600D02*
D03*
X876200D02*
D03*
X901600Y900000D02*
D03*
X927000D02*
D03*
X952400Y874600D02*
D03*
X977800D02*
D03*
X1003200Y644600D02*
D03*
Y670000D02*
D03*
X977800D02*
D03*
X952400Y644600D02*
D03*
Y670000D02*
D03*
X927000D02*
D03*
X901600Y644600D02*
D03*
Y670000D02*
D03*
X876200Y644600D02*
D03*
Y670000D02*
D03*
X850800Y644600D02*
D03*
Y670000D02*
D03*
X825400D02*
D03*
X800000Y644600D02*
D03*
Y670000D02*
D03*
X1003200Y874600D02*
D03*
Y900000D02*
D03*
X977800D02*
D03*
X952400D02*
D03*
X876200D02*
D03*
X850800D02*
D03*
X825400D02*
D03*
X800000D02*
D03*
Y874600D02*
D03*
X825400D02*
D03*
X1003200Y1104600D02*
D03*
Y1130000D02*
D03*
X977800D02*
D03*
X952400D02*
D03*
X876200D02*
D03*
X850800D02*
D03*
X825400D02*
D03*
X800000D02*
D03*
D75*
X368300Y598170D02*
D03*
X393700D02*
D03*
Y572770D02*
D03*
X368300D02*
D03*
X419100D02*
D03*
X429660Y1193800D02*
D03*
D76*
X419100Y598170D02*
D03*
X479660Y1193800D02*
D03*
D77*
X267080Y794310D02*
D03*
Y918060D02*
D03*
Y1111530D02*
D03*
D78*
X254000Y723900D02*
D03*
Y664210D02*
D03*
X374650Y1220470D02*
D03*
X577850Y997230D02*
D03*
D79*
X254000Y749300D02*
D03*
Y689610D02*
D03*
X323850Y1220470D02*
D03*
D80*
X364490Y780310D02*
D03*
Y878310D02*
D03*
D81*
X1041300Y690550D02*
D03*
X761900D02*
D03*
X1041300Y920550D02*
D03*
X761900D02*
D03*
X1041300Y1150550D02*
D03*
X761900D02*
D03*
D82*
X542580Y1219200D02*
D03*
X559580D02*
D03*
X576580D02*
D03*
D83*
X593580Y1220470D02*
D03*
X610580D02*
D03*
D84*
X577850Y1032230D02*
D03*
D85*
X241350Y559230D02*
D03*
X249350Y551230D02*
D03*
X279350Y559230D02*
D03*
X271350Y551230D02*
D03*
X279350Y581230D02*
D03*
X271350Y589230D02*
D03*
X249350D02*
D03*
X241350Y581230D02*
D03*
X260350Y547730D02*
D03*
X282850Y570230D02*
D03*
X260350Y592730D02*
D03*
X237850Y570230D02*
D03*
X1039480Y1191310D02*
D03*
X1031480Y559230D02*
D03*
X1039480Y551230D02*
D03*
X1069480Y559230D02*
D03*
X1061480Y551230D02*
D03*
X1069480Y581230D02*
D03*
X1061480Y589230D02*
D03*
X1039480D02*
D03*
X1031480Y581230D02*
D03*
X1050480Y547730D02*
D03*
X1072980Y570230D02*
D03*
X1050480Y592730D02*
D03*
X1027980Y570230D02*
D03*
Y1210310D02*
D03*
X1050480Y1232810D02*
D03*
X1072980Y1210310D02*
D03*
X1050480Y1187810D02*
D03*
X1031480Y1221310D02*
D03*
X1039480Y1229310D02*
D03*
X1061480D02*
D03*
X1069480Y1221310D02*
D03*
X1061480Y1191310D02*
D03*
X1069480Y1199310D02*
D03*
X1031480D02*
D03*
X237850Y1210310D02*
D03*
X260350Y1232810D02*
D03*
X282850Y1210310D02*
D03*
X260350Y1187810D02*
D03*
X241350Y1221310D02*
D03*
X249350Y1229310D02*
D03*
X271350D02*
D03*
X279350Y1221310D02*
D03*
X271350Y1191310D02*
D03*
X279350Y1199310D02*
D03*
X249350Y1191310D02*
D03*
X241350Y1199310D02*
D03*
D86*
X260350Y570230D02*
D03*
X1050480D02*
D03*
Y1210310D02*
D03*
X260350D02*
D03*
D87*
X364490Y1043940D02*
D03*
X416560Y1012190D02*
D03*
X387350Y1055370D02*
D03*
X386080Y1005840D02*
D03*
X538480Y565150D02*
D03*
Y571500D02*
D03*
Y558800D02*
D03*
Y577850D02*
D03*
X604520Y773430D02*
D03*
X455930Y594360D02*
D03*
X461010Y571500D02*
D03*
X466090Y594360D02*
D03*
X488950Y575310D02*
D03*
X346710Y735330D02*
D03*
X340360D02*
D03*
X327660D02*
D03*
X334010D02*
D03*
X283210Y734060D02*
D03*
X276860D02*
D03*
X605790Y883920D02*
D03*
X598170Y876300D02*
D03*
X605790D02*
D03*
X599440Y688340D02*
D03*
Y701040D02*
D03*
X610870Y817880D02*
D03*
X306070Y612140D02*
D03*
X299720D02*
D03*
X293370D02*
D03*
X429260Y694690D02*
D03*
X435610D02*
D03*
X604640Y796290D02*
D03*
X461010Y911860D02*
D03*
Y918210D02*
D03*
Y924560D02*
D03*
Y930910D02*
D03*
Y937260D02*
D03*
X356870Y803910D02*
D03*
Y810260D02*
D03*
X316230Y880110D02*
D03*
X599440Y694690D02*
D03*
X605790D02*
D03*
X431800Y713740D02*
D03*
X424180D02*
D03*
X551180Y902970D02*
D03*
X238760Y789940D02*
D03*
Y783590D02*
D03*
X414020Y1117600D02*
D03*
X420370D02*
D03*
X426720D02*
D03*
X433070D02*
D03*
X364490Y863600D02*
D03*
X425450Y1156970D02*
D03*
Y1164590D02*
D03*
X433070D02*
D03*
X356870Y863600D02*
D03*
X349250D02*
D03*
X344170Y1167130D02*
D03*
Y1182370D02*
D03*
D88*
X359410Y1057910D02*
D03*
X514350Y1005840D02*
D03*
X282448Y877824D02*
D03*
X282194Y870204D02*
D03*
X313690Y784860D02*
D03*
X264160Y776986D02*
D03*
X276606Y775208D02*
D03*
X1084580Y1173480D02*
D03*
Y1102360D02*
D03*
X1066800Y1066800D02*
D03*
X1084580Y1031240D02*
D03*
X1066800Y995680D02*
D03*
X1084580Y960120D02*
D03*
Y889000D02*
D03*
X1066800Y853440D02*
D03*
X1084580Y817880D02*
D03*
X1066800Y782320D02*
D03*
X1084580Y746760D02*
D03*
X1066800Y711200D02*
D03*
X1084580Y675640D02*
D03*
X1066800Y640080D02*
D03*
X1084580Y604520D02*
D03*
X1049020Y1173480D02*
D03*
Y1102360D02*
D03*
X1031240Y1066800D02*
D03*
X1049020Y1031240D02*
D03*
X1031240Y995680D02*
D03*
X1049020Y960120D02*
D03*
Y889000D02*
D03*
X1031240Y853440D02*
D03*
X1049020Y817880D02*
D03*
X1031240Y782320D02*
D03*
X1049020Y746760D02*
D03*
X1031240Y711200D02*
D03*
Y640080D02*
D03*
X1049020Y604520D02*
D03*
X1013460D02*
D03*
X995680Y568960D02*
D03*
X960120Y1209040D02*
D03*
X977900Y1031240D02*
D03*
Y960120D02*
D03*
Y817880D02*
D03*
Y746760D02*
D03*
Y604520D02*
D03*
X960120Y568960D02*
D03*
X924560Y1209040D02*
D03*
X942340Y1173480D02*
D03*
X924560Y1066800D02*
D03*
X942340Y1031240D02*
D03*
X924560Y995680D02*
D03*
X942340Y960120D02*
D03*
X924560Y924560D02*
D03*
Y853440D02*
D03*
X942340Y817880D02*
D03*
X924560Y782320D02*
D03*
X942340Y746760D02*
D03*
X924560Y711200D02*
D03*
X942340Y604520D02*
D03*
X924560Y568960D02*
D03*
X889000Y1209040D02*
D03*
X906780Y1173480D02*
D03*
X889000Y1137920D02*
D03*
Y1066800D02*
D03*
Y995680D02*
D03*
Y924560D02*
D03*
Y853440D02*
D03*
Y782320D02*
D03*
Y711200D02*
D03*
Y568960D02*
D03*
X853440Y1209040D02*
D03*
X871220Y1173480D02*
D03*
X853440Y1066800D02*
D03*
Y995680D02*
D03*
Y924560D02*
D03*
Y853440D02*
D03*
Y782320D02*
D03*
Y711200D02*
D03*
Y568960D02*
D03*
X817880Y1209040D02*
D03*
X835660Y1173480D02*
D03*
Y1031240D02*
D03*
Y960120D02*
D03*
Y817880D02*
D03*
Y746760D02*
D03*
X782320Y1209040D02*
D03*
X800100Y1173480D02*
D03*
X782320Y1066800D02*
D03*
X800100Y1031240D02*
D03*
X782320Y995680D02*
D03*
X800100Y960120D02*
D03*
X782320Y853440D02*
D03*
X800100Y817880D02*
D03*
X782320Y782320D02*
D03*
X800100Y746760D02*
D03*
X782320Y711200D02*
D03*
Y640080D02*
D03*
X746760Y1209040D02*
D03*
X764540Y1173480D02*
D03*
Y1102360D02*
D03*
X746760Y1066800D02*
D03*
X764540Y1031240D02*
D03*
X746760Y995680D02*
D03*
X764540Y960120D02*
D03*
Y889000D02*
D03*
X746760Y853440D02*
D03*
X764540Y817880D02*
D03*
X746760Y782320D02*
D03*
X764540Y746760D02*
D03*
X746760Y711200D02*
D03*
Y640080D02*
D03*
X711200Y1209040D02*
D03*
X728980Y1173480D02*
D03*
X711200Y1137920D02*
D03*
X728980Y1102360D02*
D03*
X711200Y1066800D02*
D03*
X728980Y1031240D02*
D03*
Y960120D02*
D03*
Y889000D02*
D03*
Y817880D02*
D03*
Y746760D02*
D03*
Y675640D02*
D03*
X675640Y1209040D02*
D03*
X693420Y1173480D02*
D03*
X675640Y1137920D02*
D03*
X693420Y1102360D02*
D03*
X675640Y1066800D02*
D03*
X693420Y1031240D02*
D03*
X640080Y1209040D02*
D03*
X657860Y1173480D02*
D03*
X640080Y1137920D02*
D03*
X657860Y1102360D02*
D03*
X640080Y1066800D02*
D03*
X657860Y1031240D02*
D03*
X622300Y1173480D02*
D03*
X604520Y1137920D02*
D03*
X622300Y1031240D02*
D03*
X568960Y1137920D02*
D03*
X586740Y1102360D02*
D03*
X533400Y1137920D02*
D03*
Y1066800D02*
D03*
X515620Y1173480D02*
D03*
Y1102360D02*
D03*
X462280Y1209040D02*
D03*
X480060Y1031240D02*
D03*
X426720Y1209040D02*
D03*
X391160D02*
D03*
X408940Y1102360D02*
D03*
X355600Y1209040D02*
D03*
X266700Y1173480D02*
D03*
X248920Y1137920D02*
D03*
Y1066800D02*
D03*
X693420Y995680D02*
D03*
X702310Y977900D02*
D03*
X693420Y960120D02*
D03*
X702310Y942340D02*
D03*
X693420Y924560D02*
D03*
X702310Y906780D02*
D03*
X693420Y889000D02*
D03*
X702310Y871220D02*
D03*
X693420Y853440D02*
D03*
X702310Y835660D02*
D03*
X693420Y817880D02*
D03*
X702310Y800100D02*
D03*
X693420Y782320D02*
D03*
X702310Y764540D02*
D03*
X693420Y746760D02*
D03*
X702310Y728980D02*
D03*
X693420Y711200D02*
D03*
X702310Y693420D02*
D03*
X693420Y675640D02*
D03*
X702310Y657860D02*
D03*
Y551180D02*
D03*
X675640Y995680D02*
D03*
X684530Y977900D02*
D03*
X675640Y960120D02*
D03*
X684530Y942340D02*
D03*
X675640Y924560D02*
D03*
X684530Y906780D02*
D03*
X675640Y889000D02*
D03*
X684530Y871220D02*
D03*
X675640Y853440D02*
D03*
X684530Y835660D02*
D03*
X675640Y817880D02*
D03*
X684530Y800100D02*
D03*
X675640Y782320D02*
D03*
X684530Y764540D02*
D03*
X675640Y746760D02*
D03*
X684530Y728980D02*
D03*
X675640Y711200D02*
D03*
X684530Y693420D02*
D03*
X675640Y675640D02*
D03*
X684530Y657860D02*
D03*
Y586740D02*
D03*
Y551180D02*
D03*
X657860Y995680D02*
D03*
X666750Y977900D02*
D03*
X657860Y960120D02*
D03*
X666750Y942340D02*
D03*
X657860Y924560D02*
D03*
X666750Y906780D02*
D03*
X657860Y889000D02*
D03*
X666750Y871220D02*
D03*
X657860Y853440D02*
D03*
X666750Y835660D02*
D03*
X657860Y817880D02*
D03*
X666750Y800100D02*
D03*
X657860Y782320D02*
D03*
X666750Y764540D02*
D03*
X657860Y746760D02*
D03*
X666750Y728980D02*
D03*
X657860Y711200D02*
D03*
X666750Y693420D02*
D03*
X657860Y675640D02*
D03*
X666750Y586740D02*
D03*
X640080Y995680D02*
D03*
X648970Y977900D02*
D03*
X640080Y960120D02*
D03*
X648970Y942340D02*
D03*
X640080Y924560D02*
D03*
X648970Y906780D02*
D03*
X640080Y889000D02*
D03*
X648970Y871220D02*
D03*
X640080Y853440D02*
D03*
X648970Y835660D02*
D03*
X640080Y817880D02*
D03*
X622300Y995680D02*
D03*
X631190Y977900D02*
D03*
X622300Y960120D02*
D03*
X631190Y942340D02*
D03*
X622300Y924560D02*
D03*
X631190Y906780D02*
D03*
X622300Y889000D02*
D03*
Y817880D02*
D03*
X631190Y764540D02*
D03*
X622300Y711200D02*
D03*
Y675640D02*
D03*
X604520Y995680D02*
D03*
X613410Y977900D02*
D03*
X604520Y960120D02*
D03*
X613410Y942340D02*
D03*
X604520Y924560D02*
D03*
X613410Y906780D02*
D03*
X604520Y711200D02*
D03*
Y675640D02*
D03*
X595630Y977900D02*
D03*
X586740Y960120D02*
D03*
X595630Y942340D02*
D03*
X586740Y924560D02*
D03*
X595630Y906780D02*
D03*
X586740Y889000D02*
D03*
X595630Y728980D02*
D03*
X586740Y711200D02*
D03*
Y675640D02*
D03*
X595630Y586740D02*
D03*
X577850Y977900D02*
D03*
X568960Y960120D02*
D03*
X577850Y942340D02*
D03*
X568960Y924560D02*
D03*
X577850Y906780D02*
D03*
Y871220D02*
D03*
X568960Y853440D02*
D03*
Y817880D02*
D03*
Y782320D02*
D03*
X577850Y728980D02*
D03*
X551180Y995680D02*
D03*
X560070Y977900D02*
D03*
X551180Y960120D02*
D03*
X560070Y942340D02*
D03*
X551180Y924560D02*
D03*
X560070Y906780D02*
D03*
X551180Y853440D02*
D03*
X560070Y835660D02*
D03*
Y764540D02*
D03*
X533400Y995680D02*
D03*
X542290Y977900D02*
D03*
X533400Y960120D02*
D03*
X542290Y906780D02*
D03*
X533400Y889000D02*
D03*
Y853440D02*
D03*
X542290Y835660D02*
D03*
X524510Y977900D02*
D03*
X515620Y889000D02*
D03*
Y853440D02*
D03*
X524510Y835660D02*
D03*
X515620Y817880D02*
D03*
Y782320D02*
D03*
Y746760D02*
D03*
X497840Y924560D02*
D03*
Y889000D02*
D03*
Y853440D02*
D03*
X506730Y835660D02*
D03*
X497840Y817880D02*
D03*
X506730Y800100D02*
D03*
X497840Y782320D02*
D03*
X506730Y764540D02*
D03*
X497840Y746760D02*
D03*
X506730Y693420D02*
D03*
X488950Y906780D02*
D03*
Y835660D02*
D03*
X480060Y817880D02*
D03*
X488950Y800100D02*
D03*
X480060Y782320D02*
D03*
X488950Y764540D02*
D03*
X480060Y746760D02*
D03*
X488950Y693420D02*
D03*
X480060Y640080D02*
D03*
X488950Y622300D02*
D03*
X480060Y604520D02*
D03*
X488950Y586740D02*
D03*
X462280Y889000D02*
D03*
X471170Y835660D02*
D03*
X462280Y817880D02*
D03*
X471170Y800100D02*
D03*
X462280Y782320D02*
D03*
X471170Y764540D02*
D03*
X462280Y746760D02*
D03*
Y640080D02*
D03*
X471170Y622300D02*
D03*
X453390Y835660D02*
D03*
Y764540D02*
D03*
X444500Y568960D02*
D03*
X435610Y942340D02*
D03*
X426720Y924560D02*
D03*
X417830Y942340D02*
D03*
Y800100D02*
D03*
Y764540D02*
D03*
X408940Y711200D02*
D03*
Y640080D02*
D03*
X417830Y551180D02*
D03*
X400050Y942340D02*
D03*
X391160Y889000D02*
D03*
Y640080D02*
D03*
X400050Y551180D02*
D03*
X382270Y906780D02*
D03*
X373380Y746760D02*
D03*
Y675640D02*
D03*
Y640080D02*
D03*
X382270Y622300D02*
D03*
Y586740D02*
D03*
Y551180D02*
D03*
X364490Y906780D02*
D03*
Y800100D02*
D03*
X355600Y746760D02*
D03*
X364490Y728980D02*
D03*
X355600Y640080D02*
D03*
Y604520D02*
D03*
X364490Y551180D02*
D03*
X346710Y906780D02*
D03*
Y622300D02*
D03*
Y586740D02*
D03*
Y551180D02*
D03*
X320040Y782320D02*
D03*
Y746760D02*
D03*
Y711200D02*
D03*
X328930Y586740D02*
D03*
Y551180D02*
D03*
X311150Y622300D02*
D03*
Y586740D02*
D03*
X302260Y568960D02*
D03*
X311150Y551180D02*
D03*
X293370Y906780D02*
D03*
X284480Y889000D02*
D03*
Y604520D02*
D03*
X293370Y586740D02*
D03*
Y551180D02*
D03*
X266700Y889000D02*
D03*
Y640080D02*
D03*
X275590Y622300D02*
D03*
X266700Y604520D02*
D03*
X248920Y995680D02*
D03*
Y960120D02*
D03*
Y675640D02*
D03*
Y640080D02*
D03*
X257810Y622300D02*
D03*
X248920Y604520D02*
D03*
X231140Y995680D02*
D03*
X240030Y977900D02*
D03*
X231140Y960120D02*
D03*
X240030Y942340D02*
D03*
X231140Y924560D02*
D03*
X240030Y906780D02*
D03*
X231140Y746760D02*
D03*
X240030Y728980D02*
D03*
X231140Y675640D02*
D03*
X240030Y657860D02*
D03*
X231140Y640080D02*
D03*
X240030Y622300D02*
D03*
X231140Y604520D02*
D03*
X401320Y734060D02*
D03*
X388620Y722630D02*
D03*
X388112Y684530D02*
D03*
X397510Y694944D02*
D03*
X548386Y696722D02*
D03*
Y678942D02*
D03*
X580644Y663448D02*
D03*
X668020D02*
D03*
X680720Y649986D02*
D03*
X650748Y585724D02*
D03*
X562610Y603504D02*
D03*
X490220Y1084580D02*
D03*
X369570Y650240D02*
D03*
X364490Y713740D02*
D03*
X346710Y746760D02*
D03*
X340360D02*
D03*
X334010D02*
D03*
X327660D02*
D03*
X335280Y648970D02*
D03*
Y640080D02*
D03*
X354330Y655320D02*
D03*
X345440Y715010D02*
D03*
X326390Y709930D02*
D03*
X364490Y678180D02*
D03*
X345440D02*
D03*
X354330D02*
D03*
X273050Y708660D02*
D03*
X264160D02*
D03*
X397510Y661670D02*
D03*
X513080Y660400D02*
D03*
X346710Y1083310D02*
D03*
X464820Y847090D02*
D03*
X462280Y802640D02*
D03*
X458470Y807720D02*
D03*
X336550Y1083310D02*
D03*
X443230Y608330D02*
D03*
X911860Y596900D02*
D03*
X916940Y601980D02*
D03*
X817880Y566420D02*
D03*
X807720Y561340D02*
D03*
X556260Y751840D02*
D03*
X561340Y746760D02*
D03*
X568960Y741680D02*
D03*
X543560Y740410D02*
D03*
X548640Y746760D02*
D03*
X452120Y563880D02*
D03*
X477520Y582930D02*
D03*
X417190Y757560D02*
D03*
X316230Y681990D02*
D03*
Y675640D02*
D03*
X479270Y685010D02*
D03*
X474270Y659690D02*
D03*
X464270Y672550D02*
D03*
X467360Y646430D02*
D03*
X459270Y659600D02*
D03*
X524510Y890270D02*
D03*
X341630Y1079500D02*
D03*
X541020Y798830D02*
D03*
Y791210D02*
D03*
X458470Y855980D02*
D03*
X454660Y812800D02*
D03*
X449580Y817880D02*
D03*
X469900Y857250D02*
D03*
X377190Y816610D02*
D03*
X384810Y834390D02*
D03*
Y822960D02*
D03*
D89*
X639390Y566420D02*
D03*
Y579120D02*
D03*
X584890Y553720D02*
D03*
Y566420D02*
D03*
Y579120D02*
D03*
Y591820D02*
D03*
X639390Y553720D02*
D03*
Y591820D02*
D03*
D90*
X641140Y627940D02*
D03*
Y614940D02*
D03*
Y640940D02*
D03*
X583140Y608440D02*
D03*
Y614940D02*
D03*
Y621440D02*
D03*
Y627940D02*
D03*
Y634440D02*
D03*
Y640940D02*
D03*
Y647440D02*
D03*
Y653940D02*
D03*
X641140Y608440D02*
D03*
Y621440D02*
D03*
Y634440D02*
D03*
Y647440D02*
D03*
Y653940D02*
D03*
D91*
X428780Y646430D02*
D03*
Y659130D02*
D03*
Y671830D02*
D03*
Y684530D02*
D03*
X495780Y646430D02*
D03*
Y659130D02*
D03*
Y671830D02*
D03*
Y684530D02*
D03*
D92*
X326390Y611670D02*
D03*
Y571970D02*
D03*
D93*
X529520Y785520D02*
D03*
Y804520D02*
D03*
X552520Y785520D02*
D03*
Y804520D02*
D03*
D94*
X306070Y746100D02*
D03*
X299570Y727100D02*
D03*
X312570D02*
D03*
X514350Y959460D02*
D03*
X507850Y940460D02*
D03*
X520850D02*
D03*
D95*
X470510Y583610D02*
D03*
X461010D02*
D03*
X451510D02*
D03*
X470510Y605110D02*
D03*
X461010D02*
D03*
X451510D02*
D03*
D96*
X514350Y926940D02*
D03*
X504850Y906940D02*
D03*
X523850D02*
D03*
D97*
X321070Y970280D02*
D03*
X291070D02*
D03*
X321070Y995680D02*
D03*
X291070D02*
D03*
X321070Y1021080D02*
D03*
X291070D02*
D03*
X321070Y1046480D02*
D03*
X291070D02*
D03*
X322340Y817880D02*
D03*
X292340D02*
D03*
X322340Y840740D02*
D03*
X292340D02*
D03*
D98*
X402900Y1046480D02*
D03*
Y1033780D02*
D03*
Y1021080D02*
D03*
Y1008380D02*
D03*
Y995680D02*
D03*
Y982980D02*
D03*
Y970280D02*
D03*
Y957580D02*
D03*
X346400Y1046480D02*
D03*
Y1033780D02*
D03*
Y1021080D02*
D03*
Y1008380D02*
D03*
Y995680D02*
D03*
Y982980D02*
D03*
Y970280D02*
D03*
Y957580D02*
D03*
D99*
X316890Y664210D02*
D03*
X335890Y657710D02*
D03*
Y670710D02*
D03*
X316890Y692150D02*
D03*
X335890Y685650D02*
D03*
Y698650D02*
D03*
D100*
X345110Y848360D02*
D03*
Y835660D02*
D03*
Y822960D02*
D03*
Y810260D02*
D03*
X399110D02*
D03*
Y822960D02*
D03*
Y835660D02*
D03*
Y848360D02*
D03*
D101*
X294960Y788670D02*
D03*
X334960D02*
D03*
Y869950D02*
D03*
X294960D02*
D03*
D102*
X477520Y1136870D02*
D03*
Y1100870D02*
D03*
D103*
X443930Y1155090D02*
D03*
Y1164590D02*
D03*
Y1174090D02*
D03*
X467930D02*
D03*
Y1164590D02*
D03*
Y1155090D02*
D03*
D104*
X313170Y1174750D02*
D03*
X375170D02*
D03*
D105*
X608580Y1097280D02*
D03*
X544580D02*
D03*
Y1169670D02*
D03*
X608580D02*
D03*
D106*
X267080Y918060D02*
X301520Y952500D01*
X333785D01*
X338865Y957580D01*
X346400D01*
X266930Y918210D02*
X267080Y918060D01*
X321310Y1046480D02*
X346400D01*
X321070Y1021080D02*
X346400D01*
X321070Y995680D02*
X346400D01*
X321070Y970280D02*
X346400D01*
D107*
X461010Y571500D02*
Y583610D01*
Y594360D01*
X466090D01*
X455930D02*
X461010D01*
D108*
X425450Y1156970D02*
Y1164590D01*
X433070D01*
X443930D01*
X443930Y1164590D01*
X444850Y1146340D02*
X445770Y1145420D01*
X444850Y1146340D02*
Y1154725D01*
X443875Y1155700D02*
X444850Y1154725D01*
D109*
X825400Y874582D02*
Y874600D01*
X815875Y865057D02*
X825400Y874582D01*
X815875Y679543D02*
Y865057D01*
Y679543D02*
X825400Y670018D01*
Y670000D02*
Y670018D01*
X800000Y874582D02*
Y874600D01*
Y874582D02*
X809525Y865057D01*
Y679543D02*
Y865057D01*
X800000Y670018D02*
X809525Y679543D01*
X800000Y670000D02*
Y670018D01*
X876200Y874582D02*
Y874600D01*
X866675Y865057D02*
X876200Y874582D01*
X866675Y679543D02*
Y865057D01*
Y679543D02*
X876200Y670018D01*
Y670000D02*
Y670018D01*
X850800Y874582D02*
Y874600D01*
Y874582D02*
X860325Y865057D01*
Y679543D02*
Y865057D01*
X850800Y670018D02*
X860325Y679543D01*
X850800Y670000D02*
Y670018D01*
X927000Y874582D02*
Y874600D01*
X917475Y865057D02*
X927000Y874582D01*
X917475Y679543D02*
Y865057D01*
Y679543D02*
X927000Y670018D01*
Y670000D02*
Y670018D01*
X901600Y874582D02*
Y874600D01*
Y874582D02*
X911125Y865057D01*
Y679543D02*
Y865057D01*
X901600Y670018D02*
X911125Y679543D01*
X901600Y670000D02*
Y670018D01*
X977800Y874582D02*
Y874600D01*
X968275Y865057D02*
X977800Y874582D01*
X968275Y679543D02*
Y865057D01*
Y679543D02*
X977800Y670018D01*
Y670000D02*
Y670018D01*
X952400Y874582D02*
Y874600D01*
Y874582D02*
X961925Y865057D01*
Y679543D02*
Y865057D01*
X952400Y670018D02*
X961925Y679543D01*
X952400Y670000D02*
Y670018D01*
X977800Y1104582D02*
Y1104600D01*
X968275Y1095057D02*
X977800Y1104582D01*
X968275Y909543D02*
Y1095057D01*
Y909543D02*
X977800Y900018D01*
Y900000D02*
Y900018D01*
X952400Y1104582D02*
Y1104600D01*
Y1104582D02*
X961925Y1095057D01*
Y909543D02*
Y1095057D01*
X952400Y900018D02*
X961925Y909543D01*
X952400Y900000D02*
Y900018D01*
X927000Y1104582D02*
Y1104600D01*
X917475Y1095057D02*
X927000Y1104582D01*
X917475Y909543D02*
Y1095057D01*
Y909543D02*
X927000Y900018D01*
Y900000D02*
Y900018D01*
X901600Y1104582D02*
Y1104600D01*
Y1104582D02*
X911125Y1095057D01*
Y909543D02*
Y1095057D01*
X901600Y900018D02*
X911125Y909543D01*
X901600Y900000D02*
Y900018D01*
X876200Y1104582D02*
Y1104600D01*
X866675Y1095057D02*
X876200Y1104582D01*
X866675Y909543D02*
Y1095057D01*
Y909543D02*
X876200Y900018D01*
Y900000D02*
Y900018D01*
X850800Y1104582D02*
Y1104600D01*
Y1104582D02*
X860325Y1095057D01*
Y909543D02*
Y1095057D01*
X850800Y900018D02*
X860325Y909543D01*
X850800Y900000D02*
Y900018D01*
X825400Y1104582D02*
Y1104600D01*
X815875Y1095057D02*
X825400Y1104582D01*
X815875Y909543D02*
Y1095057D01*
Y909543D02*
X825400Y900018D01*
Y900000D02*
Y900018D01*
X800000Y1104582D02*
Y1104600D01*
Y1104582D02*
X809525Y1095057D01*
Y909543D02*
Y1095057D01*
X800000Y900018D02*
X809525Y909543D01*
X800000Y900000D02*
Y900018D01*
X972700Y1157240D02*
Y1158240D01*
X968375Y1152915D02*
X972700Y1157240D01*
X968375Y1142799D02*
Y1152915D01*
X968275Y1142699D02*
X968375Y1142799D01*
X968275Y1139543D02*
Y1142699D01*
Y1139543D02*
X977800Y1130018D01*
Y1130000D02*
Y1130018D01*
X957700Y1157240D02*
Y1158240D01*
Y1157240D02*
X962025Y1152915D01*
Y1145430D02*
Y1152915D01*
X961925Y1145330D02*
X962025Y1145430D01*
X961925Y1139543D02*
Y1145330D01*
X952400Y1130018D02*
X961925Y1139543D01*
X952400Y1130000D02*
Y1130018D01*
X921900Y1157240D02*
Y1158240D01*
X917575Y1152915D02*
X921900Y1157240D01*
X917575Y1142799D02*
Y1152915D01*
X917475Y1142699D02*
X917575Y1142799D01*
X917475Y1139543D02*
Y1142699D01*
Y1139543D02*
X927000Y1130018D01*
Y1130000D02*
Y1130018D01*
X906900Y1157240D02*
Y1158240D01*
Y1157240D02*
X911225Y1152915D01*
Y1145430D02*
Y1152915D01*
X911125Y1145330D02*
X911225Y1145430D01*
X911125Y1139543D02*
Y1145330D01*
X901600Y1130018D02*
X911125Y1139543D01*
X901600Y1130000D02*
Y1130018D01*
X871100Y1157240D02*
Y1158240D01*
X866775Y1152915D02*
X871100Y1157240D01*
X866775Y1142799D02*
Y1152915D01*
X866675Y1142699D02*
X866775Y1142799D01*
X866675Y1139543D02*
Y1142699D01*
Y1139543D02*
X876200Y1130018D01*
Y1130000D02*
Y1130018D01*
X856100Y1157240D02*
Y1158240D01*
Y1157240D02*
X860425Y1152915D01*
Y1145430D02*
Y1152915D01*
X860325Y1145330D02*
X860425Y1145430D01*
X860325Y1139543D02*
Y1145330D01*
X850800Y1130018D02*
X860325Y1139543D01*
X850800Y1130000D02*
Y1130018D01*
X820300Y1157240D02*
Y1158240D01*
X815975Y1152915D02*
X820300Y1157240D01*
X815975Y1142799D02*
Y1152915D01*
X815875Y1142699D02*
X815975Y1142799D01*
X815875Y1139543D02*
Y1142699D01*
Y1139543D02*
X825400Y1130018D01*
Y1130000D02*
Y1130018D01*
X805300Y1157240D02*
Y1158240D01*
Y1157240D02*
X809625Y1152915D01*
Y1145430D02*
Y1152915D01*
X809525Y1145330D02*
X809625Y1145430D01*
X809525Y1139543D02*
Y1145330D01*
X800000Y1130018D02*
X809525Y1139543D01*
X800000Y1130000D02*
Y1130018D01*
M02*
