G04*
G04 #@! TF.GenerationSoftware,Altium Limited,Altium Designer,19.1.6 (110)*
G04*
G04 Layer_Physical_Order=1*
G04 Layer_Color=255*
%FSLAX44Y44*%
%MOMM*%
G71*
G01*
G75*
%ADD10C,0.2000*%
%ADD11C,0.2500*%
G04:AMPARAMS|DCode=17|XSize=0.4mm|YSize=0.65mm|CornerRadius=0.05mm|HoleSize=0mm|Usage=FLASHONLY|Rotation=90.000|XOffset=0mm|YOffset=0mm|HoleType=Round|Shape=RoundedRectangle|*
%AMROUNDEDRECTD17*
21,1,0.4000,0.5500,0,0,90.0*
21,1,0.3000,0.6500,0,0,90.0*
1,1,0.1000,0.2750,0.1500*
1,1,0.1000,0.2750,-0.1500*
1,1,0.1000,-0.2750,-0.1500*
1,1,0.1000,-0.2750,0.1500*
%
%ADD17ROUNDEDRECTD17*%
G04:AMPARAMS|DCode=18|XSize=0.8mm|YSize=1mm|CornerRadius=0.1mm|HoleSize=0mm|Usage=FLASHONLY|Rotation=0.000|XOffset=0mm|YOffset=0mm|HoleType=Round|Shape=RoundedRectangle|*
%AMROUNDEDRECTD18*
21,1,0.8000,0.8000,0,0,0.0*
21,1,0.6000,1.0000,0,0,0.0*
1,1,0.2000,0.3000,-0.4000*
1,1,0.2000,-0.3000,-0.4000*
1,1,0.2000,-0.3000,0.4000*
1,1,0.2000,0.3000,0.4000*
%
%ADD18ROUNDEDRECTD18*%
G04:AMPARAMS|DCode=19|XSize=0.8mm|YSize=1mm|CornerRadius=0.1mm|HoleSize=0mm|Usage=FLASHONLY|Rotation=90.000|XOffset=0mm|YOffset=0mm|HoleType=Round|Shape=RoundedRectangle|*
%AMROUNDEDRECTD19*
21,1,0.8000,0.8000,0,0,90.0*
21,1,0.6000,1.0000,0,0,90.0*
1,1,0.2000,0.4000,0.3000*
1,1,0.2000,0.4000,-0.3000*
1,1,0.2000,-0.4000,-0.3000*
1,1,0.2000,-0.4000,0.3000*
%
%ADD19ROUNDEDRECTD19*%
%ADD20O,0.3000X2.1000*%
%ADD21R,0.7000X1.3000*%
G04:AMPARAMS|DCode=22|XSize=1.4mm|YSize=1.7mm|CornerRadius=0.175mm|HoleSize=0mm|Usage=FLASHONLY|Rotation=0.000|XOffset=0mm|YOffset=0mm|HoleType=Round|Shape=RoundedRectangle|*
%AMROUNDEDRECTD22*
21,1,1.4000,1.3500,0,0,0.0*
21,1,1.0500,1.7000,0,0,0.0*
1,1,0.3500,0.5250,-0.6750*
1,1,0.3500,-0.5250,-0.6750*
1,1,0.3500,-0.5250,0.6750*
1,1,0.3500,0.5250,0.6750*
%
%ADD22ROUNDEDRECTD22*%
%ADD23R,0.4318X2.0541*%
G04:AMPARAMS|DCode=24|XSize=2.0541mm|YSize=0.4318mm|CornerRadius=0.2159mm|HoleSize=0mm|Usage=FLASHONLY|Rotation=90.000|XOffset=0mm|YOffset=0mm|HoleType=Round|Shape=RoundedRectangle|*
%AMROUNDEDRECTD24*
21,1,2.0541,0.0000,0,0,90.0*
21,1,1.6223,0.4318,0,0,90.0*
1,1,0.4318,0.0000,0.8112*
1,1,0.4318,0.0000,-0.8112*
1,1,0.4318,0.0000,-0.8112*
1,1,0.4318,0.0000,0.8112*
%
%ADD24ROUNDEDRECTD24*%
%ADD25R,2.4000X1.4000*%
G04:AMPARAMS|DCode=26|XSize=1.4mm|YSize=1.7mm|CornerRadius=0.175mm|HoleSize=0mm|Usage=FLASHONLY|Rotation=90.000|XOffset=0mm|YOffset=0mm|HoleType=Round|Shape=RoundedRectangle|*
%AMROUNDEDRECTD26*
21,1,1.4000,1.3500,0,0,90.0*
21,1,1.0500,1.7000,0,0,90.0*
1,1,0.3500,0.6750,0.5250*
1,1,0.3500,0.6750,-0.5250*
1,1,0.3500,-0.6750,-0.5250*
1,1,0.3500,-0.6750,0.5250*
%
%ADD26ROUNDEDRECTD26*%
G04:AMPARAMS|DCode=27|XSize=0.25mm|YSize=1.15mm|CornerRadius=0.05mm|HoleSize=0mm|Usage=FLASHONLY|Rotation=180.000|XOffset=0mm|YOffset=0mm|HoleType=Round|Shape=RoundedRectangle|*
%AMROUNDEDRECTD27*
21,1,0.2500,1.0500,0,0,180.0*
21,1,0.1500,1.1500,0,0,180.0*
1,1,0.1000,-0.0750,0.5250*
1,1,0.1000,0.0750,0.5250*
1,1,0.1000,0.0750,-0.5250*
1,1,0.1000,-0.0750,-0.5250*
%
%ADD27ROUNDEDRECTD27*%
G04:AMPARAMS|DCode=28|XSize=3.1mm|YSize=5.6mm|CornerRadius=0.775mm|HoleSize=0mm|Usage=FLASHONLY|Rotation=270.000|XOffset=0mm|YOffset=0mm|HoleType=Round|Shape=RoundedRectangle|*
%AMROUNDEDRECTD28*
21,1,3.1000,4.0500,0,0,270.0*
21,1,1.5500,5.6000,0,0,270.0*
1,1,1.5500,-2.0250,-0.7750*
1,1,1.5500,-2.0250,0.7750*
1,1,1.5500,2.0250,0.7750*
1,1,1.5500,2.0250,-0.7750*
%
%ADD28ROUNDEDRECTD28*%
%ADD29R,0.6500X1.0500*%
%ADD30R,1.0000X1.0000*%
%ADD31O,2.1000X0.3000*%
%ADD32R,1.4000X2.4000*%
%ADD46C,1.0000*%
%ADD48C,2.1000*%
%ADD56R,1.4000X1.4000*%
%ADD57C,1.4000*%
%ADD65C,1.0000*%
%ADD66C,0.5000*%
%ADD67C,0.3000*%
%ADD68C,0.2540*%
%ADD69C,1.3000*%
%ADD70C,2.0000*%
%ADD71C,1.5000*%
%ADD72C,1.2500*%
%ADD73C,1.2000*%
%ADD74C,1.6510*%
%ADD75C,2.0000*%
%ADD76O,2.0000X1.5240*%
%ADD77C,1.8000*%
%ADD78P,1.9483X8X202.5*%
G04:AMPARAMS|DCode=79|XSize=2.1mm|YSize=2.1mm|CornerRadius=0.525mm|HoleSize=0mm|Usage=FLASHONLY|Rotation=90.000|XOffset=0mm|YOffset=0mm|HoleType=Round|Shape=RoundedRectangle|*
%AMROUNDEDRECTD79*
21,1,2.1000,1.0500,0,0,90.0*
21,1,1.0500,2.1000,0,0,90.0*
1,1,1.0500,0.5250,0.5250*
1,1,1.0500,0.5250,-0.5250*
1,1,1.0500,-0.5250,-0.5250*
1,1,1.0500,-0.5250,0.5250*
%
%ADD79ROUNDEDRECTD79*%
%ADD80C,1.6000*%
%ADD81R,1.6000X1.6000*%
%ADD82C,1.3500*%
%ADD83O,5.5000X2.5400*%
%ADD84O,1.3970X1.7780*%
%ADD85O,1.4000X1.6510*%
%ADD86P,1.7318X8X292.5*%
%ADD87C,0.7000*%
%ADD88C,6.0000*%
%ADD89C,0.6000*%
%ADD90C,0.4000*%
G36*
X518307Y1228131D02*
X495575Y1205399D01*
X491007D01*
Y1229401D01*
X517781D01*
X518307Y1228131D01*
D02*
G37*
G36*
X1057325Y1246823D02*
X1062068Y1245552D01*
X1066605Y1243672D01*
X1070859Y1241217D01*
X1074754Y1238227D01*
X1078227Y1234754D01*
X1081217Y1230858D01*
X1083672Y1226605D01*
X1085552Y1222068D01*
X1086823Y1217324D01*
X1087463Y1212462D01*
X1087451Y1210012D01*
X1087452Y1210006D01*
X1087451Y1210000D01*
X1087464Y570000D01*
Y567544D01*
X1086823Y562675D01*
X1085552Y557932D01*
X1083672Y553395D01*
X1081217Y549142D01*
X1078227Y545246D01*
X1074754Y541773D01*
X1070858Y538783D01*
X1066605Y536328D01*
X1062068Y534448D01*
X1057325Y533177D01*
X1052462Y532537D01*
X1050012Y532549D01*
X1050006Y532548D01*
X1050000Y532549D01*
X260000Y532536D01*
X257545D01*
X252675Y533177D01*
X247932Y534448D01*
X243395Y536328D01*
X239142Y538783D01*
X235245Y541773D01*
X231773Y545246D01*
X228783Y549142D01*
X226328Y553395D01*
X224448Y557932D01*
X223177Y562676D01*
X222537Y567538D01*
X222549Y569988D01*
X222548Y569994D01*
X222549Y570000D01*
X222536Y1210000D01*
Y1212455D01*
X223177Y1217325D01*
X224448Y1222068D01*
X226328Y1226605D01*
X228783Y1230858D01*
X231773Y1234754D01*
X235245Y1238227D01*
X239142Y1241217D01*
X243395Y1243672D01*
X247932Y1245552D01*
X252676Y1246823D01*
X257538Y1247463D01*
X259988Y1247451D01*
X259994Y1247452D01*
X260000Y1247451D01*
X335309Y1247452D01*
X335795Y1246279D01*
X322986Y1233470D01*
X310850D01*
Y1207470D01*
X319052D01*
X320848Y1206726D01*
X323850Y1206331D01*
X326852Y1206726D01*
X328648Y1207470D01*
X336850D01*
Y1214526D01*
X351725Y1229401D01*
X363681D01*
X364243Y1228262D01*
X363294Y1227026D01*
X361985Y1223864D01*
X361538Y1220470D01*
X361985Y1217076D01*
X363294Y1213914D01*
X365378Y1211198D01*
X368094Y1209115D01*
X371256Y1207805D01*
X374650Y1207358D01*
X378044Y1207805D01*
X381206Y1209115D01*
X383922Y1211198D01*
X386006Y1213914D01*
X387315Y1217076D01*
X387762Y1220470D01*
X387315Y1223864D01*
X386006Y1227026D01*
X385057Y1228262D01*
X385619Y1229401D01*
X468313D01*
Y1203453D01*
X465660Y1200800D01*
Y1186800D01*
X472660Y1179800D01*
X486660D01*
X489061Y1182201D01*
X500380D01*
X503382Y1182596D01*
X506180Y1183755D01*
X508582Y1185598D01*
X531855Y1208871D01*
X533937D01*
X534032Y1208747D01*
X536536Y1206826D01*
X539451Y1205619D01*
X542580Y1205207D01*
X545709Y1205619D01*
X546658Y1206012D01*
X547714Y1205306D01*
Y1194190D01*
X546523Y1193277D01*
X544319Y1190404D01*
X542934Y1187059D01*
X542461Y1183470D01*
Y1167970D01*
X542934Y1164380D01*
X544319Y1161036D01*
X546523Y1158163D01*
X549396Y1155959D01*
X552741Y1154574D01*
X556330Y1154101D01*
X596830D01*
X600420Y1154574D01*
X603764Y1155959D01*
X606637Y1158163D01*
X608841Y1161036D01*
X610226Y1164380D01*
X610699Y1167970D01*
Y1183470D01*
X610226Y1187059D01*
X608841Y1190404D01*
X606637Y1193277D01*
X603764Y1195481D01*
X600420Y1196866D01*
X596830Y1197339D01*
X572426D01*
Y1208148D01*
X573482Y1208853D01*
X574234Y1208541D01*
X575580Y1208364D01*
Y1219200D01*
X577580D01*
Y1208364D01*
X578926Y1208541D01*
X581111Y1209447D01*
X582988Y1210887D01*
X584428Y1212764D01*
X584834Y1213743D01*
X586288Y1213934D01*
X587161Y1212796D01*
X589041Y1211354D01*
X591231Y1210447D01*
X593580Y1210137D01*
X595929Y1210447D01*
X598119Y1211354D01*
X599999Y1212796D01*
X601378Y1214594D01*
X602060Y1214685D01*
X602100D01*
X602782Y1214594D01*
X604161Y1212796D01*
X606041Y1211354D01*
X608231Y1210447D01*
X609580Y1210269D01*
Y1220470D01*
X610580D01*
Y1221470D01*
X619658D01*
Y1221725D01*
X619348Y1224074D01*
X618441Y1226264D01*
X617009Y1228131D01*
X617070Y1228616D01*
X617336Y1229401D01*
X974155D01*
X990701Y1212855D01*
Y1138414D01*
X990668Y1138374D01*
X989556Y1136294D01*
X988942Y1136177D01*
X988144Y1136235D01*
X988141Y1136236D01*
X986358Y1138559D01*
X983852Y1140482D01*
X980933Y1141691D01*
X977800Y1142104D01*
X974667Y1141691D01*
X971748Y1140482D01*
X969241Y1138559D01*
X967318Y1136052D01*
X966109Y1133133D01*
X965741Y1130334D01*
X964460D01*
X964091Y1133133D01*
X962882Y1136052D01*
X960958Y1138559D01*
X958452Y1140482D01*
X955533Y1141691D01*
X952400Y1142104D01*
X949267Y1141691D01*
X946348Y1140482D01*
X943841Y1138559D01*
X941918Y1136052D01*
X940709Y1133133D01*
X940340Y1130334D01*
X939060D01*
X938691Y1133133D01*
X937482Y1136052D01*
X935558Y1138559D01*
X933052Y1140482D01*
X930133Y1141691D01*
X927000Y1142104D01*
X923867Y1141691D01*
X920948Y1140482D01*
X918441Y1138559D01*
X916518Y1136052D01*
X915309Y1133133D01*
X914940Y1130334D01*
X913660D01*
X913291Y1133133D01*
X912082Y1136052D01*
X910158Y1138559D01*
X907652Y1140482D01*
X904733Y1141691D01*
X901600Y1142104D01*
X898467Y1141691D01*
X895548Y1140482D01*
X893042Y1138559D01*
X891118Y1136052D01*
X889909Y1133133D01*
X889540Y1130334D01*
X888260D01*
X887891Y1133133D01*
X886682Y1136052D01*
X884759Y1138559D01*
X882252Y1140482D01*
X879333Y1141691D01*
X876200Y1142104D01*
X873067Y1141691D01*
X870148Y1140482D01*
X867642Y1138559D01*
X865718Y1136052D01*
X864509Y1133133D01*
X864140Y1130334D01*
X862859D01*
X862491Y1133133D01*
X861282Y1136052D01*
X859359Y1138559D01*
X856852Y1140482D01*
X853933Y1141691D01*
X850800Y1142104D01*
X847667Y1141691D01*
X844748Y1140482D01*
X842242Y1138559D01*
X840318Y1136052D01*
X839109Y1133133D01*
X838740Y1130334D01*
X837459D01*
X837091Y1133133D01*
X835882Y1136052D01*
X833959Y1138559D01*
X831452Y1140482D01*
X828533Y1141691D01*
X825400Y1142104D01*
X822267Y1141691D01*
X819348Y1140482D01*
X816842Y1138559D01*
X814918Y1136052D01*
X813709Y1133133D01*
X813341Y1130334D01*
X812059D01*
X811691Y1133133D01*
X810482Y1136052D01*
X808559Y1138559D01*
X806052Y1140482D01*
X803133Y1141691D01*
X800000Y1142104D01*
X796867Y1141691D01*
X793948Y1140482D01*
X791441Y1138559D01*
X789518Y1136052D01*
X788309Y1133133D01*
X787896Y1130000D01*
X788309Y1126867D01*
X789518Y1123948D01*
X791441Y1121441D01*
X793948Y1119518D01*
X796867Y1118309D01*
X799666Y1117941D01*
Y1116659D01*
X796867Y1116291D01*
X793948Y1115082D01*
X791441Y1113158D01*
X789518Y1110652D01*
X788309Y1107733D01*
X787896Y1104600D01*
X788309Y1101467D01*
X789518Y1098548D01*
X791441Y1096041D01*
X793948Y1094118D01*
X796867Y1092909D01*
X800000Y1092496D01*
X803133Y1092909D01*
X806052Y1094118D01*
X808559Y1096041D01*
X810482Y1098548D01*
X811691Y1101467D01*
X812059Y1104266D01*
X813341D01*
X813709Y1101467D01*
X814918Y1098548D01*
X816842Y1096041D01*
X819348Y1094118D01*
X822267Y1092909D01*
X825400Y1092496D01*
X828533Y1092909D01*
X831452Y1094118D01*
X833959Y1096041D01*
X835882Y1098548D01*
X837091Y1101467D01*
X837459Y1104266D01*
X838740D01*
X839109Y1101467D01*
X840318Y1098548D01*
X842242Y1096041D01*
X844748Y1094118D01*
X847667Y1092909D01*
X850800Y1092496D01*
X853933Y1092909D01*
X856852Y1094118D01*
X859359Y1096041D01*
X861282Y1098548D01*
X862491Y1101467D01*
X862859Y1104266D01*
X864140D01*
X864509Y1101467D01*
X865718Y1098548D01*
X867642Y1096041D01*
X870148Y1094118D01*
X873067Y1092909D01*
X876200Y1092496D01*
X879333Y1092909D01*
X882252Y1094118D01*
X884759Y1096041D01*
X886682Y1098548D01*
X887891Y1101467D01*
X888260Y1104266D01*
X889540D01*
X889909Y1101467D01*
X891118Y1098548D01*
X893042Y1096041D01*
X895548Y1094118D01*
X898467Y1092909D01*
X901600Y1092496D01*
X904733Y1092909D01*
X907652Y1094118D01*
X910158Y1096041D01*
X912082Y1098548D01*
X913291Y1101467D01*
X913660Y1104266D01*
X914940D01*
X915309Y1101467D01*
X916518Y1098548D01*
X918441Y1096041D01*
X920948Y1094118D01*
X923867Y1092909D01*
X927000Y1092496D01*
X930133Y1092909D01*
X933052Y1094118D01*
X935558Y1096041D01*
X937482Y1098548D01*
X938691Y1101467D01*
X939060Y1104266D01*
X940340D01*
X940709Y1101467D01*
X941918Y1098548D01*
X943841Y1096041D01*
X946348Y1094118D01*
X949267Y1092909D01*
X952400Y1092496D01*
X955533Y1092909D01*
X958452Y1094118D01*
X960958Y1096041D01*
X962882Y1098548D01*
X964091Y1101467D01*
X964460Y1104266D01*
X965741D01*
X966109Y1101467D01*
X967318Y1098548D01*
X969241Y1096041D01*
X971748Y1094118D01*
X974667Y1092909D01*
X977800Y1092496D01*
X980933Y1092909D01*
X983852Y1094118D01*
X986358Y1096041D01*
X988141Y1098364D01*
X988144Y1098365D01*
X988942Y1098423D01*
X989556Y1098306D01*
X990668Y1096226D01*
X990701Y1096186D01*
Y908414D01*
X990668Y908374D01*
X989556Y906294D01*
X988942Y906177D01*
X988144Y906235D01*
X988141Y906236D01*
X986358Y908559D01*
X983852Y910482D01*
X980933Y911691D01*
X977800Y912104D01*
X974667Y911691D01*
X971748Y910482D01*
X969241Y908559D01*
X967318Y906052D01*
X966109Y903133D01*
X965741Y900334D01*
X964460D01*
X964091Y903133D01*
X962882Y906052D01*
X960958Y908559D01*
X958452Y910482D01*
X955533Y911691D01*
X952400Y912104D01*
X949267Y911691D01*
X946348Y910482D01*
X943841Y908559D01*
X941918Y906052D01*
X940709Y903133D01*
X940340Y900334D01*
X939060D01*
X938691Y903133D01*
X937482Y906052D01*
X935558Y908559D01*
X933052Y910482D01*
X930133Y911691D01*
X927000Y912104D01*
X923867Y911691D01*
X920948Y910482D01*
X918441Y908559D01*
X916518Y906052D01*
X915309Y903133D01*
X914940Y900334D01*
X913660D01*
X913291Y903133D01*
X912082Y906052D01*
X910158Y908559D01*
X907652Y910482D01*
X904733Y911691D01*
X901600Y912104D01*
X898467Y911691D01*
X895548Y910482D01*
X893042Y908559D01*
X891118Y906052D01*
X889909Y903133D01*
X889540Y900334D01*
X888260D01*
X887891Y903133D01*
X886682Y906052D01*
X884759Y908559D01*
X882252Y910482D01*
X879333Y911691D01*
X876200Y912104D01*
X873067Y911691D01*
X870148Y910482D01*
X867642Y908559D01*
X865718Y906052D01*
X864509Y903133D01*
X864140Y900334D01*
X862859D01*
X862491Y903133D01*
X861282Y906052D01*
X859359Y908559D01*
X856852Y910482D01*
X853933Y911691D01*
X850800Y912104D01*
X847667Y911691D01*
X844748Y910482D01*
X842242Y908559D01*
X840318Y906052D01*
X839109Y903133D01*
X838740Y900334D01*
X837459D01*
X837091Y903133D01*
X835882Y906052D01*
X833959Y908559D01*
X831452Y910482D01*
X828533Y911691D01*
X825400Y912104D01*
X822267Y911691D01*
X819348Y910482D01*
X816842Y908559D01*
X814918Y906052D01*
X813709Y903133D01*
X813341Y900334D01*
X812059D01*
X811691Y903133D01*
X810482Y906052D01*
X808559Y908559D01*
X806052Y910482D01*
X803133Y911691D01*
X800000Y912104D01*
X796867Y911691D01*
X793948Y910482D01*
X791441Y908559D01*
X789518Y906052D01*
X788309Y903133D01*
X787896Y900000D01*
X788309Y896867D01*
X789518Y893948D01*
X791441Y891441D01*
X793948Y889518D01*
X796867Y888309D01*
X799666Y887941D01*
Y886659D01*
X796867Y886291D01*
X793948Y885082D01*
X791441Y883158D01*
X789518Y880652D01*
X788309Y877733D01*
X787896Y874600D01*
X788309Y871467D01*
X789518Y868548D01*
X791441Y866041D01*
X793948Y864118D01*
X796867Y862909D01*
X800000Y862496D01*
X803133Y862909D01*
X806052Y864118D01*
X808559Y866041D01*
X810482Y868548D01*
X811691Y871467D01*
X812059Y874266D01*
X813341D01*
X813709Y871467D01*
X814918Y868548D01*
X816842Y866041D01*
X819348Y864118D01*
X822267Y862909D01*
X825400Y862496D01*
X828533Y862909D01*
X831452Y864118D01*
X833959Y866041D01*
X835882Y868548D01*
X837091Y871467D01*
X837459Y874266D01*
X838740D01*
X839109Y871467D01*
X840318Y868548D01*
X842242Y866041D01*
X844748Y864118D01*
X847667Y862909D01*
X850800Y862496D01*
X853933Y862909D01*
X856852Y864118D01*
X859359Y866041D01*
X861282Y868548D01*
X862491Y871467D01*
X862859Y874266D01*
X864140D01*
X864509Y871467D01*
X865718Y868548D01*
X867642Y866041D01*
X870148Y864118D01*
X873067Y862909D01*
X876200Y862496D01*
X879333Y862909D01*
X882252Y864118D01*
X884759Y866041D01*
X886682Y868548D01*
X887891Y871467D01*
X888260Y874266D01*
X889540D01*
X889909Y871467D01*
X891118Y868548D01*
X893042Y866041D01*
X895548Y864118D01*
X898467Y862909D01*
X901600Y862496D01*
X904733Y862909D01*
X907652Y864118D01*
X910158Y866041D01*
X912082Y868548D01*
X913291Y871467D01*
X913660Y874266D01*
X914940D01*
X915309Y871467D01*
X916518Y868548D01*
X918441Y866041D01*
X920948Y864118D01*
X923867Y862909D01*
X927000Y862496D01*
X930133Y862909D01*
X933052Y864118D01*
X935558Y866041D01*
X937482Y868548D01*
X938691Y871467D01*
X939060Y874266D01*
X940340D01*
X940709Y871467D01*
X941918Y868548D01*
X943841Y866041D01*
X946348Y864118D01*
X949267Y862909D01*
X952400Y862496D01*
X955533Y862909D01*
X958452Y864118D01*
X960958Y866041D01*
X962882Y868548D01*
X964091Y871467D01*
X964460Y874266D01*
X965741D01*
X966109Y871467D01*
X967318Y868548D01*
X969241Y866041D01*
X971748Y864118D01*
X974667Y862909D01*
X977800Y862496D01*
X980933Y862909D01*
X983852Y864118D01*
X986358Y866041D01*
X988141Y868364D01*
X988144Y868365D01*
X988942Y868423D01*
X989556Y868306D01*
X990668Y866226D01*
X990701Y866186D01*
Y678414D01*
X990668Y678374D01*
X989556Y676294D01*
X988942Y676177D01*
X988144Y676235D01*
X988141Y676236D01*
X986358Y678559D01*
X983852Y680482D01*
X980933Y681691D01*
X977800Y682104D01*
X974667Y681691D01*
X971748Y680482D01*
X969241Y678559D01*
X967318Y676052D01*
X966109Y673133D01*
X965741Y670334D01*
X964460D01*
X964091Y673133D01*
X962882Y676052D01*
X960958Y678559D01*
X958452Y680482D01*
X955533Y681691D01*
X952400Y682104D01*
X949267Y681691D01*
X946348Y680482D01*
X943841Y678559D01*
X941918Y676052D01*
X940709Y673133D01*
X940340Y670334D01*
X939060D01*
X938691Y673133D01*
X937482Y676052D01*
X935558Y678559D01*
X933052Y680482D01*
X930133Y681691D01*
X927000Y682104D01*
X923867Y681691D01*
X920948Y680482D01*
X918441Y678559D01*
X916518Y676052D01*
X915309Y673133D01*
X914940Y670334D01*
X913660D01*
X913291Y673133D01*
X912082Y676052D01*
X910158Y678559D01*
X907652Y680482D01*
X904733Y681691D01*
X901600Y682104D01*
X898467Y681691D01*
X895548Y680482D01*
X893042Y678559D01*
X891118Y676052D01*
X889909Y673133D01*
X889540Y670334D01*
X888260D01*
X887891Y673133D01*
X886682Y676052D01*
X884759Y678559D01*
X882252Y680482D01*
X879333Y681691D01*
X876200Y682104D01*
X873067Y681691D01*
X870148Y680482D01*
X867642Y678559D01*
X865718Y676052D01*
X864509Y673133D01*
X864140Y670334D01*
X862859D01*
X862491Y673133D01*
X861282Y676052D01*
X859359Y678559D01*
X856852Y680482D01*
X853933Y681691D01*
X850800Y682104D01*
X847667Y681691D01*
X844748Y680482D01*
X842242Y678559D01*
X840318Y676052D01*
X839109Y673133D01*
X838740Y670334D01*
X837459D01*
X837091Y673133D01*
X835882Y676052D01*
X833959Y678559D01*
X831452Y680482D01*
X828533Y681691D01*
X825400Y682104D01*
X822267Y681691D01*
X819348Y680482D01*
X816842Y678559D01*
X814918Y676052D01*
X813709Y673133D01*
X813341Y670334D01*
X812059D01*
X811691Y673133D01*
X810482Y676052D01*
X808559Y678559D01*
X806052Y680482D01*
X803133Y681691D01*
X800000Y682104D01*
X796867Y681691D01*
X793948Y680482D01*
X791441Y678559D01*
X789518Y676052D01*
X788309Y673133D01*
X787896Y670000D01*
X788309Y666867D01*
X789518Y663948D01*
X791441Y661441D01*
X793948Y659518D01*
X796867Y658309D01*
X799666Y657941D01*
Y656659D01*
X796867Y656291D01*
X793948Y655082D01*
X791441Y653158D01*
X789518Y650652D01*
X788309Y647733D01*
X787896Y644600D01*
X788309Y641467D01*
X789518Y638548D01*
X791441Y636041D01*
X793948Y634118D01*
X796867Y632909D01*
X800000Y632496D01*
X803133Y632909D01*
X806052Y634118D01*
X806111Y634163D01*
X807371Y632903D01*
Y565349D01*
X806159Y565108D01*
X804836Y564224D01*
X803952Y562901D01*
X803642Y561340D01*
X803952Y559779D01*
X804836Y558456D01*
X806159Y557572D01*
X807720Y557262D01*
X809281Y557572D01*
X810604Y558456D01*
X811488Y559779D01*
X811737Y561031D01*
X812593Y561887D01*
X812593Y561887D01*
X813256Y562879D01*
X813405Y563631D01*
X814620Y563960D01*
X814718Y563952D01*
X814996Y563536D01*
X816319Y562652D01*
X817880Y562342D01*
X819441Y562652D01*
X820764Y563536D01*
X821648Y564859D01*
X821958Y566420D01*
X821648Y567981D01*
X820764Y569304D01*
X819441Y570188D01*
X818189Y570437D01*
X818029Y570597D01*
Y632903D01*
X819289Y634163D01*
X819348Y634118D01*
X822267Y632909D01*
X825400Y632496D01*
X828533Y632909D01*
X831452Y634118D01*
X833959Y636041D01*
X835882Y638548D01*
X837091Y641467D01*
X837459Y644266D01*
X838740D01*
X839109Y641467D01*
X840318Y638548D01*
X842242Y636041D01*
X844748Y634118D01*
X847667Y632909D01*
X850800Y632496D01*
X853933Y632909D01*
X856852Y634118D01*
X859359Y636041D01*
X861282Y638548D01*
X862491Y641467D01*
X862859Y644266D01*
X864140D01*
X864509Y641467D01*
X865718Y638548D01*
X867642Y636041D01*
X870148Y634118D01*
X873067Y632909D01*
X876200Y632496D01*
X879333Y632909D01*
X882252Y634118D01*
X884759Y636041D01*
X886682Y638548D01*
X887891Y641467D01*
X888260Y644266D01*
X889540D01*
X889909Y641467D01*
X891118Y638548D01*
X893042Y636041D01*
X895548Y634118D01*
X898467Y632909D01*
X901600Y632496D01*
X904733Y632909D01*
X907652Y634118D01*
X907711Y634163D01*
X908801Y633073D01*
Y599522D01*
X908092Y598461D01*
X907782Y596900D01*
X908092Y595339D01*
X908976Y594016D01*
X910299Y593132D01*
X911860Y592822D01*
X913421Y593132D01*
X914744Y594016D01*
X915628Y595339D01*
X915920Y596810D01*
X916064Y597181D01*
X916659Y597776D01*
X917030Y597920D01*
X918501Y598212D01*
X919824Y599096D01*
X920708Y600419D01*
X921018Y601980D01*
X920708Y603541D01*
X919999Y604602D01*
Y633273D01*
X920889Y634163D01*
X920948Y634118D01*
X923867Y632909D01*
X927000Y632496D01*
X930133Y632909D01*
X933052Y634118D01*
X935558Y636041D01*
X937482Y638548D01*
X938691Y641467D01*
X939060Y644266D01*
X940340D01*
X940709Y641467D01*
X941918Y638548D01*
X943841Y636041D01*
X946348Y634118D01*
X949267Y632909D01*
X952400Y632496D01*
X955533Y632909D01*
X958452Y634118D01*
X960958Y636041D01*
X962882Y638548D01*
X964091Y641467D01*
X964460Y644266D01*
X965741D01*
X966109Y641467D01*
X967318Y638548D01*
X969241Y636041D01*
X971748Y634118D01*
X974667Y632909D01*
X977800Y632496D01*
X980933Y632909D01*
X983852Y634118D01*
X986358Y636041D01*
X988141Y638364D01*
X988144Y638366D01*
X988942Y638423D01*
X989556Y638306D01*
X990668Y636226D01*
X992542Y633942D01*
X994826Y632068D01*
X997432Y630675D01*
X1000259Y629817D01*
X1003200Y629527D01*
X1006141Y629817D01*
X1008968Y630675D01*
X1011574Y632068D01*
X1013858Y633942D01*
X1015732Y636226D01*
X1017125Y638832D01*
X1017983Y641659D01*
X1018273Y644600D01*
X1017983Y647541D01*
X1017125Y650368D01*
X1015732Y652974D01*
X1013899Y655208D01*
Y659392D01*
X1015732Y661626D01*
X1017125Y664232D01*
X1017983Y667059D01*
X1018273Y670000D01*
X1017983Y672941D01*
X1017125Y675768D01*
X1015732Y678374D01*
X1014605Y679747D01*
X1014620Y679799D01*
X1016016Y680066D01*
X1019087Y677710D01*
X1022663Y676228D01*
X1026500Y675723D01*
X1040300D01*
Y690550D01*
Y705377D01*
X1026500D01*
X1022663Y704872D01*
X1019087Y703391D01*
X1016016Y701034D01*
X1015102Y699843D01*
X1013899Y700251D01*
Y863992D01*
X1015732Y866226D01*
X1017125Y868832D01*
X1017983Y871659D01*
X1018273Y874600D01*
X1017983Y877541D01*
X1017125Y880368D01*
X1015732Y882974D01*
X1013858Y885258D01*
X1013629Y885446D01*
Y889154D01*
X1013858Y889342D01*
X1015732Y891626D01*
X1017125Y894232D01*
X1017983Y897059D01*
X1018273Y900000D01*
X1017983Y902941D01*
X1017125Y905768D01*
X1015732Y908374D01*
X1014605Y909747D01*
X1014620Y909799D01*
X1016016Y910066D01*
X1019087Y907710D01*
X1022663Y906228D01*
X1026500Y905723D01*
X1040300D01*
Y920550D01*
Y935377D01*
X1026500D01*
X1022663Y934872D01*
X1019087Y933391D01*
X1016016Y931034D01*
X1015102Y929843D01*
X1013899Y930251D01*
Y1093992D01*
X1015732Y1096226D01*
X1017125Y1098832D01*
X1017983Y1101659D01*
X1018273Y1104600D01*
X1017983Y1107541D01*
X1017125Y1110368D01*
X1015732Y1112974D01*
X1014799Y1114111D01*
Y1120489D01*
X1015732Y1121626D01*
X1017125Y1124232D01*
X1017983Y1127059D01*
X1018273Y1130000D01*
X1017983Y1132941D01*
X1017125Y1135768D01*
X1015732Y1138374D01*
X1014605Y1139747D01*
X1014620Y1139799D01*
X1016016Y1140066D01*
X1019087Y1137710D01*
X1022663Y1136228D01*
X1026500Y1135723D01*
X1040300D01*
Y1150550D01*
Y1165377D01*
X1026500D01*
X1022663Y1164872D01*
X1019087Y1163391D01*
X1016016Y1161034D01*
X1015102Y1159843D01*
X1013899Y1160251D01*
Y1217660D01*
X1013504Y1220662D01*
X1012345Y1223460D01*
X1010502Y1225862D01*
X990074Y1246289D01*
X990560Y1247463D01*
X1050000Y1247464D01*
X1052456D01*
X1057325Y1246823D01*
D02*
G37*
%LPC*%
G36*
X1051480Y1242330D02*
Y1211310D01*
X1082500D01*
X1082184Y1215331D01*
X1081008Y1220229D01*
X1079080Y1224883D01*
X1076449Y1229177D01*
X1073177Y1233007D01*
X1069347Y1236279D01*
X1065053Y1238910D01*
X1060399Y1240838D01*
X1055501Y1242014D01*
X1051480Y1242330D01*
D02*
G37*
G36*
X1049480D02*
X1045459Y1242014D01*
X1040561Y1240838D01*
X1035907Y1238910D01*
X1031613Y1236279D01*
X1027783Y1233007D01*
X1024511Y1229177D01*
X1021880Y1224883D01*
X1019952Y1220229D01*
X1018776Y1215331D01*
X1018460Y1211310D01*
X1049480D01*
Y1242330D01*
D02*
G37*
G36*
X261350D02*
Y1211310D01*
X292370D01*
X292054Y1215331D01*
X290878Y1220229D01*
X288950Y1224883D01*
X286319Y1229177D01*
X283047Y1233007D01*
X279217Y1236279D01*
X274923Y1238910D01*
X270269Y1240838D01*
X265371Y1242014D01*
X261350Y1242330D01*
D02*
G37*
G36*
X259350D02*
X255329Y1242014D01*
X250431Y1240838D01*
X245777Y1238910D01*
X241483Y1236279D01*
X237653Y1233007D01*
X234381Y1229177D01*
X231750Y1224883D01*
X229822Y1220229D01*
X228646Y1215331D01*
X228330Y1211310D01*
X259350D01*
Y1242330D01*
D02*
G37*
G36*
X619658Y1219470D02*
X611580D01*
Y1210269D01*
X612929Y1210447D01*
X615119Y1211354D01*
X616999Y1212796D01*
X618441Y1214676D01*
X619348Y1216865D01*
X619658Y1219215D01*
Y1219470D01*
D02*
G37*
G36*
X430660Y1204763D02*
Y1194800D01*
X440623D01*
X440377Y1196672D01*
X439268Y1199348D01*
X437505Y1201645D01*
X435207Y1203409D01*
X432532Y1204517D01*
X430660Y1204763D01*
D02*
G37*
G36*
X428660D02*
X426788Y1204517D01*
X424113Y1203409D01*
X421815Y1201645D01*
X420051Y1199348D01*
X418943Y1196672D01*
X418697Y1194800D01*
X428660D01*
Y1204763D01*
D02*
G37*
G36*
X338160Y1192487D02*
X332160D01*
X329819Y1192022D01*
X328649Y1191240D01*
X327660Y1190777D01*
X326671Y1191240D01*
X325501Y1192022D01*
X323160Y1192487D01*
X317160D01*
X314819Y1192022D01*
X312834Y1190696D01*
X312407Y1190056D01*
X311141Y1190902D01*
X308800Y1191367D01*
X300800D01*
X298459Y1190902D01*
X296474Y1189576D01*
X295747Y1188487D01*
X293370D01*
X291029Y1188022D01*
X289044Y1186696D01*
X285234Y1182886D01*
X283908Y1180901D01*
X283442Y1178560D01*
Y1154430D01*
X283908Y1152089D01*
X285234Y1150104D01*
X291584Y1143754D01*
X293569Y1142428D01*
X295910Y1141963D01*
X320192D01*
Y1132330D01*
X320619Y1130184D01*
X321719Y1128538D01*
X321364Y1127268D01*
X318770D01*
X317014Y1126919D01*
X315526Y1125924D01*
X308026Y1118424D01*
X307031Y1116936D01*
X306682Y1115180D01*
Y1087317D01*
X306107Y1086933D01*
X305444Y1085940D01*
X305211Y1084770D01*
Y1076770D01*
X305444Y1075600D01*
X306107Y1074607D01*
Y1074233D01*
X305444Y1073241D01*
X305211Y1072070D01*
Y1064070D01*
X305444Y1062899D01*
X306107Y1061907D01*
Y1061533D01*
X305444Y1060540D01*
X305211Y1059370D01*
Y1051370D01*
X305444Y1050200D01*
X306107Y1049207D01*
X306682Y1048823D01*
Y1031437D01*
X306107Y1031053D01*
X305444Y1030061D01*
X305211Y1028890D01*
Y1020890D01*
X305444Y1019719D01*
X306107Y1018727D01*
X306682Y1018343D01*
Y998417D01*
X306107Y998033D01*
X305444Y997040D01*
X305211Y995870D01*
Y987870D01*
X305444Y986700D01*
X306107Y985707D01*
X306682Y985323D01*
Y983177D01*
X306107Y982793D01*
X305444Y981801D01*
X305211Y980630D01*
Y972630D01*
X305444Y971460D01*
X306107Y970467D01*
X307099Y969804D01*
X308270Y969571D01*
X314270D01*
X315441Y969804D01*
X316433Y970467D01*
X317096Y971460D01*
X317329Y972630D01*
Y980630D01*
X317096Y981801D01*
X316433Y982793D01*
X315858Y983177D01*
Y985323D01*
X316433Y985707D01*
X317096Y986700D01*
X317329Y987870D01*
Y993002D01*
X318941Y994614D01*
X320211Y994089D01*
Y992870D01*
X326270D01*
Y990870D01*
X320211D01*
Y987870D01*
X320444Y986700D01*
X321107Y985707D01*
X322099Y985044D01*
X322837Y984897D01*
Y983603D01*
X322099Y983456D01*
X321107Y982793D01*
X320444Y981801D01*
X320211Y980630D01*
Y972630D01*
X320444Y971460D01*
X321107Y970467D01*
X322099Y969804D01*
X323270Y969571D01*
X329270D01*
X330440Y969804D01*
X331433Y970467D01*
X332096Y971460D01*
X332295Y972458D01*
X332740Y973571D01*
X333910Y973804D01*
X334903Y974467D01*
X343017Y982581D01*
X343080D01*
X343080Y982581D01*
X343129Y982591D01*
X345313D01*
X350897Y977007D01*
X350897Y977007D01*
X351889Y976344D01*
X353060Y976111D01*
X353060Y976111D01*
X402590D01*
X402590Y976111D01*
X403760Y976344D01*
X404753Y977007D01*
X418642Y990897D01*
X419791Y990330D01*
X431800D01*
X443751D01*
X443552Y991841D01*
X442583Y994182D01*
X441041Y996191D01*
X439031Y997733D01*
X438838Y997813D01*
X438968Y999134D01*
X439320Y999204D01*
X440313Y999867D01*
X457197Y1016751D01*
X466501D01*
Y1015810D01*
X466734Y1014640D01*
X467397Y1013647D01*
X468390Y1012984D01*
X469381Y1012787D01*
Y1009650D01*
X469381Y1009650D01*
X469614Y1008480D01*
X470277Y1007487D01*
X472817Y1004947D01*
X472817Y1004947D01*
X473809Y1004284D01*
X474980Y1004051D01*
X497843D01*
X501211Y1000683D01*
Y886883D01*
X499941Y885995D01*
X499270Y886129D01*
X497904Y885857D01*
X496770Y885099D01*
X495636Y885857D01*
X494270Y886129D01*
X492904Y885857D01*
X491770Y885099D01*
X490636Y885857D01*
X489270Y886129D01*
X487904Y885857D01*
X486770Y885099D01*
X485636Y885857D01*
X484270Y886129D01*
X482904Y885857D01*
X481770Y885099D01*
X480636Y885857D01*
X479270Y886129D01*
X477904Y885857D01*
X476770Y885099D01*
X475636Y885857D01*
X474270Y886129D01*
X472904Y885857D01*
X471770Y885099D01*
X470636Y885857D01*
X469270Y886129D01*
X467904Y885857D01*
X466770Y885099D01*
X465636Y885857D01*
X464270Y886129D01*
X462904Y885857D01*
X461770Y885099D01*
X460636Y885857D01*
X459270Y886129D01*
X459208Y886116D01*
X458674Y886760D01*
X458384Y887247D01*
X458653Y888600D01*
Y894438D01*
X466002Y901788D01*
X467124Y903250D01*
X467830Y904953D01*
X468070Y906780D01*
Y911860D01*
Y923290D01*
X467987Y923925D01*
X468070Y924560D01*
Y930910D01*
Y937260D01*
X467830Y939087D01*
X467124Y940790D01*
X466002Y942252D01*
X464540Y943374D01*
X462837Y944080D01*
X461010Y944320D01*
X459183Y944080D01*
X457480Y943374D01*
X456018Y942252D01*
X454896Y940790D01*
X454231Y939185D01*
X453220Y938560D01*
X435220D01*
Y910560D01*
X453009D01*
X453758Y909513D01*
X450168Y905923D01*
X444330D01*
X442867Y905632D01*
X441626Y904804D01*
X440798Y903563D01*
X440507Y902100D01*
Y888600D01*
X440798Y887137D01*
X441626Y885896D01*
X442867Y885068D01*
X444330Y884777D01*
X445014D01*
X445262Y884557D01*
X445890Y883506D01*
X445701Y882560D01*
Y872522D01*
X444431Y872137D01*
X444318Y872308D01*
X441777Y874847D01*
X440696Y875570D01*
X439420Y875824D01*
X434523D01*
Y879240D01*
X434232Y880703D01*
X433404Y881944D01*
X432163Y882772D01*
X430700Y883063D01*
X420200D01*
X418737Y882772D01*
X417496Y881944D01*
X416668Y880703D01*
X416377Y879240D01*
Y865740D01*
X416668Y864277D01*
X417496Y863036D01*
X418737Y862208D01*
X420200Y861917D01*
X422217D01*
X422589Y860647D01*
X421747Y860083D01*
X420973Y858926D01*
X420701Y857560D01*
X420973Y856194D01*
X421731Y855060D01*
X420973Y853926D01*
X420701Y852560D01*
X420973Y851194D01*
X421731Y850060D01*
X420973Y848926D01*
X420701Y847560D01*
X420973Y846194D01*
X421731Y845060D01*
X420973Y843926D01*
X420701Y842560D01*
X420835Y841889D01*
X419947Y840619D01*
X387980D01*
X386810Y840386D01*
X385817Y839723D01*
X384501Y838407D01*
X383249Y838158D01*
X381926Y837274D01*
X381042Y835951D01*
X380793Y834699D01*
X379733Y833639D01*
X323847D01*
X320946Y836540D01*
X320947Y836595D01*
X321337Y837810D01*
X346740D01*
Y855810D01*
X338315D01*
X337789Y857080D01*
X339720Y859012D01*
X347117D01*
X347299Y858890D01*
X349250Y858502D01*
X351201Y858890D01*
X351383Y859012D01*
X354737D01*
X354919Y858890D01*
X356870Y858502D01*
X358821Y858890D01*
X359003Y859012D01*
X362357D01*
X362539Y858890D01*
X364490Y858502D01*
X366441Y858890D01*
X368095Y859995D01*
X369200Y861649D01*
X369588Y863600D01*
X369200Y865551D01*
X368095Y867205D01*
X366441Y868310D01*
X365986Y868400D01*
X366028Y869687D01*
X366774Y869785D01*
X368903Y870667D01*
X370731Y872069D01*
X372133Y873897D01*
X373015Y876026D01*
X373316Y878310D01*
X373015Y880594D01*
X372133Y882723D01*
X370731Y884551D01*
X368903Y885953D01*
X366774Y886835D01*
X364490Y887135D01*
X362206Y886835D01*
X360077Y885953D01*
X358249Y884551D01*
X356847Y882723D01*
X355965Y880594D01*
X355664Y878310D01*
X355965Y876026D01*
X356847Y873897D01*
X358249Y872069D01*
X360077Y870667D01*
X361864Y869927D01*
X362182Y868940D01*
X362170Y868509D01*
X361802Y868188D01*
X359003D01*
X358821Y868310D01*
X356870Y868698D01*
X354919Y868310D01*
X354737Y868188D01*
X351383D01*
X351201Y868310D01*
X349250Y868698D01*
X347299Y868310D01*
X347117Y868188D01*
X337820D01*
X336064Y867839D01*
X334576Y866844D01*
X329496Y861764D01*
X328501Y860276D01*
X328152Y858520D01*
Y855810D01*
X318740D01*
Y838719D01*
X318740Y837810D01*
X317620Y837449D01*
X313129D01*
Y837510D01*
X312896Y838680D01*
X312233Y839673D01*
X311241Y840336D01*
X310070Y840569D01*
X302070D01*
X300900Y840336D01*
X299907Y839673D01*
X299244Y838680D01*
X299011Y837510D01*
Y831510D01*
X299244Y830340D01*
X299907Y829347D01*
Y828003D01*
X299244Y827010D01*
X299011Y825840D01*
Y819840D01*
X299244Y818670D01*
X299907Y817677D01*
X300900Y817014D01*
X302070Y816781D01*
X310070D01*
X311241Y817014D01*
X312233Y817677D01*
X312896Y818670D01*
X313129Y819840D01*
Y819901D01*
X318740D01*
Y812810D01*
X331740D01*
Y820810D01*
X322605D01*
X322119Y821983D01*
X323657Y823521D01*
X379923D01*
X380793Y822651D01*
X381042Y821399D01*
X381119Y821284D01*
X380552Y820061D01*
X379512Y819870D01*
X378751Y820378D01*
X377190Y820688D01*
X375629Y820378D01*
X374306Y819494D01*
X373422Y818171D01*
X373112Y816610D01*
X373422Y815049D01*
X374306Y813726D01*
X375629Y812842D01*
X377190Y812532D01*
X378751Y812842D01*
X379812Y813551D01*
X388620D01*
X388620Y813551D01*
X389790Y813784D01*
X390783Y814447D01*
X400837Y824501D01*
X419947D01*
X420835Y823231D01*
X420701Y822560D01*
X420973Y821194D01*
X421731Y820060D01*
X420973Y818926D01*
X420701Y817560D01*
X420973Y816194D01*
X421731Y815060D01*
X420973Y813926D01*
X420701Y812560D01*
X420973Y811194D01*
X421731Y810060D01*
X420973Y808926D01*
X420701Y807560D01*
X420973Y806194D01*
X421731Y805060D01*
X420973Y803926D01*
X420701Y802560D01*
X420973Y801194D01*
X421731Y800060D01*
X420973Y798926D01*
X420701Y797560D01*
X420973Y796194D01*
X421731Y795060D01*
X420973Y793926D01*
X420701Y792560D01*
X420973Y791194D01*
X421731Y790060D01*
X420973Y788926D01*
X420701Y787560D01*
X420835Y786889D01*
X419947Y785619D01*
X388283D01*
X388283Y785619D01*
X387113Y785386D01*
X386120Y784723D01*
X377447Y776050D01*
X376784Y775057D01*
X376551Y773887D01*
X376551Y773887D01*
Y711570D01*
X375717Y711013D01*
X375054Y710021D01*
X374821Y708850D01*
Y700850D01*
X374989Y700009D01*
X374272Y698739D01*
X372489D01*
X371771Y700009D01*
X371939Y700850D01*
Y708850D01*
X371706Y710021D01*
X371043Y711013D01*
X370513Y711367D01*
X369528Y712179D01*
X369838Y713740D01*
X369528Y715301D01*
X368644Y716624D01*
X367321Y717508D01*
X365760Y717818D01*
X364199Y717508D01*
X362876Y716624D01*
X361992Y715301D01*
X361682Y713740D01*
X361992Y712179D01*
X361081Y711256D01*
X360717Y711013D01*
X359909D01*
X358798Y711987D01*
Y718940D01*
X358449Y720696D01*
X357454Y722184D01*
X353764Y725874D01*
X352276Y726869D01*
X350520Y727218D01*
X346740D01*
Y730238D01*
X348661Y730620D01*
X350315Y731725D01*
X351420Y733379D01*
X351808Y735330D01*
X351420Y737281D01*
X350315Y738935D01*
X348661Y740040D01*
X346710Y740428D01*
X344759Y740040D01*
X344577Y739918D01*
X342493D01*
X342311Y740040D01*
X340360Y740428D01*
X338409Y740040D01*
X338227Y739918D01*
X336143D01*
X335961Y740040D01*
X334010Y740428D01*
X332059Y740040D01*
X331877Y739918D01*
X329793D01*
X329611Y740040D01*
X327660Y740428D01*
X325709Y740040D01*
X324055Y738935D01*
X322950Y737281D01*
X322562Y735330D01*
X322950Y733379D01*
X323072Y733197D01*
Y731910D01*
X318740D01*
Y727218D01*
X309109D01*
X308049Y728400D01*
Y730400D01*
X301990D01*
Y725132D01*
X302389Y724168D01*
X300680Y722459D01*
X296990D01*
X295819Y722226D01*
X294827Y721563D01*
X294164Y720571D01*
X293931Y719400D01*
Y713400D01*
X294055Y712776D01*
X294010Y712571D01*
X293370Y711574D01*
X293180Y711417D01*
X292157Y711214D01*
X290781Y710294D01*
X289862Y708919D01*
X289540Y707296D01*
Y691072D01*
X289862Y689450D01*
X290594Y688354D01*
Y685007D01*
X290866Y683642D01*
X291639Y682484D01*
X294657Y679467D01*
X295161Y679130D01*
X295174Y679113D01*
X295352Y677589D01*
X291757Y673993D01*
X290983Y672836D01*
X290711Y671470D01*
Y669446D01*
X289621D01*
Y644905D01*
X297939D01*
X297939Y644905D01*
X299209Y645037D01*
X299280Y645023D01*
Y657176D01*
Y669329D01*
X299209Y669315D01*
X299070Y669329D01*
X298718Y669824D01*
X298540Y670684D01*
X299928Y672071D01*
X314371D01*
X314669Y671872D01*
X316230Y671562D01*
X317791Y671872D01*
X318061Y672053D01*
X319331Y671374D01*
Y669980D01*
X319564Y668810D01*
X320227Y667817D01*
X321219Y667154D01*
X322390Y666921D01*
X323550D01*
X323564Y666850D01*
X324227Y665857D01*
X324872Y665212D01*
X324386Y664039D01*
X322390D01*
X321219Y663806D01*
X320227Y663143D01*
X319564Y662150D01*
X319331Y660980D01*
Y658980D01*
X326390D01*
X333449D01*
Y660980D01*
X333275Y661851D01*
X333979Y663121D01*
X339330D01*
Y657680D01*
X353330D01*
Y666180D01*
Y674680D01*
X339330D01*
Y669239D01*
X334057D01*
X333449Y669980D01*
Y675980D01*
X333216Y677150D01*
X332553Y678143D01*
Y679487D01*
X333216Y680480D01*
X333449Y681650D01*
Y687650D01*
X333216Y688820D01*
X332553Y689813D01*
X331561Y690476D01*
X330390Y690709D01*
X322390D01*
X321219Y690476D01*
X320227Y689813D01*
X319564Y688820D01*
X319331Y687650D01*
Y686256D01*
X318061Y685577D01*
X317791Y685758D01*
X316230Y686068D01*
X314669Y685758D01*
X314371Y685559D01*
X299327D01*
X299264Y685606D01*
X299195Y685753D01*
X300068Y686874D01*
X300280Y686832D01*
X301903Y687155D01*
X302570Y687601D01*
X303530Y687976D01*
X304490Y687601D01*
X305157Y687155D01*
X306780Y686832D01*
X308403Y687155D01*
X309778Y688074D01*
X310282D01*
X311657Y687155D01*
X313280Y686832D01*
X314903Y687155D01*
X316278Y688074D01*
X317198Y689450D01*
X317521Y691072D01*
Y696591D01*
X319343D01*
X319564Y695480D01*
X320227Y694487D01*
X321219Y693824D01*
X322390Y693591D01*
X330390D01*
X331561Y693824D01*
X332553Y694487D01*
X333216Y695480D01*
X333449Y696650D01*
Y697560D01*
X334719Y698238D01*
X335039Y698024D01*
X336210Y697791D01*
X339330D01*
Y691180D01*
X344830D01*
Y690180D01*
X345830D01*
Y681680D01*
X369330D01*
Y692621D01*
X377889D01*
X378328Y691923D01*
X378443Y691379D01*
X377567Y690503D01*
X376904Y689510D01*
X376671Y688340D01*
X376671Y688340D01*
Y671419D01*
X374460D01*
X373289Y671186D01*
X372297Y670523D01*
X371634Y669530D01*
X371437Y668539D01*
X369330D01*
Y674680D01*
X355330D01*
Y666180D01*
Y657680D01*
X369330D01*
Y662421D01*
X371401D01*
Y662360D01*
X371634Y661189D01*
X372297Y660197D01*
X373289Y659534D01*
X374460Y659301D01*
X382460D01*
X383630Y659534D01*
X384623Y660197D01*
X385286Y661189D01*
X385519Y662360D01*
Y668360D01*
X385286Y669530D01*
X384623Y670523D01*
X383630Y671186D01*
X382789Y671353D01*
Y687073D01*
X390783Y695067D01*
X390783Y695067D01*
X391446Y696059D01*
X391679Y697230D01*
X391679Y697230D01*
Y711200D01*
X391679Y711200D01*
X391446Y712371D01*
X390783Y713363D01*
X390783Y713363D01*
X386669Y717477D01*
Y770893D01*
X390277Y774501D01*
X419947D01*
X420835Y773231D01*
X420701Y772560D01*
X420973Y771194D01*
X421731Y770060D01*
X420973Y768926D01*
X420701Y767560D01*
X420973Y766194D01*
X421731Y765060D01*
X420973Y763926D01*
X420701Y762560D01*
X420835Y761889D01*
X419947Y760619D01*
X419812D01*
X418751Y761328D01*
X417190Y761638D01*
X415629Y761328D01*
X414306Y760444D01*
X413422Y759121D01*
X413112Y757560D01*
X413422Y755999D01*
X414306Y754676D01*
X415629Y753792D01*
X417190Y753482D01*
X418751Y753792D01*
X419812Y754501D01*
X419947D01*
X420835Y753231D01*
X420701Y752560D01*
X420835Y751889D01*
X419947Y750619D01*
X411893D01*
Y750740D01*
X411602Y752203D01*
X410774Y753444D01*
X409533Y754272D01*
X408070Y754563D01*
X394570D01*
X393107Y754272D01*
X391866Y753444D01*
X391038Y752203D01*
X390747Y750740D01*
Y740240D01*
X391038Y738777D01*
X391866Y737536D01*
X393107Y736708D01*
X394570Y736417D01*
X408070D01*
X409533Y736708D01*
X410774Y737536D01*
X411602Y738777D01*
X411893Y740240D01*
Y744501D01*
X419947D01*
X420605Y743560D01*
X433270D01*
Y741560D01*
X420900D01*
X420973Y741194D01*
X421731Y740060D01*
X420973Y738926D01*
X420701Y737560D01*
X420973Y736194D01*
X421747Y735037D01*
X422904Y734263D01*
X424270Y733991D01*
X428231D01*
Y730870D01*
X427509Y730726D01*
X426517Y730063D01*
X425854Y729071D01*
X425621Y727900D01*
Y719900D01*
X424695Y719135D01*
X423692D01*
X422739Y720117D01*
Y722900D01*
X417680D01*
Y716841D01*
X418711D01*
X419412Y715778D01*
X419446Y715571D01*
X419082Y713740D01*
X419470Y711789D01*
X420575Y710135D01*
X422229Y709030D01*
X424180Y708642D01*
X426131Y709030D01*
X427785Y710135D01*
X428195D01*
X429849Y709030D01*
X431800Y708642D01*
X433751Y709030D01*
X435405Y710135D01*
X436510Y711789D01*
X436898Y713740D01*
X436510Y715691D01*
X436322Y715972D01*
X436723Y717657D01*
X436843Y717737D01*
X437506Y718729D01*
X437739Y719900D01*
Y727900D01*
X437506Y729071D01*
X436843Y730063D01*
X435850Y730726D01*
X435369Y730822D01*
Y733991D01*
X439746D01*
X440425Y732721D01*
X440404Y732691D01*
X440171Y731520D01*
X440171Y731520D01*
Y610952D01*
X439462Y609891D01*
X439152Y608330D01*
X439462Y606769D01*
X440346Y605446D01*
X441669Y604562D01*
X443230Y604252D01*
X444791Y604562D01*
X444941Y604663D01*
X446211Y603984D01*
Y588320D01*
X446211Y588320D01*
X446444Y587150D01*
X447107Y586157D01*
X452497Y580767D01*
X452497Y580767D01*
X453489Y580104D01*
X454660Y579871D01*
X474898D01*
X475959Y579162D01*
X477520Y578852D01*
X479081Y579162D01*
X480404Y580046D01*
X481288Y581369D01*
X481598Y582930D01*
X481288Y584491D01*
X480404Y585814D01*
X479081Y586698D01*
X477520Y587008D01*
X475959Y586698D01*
X474898Y585989D01*
X455927D01*
X452329Y589587D01*
Y679605D01*
X453599Y680585D01*
X454270Y680452D01*
X454941Y680585D01*
X456211Y679605D01*
Y662222D01*
X455502Y661161D01*
X455192Y659600D01*
X455502Y658039D01*
X456386Y656716D01*
X457709Y655832D01*
X459270Y655522D01*
X460831Y655832D01*
X462154Y656716D01*
X463038Y658039D01*
X463348Y659600D01*
X463038Y661161D01*
X462329Y662222D01*
Y667625D01*
X463599Y668605D01*
X464270Y668472D01*
X464941Y668605D01*
X466211Y667625D01*
Y650280D01*
X465799Y650198D01*
X464476Y649314D01*
X463592Y647991D01*
X463282Y646430D01*
X463592Y644869D01*
X464476Y643546D01*
X465799Y642662D01*
X467360Y642352D01*
X468921Y642662D01*
X470244Y643546D01*
X471128Y644869D01*
X471438Y646430D01*
X471436Y646443D01*
X472096Y647431D01*
X472329Y648602D01*
X472329Y648602D01*
Y654765D01*
X473599Y655745D01*
X474270Y655612D01*
X475831Y655922D01*
X477154Y656806D01*
X478038Y658129D01*
X478348Y659690D01*
X478038Y661251D01*
X477329Y662312D01*
Y708236D01*
X478599Y709125D01*
X479270Y708991D01*
X480636Y709263D01*
X481770Y710021D01*
X482904Y709263D01*
X484270Y708991D01*
X485636Y709263D01*
X486770Y710021D01*
X487904Y709263D01*
X489270Y708991D01*
X490636Y709263D01*
X491770Y710021D01*
X492904Y709263D01*
X494270Y708991D01*
X495636Y709263D01*
X496770Y710021D01*
X497904Y709263D01*
X499270Y708991D01*
X500636Y709263D01*
X501770Y710021D01*
X502904Y709263D01*
X504270Y708991D01*
X505636Y709263D01*
X506770Y710021D01*
X507904Y709263D01*
X509270Y708991D01*
X510636Y709263D01*
X511770Y710021D01*
X512904Y709263D01*
X514270Y708991D01*
X514941Y709125D01*
X516211Y708236D01*
Y664646D01*
X514941Y663967D01*
X514641Y664168D01*
X513080Y664478D01*
X511519Y664168D01*
X510196Y663284D01*
X509312Y661961D01*
X509002Y660400D01*
X509312Y658839D01*
X510196Y657516D01*
X511519Y656632D01*
X513080Y656322D01*
X514641Y656632D01*
X514941Y656833D01*
X516211Y656154D01*
Y647537D01*
X503297Y634623D01*
X502634Y633630D01*
X502401Y632460D01*
X501288Y632015D01*
X500289Y631816D01*
X499297Y631153D01*
X498634Y630160D01*
X498401Y628990D01*
Y622990D01*
X498634Y621819D01*
X499297Y620827D01*
X500289Y620164D01*
X501460Y619931D01*
X509460D01*
X510630Y620164D01*
X511623Y620827D01*
X511997D01*
X512990Y620164D01*
X514160Y619931D01*
X522160D01*
X523330Y620164D01*
X524323Y620827D01*
X524697D01*
X525690Y620164D01*
X526860Y619931D01*
X534860D01*
X536031Y620164D01*
X537023Y620827D01*
X537686Y621819D01*
X537919Y622990D01*
Y628990D01*
X537686Y630160D01*
X537023Y631153D01*
X536031Y631816D01*
X534860Y632049D01*
X533919D01*
Y640080D01*
X533686Y641251D01*
X533023Y642243D01*
X533023Y642243D01*
X527329Y647937D01*
Y708236D01*
X528599Y709125D01*
X529270Y708991D01*
X529941Y709125D01*
X531211Y708236D01*
Y655720D01*
X531211Y655720D01*
X531444Y654549D01*
X532107Y653557D01*
X537587Y648077D01*
X537587Y648077D01*
X538579Y647414D01*
X539750Y647181D01*
X539750Y647181D01*
X542107D01*
Y643490D01*
X542398Y642027D01*
X543226Y640786D01*
X544467Y639958D01*
X544496Y639952D01*
X544723Y639437D01*
X544888Y638579D01*
X544354Y637780D01*
X544121Y636610D01*
Y630610D01*
X544354Y629440D01*
X545017Y628447D01*
X546009Y627784D01*
X547180Y627551D01*
X555180D01*
X556351Y627784D01*
X557343Y628447D01*
X558006Y629440D01*
X558149Y630161D01*
X567071D01*
X567214Y629440D01*
X567877Y628447D01*
X568870Y627784D01*
X570040Y627551D01*
X578040D01*
X579211Y627784D01*
X580203Y628447D01*
X580866Y629440D01*
X581099Y630610D01*
Y636610D01*
X580866Y637780D01*
X580332Y638579D01*
X580497Y639437D01*
X580724Y639952D01*
X580753Y639958D01*
X581994Y640786D01*
X582822Y642027D01*
X583113Y643490D01*
Y649240D01*
X574040D01*
Y651240D01*
X583113D01*
Y656990D01*
X582822Y658453D01*
X582717Y658611D01*
X583396Y659881D01*
X588814D01*
X589493Y658611D01*
X589388Y658453D01*
X589097Y656990D01*
Y643490D01*
X589388Y642027D01*
X590216Y640786D01*
X591457Y639958D01*
X591486Y639952D01*
X591713Y639437D01*
X591878Y638579D01*
X591344Y637780D01*
X591111Y636610D01*
Y634610D01*
X598170D01*
Y633610D01*
X599170D01*
Y627551D01*
X602170D01*
X603340Y627784D01*
X603491Y627885D01*
X604761Y627206D01*
Y625014D01*
X603491Y624335D01*
X603340Y624436D01*
X602170Y624669D01*
X594170D01*
X592999Y624436D01*
X592007Y623773D01*
X591344Y622780D01*
X591111Y621610D01*
Y615610D01*
X591344Y614440D01*
X592007Y613447D01*
X592665Y613008D01*
X593600Y612200D01*
Y597700D01*
X604100D01*
Y601381D01*
X606220D01*
X607586Y601653D01*
X608743Y602427D01*
X610853Y604537D01*
X611627Y605694D01*
X611899Y607060D01*
Y640263D01*
X612698Y640618D01*
X613169Y640725D01*
X614317Y639958D01*
X614346Y639952D01*
X614573Y639437D01*
X614738Y638579D01*
X614204Y637780D01*
X613971Y636610D01*
Y630610D01*
X614204Y629440D01*
X614867Y628447D01*
X615859Y627784D01*
X617030Y627551D01*
X625030D01*
X626200Y627784D01*
X627193Y628447D01*
X627621Y629089D01*
X628891Y628703D01*
Y623517D01*
X627621Y623131D01*
X627193Y623773D01*
X626200Y624436D01*
X625030Y624669D01*
X617030D01*
X615859Y624436D01*
X614867Y623773D01*
X614204Y622780D01*
X613971Y621610D01*
Y615610D01*
X614204Y614440D01*
X614867Y613447D01*
X614935Y613402D01*
X615100Y612200D01*
X615100Y612200D01*
Y597700D01*
X625600D01*
Y612200D01*
X626535Y613008D01*
X627193Y613447D01*
X627621Y614089D01*
X628891Y613703D01*
Y580598D01*
X624512Y576219D01*
X544254D01*
X543449Y577200D01*
X543578Y577850D01*
X543190Y579801D01*
X542085Y581455D01*
X542049Y581479D01*
Y600502D01*
X543550Y602004D01*
X544324Y603161D01*
X544595Y604527D01*
Y612201D01*
X545839Y612866D01*
X546090Y612649D01*
X546610Y611774D01*
X546610Y605950D01*
X551860D01*
X557110D01*
Y611764D01*
X557110Y612200D01*
X557275Y613402D01*
X557343Y613447D01*
X558006Y614440D01*
X558239Y615610D01*
Y621610D01*
X558006Y622780D01*
X557343Y623773D01*
X556351Y624436D01*
X555180Y624669D01*
X547180D01*
X546009Y624436D01*
X545017Y623773D01*
X544354Y622780D01*
X544183Y621922D01*
X543437D01*
X542072Y621650D01*
X540914Y620877D01*
X538504Y618466D01*
X537730Y617309D01*
X537712Y617220D01*
X536301Y616635D01*
X536031Y616816D01*
X534860Y617049D01*
X526860D01*
X525690Y616816D01*
X524697Y616153D01*
X524323D01*
X523330Y616816D01*
X522160Y617049D01*
X514160D01*
X512990Y616816D01*
X511997Y616153D01*
X511623D01*
X510630Y616816D01*
X509460Y617049D01*
X501460D01*
X500289Y616816D01*
X499297Y616153D01*
X498634Y615160D01*
X498401Y613990D01*
Y607990D01*
X498634Y606819D01*
X499297Y605827D01*
X500289Y605164D01*
X501460Y604931D01*
X502146D01*
Y600450D01*
X498795D01*
Y586450D01*
X522954D01*
X523441Y585277D01*
X520114Y581950D01*
X498795D01*
Y578264D01*
X492990D01*
X492555Y578915D01*
X490901Y580020D01*
X488950Y580408D01*
X486999Y580020D01*
X485345Y578915D01*
X484240Y577261D01*
X483852Y575310D01*
X484240Y573359D01*
X485345Y571705D01*
X486999Y570600D01*
X488950Y570212D01*
X490901Y570600D01*
X492452Y571636D01*
X498795D01*
Y567950D01*
X525295D01*
Y577759D01*
X533203Y585667D01*
X533641Y586323D01*
X534911Y585938D01*
Y581479D01*
X534875Y581455D01*
X533770Y579801D01*
X533382Y577850D01*
X533770Y575899D01*
X533892Y575717D01*
Y573633D01*
X533770Y573451D01*
X533382Y571500D01*
X533770Y569549D01*
X533892Y569367D01*
Y567283D01*
X533770Y567101D01*
X533382Y565150D01*
X533770Y563199D01*
X533892Y563017D01*
Y560933D01*
X533770Y560751D01*
X533382Y558800D01*
X533713Y557134D01*
X533017Y555864D01*
X464823D01*
X456047Y564639D01*
X455888Y565441D01*
X455004Y566764D01*
X453681Y567648D01*
X452120Y567958D01*
X450559Y567648D01*
X449236Y566764D01*
X448352Y565441D01*
X448042Y563880D01*
X448352Y562319D01*
X449236Y560996D01*
X450559Y560112D01*
X451361Y559953D01*
X461107Y550207D01*
X462182Y549489D01*
X463450Y549236D01*
X654150D01*
X655418Y549489D01*
X656493Y550207D01*
X660203Y553917D01*
X660921Y554992D01*
X661051Y555643D01*
X662090Y556200D01*
X662419Y556200D01*
X672590D01*
Y570700D01*
X662444D01*
X662090Y570700D01*
X661174Y571554D01*
Y596846D01*
X662090Y597700D01*
X672590D01*
Y612200D01*
X673525Y613008D01*
X674183Y613447D01*
X674846Y614440D01*
X675079Y615610D01*
Y621610D01*
X674846Y622780D01*
X674183Y623773D01*
X673191Y624436D01*
X672020Y624669D01*
X664020D01*
X662850Y624436D01*
X662444Y624165D01*
X661174Y624844D01*
Y627376D01*
X662444Y628055D01*
X662850Y627784D01*
X664020Y627551D01*
X672020D01*
X673191Y627784D01*
X674183Y628447D01*
X674846Y629440D01*
X675079Y630610D01*
Y636610D01*
X674846Y637780D01*
X674312Y638579D01*
X674477Y639437D01*
X674704Y639952D01*
X674733Y639958D01*
X675974Y640786D01*
X676802Y642027D01*
X677093Y643490D01*
Y649240D01*
X658947D01*
Y643490D01*
X659238Y642027D01*
X660066Y640786D01*
X661307Y639958D01*
X661336Y639952D01*
X661563Y639437D01*
X661728Y638579D01*
X661194Y637780D01*
X661024Y636924D01*
X652156D01*
X651986Y637780D01*
X651452Y638579D01*
X651617Y639437D01*
X651844Y639952D01*
X651873Y639958D01*
X653114Y640786D01*
X653942Y642027D01*
X654233Y643490D01*
Y656990D01*
X653942Y658453D01*
X653114Y659694D01*
X651873Y660522D01*
X650410Y660813D01*
X648219D01*
Y665480D01*
X647986Y666651D01*
X647323Y667643D01*
X647323Y667643D01*
X644783Y670183D01*
X643791Y670846D01*
X642620Y671079D01*
X642620Y671079D01*
X549907D01*
X547889Y673097D01*
Y690024D01*
X549159Y690149D01*
X549284Y689520D01*
X549947Y688527D01*
X550939Y687864D01*
X552110Y687631D01*
X554110D01*
Y694690D01*
Y701749D01*
X552110D01*
X550939Y701516D01*
X549947Y700853D01*
X549284Y699861D01*
X549159Y699231D01*
X547889Y699356D01*
Y700958D01*
X548598Y702019D01*
X548908Y703580D01*
X548598Y705141D01*
X547714Y706464D01*
X546391Y707348D01*
X544830Y707658D01*
X544735Y707639D01*
X543814Y708359D01*
X544270Y708991D01*
X545636Y709263D01*
X546770Y710021D01*
X547904Y709263D01*
X549270Y708991D01*
X550636Y709263D01*
X551770Y710021D01*
X552904Y709263D01*
X554270Y708991D01*
X555636Y709263D01*
X556770Y710021D01*
X557904Y709263D01*
X559270Y708991D01*
X560636Y709263D01*
X561770Y710021D01*
X562904Y709263D01*
X563270Y709190D01*
Y721560D01*
Y733930D01*
X562904Y733857D01*
X561770Y733099D01*
X560636Y733857D01*
X559270Y734129D01*
X557904Y733857D01*
X556770Y733099D01*
X555636Y733857D01*
X554270Y734129D01*
X553099Y733896D01*
X551829Y734464D01*
Y742820D01*
X551596Y743991D01*
X550933Y744983D01*
X550933Y744983D01*
X544453Y751463D01*
X543461Y752126D01*
X542290Y752359D01*
X542290Y752359D01*
X537292D01*
X536231Y753068D01*
X534670Y753378D01*
X533109Y753068D01*
X531786Y752184D01*
X530902Y750861D01*
X530592Y749300D01*
X530902Y747739D01*
X531786Y746416D01*
X533109Y745532D01*
X534670Y745222D01*
X534969Y745281D01*
X535306Y745025D01*
X535915Y744174D01*
X535672Y742950D01*
X535982Y741389D01*
X536866Y740066D01*
X538189Y739182D01*
X539750Y738872D01*
X540156Y738952D01*
X541211Y738037D01*
Y734883D01*
X539941Y733995D01*
X539270Y734129D01*
X537904Y733857D01*
X536770Y733099D01*
X535636Y733857D01*
X534270Y734129D01*
X532904Y733857D01*
X531770Y733099D01*
X530636Y733857D01*
X529270Y734129D01*
X527904Y733857D01*
X526770Y733099D01*
X525636Y733857D01*
X524270Y734129D01*
X522904Y733857D01*
X521770Y733099D01*
X520636Y733857D01*
X519270Y734129D01*
X517904Y733857D01*
X516770Y733099D01*
X515636Y733857D01*
X514270Y734129D01*
X512904Y733857D01*
X511770Y733099D01*
X510636Y733857D01*
X509270Y734129D01*
X507904Y733857D01*
X506770Y733099D01*
X505636Y733857D01*
X504270Y734129D01*
X502904Y733857D01*
X501770Y733099D01*
X500636Y733857D01*
X499270Y734129D01*
X497904Y733857D01*
X496770Y733099D01*
X495636Y733857D01*
X494270Y734129D01*
X492904Y733857D01*
X491770Y733099D01*
X490636Y733857D01*
X489270Y734129D01*
X487904Y733857D01*
X486770Y733099D01*
X485636Y733857D01*
X484270Y734129D01*
X482904Y733857D01*
X481770Y733099D01*
X480636Y733857D01*
X479270Y734129D01*
X477904Y733857D01*
X476770Y733099D01*
X475636Y733857D01*
X474270Y734129D01*
X472904Y733857D01*
X471770Y733099D01*
X470636Y733857D01*
X469270Y734129D01*
X467904Y733857D01*
X466770Y733099D01*
X465636Y733857D01*
X464270Y734129D01*
X462904Y733857D01*
X461770Y733099D01*
X460636Y733857D01*
X459270Y734129D01*
X457904Y733857D01*
X456770Y733099D01*
X455636Y733857D01*
X454270Y734129D01*
X452904Y733857D01*
X452509Y733593D01*
X451657Y733974D01*
X451408Y735372D01*
X453013Y736977D01*
X453676Y737970D01*
X453909Y739140D01*
Y749300D01*
X453909Y749300D01*
X453676Y750471D01*
X453013Y751463D01*
X453013Y751463D01*
X449753Y754723D01*
X448760Y755386D01*
X447590Y755619D01*
X447590Y755619D01*
X446594D01*
X445705Y756889D01*
X445839Y757560D01*
X445567Y758926D01*
X444809Y760060D01*
X445567Y761194D01*
X445839Y762560D01*
X445567Y763926D01*
X444809Y765060D01*
X445567Y766194D01*
X445839Y767560D01*
X445567Y768926D01*
X444809Y770060D01*
X445567Y771194D01*
X445839Y772560D01*
X445567Y773926D01*
X444809Y775060D01*
X445567Y776194D01*
X445839Y777560D01*
X445567Y778926D01*
X444809Y780060D01*
X445567Y781194D01*
X445839Y782560D01*
X445567Y783926D01*
X444809Y785060D01*
X445567Y786194D01*
X445839Y787560D01*
X445567Y788926D01*
X444809Y790060D01*
X445567Y791194D01*
X445839Y792560D01*
X445567Y793926D01*
X444809Y795060D01*
X445567Y796194D01*
X445839Y797560D01*
X445689Y798311D01*
X446540Y799581D01*
X459658D01*
X460719Y798872D01*
X462280Y798562D01*
X463841Y798872D01*
X465164Y799756D01*
X466048Y801079D01*
X466358Y802640D01*
X466048Y804201D01*
X465164Y805524D01*
X463841Y806408D01*
X462346Y806705D01*
X462548Y807720D01*
X462238Y809281D01*
X461354Y810604D01*
X460031Y811488D01*
X458536Y811785D01*
X458738Y812800D01*
X458428Y814361D01*
X457544Y815684D01*
X456221Y816568D01*
X454750Y816860D01*
X454379Y817004D01*
X453784Y817599D01*
X453640Y817970D01*
X453348Y819441D01*
X452464Y820764D01*
X451141Y821648D01*
X449580Y821958D01*
X448019Y821648D01*
X446696Y820764D01*
X445884Y821633D01*
X445705Y821889D01*
X445839Y822560D01*
X445567Y823926D01*
X444809Y825060D01*
X445567Y826194D01*
X445839Y827560D01*
X445567Y828926D01*
X444809Y830060D01*
X445567Y831194D01*
X445839Y832560D01*
X445567Y833926D01*
X444809Y835060D01*
X445567Y836194D01*
X445839Y837560D01*
X445567Y838926D01*
X444809Y840060D01*
X445567Y841194D01*
X445839Y842560D01*
X445567Y843926D01*
X444809Y845060D01*
X445567Y846194D01*
X445839Y847560D01*
X445567Y848926D01*
X444809Y850060D01*
X445567Y851194D01*
X445839Y852560D01*
X445567Y853926D01*
X444809Y855060D01*
X445239Y855703D01*
X446018Y856710D01*
X447294Y856456D01*
X452120D01*
X453236Y856678D01*
X453962Y856239D01*
X454415Y855863D01*
X454702Y854419D01*
X455586Y853096D01*
X456909Y852212D01*
X458470Y851902D01*
X459941Y852194D01*
X460226Y852180D01*
X461211Y851654D01*
Y848889D01*
X461052Y848651D01*
X460742Y847090D01*
X461052Y845529D01*
X461936Y844206D01*
X463259Y843322D01*
X464820Y843012D01*
X466381Y843322D01*
X467704Y844206D01*
X468588Y845529D01*
X468898Y847090D01*
X468588Y848651D01*
X467704Y849974D01*
X467329Y850225D01*
Y852746D01*
X468599Y853430D01*
X469900Y853172D01*
X471461Y853482D01*
X472784Y854366D01*
X473668Y855689D01*
X473978Y857250D01*
X473668Y858811D01*
X472893Y859970D01*
X473119Y860591D01*
X473454Y861047D01*
X473599Y861125D01*
X474270Y860991D01*
X475636Y861263D01*
X476770Y862021D01*
X477904Y861263D01*
X479270Y860991D01*
X480636Y861263D01*
X481770Y862021D01*
X482904Y861263D01*
X484270Y860991D01*
X485636Y861263D01*
X486770Y862021D01*
X487904Y861263D01*
X489270Y860991D01*
X490636Y861263D01*
X491770Y862021D01*
X492904Y861263D01*
X494270Y860991D01*
X495636Y861263D01*
X496770Y862021D01*
X497904Y861263D01*
X499270Y860991D01*
X500636Y861263D01*
X501770Y862021D01*
X502904Y861263D01*
X504270Y860991D01*
X505636Y861263D01*
X506770Y862021D01*
X507904Y861263D01*
X509270Y860991D01*
X510636Y861263D01*
X511770Y862021D01*
X512904Y861263D01*
X514270Y860991D01*
X514941Y861125D01*
X516211Y860237D01*
Y857093D01*
X515662Y856271D01*
X515352Y854710D01*
X515662Y853149D01*
X516546Y851826D01*
X517869Y850942D01*
X519430Y850632D01*
X520991Y850942D01*
X522314Y851826D01*
X523198Y853149D01*
X523508Y854710D01*
X523198Y856271D01*
X522329Y857571D01*
Y860237D01*
X523599Y861125D01*
X524270Y860991D01*
X525636Y861263D01*
X526770Y862021D01*
X527904Y861263D01*
X529270Y860991D01*
X529941Y861125D01*
X531211Y860237D01*
Y833520D01*
X531211Y833520D01*
X531444Y832349D01*
X532107Y831357D01*
X535047Y828417D01*
X535047Y828417D01*
X536039Y827754D01*
X537210Y827521D01*
X549828D01*
X550889Y826812D01*
X552450Y826502D01*
X554011Y826812D01*
X555334Y827696D01*
X556218Y829019D01*
X556528Y830580D01*
X556218Y832141D01*
X555334Y833464D01*
X554011Y834348D01*
X552450Y834658D01*
X550889Y834348D01*
X549828Y833639D01*
X547161D01*
X546219Y834909D01*
X546368Y835660D01*
X546152Y836746D01*
X546128Y837288D01*
X546992Y838109D01*
X547661Y838242D01*
X548984Y839126D01*
X549868Y840449D01*
X550160Y841920D01*
X550304Y842291D01*
X550899Y842886D01*
X551270Y843030D01*
X552741Y843322D01*
X554064Y844206D01*
X554948Y845529D01*
X555258Y847090D01*
X555042Y848176D01*
X555018Y848718D01*
X555882Y849539D01*
X556551Y849672D01*
X557874Y850556D01*
X558758Y851879D01*
X559068Y853440D01*
X558758Y855001D01*
X557874Y856324D01*
X557329Y856688D01*
Y860237D01*
X558599Y861125D01*
X559270Y860991D01*
X560636Y861263D01*
X561770Y862021D01*
X562904Y861263D01*
X563270Y861190D01*
Y873560D01*
X565270D01*
Y860895D01*
X566211Y860237D01*
Y853874D01*
X566076Y853784D01*
X565192Y852461D01*
X564882Y850900D01*
X565192Y849339D01*
X566076Y848016D01*
X567399Y847132D01*
X568960Y846822D01*
X570521Y847132D01*
X571465Y847763D01*
X571820Y847705D01*
X572654Y847321D01*
X572769Y847223D01*
X572973Y846194D01*
X573731Y845060D01*
X572973Y843926D01*
X572701Y842560D01*
X572973Y841194D01*
X573731Y840060D01*
X572973Y838926D01*
X572701Y837560D01*
X572973Y836194D01*
X573731Y835060D01*
X572973Y833926D01*
X572900Y833560D01*
X585270D01*
X597757D01*
X598469Y834688D01*
X598987D01*
X598987Y834688D01*
X600158Y834921D01*
X601150Y835584D01*
X602873Y837307D01*
X602873Y837307D01*
X603536Y838299D01*
X603769Y839470D01*
X604971Y839501D01*
X605140D01*
X605164Y839380D01*
X605827Y838387D01*
X606819Y837724D01*
X607990Y837491D01*
X613990D01*
X615160Y837724D01*
X616153Y838387D01*
X616816Y839380D01*
X617049Y840550D01*
Y845902D01*
X617078Y846050D01*
Y850487D01*
X619148D01*
X619384Y850309D01*
X620070Y849286D01*
X620073Y849262D01*
X619931Y848550D01*
Y845550D01*
X624990D01*
Y851609D01*
X624163D01*
X623463Y852846D01*
X623469Y852879D01*
X623753Y854310D01*
Y867810D01*
X623462Y869273D01*
X622634Y870514D01*
X621393Y871342D01*
X619930Y871633D01*
X619268D01*
Y874167D01*
X619390Y874349D01*
X619778Y876300D01*
X619390Y878251D01*
X619268Y878433D01*
Y881787D01*
X619390Y881969D01*
X619778Y883920D01*
X619390Y885871D01*
X618285Y887525D01*
X616631Y888630D01*
X614680Y889018D01*
X612729Y888630D01*
X611075Y887525D01*
X609970Y885871D01*
X609582Y883920D01*
X609933Y882158D01*
X609600Y881380D01*
X608822Y881048D01*
X607060Y881398D01*
X605109Y881010D01*
X603455Y879905D01*
X602350Y878251D01*
X601962Y876300D01*
X602350Y874349D01*
X603455Y872695D01*
X605109Y871590D01*
X605926Y871428D01*
X605990Y871355D01*
X606408Y870037D01*
X605898Y869273D01*
X605607Y867810D01*
Y864314D01*
X605304Y864200D01*
X604337Y864102D01*
X603594Y865214D01*
X602271Y866098D01*
X600710Y866408D01*
X599149Y866098D01*
X598088Y865389D01*
X586740D01*
X585569Y865156D01*
X584577Y864493D01*
X584577Y864493D01*
X583107Y863023D01*
X582444Y862030D01*
X582265Y861129D01*
X576270D01*
X574904Y860857D01*
X573747Y860083D01*
X573599Y859862D01*
X572329Y860247D01*
Y862838D01*
X572567Y863194D01*
X572839Y864560D01*
Y882560D01*
X572567Y883926D01*
X571793Y885083D01*
X570636Y885857D01*
X570296Y885925D01*
Y887219D01*
X570471Y887254D01*
X571463Y887917D01*
X572126Y888910D01*
X572359Y890080D01*
Y893080D01*
X560241D01*
Y891141D01*
X558971Y890614D01*
X557359Y892227D01*
Y898080D01*
X557126Y899250D01*
X556463Y900243D01*
X555980Y900565D01*
X555890Y901019D01*
X556278Y902970D01*
X555890Y904921D01*
X554785Y906575D01*
X553131Y907680D01*
X551180Y908068D01*
X549229Y907680D01*
X547575Y906575D01*
X546470Y904921D01*
X546082Y902970D01*
X546470Y901019D01*
X546343Y900380D01*
X546137Y900243D01*
X545474Y899250D01*
X545241Y898080D01*
Y890080D01*
X545474Y888910D01*
X546137Y887917D01*
X547130Y887254D01*
X547774Y887126D01*
X547882Y886079D01*
X547845Y885817D01*
X546770Y885099D01*
X545636Y885857D01*
X544270Y886129D01*
X542904Y885857D01*
X541770Y885099D01*
X540636Y885857D01*
X539270Y886129D01*
X537904Y885857D01*
X536770Y885099D01*
X535636Y885857D01*
X534270Y886129D01*
X532904Y885857D01*
X531770Y885099D01*
X530636Y885857D01*
X529270Y886129D01*
X528839Y886043D01*
X527569Y887044D01*
Y887648D01*
X528278Y888709D01*
X528588Y890270D01*
X528278Y891831D01*
X527394Y893154D01*
X526071Y894038D01*
X524510Y894348D01*
X522949Y894038D01*
X521626Y893154D01*
X520742Y891831D01*
X520432Y890270D01*
X520742Y888709D01*
X521292Y887886D01*
X521110Y886738D01*
X519985Y885986D01*
X519270Y886129D01*
X517904Y885857D01*
X516770Y885099D01*
X515636Y885857D01*
X514270Y886129D01*
X513599Y885995D01*
X512329Y886883D01*
Y991873D01*
X524133Y1003677D01*
X524133Y1003677D01*
X524796Y1004669D01*
X525029Y1005840D01*
X525029Y1005840D01*
Y1046480D01*
X524796Y1047651D01*
X524133Y1048643D01*
X524133Y1048643D01*
X521593Y1051183D01*
X520601Y1051846D01*
X519430Y1052079D01*
X519430Y1052079D01*
X474980D01*
X473810Y1051846D01*
X472817Y1051183D01*
X472817Y1051183D01*
X470397Y1048763D01*
X469734Y1047770D01*
X469501Y1046600D01*
X468664Y1045741D01*
X468390Y1045686D01*
X467397Y1045023D01*
X466734Y1044031D01*
X466501Y1042860D01*
Y1041919D01*
X454660D01*
X453489Y1041686D01*
X452497Y1041023D01*
X441963Y1030489D01*
X439362D01*
X439060Y1031634D01*
X439073Y1031759D01*
X441041Y1033269D01*
X442583Y1035278D01*
X443552Y1037619D01*
X443883Y1040130D01*
X443552Y1042641D01*
X442583Y1044982D01*
X441041Y1046991D01*
X439031Y1048533D01*
X436691Y1049502D01*
X434180Y1049833D01*
X429420D01*
X426909Y1049502D01*
X424568Y1048533D01*
X422559Y1046991D01*
X421017Y1044982D01*
X420485Y1043699D01*
X419100D01*
X417734Y1043427D01*
X416577Y1042653D01*
X401112Y1027189D01*
X375920D01*
X374554Y1026917D01*
X373397Y1026143D01*
X371351Y1024097D01*
X370007Y1024429D01*
X369877Y1024649D01*
X369879Y1024660D01*
Y1025160D01*
X364580D01*
X359281D01*
Y1024660D01*
X359475Y1023685D01*
X359993Y1022910D01*
X359475Y1022135D01*
X359281Y1021160D01*
Y1018160D01*
X359475Y1017185D01*
X360028Y1016358D01*
X360855Y1015805D01*
X361830Y1015611D01*
X367330D01*
X368306Y1015805D01*
X368959Y1016241D01*
X370176D01*
X370662Y1015068D01*
X369573Y1013979D01*
X348594D01*
X348074Y1014573D01*
X348028Y1014780D01*
X348242Y1016096D01*
X348632Y1016358D01*
X349185Y1017185D01*
X349379Y1018160D01*
Y1021160D01*
X349185Y1022135D01*
X348667Y1022910D01*
X349185Y1023685D01*
X349379Y1024660D01*
Y1025160D01*
X344080D01*
X338781D01*
Y1024660D01*
X338975Y1023685D01*
X339493Y1022910D01*
X338975Y1022135D01*
X338781Y1021160D01*
Y1018160D01*
X338975Y1017185D01*
X339528Y1016358D01*
X340355Y1015805D01*
X341111Y1015655D01*
Y1013460D01*
X341111Y1013460D01*
X341344Y1012290D01*
X342007Y1011297D01*
X344547Y1008757D01*
X344547Y1008757D01*
X345539Y1008094D01*
X346710Y1007861D01*
X370840D01*
X370840Y1007861D01*
X372010Y1008094D01*
X373003Y1008757D01*
X379727Y1015481D01*
X405130D01*
X405130Y1015481D01*
X406301Y1015714D01*
X407293Y1016377D01*
X415287Y1024371D01*
X424238D01*
X424540Y1023226D01*
X424527Y1023101D01*
X422559Y1021591D01*
X421017Y1019582D01*
X420048Y1017241D01*
X419717Y1014730D01*
X420048Y1012219D01*
X420579Y1010936D01*
X399852Y990209D01*
X396806D01*
X395789Y991479D01*
X395829Y991680D01*
Y994680D01*
X389770D01*
Y996680D01*
X395829D01*
Y999680D01*
X395596Y1000851D01*
X394933Y1001843D01*
X393941Y1002506D01*
X392770Y1002739D01*
X391368D01*
X390868Y1003674D01*
X390814Y1004009D01*
X391178Y1005840D01*
X390790Y1007791D01*
X389685Y1009445D01*
X388031Y1010550D01*
X386080Y1010938D01*
X384129Y1010550D01*
X382475Y1009445D01*
X381370Y1007791D01*
X381285Y1007361D01*
X376662Y1002739D01*
X373472D01*
X373176Y1002937D01*
X371810Y1003209D01*
X368734D01*
X368306Y1003495D01*
X367330Y1003689D01*
X361830D01*
X360855Y1003495D01*
X360028Y1002942D01*
X359475Y1002115D01*
X359281Y1001140D01*
Y999085D01*
X358011Y998167D01*
X357899Y998205D01*
Y998220D01*
X357627Y999586D01*
X356853Y1000743D01*
X355583Y1002013D01*
X354426Y1002787D01*
X353060Y1003059D01*
X348459D01*
X347805Y1003495D01*
X346830Y1003689D01*
X343748D01*
X342883Y1004553D01*
X341726Y1005327D01*
X340360Y1005599D01*
X321310D01*
X319944Y1005327D01*
X318787Y1004553D01*
X317031Y1002798D01*
X315858Y1003284D01*
Y1018343D01*
X316433Y1018727D01*
X317096Y1019719D01*
X317329Y1020890D01*
Y1026022D01*
X318941Y1027635D01*
X320211Y1027109D01*
Y1025890D01*
X332329D01*
Y1028890D01*
X332096Y1030061D01*
X331995Y1030211D01*
X332674Y1031481D01*
X338781D01*
Y1031160D01*
X338975Y1030185D01*
X339493Y1029410D01*
X338975Y1028635D01*
X338781Y1027660D01*
Y1027160D01*
X344080D01*
X349379D01*
Y1027660D01*
X349185Y1028635D01*
X348667Y1029410D01*
X349185Y1030185D01*
X349379Y1031160D01*
Y1034160D01*
X349185Y1035135D01*
X348632Y1035962D01*
X347805Y1036515D01*
X346830Y1036709D01*
X343960D01*
X343096Y1037573D01*
X341938Y1038347D01*
X340573Y1038619D01*
X321310D01*
X319944Y1038347D01*
X318787Y1037573D01*
X317031Y1035818D01*
X315858Y1036304D01*
Y1048823D01*
X316433Y1049207D01*
X317096Y1050200D01*
X317329Y1051370D01*
Y1059370D01*
X317096Y1060540D01*
X316433Y1061533D01*
Y1061907D01*
X317096Y1062899D01*
X317329Y1064070D01*
Y1072070D01*
X317096Y1073241D01*
X316433Y1074233D01*
Y1074607D01*
X317096Y1075600D01*
X317329Y1076770D01*
Y1084770D01*
X317096Y1085940D01*
X316433Y1086933D01*
X315858Y1087317D01*
Y1113279D01*
X320671Y1118092D01*
X356457D01*
Y1117430D01*
X356748Y1115967D01*
X357576Y1114726D01*
X358817Y1113898D01*
X360280Y1113607D01*
X373780D01*
X375243Y1113898D01*
X376484Y1114726D01*
X377312Y1115967D01*
X377603Y1117430D01*
Y1118092D01*
X382910D01*
X386646Y1114356D01*
X388134Y1113361D01*
X389890Y1113012D01*
X411887D01*
X412069Y1112890D01*
X414020Y1112502D01*
X415971Y1112890D01*
X416153Y1113012D01*
X418237D01*
X418419Y1112890D01*
X420370Y1112502D01*
X422321Y1112890D01*
X422503Y1113012D01*
X424587D01*
X424769Y1112890D01*
X426720Y1112502D01*
X428671Y1112890D01*
X428853Y1113012D01*
X430937D01*
X431119Y1112890D01*
X433070Y1112502D01*
X435021Y1112890D01*
X436675Y1113995D01*
X437040Y1114541D01*
X438150D01*
X438150Y1114541D01*
X439320Y1114774D01*
X440313Y1115437D01*
X442853Y1117977D01*
X442853Y1117977D01*
X443516Y1118969D01*
X443749Y1120140D01*
Y1121451D01*
X444218Y1121645D01*
X445680Y1122767D01*
X446802Y1124230D01*
X446998Y1124701D01*
X448721D01*
Y1123760D01*
X448954Y1122589D01*
X449617Y1121597D01*
X450610Y1120934D01*
X451780Y1120701D01*
X457780D01*
X458951Y1120934D01*
X459943Y1121597D01*
X460606Y1122589D01*
X460839Y1123760D01*
Y1131760D01*
X460606Y1132931D01*
X459943Y1133923D01*
X458951Y1134586D01*
X457780Y1134819D01*
X451780D01*
X450610Y1134586D01*
X449617Y1133923D01*
X448954Y1132931D01*
X448721Y1131760D01*
Y1130818D01*
X446998D01*
X446802Y1131290D01*
X445680Y1132752D01*
X444218Y1133874D01*
X442515Y1134579D01*
X440688Y1134820D01*
X438861Y1134579D01*
X437158Y1133874D01*
X435695Y1132752D01*
X434573Y1131290D01*
X433868Y1129587D01*
X433628Y1127760D01*
X433868Y1125932D01*
X434573Y1124230D01*
X435059Y1123597D01*
X434342Y1122445D01*
X433070Y1122698D01*
X431119Y1122310D01*
X430937Y1122188D01*
X428853D01*
X428671Y1122310D01*
X426720Y1122698D01*
X424769Y1122310D01*
X424587Y1122188D01*
X422503D01*
X422321Y1122310D01*
X420370Y1122698D01*
X418419Y1122310D01*
X418237Y1122188D01*
X416153D01*
X415971Y1122310D01*
X414020Y1122698D01*
X412069Y1122310D01*
X411887Y1122188D01*
X391791D01*
X388054Y1125924D01*
X386566Y1126919D01*
X384810Y1127268D01*
X377603D01*
Y1127930D01*
X377312Y1129393D01*
X376484Y1130634D01*
X375243Y1131462D01*
X375276Y1132749D01*
X375509Y1133920D01*
Y1136920D01*
X363391D01*
Y1133920D01*
X363570Y1133024D01*
X363075Y1132115D01*
X362762Y1131753D01*
X361138D01*
X360825Y1132115D01*
X360330Y1133024D01*
X360509Y1133920D01*
Y1141920D01*
X360276Y1143091D01*
X359613Y1144083D01*
X358620Y1144746D01*
X357450Y1144979D01*
X351450D01*
X350280Y1144746D01*
X349413Y1144167D01*
X349102Y1144632D01*
X348275Y1145185D01*
X347300Y1145379D01*
X345800D01*
X344825Y1145185D01*
X344050Y1144667D01*
X343275Y1145185D01*
X342668Y1145306D01*
Y1154430D01*
X342202Y1156771D01*
X342043Y1157009D01*
X342377Y1158732D01*
X342486Y1158804D01*
X342780Y1159244D01*
X344170Y1159061D01*
X346258Y1159336D01*
X348204Y1160142D01*
X349876Y1161424D01*
X351158Y1163095D01*
X351964Y1165042D01*
X352239Y1167130D01*
X351964Y1169218D01*
X351158Y1171164D01*
X349876Y1172836D01*
X348298Y1174046D01*
X348209Y1174750D01*
X348298Y1175454D01*
X349876Y1176664D01*
X351158Y1178335D01*
X351964Y1180282D01*
X352239Y1182370D01*
X351964Y1184458D01*
X351158Y1186404D01*
X349876Y1188076D01*
X348204Y1189358D01*
X346258Y1190164D01*
X344170Y1190439D01*
X342780Y1190256D01*
X342486Y1190696D01*
X340501Y1192022D01*
X338160Y1192487D01*
D02*
G37*
G36*
X440623Y1192800D02*
X430660D01*
Y1182837D01*
X432532Y1183083D01*
X435207Y1184192D01*
X437505Y1185955D01*
X439268Y1188252D01*
X440377Y1190928D01*
X440623Y1192800D01*
D02*
G37*
G36*
X428660D02*
X418697D01*
X418943Y1190928D01*
X420051Y1188252D01*
X421815Y1185955D01*
X424113Y1184192D01*
X426788Y1183083D01*
X428660Y1182837D01*
Y1192800D01*
D02*
G37*
G36*
X1082500Y1209310D02*
X1051480D01*
Y1178290D01*
X1055501Y1178606D01*
X1060399Y1179782D01*
X1065053Y1181710D01*
X1069347Y1184341D01*
X1073177Y1187613D01*
X1076449Y1191443D01*
X1079080Y1195737D01*
X1081008Y1200391D01*
X1082184Y1205289D01*
X1082500Y1209310D01*
D02*
G37*
G36*
X1049480D02*
X1018460D01*
X1018776Y1205289D01*
X1019952Y1200391D01*
X1021880Y1195737D01*
X1024511Y1191443D01*
X1027783Y1187613D01*
X1031613Y1184341D01*
X1035907Y1181710D01*
X1040561Y1179782D01*
X1045459Y1178606D01*
X1049480Y1178290D01*
Y1209310D01*
D02*
G37*
G36*
X292370D02*
X261350D01*
Y1178290D01*
X265371Y1178606D01*
X270269Y1179782D01*
X274923Y1181710D01*
X279217Y1184341D01*
X283047Y1187613D01*
X286319Y1191443D01*
X288950Y1195737D01*
X290878Y1200391D01*
X292054Y1205289D01*
X292370Y1209310D01*
D02*
G37*
G36*
X259350D02*
X228330D01*
X228646Y1205289D01*
X229822Y1200391D01*
X231750Y1195737D01*
X234381Y1191443D01*
X237653Y1187613D01*
X241483Y1184341D01*
X245777Y1181710D01*
X250431Y1179782D01*
X255329Y1178606D01*
X259350Y1178290D01*
Y1209310D01*
D02*
G37*
G36*
X1056100Y1165377D02*
X1042300D01*
Y1151550D01*
X1070795D01*
X1070422Y1154388D01*
X1068940Y1157963D01*
X1066584Y1161034D01*
X1063513Y1163391D01*
X1059937Y1164872D01*
X1056100Y1165377D01*
D02*
G37*
G36*
X776700D02*
X762900D01*
Y1151550D01*
X791395D01*
X791022Y1154388D01*
X789540Y1157963D01*
X787184Y1161034D01*
X784113Y1163391D01*
X780537Y1164872D01*
X776700Y1165377D01*
D02*
G37*
G36*
X760900D02*
X747100D01*
X743263Y1164872D01*
X739687Y1163391D01*
X736616Y1161034D01*
X734260Y1157963D01*
X732778Y1154388D01*
X732405Y1151550D01*
X760900D01*
Y1165377D01*
D02*
G37*
G36*
X372450Y1144979D02*
X370450D01*
Y1138920D01*
X375509D01*
Y1141920D01*
X375276Y1143091D01*
X374613Y1144083D01*
X373620Y1144746D01*
X372450Y1144979D01*
D02*
G37*
G36*
X368450D02*
X366450D01*
X365280Y1144746D01*
X364287Y1144083D01*
X363624Y1143091D01*
X363391Y1141920D01*
Y1138920D01*
X368450D01*
Y1144979D01*
D02*
G37*
G36*
X1070795Y1149550D02*
X1042300D01*
Y1135723D01*
X1056100D01*
X1059937Y1136228D01*
X1063513Y1137710D01*
X1066584Y1140066D01*
X1068940Y1143137D01*
X1070422Y1146713D01*
X1070795Y1149550D01*
D02*
G37*
G36*
X791395Y1149550D02*
X762900D01*
Y1135723D01*
X776700D01*
X780537Y1136228D01*
X784113Y1137710D01*
X787184Y1140066D01*
X789540Y1143137D01*
X791022Y1146713D01*
X791395Y1149550D01*
D02*
G37*
G36*
X760900D02*
X732405D01*
X732778Y1146713D01*
X734260Y1143137D01*
X736616Y1140066D01*
X739687Y1137710D01*
X743263Y1136228D01*
X747100Y1135723D01*
X760900D01*
Y1149550D01*
D02*
G37*
G36*
X489530Y1134819D02*
X483530D01*
X482360Y1134586D01*
X481367Y1133923D01*
X480704Y1132931D01*
X480471Y1131760D01*
Y1131329D01*
X475839D01*
Y1131760D01*
X475606Y1132931D01*
X474943Y1133923D01*
X473951Y1134586D01*
X472780Y1134819D01*
X466780D01*
X465610Y1134586D01*
X464617Y1133923D01*
X463954Y1132931D01*
X463721Y1131760D01*
Y1123760D01*
X463954Y1122589D01*
X464617Y1121597D01*
X465610Y1120934D01*
X466780Y1120701D01*
X472780D01*
X473951Y1120934D01*
X474943Y1121597D01*
X475606Y1122589D01*
X475839Y1123760D01*
Y1124191D01*
X480471D01*
Y1123760D01*
X480704Y1122589D01*
X481367Y1121597D01*
X482360Y1120934D01*
X483530Y1120701D01*
X489530D01*
X490700Y1120934D01*
X491693Y1121597D01*
X492356Y1122589D01*
X492589Y1123760D01*
Y1131760D01*
X492356Y1132931D01*
X491693Y1133923D01*
X490700Y1134586D01*
X489530Y1134819D01*
D02*
G37*
G36*
X267080Y1162105D02*
X264041Y1161806D01*
X261120Y1160919D01*
X258427Y1159480D01*
X256067Y1157543D01*
X254130Y1155183D01*
X252690Y1152490D01*
X251804Y1149568D01*
X251505Y1146530D01*
X251804Y1143492D01*
X252690Y1140570D01*
X254130Y1137877D01*
X256067Y1135517D01*
X258427Y1133580D01*
X261120Y1132141D01*
X264041Y1131254D01*
X267080Y1130955D01*
X270118Y1131254D01*
X273040Y1132141D01*
X275733Y1133580D01*
X278093Y1135517D01*
X280030Y1137877D01*
X281469Y1140570D01*
X282356Y1143492D01*
X282655Y1146530D01*
X282356Y1149568D01*
X281469Y1152490D01*
X280030Y1155183D01*
X278093Y1157543D01*
X275733Y1159480D01*
X273040Y1160919D01*
X270118Y1161806D01*
X267080Y1162105D01*
D02*
G37*
G36*
X504530Y1134819D02*
X502530D01*
Y1128760D01*
X507589D01*
Y1131760D01*
X507356Y1132931D01*
X506693Y1133923D01*
X505700Y1134586D01*
X504530Y1134819D01*
D02*
G37*
G36*
X500530D02*
X498530D01*
X497360Y1134586D01*
X496367Y1133923D01*
X495704Y1132931D01*
X495471Y1131760D01*
Y1128760D01*
X500530D01*
Y1134819D01*
D02*
G37*
G36*
X507589Y1126760D02*
X502530D01*
Y1120701D01*
X504530D01*
X505700Y1120934D01*
X506693Y1121597D01*
X507356Y1122589D01*
X507589Y1123760D01*
Y1126760D01*
D02*
G37*
G36*
X500530D02*
X495471D01*
Y1123760D01*
X495704Y1122589D01*
X496367Y1121597D01*
X497360Y1120934D01*
X498530Y1120701D01*
X500530D01*
Y1126760D01*
D02*
G37*
G36*
X272330Y1124093D02*
X268080D01*
Y1112530D01*
X279642D01*
Y1116780D01*
X279393Y1118673D01*
X278663Y1120436D01*
X277501Y1121951D01*
X275986Y1123113D01*
X274223Y1123843D01*
X272330Y1124093D01*
D02*
G37*
G36*
X266080D02*
X261830D01*
X259937Y1123843D01*
X258174Y1123113D01*
X256659Y1121951D01*
X255497Y1120436D01*
X254767Y1118673D01*
X254517Y1116780D01*
Y1112530D01*
X266080D01*
Y1124093D01*
D02*
G37*
G36*
X736600Y1127943D02*
X733923Y1127591D01*
X731428Y1126558D01*
X729286Y1124914D01*
X727642Y1122772D01*
X726609Y1120277D01*
X726256Y1117600D01*
X726609Y1114923D01*
X727642Y1112428D01*
X729286Y1110286D01*
X731428Y1108642D01*
X733923Y1107609D01*
X736600Y1107256D01*
X739277Y1107609D01*
X741772Y1108642D01*
X743914Y1110286D01*
X745558Y1112428D01*
X746591Y1114923D01*
X746944Y1117600D01*
X746591Y1120277D01*
X745558Y1122772D01*
X743914Y1124914D01*
X741772Y1126558D01*
X739277Y1127591D01*
X736600Y1127943D01*
D02*
G37*
G36*
X711200D02*
X708523Y1127591D01*
X706028Y1126558D01*
X703886Y1124914D01*
X702242Y1122772D01*
X701209Y1120277D01*
X700856Y1117600D01*
X701209Y1114923D01*
X702242Y1112428D01*
X703886Y1110286D01*
X706028Y1108642D01*
X708523Y1107609D01*
X711200Y1107256D01*
X713877Y1107609D01*
X716372Y1108642D01*
X718514Y1110286D01*
X720158Y1112428D01*
X721191Y1114923D01*
X721544Y1117600D01*
X721191Y1120277D01*
X720158Y1122772D01*
X718514Y1124914D01*
X716372Y1126558D01*
X713877Y1127591D01*
X711200Y1127943D01*
D02*
G37*
G36*
X685800D02*
X683123Y1127591D01*
X680628Y1126558D01*
X678486Y1124914D01*
X676842Y1122772D01*
X675809Y1120277D01*
X675456Y1117600D01*
X675809Y1114923D01*
X676842Y1112428D01*
X678486Y1110286D01*
X680628Y1108642D01*
X683123Y1107609D01*
X685800Y1107256D01*
X688477Y1107609D01*
X690972Y1108642D01*
X693114Y1110286D01*
X694758Y1112428D01*
X695791Y1114923D01*
X696143Y1117600D01*
X695791Y1120277D01*
X694758Y1122772D01*
X693114Y1124914D01*
X690972Y1126558D01*
X688477Y1127591D01*
X685800Y1127943D01*
D02*
G37*
G36*
X660400D02*
X657723Y1127591D01*
X655228Y1126558D01*
X653086Y1124914D01*
X651442Y1122772D01*
X650409Y1120277D01*
X650057Y1117600D01*
X650409Y1114923D01*
X651442Y1112428D01*
X653086Y1110286D01*
X655228Y1108642D01*
X657723Y1107609D01*
X660400Y1107256D01*
X663077Y1107609D01*
X665572Y1108642D01*
X667714Y1110286D01*
X669358Y1112428D01*
X670391Y1114923D01*
X670743Y1117600D01*
X670391Y1120277D01*
X669358Y1122772D01*
X667714Y1124914D01*
X665572Y1126558D01*
X663077Y1127591D01*
X660400Y1127943D01*
D02*
G37*
G36*
X347300Y1102879D02*
X345800D01*
X344825Y1102685D01*
X344050Y1102167D01*
X343275Y1102685D01*
X342300Y1102879D01*
X340800D01*
X339825Y1102685D01*
X339050Y1102167D01*
X338275Y1102685D01*
X337300Y1102879D01*
X335800D01*
X334825Y1102685D01*
X334050Y1102167D01*
X333275Y1102685D01*
X332550Y1102829D01*
Y1095080D01*
X330550D01*
Y1102829D01*
X329825Y1102685D01*
X329050Y1102167D01*
X328275Y1102685D01*
X327550Y1102829D01*
Y1095080D01*
X326550D01*
Y1094080D01*
X323251D01*
Y1089830D01*
X323396Y1089099D01*
X323359Y1088726D01*
X322681Y1087712D01*
X322099Y1087596D01*
X321107Y1086933D01*
X320444Y1085940D01*
X320211Y1084770D01*
Y1076770D01*
X320444Y1075600D01*
X321107Y1074607D01*
Y1074233D01*
X320444Y1073241D01*
X320211Y1072070D01*
Y1064070D01*
X320444Y1062899D01*
X321107Y1061907D01*
Y1061533D01*
X320444Y1060540D01*
X320211Y1059370D01*
Y1051370D01*
X320444Y1050200D01*
X321107Y1049207D01*
X322099Y1048544D01*
X323270Y1048311D01*
X329270D01*
X330440Y1048544D01*
X331433Y1049207D01*
X332096Y1050200D01*
X332329Y1051370D01*
Y1052311D01*
X335280D01*
X335280Y1052311D01*
X336451Y1052544D01*
X337443Y1053207D01*
X348873Y1064637D01*
X349536Y1065630D01*
X349769Y1066800D01*
Y1080688D01*
X350478Y1081749D01*
X350788Y1083310D01*
X350478Y1084871D01*
X349769Y1085932D01*
Y1089427D01*
X349849Y1089830D01*
Y1100330D01*
X349655Y1101305D01*
X349102Y1102132D01*
X348275Y1102685D01*
X347300Y1102879D01*
D02*
G37*
G36*
X488260Y1104339D02*
X482260D01*
X481090Y1104106D01*
X480097Y1103443D01*
X479434Y1102450D01*
X479201Y1101280D01*
Y1100849D01*
X475839D01*
Y1101280D01*
X475606Y1102450D01*
X474943Y1103443D01*
X473951Y1104106D01*
X472780Y1104339D01*
X466780D01*
X465610Y1104106D01*
X464617Y1103443D01*
X463954Y1102450D01*
X463721Y1101280D01*
Y1093280D01*
X463954Y1092110D01*
X464617Y1091117D01*
X465610Y1090454D01*
X466780Y1090221D01*
X472780D01*
X473951Y1090454D01*
X474943Y1091117D01*
X475606Y1092110D01*
X475839Y1093280D01*
Y1093711D01*
X479201D01*
Y1093280D01*
X479434Y1092110D01*
X480097Y1091117D01*
X481090Y1090454D01*
X482260Y1090221D01*
X488260D01*
X489431Y1090454D01*
X490423Y1091117D01*
X491086Y1092110D01*
X491319Y1093280D01*
Y1101280D01*
X491086Y1102450D01*
X490423Y1103443D01*
X489431Y1104106D01*
X488260Y1104339D01*
D02*
G37*
G36*
X373780Y1108893D02*
X368030D01*
Y1100820D01*
X377603D01*
Y1105070D01*
X377312Y1106533D01*
X376484Y1107774D01*
X375243Y1108602D01*
X373780Y1108893D01*
D02*
G37*
G36*
X366030D02*
X360280D01*
X358817Y1108602D01*
X357576Y1107774D01*
X356748Y1106533D01*
X356457Y1105070D01*
Y1100820D01*
X366030D01*
Y1108893D01*
D02*
G37*
G36*
X279642Y1110530D02*
X268080D01*
Y1098967D01*
X272330D01*
X274223Y1099217D01*
X275986Y1099947D01*
X277501Y1101109D01*
X278663Y1102624D01*
X279393Y1104387D01*
X279642Y1106280D01*
Y1110530D01*
D02*
G37*
G36*
X266080D02*
X254517D01*
Y1106280D01*
X254767Y1104387D01*
X255497Y1102624D01*
X256659Y1101109D01*
X258174Y1099947D01*
X259937Y1099217D01*
X261830Y1098967D01*
X266080D01*
Y1110530D01*
D02*
G37*
G36*
X503260Y1104339D02*
X501260D01*
Y1098280D01*
X506319D01*
Y1101280D01*
X506086Y1102450D01*
X505423Y1103443D01*
X504431Y1104106D01*
X503260Y1104339D01*
D02*
G37*
G36*
X499260D02*
X497260D01*
X496090Y1104106D01*
X495097Y1103443D01*
X494434Y1102450D01*
X494201Y1101280D01*
Y1098280D01*
X499260D01*
Y1104339D01*
D02*
G37*
G36*
X325550Y1102829D02*
X324825Y1102685D01*
X323998Y1102132D01*
X323445Y1101305D01*
X323251Y1100330D01*
Y1096080D01*
X325550D01*
Y1102829D01*
D02*
G37*
G36*
X377603Y1098820D02*
X368030D01*
Y1090747D01*
X373780D01*
X375243Y1091038D01*
X376484Y1091866D01*
X377312Y1093107D01*
X377603Y1094570D01*
Y1098820D01*
D02*
G37*
G36*
X366030D02*
X356457D01*
Y1094570D01*
X356748Y1093107D01*
X357576Y1091866D01*
X358817Y1091038D01*
X360280Y1090747D01*
X366030D01*
Y1098820D01*
D02*
G37*
G36*
X506319Y1096280D02*
X501260D01*
Y1090221D01*
X503260D01*
X504431Y1090454D01*
X505423Y1091117D01*
X506086Y1092110D01*
X506319Y1093280D01*
Y1096280D01*
D02*
G37*
G36*
X499260D02*
X494201D01*
Y1093280D01*
X494434Y1092110D01*
X495097Y1091117D01*
X496090Y1090454D01*
X497260Y1090221D01*
X499260D01*
Y1096280D01*
D02*
G37*
G36*
X736600Y1102543D02*
X733923Y1102191D01*
X731428Y1101158D01*
X729286Y1099514D01*
X727642Y1097372D01*
X726609Y1094877D01*
X726256Y1092200D01*
X726609Y1089523D01*
X727642Y1087028D01*
X729286Y1084886D01*
X731428Y1083242D01*
X733923Y1082209D01*
X736600Y1081857D01*
X739277Y1082209D01*
X741772Y1083242D01*
X743914Y1084886D01*
X745558Y1087028D01*
X746591Y1089523D01*
X746944Y1092200D01*
X746591Y1094877D01*
X745558Y1097372D01*
X743914Y1099514D01*
X741772Y1101158D01*
X739277Y1102191D01*
X736600Y1102543D01*
D02*
G37*
G36*
X711200D02*
X708523Y1102191D01*
X706028Y1101158D01*
X703886Y1099514D01*
X702242Y1097372D01*
X701209Y1094877D01*
X700856Y1092200D01*
X701209Y1089523D01*
X702242Y1087028D01*
X703886Y1084886D01*
X706028Y1083242D01*
X708523Y1082209D01*
X711200Y1081857D01*
X713877Y1082209D01*
X716372Y1083242D01*
X718514Y1084886D01*
X720158Y1087028D01*
X721191Y1089523D01*
X721544Y1092200D01*
X721191Y1094877D01*
X720158Y1097372D01*
X718514Y1099514D01*
X716372Y1101158D01*
X713877Y1102191D01*
X711200Y1102543D01*
D02*
G37*
G36*
X685800D02*
X683123Y1102191D01*
X680628Y1101158D01*
X678486Y1099514D01*
X676842Y1097372D01*
X675809Y1094877D01*
X675456Y1092200D01*
X675809Y1089523D01*
X676842Y1087028D01*
X678486Y1084886D01*
X680628Y1083242D01*
X683123Y1082209D01*
X685800Y1081857D01*
X688477Y1082209D01*
X690972Y1083242D01*
X693114Y1084886D01*
X694758Y1087028D01*
X695791Y1089523D01*
X696143Y1092200D01*
X695791Y1094877D01*
X694758Y1097372D01*
X693114Y1099514D01*
X690972Y1101158D01*
X688477Y1102191D01*
X685800Y1102543D01*
D02*
G37*
G36*
X660400D02*
X657723Y1102191D01*
X655228Y1101158D01*
X653086Y1099514D01*
X651442Y1097372D01*
X650409Y1094877D01*
X650057Y1092200D01*
X650409Y1089523D01*
X651442Y1087028D01*
X653086Y1084886D01*
X655228Y1083242D01*
X657723Y1082209D01*
X660400Y1081857D01*
X663077Y1082209D01*
X665572Y1083242D01*
X667714Y1084886D01*
X669358Y1087028D01*
X670391Y1089523D01*
X670743Y1092200D01*
X670391Y1094877D01*
X669358Y1097372D01*
X667714Y1099514D01*
X665572Y1101158D01*
X663077Y1102191D01*
X660400Y1102543D01*
D02*
G37*
G36*
X440688Y1104340D02*
X438861Y1104100D01*
X437158Y1103394D01*
X435695Y1102272D01*
X434573Y1100810D01*
X433868Y1099107D01*
X433628Y1097280D01*
X433868Y1095452D01*
X434573Y1093749D01*
X435695Y1092287D01*
X437158Y1091165D01*
X438861Y1090460D01*
X440688Y1090219D01*
X442515Y1090460D01*
X444218Y1091165D01*
X445680Y1092287D01*
X446802Y1093749D01*
X446998Y1094221D01*
X448721D01*
Y1093280D01*
X448954Y1092110D01*
X449617Y1091117D01*
X450610Y1090454D01*
X451601Y1090257D01*
Y1085850D01*
X451601Y1085850D01*
X451834Y1084679D01*
X452497Y1083687D01*
X453767Y1082417D01*
X453767Y1082417D01*
X454759Y1081754D01*
X455930Y1081521D01*
X455930Y1081521D01*
X487598D01*
X488659Y1080812D01*
X490220Y1080502D01*
X491781Y1080812D01*
X493104Y1081696D01*
X493988Y1083019D01*
X494298Y1084580D01*
X493988Y1086141D01*
X493104Y1087464D01*
X491781Y1088348D01*
X490220Y1088658D01*
X488659Y1088348D01*
X487598Y1087639D01*
X457719D01*
Y1090221D01*
X457780D01*
X458951Y1090454D01*
X459943Y1091117D01*
X460606Y1092110D01*
X460839Y1093280D01*
Y1101280D01*
X460606Y1102450D01*
X459943Y1103443D01*
X458951Y1104106D01*
X457780Y1104339D01*
X451780D01*
X450610Y1104106D01*
X449617Y1103443D01*
X448954Y1102450D01*
X448721Y1101280D01*
Y1100339D01*
X446997D01*
X446802Y1100810D01*
X445680Y1102272D01*
X444218Y1103394D01*
X442515Y1104100D01*
X440688Y1104340D01*
D02*
G37*
G36*
X737600Y1077012D02*
Y1067800D01*
X746812D01*
X746591Y1069477D01*
X745558Y1071972D01*
X743914Y1074114D01*
X741772Y1075758D01*
X739277Y1076791D01*
X737600Y1077012D01*
D02*
G37*
G36*
X735600D02*
X733923Y1076791D01*
X731428Y1075758D01*
X729286Y1074114D01*
X727642Y1071972D01*
X726609Y1069477D01*
X726388Y1067800D01*
X735600D01*
Y1077012D01*
D02*
G37*
G36*
X746812Y1065800D02*
X737600D01*
Y1056588D01*
X739277Y1056809D01*
X741772Y1057842D01*
X743914Y1059486D01*
X745558Y1061628D01*
X746591Y1064123D01*
X746812Y1065800D01*
D02*
G37*
G36*
X735600D02*
X726388D01*
X726609Y1064123D01*
X727642Y1061628D01*
X729286Y1059486D01*
X731428Y1057842D01*
X733923Y1056809D01*
X735600Y1056588D01*
Y1065800D01*
D02*
G37*
G36*
X711200Y1077143D02*
X708523Y1076791D01*
X706028Y1075758D01*
X703886Y1074114D01*
X702242Y1071972D01*
X701209Y1069477D01*
X700856Y1066800D01*
X701209Y1064123D01*
X702242Y1061628D01*
X703886Y1059486D01*
X706028Y1057842D01*
X708523Y1056809D01*
X711200Y1056457D01*
X713877Y1056809D01*
X716372Y1057842D01*
X718514Y1059486D01*
X720158Y1061628D01*
X721191Y1064123D01*
X721544Y1066800D01*
X721191Y1069477D01*
X720158Y1071972D01*
X718514Y1074114D01*
X716372Y1075758D01*
X713877Y1076791D01*
X711200Y1077143D01*
D02*
G37*
G36*
X685800D02*
X683123Y1076791D01*
X680628Y1075758D01*
X678486Y1074114D01*
X676842Y1071972D01*
X675809Y1069477D01*
X675456Y1066800D01*
X675809Y1064123D01*
X676842Y1061628D01*
X678486Y1059486D01*
X680628Y1057842D01*
X683123Y1056809D01*
X685800Y1056457D01*
X688477Y1056809D01*
X690972Y1057842D01*
X693114Y1059486D01*
X694758Y1061628D01*
X695791Y1064123D01*
X696143Y1066800D01*
X695791Y1069477D01*
X694758Y1071972D01*
X693114Y1074114D01*
X690972Y1075758D01*
X688477Y1076791D01*
X685800Y1077143D01*
D02*
G37*
G36*
X660400D02*
X657723Y1076791D01*
X655228Y1075758D01*
X653086Y1074114D01*
X651442Y1071972D01*
X650409Y1069477D01*
X650057Y1066800D01*
X650409Y1064123D01*
X651442Y1061628D01*
X653086Y1059486D01*
X655228Y1057842D01*
X657723Y1056809D01*
X660400Y1056457D01*
X663077Y1056809D01*
X665572Y1057842D01*
X667714Y1059486D01*
X669358Y1061628D01*
X670391Y1064123D01*
X670743Y1066800D01*
X670391Y1069477D01*
X669358Y1071972D01*
X667714Y1074114D01*
X665572Y1075758D01*
X663077Y1076791D01*
X660400Y1077143D01*
D02*
G37*
G36*
X440688Y1075616D02*
X438077Y1075273D01*
X435645Y1074265D01*
X433556Y1072662D01*
X432777Y1071647D01*
X367030D01*
X364689Y1071182D01*
X362704Y1069856D01*
X357575Y1064727D01*
X355880Y1064025D01*
X354418Y1062902D01*
X353296Y1061440D01*
X352590Y1059737D01*
X352350Y1057910D01*
X352590Y1056083D01*
X353296Y1054380D01*
X354418Y1052918D01*
X355880Y1051796D01*
X357583Y1051090D01*
X359410Y1050850D01*
X361237Y1051090D01*
X362940Y1051796D01*
X364402Y1052918D01*
X365524Y1054380D01*
X366227Y1056075D01*
X369564Y1059413D01*
X375924D01*
X376309Y1058142D01*
X375937Y1057893D01*
X372247Y1054203D01*
X371473Y1053046D01*
X371201Y1051680D01*
Y1049616D01*
X370600Y1049496D01*
X369607Y1048833D01*
X368944Y1047840D01*
X368711Y1046670D01*
Y1038670D01*
X368927Y1037588D01*
X368774Y1037324D01*
X368039Y1036568D01*
X367330Y1036709D01*
X361830D01*
X360855Y1036515D01*
X360028Y1035962D01*
X359475Y1035135D01*
X359281Y1034160D01*
Y1031160D01*
X359475Y1030185D01*
X359993Y1029410D01*
X359475Y1028635D01*
X359281Y1027660D01*
Y1027160D01*
X364580D01*
X369879D01*
Y1027660D01*
X369847Y1027821D01*
X370791Y1029091D01*
X372260D01*
X373626Y1029363D01*
X374783Y1030137D01*
X377173Y1032527D01*
X377947Y1033684D01*
X378219Y1035050D01*
Y1035701D01*
X378941Y1035844D01*
X379933Y1036507D01*
X380596Y1037499D01*
X380829Y1038670D01*
Y1046670D01*
X380596Y1047840D01*
X379933Y1048833D01*
X379231Y1049302D01*
X378933Y1050397D01*
X378930Y1050793D01*
X379938Y1051801D01*
X383721D01*
X383745Y1051765D01*
X385314Y1050717D01*
X385414Y1050290D01*
X385403Y1049364D01*
X384607Y1048833D01*
X383944Y1047840D01*
X383711Y1046670D01*
Y1043670D01*
X395829D01*
Y1046670D01*
X395596Y1047840D01*
X394933Y1048833D01*
X393941Y1049496D01*
X392770Y1049729D01*
X390193D01*
X389808Y1050999D01*
X390955Y1051765D01*
X392060Y1053419D01*
X392448Y1055370D01*
X392060Y1057321D01*
X391511Y1058142D01*
X392190Y1059413D01*
X432777D01*
X433556Y1058398D01*
X435645Y1056795D01*
X438077Y1055787D01*
X440688Y1055444D01*
X443298Y1055787D01*
X445731Y1056795D01*
X447820Y1058398D01*
X449423Y1060487D01*
X450430Y1062919D01*
X450774Y1065530D01*
X450430Y1068140D01*
X449423Y1070573D01*
X447820Y1072662D01*
X445731Y1074265D01*
X443298Y1075273D01*
X440688Y1075616D01*
D02*
G37*
G36*
X267080Y1073635D02*
X264041Y1073336D01*
X261120Y1072449D01*
X258427Y1071010D01*
X256067Y1069073D01*
X254130Y1066713D01*
X252690Y1064020D01*
X251804Y1061099D01*
X251505Y1058060D01*
X251804Y1055022D01*
X252690Y1052100D01*
X254130Y1049407D01*
X256067Y1047047D01*
X258427Y1045110D01*
X261120Y1043671D01*
X264041Y1042784D01*
X267080Y1042485D01*
X270118Y1042784D01*
X273040Y1043671D01*
X275733Y1045110D01*
X278093Y1047047D01*
X280030Y1049407D01*
X281469Y1052100D01*
X282356Y1055022D01*
X282655Y1058060D01*
X282356Y1061099D01*
X281469Y1064020D01*
X280030Y1066713D01*
X278093Y1069073D01*
X275733Y1071010D01*
X273040Y1072449D01*
X270118Y1073336D01*
X267080Y1073635D01*
D02*
G37*
G36*
X395829Y1041670D02*
X390770D01*
Y1035611D01*
X392770D01*
X393941Y1035844D01*
X394933Y1036507D01*
X395596Y1037499D01*
X395829Y1038670D01*
Y1041670D01*
D02*
G37*
G36*
X388770D02*
X383711D01*
Y1038670D01*
X383944Y1037499D01*
X384607Y1036507D01*
X385600Y1035844D01*
X386770Y1035611D01*
X388770D01*
Y1041670D01*
D02*
G37*
G36*
X736600Y1051743D02*
X733923Y1051391D01*
X731428Y1050358D01*
X729286Y1048714D01*
X727642Y1046572D01*
X726609Y1044077D01*
X726256Y1041400D01*
X726609Y1038723D01*
X727642Y1036228D01*
X729286Y1034086D01*
X731428Y1032442D01*
X733923Y1031409D01*
X736600Y1031057D01*
X739277Y1031409D01*
X741772Y1032442D01*
X743914Y1034086D01*
X745558Y1036228D01*
X746591Y1038723D01*
X746944Y1041400D01*
X746591Y1044077D01*
X745558Y1046572D01*
X743914Y1048714D01*
X741772Y1050358D01*
X739277Y1051391D01*
X736600Y1051743D01*
D02*
G37*
G36*
X711200D02*
X708523Y1051391D01*
X706028Y1050358D01*
X703886Y1048714D01*
X702242Y1046572D01*
X701209Y1044077D01*
X700856Y1041400D01*
X701209Y1038723D01*
X702242Y1036228D01*
X703886Y1034086D01*
X706028Y1032442D01*
X708523Y1031409D01*
X711200Y1031057D01*
X713877Y1031409D01*
X716372Y1032442D01*
X718514Y1034086D01*
X720158Y1036228D01*
X721191Y1038723D01*
X721544Y1041400D01*
X721191Y1044077D01*
X720158Y1046572D01*
X718514Y1048714D01*
X716372Y1050358D01*
X713877Y1051391D01*
X711200Y1051743D01*
D02*
G37*
G36*
X685800D02*
X683123Y1051391D01*
X680628Y1050358D01*
X678486Y1048714D01*
X676842Y1046572D01*
X675809Y1044077D01*
X675456Y1041400D01*
X675809Y1038723D01*
X676842Y1036228D01*
X678486Y1034086D01*
X680628Y1032442D01*
X683123Y1031409D01*
X685800Y1031057D01*
X688477Y1031409D01*
X690972Y1032442D01*
X693114Y1034086D01*
X694758Y1036228D01*
X695791Y1038723D01*
X696143Y1041400D01*
X695791Y1044077D01*
X694758Y1046572D01*
X693114Y1048714D01*
X690972Y1050358D01*
X688477Y1051391D01*
X685800Y1051743D01*
D02*
G37*
G36*
X660400D02*
X657723Y1051391D01*
X655228Y1050358D01*
X653086Y1048714D01*
X651442Y1046572D01*
X650409Y1044077D01*
X650057Y1041400D01*
X650409Y1038723D01*
X651442Y1036228D01*
X653086Y1034086D01*
X655228Y1032442D01*
X657723Y1031409D01*
X660400Y1031057D01*
X663077Y1031409D01*
X665572Y1032442D01*
X667714Y1034086D01*
X669358Y1036228D01*
X670391Y1038723D01*
X670743Y1041400D01*
X670391Y1044077D01*
X669358Y1046572D01*
X667714Y1048714D01*
X665572Y1050358D01*
X663077Y1051391D01*
X660400Y1051743D01*
D02*
G37*
G36*
X635000D02*
X632323Y1051391D01*
X629828Y1050358D01*
X627686Y1048714D01*
X626042Y1046572D01*
X625009Y1044077D01*
X624656Y1041400D01*
X625009Y1038723D01*
X626042Y1036228D01*
X627686Y1034086D01*
X629828Y1032442D01*
X632323Y1031409D01*
X635000Y1031057D01*
X637677Y1031409D01*
X640172Y1032442D01*
X642314Y1034086D01*
X643958Y1036228D01*
X644991Y1038723D01*
X645343Y1041400D01*
X644991Y1044077D01*
X643958Y1046572D01*
X642314Y1048714D01*
X640172Y1050358D01*
X637677Y1051391D01*
X635000Y1051743D01*
D02*
G37*
G36*
X332329Y1023890D02*
X327270D01*
Y1017831D01*
X329270D01*
X330440Y1018064D01*
X331433Y1018727D01*
X332096Y1019719D01*
X332329Y1020890D01*
Y1023890D01*
D02*
G37*
G36*
X325270D02*
X320211D01*
Y1020890D01*
X320444Y1019719D01*
X321107Y1018727D01*
X322099Y1018064D01*
X323270Y1017831D01*
X325270D01*
Y1023890D01*
D02*
G37*
G36*
X267080Y1038635D02*
X264041Y1038336D01*
X261120Y1037449D01*
X258427Y1036010D01*
X256067Y1034073D01*
X254130Y1031713D01*
X252690Y1029020D01*
X251804Y1026099D01*
X251505Y1023060D01*
X251804Y1020022D01*
X252690Y1017100D01*
X254130Y1014407D01*
X256067Y1012047D01*
X258427Y1010110D01*
X261120Y1008671D01*
X264041Y1007784D01*
X267080Y1007485D01*
X270118Y1007784D01*
X273040Y1008671D01*
X275733Y1010110D01*
X278093Y1012047D01*
X280030Y1014407D01*
X281469Y1017100D01*
X282356Y1020022D01*
X282655Y1023060D01*
X282356Y1026099D01*
X281469Y1029020D01*
X280030Y1031713D01*
X278093Y1034073D01*
X275733Y1036010D01*
X273040Y1037449D01*
X270118Y1038336D01*
X267080Y1038635D01*
D02*
G37*
G36*
X736600Y1026344D02*
X733923Y1025991D01*
X731428Y1024958D01*
X729286Y1023314D01*
X727642Y1021172D01*
X726609Y1018677D01*
X726256Y1016000D01*
X726609Y1013323D01*
X727642Y1010828D01*
X729286Y1008686D01*
X731428Y1007042D01*
X733923Y1006009D01*
X736600Y1005657D01*
X739277Y1006009D01*
X741772Y1007042D01*
X743914Y1008686D01*
X745558Y1010828D01*
X746591Y1013323D01*
X746944Y1016000D01*
X746591Y1018677D01*
X745558Y1021172D01*
X743914Y1023314D01*
X741772Y1024958D01*
X739277Y1025991D01*
X736600Y1026344D01*
D02*
G37*
G36*
X711200D02*
X708523Y1025991D01*
X706028Y1024958D01*
X703886Y1023314D01*
X702242Y1021172D01*
X701209Y1018677D01*
X700856Y1016000D01*
X701209Y1013323D01*
X702242Y1010828D01*
X703886Y1008686D01*
X706028Y1007042D01*
X708523Y1006009D01*
X711200Y1005657D01*
X713877Y1006009D01*
X716372Y1007042D01*
X718514Y1008686D01*
X720158Y1010828D01*
X721191Y1013323D01*
X721544Y1016000D01*
X721191Y1018677D01*
X720158Y1021172D01*
X718514Y1023314D01*
X716372Y1024958D01*
X713877Y1025991D01*
X711200Y1026344D01*
D02*
G37*
G36*
X685800D02*
X683123Y1025991D01*
X680628Y1024958D01*
X678486Y1023314D01*
X676842Y1021172D01*
X675809Y1018677D01*
X675456Y1016000D01*
X675809Y1013323D01*
X676842Y1010828D01*
X678486Y1008686D01*
X680628Y1007042D01*
X683123Y1006009D01*
X685800Y1005657D01*
X688477Y1006009D01*
X690972Y1007042D01*
X693114Y1008686D01*
X694758Y1010828D01*
X695791Y1013323D01*
X696143Y1016000D01*
X695791Y1018677D01*
X694758Y1021172D01*
X693114Y1023314D01*
X690972Y1024958D01*
X688477Y1025991D01*
X685800Y1026344D01*
D02*
G37*
G36*
X660400D02*
X657723Y1025991D01*
X655228Y1024958D01*
X653086Y1023314D01*
X651442Y1021172D01*
X650409Y1018677D01*
X650057Y1016000D01*
X650409Y1013323D01*
X651442Y1010828D01*
X653086Y1008686D01*
X655228Y1007042D01*
X657723Y1006009D01*
X660400Y1005657D01*
X663077Y1006009D01*
X665572Y1007042D01*
X667714Y1008686D01*
X669358Y1010828D01*
X670391Y1013323D01*
X670743Y1016000D01*
X670391Y1018677D01*
X669358Y1021172D01*
X667714Y1023314D01*
X665572Y1024958D01*
X663077Y1025991D01*
X660400Y1026344D01*
D02*
G37*
G36*
X635000D02*
X632323Y1025991D01*
X629828Y1024958D01*
X627686Y1023314D01*
X626042Y1021172D01*
X625009Y1018677D01*
X624656Y1016000D01*
X625009Y1013323D01*
X626042Y1010828D01*
X627686Y1008686D01*
X629828Y1007042D01*
X632323Y1006009D01*
X635000Y1005657D01*
X637677Y1006009D01*
X640172Y1007042D01*
X642314Y1008686D01*
X643958Y1010828D01*
X644991Y1013323D01*
X645343Y1016000D01*
X644991Y1018677D01*
X643958Y1021172D01*
X642314Y1023314D01*
X640172Y1024958D01*
X637677Y1025991D01*
X635000Y1026344D01*
D02*
G37*
G36*
X578850Y1007185D02*
Y998230D01*
X587805D01*
X587593Y999840D01*
X586585Y1002273D01*
X584982Y1004362D01*
X582893Y1005965D01*
X580461Y1006973D01*
X578850Y1007185D01*
D02*
G37*
G36*
X576850D02*
X575239Y1006973D01*
X572807Y1005965D01*
X570718Y1004362D01*
X569115Y1002273D01*
X568107Y999840D01*
X567895Y998230D01*
X576850D01*
Y1007185D01*
D02*
G37*
G36*
Y996230D02*
X567895D01*
X568107Y994620D01*
X569115Y992187D01*
X570718Y990098D01*
X572807Y988495D01*
X575239Y987487D01*
X576850Y987275D01*
Y996230D01*
D02*
G37*
G36*
X587805D02*
X578850D01*
Y987275D01*
X580461Y987487D01*
X582893Y988495D01*
X584982Y990098D01*
X586585Y992187D01*
X587593Y994620D01*
X587805Y996230D01*
D02*
G37*
G36*
X736600Y1000944D02*
X733923Y1000591D01*
X731428Y999558D01*
X729286Y997914D01*
X727642Y995772D01*
X726609Y993277D01*
X726256Y990600D01*
X726609Y987923D01*
X727642Y985428D01*
X729286Y983286D01*
X731428Y981642D01*
X733923Y980609D01*
X736600Y980257D01*
X739277Y980609D01*
X741772Y981642D01*
X743914Y983286D01*
X745558Y985428D01*
X746591Y987923D01*
X746944Y990600D01*
X746591Y993277D01*
X745558Y995772D01*
X743914Y997914D01*
X741772Y999558D01*
X739277Y1000591D01*
X736600Y1000944D01*
D02*
G37*
G36*
X711200D02*
X708523Y1000591D01*
X706028Y999558D01*
X703886Y997914D01*
X702242Y995772D01*
X701209Y993277D01*
X700856Y990600D01*
X701209Y987923D01*
X702242Y985428D01*
X703886Y983286D01*
X706028Y981642D01*
X708523Y980609D01*
X711200Y980257D01*
X713877Y980609D01*
X716372Y981642D01*
X718514Y983286D01*
X720158Y985428D01*
X721191Y987923D01*
X721544Y990600D01*
X721191Y993277D01*
X720158Y995772D01*
X718514Y997914D01*
X716372Y999558D01*
X713877Y1000591D01*
X711200Y1000944D01*
D02*
G37*
G36*
X685800D02*
X683123Y1000591D01*
X680628Y999558D01*
X678486Y997914D01*
X676842Y995772D01*
X675809Y993277D01*
X675456Y990600D01*
X675809Y987923D01*
X676842Y985428D01*
X678486Y983286D01*
X680628Y981642D01*
X683123Y980609D01*
X685800Y980257D01*
X688477Y980609D01*
X690972Y981642D01*
X693114Y983286D01*
X694758Y985428D01*
X695791Y987923D01*
X696143Y990600D01*
X695791Y993277D01*
X694758Y995772D01*
X693114Y997914D01*
X690972Y999558D01*
X688477Y1000591D01*
X685800Y1000944D01*
D02*
G37*
G36*
X660400D02*
X657723Y1000591D01*
X655228Y999558D01*
X653086Y997914D01*
X651442Y995772D01*
X650409Y993277D01*
X650057Y990600D01*
X650409Y987923D01*
X651442Y985428D01*
X653086Y983286D01*
X655228Y981642D01*
X657723Y980609D01*
X660400Y980257D01*
X663077Y980609D01*
X665572Y981642D01*
X667714Y983286D01*
X669358Y985428D01*
X670391Y987923D01*
X670743Y990600D01*
X670391Y993277D01*
X669358Y995772D01*
X667714Y997914D01*
X665572Y999558D01*
X663077Y1000591D01*
X660400Y1000944D01*
D02*
G37*
G36*
X635000D02*
X632323Y1000591D01*
X629828Y999558D01*
X627686Y997914D01*
X626042Y995772D01*
X625009Y993277D01*
X624656Y990600D01*
X625009Y987923D01*
X626042Y985428D01*
X627686Y983286D01*
X629828Y981642D01*
X632323Y980609D01*
X635000Y980257D01*
X637677Y980609D01*
X640172Y981642D01*
X642314Y983286D01*
X643958Y985428D01*
X644991Y987923D01*
X645343Y990600D01*
X644991Y993277D01*
X643958Y995772D01*
X642314Y997914D01*
X640172Y999558D01*
X637677Y1000591D01*
X635000Y1000944D01*
D02*
G37*
G36*
X443751Y988330D02*
X432800D01*
Y979627D01*
X434180D01*
X436691Y979958D01*
X439031Y980927D01*
X441041Y982469D01*
X442583Y984479D01*
X443552Y986819D01*
X443751Y988330D01*
D02*
G37*
G36*
X430800D02*
X419849D01*
X420048Y986819D01*
X421017Y984479D01*
X422559Y982469D01*
X424568Y980927D01*
X426909Y979958D01*
X429420Y979627D01*
X430800D01*
Y988330D01*
D02*
G37*
G36*
X267080Y1003635D02*
X264041Y1003336D01*
X261120Y1002449D01*
X258427Y1001010D01*
X256067Y999073D01*
X254130Y996713D01*
X252690Y994020D01*
X251804Y991099D01*
X251505Y988060D01*
X251804Y985022D01*
X252690Y982100D01*
X254130Y979407D01*
X256067Y977047D01*
X258427Y975110D01*
X261120Y973671D01*
X264041Y972784D01*
X267080Y972485D01*
X270118Y972784D01*
X273040Y973671D01*
X275733Y975110D01*
X278093Y977047D01*
X280030Y979407D01*
X281469Y982100D01*
X282356Y985022D01*
X282655Y988060D01*
X282356Y991099D01*
X281469Y994020D01*
X280030Y996713D01*
X278093Y999073D01*
X275733Y1001010D01*
X273040Y1002449D01*
X270118Y1003336D01*
X267080Y1003635D01*
D02*
G37*
G36*
X736600Y975544D02*
X733923Y975191D01*
X731428Y974158D01*
X729286Y972514D01*
X727642Y970372D01*
X726609Y967877D01*
X726256Y965200D01*
X726609Y962523D01*
X727642Y960028D01*
X729286Y957886D01*
X731428Y956242D01*
X733923Y955209D01*
X736600Y954856D01*
X739277Y955209D01*
X741772Y956242D01*
X743914Y957886D01*
X745558Y960028D01*
X746591Y962523D01*
X746944Y965200D01*
X746591Y967877D01*
X745558Y970372D01*
X743914Y972514D01*
X741772Y974158D01*
X739277Y975191D01*
X736600Y975544D01*
D02*
G37*
G36*
X711200D02*
X708523Y975191D01*
X706028Y974158D01*
X703886Y972514D01*
X702242Y970372D01*
X701209Y967877D01*
X700856Y965200D01*
X701209Y962523D01*
X702242Y960028D01*
X703886Y957886D01*
X706028Y956242D01*
X708523Y955209D01*
X711200Y954856D01*
X713877Y955209D01*
X716372Y956242D01*
X718514Y957886D01*
X720158Y960028D01*
X721191Y962523D01*
X721544Y965200D01*
X721191Y967877D01*
X720158Y970372D01*
X718514Y972514D01*
X716372Y974158D01*
X713877Y975191D01*
X711200Y975544D01*
D02*
G37*
G36*
X685800D02*
X683123Y975191D01*
X680628Y974158D01*
X678486Y972514D01*
X676842Y970372D01*
X675809Y967877D01*
X675456Y965200D01*
X675809Y962523D01*
X676842Y960028D01*
X678486Y957886D01*
X680628Y956242D01*
X683123Y955209D01*
X685800Y954856D01*
X688477Y955209D01*
X690972Y956242D01*
X693114Y957886D01*
X694758Y960028D01*
X695791Y962523D01*
X696143Y965200D01*
X695791Y967877D01*
X694758Y970372D01*
X693114Y972514D01*
X690972Y974158D01*
X688477Y975191D01*
X685800Y975544D01*
D02*
G37*
G36*
X660400D02*
X657723Y975191D01*
X655228Y974158D01*
X653086Y972514D01*
X651442Y970372D01*
X650409Y967877D01*
X650057Y965200D01*
X650409Y962523D01*
X651442Y960028D01*
X653086Y957886D01*
X655228Y956242D01*
X657723Y955209D01*
X660400Y954856D01*
X663077Y955209D01*
X665572Y956242D01*
X667714Y957886D01*
X669358Y960028D01*
X670391Y962523D01*
X670743Y965200D01*
X670391Y967877D01*
X669358Y970372D01*
X667714Y972514D01*
X665572Y974158D01*
X663077Y975191D01*
X660400Y975544D01*
D02*
G37*
G36*
X635000D02*
X632323Y975191D01*
X629828Y974158D01*
X627686Y972514D01*
X626042Y970372D01*
X625009Y967877D01*
X624656Y965200D01*
X625009Y962523D01*
X626042Y960028D01*
X627686Y957886D01*
X629828Y956242D01*
X632323Y955209D01*
X635000Y954856D01*
X637677Y955209D01*
X640172Y956242D01*
X642314Y957886D01*
X643958Y960028D01*
X644991Y962523D01*
X645343Y965200D01*
X644991Y967877D01*
X643958Y970372D01*
X642314Y972514D01*
X640172Y974158D01*
X637677Y975191D01*
X635000Y975544D01*
D02*
G37*
G36*
X609600D02*
X606923Y975191D01*
X604428Y974158D01*
X602286Y972514D01*
X600642Y970372D01*
X599609Y967877D01*
X599257Y965200D01*
X599609Y962523D01*
X600642Y960028D01*
X602286Y957886D01*
X604428Y956242D01*
X606923Y955209D01*
X609600Y954856D01*
X612277Y955209D01*
X614772Y956242D01*
X616914Y957886D01*
X618558Y960028D01*
X619591Y962523D01*
X619944Y965200D01*
X619591Y967877D01*
X618558Y970372D01*
X616914Y972514D01*
X614772Y974158D01*
X612277Y975191D01*
X609600Y975544D01*
D02*
G37*
G36*
X712200Y950012D02*
Y940800D01*
X721412D01*
X721191Y942477D01*
X720158Y944972D01*
X718514Y947114D01*
X716372Y948758D01*
X713877Y949791D01*
X712200Y950012D01*
D02*
G37*
G36*
X710200D02*
X708523Y949791D01*
X706028Y948758D01*
X703886Y947114D01*
X702242Y944972D01*
X701209Y942477D01*
X700988Y940800D01*
X710200D01*
Y950012D01*
D02*
G37*
G36*
X686800D02*
Y940800D01*
X696012D01*
X695791Y942477D01*
X694758Y944972D01*
X693114Y947114D01*
X690972Y948758D01*
X688477Y949791D01*
X686800Y950012D01*
D02*
G37*
G36*
X684800D02*
X683123Y949791D01*
X680628Y948758D01*
X678486Y947114D01*
X676842Y944972D01*
X675809Y942477D01*
X675588Y940800D01*
X684800D01*
Y950012D01*
D02*
G37*
G36*
X661400D02*
Y940800D01*
X670612D01*
X670391Y942477D01*
X669358Y944972D01*
X667714Y947114D01*
X665572Y948758D01*
X663077Y949791D01*
X661400Y950012D01*
D02*
G37*
G36*
X659400D02*
X657723Y949791D01*
X655228Y948758D01*
X653086Y947114D01*
X651442Y944972D01*
X650409Y942477D01*
X650188Y940800D01*
X659400D01*
Y950012D01*
D02*
G37*
G36*
X636000D02*
Y940800D01*
X645212D01*
X644991Y942477D01*
X643958Y944972D01*
X642314Y947114D01*
X640172Y948758D01*
X637677Y949791D01*
X636000Y950012D01*
D02*
G37*
G36*
X634000D02*
X632323Y949791D01*
X629828Y948758D01*
X627686Y947114D01*
X626042Y944972D01*
X625009Y942477D01*
X624788Y940800D01*
X634000D01*
Y950012D01*
D02*
G37*
G36*
X610600D02*
Y940800D01*
X619812D01*
X619591Y942477D01*
X618558Y944972D01*
X616914Y947114D01*
X614772Y948758D01*
X612277Y949791D01*
X610600Y950012D01*
D02*
G37*
G36*
X608600D02*
X606923Y949791D01*
X604428Y948758D01*
X602286Y947114D01*
X600642Y944972D01*
X599609Y942477D01*
X599388Y940800D01*
X608600D01*
Y950012D01*
D02*
G37*
G36*
X267080Y968635D02*
X264041Y968336D01*
X261120Y967449D01*
X258427Y966010D01*
X256067Y964073D01*
X254130Y961713D01*
X252690Y959020D01*
X251804Y956098D01*
X251505Y953060D01*
X251804Y950022D01*
X252690Y947100D01*
X254130Y944407D01*
X256067Y942047D01*
X258427Y940110D01*
X261120Y938671D01*
X264041Y937784D01*
X267080Y937485D01*
X270118Y937784D01*
X273040Y938671D01*
X275733Y940110D01*
X278093Y942047D01*
X280030Y944407D01*
X281469Y947100D01*
X282356Y950022D01*
X282655Y953060D01*
X282356Y956098D01*
X281469Y959020D01*
X280030Y961713D01*
X278093Y964073D01*
X275733Y966010D01*
X273040Y967449D01*
X270118Y968336D01*
X267080Y968635D01*
D02*
G37*
G36*
X434180Y973633D02*
X429420D01*
X426909Y973302D01*
X424568Y972333D01*
X422559Y970791D01*
X421017Y968782D01*
X420048Y966441D01*
X419717Y963930D01*
X420048Y961419D01*
X421017Y959079D01*
X422559Y957069D01*
X424568Y955527D01*
X426909Y954558D01*
X429420Y954227D01*
X434180D01*
X436691Y954558D01*
X439031Y955527D01*
X441041Y957069D01*
X442583Y959079D01*
X442692Y959342D01*
X465460D01*
X480350Y944451D01*
Y932070D01*
X498350D01*
Y950070D01*
X487709D01*
X470604Y967174D01*
X469116Y968169D01*
X467360Y968518D01*
X442692D01*
X442583Y968782D01*
X441041Y970791D01*
X439031Y972333D01*
X436691Y973302D01*
X434180Y973633D01*
D02*
G37*
G36*
X539350Y950148D02*
X537001Y949838D01*
X534811Y948932D01*
X532931Y947489D01*
X531488Y945609D01*
X530582Y943419D01*
X530272Y941070D01*
X530582Y938720D01*
X531488Y936531D01*
X532931Y934651D01*
X534811Y933208D01*
X537001Y932302D01*
X539350Y931992D01*
X541699Y932302D01*
X543889Y933208D01*
X545769Y934651D01*
X547211Y936531D01*
X548118Y938720D01*
X548428Y941070D01*
X548118Y943419D01*
X547211Y945609D01*
X545769Y947489D01*
X543889Y948932D01*
X541699Y949838D01*
X539350Y950148D01*
D02*
G37*
G36*
X721412Y938800D02*
X712200D01*
Y929588D01*
X713877Y929809D01*
X716372Y930842D01*
X718514Y932486D01*
X720158Y934628D01*
X721191Y937123D01*
X721412Y938800D01*
D02*
G37*
G36*
X710200D02*
X700988D01*
X701209Y937123D01*
X702242Y934628D01*
X703886Y932486D01*
X706028Y930842D01*
X708523Y929809D01*
X710200Y929588D01*
Y938800D01*
D02*
G37*
G36*
X696012D02*
X686800D01*
Y929588D01*
X688477Y929809D01*
X690972Y930842D01*
X693114Y932486D01*
X694758Y934628D01*
X695791Y937123D01*
X696012Y938800D01*
D02*
G37*
G36*
X684800D02*
X675588D01*
X675809Y937123D01*
X676842Y934628D01*
X678486Y932486D01*
X680628Y930842D01*
X683123Y929809D01*
X684800Y929588D01*
Y938800D01*
D02*
G37*
G36*
X670612D02*
X661400D01*
Y929588D01*
X663077Y929809D01*
X665572Y930842D01*
X667714Y932486D01*
X669358Y934628D01*
X670391Y937123D01*
X670612Y938800D01*
D02*
G37*
G36*
X659400D02*
X650188D01*
X650409Y937123D01*
X651442Y934628D01*
X653086Y932486D01*
X655228Y930842D01*
X657723Y929809D01*
X659400Y929588D01*
Y938800D01*
D02*
G37*
G36*
X645212D02*
X636000D01*
Y929588D01*
X637677Y929809D01*
X640172Y930842D01*
X642314Y932486D01*
X643958Y934628D01*
X644991Y937123D01*
X645212Y938800D01*
D02*
G37*
G36*
X634000D02*
X624788D01*
X625009Y937123D01*
X626042Y934628D01*
X627686Y932486D01*
X629828Y930842D01*
X632323Y929809D01*
X634000Y929588D01*
Y938800D01*
D02*
G37*
G36*
X619812D02*
X610600D01*
Y929588D01*
X612277Y929809D01*
X614772Y930842D01*
X616914Y932486D01*
X618558Y934628D01*
X619591Y937123D01*
X619812Y938800D01*
D02*
G37*
G36*
X608600D02*
X599388D01*
X599609Y937123D01*
X600642Y934628D01*
X602286Y932486D01*
X604428Y930842D01*
X606923Y929809D01*
X608600Y929588D01*
Y938800D01*
D02*
G37*
G36*
X418220Y938560D02*
X410220D01*
Y925560D01*
X418220D01*
Y938560D01*
D02*
G37*
G36*
X408220D02*
X400220D01*
Y925560D01*
X408220D01*
Y938560D01*
D02*
G37*
G36*
X1056100Y935377D02*
X1042300D01*
Y921550D01*
X1070795D01*
X1070422Y924388D01*
X1068940Y927963D01*
X1066584Y931034D01*
X1063513Y933391D01*
X1059937Y934872D01*
X1056100Y935377D01*
D02*
G37*
G36*
X776700D02*
X762900D01*
Y921550D01*
X791395D01*
X791022Y924388D01*
X789540Y927963D01*
X787184Y931034D01*
X784113Y933391D01*
X780537Y934872D01*
X776700Y935377D01*
D02*
G37*
G36*
X760900D02*
X747100D01*
X743263Y934872D01*
X739687Y933391D01*
X736616Y931034D01*
X734260Y927963D01*
X732778Y924388D01*
X732405Y921550D01*
X760900D01*
Y935377D01*
D02*
G37*
G36*
X418220Y923560D02*
X410220D01*
Y910560D01*
X418220D01*
Y923560D01*
D02*
G37*
G36*
X408220D02*
X400220D01*
Y910560D01*
X408220D01*
Y923560D01*
D02*
G37*
G36*
X1070795Y919550D02*
X1042300D01*
Y905723D01*
X1056100D01*
X1059937Y906228D01*
X1063513Y907710D01*
X1066584Y910066D01*
X1068940Y913137D01*
X1070422Y916713D01*
X1070795Y919550D01*
D02*
G37*
G36*
X791395D02*
X762900D01*
Y905723D01*
X776700D01*
X780537Y906228D01*
X784113Y907710D01*
X787184Y910066D01*
X789540Y913137D01*
X791022Y916713D01*
X791395Y919550D01*
D02*
G37*
G36*
X760900D02*
X732405D01*
X732778Y916713D01*
X734260Y913137D01*
X736616Y910066D01*
X739687Y907710D01*
X743263Y906228D01*
X747100Y905723D01*
X760900D01*
Y919550D01*
D02*
G37*
G36*
X596830Y1092304D02*
X556330D01*
X553785Y1091969D01*
X551413Y1090987D01*
X549376Y1089424D01*
X547813Y1087387D01*
X546831Y1085015D01*
X546496Y1082470D01*
Y1066970D01*
X546831Y1064425D01*
X547813Y1062053D01*
X549376Y1060016D01*
X551413Y1058453D01*
X553785Y1057471D01*
X556330Y1057136D01*
X565746D01*
Y1032230D01*
X566159Y1029097D01*
X567368Y1026178D01*
X569291Y1023671D01*
X571798Y1021748D01*
X574717Y1020539D01*
X577850Y1020126D01*
X579722Y1020373D01*
X592380Y1007716D01*
Y989715D01*
X581748Y979082D01*
X580625Y977620D01*
X579920Y975917D01*
X579680Y974090D01*
Y923290D01*
X579920Y921463D01*
X580625Y919760D01*
X581748Y918298D01*
X590638Y909408D01*
X592100Y908286D01*
X593803Y907580D01*
X595630Y907340D01*
X602091D01*
X602286Y907086D01*
X604428Y905442D01*
X606923Y904409D01*
X609600Y904056D01*
X612277Y904409D01*
X614772Y905442D01*
X616914Y907086D01*
X617108Y907340D01*
X627491D01*
X627686Y907086D01*
X629828Y905442D01*
X632323Y904409D01*
X635000Y904056D01*
X637677Y904409D01*
X640172Y905442D01*
X642314Y907086D01*
X642508Y907340D01*
X652891D01*
X653086Y907086D01*
X655228Y905442D01*
X657723Y904409D01*
X660400Y904056D01*
X663077Y904409D01*
X665572Y905442D01*
X667714Y907086D01*
X667908Y907340D01*
X678291D01*
X678486Y907086D01*
X680628Y905442D01*
X681212Y905201D01*
Y893440D01*
X669856Y882084D01*
X668861Y880596D01*
X668512Y878840D01*
Y840740D01*
Y802640D01*
Y764540D01*
Y708660D01*
X668861Y706904D01*
X669856Y705416D01*
X671344Y704421D01*
X673100Y704072D01*
X674856Y704421D01*
X676344Y705416D01*
X677339Y706904D01*
X677688Y708660D01*
Y764540D01*
Y802640D01*
Y840740D01*
Y876939D01*
X689044Y888296D01*
X690039Y889784D01*
X690388Y891540D01*
Y905201D01*
X690972Y905442D01*
X693114Y907086D01*
X693308Y907340D01*
X703691D01*
X703886Y907086D01*
X706028Y905442D01*
X708523Y904409D01*
X711200Y904056D01*
X713877Y904409D01*
X716372Y905442D01*
X718514Y907086D01*
X720158Y909228D01*
X721191Y911723D01*
X721544Y914400D01*
X721191Y917077D01*
X720158Y919572D01*
X718514Y921714D01*
X716372Y923358D01*
X713877Y924391D01*
X711200Y924743D01*
X708523Y924391D01*
X706028Y923358D01*
X703886Y921714D01*
X703691Y921460D01*
X693308D01*
X693114Y921714D01*
X690972Y923358D01*
X688477Y924391D01*
X685800Y924743D01*
X683123Y924391D01*
X680628Y923358D01*
X678486Y921714D01*
X678291Y921460D01*
X667908D01*
X667714Y921714D01*
X665572Y923358D01*
X663077Y924391D01*
X660400Y924743D01*
X657723Y924391D01*
X655228Y923358D01*
X653086Y921714D01*
X652891Y921460D01*
X642508D01*
X642314Y921714D01*
X640172Y923358D01*
X637677Y924391D01*
X635000Y924743D01*
X632323Y924391D01*
X629828Y923358D01*
X627686Y921714D01*
X627491Y921460D01*
X617108D01*
X616914Y921714D01*
X614772Y923358D01*
X612277Y924391D01*
X609600Y924743D01*
X606923Y924391D01*
X604428Y923358D01*
X602286Y921714D01*
X602091Y921460D01*
X598554D01*
X593800Y926215D01*
Y971165D01*
X604432Y981798D01*
X605555Y983260D01*
X606260Y984963D01*
X606500Y986790D01*
Y1010640D01*
X606260Y1012467D01*
X605555Y1014170D01*
X604432Y1015632D01*
X589707Y1030358D01*
X589954Y1032230D01*
Y1057136D01*
X596830D01*
X599375Y1057471D01*
X601747Y1058453D01*
X603784Y1060016D01*
X605347Y1062053D01*
X606329Y1064425D01*
X606664Y1066970D01*
Y1082470D01*
X606329Y1085015D01*
X605347Y1087387D01*
X603784Y1089424D01*
X601747Y1090987D01*
X599375Y1091969D01*
X596830Y1092304D01*
D02*
G37*
G36*
X272330Y933649D02*
X261830D01*
X259154Y933296D01*
X256661Y932263D01*
X254520Y930620D01*
X252876Y928479D01*
X251844Y925986D01*
X251491Y923310D01*
Y912810D01*
X251844Y910134D01*
X252876Y907641D01*
X254520Y905500D01*
X256661Y903857D01*
X259154Y902824D01*
X261830Y902472D01*
X272330D01*
X275006Y902824D01*
X277499Y903857D01*
X279640Y905500D01*
X281283Y907641D01*
X282316Y910134D01*
X282668Y912810D01*
Y923310D01*
X282316Y925986D01*
X281283Y928479D01*
X279640Y930620D01*
X277499Y932263D01*
X275006Y933296D01*
X272330Y933649D01*
D02*
G37*
G36*
X431970Y905923D02*
X427720D01*
Y896350D01*
X435793D01*
Y902100D01*
X435502Y903563D01*
X434674Y904804D01*
X433433Y905632D01*
X431970Y905923D01*
D02*
G37*
G36*
X425720D02*
X421470D01*
X420007Y905632D01*
X418766Y904804D01*
X417938Y903563D01*
X417647Y902100D01*
Y896350D01*
X425720D01*
Y905923D01*
D02*
G37*
G36*
X569300Y901139D02*
X567300D01*
Y895080D01*
X572359D01*
Y898080D01*
X572126Y899250D01*
X571463Y900243D01*
X570471Y900906D01*
X569300Y901139D01*
D02*
G37*
G36*
X565300D02*
X563300D01*
X562130Y900906D01*
X561137Y900243D01*
X560474Y899250D01*
X560241Y898080D01*
Y895080D01*
X565300D01*
Y901139D01*
D02*
G37*
G36*
X435793Y894350D02*
X427720D01*
Y884777D01*
X431970D01*
X433433Y885068D01*
X434674Y885896D01*
X435502Y887137D01*
X435793Y888600D01*
Y894350D01*
D02*
G37*
G36*
X425720D02*
X417647D01*
Y888600D01*
X417938Y887137D01*
X418766Y885896D01*
X420007Y885068D01*
X421470Y884777D01*
X425720D01*
Y894350D01*
D02*
G37*
G36*
X711200Y899343D02*
X708523Y898991D01*
X706028Y897958D01*
X703886Y896314D01*
X702242Y894172D01*
X701209Y891677D01*
X700856Y889000D01*
X701209Y886323D01*
X702242Y883828D01*
X703886Y881686D01*
X706028Y880042D01*
X708523Y879009D01*
X711200Y878656D01*
X713877Y879009D01*
X716372Y880042D01*
X718514Y881686D01*
X720158Y883828D01*
X721191Y886323D01*
X721544Y889000D01*
X721191Y891677D01*
X720158Y894172D01*
X718514Y896314D01*
X716372Y897958D01*
X713877Y898991D01*
X711200Y899343D01*
D02*
G37*
G36*
X310070Y886049D02*
X302070D01*
X300900Y885816D01*
X299907Y885153D01*
X299244Y884161D01*
X299225Y884062D01*
X298450Y883169D01*
X297279Y882936D01*
X296287Y882273D01*
X292477Y878463D01*
X291814Y877470D01*
X291581Y876300D01*
X291581Y876300D01*
Y779780D01*
X291581Y779780D01*
X291814Y778609D01*
X292477Y777617D01*
X294897Y775197D01*
X294897Y775197D01*
X295889Y774534D01*
X297060Y774301D01*
X297060Y774301D01*
X299023D01*
X299244Y773189D01*
X299907Y772197D01*
X300900Y771534D01*
X302070Y771301D01*
X310070D01*
X311241Y771534D01*
X312233Y772197D01*
X312896Y773189D01*
X313129Y774360D01*
Y780360D01*
X312896Y781531D01*
X312233Y782523D01*
X311241Y783186D01*
X310070Y783419D01*
X302070D01*
X300900Y783186D01*
X299907Y782523D01*
X299736Y782267D01*
X298141Y781899D01*
X298090Y781916D01*
X297699Y782206D01*
Y874334D01*
X298496Y875030D01*
X299905Y874831D01*
X299907Y874827D01*
X300900Y874164D01*
X302070Y873931D01*
X310070D01*
X311241Y874164D01*
X312233Y874827D01*
X312424Y875113D01*
X314041Y875559D01*
X314279Y875400D01*
X316230Y875012D01*
X318181Y875400D01*
X319835Y876505D01*
X320940Y878159D01*
X321328Y880110D01*
X320940Y882061D01*
X319835Y883715D01*
X318181Y884820D01*
X316230Y885208D01*
X314279Y884820D01*
X313998Y884632D01*
X312313Y885033D01*
X312233Y885153D01*
X311241Y885816D01*
X310070Y886049D01*
D02*
G37*
G36*
X407840Y883063D02*
X403590D01*
Y873490D01*
X411663D01*
Y879240D01*
X411372Y880703D01*
X410544Y881944D01*
X409303Y882772D01*
X407840Y883063D01*
D02*
G37*
G36*
X401590D02*
X397340D01*
X395877Y882772D01*
X394636Y881944D01*
X393808Y880703D01*
X393517Y879240D01*
Y873490D01*
X401590D01*
Y883063D01*
D02*
G37*
G36*
X268080Y876786D02*
Y865310D01*
X279556D01*
X279258Y867573D01*
X277999Y870614D01*
X275995Y873225D01*
X273384Y875229D01*
X270343Y876488D01*
X268080Y876786D01*
D02*
G37*
G36*
X266080D02*
X263817Y876488D01*
X260776Y875229D01*
X258165Y873225D01*
X256161Y870614D01*
X254902Y867573D01*
X254604Y865310D01*
X266080D01*
Y876786D01*
D02*
G37*
G36*
X642790Y871633D02*
X638540D01*
Y862060D01*
X646613D01*
Y867810D01*
X646322Y869273D01*
X645494Y870514D01*
X644253Y871342D01*
X642790Y871633D01*
D02*
G37*
G36*
X636540D02*
X632290D01*
X630827Y871342D01*
X629586Y870514D01*
X628758Y869273D01*
X628467Y867810D01*
Y862060D01*
X636540D01*
Y871633D01*
D02*
G37*
G36*
X411663Y871490D02*
X403590D01*
Y861917D01*
X407840D01*
X409303Y862208D01*
X410544Y863036D01*
X411372Y864277D01*
X411663Y865740D01*
Y871490D01*
D02*
G37*
G36*
X401590D02*
X393517D01*
Y865740D01*
X393808Y864277D01*
X394636Y863036D01*
X395877Y862208D01*
X397340Y861917D01*
X401590D01*
Y871490D01*
D02*
G37*
G36*
X711200Y873943D02*
X708523Y873591D01*
X706028Y872558D01*
X703886Y870914D01*
X702242Y868772D01*
X701209Y866277D01*
X700856Y863600D01*
X701209Y860923D01*
X702242Y858428D01*
X703886Y856286D01*
X706028Y854642D01*
X708523Y853609D01*
X711200Y853257D01*
X713877Y853609D01*
X716372Y854642D01*
X718514Y856286D01*
X720158Y858428D01*
X721191Y860923D01*
X721544Y863600D01*
X721191Y866277D01*
X720158Y868772D01*
X718514Y870914D01*
X716372Y872558D01*
X713877Y873591D01*
X711200Y873943D01*
D02*
G37*
G36*
X266080Y863310D02*
X254604D01*
X254902Y861047D01*
X256161Y858006D01*
X258165Y855395D01*
X260776Y853391D01*
X263817Y852132D01*
X266080Y851834D01*
Y863310D01*
D02*
G37*
G36*
X279556D02*
X268080D01*
Y851834D01*
X270343Y852132D01*
X273384Y853391D01*
X275995Y855395D01*
X277999Y858006D01*
X279258Y861047D01*
X279556Y863310D01*
D02*
G37*
G36*
X646613Y860060D02*
X638540D01*
Y850487D01*
X642790D01*
X644253Y850778D01*
X645494Y851606D01*
X646322Y852847D01*
X646613Y854310D01*
Y860060D01*
D02*
G37*
G36*
X636540D02*
X628467D01*
Y854310D01*
X628751Y852879D01*
X628757Y852846D01*
X628057Y851609D01*
X626990D01*
Y845550D01*
X632049D01*
Y848550D01*
X631906Y849268D01*
X631986Y849522D01*
X632561Y850282D01*
X632831Y850487D01*
X636540D01*
Y860060D01*
D02*
G37*
G36*
X310070Y871049D02*
X302070D01*
X300900Y870816D01*
X299907Y870153D01*
X299244Y869161D01*
X299011Y867990D01*
Y861990D01*
X299244Y860819D01*
X299907Y859827D01*
X300900Y859164D01*
X302070Y858931D01*
X303011D01*
Y855569D01*
X302070D01*
X300900Y855336D01*
X299907Y854673D01*
X299244Y853680D01*
X299011Y852510D01*
Y846510D01*
X299244Y845340D01*
X299907Y844347D01*
X300900Y843684D01*
X302070Y843451D01*
X310070D01*
X311241Y843684D01*
X312233Y844347D01*
X312896Y845340D01*
X313129Y846510D01*
Y852510D01*
X312896Y853680D01*
X312233Y854673D01*
X311241Y855336D01*
X310070Y855569D01*
X309129D01*
Y858931D01*
X310070D01*
X311241Y859164D01*
X312233Y859827D01*
X312896Y860819D01*
X313129Y861990D01*
Y867990D01*
X312896Y869161D01*
X312233Y870153D01*
X311241Y870816D01*
X310070Y871049D01*
D02*
G37*
G36*
X632049Y843550D02*
X626990D01*
Y837491D01*
X628990D01*
X630160Y837724D01*
X631153Y838387D01*
X631816Y839380D01*
X632049Y840550D01*
Y843550D01*
D02*
G37*
G36*
X624990D02*
X619931D01*
Y840550D01*
X620164Y839380D01*
X620827Y838387D01*
X621819Y837724D01*
X622990Y837491D01*
X624990D01*
Y843550D01*
D02*
G37*
G36*
X615260Y835099D02*
X609260D01*
X608089Y834866D01*
X607097Y834203D01*
X606434Y833211D01*
X606201Y832040D01*
Y830619D01*
X598593D01*
X597935Y831560D01*
X585270D01*
X572900D01*
X572973Y831194D01*
X573731Y830060D01*
X572973Y828926D01*
X572701Y827560D01*
X572973Y826194D01*
X573731Y825060D01*
X572973Y823926D01*
X572701Y822560D01*
X572973Y821194D01*
X573731Y820060D01*
X572973Y818926D01*
X572701Y817560D01*
X572973Y816194D01*
X573731Y815060D01*
X572973Y813926D01*
X572701Y812560D01*
X572973Y811194D01*
X573731Y810060D01*
X572973Y808926D01*
X572701Y807560D01*
X572835Y806889D01*
X572054Y805773D01*
X570764Y805703D01*
X570303Y806164D01*
X570188Y806741D01*
X569304Y808064D01*
X567981Y808948D01*
X566420Y809258D01*
X564859Y808948D01*
X563536Y808064D01*
X562652Y806741D01*
X562342Y805180D01*
X562652Y803619D01*
X563536Y802296D01*
X563734Y802164D01*
X563349Y800894D01*
X546328D01*
X546313Y800908D01*
X545232Y801631D01*
X543956Y801885D01*
X543648D01*
X542581Y802598D01*
X541020Y802908D01*
X539459Y802598D01*
X538136Y801714D01*
X537252Y800391D01*
X536942Y798830D01*
X537252Y797269D01*
X538136Y795946D01*
X538379Y795784D01*
Y794256D01*
X538136Y794094D01*
X537252Y792771D01*
X536942Y791210D01*
X537252Y789649D01*
X538136Y788326D01*
X539459Y787442D01*
X541020Y787132D01*
X542581Y787442D01*
X543648Y788155D01*
X544121D01*
X545397Y788409D01*
X546478Y789132D01*
X546572Y789226D01*
X571763D01*
X572780Y787956D01*
X572701Y787560D01*
X572973Y786194D01*
X573731Y785060D01*
X572973Y783926D01*
X572900Y783560D01*
X585270D01*
Y781560D01*
X572900D01*
X572973Y781194D01*
X573731Y780060D01*
X572973Y778926D01*
X572701Y777560D01*
X572973Y776194D01*
X573731Y775060D01*
X572973Y773926D01*
X572701Y772560D01*
X572973Y771194D01*
X573731Y770060D01*
X572973Y768926D01*
X572701Y767560D01*
X572973Y766194D01*
X573731Y765060D01*
X572973Y763926D01*
X572701Y762560D01*
X572973Y761194D01*
X573731Y760060D01*
X572973Y758926D01*
X572701Y757560D01*
X572835Y756889D01*
X571946Y755619D01*
X559394D01*
X559144Y755994D01*
X557821Y756878D01*
X556260Y757188D01*
X554699Y756878D01*
X553376Y755994D01*
X552492Y754671D01*
X552182Y753110D01*
X552492Y751549D01*
X553376Y750226D01*
X554699Y749342D01*
X556260Y749032D01*
X556559Y749091D01*
X557047Y748720D01*
X557195Y748553D01*
X557487Y747894D01*
X557262Y746760D01*
X557572Y745199D01*
X558456Y743876D01*
X559779Y742992D01*
X561340Y742682D01*
X562901Y742992D01*
X564107Y743798D01*
X564654Y743517D01*
X565163Y743092D01*
X564882Y741680D01*
X565192Y740119D01*
X566076Y738796D01*
X567399Y737912D01*
X568960Y737602D01*
X570521Y737912D01*
X571623Y738649D01*
X572458Y738293D01*
X572793Y738019D01*
X572701Y737560D01*
X572973Y736194D01*
X573747Y735037D01*
X574904Y734263D01*
X576270Y733991D01*
X594270D01*
X595636Y734263D01*
X596793Y735037D01*
X597461Y736036D01*
X598069Y736035D01*
X598731Y735825D01*
Y732210D01*
X598964Y731040D01*
X599627Y730047D01*
X600620Y729384D01*
X601790Y729151D01*
X609790D01*
X610961Y729384D01*
X611953Y730047D01*
X612011Y730135D01*
X613539D01*
X613597Y730047D01*
X614590Y729384D01*
X615760Y729151D01*
X623760D01*
X624930Y729384D01*
X625923Y730047D01*
X625981Y730135D01*
X627509D01*
X627567Y730047D01*
X628559Y729384D01*
X629730Y729151D01*
X637730D01*
X638900Y729384D01*
X639893Y730047D01*
X640556Y731040D01*
X640789Y732210D01*
Y738210D01*
X640556Y739380D01*
X639893Y740373D01*
X638900Y741036D01*
X637730Y741269D01*
X635059D01*
Y745950D01*
X634826Y747121D01*
X634163Y748113D01*
X634163Y748113D01*
X628908Y753368D01*
X628527Y753622D01*
X628273Y754003D01*
X627553Y754723D01*
X626561Y755386D01*
X625390Y755619D01*
X625390Y755619D01*
X624861D01*
X624476Y756889D01*
X624803Y757107D01*
X625466Y758100D01*
X625699Y759270D01*
Y762270D01*
X619640D01*
Y763270D01*
X618640D01*
Y770329D01*
X617151D01*
X616391Y770689D01*
X615853Y771467D01*
X615580Y772841D01*
X614475Y774495D01*
X612821Y775600D01*
X610870Y775988D01*
X608919Y775600D01*
X607265Y774495D01*
X606160Y772841D01*
X605772Y770890D01*
X604716Y770329D01*
X601640D01*
X600470Y770096D01*
X599477Y769433D01*
X598925Y768607D01*
X598253Y768580D01*
X597604Y768741D01*
X597567Y768926D01*
X596809Y770060D01*
X597567Y771194D01*
X597839Y772560D01*
X597567Y773926D01*
X596809Y775060D01*
X597567Y776194D01*
X597839Y777560D01*
X597567Y778926D01*
X596809Y780060D01*
X597567Y781194D01*
X597688Y781803D01*
X597807Y781848D01*
X599010Y781937D01*
X599477Y781237D01*
X600470Y780574D01*
X601640Y780341D01*
X607640D01*
X608811Y780574D01*
X609803Y781237D01*
X610466Y782230D01*
X610699Y783400D01*
Y791400D01*
X610466Y792570D01*
X609803Y793563D01*
X608811Y794226D01*
X607640Y794459D01*
X606550D01*
X605921Y795729D01*
X606690Y796879D01*
X607078Y798830D01*
X606690Y800781D01*
X605585Y802435D01*
Y802845D01*
X606690Y804499D01*
X607078Y806450D01*
X607069Y806493D01*
X614663Y814087D01*
X615437Y815244D01*
X615709Y816610D01*
Y821070D01*
X616431Y821214D01*
X617423Y821877D01*
X618086Y822869D01*
X618319Y824040D01*
Y832040D01*
X618086Y833211D01*
X617423Y834203D01*
X616431Y834866D01*
X615260Y835099D01*
D02*
G37*
G36*
X630260D02*
X628260D01*
Y829040D01*
X633319D01*
Y832040D01*
X633086Y833211D01*
X632423Y834203D01*
X631431Y834866D01*
X630260Y835099D01*
D02*
G37*
G36*
X626260D02*
X624260D01*
X623089Y834866D01*
X622097Y834203D01*
X621434Y833211D01*
X621201Y832040D01*
Y829040D01*
X626260D01*
Y835099D01*
D02*
G37*
G36*
X711200Y848543D02*
X708523Y848191D01*
X706028Y847158D01*
X703886Y845514D01*
X702242Y843372D01*
X701209Y840877D01*
X700856Y838200D01*
X701209Y835523D01*
X702242Y833028D01*
X703886Y830886D01*
X706028Y829242D01*
X708523Y828209D01*
X711200Y827857D01*
X713877Y828209D01*
X716372Y829242D01*
X718514Y830886D01*
X720158Y833028D01*
X721191Y835523D01*
X721544Y838200D01*
X721191Y840877D01*
X720158Y843372D01*
X718514Y845514D01*
X716372Y847158D01*
X713877Y848191D01*
X711200Y848543D01*
D02*
G37*
G36*
X633319Y827040D02*
X628260D01*
Y820981D01*
X630260D01*
X631431Y821214D01*
X632423Y821877D01*
X633086Y822869D01*
X633319Y824040D01*
Y827040D01*
D02*
G37*
G36*
X626260D02*
X621201D01*
Y824040D01*
X621434Y822869D01*
X622097Y821877D01*
X623089Y821214D01*
X624260Y820981D01*
X626260D01*
Y827040D01*
D02*
G37*
G36*
X267080Y841918D02*
X263817Y841488D01*
X260776Y840229D01*
X258165Y838225D01*
X256161Y835614D01*
X254902Y832573D01*
X254472Y829310D01*
X254902Y826047D01*
X256161Y823006D01*
X258165Y820395D01*
X260776Y818391D01*
X263817Y817132D01*
X267080Y816702D01*
X270343Y817132D01*
X273384Y818391D01*
X275995Y820395D01*
X277999Y823006D01*
X279258Y826047D01*
X279688Y829310D01*
X279258Y832573D01*
X277999Y835614D01*
X275995Y838225D01*
X273384Y840229D01*
X270343Y841488D01*
X267080Y841918D01*
D02*
G37*
G36*
X346740Y820810D02*
X333740D01*
Y812810D01*
X346740D01*
Y820810D01*
D02*
G37*
G36*
Y810810D02*
X333740D01*
Y802810D01*
X346740D01*
Y810810D01*
D02*
G37*
G36*
X331740D02*
X318740D01*
Y802810D01*
X331740D01*
Y810810D01*
D02*
G37*
G36*
X711200Y823143D02*
X708523Y822791D01*
X706028Y821758D01*
X703886Y820114D01*
X702242Y817972D01*
X701209Y815477D01*
X700856Y812800D01*
X701209Y810123D01*
X702242Y807628D01*
X703886Y805486D01*
X706028Y803842D01*
X708523Y802809D01*
X711200Y802457D01*
X713877Y802809D01*
X716372Y803842D01*
X718514Y805486D01*
X720158Y807628D01*
X721191Y810123D01*
X721544Y812800D01*
X721191Y815477D01*
X720158Y817972D01*
X718514Y820114D01*
X716372Y821758D01*
X713877Y822791D01*
X711200Y823143D01*
D02*
G37*
G36*
X622640Y794459D02*
X620640D01*
Y788400D01*
X625699D01*
Y791400D01*
X625466Y792570D01*
X624803Y793563D01*
X623811Y794226D01*
X622640Y794459D01*
D02*
G37*
G36*
X618640D02*
X616640D01*
X615470Y794226D01*
X614477Y793563D01*
X613814Y792570D01*
X613581Y791400D01*
Y788400D01*
X618640D01*
Y794459D01*
D02*
G37*
G36*
X310070Y813899D02*
X302070D01*
X300900Y813666D01*
X299907Y813003D01*
X299244Y812010D01*
X299011Y810840D01*
Y804840D01*
X299244Y803670D01*
X299907Y802677D01*
X300900Y802014D01*
X302070Y801781D01*
X303011D01*
Y798419D01*
X302070D01*
X300900Y798186D01*
X299907Y797523D01*
X299244Y796531D01*
X299011Y795360D01*
Y789360D01*
X299244Y788189D01*
X299907Y787197D01*
X300900Y786534D01*
X302070Y786301D01*
X310070D01*
X311241Y786534D01*
X312233Y787197D01*
X312896Y788189D01*
X313129Y789360D01*
Y795360D01*
X312896Y796531D01*
X312233Y797523D01*
X311241Y798186D01*
X310070Y798419D01*
X309129D01*
Y801781D01*
X310070D01*
X311241Y802014D01*
X312233Y802677D01*
X312896Y803670D01*
X313129Y804840D01*
Y810840D01*
X312896Y812010D01*
X312233Y813003D01*
X311241Y813666D01*
X310070Y813899D01*
D02*
G37*
G36*
X272330Y806873D02*
X261830D01*
X259937Y806623D01*
X258174Y805893D01*
X256659Y804731D01*
X255497Y803216D01*
X254767Y801453D01*
X254517Y799560D01*
Y789060D01*
X254767Y787167D01*
X255497Y785404D01*
X256659Y783889D01*
X258174Y782727D01*
X259937Y781997D01*
X261830Y781748D01*
X272330D01*
X274223Y781997D01*
X275986Y782727D01*
X277501Y783889D01*
X278663Y785404D01*
X279393Y787167D01*
X279642Y789060D01*
Y799560D01*
X279393Y801453D01*
X278663Y803216D01*
X277501Y804731D01*
X275986Y805893D01*
X274223Y806623D01*
X272330Y806873D01*
D02*
G37*
G36*
X625699Y786400D02*
X620640D01*
Y780341D01*
X622640D01*
X623811Y780574D01*
X624803Y781237D01*
X625466Y782230D01*
X625699Y783400D01*
Y786400D01*
D02*
G37*
G36*
X618640D02*
X613581D01*
Y783400D01*
X613814Y782230D01*
X614477Y781237D01*
X615470Y780574D01*
X616640Y780341D01*
X618640D01*
Y786400D01*
D02*
G37*
G36*
X711200Y797744D02*
X708523Y797391D01*
X706028Y796358D01*
X703886Y794714D01*
X702242Y792572D01*
X701209Y790077D01*
X700856Y787400D01*
X701209Y784723D01*
X702242Y782228D01*
X703886Y780086D01*
X706028Y778442D01*
X708523Y777409D01*
X711200Y777057D01*
X713877Y777409D01*
X716372Y778442D01*
X718514Y780086D01*
X720158Y782228D01*
X721191Y784723D01*
X721544Y787400D01*
X721191Y790077D01*
X720158Y792572D01*
X718514Y794714D01*
X716372Y796358D01*
X713877Y797391D01*
X711200Y797744D01*
D02*
G37*
G36*
X364490Y789136D02*
X362206Y788835D01*
X360077Y787953D01*
X358249Y786551D01*
X356847Y784723D01*
X355965Y782594D01*
X355664Y780310D01*
X355965Y778026D01*
X356847Y775897D01*
X358249Y774069D01*
X360077Y772667D01*
X362206Y771785D01*
X364490Y771485D01*
X366774Y771785D01*
X368903Y772667D01*
X370731Y774069D01*
X372133Y775897D01*
X373015Y778026D01*
X373316Y780310D01*
X373015Y782594D01*
X372133Y784723D01*
X370731Y786551D01*
X368903Y787953D01*
X366774Y788835D01*
X364490Y789136D01*
D02*
G37*
G36*
X238760Y791659D02*
X236672Y791384D01*
X234725Y790578D01*
X233054Y789296D01*
X231772Y787625D01*
X230966Y785678D01*
X230691Y783590D01*
X230966Y781502D01*
X231416Y780415D01*
X230966Y779328D01*
X230691Y777240D01*
X230966Y775152D01*
X231772Y773205D01*
X233054Y771534D01*
X234725Y770252D01*
X236672Y769446D01*
X238760Y769171D01*
X240848Y769446D01*
X242794Y770252D01*
X244466Y771534D01*
X245748Y773205D01*
X246554Y775152D01*
X246829Y777240D01*
X246554Y779328D01*
X246104Y780415D01*
X246554Y781502D01*
X246829Y783590D01*
X246554Y785678D01*
X245748Y787625D01*
X244466Y789296D01*
X242794Y790578D01*
X240848Y791384D01*
X238760Y791659D01*
D02*
G37*
G36*
X622640Y770329D02*
X620640D01*
Y764270D01*
X625699D01*
Y767270D01*
X625466Y768440D01*
X624803Y769433D01*
X623811Y770096D01*
X622640Y770329D01*
D02*
G37*
G36*
X346740Y766910D02*
X333740D01*
Y758910D01*
X346740D01*
Y766910D01*
D02*
G37*
G36*
X331740D02*
X318740D01*
Y758910D01*
X331740D01*
Y766910D01*
D02*
G37*
G36*
X711200Y772344D02*
X708523Y771991D01*
X706028Y770958D01*
X703886Y769314D01*
X702242Y767172D01*
X701209Y764677D01*
X700856Y762000D01*
X701209Y759323D01*
X702242Y756828D01*
X703886Y754686D01*
X706028Y753042D01*
X708523Y752009D01*
X711200Y751656D01*
X713877Y752009D01*
X716372Y753042D01*
X718514Y754686D01*
X720158Y756828D01*
X721191Y759323D01*
X721544Y762000D01*
X721191Y764677D01*
X720158Y767172D01*
X718514Y769314D01*
X716372Y770958D01*
X713877Y771991D01*
X711200Y772344D01*
D02*
G37*
G36*
X346740Y756910D02*
X333740D01*
Y748910D01*
X346740D01*
Y756910D01*
D02*
G37*
G36*
X331740D02*
X318740D01*
Y748910D01*
X331740D01*
Y756910D01*
D02*
G37*
G36*
X264000Y759300D02*
X244000D01*
Y739300D01*
X264000D01*
Y759300D01*
D02*
G37*
G36*
X283210Y739158D02*
X281259Y738770D01*
X280035Y737952D01*
X278811Y738770D01*
X276860Y739158D01*
X274909Y738770D01*
X273255Y737665D01*
X272150Y736011D01*
X271762Y734060D01*
X272150Y732109D01*
X273255Y730455D01*
X274909Y729350D01*
X276860Y728962D01*
X278811Y729350D01*
X280035Y730168D01*
X281259Y729350D01*
X283210Y728962D01*
X285161Y729350D01*
X286815Y730455D01*
X287920Y732109D01*
X288308Y734060D01*
X287920Y736011D01*
X286815Y737665D01*
X285161Y738770D01*
X283210Y739158D01*
D02*
G37*
G36*
X569270Y734129D02*
X567904Y733857D01*
X566770Y733099D01*
X565636Y733857D01*
X565270Y733930D01*
Y721560D01*
Y708895D01*
X566211Y708236D01*
Y701570D01*
X565939Y701516D01*
X564947Y700853D01*
X564284Y699861D01*
X564051Y698690D01*
Y690690D01*
X564284Y689520D01*
X564947Y688527D01*
X565939Y687864D01*
X567110Y687631D01*
X573110D01*
X574281Y687864D01*
X575273Y688527D01*
X575936Y689520D01*
X576028Y689982D01*
X578020D01*
Y680690D01*
X596020D01*
Y683265D01*
X597140Y683863D01*
X597489Y683630D01*
X599440Y683242D01*
X601391Y683630D01*
X603045Y684735D01*
X604150Y686389D01*
X604538Y688340D01*
X604450Y688782D01*
X605348Y689680D01*
X605790Y689592D01*
X607741Y689980D01*
X609395Y691085D01*
X610500Y692739D01*
X610888Y694690D01*
X610500Y696641D01*
X609395Y698295D01*
X607741Y699400D01*
X605790Y699788D01*
X605348Y699700D01*
X604450Y700598D01*
X604538Y701040D01*
X604150Y702991D01*
X603045Y704645D01*
X601391Y705750D01*
X599440Y706138D01*
X597489Y705750D01*
X597140Y705517D01*
X596020Y706115D01*
Y708690D01*
X578020D01*
Y699158D01*
X576076D01*
X575936Y699861D01*
X575273Y700853D01*
X574281Y701516D01*
X573110Y701749D01*
X572329D01*
Y710838D01*
X572567Y711194D01*
X572839Y712560D01*
Y730560D01*
X572567Y731926D01*
X571793Y733083D01*
X570636Y733857D01*
X569270Y734129D01*
D02*
G37*
G36*
X304990Y737459D02*
X301990D01*
Y732400D01*
X308049D01*
Y734400D01*
X307816Y735571D01*
X307153Y736563D01*
X306161Y737226D01*
X304990Y737459D01*
D02*
G37*
G36*
X299990D02*
X296990D01*
X295819Y737226D01*
X294827Y736563D01*
X294164Y735571D01*
X293931Y734400D01*
Y732400D01*
X299990D01*
Y737459D01*
D02*
G37*
G36*
X711200Y746944D02*
X708523Y746591D01*
X706028Y745558D01*
X703886Y743914D01*
X702242Y741772D01*
X701209Y739277D01*
X700856Y736600D01*
X701209Y733923D01*
X702242Y731428D01*
X703886Y729286D01*
X706028Y727642D01*
X708523Y726609D01*
X711200Y726256D01*
X713877Y726609D01*
X716372Y727642D01*
X718514Y729286D01*
X720158Y731428D01*
X721191Y733923D01*
X721544Y736600D01*
X721191Y739277D01*
X720158Y741772D01*
X718514Y743914D01*
X716372Y745558D01*
X713877Y746591D01*
X711200Y746944D01*
D02*
G37*
G36*
X299990Y730400D02*
X293931D01*
Y728400D01*
X294164Y727230D01*
X294827Y726237D01*
X295819Y725574D01*
X296990Y725341D01*
X299990D01*
Y730400D01*
D02*
G37*
G36*
X632730Y726269D02*
X629730D01*
X628559Y726036D01*
X627567Y725373D01*
X627509Y725285D01*
X625981D01*
X625923Y725373D01*
X624930Y726036D01*
X623760Y726269D01*
X620760D01*
Y720210D01*
Y714151D01*
X623760D01*
X624930Y714384D01*
X625923Y715047D01*
X625981Y715135D01*
X627509D01*
X627567Y715047D01*
X628559Y714384D01*
X629730Y714151D01*
X632730D01*
Y720210D01*
Y726269D01*
D02*
G37*
G36*
X419680Y730959D02*
X417680D01*
Y724900D01*
X422739D01*
Y727900D01*
X422506Y729071D01*
X421843Y730063D01*
X420850Y730726D01*
X419680Y730959D01*
D02*
G37*
G36*
X255000Y733855D02*
Y724900D01*
X263955D01*
X263743Y726510D01*
X262735Y728943D01*
X261132Y731032D01*
X259043Y732635D01*
X256611Y733643D01*
X255000Y733855D01*
D02*
G37*
G36*
X253000D02*
X251390Y733643D01*
X248957Y732635D01*
X246868Y731032D01*
X245265Y728943D01*
X244257Y726510D01*
X244045Y724900D01*
X253000D01*
Y733855D01*
D02*
G37*
G36*
X400320Y731703D02*
X394570D01*
X393107Y731412D01*
X391866Y730584D01*
X391038Y729343D01*
X390747Y727880D01*
Y723630D01*
X400320D01*
Y731703D01*
D02*
G37*
G36*
X637730Y726269D02*
X634730D01*
Y721210D01*
X640789D01*
Y723210D01*
X640556Y724380D01*
X639893Y725373D01*
X638900Y726036D01*
X637730Y726269D01*
D02*
G37*
G36*
X604790Y726269D02*
X601790D01*
X600620Y726036D01*
X599627Y725373D01*
X598964Y724380D01*
X598731Y723210D01*
Y721210D01*
X604790D01*
Y726269D01*
D02*
G37*
G36*
X408070Y731703D02*
X402320D01*
Y722630D01*
Y713557D01*
X408070D01*
X409533Y713848D01*
X410774Y714676D01*
X411602Y715917D01*
X411644Y716125D01*
X411800Y716296D01*
X413104Y716956D01*
X413680Y716841D01*
X415680D01*
Y723900D01*
Y730959D01*
X413680D01*
X412509Y730726D01*
X411517Y730063D01*
X410782Y730571D01*
X410774Y730584D01*
X409533Y731412D01*
X408070Y731703D01*
D02*
G37*
G36*
X604790Y719210D02*
X598731D01*
Y717210D01*
X598964Y716040D01*
X599627Y715047D01*
X600620Y714384D01*
X601790Y714151D01*
X604790D01*
Y719210D01*
D02*
G37*
G36*
X640789D02*
X634730D01*
Y714151D01*
X637730D01*
X638900Y714384D01*
X639893Y715047D01*
X640556Y716040D01*
X640789Y717210D01*
Y719210D01*
D02*
G37*
G36*
X609790Y726269D02*
X606790D01*
Y720210D01*
Y714151D01*
X609790D01*
X610961Y714384D01*
X611953Y715047D01*
X612011Y715135D01*
X613539D01*
X613597Y715047D01*
X614590Y714384D01*
X615760Y714151D01*
X618760D01*
Y720210D01*
Y726269D01*
X615760D01*
X614590Y726036D01*
X613597Y725373D01*
X613539Y725285D01*
X612011D01*
X611953Y725373D01*
X610961Y726036D01*
X609790Y726269D01*
D02*
G37*
G36*
X263955Y722900D02*
X255000D01*
Y713945D01*
X256611Y714157D01*
X259043Y715165D01*
X261132Y716768D01*
X262735Y718857D01*
X263743Y721290D01*
X263955Y722900D01*
D02*
G37*
G36*
X253000D02*
X244045D01*
X244257Y721290D01*
X245265Y718857D01*
X246868Y716768D01*
X248957Y715165D01*
X251390Y714157D01*
X253000Y713945D01*
Y722900D01*
D02*
G37*
G36*
X400320Y721630D02*
X390747D01*
Y717380D01*
X391038Y715917D01*
X391866Y714676D01*
X393107Y713848D01*
X394570Y713557D01*
X400320D01*
Y721630D01*
D02*
G37*
G36*
X711200Y721544D02*
X708523Y721191D01*
X706028Y720158D01*
X703886Y718514D01*
X702242Y716372D01*
X701209Y713877D01*
X700856Y711200D01*
X701209Y708523D01*
X702242Y706028D01*
X703886Y703886D01*
X706028Y702242D01*
X708523Y701209D01*
X711200Y700856D01*
X713877Y701209D01*
X716372Y702242D01*
X718514Y703886D01*
X720158Y706028D01*
X721191Y708523D01*
X721544Y711200D01*
X721191Y713877D01*
X720158Y716372D01*
X718514Y718514D01*
X716372Y720158D01*
X713877Y721191D01*
X711200Y721544D01*
D02*
G37*
G36*
X419100Y701058D02*
X417149Y700670D01*
X415925Y699852D01*
X414701Y700670D01*
X412750Y701058D01*
X410799Y700670D01*
X409145Y699565D01*
X408040Y697911D01*
X407652Y695960D01*
X408040Y694009D01*
X409145Y692355D01*
X410799Y691250D01*
X412750Y690862D01*
X414701Y691250D01*
X415925Y692068D01*
X417149Y691250D01*
X419100Y690862D01*
X421051Y691250D01*
X422705Y692355D01*
X423810Y694009D01*
X424198Y695960D01*
X423810Y697911D01*
X422705Y699565D01*
X421051Y700670D01*
X419100Y701058D01*
D02*
G37*
G36*
X558110Y701749D02*
X556110D01*
Y695690D01*
X561169D01*
Y698690D01*
X560936Y699861D01*
X560273Y700853D01*
X559281Y701516D01*
X558110Y701749D01*
D02*
G37*
G36*
X631020Y708690D02*
X623020D01*
Y695690D01*
X631020D01*
Y708690D01*
D02*
G37*
G36*
X621020D02*
X613020D01*
Y695690D01*
X621020D01*
Y708690D01*
D02*
G37*
G36*
X1056100Y705377D02*
X1042300D01*
Y691550D01*
X1070795D01*
X1070422Y694388D01*
X1068940Y697963D01*
X1066584Y701034D01*
X1063513Y703391D01*
X1059937Y704872D01*
X1056100Y705377D01*
D02*
G37*
G36*
X776700D02*
X762900D01*
Y691550D01*
X791395D01*
X791022Y694388D01*
X789540Y697963D01*
X787184Y701034D01*
X784113Y703391D01*
X780537Y704872D01*
X776700Y705377D01*
D02*
G37*
G36*
X760900D02*
X747100D01*
X743263Y704872D01*
X739687Y703391D01*
X736616Y701034D01*
X734260Y697963D01*
X732778Y694388D01*
X732405Y691550D01*
X760900D01*
Y705377D01*
D02*
G37*
G36*
X561169Y693690D02*
X556110D01*
Y687631D01*
X558110D01*
X559281Y687864D01*
X560273Y688527D01*
X560936Y689520D01*
X561169Y690690D01*
Y693690D01*
D02*
G37*
G36*
X343830Y689180D02*
X339330D01*
Y681680D01*
X343830D01*
Y689180D01*
D02*
G37*
G36*
X631020Y693690D02*
X623020D01*
Y680690D01*
X631020D01*
Y693690D01*
D02*
G37*
G36*
X621020D02*
X613020D01*
Y680690D01*
X621020D01*
Y693690D01*
D02*
G37*
G36*
X264000Y699610D02*
X244000D01*
Y679610D01*
X264000D01*
Y699610D01*
D02*
G37*
G36*
X1070795Y689550D02*
X1042300D01*
Y675723D01*
X1056100D01*
X1059937Y676228D01*
X1063513Y677710D01*
X1066584Y680066D01*
X1068940Y683137D01*
X1070422Y686713D01*
X1070795Y689550D01*
D02*
G37*
G36*
X791395D02*
X762900D01*
Y675723D01*
X776700D01*
X780537Y676228D01*
X784113Y677710D01*
X787184Y680066D01*
X789540Y683137D01*
X791022Y686713D01*
X791395Y689550D01*
D02*
G37*
G36*
X760900D02*
X732405D01*
X732778Y686713D01*
X734260Y683137D01*
X736616Y680066D01*
X739687Y677710D01*
X743263Y676228D01*
X747100Y675723D01*
X760900D01*
Y689550D01*
D02*
G37*
G36*
X313280Y669528D02*
X311657Y669205D01*
X310990Y668759D01*
X310030Y668384D01*
X309070Y668759D01*
X308403Y669205D01*
X307780Y669329D01*
Y657176D01*
X305780D01*
Y669329D01*
X305157Y669205D01*
X304490Y668759D01*
X303530Y668384D01*
X302570Y668759D01*
X301903Y669205D01*
X301280Y669329D01*
Y657176D01*
Y644287D01*
X301596Y643791D01*
X301401Y642810D01*
Y639810D01*
X307460D01*
X313519D01*
Y642810D01*
X313359Y643612D01*
X313911Y644725D01*
X314136Y644994D01*
X314903Y645146D01*
X316278Y646066D01*
X317198Y647441D01*
X317521Y649064D01*
Y665287D01*
X317198Y666910D01*
X316278Y668286D01*
X314903Y669205D01*
X313280Y669528D01*
D02*
G37*
G36*
X397510Y665748D02*
X395949Y665438D01*
X394626Y664554D01*
X393742Y663231D01*
X393432Y661670D01*
X393742Y660109D01*
X394626Y658786D01*
X395949Y657902D01*
X397510Y657592D01*
X399071Y657902D01*
X400394Y658786D01*
X401278Y660109D01*
X401588Y661670D01*
X401278Y663231D01*
X400394Y664554D01*
X399071Y665438D01*
X397510Y665748D01*
D02*
G37*
G36*
X254000Y674296D02*
X251390Y673953D01*
X248957Y672945D01*
X246868Y671342D01*
X245265Y669253D01*
X244257Y666821D01*
X243914Y664210D01*
X244257Y661600D01*
X245265Y659167D01*
X246868Y657078D01*
X248957Y655475D01*
X251390Y654467D01*
X254000Y654124D01*
X256611Y654467D01*
X259043Y655475D01*
X261132Y657078D01*
X262735Y659167D01*
X263743Y661600D01*
X264086Y664210D01*
X263743Y666821D01*
X262735Y669253D01*
X261132Y671342D01*
X259043Y672945D01*
X256611Y673953D01*
X254000Y674296D01*
D02*
G37*
G36*
X382460Y656419D02*
X374460D01*
X373289Y656186D01*
X372297Y655523D01*
X371943Y654993D01*
X371131Y654008D01*
X369570Y654318D01*
X368009Y654008D01*
X366686Y653124D01*
X365802Y651801D01*
X365492Y650240D01*
X365802Y648679D01*
X366686Y647356D01*
X368009Y646472D01*
X369570Y646162D01*
X371131Y646472D01*
X372054Y645561D01*
X372297Y645197D01*
X373289Y644534D01*
X374460Y644301D01*
X382460D01*
X383630Y644534D01*
X384623Y645197D01*
X385286Y646189D01*
X385519Y647360D01*
Y653360D01*
X385286Y654530D01*
X384623Y655523D01*
X383630Y656186D01*
X382460Y656419D01*
D02*
G37*
G36*
X333449Y656980D02*
X327390D01*
Y651921D01*
X330390D01*
X331561Y652154D01*
X332553Y652817D01*
X333216Y653810D01*
X333449Y654980D01*
Y656980D01*
D02*
G37*
G36*
X325390D02*
X319331D01*
Y654980D01*
X319564Y653810D01*
X320227Y652817D01*
X321219Y652154D01*
X322390Y651921D01*
X325390D01*
Y656980D01*
D02*
G37*
G36*
X673270Y660813D02*
X669020D01*
Y651240D01*
X677093D01*
Y656990D01*
X676802Y658453D01*
X675974Y659694D01*
X674733Y660522D01*
X673270Y660813D01*
D02*
G37*
G36*
X667020D02*
X662770D01*
X661307Y660522D01*
X660066Y659694D01*
X659238Y658453D01*
X658947Y656990D01*
Y651240D01*
X667020D01*
Y660813D01*
D02*
G37*
G36*
X711200Y670743D02*
X708523Y670391D01*
X706028Y669358D01*
X703886Y667714D01*
X702242Y665572D01*
X701209Y663077D01*
X700856Y660400D01*
X701209Y657723D01*
X702242Y655228D01*
X703886Y653086D01*
X706028Y651442D01*
X708523Y650409D01*
X711200Y650057D01*
X713877Y650409D01*
X716372Y651442D01*
X718514Y653086D01*
X720158Y655228D01*
X721191Y657723D01*
X721544Y660400D01*
X721191Y663077D01*
X720158Y665572D01*
X718514Y667714D01*
X716372Y669358D01*
X713877Y670391D01*
X711200Y670743D01*
D02*
G37*
G36*
X325460Y645869D02*
X323460D01*
Y639810D01*
X328519D01*
Y642810D01*
X328286Y643980D01*
X327623Y644973D01*
X326631Y645636D01*
X325460Y645869D01*
D02*
G37*
G36*
X321460D02*
X319460D01*
X318290Y645636D01*
X317297Y644973D01*
X316634Y643980D01*
X316401Y642810D01*
Y639810D01*
X321460D01*
Y645869D01*
D02*
G37*
G36*
X328519Y637810D02*
X323460D01*
Y631751D01*
X325460D01*
X326631Y631984D01*
X327623Y632647D01*
X328286Y633639D01*
X328519Y634810D01*
Y637810D01*
D02*
G37*
G36*
X321460D02*
X316401D01*
Y634810D01*
X316634Y633639D01*
X317297Y632647D01*
X318290Y631984D01*
X319460Y631751D01*
X321460D01*
Y637810D01*
D02*
G37*
G36*
X313519D02*
X308460D01*
Y631751D01*
X310460D01*
X311630Y631984D01*
X312623Y632647D01*
X313286Y633639D01*
X313519Y634810D01*
Y637810D01*
D02*
G37*
G36*
X306460D02*
X301401D01*
Y634810D01*
X301634Y633639D01*
X302297Y632647D01*
X303290Y631984D01*
X304460Y631751D01*
X306460D01*
Y637810D01*
D02*
G37*
G36*
X597170Y632610D02*
X591111D01*
Y630610D01*
X591344Y629440D01*
X592007Y628447D01*
X592999Y627784D01*
X594170Y627551D01*
X597170D01*
Y632610D01*
D02*
G37*
G36*
X306070Y617238D02*
X304119Y616850D01*
X302895Y616032D01*
X301671Y616850D01*
X299720Y617238D01*
X297769Y616850D01*
X296545Y616032D01*
X295321Y616850D01*
X293370Y617238D01*
X291419Y616850D01*
X289765Y615745D01*
X288660Y614091D01*
X288272Y612140D01*
X288660Y610189D01*
X289765Y608535D01*
X291419Y607430D01*
X293370Y607042D01*
X295321Y607430D01*
X296545Y608248D01*
X297769Y607430D01*
X299720Y607042D01*
X301671Y607430D01*
X302895Y608248D01*
X304119Y607430D01*
X306070Y607042D01*
X308021Y607430D01*
X309675Y608535D01*
X310780Y610189D01*
X311168Y612140D01*
X310780Y614091D01*
X309675Y615745D01*
X308021Y616850D01*
X306070Y617238D01*
D02*
G37*
G36*
X578040Y624669D02*
X570040D01*
X568870Y624436D01*
X567877Y623773D01*
X567214Y622780D01*
X566981Y621610D01*
Y615610D01*
X567214Y614440D01*
X567877Y613447D01*
X567945Y613402D01*
X568110Y612200D01*
X568110Y612200D01*
Y597700D01*
X578610D01*
Y612200D01*
X579545Y613008D01*
X580203Y613447D01*
X580866Y614440D01*
X581099Y615610D01*
Y621610D01*
X580866Y622780D01*
X580203Y623773D01*
X579211Y624436D01*
X578040Y624669D01*
D02*
G37*
G36*
X557110Y603950D02*
X552860D01*
Y597700D01*
X557110D01*
Y603950D01*
D02*
G37*
G36*
X550860D02*
X546610D01*
Y597700D01*
X550860D01*
Y603950D01*
D02*
G37*
G36*
X424600Y609170D02*
X413600D01*
X408100Y603670D01*
Y592670D01*
X413600Y587170D01*
X424600D01*
X430100Y592670D01*
Y603670D01*
X424600Y609170D01*
D02*
G37*
G36*
X393700Y609265D02*
X390828Y608887D01*
X388153Y607779D01*
X385855Y606015D01*
X384091Y603717D01*
X382983Y601042D01*
X382605Y598170D01*
X382983Y595298D01*
X384091Y592622D01*
X385855Y590325D01*
X388153Y588562D01*
X390828Y587453D01*
X393700Y587075D01*
X396572Y587453D01*
X399248Y588562D01*
X401545Y590325D01*
X403308Y592622D01*
X404417Y595298D01*
X404795Y598170D01*
X404417Y601042D01*
X403308Y603717D01*
X401545Y606015D01*
X399248Y607779D01*
X396572Y608887D01*
X393700Y609265D01*
D02*
G37*
G36*
X368300D02*
X365428Y608887D01*
X362752Y607779D01*
X360455Y606015D01*
X358691Y603717D01*
X357583Y601042D01*
X357205Y598170D01*
X357583Y595298D01*
X358691Y592622D01*
X360455Y590325D01*
X362752Y588562D01*
X365428Y587453D01*
X368300Y587075D01*
X371172Y587453D01*
X373848Y588562D01*
X376145Y590325D01*
X377909Y592622D01*
X379017Y595298D01*
X379395Y598170D01*
X379017Y601042D01*
X377909Y603717D01*
X376145Y606015D01*
X373848Y607779D01*
X371172Y608887D01*
X368300Y609265D01*
D02*
G37*
G36*
X394700Y583733D02*
Y573770D01*
X404663D01*
X404417Y575642D01*
X403308Y578317D01*
X401545Y580615D01*
X399248Y582379D01*
X396572Y583487D01*
X394700Y583733D01*
D02*
G37*
G36*
X392700D02*
X390828Y583487D01*
X388153Y582379D01*
X385855Y580615D01*
X384091Y578317D01*
X382983Y575642D01*
X382737Y573770D01*
X392700D01*
Y583733D01*
D02*
G37*
G36*
X1051480Y602250D02*
Y571230D01*
X1082500D01*
X1082184Y575251D01*
X1081008Y580149D01*
X1079080Y584802D01*
X1076449Y589097D01*
X1073177Y592927D01*
X1069347Y596198D01*
X1065053Y598830D01*
X1060399Y600758D01*
X1055501Y601934D01*
X1051480Y602250D01*
D02*
G37*
G36*
X1049480D02*
X1045459Y601934D01*
X1040561Y600758D01*
X1035907Y598830D01*
X1031613Y596198D01*
X1027783Y592927D01*
X1024511Y589097D01*
X1021880Y584802D01*
X1019952Y580149D01*
X1018776Y575251D01*
X1018460Y571230D01*
X1049480D01*
Y602250D01*
D02*
G37*
G36*
X261350D02*
Y571230D01*
X292370D01*
X292054Y575251D01*
X290878Y580149D01*
X288950Y584802D01*
X286319Y589097D01*
X283047Y592927D01*
X279217Y596198D01*
X274923Y598830D01*
X270269Y600758D01*
X265371Y601934D01*
X261350Y602250D01*
D02*
G37*
G36*
X259350D02*
X255329Y601934D01*
X250431Y600758D01*
X245777Y598830D01*
X241483Y596198D01*
X237653Y592927D01*
X234381Y589097D01*
X231750Y584802D01*
X229822Y580149D01*
X228646Y575251D01*
X228330Y571230D01*
X259350D01*
Y602250D01*
D02*
G37*
G36*
X404663Y571770D02*
X394700D01*
Y561807D01*
X396572Y562053D01*
X399248Y563162D01*
X401545Y564925D01*
X403308Y567223D01*
X404417Y569898D01*
X404663Y571770D01*
D02*
G37*
G36*
X392700D02*
X382737D01*
X382983Y569898D01*
X384091Y567223D01*
X385855Y564925D01*
X388153Y563162D01*
X390828Y562053D01*
X392700Y561807D01*
Y571770D01*
D02*
G37*
G36*
X419100Y583865D02*
X416228Y583487D01*
X413553Y582379D01*
X411255Y580615D01*
X409492Y578317D01*
X408383Y575642D01*
X408005Y572770D01*
X408383Y569898D01*
X409492Y567223D01*
X411255Y564925D01*
X413553Y563162D01*
X416228Y562053D01*
X419100Y561675D01*
X421972Y562053D01*
X424647Y563162D01*
X426945Y564925D01*
X428708Y567223D01*
X429817Y569898D01*
X430195Y572770D01*
X429817Y575642D01*
X428708Y578317D01*
X426945Y580615D01*
X424647Y582379D01*
X421972Y583487D01*
X419100Y583865D01*
D02*
G37*
G36*
X368300D02*
X365428Y583487D01*
X362752Y582379D01*
X360455Y580615D01*
X358691Y578317D01*
X357583Y575642D01*
X357205Y572770D01*
X357583Y569898D01*
X358691Y567223D01*
X360455Y564925D01*
X362752Y563162D01*
X365428Y562053D01*
X368300Y561675D01*
X371172Y562053D01*
X373848Y563162D01*
X376145Y564925D01*
X377909Y567223D01*
X379017Y569898D01*
X379395Y572770D01*
X379017Y575642D01*
X377909Y578317D01*
X376145Y580615D01*
X373848Y582379D01*
X371172Y583487D01*
X368300Y583865D01*
D02*
G37*
G36*
X1082500Y569230D02*
X1051480D01*
Y538210D01*
X1055501Y538526D01*
X1060399Y539702D01*
X1065053Y541629D01*
X1069347Y544261D01*
X1073177Y547532D01*
X1076449Y551362D01*
X1079080Y555657D01*
X1081008Y560311D01*
X1082184Y565208D01*
X1082500Y569230D01*
D02*
G37*
G36*
X1049480D02*
X1018460D01*
X1018776Y565208D01*
X1019952Y560311D01*
X1021880Y555657D01*
X1024511Y551362D01*
X1027783Y547532D01*
X1031613Y544261D01*
X1035907Y541629D01*
X1040561Y539702D01*
X1045459Y538526D01*
X1049480Y538210D01*
Y569230D01*
D02*
G37*
G36*
X292370D02*
X261350D01*
Y538210D01*
X265371Y538526D01*
X270269Y539702D01*
X274923Y541629D01*
X279217Y544261D01*
X283047Y547532D01*
X286319Y551362D01*
X288950Y555657D01*
X290878Y560311D01*
X292054Y565208D01*
X292370Y569230D01*
D02*
G37*
G36*
X259350D02*
X228330D01*
X228646Y565208D01*
X229822Y560311D01*
X231750Y555657D01*
X234381Y551362D01*
X237653Y547532D01*
X241483Y544261D01*
X245777Y541629D01*
X250431Y539702D01*
X255329Y538526D01*
X259350Y538210D01*
Y569230D01*
D02*
G37*
%LPD*%
G36*
X508424Y1045792D02*
X508845Y1044691D01*
X508404Y1044031D01*
X508171Y1042860D01*
Y1034860D01*
X508404Y1033689D01*
X509067Y1032697D01*
X510060Y1032034D01*
X510781Y1031890D01*
Y1026779D01*
X510060Y1026636D01*
X509067Y1025973D01*
X508404Y1024980D01*
X508171Y1023810D01*
Y1015810D01*
X508404Y1014640D01*
X509067Y1013647D01*
X510060Y1012984D01*
X510781Y1012840D01*
Y1007699D01*
X510582Y1007401D01*
X510272Y1005840D01*
X510582Y1004279D01*
X511466Y1002956D01*
X512364Y1002356D01*
X512698Y1000894D01*
X508502Y996698D01*
X507329Y997184D01*
Y1001950D01*
X507096Y1003120D01*
X506433Y1004113D01*
X506433Y1004113D01*
X501273Y1009273D01*
X500280Y1009936D01*
X499110Y1010169D01*
X499110Y1010169D01*
X476247D01*
X475499Y1010917D01*
Y1012751D01*
X475560D01*
X476730Y1012984D01*
X477723Y1013647D01*
X478386Y1014640D01*
X478619Y1015810D01*
Y1023810D01*
X478386Y1024980D01*
X477723Y1025973D01*
X476730Y1026636D01*
X475560Y1026869D01*
X469560D01*
X468390Y1026636D01*
X467397Y1025973D01*
X466734Y1024980D01*
X466501Y1023810D01*
Y1022869D01*
X455930D01*
X454759Y1022636D01*
X453767Y1021973D01*
X453767Y1021973D01*
X444958Y1013164D01*
X443755Y1013757D01*
X443883Y1014730D01*
X443552Y1017241D01*
X442583Y1019582D01*
X441041Y1021591D01*
X439073Y1023101D01*
X439060Y1023226D01*
X439362Y1024371D01*
X443230D01*
X443230Y1024371D01*
X444400Y1024604D01*
X445393Y1025267D01*
X455927Y1035801D01*
X466501D01*
Y1034860D01*
X466734Y1033689D01*
X467397Y1032697D01*
X468390Y1032034D01*
X469560Y1031801D01*
X475560D01*
X476730Y1032034D01*
X477723Y1032697D01*
X478386Y1033689D01*
X478619Y1034860D01*
Y1042860D01*
X478386Y1044031D01*
X477944Y1044691D01*
X478366Y1045792D01*
X478507Y1045961D01*
X481613D01*
X481754Y1045792D01*
X482175Y1044691D01*
X481734Y1044031D01*
X481501Y1042860D01*
Y1034860D01*
X481734Y1033689D01*
X482397Y1032697D01*
X483390Y1032034D01*
X484560Y1031801D01*
X490560D01*
X491730Y1032034D01*
X492723Y1032697D01*
X494067D01*
X495060Y1032034D01*
X496230Y1031801D01*
X502230D01*
X503400Y1032034D01*
X504393Y1032697D01*
X505056Y1033689D01*
X505289Y1034860D01*
Y1042860D01*
X505056Y1044031D01*
X504614Y1044691D01*
X505036Y1045792D01*
X505177Y1045961D01*
X508283D01*
X508424Y1045792D01*
D02*
G37*
G36*
X642101Y664213D02*
Y660813D01*
X639910D01*
X638447Y660522D01*
X637206Y659694D01*
X636378Y658453D01*
X636087Y656990D01*
Y643490D01*
X636378Y642027D01*
X637206Y640786D01*
X638447Y639958D01*
X638476Y639952D01*
X638703Y639437D01*
X638868Y638579D01*
X638334Y637780D01*
X638101Y636610D01*
Y630610D01*
X638334Y629440D01*
X638997Y628447D01*
X639990Y627784D01*
X641160Y627551D01*
X649160D01*
X650331Y627784D01*
X651323Y628447D01*
X651986Y629440D01*
X652156Y630296D01*
X654546D01*
Y557633D01*
X652777Y555864D01*
X652221D01*
X651090Y556200D01*
X651090Y557134D01*
Y570700D01*
X640590D01*
X640590Y556200D01*
X639459Y555864D01*
X626731D01*
X625600Y556200D01*
Y569081D01*
X625990D01*
X627356Y569353D01*
X628513Y570127D01*
X634983Y576597D01*
X635757Y577754D01*
X636029Y579120D01*
Y615041D01*
X638214D01*
X638334Y614440D01*
X638997Y613447D01*
X639655Y613008D01*
X640070Y612649D01*
X640590Y611774D01*
X640590Y605950D01*
X645840D01*
X651090D01*
Y611764D01*
X651090Y612200D01*
X651255Y613402D01*
X651323Y613447D01*
X651986Y614440D01*
X652219Y615610D01*
Y621610D01*
X651986Y622780D01*
X651323Y623773D01*
X650331Y624436D01*
X649160Y624669D01*
X641160D01*
X639990Y624436D01*
X638997Y623773D01*
X638334Y622780D01*
X638214Y622179D01*
X636029D01*
Y631190D01*
X635757Y632556D01*
X634983Y633713D01*
X632563Y636133D01*
X631406Y636907D01*
X630040Y637179D01*
X627976D01*
X627856Y637780D01*
X627322Y638579D01*
X627487Y639437D01*
X627714Y639952D01*
X627743Y639958D01*
X628984Y640786D01*
X629812Y642027D01*
X630103Y643490D01*
Y649240D01*
X621030D01*
Y650240D01*
X620030D01*
Y660813D01*
X615780D01*
X614317Y660522D01*
X613076Y659694D01*
X612248Y658453D01*
X611957Y656990D01*
Y653398D01*
X611377Y653065D01*
X610687Y652875D01*
X609696Y653537D01*
X608330Y653809D01*
X607243D01*
Y656990D01*
X606952Y658453D01*
X606124Y659694D01*
X604883Y660522D01*
X603420Y660813D01*
X602068D01*
X601229Y661670D01*
X600996Y662840D01*
X600428Y663691D01*
X600683Y664678D01*
X600800Y664961D01*
X641353D01*
X642101Y664213D01*
D02*
G37*
%LPC*%
G36*
X502230Y1026869D02*
X496230D01*
X495060Y1026636D01*
X494067Y1025973D01*
X492723D01*
X491730Y1026636D01*
X490560Y1026869D01*
X484560D01*
X483390Y1026636D01*
X482397Y1025973D01*
X481734Y1024980D01*
X481501Y1023810D01*
Y1015810D01*
X481734Y1014640D01*
X482397Y1013647D01*
X483390Y1012984D01*
X484560Y1012751D01*
X490560D01*
X491730Y1012984D01*
X492723Y1013647D01*
X494067D01*
X495060Y1012984D01*
X496230Y1012751D01*
X502230D01*
X503400Y1012984D01*
X504393Y1013647D01*
X505056Y1014640D01*
X505289Y1015810D01*
Y1023810D01*
X505056Y1024980D01*
X504393Y1025973D01*
X503400Y1026636D01*
X502230Y1026869D01*
D02*
G37*
G36*
X626280Y660813D02*
X622030D01*
Y651240D01*
X630103D01*
Y656990D01*
X629812Y658453D01*
X628984Y659694D01*
X627743Y660522D01*
X626280Y660813D01*
D02*
G37*
G36*
X651090Y603950D02*
X646840D01*
Y597700D01*
X651090D01*
Y603950D01*
D02*
G37*
G36*
X644840D02*
X640590D01*
Y597700D01*
X644840D01*
Y603950D01*
D02*
G37*
%LPD*%
D10*
X365760Y707510D02*
Y713740D01*
X364490Y706240D02*
X365760Y707510D01*
X364490Y706240D02*
X365880Y704850D01*
X380880Y698380D02*
Y704850D01*
X378180Y695680D02*
X380880Y698380D01*
X366330Y695680D02*
X378180D01*
X363830Y693180D02*
X366330Y695680D01*
X363830Y690180D02*
Y693180D01*
X379610Y706120D02*
X380305Y705425D01*
X388283Y782560D02*
X433270D01*
X379610Y773887D02*
X388283Y782560D01*
X379610Y706120D02*
Y773887D01*
X364530Y665480D02*
X378580D01*
X383610Y716210D02*
X388620Y711200D01*
Y697230D02*
Y711200D01*
X379730Y688340D02*
X388620Y697230D01*
X564270Y891930D02*
X566420Y894080D01*
X544830Y671830D02*
Y703580D01*
X539270Y667230D02*
Y721560D01*
X544830Y671830D02*
X548640Y668020D01*
X539270Y667230D02*
X543560Y662940D01*
X556260Y752605D02*
Y753110D01*
Y752605D02*
X556643Y752223D01*
X596660Y782560D02*
X600710Y778510D01*
X585270Y782560D02*
X596660D01*
X439420Y1097280D02*
X454660D01*
Y1085850D02*
Y1097280D01*
X625990Y836810D02*
X626110Y836930D01*
X625220Y836040D02*
X625990Y836810D01*
X604900Y836040D02*
X625220D01*
X537210Y830580D02*
X552450D01*
X534270Y833520D02*
X537210Y830580D01*
X534270Y833520D02*
Y873560D01*
X544270Y843840D02*
Y873560D01*
Y843840D02*
X546100Y842010D01*
X554270Y854701D02*
Y873560D01*
X568960Y850900D02*
X569270Y851210D01*
Y873560D01*
X586740Y862330D02*
X600710D01*
X585270Y860860D02*
X586740Y862330D01*
X585270Y857560D02*
Y860860D01*
X597290Y852560D02*
X600710Y855980D01*
X585270Y852560D02*
X597290D01*
X600169Y848360D02*
X600710D01*
X599369Y847560D02*
X600169Y848360D01*
X585270Y847560D02*
X599369D01*
X564270Y856370D02*
Y873560D01*
X563880Y855980D02*
X564270Y856370D01*
X549270Y849000D02*
Y873560D01*
Y849000D02*
X551180Y847090D01*
X610990Y843400D02*
Y844550D01*
X610150Y842560D02*
X610990Y843400D01*
X585270Y842560D02*
X610150D01*
X539270Y838680D02*
X542290Y835660D01*
X539270Y838680D02*
Y873560D01*
X625390Y752560D02*
X626110Y751840D01*
X605790Y735210D02*
Y740410D01*
X603640Y742560D02*
X605790Y740410D01*
X585270Y742560D02*
X603640D01*
X615150Y747560D02*
X619693Y743017D01*
X585270Y747560D02*
X615150D01*
X619693Y735277D02*
Y743017D01*
X632000Y738210D02*
Y745950D01*
X626745Y751205D02*
X632000Y745950D01*
X585270Y752560D02*
X625390D01*
X566420Y805180D02*
X566961D01*
X633028Y735912D02*
Y737182D01*
Y735912D02*
X633730Y735210D01*
X632000Y738210D02*
X633028Y737182D01*
X619693Y735277D02*
X619760Y735210D01*
X604520Y762000D02*
Y762560D01*
X547370Y751840D02*
Y754380D01*
X548770Y722060D02*
Y742820D01*
X542290Y749300D02*
X548770Y742820D01*
X534670Y749300D02*
X542290D01*
X547370Y751840D02*
X564270Y734940D01*
Y721560D02*
Y734940D01*
X416560Y735330D02*
Y741680D01*
X417440Y742560D01*
X433270D01*
X565150Y834390D02*
X566980Y832560D01*
X585270D01*
X568960Y782320D02*
X569200Y782560D01*
X585270D01*
X610450Y827560D02*
X610870Y827980D01*
X585270Y827560D02*
X610450D01*
X569390Y694690D02*
X570110D01*
X569270Y694570D02*
X569390Y694690D01*
X569270Y694570D02*
Y721560D01*
X518160Y625990D02*
Y635000D01*
X519270Y854870D02*
X519430Y854710D01*
X519270Y854870D02*
Y873560D01*
X530860Y626110D02*
Y640080D01*
X524270Y646670D02*
X530860Y640080D01*
X524270Y646670D02*
Y721560D01*
X519270Y646270D02*
Y721560D01*
X505460Y632460D02*
X519270Y646270D01*
X505460Y626110D02*
Y632460D01*
X539750Y742950D02*
X541020D01*
X544270Y739700D01*
X467360Y646430D02*
Y646692D01*
X464270Y672550D02*
Y721560D01*
X459270Y659600D02*
Y721560D01*
X469270Y648602D02*
Y721560D01*
X454270Y684920D02*
X454660Y684530D01*
X454270Y684920D02*
Y721560D01*
X566961Y805180D02*
X569581Y802560D01*
X544270Y721560D02*
Y739700D01*
X645160Y650240D02*
Y665480D01*
X642620Y668020D02*
X645160Y665480D01*
X548640Y668020D02*
X642620D01*
X543560Y662940D02*
X596900D01*
X569581Y802560D02*
X585270D01*
X596900Y662940D02*
X598170Y661670D01*
Y650240D02*
Y661670D01*
X344170Y1013460D02*
Y1019810D01*
X414020Y1027430D02*
X443230D01*
X405130Y1018540D02*
X414020Y1027430D01*
X378460Y1018540D02*
X405130D01*
X370840Y1010920D02*
X378460Y1018540D01*
X346710Y1010920D02*
X370840D01*
X344170Y1013460D02*
X346710Y1010920D01*
X367030Y1065530D02*
X440690D01*
X359410Y1057910D02*
X367030Y1065530D01*
X346710Y1090420D02*
Y1095080D01*
X345440Y986530D02*
Y986790D01*
X326390Y976630D02*
X332740D01*
X341750Y985640D01*
X343080D01*
X344080Y986640D01*
X472440Y1009650D02*
Y1019810D01*
X472560D01*
X455930D02*
X472440D01*
X346590Y985640D02*
X353060Y979170D01*
X346330Y985640D02*
X346590D01*
X345440Y986530D02*
X346330Y985640D01*
X353060Y979170D02*
X402590D01*
X425450Y1002030D01*
X438150D01*
X455930Y1019810D01*
X443230Y1027430D02*
X454660Y1038860D01*
X472560D01*
X504270Y873560D02*
Y1001950D01*
X472440Y1009650D02*
X474980Y1007110D01*
X499110D01*
X504270Y1001950D01*
X472560Y1038860D02*
Y1046600D01*
X474980Y1049020D01*
X519430D01*
X521970Y1046480D01*
Y1005840D02*
Y1046480D01*
X509270Y993140D02*
X521970Y1005840D01*
X509270Y873560D02*
Y993140D01*
X440690Y1127760D02*
X454780D01*
X454780Y1127760D01*
X369316Y1138174D02*
Y1147064D01*
X367538Y1148842D02*
X369316Y1147064D01*
X343408Y1148842D02*
X367538D01*
X341550Y1146984D02*
X343408Y1148842D01*
X341550Y1137580D02*
Y1146984D01*
X306705Y881380D02*
X307340Y880745D01*
X298450Y880110D02*
X316230D01*
X306705Y777995D02*
X307022Y777678D01*
X294640Y876300D02*
X298450Y880110D01*
X294640Y779780D02*
Y876300D01*
Y779780D02*
X297060Y777360D01*
X306070D01*
X564270Y873560D02*
Y891930D01*
X559079Y873751D02*
Y886181D01*
X551270Y893990D02*
X559079Y886181D01*
X551270Y893990D02*
Y894110D01*
X559079Y873751D02*
X559270Y873560D01*
X449270D02*
Y895040D01*
X449580Y895350D01*
X563880Y708660D02*
X564270Y709050D01*
X563880Y703580D02*
Y708660D01*
X440690Y1120140D02*
Y1127760D01*
X440688D02*
X440690D01*
X438150Y1117600D02*
X440690Y1120140D01*
X433070Y1117600D02*
X438150D01*
X454660Y1097280D02*
X454780D01*
X454660Y1085850D02*
X455930Y1084580D01*
X490220D01*
X369570Y650240D02*
X378340D01*
X585270Y787400D02*
X604520D01*
X601485Y832625D02*
X604900Y836040D01*
X585335Y832625D02*
X601485D01*
X600710Y839470D02*
Y842010D01*
X598987Y837747D02*
X600710Y839470D01*
X585457Y837747D02*
X598987D01*
X585270Y837560D02*
X585457Y837747D01*
X564270Y709050D02*
Y721560D01*
X585270Y832560D02*
X585335Y832625D01*
X378340Y650240D02*
X378460Y650360D01*
X585270Y762560D02*
X604520D01*
X336300Y1095330D02*
X336550Y1095080D01*
X326270Y1080770D02*
X334010D01*
X336550Y1083310D01*
Y1095080D01*
X346710Y1083310D02*
Y1090420D01*
X346550Y1090580D02*
X346710Y1090420D01*
X346550Y1090580D02*
Y1095080D01*
X346710Y1066800D02*
Y1083310D01*
X335280Y1055370D02*
X346710Y1066800D01*
X326270Y1055370D02*
X335280D01*
X464820Y847090D02*
Y847631D01*
X464270Y848181D02*
X464820Y847631D01*
X464270Y848181D02*
Y873560D01*
X433270Y802560D02*
X433350Y802640D01*
X462280D01*
X458310Y807560D02*
X458470Y807720D01*
X433270Y807560D02*
X458310D01*
X585270Y787400D02*
Y787560D01*
X534270Y655720D02*
Y721560D01*
Y655720D02*
X539750Y650240D01*
X551180D01*
X334010Y1165860D02*
X335280Y1167130D01*
Y1155700D02*
Y1165860D01*
X336550Y1137580D02*
Y1154430D01*
X335280Y1155700D02*
X336550Y1154430D01*
X298196Y1167130D02*
X320160D01*
X295910Y1164844D02*
X298196Y1167130D01*
X295910Y1156970D02*
Y1164844D01*
X605790Y734822D02*
Y735210D01*
X605536Y734568D02*
X605790Y734822D01*
X306070Y849510D02*
Y864870D01*
Y792360D02*
Y806450D01*
Y822960D02*
X318770D01*
X306070D02*
Y824036D01*
Y822840D02*
Y822960D01*
Y834390D02*
X318770D01*
X443230Y608330D02*
Y731520D01*
X450850Y739140D01*
X558152Y752223D02*
X558489Y752560D01*
X556643Y752223D02*
X558152D01*
X558489Y752560D02*
X585270D01*
X901600Y644600D02*
X911860Y634340D01*
Y596900D02*
Y634340D01*
X916940Y634540D02*
X927000Y644600D01*
X916940Y601980D02*
Y634540D01*
X814970Y569330D02*
X817880Y566420D01*
X807720Y561340D02*
X810430Y564050D01*
Y634170D01*
X814970Y569330D02*
Y634170D01*
X825400Y644600D01*
X800000D02*
X810430Y634170D01*
X561340Y746760D02*
X561881D01*
X562681Y747560D01*
X585270D01*
X568960Y741680D02*
X569501D01*
X570381Y742560D01*
X585270D01*
X548770Y722060D02*
X549270Y721560D01*
X449270Y588320D02*
X454660Y582930D01*
X474270Y659690D02*
Y721560D01*
X467360Y646692D02*
X469270Y648602D01*
X454660Y582930D02*
X477520D01*
X449270Y588320D02*
Y721560D01*
X450850Y739140D02*
Y749300D01*
X447590Y752560D02*
X450850Y749300D01*
X433270Y752560D02*
X447590D01*
X417190Y757560D02*
X433270D01*
X313746Y699650D02*
X326390D01*
X313280Y699184D02*
X313746Y699650D01*
X379730Y666630D02*
Y688340D01*
X383610Y772160D02*
Y772230D01*
Y716210D02*
Y772160D01*
X389010Y777560D01*
X433270D01*
X378580Y665480D02*
X379730D01*
X378580D02*
X379730Y666630D01*
X378460Y665360D02*
X378580Y665480D01*
X363830Y666180D02*
X364530Y665480D01*
X328230Y666180D02*
X344830D01*
X326390Y668020D02*
X328230Y666180D01*
X326390Y668020D02*
Y672980D01*
Y684650D01*
X306780Y699184D02*
X313280D01*
X403390Y747560D02*
X433270D01*
X401320Y745490D02*
X403390Y747560D01*
X524510Y883507D02*
Y889000D01*
X524461Y883458D02*
X524510Y883507D01*
X524461Y873751D02*
Y883458D01*
X524270Y873560D02*
X524461Y873751D01*
X341550Y1079580D02*
Y1095080D01*
X295910Y1148080D02*
X325120D01*
X326550Y1137580D02*
Y1146650D01*
X325120Y1148080D02*
X326550Y1146650D01*
X331550Y1137580D02*
Y1150540D01*
X299720Y1153160D02*
X328930D01*
X331550Y1150540D01*
X341550Y1079580D02*
X341630Y1079500D01*
Y1071880D02*
Y1079500D01*
X337820Y1068070D02*
X341630Y1071880D01*
X326270Y1068070D02*
X337820D01*
X295910Y1156970D02*
X299720Y1153160D01*
X293370Y1182370D02*
X320160D01*
X289560Y1178560D02*
X293370Y1182370D01*
X289560Y1154430D02*
Y1178560D01*
Y1154430D02*
X295910Y1148080D01*
X458470Y855980D02*
Y856521D01*
X459270Y857321D01*
Y873560D01*
X449260Y817560D02*
X449580Y817880D01*
X433270Y817560D02*
X449260D01*
X443217Y812800D02*
X454660D01*
X443168Y812751D02*
X443217Y812800D01*
X433461Y812751D02*
X443168D01*
X433270Y812560D02*
X433461Y812751D01*
X469900Y857250D02*
Y857791D01*
X469270Y858421D02*
X469900Y857791D01*
X469270Y858421D02*
Y873560D01*
X377190Y816610D02*
X388620D01*
X399570Y827560D01*
X433270D01*
X384810Y822960D02*
X394410Y832560D01*
X433270D01*
X384810Y834390D02*
X387980Y837560D01*
X433270D01*
X381000Y830580D02*
X384810Y834390D01*
X322580Y830580D02*
X381000D01*
X381190Y826580D02*
X384810Y822960D01*
X322390Y826580D02*
X381190D01*
X318770Y822960D02*
X322390Y826580D01*
X318770Y834390D02*
X322580Y830580D01*
X335280Y1167130D02*
X344170D01*
X335280Y1182370D02*
X344170D01*
X306070Y824036D02*
X307022Y824988D01*
D11*
X463450Y552550D02*
X654150D01*
X452120Y563880D02*
X463450Y552550D01*
X489706Y575310D02*
X490066Y574950D01*
X488950Y575310D02*
X489706D01*
X490066Y574950D02*
X505795D01*
X654150Y552550D02*
X657860Y556260D01*
X619760Y605540D02*
Y617340D01*
X621030Y618610D01*
X619760Y605540D02*
X620350Y604950D01*
X657860Y556260D02*
Y633610D01*
X668020D01*
X530860Y588010D02*
Y610990D01*
X518160Y575310D02*
X530860Y588010D01*
X645160Y633610D02*
Y650240D01*
Y633610D02*
X657860D01*
X573360Y604950D02*
Y619170D01*
X668020Y604520D02*
Y618610D01*
X518160Y610990D02*
Y612140D01*
Y593585D02*
Y610990D01*
Y593585D02*
X518295Y593450D01*
X505460Y593785D02*
Y610870D01*
Y593785D02*
X505795Y593450D01*
D17*
X364580Y1032660D02*
D03*
Y1026160D02*
D03*
Y1019660D02*
D03*
X344080D02*
D03*
Y1026160D02*
D03*
Y1032660D02*
D03*
X364580Y999640D02*
D03*
Y993140D02*
D03*
Y986640D02*
D03*
X344080D02*
D03*
Y993140D02*
D03*
Y999640D02*
D03*
D18*
X311270Y1024890D02*
D03*
X326270D02*
D03*
X311270Y991870D02*
D03*
X326270D02*
D03*
X374770Y1042670D02*
D03*
X389770D02*
D03*
X322460Y638810D02*
D03*
X307460D02*
D03*
X354210Y704850D02*
D03*
X339210D02*
D03*
X365880D02*
D03*
X380880D02*
D03*
X326270Y1055370D02*
D03*
X311270D02*
D03*
X326270Y1068070D02*
D03*
X311270D02*
D03*
X326270Y976630D02*
D03*
X311270D02*
D03*
X374770Y995680D02*
D03*
X389770D02*
D03*
X487560Y1038860D02*
D03*
X472560D02*
D03*
X335160Y1167130D02*
D03*
X320160D02*
D03*
X354450Y1137920D02*
D03*
X369450D02*
D03*
X311270Y1080770D02*
D03*
X326270D02*
D03*
X335160Y1182370D02*
D03*
X320160D02*
D03*
X514230Y1019810D02*
D03*
X499230D02*
D03*
X487560D02*
D03*
X472560D02*
D03*
X514230Y1038860D02*
D03*
X499230D02*
D03*
X610990Y844550D02*
D03*
X625990D02*
D03*
X551300Y894080D02*
D03*
X566300D02*
D03*
X431680Y723900D02*
D03*
X416680D02*
D03*
X570110Y694690D02*
D03*
X555110D02*
D03*
X604640Y763270D02*
D03*
X619640D02*
D03*
X604640Y787400D02*
D03*
X619640D02*
D03*
X612260Y828040D02*
D03*
X627260D02*
D03*
X486530Y1127760D02*
D03*
X501530D02*
D03*
X485260Y1097280D02*
D03*
X500260D02*
D03*
X454780Y1127760D02*
D03*
X469780D02*
D03*
X454780Y1097280D02*
D03*
X469780D02*
D03*
D19*
X605790Y720210D02*
D03*
Y735210D02*
D03*
X619760Y735210D02*
D03*
Y720210D02*
D03*
X633730Y735210D02*
D03*
Y720210D02*
D03*
X326390Y684650D02*
D03*
Y699650D02*
D03*
Y672980D02*
D03*
Y657980D02*
D03*
X378460Y650360D02*
D03*
Y665360D02*
D03*
X668020Y633610D02*
D03*
Y618610D02*
D03*
X574040Y633610D02*
D03*
Y618610D02*
D03*
X306070Y864990D02*
D03*
Y879990D02*
D03*
Y777360D02*
D03*
Y792360D02*
D03*
X304800Y1182250D02*
D03*
Y1167250D02*
D03*
X505460Y610990D02*
D03*
Y625990D02*
D03*
X518160Y610990D02*
D03*
Y625990D02*
D03*
X530860Y610990D02*
D03*
Y625990D02*
D03*
X551180Y633610D02*
D03*
Y618610D02*
D03*
X621030Y633610D02*
D03*
Y618610D02*
D03*
X306070Y849510D02*
D03*
Y834510D02*
D03*
Y807840D02*
D03*
Y822840D02*
D03*
X300990Y716400D02*
D03*
Y731400D02*
D03*
X645160Y633610D02*
D03*
Y618610D02*
D03*
X598170Y633610D02*
D03*
Y618610D02*
D03*
D20*
X549270Y721560D02*
D03*
X544270D02*
D03*
X569270Y873560D02*
D03*
X564270D02*
D03*
X559270D02*
D03*
X554270D02*
D03*
X549270D02*
D03*
X544270D02*
D03*
X539270D02*
D03*
X534270D02*
D03*
X529270D02*
D03*
X524270D02*
D03*
X519270D02*
D03*
X514270D02*
D03*
X509270D02*
D03*
X504270D02*
D03*
X499270D02*
D03*
X494270D02*
D03*
X489270D02*
D03*
X484270D02*
D03*
X479270D02*
D03*
X474270D02*
D03*
X469270D02*
D03*
X464270D02*
D03*
X459270D02*
D03*
X454270D02*
D03*
X449270D02*
D03*
Y721560D02*
D03*
X454270D02*
D03*
X459270D02*
D03*
X464270D02*
D03*
X469270D02*
D03*
X474270D02*
D03*
X479270D02*
D03*
X484270D02*
D03*
X489270D02*
D03*
X494270D02*
D03*
X499270D02*
D03*
X504270D02*
D03*
X509270D02*
D03*
X514270D02*
D03*
X519270D02*
D03*
X524270D02*
D03*
X529270D02*
D03*
X534270D02*
D03*
X539270D02*
D03*
X554270D02*
D03*
X559270D02*
D03*
X564270D02*
D03*
X569270D02*
D03*
D21*
X344830Y690180D02*
D03*
X354330D02*
D03*
X363830D02*
D03*
Y666180D02*
D03*
X354330D02*
D03*
X344830D02*
D03*
D22*
X425450Y872490D02*
D03*
X402590D02*
D03*
X551180Y650240D02*
D03*
X574040D02*
D03*
X645160D02*
D03*
X668020D02*
D03*
X598170D02*
D03*
X621030D02*
D03*
X449580Y895350D02*
D03*
X426720D02*
D03*
X614680Y861060D02*
D03*
X637540D02*
D03*
D23*
X293780Y657176D02*
D03*
D24*
X300280D02*
D03*
X306780D02*
D03*
X313280D02*
D03*
Y699184D02*
D03*
X306780D02*
D03*
X300280D02*
D03*
X293780D02*
D03*
D25*
X332740Y722910D02*
D03*
Y757910D02*
D03*
Y846810D02*
D03*
Y811810D02*
D03*
D26*
X367030Y1122680D02*
D03*
Y1099820D02*
D03*
X401320Y722630D02*
D03*
Y745490D02*
D03*
D27*
X346550Y1137580D02*
D03*
X341550D02*
D03*
X336550D02*
D03*
X331550D02*
D03*
X326550D02*
D03*
X346550Y1095080D02*
D03*
X341550D02*
D03*
X336550D02*
D03*
X331550D02*
D03*
X326550D02*
D03*
D28*
X576580Y1074720D02*
D03*
Y1175720D02*
D03*
D29*
X551860Y563450D02*
D03*
Y604950D02*
D03*
X573360Y563450D02*
D03*
Y604950D02*
D03*
X645840Y563450D02*
D03*
Y604950D02*
D03*
X667340Y563450D02*
D03*
Y604950D02*
D03*
X598850Y563450D02*
D03*
Y604950D02*
D03*
X620350Y563450D02*
D03*
Y604950D02*
D03*
D30*
X505795Y593450D02*
D03*
X518295D02*
D03*
Y574950D02*
D03*
X505795D02*
D03*
D31*
X585270Y737560D02*
D03*
Y742560D02*
D03*
Y747560D02*
D03*
Y752560D02*
D03*
Y757560D02*
D03*
Y762560D02*
D03*
Y767560D02*
D03*
Y772560D02*
D03*
Y777560D02*
D03*
Y782560D02*
D03*
Y787560D02*
D03*
Y792560D02*
D03*
Y797560D02*
D03*
Y802560D02*
D03*
Y807560D02*
D03*
Y812560D02*
D03*
Y817560D02*
D03*
Y822560D02*
D03*
Y827560D02*
D03*
Y832560D02*
D03*
Y837560D02*
D03*
Y842560D02*
D03*
Y847560D02*
D03*
Y852560D02*
D03*
Y857560D02*
D03*
X433270D02*
D03*
Y852560D02*
D03*
Y847560D02*
D03*
Y842560D02*
D03*
Y837560D02*
D03*
Y832560D02*
D03*
Y827560D02*
D03*
Y822560D02*
D03*
Y817560D02*
D03*
Y812560D02*
D03*
Y807560D02*
D03*
Y802560D02*
D03*
Y797560D02*
D03*
Y792560D02*
D03*
Y787560D02*
D03*
Y782560D02*
D03*
Y777560D02*
D03*
Y772560D02*
D03*
Y767560D02*
D03*
Y762560D02*
D03*
Y757560D02*
D03*
Y752560D02*
D03*
Y747560D02*
D03*
Y742560D02*
D03*
Y737560D02*
D03*
D32*
X409220Y924560D02*
D03*
X444220D02*
D03*
X622020Y694690D02*
D03*
X587020D02*
D03*
D46*
X440688Y1065530D02*
D03*
Y1127760D02*
D03*
Y1097280D02*
D03*
D48*
X267080Y829310D02*
D03*
Y864310D02*
D03*
Y1058060D02*
D03*
Y1023060D02*
D03*
Y953060D02*
D03*
Y988060D02*
D03*
Y1146530D02*
D03*
D56*
X489350Y941070D02*
D03*
D57*
X539350D02*
D03*
D65*
X444220Y924560D02*
X461010D01*
Y930910D02*
Y937260D01*
Y924560D02*
Y930910D01*
Y918210D02*
Y923290D01*
Y911860D02*
Y918210D01*
X1041300Y1201320D02*
X1051560Y1211580D01*
X1041300Y1150550D02*
Y1201320D01*
X761900Y920550D02*
Y1150550D01*
X1041300Y579220D02*
Y690550D01*
X660400Y914400D02*
X685800D01*
X711200D01*
X635000D02*
X660400D01*
X609600D02*
X635000D01*
X586740Y923290D02*
X595630Y914400D01*
X608330D01*
X586740Y923290D02*
Y974090D01*
X599440Y986790D01*
Y1010640D01*
X577850Y1032230D02*
X599440Y1010640D01*
X1041300Y920550D02*
Y1150550D01*
Y690550D02*
Y920550D01*
X761900Y688440D02*
Y690550D01*
Y688440D02*
X762000Y688340D01*
X1041300Y579220D02*
X1049020Y571500D01*
X449580Y895350D02*
X461010Y906780D01*
Y911860D01*
D66*
X326390Y709930D02*
X334130D01*
X336710Y707350D01*
X337710D01*
X339210Y705850D01*
Y704850D02*
Y705850D01*
X340901Y702350D02*
X343830Y699421D01*
Y691180D02*
Y699421D01*
Y691180D02*
X344830Y690180D01*
X673100Y878840D02*
X685800Y891540D01*
Y914400D01*
X673100Y840740D02*
Y878840D01*
Y802640D02*
Y840740D01*
Y764540D02*
Y802640D01*
Y708660D02*
Y764540D01*
X612490Y846050D02*
Y858870D01*
X610990Y844550D02*
X612490Y846050D01*
Y858870D02*
X614680Y861060D01*
X586900Y694570D02*
X587020Y694690D01*
X571620Y694570D02*
X586900D01*
X431800Y963930D02*
X467360D01*
X484850Y946440D01*
Y945570D02*
Y946440D01*
Y945570D02*
X489350Y941070D01*
X490220D01*
X311270Y993140D02*
Y1024890D01*
X311150Y1068070D02*
X311270D01*
X311270Y991870D02*
Y993020D01*
Y976630D02*
Y993020D01*
X311150Y993140D02*
X311270Y993020D01*
X311150Y1068070D02*
Y1080770D01*
Y1055490D02*
Y1068070D01*
X311270Y1025890D02*
Y1055370D01*
Y1025010D02*
Y1025890D01*
X311150Y1024890D02*
X311270Y1025010D01*
X538480Y558800D02*
Y571500D01*
Y577850D01*
X599440Y694690D02*
X605790D01*
X587020D02*
X599440D01*
Y701040D01*
Y688340D02*
Y694690D01*
X334010Y735330D02*
X346710D01*
X327660D02*
X346710D01*
X354330Y1122680D02*
Y1137920D01*
X334010Y722630D02*
Y735330D01*
X322580Y723900D02*
X327660D01*
X334010Y722630D02*
X350520D01*
X307340D02*
X334010D01*
X354270Y704790D02*
X354330Y704850D01*
X327660Y723900D02*
Y735330D01*
X334010D01*
X300990Y716400D02*
X301110D01*
X307340Y722630D01*
X354210Y704850D02*
Y718940D01*
X350520Y722630D02*
X354210Y718940D01*
X614680Y876300D02*
Y883920D01*
X607060Y876300D02*
X614680D01*
Y861060D02*
Y876300D01*
X354270Y690240D02*
Y704790D01*
Y690240D02*
X354330Y690180D01*
X311270Y1115180D02*
X318770Y1122680D01*
X354330D01*
X311270Y1080770D02*
Y1115180D01*
X354330Y1122680D02*
X367030D01*
X381000D01*
X311150Y1055490D02*
X311270Y1055370D01*
X426720Y1117600D02*
X433070D01*
X420370D02*
X426720D01*
X414020D02*
X420370D01*
X389890D02*
X414020D01*
X384810Y1122680D02*
X389890Y1117600D01*
X381000Y1122680D02*
X384810D01*
X350520Y863600D02*
X356870D01*
X364490D01*
X332740Y846810D02*
Y858520D01*
X337820Y863600D01*
X349250D01*
D67*
X364236Y678180D02*
X364490Y678434D01*
X345186D02*
X345249Y678497D01*
X305404Y640334D02*
X306070Y641000D01*
X632460Y579120D02*
Y618490D01*
X625990Y572650D02*
X632460Y579120D01*
X539290Y572650D02*
X625990D01*
X632460Y618490D02*
Y631190D01*
Y618490D02*
X632580Y618610D01*
X630040Y633610D02*
X632460Y631190D01*
X612140Y816610D02*
Y828040D01*
X601980Y806450D02*
X612140Y816610D01*
X603250Y763270D02*
X610870Y770890D01*
X603250Y763270D02*
X604520Y762000D01*
X601980Y798830D02*
Y806450D01*
Y790060D02*
X604640Y787400D01*
X601980Y790060D02*
Y798830D01*
X637540Y861060D02*
X646430D01*
X652780D01*
X625990Y836810D02*
Y844550D01*
Y830700D02*
Y836810D01*
Y830700D02*
X627380Y829310D01*
X541027Y604527D02*
Y615943D01*
X538480Y601980D02*
X541027Y604527D01*
X538480Y577850D02*
Y601980D01*
X541027Y615943D02*
X543437Y618353D01*
X384810Y1005840D02*
X386080D01*
X375920Y996950D02*
X384810Y1005840D01*
X375920Y996830D02*
Y996950D01*
X374770Y995680D02*
X375920Y996830D01*
X372110Y1019810D02*
X375920Y1023620D01*
X364730Y1019810D02*
X372110D01*
X375920Y1023620D02*
X402590D01*
X374650Y1035050D02*
Y1042550D01*
X372260Y1032660D02*
X374650Y1035050D01*
X364580Y1032660D02*
X372260D01*
X374650Y1042550D02*
X374770Y1042670D01*
X378460Y1055370D02*
X387350D01*
X374770Y1051680D02*
X378460Y1055370D01*
X374770Y1042670D02*
Y1051680D01*
X514350Y1019930D02*
Y1040130D01*
Y1005840D02*
Y1019810D01*
X514230D02*
X514350Y1019930D01*
X321310Y1002030D02*
X340360D01*
X314650Y995370D02*
X321310Y1002030D01*
X340360D02*
X342250Y1000140D01*
X354330Y994410D02*
Y998220D01*
X353060Y999490D02*
X354330Y998220D01*
X344170Y999490D02*
X353060D01*
X354330Y994410D02*
X355600Y993140D01*
X364580D01*
X373230Y998220D02*
X373380D01*
X371810Y999640D02*
X373230Y998220D01*
X364580Y999640D02*
X371810D01*
X364580Y986640D02*
X401330D01*
X429420Y1014730D01*
X431800D01*
X419100Y1040130D02*
X431800D01*
X402590Y1023620D02*
X419100Y1040130D01*
X364580Y1019660D02*
X364730Y1019810D01*
X342250Y1000140D02*
X343580D01*
X311270Y1025890D02*
X313770Y1028390D01*
X321310Y1035050D02*
X340573D01*
X314650Y1028390D02*
X321310Y1035050D01*
X313770Y1028390D02*
X314650D01*
X340573Y1035050D02*
X342330Y1033293D01*
Y1033160D02*
Y1033293D01*
Y1033160D02*
X342830Y1032660D01*
X344080D01*
X313770Y995370D02*
X314650D01*
X312420Y994020D02*
X313770Y995370D01*
X343580Y1000140D02*
X344080Y999640D01*
X327540Y993140D02*
X344080D01*
X326270Y991870D02*
X327540Y993140D01*
Y1026160D02*
X344080D01*
X326270Y1024890D02*
X327540Y1026160D01*
X307120Y639150D02*
Y656836D01*
X300280Y641806D02*
Y657176D01*
Y641806D02*
X301752Y640334D01*
X305404D01*
X306070Y640080D02*
Y641000D01*
X307120Y639150D02*
X307460Y638810D01*
X306780Y657176D02*
X307120Y656836D01*
X550923Y618353D02*
X551180Y618610D01*
X543437Y618353D02*
X550923D01*
X538480Y571840D02*
X539290Y572650D01*
X538480Y571500D02*
Y571840D01*
X364490Y678180D02*
X370840D01*
X373380Y675640D01*
X354330Y678180D02*
X364236D01*
X354330Y666180D02*
Y678180D01*
X345440D02*
X354330D01*
Y655320D02*
Y664972D01*
Y666180D01*
Y664972D02*
X354838Y664464D01*
X345249Y678497D02*
Y678642D01*
X344830Y679061D02*
X345249Y678642D01*
X344830Y679061D02*
Y690180D01*
X632580Y618610D02*
X645160D01*
X621030Y633610D02*
X630040D01*
X431800Y722630D02*
Y737560D01*
X300280Y699184D02*
Y715570D01*
X300990Y716280D01*
X424180Y713740D02*
X431800D01*
X431680Y713860D02*
X431800Y713740D01*
X431680Y713860D02*
Y723900D01*
X431800Y737560D02*
X433270D01*
X354330Y1137920D02*
X354450D01*
X346550Y1137580D02*
Y1137670D01*
X346800Y1137920D01*
X354330D01*
X551180Y902970D02*
X551240Y902910D01*
Y894140D02*
Y902910D01*
Y894140D02*
X551300Y894080D01*
X381000Y1122680D02*
Y1123315D01*
X499230Y1038860D02*
X500380D01*
X487560D02*
X499230D01*
X487560Y1019810D02*
X497840D01*
X598850Y604950D02*
X606220D01*
X608330Y607060D02*
Y650240D01*
X606220Y604950D02*
X608330Y607060D01*
X294163Y685007D02*
X297180Y681990D01*
X316230D01*
X298450Y675640D02*
X316230D01*
X294280Y671470D02*
X298450Y675640D01*
X294280Y657676D02*
Y671470D01*
X293780Y657176D02*
X294280Y657676D01*
X294163Y685007D02*
Y698801D01*
X293780Y699184D02*
X294163Y698801D01*
X551180Y633730D02*
Y650240D01*
X598170D02*
X608330D01*
X598290Y618490D02*
X607060D01*
X598170Y618610D02*
X598290Y618490D01*
X551180Y633730D02*
X573920D01*
X551180Y633610D02*
Y633730D01*
X573920D02*
X574040Y633610D01*
X485260Y1097280D02*
X485895D01*
X470415D02*
X485260D01*
X486530Y1127760D02*
X487165D01*
X470415D02*
X486530D01*
D68*
X541020Y791210D02*
X541299Y791489D01*
X544121D01*
X545191Y792560D02*
X585270D01*
X544121Y791489D02*
X545191Y792560D01*
X544947Y797560D02*
X585270D01*
X543956Y798551D02*
X544947Y797560D01*
X541020Y798830D02*
X541299Y798551D01*
X543956D01*
X454182Y861852D02*
Y873472D01*
X452120Y859790D02*
X454182Y861852D01*
X447294Y859790D02*
X452120D01*
X454182Y873472D02*
X454270Y873560D01*
X441960Y865124D02*
Y869950D01*
Y865124D02*
X447294Y859790D01*
X439420Y872490D02*
X441960Y869950D01*
X425450Y872490D02*
X439420D01*
D69*
X541311Y1220470D02*
X542580Y1219202D01*
X1002300Y900160D02*
X1003200Y899260D01*
X1003035Y874765D02*
X1003200Y874930D01*
X1002300Y644890D02*
X1003300Y643890D01*
X1002030Y875770D02*
Y900430D01*
X1002300Y644890D02*
Y873700D01*
X1002030Y873760D02*
X1003035Y874765D01*
X323850Y1217930D02*
X346920Y1241000D01*
X1003035Y874765D02*
X1003200Y874600D01*
X1002030Y875770D02*
X1003035Y874765D01*
X1002300Y873700D02*
X1003200Y874600D01*
Y899260D02*
X1003300Y899160D01*
X1003200Y899260D02*
Y900000D01*
X1002300Y900160D02*
Y1103700D01*
X1003200Y1104600D01*
Y1105000D02*
X1003300Y1104900D01*
X1003200Y1105000D02*
Y1130000D01*
X1002300Y1131300D02*
Y1217660D01*
Y1131300D02*
X1003300Y1130300D01*
X979170Y1240790D02*
X1002300Y1217660D01*
X944872Y1241000D02*
X944880Y1241008D01*
X951230D01*
X346920Y1241000D02*
X944872D01*
X979000D01*
X527050Y1220470D02*
X541311D01*
X500380Y1193800D02*
X527050Y1220470D01*
X480060Y1193800D02*
X500380D01*
X542580Y1219202D02*
Y1220470D01*
D70*
X577850Y1032230D02*
Y1073150D01*
X576580Y1074420D02*
X577850Y1073150D01*
X576280Y1074420D02*
X576580Y1074720D01*
D71*
X479660Y1193800D02*
X480060D01*
X478790Y1240002D02*
X479660Y1239132D01*
D72*
Y1193800D02*
Y1239132D01*
X560070Y1181100D02*
Y1220470D01*
D73*
Y1181100D02*
X565450Y1175720D01*
X576580D01*
D74*
X711200Y660400D02*
D03*
Y711200D02*
D03*
Y736600D02*
D03*
Y762000D02*
D03*
Y787400D02*
D03*
Y812800D02*
D03*
Y838200D02*
D03*
Y863600D02*
D03*
Y889000D02*
D03*
X736600Y1117600D02*
D03*
X711200D02*
D03*
X685800D02*
D03*
X660400D02*
D03*
Y1092200D02*
D03*
X685800D02*
D03*
X711200D02*
D03*
X736600D02*
D03*
Y965200D02*
D03*
Y990600D02*
D03*
Y1016000D02*
D03*
Y1041400D02*
D03*
Y1066800D02*
D03*
X711200Y914400D02*
D03*
X685800D02*
D03*
X660400D02*
D03*
X635000D02*
D03*
X609600D02*
D03*
Y965200D02*
D03*
Y939800D02*
D03*
X635000D02*
D03*
Y965200D02*
D03*
Y990600D02*
D03*
Y1041400D02*
D03*
Y1016000D02*
D03*
X711200Y939800D02*
D03*
X685800D02*
D03*
X660400D02*
D03*
X685800Y965200D02*
D03*
X660400D02*
D03*
Y990600D02*
D03*
X685800D02*
D03*
Y1016000D02*
D03*
X660400D02*
D03*
X711200Y1066800D02*
D03*
X685800D02*
D03*
X660400D02*
D03*
Y1041400D02*
D03*
X685800D02*
D03*
X711200D02*
D03*
Y1016000D02*
D03*
Y990600D02*
D03*
Y965200D02*
D03*
D75*
X952400Y1130000D02*
D03*
X977800D02*
D03*
X850800D02*
D03*
X876200D02*
D03*
X952400Y900000D02*
D03*
X977800D02*
D03*
X901600D02*
D03*
X927000D02*
D03*
X876200D02*
D03*
X901600Y670000D02*
D03*
X927000D02*
D03*
X876200D02*
D03*
X825400D02*
D03*
X901600Y874600D02*
D03*
X927000D02*
D03*
X952400Y1104600D02*
D03*
X977800D02*
D03*
X901600D02*
D03*
X927000D02*
D03*
X850800D02*
D03*
X876200D02*
D03*
X800000D02*
D03*
X825400D02*
D03*
Y644600D02*
D03*
X927000D02*
D03*
X977800D02*
D03*
X901600Y1130000D02*
D03*
X927000D02*
D03*
X850800Y874600D02*
D03*
X876200D02*
D03*
X952400D02*
D03*
X977800D02*
D03*
X1003200Y644600D02*
D03*
Y670000D02*
D03*
X977800D02*
D03*
X952400Y644600D02*
D03*
Y670000D02*
D03*
X901600Y644600D02*
D03*
X876200D02*
D03*
X850800D02*
D03*
Y670000D02*
D03*
X800000Y644600D02*
D03*
Y670000D02*
D03*
X1003200Y874600D02*
D03*
Y900000D02*
D03*
X850800D02*
D03*
X825400D02*
D03*
X800000D02*
D03*
Y874600D02*
D03*
X825400D02*
D03*
X1003200Y1104600D02*
D03*
Y1130000D02*
D03*
X825400D02*
D03*
X800000D02*
D03*
D76*
X431800Y963930D02*
D03*
Y989330D02*
D03*
Y1014730D02*
D03*
Y1040130D02*
D03*
D77*
X368300Y598170D02*
D03*
X393700D02*
D03*
Y572770D02*
D03*
X368300D02*
D03*
X419100D02*
D03*
X429660Y1193800D02*
D03*
D78*
X419100Y598170D02*
D03*
X479660Y1193800D02*
D03*
D79*
X267080Y794310D02*
D03*
Y918060D02*
D03*
Y1111530D02*
D03*
D80*
X254000Y723900D02*
D03*
Y664210D02*
D03*
X374650Y1220470D02*
D03*
X577850Y997230D02*
D03*
D81*
X254000Y749300D02*
D03*
Y689610D02*
D03*
X323850Y1220470D02*
D03*
D82*
X364490Y780310D02*
D03*
Y878310D02*
D03*
D83*
X1041300Y690550D02*
D03*
X761900D02*
D03*
X1041300Y920550D02*
D03*
X761900D02*
D03*
X1041300Y1150550D02*
D03*
X761900D02*
D03*
D84*
X542580Y1219200D02*
D03*
X559580D02*
D03*
X576580D02*
D03*
D85*
X593580Y1220470D02*
D03*
X610580D02*
D03*
D86*
X577850Y1032230D02*
D03*
D87*
X241350Y559230D02*
D03*
X249350Y551230D02*
D03*
X279350Y559230D02*
D03*
X271350Y551230D02*
D03*
X279350Y581230D02*
D03*
X271350Y589230D02*
D03*
X249350D02*
D03*
X241350Y581230D02*
D03*
X260350Y547730D02*
D03*
X282850Y570230D02*
D03*
X260350Y592730D02*
D03*
X237850Y570230D02*
D03*
X1039480Y1191310D02*
D03*
X1031480Y559230D02*
D03*
X1039480Y551230D02*
D03*
X1069480Y559230D02*
D03*
X1061480Y551230D02*
D03*
X1069480Y581230D02*
D03*
X1061480Y589230D02*
D03*
X1039480D02*
D03*
X1031480Y581230D02*
D03*
X1050480Y547730D02*
D03*
X1072980Y570230D02*
D03*
X1050480Y592730D02*
D03*
X1027980Y570230D02*
D03*
Y1210310D02*
D03*
X1050480Y1232810D02*
D03*
X1072980Y1210310D02*
D03*
X1050480Y1187810D02*
D03*
X1031480Y1221310D02*
D03*
X1039480Y1229310D02*
D03*
X1061480D02*
D03*
X1069480Y1221310D02*
D03*
X1061480Y1191310D02*
D03*
X1069480Y1199310D02*
D03*
X1031480D02*
D03*
X237850Y1210310D02*
D03*
X260350Y1232810D02*
D03*
X282850Y1210310D02*
D03*
X260350Y1187810D02*
D03*
X241350Y1221310D02*
D03*
X249350Y1229310D02*
D03*
X271350D02*
D03*
X279350Y1221310D02*
D03*
X271350Y1191310D02*
D03*
X279350Y1199310D02*
D03*
X249350Y1191310D02*
D03*
X241350Y1199310D02*
D03*
D88*
X260350Y570230D02*
D03*
X1050480D02*
D03*
Y1210310D02*
D03*
X260350D02*
D03*
D89*
X461010Y930910D02*
D03*
Y924560D02*
D03*
Y937260D02*
D03*
X238760Y783590D02*
D03*
Y777240D02*
D03*
X610870Y770890D02*
D03*
X601980Y806450D02*
D03*
Y798830D02*
D03*
X652780Y861060D02*
D03*
X646430D02*
D03*
X419100Y695960D02*
D03*
X412750D02*
D03*
X364490Y1043940D02*
D03*
X416560Y1012190D02*
D03*
X387350Y1055370D02*
D03*
X386080Y1005840D02*
D03*
X538480Y565150D02*
D03*
Y571500D02*
D03*
Y558800D02*
D03*
Y577850D02*
D03*
X455930Y594360D02*
D03*
X461010Y571500D02*
D03*
X466090Y594360D02*
D03*
X488950Y575310D02*
D03*
X346710Y735330D02*
D03*
X340360D02*
D03*
X327660D02*
D03*
X334010D02*
D03*
X283210Y734060D02*
D03*
X276860D02*
D03*
X614680Y883920D02*
D03*
X607060Y876300D02*
D03*
X614680D02*
D03*
X599440Y688340D02*
D03*
Y701040D02*
D03*
X306070Y612140D02*
D03*
X299720D02*
D03*
X293370D02*
D03*
X461010Y911860D02*
D03*
Y918210D02*
D03*
X356870Y803910D02*
D03*
Y810260D02*
D03*
X316230Y880110D02*
D03*
X599440Y694690D02*
D03*
X605790D02*
D03*
X431800Y713740D02*
D03*
X424180D02*
D03*
X551180Y902970D02*
D03*
X414020Y1117600D02*
D03*
X420370D02*
D03*
X426720D02*
D03*
X433070D02*
D03*
X364490Y863600D02*
D03*
X425450Y1156970D02*
D03*
Y1164590D02*
D03*
X433070D02*
D03*
X356870Y863600D02*
D03*
X349250D02*
D03*
X344170Y1167130D02*
D03*
Y1182370D02*
D03*
D90*
X365760Y713740D02*
D03*
X1084580Y1209040D02*
D03*
X1066800Y1173480D02*
D03*
X1084580Y1137920D02*
D03*
X1066800Y1102360D02*
D03*
X1084580Y1066800D02*
D03*
X1066800Y1031240D02*
D03*
X1084580Y995680D02*
D03*
X1066800Y960120D02*
D03*
X1084580Y924560D02*
D03*
X1066800Y889000D02*
D03*
X1084580Y853440D02*
D03*
X1066800Y817880D02*
D03*
X1084580Y782320D02*
D03*
X1066800Y746760D02*
D03*
X1084580Y711200D02*
D03*
X1066800Y675640D02*
D03*
X1084580Y640080D02*
D03*
X1066800Y604520D02*
D03*
X1084580Y568960D02*
D03*
X1031240Y1173480D02*
D03*
Y1102360D02*
D03*
X1049020Y1066800D02*
D03*
X1031240Y1031240D02*
D03*
X1049020Y995680D02*
D03*
X1031240Y960120D02*
D03*
Y889000D02*
D03*
X1049020Y853440D02*
D03*
X1031240Y817880D02*
D03*
X1049020Y782320D02*
D03*
X1031240Y746760D02*
D03*
X1049020Y711200D02*
D03*
Y640080D02*
D03*
X1031240Y604520D02*
D03*
X995680D02*
D03*
X1013460Y568960D02*
D03*
X977900Y1209040D02*
D03*
X960120Y1173480D02*
D03*
X977900Y1066800D02*
D03*
Y995680D02*
D03*
Y924560D02*
D03*
Y853440D02*
D03*
Y782320D02*
D03*
Y711200D02*
D03*
Y568960D02*
D03*
X942340Y1209040D02*
D03*
X924560Y1173480D02*
D03*
X942340Y1066800D02*
D03*
X924560Y1031240D02*
D03*
X942340Y995680D02*
D03*
X924560Y960120D02*
D03*
X942340Y924560D02*
D03*
Y853440D02*
D03*
X924560Y817880D02*
D03*
X942340Y782320D02*
D03*
X924560Y746760D02*
D03*
X942340Y711200D02*
D03*
X924560Y604520D02*
D03*
X942340Y568960D02*
D03*
X906780Y1209040D02*
D03*
X889000Y1173480D02*
D03*
X906780Y1066800D02*
D03*
X889000Y1031240D02*
D03*
X906780Y995680D02*
D03*
X889000Y960120D02*
D03*
X906780Y924560D02*
D03*
Y853440D02*
D03*
X889000Y817880D02*
D03*
X906780Y782320D02*
D03*
X889000Y746760D02*
D03*
X906780Y711200D02*
D03*
Y568960D02*
D03*
X871220Y1209040D02*
D03*
X853440Y1173480D02*
D03*
X871220Y1066800D02*
D03*
X853440Y1031240D02*
D03*
X871220Y995680D02*
D03*
X853440Y960120D02*
D03*
X871220Y924560D02*
D03*
Y853440D02*
D03*
X853440Y817880D02*
D03*
X871220Y782320D02*
D03*
X853440Y746760D02*
D03*
X871220Y711200D02*
D03*
Y568960D02*
D03*
X835660Y1209040D02*
D03*
X817880Y1173480D02*
D03*
X835660Y1066800D02*
D03*
Y995680D02*
D03*
Y924560D02*
D03*
Y853440D02*
D03*
Y782320D02*
D03*
Y711200D02*
D03*
Y568960D02*
D03*
X800100Y1209040D02*
D03*
X782320Y1173480D02*
D03*
Y1102360D02*
D03*
X800100Y1066800D02*
D03*
X782320Y1031240D02*
D03*
X800100Y995680D02*
D03*
X782320Y960120D02*
D03*
X800100Y924560D02*
D03*
X782320Y889000D02*
D03*
X800100Y853440D02*
D03*
X782320Y817880D02*
D03*
X800100Y782320D02*
D03*
X782320Y746760D02*
D03*
X800100Y711200D02*
D03*
X764540Y1209040D02*
D03*
X746760Y1173480D02*
D03*
Y1102360D02*
D03*
X764540Y1066800D02*
D03*
X746760Y1031240D02*
D03*
X764540Y995680D02*
D03*
X746760Y889000D02*
D03*
X764540Y853440D02*
D03*
X746760Y817880D02*
D03*
X764540Y782320D02*
D03*
X746760Y746760D02*
D03*
X764540Y711200D02*
D03*
Y640080D02*
D03*
X728980Y1209040D02*
D03*
X711200Y1173480D02*
D03*
X728980Y1137920D02*
D03*
Y924560D02*
D03*
Y853440D02*
D03*
Y782320D02*
D03*
Y711200D02*
D03*
Y640080D02*
D03*
X693420Y1209040D02*
D03*
X675640Y1173480D02*
D03*
X693420Y1137920D02*
D03*
X675640Y1102360D02*
D03*
Y1031240D02*
D03*
X657860Y1209040D02*
D03*
X640080Y1173480D02*
D03*
X657860Y1137920D02*
D03*
X622300Y1209040D02*
D03*
Y1137920D02*
D03*
Y1066800D02*
D03*
X586740Y1209040D02*
D03*
Y1137920D02*
D03*
X568960Y1102360D02*
D03*
X551180Y1137920D02*
D03*
X497840Y1173480D02*
D03*
X515620Y1137920D02*
D03*
Y1066800D02*
D03*
X480060D02*
D03*
X444500Y1209040D02*
D03*
X408940D02*
D03*
X355600Y1173480D02*
D03*
X302260Y1209040D02*
D03*
X284480Y1102360D02*
D03*
X302260Y1066800D02*
D03*
X248920Y1173480D02*
D03*
Y1102360D02*
D03*
Y1031240D02*
D03*
X621030Y579120D02*
D03*
Y590550D02*
D03*
X544830Y703580D02*
D03*
X556260Y753110D02*
D03*
X541020Y791210D02*
D03*
X701675Y924560D02*
D03*
X693420Y842010D02*
D03*
X701675Y726440D02*
D03*
X693420Y709930D02*
D03*
Y676910D02*
D03*
Y643890D02*
D03*
Y577850D02*
D03*
Y544830D02*
D03*
X676910Y676910D02*
D03*
X685165Y660400D02*
D03*
X676910Y544830D02*
D03*
X668655Y924560D02*
D03*
Y891540D02*
D03*
X660400Y742950D02*
D03*
Y676910D02*
D03*
X668655Y594360D02*
D03*
X660400Y544830D02*
D03*
X652145Y924560D02*
D03*
X643890Y742950D02*
D03*
X652145Y726440D02*
D03*
X643890Y676910D02*
D03*
X652145Y594360D02*
D03*
X643890Y544830D02*
D03*
X627380Y676910D02*
D03*
Y544830D02*
D03*
X619125Y924560D02*
D03*
Y891540D02*
D03*
X610870Y709930D02*
D03*
Y676910D02*
D03*
Y544830D02*
D03*
X602615Y924560D02*
D03*
Y891540D02*
D03*
X594360Y875030D02*
D03*
Y676910D02*
D03*
X602615Y594360D02*
D03*
X594360Y544830D02*
D03*
X577850Y908050D02*
D03*
X586105Y891540D02*
D03*
X577850Y875030D02*
D03*
X586105Y726440D02*
D03*
X577850Y676910D02*
D03*
Y544830D02*
D03*
X561340Y941070D02*
D03*
X569595Y924560D02*
D03*
X561340Y908050D02*
D03*
X569595Y759460D02*
D03*
X561340Y544830D02*
D03*
X553085Y924560D02*
D03*
X544830Y908050D02*
D03*
Y544830D02*
D03*
X536575Y891540D02*
D03*
X528320Y842010D02*
D03*
X536575Y759460D02*
D03*
X528320Y544830D02*
D03*
X511810Y842010D02*
D03*
Y742950D02*
D03*
Y544830D02*
D03*
X495300Y908050D02*
D03*
X503555Y858520D02*
D03*
X495300Y842010D02*
D03*
X503555Y825500D02*
D03*
X495300Y808990D02*
D03*
X503555Y792480D02*
D03*
X495300Y775970D02*
D03*
X503555Y759460D02*
D03*
X495300Y742950D02*
D03*
X503555Y693420D02*
D03*
X495300Y610870D02*
D03*
X503555Y561340D02*
D03*
X495300Y544830D02*
D03*
X487045Y924560D02*
D03*
Y891540D02*
D03*
Y858520D02*
D03*
X478790Y842010D02*
D03*
X487045Y825500D02*
D03*
X478790Y808990D02*
D03*
X487045Y792480D02*
D03*
X478790Y775970D02*
D03*
X487045Y759460D02*
D03*
X478790Y742950D02*
D03*
X487045Y693420D02*
D03*
X478790Y643890D02*
D03*
X487045Y627380D02*
D03*
X478790Y610870D02*
D03*
X487045Y594360D02*
D03*
Y561340D02*
D03*
X478790Y544830D02*
D03*
X470535Y825500D02*
D03*
Y792480D02*
D03*
X462280Y775970D02*
D03*
X470535Y759460D02*
D03*
X462280Y742950D02*
D03*
X470535Y627380D02*
D03*
Y561340D02*
D03*
X462280Y544830D02*
D03*
X445770Y941070D02*
D03*
X454025Y825500D02*
D03*
Y792480D02*
D03*
Y759460D02*
D03*
X445770Y544830D02*
D03*
X429260Y941070D02*
D03*
Y908050D02*
D03*
X437515Y693420D02*
D03*
X429260Y610870D02*
D03*
Y544830D02*
D03*
X412750Y941070D02*
D03*
Y709930D02*
D03*
Y643890D02*
D03*
Y544830D02*
D03*
X396240Y941070D02*
D03*
X404495Y891540D02*
D03*
Y858520D02*
D03*
Y792480D02*
D03*
X396240Y709930D02*
D03*
X404495Y693420D02*
D03*
Y660400D02*
D03*
X396240Y643890D02*
D03*
X404495Y561340D02*
D03*
X396240Y544830D02*
D03*
X379730Y908050D02*
D03*
X387985Y891540D02*
D03*
Y660400D02*
D03*
X379730Y610870D02*
D03*
Y544830D02*
D03*
X371475Y924560D02*
D03*
X363220Y908050D02*
D03*
X371475Y891540D02*
D03*
X363220Y808990D02*
D03*
Y742950D02*
D03*
X371475Y726440D02*
D03*
X363220Y643890D02*
D03*
Y610870D02*
D03*
Y544830D02*
D03*
X354965Y924560D02*
D03*
X346710Y908050D02*
D03*
X354965Y891540D02*
D03*
X346710Y643890D02*
D03*
X354965Y594360D02*
D03*
Y561340D02*
D03*
X346710Y544830D02*
D03*
X330200Y941070D02*
D03*
X338455Y891540D02*
D03*
Y627380D02*
D03*
Y594360D02*
D03*
Y561340D02*
D03*
X330200Y544830D02*
D03*
X313690Y941070D02*
D03*
X321945Y924560D02*
D03*
Y891540D02*
D03*
X313690Y742950D02*
D03*
X321945Y594360D02*
D03*
Y561340D02*
D03*
X313690Y544830D02*
D03*
X305435Y924560D02*
D03*
X297180Y908050D02*
D03*
X305435Y627380D02*
D03*
Y594360D02*
D03*
X297180Y577850D02*
D03*
X305435Y561340D02*
D03*
X297180Y544830D02*
D03*
X288925Y891540D02*
D03*
X280670Y676910D02*
D03*
Y643890D02*
D03*
Y610870D02*
D03*
X288925Y594360D02*
D03*
X272415Y891540D02*
D03*
X264160Y808990D02*
D03*
X272415Y726440D02*
D03*
X264160Y643890D02*
D03*
X272415Y627380D02*
D03*
X264160Y610870D02*
D03*
X247650Y941070D02*
D03*
X255905Y891540D02*
D03*
X247650Y676910D02*
D03*
Y643890D02*
D03*
X255905Y627380D02*
D03*
X247650Y610870D02*
D03*
X239395Y957580D02*
D03*
X231140Y941070D02*
D03*
X239395Y924560D02*
D03*
X231140Y908050D02*
D03*
Y742950D02*
D03*
X239395Y726440D02*
D03*
X231140Y676910D02*
D03*
X239395Y660400D02*
D03*
X231140Y643890D02*
D03*
X239395Y627380D02*
D03*
X231140Y610870D02*
D03*
X673100Y878840D02*
D03*
X647700D02*
D03*
Y840740D02*
D03*
Y802640D02*
D03*
Y764540D02*
D03*
Y708660D02*
D03*
X600710Y855980D02*
D03*
Y848360D02*
D03*
X673100Y708660D02*
D03*
Y840740D02*
D03*
Y802640D02*
D03*
Y764540D02*
D03*
X542290Y835660D02*
D03*
X552450Y830580D02*
D03*
X546100Y842010D02*
D03*
X554990Y853440D02*
D03*
X568960Y850900D02*
D03*
X600710Y862330D02*
D03*
X551180Y847090D02*
D03*
X566420Y805180D02*
D03*
X541020Y798830D02*
D03*
X518160Y635000D02*
D03*
X519430Y854710D02*
D03*
X539750Y742950D02*
D03*
X534670Y749300D02*
D03*
X467360Y646430D02*
D03*
X464270Y672550D02*
D03*
X454270Y684530D02*
D03*
X359410Y1057910D02*
D03*
X514350Y1005840D02*
D03*
X282448Y877824D02*
D03*
X282194Y870204D02*
D03*
X313690Y784860D02*
D03*
X264160Y776986D02*
D03*
X276606Y775208D02*
D03*
X401320Y734060D02*
D03*
X388620Y722630D02*
D03*
X388112Y684530D02*
D03*
X397510Y694944D02*
D03*
X551180Y678180D02*
D03*
X668020Y663448D02*
D03*
X680720Y649986D02*
D03*
X650748Y585724D02*
D03*
X562610Y603504D02*
D03*
X490220Y1084580D02*
D03*
X369570Y650240D02*
D03*
X346710Y746760D02*
D03*
X340360D02*
D03*
X334010D02*
D03*
X327660D02*
D03*
X335280Y648970D02*
D03*
Y640080D02*
D03*
X354330Y655320D02*
D03*
X326390Y709930D02*
D03*
X364490Y678180D02*
D03*
X345440D02*
D03*
X354330D02*
D03*
X280670Y712470D02*
D03*
X397510Y661670D02*
D03*
X513080Y660400D02*
D03*
X346710Y1083310D02*
D03*
X464820Y847090D02*
D03*
X462280Y802640D02*
D03*
X458470Y807720D02*
D03*
X336550Y1083310D02*
D03*
X443230Y608330D02*
D03*
X911860Y596900D02*
D03*
X916940Y601980D02*
D03*
X817880Y566420D02*
D03*
X807720Y561340D02*
D03*
X561340Y746760D02*
D03*
X568960Y741680D02*
D03*
X452120Y563880D02*
D03*
X477520Y582930D02*
D03*
X417190Y757560D02*
D03*
X316230Y681990D02*
D03*
Y675640D02*
D03*
X474270Y659690D02*
D03*
X459270Y659600D02*
D03*
X524510Y890270D02*
D03*
X341630Y1079500D02*
D03*
X458470Y855980D02*
D03*
X454660Y812800D02*
D03*
X449580Y817880D02*
D03*
X469900Y857250D02*
D03*
X377190Y816610D02*
D03*
X384810Y834390D02*
D03*
Y822960D02*
D03*
M02*
