G04*
G04 #@! TF.GenerationSoftware,Altium Limited,Altium Designer,19.1.6 (110)*
G04*
G04 Layer_Color=3707366*
%FSLAX44Y44*%
%MOMM*%
G71*
G01*
G75*
%ADD10C,0.2500*%
%ADD12C,0.6000*%
%ADD13C,0.2000*%
%ADD64C,0.3000*%
%ADD66C,0.5000*%
G36*
X981864Y1086612D02*
Y923290D01*
X821336D01*
Y1086612D01*
X981864D01*
D02*
G37*
G36*
X379730Y557530D02*
Y541020D01*
X356870D01*
Y557530D01*
X379730D01*
D02*
G37*
G36*
X252730Y909320D02*
X222304D01*
Y925830D01*
X252730D01*
Y909320D01*
D02*
G37*
G36*
X406400Y557530D02*
Y541020D01*
X380585D01*
Y557530D01*
X406400D01*
D02*
G37*
G36*
X405130Y610870D02*
X382270D01*
Y627380D01*
X405130D01*
Y610870D01*
D02*
G37*
G36*
X243840Y698500D02*
Y681990D01*
X220980D01*
Y698500D01*
X243840D01*
D02*
G37*
G36*
X252730Y1102360D02*
X222758D01*
Y1118870D01*
X252730D01*
Y1102360D01*
D02*
G37*
G36*
X379730Y627380D02*
Y610870D01*
X352563D01*
Y627380D01*
X379730D01*
D02*
G37*
G36*
X243840Y758190D02*
Y741680D01*
X220980D01*
Y758190D01*
X243840D01*
D02*
G37*
G36*
X430530Y541020D02*
X407455D01*
Y557530D01*
X430530D01*
Y541020D01*
D02*
G37*
G36*
X252730Y821690D02*
X222758D01*
Y838200D01*
X252730D01*
Y821690D01*
D02*
G37*
G36*
Y786130D02*
X222758D01*
Y802640D01*
X252730D01*
Y786130D01*
D02*
G37*
G36*
X243840Y673100D02*
Y656590D01*
X220980D01*
Y673100D01*
X243840D01*
D02*
G37*
G36*
X252730Y943610D02*
X222758D01*
Y960120D01*
X252730D01*
Y943610D01*
D02*
G37*
G36*
Y855980D02*
X222758D01*
Y872490D01*
X252730D01*
Y855980D01*
D02*
G37*
G36*
Y979170D02*
X222758D01*
Y995680D01*
X252730D01*
Y979170D01*
D02*
G37*
G36*
Y1013460D02*
X222758D01*
Y1029970D01*
X252730D01*
Y1013460D01*
D02*
G37*
G36*
X243840Y732790D02*
Y716280D01*
X220980D01*
Y732790D01*
X243840D01*
D02*
G37*
G36*
X252730Y1049020D02*
X222758D01*
Y1065530D01*
X252730D01*
Y1049020D01*
D02*
G37*
G36*
Y1137920D02*
X222758D01*
Y1154430D01*
X252730D01*
Y1137920D01*
D02*
G37*
G36*
X427990Y627380D02*
Y610870D01*
X408940D01*
Y627380D01*
X427990D01*
D02*
G37*
%LPC*%
G36*
X914950Y1085342D02*
X914913D01*
X914802Y1085323D01*
X914691Y1085249D01*
X914617Y1085212D01*
X914562Y1085138D01*
X914543Y1085101D01*
X914506Y1085009D01*
X914469Y1084861D01*
X914488Y1084768D01*
X914506Y1084675D01*
Y1084657D01*
X914525Y1084638D01*
X914580Y1084527D01*
X914691Y1084379D01*
X914765Y1084305D01*
X914858Y1084231D01*
X914876D01*
X914913Y1084194D01*
X914950Y1084175D01*
X915024Y1084138D01*
X915210Y1084064D01*
X915302Y1084046D01*
X915395Y1084027D01*
X915432D01*
X915543Y1084046D01*
X915673Y1084101D01*
X915802Y1084212D01*
Y1084231D01*
X915821Y1084249D01*
X915858Y1084342D01*
X915876Y1084490D01*
X915858Y1084583D01*
X915839Y1084675D01*
X915821Y1084712D01*
X915784Y1084787D01*
X915691Y1084916D01*
X915617Y1084990D01*
X915525Y1085083D01*
X915506Y1085101D01*
X915469Y1085120D01*
X915413Y1085157D01*
X915339Y1085212D01*
X915173Y1085305D01*
X915061Y1085323D01*
X914950Y1085342D01*
D02*
G37*
G36*
X912247D02*
X911766D01*
X912210D01*
X912099Y1085323D01*
X911988Y1085249D01*
X911914Y1085212D01*
X911858Y1085138D01*
X911840Y1085101D01*
X911803Y1085009D01*
X911766Y1084861D01*
X911784Y1084768D01*
X911803Y1084675D01*
Y1084657D01*
X911821Y1084638D01*
X911877Y1084527D01*
X911988Y1084379D01*
X912062Y1084305D01*
X912154Y1084231D01*
X912173D01*
X912210Y1084194D01*
X912247Y1084175D01*
X912321Y1084138D01*
X912506Y1084064D01*
X912599Y1084046D01*
X912691Y1084027D01*
X912729D01*
X912840Y1084046D01*
X912969Y1084101D01*
X913099Y1084212D01*
Y1084231D01*
X913117Y1084249D01*
X913154Y1084342D01*
X913173Y1084490D01*
X913154Y1084583D01*
X913136Y1084675D01*
X913117Y1084712D01*
X913080Y1084787D01*
X912988Y1084916D01*
X912914Y1084990D01*
X912821Y1085083D01*
X912803Y1085101D01*
X912766Y1085120D01*
X912710Y1085157D01*
X912636Y1085212D01*
X912469Y1085305D01*
X912358Y1085323D01*
X912247Y1085342D01*
D02*
G37*
G36*
X908007Y1081713D02*
X898360D01*
Y1081694D01*
X870048D01*
D01*
X874029D01*
X873918Y1081676D01*
X873807Y1081620D01*
X873677Y1081509D01*
X873658Y1081472D01*
X873621Y1081398D01*
X873603Y1081250D01*
Y1081157D01*
X873640Y1081046D01*
X875973Y1074195D01*
Y1074176D01*
X875992Y1074139D01*
Y1074084D01*
X876010Y1074010D01*
X875992Y1073843D01*
X875973Y1073751D01*
X875936Y1073677D01*
X875918Y1073640D01*
X875825Y1073584D01*
X875695Y1073510D01*
X875603Y1073491D01*
X875492Y1073473D01*
X872936D01*
X870362Y1081046D01*
Y1081065D01*
X870344Y1081083D01*
X870288Y1081176D01*
X870196Y1081324D01*
X870048Y1081456D01*
X870029Y1081472D01*
X870011Y1081490D01*
X869992Y1081509D01*
X869937Y1081546D01*
X869863Y1081583D01*
X869696Y1081657D01*
X869603Y1081694D01*
X869749D01*
X869455D01*
D01*
X869344Y1081676D01*
X869233Y1081620D01*
X869103Y1081509D01*
X869085Y1081472D01*
X869048Y1081398D01*
X869029Y1081250D01*
Y1081157D01*
X869066Y1081046D01*
X869526Y1079694D01*
X871862Y1072825D01*
X871881Y1072806D01*
X871899Y1072732D01*
X871955Y1072621D01*
X872048Y1072510D01*
X872159Y1072399D01*
X872307Y1072288D01*
X872510Y1072214D01*
X872733Y1072195D01*
X875973D01*
X876066Y1072214D01*
X876232Y1072232D01*
X876362Y1072258D01*
X876417Y1072269D01*
X876621Y1072343D01*
X876825Y1072436D01*
X877010Y1072584D01*
X877177Y1072769D01*
X877195Y1072788D01*
X877232Y1072880D01*
X877288Y1072991D01*
X877325Y1073158D01*
X877362Y1073362D01*
X877380Y1073621D01*
X877343Y1073899D01*
X877269Y1074195D01*
X876550Y1076306D01*
X874936Y1081046D01*
Y1081065D01*
X874918Y1081083D01*
X874862Y1081176D01*
X874769Y1081324D01*
X874603Y1081472D01*
X874584Y1081490D01*
X874566Y1081509D01*
X874510Y1081546D01*
X874436Y1081583D01*
X874269Y1081657D01*
X874177Y1081694D01*
X876788D01*
X876677Y1081676D01*
X876565Y1081620D01*
X876436Y1081509D01*
X876417Y1081472D01*
X876380Y1081398D01*
X876362Y1081250D01*
Y1081157D01*
X876399Y1081046D01*
X879195Y1072825D01*
Y1072806D01*
X879213Y1072769D01*
X879269Y1072658D01*
X879361Y1072510D01*
X879510Y1072362D01*
X879528D01*
X879565Y1072343D01*
X879621Y1072306D01*
X879676Y1072288D01*
X879862Y1072214D01*
X880065Y1072195D01*
X880084D01*
X880158Y1072214D01*
X880269Y1072251D01*
X880435Y1072325D01*
X880454Y1072362D01*
X880510Y1072454D01*
X880528Y1072603D01*
Y1072714D01*
X880491Y1072825D01*
X879306Y1076306D01*
X882583D01*
X883768Y1072825D01*
Y1072806D01*
X883787Y1072769D01*
X883843Y1072658D01*
X883954Y1072510D01*
X884102Y1072362D01*
X884120D01*
X884139Y1072343D01*
X884194Y1072306D01*
X884268Y1072288D01*
X884435Y1072214D01*
X884639Y1072195D01*
X884657D01*
X884731Y1072214D01*
X884843Y1072251D01*
X885009Y1072325D01*
X885028Y1072362D01*
X885083Y1072454D01*
X885102Y1072603D01*
Y1072714D01*
D01*
X885077Y1072788D01*
X885065Y1072825D01*
X884083Y1075710D01*
X882269Y1081046D01*
Y1081065D01*
X882250Y1081083D01*
X882195Y1081176D01*
X882102Y1081324D01*
X881935Y1081472D01*
X881917Y1081490D01*
X881898Y1081509D01*
X881843Y1081546D01*
X881769Y1081583D01*
X881602Y1081657D01*
X881509Y1081694D01*
X885102D01*
X885398D01*
X885250Y1081657D01*
X885102Y1081628D01*
X885065Y1081620D01*
D01*
X884861Y1081546D01*
X884657Y1081453D01*
X884472Y1081305D01*
X884305Y1081102D01*
X884287Y1081083D01*
X884250Y1080991D01*
X884194Y1080880D01*
X884139Y1080713D01*
X884102Y1080509D01*
X884083Y1080250D01*
X884120Y1079991D01*
X884194Y1079676D01*
X885120Y1076935D01*
X885139Y1076917D01*
X885157Y1076843D01*
X885231Y1076732D01*
X885305Y1076621D01*
X885435Y1076510D01*
X885583Y1076398D01*
X885787Y1076324D01*
X886009Y1076306D01*
X889916D01*
X890638Y1074195D01*
Y1074176D01*
X890657Y1074139D01*
Y1074084D01*
X890675Y1074010D01*
X890657Y1073843D01*
X890638Y1073751D01*
X890601Y1073677D01*
X890583Y1073640D01*
X890490Y1073584D01*
X890360Y1073510D01*
X890286Y1073491D01*
X890175Y1073473D01*
X886935D01*
X886824Y1073454D01*
X886694Y1073380D01*
X886639Y1073343D01*
X886583Y1073269D01*
X886564Y1073232D01*
X886527Y1073139D01*
X886490Y1072991D01*
X886509Y1072917D01*
X886527Y1072825D01*
Y1072806D01*
X886546Y1072788D01*
X886601Y1072695D01*
X886694Y1072547D01*
X886842Y1072399D01*
X886861D01*
X886879Y1072362D01*
X886935Y1072343D01*
X887009Y1072306D01*
X887176Y1072232D01*
X887287Y1072214D01*
X887398Y1072195D01*
X890638D01*
X890731Y1072214D01*
X890897Y1072232D01*
X891027Y1072258D01*
X891083Y1072269D01*
X891286Y1072343D01*
X891490Y1072436D01*
X891675Y1072584D01*
X891842Y1072769D01*
X891860Y1072788D01*
X891897Y1072880D01*
X891953Y1072991D01*
X891990Y1073158D01*
X892027Y1073362D01*
X892036Y1073491D01*
X892045Y1073621D01*
X892016Y1073843D01*
X892008Y1073899D01*
X891934Y1074195D01*
X891027Y1076854D01*
X890064Y1079676D01*
X890046Y1079713D01*
X890009Y1079806D01*
X889934Y1079954D01*
X889842Y1080139D01*
X889694Y1080342D01*
X889509Y1080583D01*
X889286Y1080824D01*
X889027Y1081065D01*
X889009D01*
X888990Y1081083D01*
X888898Y1081157D01*
X888731Y1081268D01*
X888527Y1081379D01*
X888268Y1081490D01*
X887990Y1081602D01*
X887675Y1081676D01*
X887361Y1081694D01*
X891453D01*
X891342Y1081676D01*
X891231Y1081620D01*
X891101Y1081509D01*
X891083Y1081472D01*
X891046Y1081398D01*
X891027Y1081250D01*
Y1081157D01*
X891064Y1081046D01*
X891643Y1079343D01*
X893860Y1072825D01*
Y1072806D01*
X893879Y1072769D01*
X893934Y1072658D01*
X894027Y1072510D01*
X894175Y1072362D01*
X894193D01*
X894230Y1072343D01*
X894286Y1072306D01*
X894342Y1072288D01*
X894527Y1072214D01*
X894730Y1072195D01*
X894749D01*
X894823Y1072214D01*
X894934Y1072251D01*
X895101Y1072325D01*
X895119Y1072362D01*
X895175Y1072454D01*
X895193Y1072603D01*
Y1072714D01*
X895156Y1072825D01*
X893971Y1076306D01*
X897249D01*
X898415Y1072880D01*
X898434Y1072825D01*
Y1072806D01*
X898452Y1072769D01*
X898508Y1072658D01*
X898619Y1072510D01*
X898767Y1072362D01*
X898785D01*
X898804Y1072343D01*
X898859Y1072306D01*
X898934Y1072288D01*
D01*
X899100Y1072214D01*
X899304Y1072195D01*
X899322D01*
X899397Y1072214D01*
X899508Y1072251D01*
X899674Y1072325D01*
X899693Y1072362D01*
X899748Y1072454D01*
X899767Y1072603D01*
Y1072714D01*
D01*
X899730Y1072825D01*
X898360Y1076854D01*
X896934Y1081046D01*
Y1081065D01*
X896915Y1081083D01*
X896860Y1081176D01*
X896767Y1081324D01*
X896600Y1081472D01*
X896582Y1081490D01*
X896563Y1081509D01*
X896508Y1081546D01*
X896434Y1081583D01*
X896267Y1081657D01*
X896175Y1081694D01*
X898360D01*
Y1081713D01*
X898785D01*
X898711Y1081694D01*
X898600Y1081639D01*
X898471Y1081528D01*
X898434Y1081490D01*
X898397Y1081398D01*
X898360Y1081250D01*
Y1081157D01*
X898397Y1081046D01*
X899448Y1077954D01*
X901193Y1072825D01*
Y1072806D01*
X901211Y1072769D01*
X901267Y1072658D01*
X901359Y1072510D01*
X901507Y1072362D01*
X901526D01*
X901563Y1072343D01*
X901618Y1072306D01*
X901674Y1072288D01*
X901859Y1072214D01*
X902063Y1072195D01*
X902081D01*
X902156Y1072214D01*
X902267Y1072251D01*
X902433Y1072325D01*
X902452Y1072362D01*
X902507Y1072454D01*
X902526Y1072603D01*
Y1072714D01*
X902489Y1072825D01*
X900267Y1079343D01*
X902766Y1076565D01*
X902785Y1076547D01*
X902822Y1076510D01*
X902878Y1076454D01*
X902970Y1076398D01*
X903174Y1076287D01*
X903304Y1076250D01*
X903433Y1076232D01*
X903489D01*
X903600Y1076269D01*
X903674Y1076306D01*
X903748Y1076380D01*
X903803Y1076454D01*
X903859Y1076565D01*
X904452Y1079343D01*
X906674Y1072825D01*
Y1072806D01*
X906692Y1072769D01*
X906748Y1072658D01*
X906859Y1072510D01*
X907007Y1072362D01*
X907025D01*
X907044Y1072343D01*
X907099Y1072306D01*
X907173Y1072288D01*
X907340Y1072214D01*
X907544Y1072195D01*
X907562D01*
X907636Y1072214D01*
X907747Y1072251D01*
X907914Y1072325D01*
X907933Y1072362D01*
X907988Y1072454D01*
X908007Y1072603D01*
Y1072258D01*
Y1072714D01*
X907970Y1072825D01*
X905155Y1081046D01*
Y1081065D01*
X905137Y1081102D01*
X905081Y1081213D01*
X904970Y1081361D01*
X904822Y1081509D01*
X904803Y1081528D01*
X904785Y1081546D01*
X904729Y1081583D01*
X904655Y1081620D01*
X904489Y1081676D01*
X904396Y1081713D01*
X908007D01*
D02*
G37*
G36*
X938800Y1085342D02*
X933282D01*
X933189Y1085323D01*
X933060Y1085249D01*
X933004Y1085212D01*
X932949Y1085138D01*
X932930Y1085101D01*
X932875Y1085009D01*
X932856Y1084861D01*
Y1084787D01*
X932875Y1084694D01*
Y1084675D01*
X932893Y1084657D01*
X932949Y1084564D01*
X933041Y1084416D01*
X933189Y1084268D01*
X933208D01*
X933226Y1084231D01*
X933282Y1084212D01*
X933356Y1084175D01*
X933541Y1084101D01*
X933634Y1084083D01*
X933763Y1084064D01*
X935078D01*
X935837D01*
X939670Y1072825D01*
Y1072806D01*
X939689Y1072769D01*
X939744Y1072658D01*
X939855Y1072510D01*
X940003Y1072362D01*
X940022D01*
X940040Y1072343D01*
X940096Y1072306D01*
X940170Y1072288D01*
X940337Y1072214D01*
X940540Y1072195D01*
X941003D01*
X940559D01*
X940633Y1072214D01*
X940744Y1072251D01*
X940911Y1072306D01*
X940929Y1072343D01*
X940985Y1072436D01*
X941003Y1072603D01*
Y1072714D01*
X940966Y1072825D01*
X937133Y1084064D01*
X939281D01*
X939392Y1084083D01*
X939522Y1084138D01*
X939652Y1084231D01*
Y1084249D01*
X939670Y1084268D01*
X939689Y1084361D01*
Y1084509D01*
X939652Y1084694D01*
X939633Y1084712D01*
X939596Y1084805D01*
X939522Y1084916D01*
X939448Y1084990D01*
X939374Y1085083D01*
X939355Y1085101D01*
X939337Y1085120D01*
X939281Y1085157D01*
X939207Y1085212D01*
X939022Y1085305D01*
X938911Y1085323D01*
X938800Y1085342D01*
D02*
G37*
G36*
X929190Y1085323D02*
X929060D01*
X928912Y1085305D01*
X928745Y1085268D01*
X928579Y1085212D01*
X928393Y1085138D01*
X928264Y1085027D01*
X928153Y1084879D01*
X928134Y1084861D01*
X928060Y1084787D01*
X927986Y1084675D01*
X927894Y1084509D01*
X927801Y1084324D01*
X927745Y1084101D01*
X927727Y1083861D01*
X927764Y1083583D01*
Y1083564D01*
X927782Y1083546D01*
X927820Y1083435D01*
X927875Y1083268D01*
X927968Y1083046D01*
X928097Y1082824D01*
X928264Y1082583D01*
X928449Y1082342D01*
X928690Y1082120D01*
X928708D01*
X928727Y1082083D01*
X928838Y1082009D01*
X928986Y1081898D01*
X929171Y1081787D01*
X929653Y1081694D01*
X928468D01*
X928319Y1081657D01*
X928134Y1081620D01*
X927931Y1081546D01*
X927727Y1081453D01*
X927542Y1081305D01*
X927375Y1081102D01*
X927357Y1081083D01*
X927319Y1080991D01*
X927264Y1080880D01*
X927208Y1080713D01*
X927171Y1080509D01*
X927153Y1080250D01*
X927171Y1079991D01*
X927245Y1079676D01*
X929116Y1074195D01*
X929134Y1074158D01*
X929171Y1074065D01*
X929245Y1073899D01*
X929356Y1073714D01*
X929504Y1073491D01*
X929690Y1073251D01*
X929912Y1073010D01*
X930190Y1072788D01*
X930227Y1072769D01*
X930319Y1072695D01*
X930486Y1072603D01*
X930690Y1072492D01*
X930930Y1072380D01*
X931208Y1072288D01*
X931523Y1072214D01*
X931838Y1072195D01*
X933689D01*
X933782Y1072214D01*
X933930Y1072232D01*
X934115Y1072269D01*
X934319Y1072343D01*
X934522Y1072436D01*
X934708Y1072584D01*
X934874Y1072769D01*
X934893Y1072788D01*
X934930Y1072880D01*
X934985Y1073010D01*
X935041Y1073177D01*
X935078Y1073380D01*
Y1073621D01*
X935060Y1073899D01*
X934985Y1074195D01*
X933115Y1079676D01*
X932856Y1080442D01*
X931875Y1083342D01*
Y1083361D01*
X931856Y1083379D01*
X931819Y1083490D01*
X931727Y1083657D01*
X931615Y1083879D01*
X931449Y1084120D01*
X931264Y1084361D01*
X931023Y1084620D01*
X930727Y1084842D01*
X930690Y1084861D01*
X930597Y1084916D01*
X930449Y1084990D01*
X930264Y1085083D01*
X930023Y1085175D01*
X929764Y1085249D01*
X929486Y1085305D01*
X929190Y1085323D01*
D02*
G37*
G36*
X923098Y1081694D02*
X921135D01*
X920987Y1081657D01*
X920802Y1081620D01*
X920598Y1081546D01*
X920394Y1081453D01*
X920209Y1081305D01*
X920042Y1081102D01*
X920024Y1081083D01*
X919987Y1080991D01*
X919931Y1080880D01*
X919915Y1080824D01*
X919876Y1080694D01*
X919839Y1080491D01*
X919820Y1080250D01*
X919857Y1079972D01*
X919931Y1079676D01*
X920045Y1079343D01*
X921802Y1074195D01*
X921820Y1074158D01*
X921857Y1074065D01*
X921931Y1073899D01*
X922042Y1073714D01*
X922190Y1073473D01*
X922376Y1073251D01*
X922598Y1073010D01*
X922876Y1072769D01*
X922913Y1072751D01*
X923005Y1072677D01*
X923172Y1072584D01*
X923375Y1072492D01*
X923616Y1072380D01*
X923894Y1072288D01*
X924190Y1072214D01*
X924505Y1072195D01*
X921151D01*
X926375D01*
X926468Y1072214D01*
X926634Y1072232D01*
X926820Y1072269D01*
X927023Y1072343D01*
X927227Y1072436D01*
X927412Y1072584D01*
X927579Y1072769D01*
X927597Y1072788D01*
X927634Y1072880D01*
X927690Y1072991D01*
X927727Y1073158D01*
X927764Y1073362D01*
X927782Y1073621D01*
X927745Y1073899D01*
X927671Y1074195D01*
X927153Y1075714D01*
X925801Y1079676D01*
X925783Y1079713D01*
X925746Y1079806D01*
X925672Y1079954D01*
X925579Y1080139D01*
X925431Y1080342D01*
X925246Y1080583D01*
X925023Y1080824D01*
X924764Y1081065D01*
X924746D01*
X924727Y1081083D01*
X924635Y1081157D01*
X924468Y1081268D01*
X924264Y1081379D01*
X924005Y1081490D01*
X923727Y1081602D01*
X923412Y1081676D01*
X923098Y1081694D01*
D02*
G37*
G36*
X915765D02*
X913802D01*
X913654Y1081657D01*
X913469Y1081620D01*
X913265Y1081546D01*
X913062Y1081453D01*
X912877Y1081305D01*
X912710Y1081102D01*
X912691Y1081083D01*
X912654Y1080991D01*
X912599Y1080880D01*
X912543Y1080713D01*
X912506Y1080509D01*
X912488Y1080250D01*
X912525Y1079991D01*
X912599Y1079676D01*
X913525Y1076936D01*
X913543Y1076917D01*
X913562Y1076843D01*
X913636Y1076732D01*
X913710Y1076621D01*
X913839Y1076510D01*
X913988Y1076398D01*
X914191Y1076324D01*
X914414Y1076306D01*
X918320D01*
X919043Y1074195D01*
Y1074176D01*
X919061Y1074139D01*
Y1074084D01*
X919080Y1074010D01*
X919061Y1073843D01*
X919043Y1073751D01*
X919006Y1073677D01*
X918987Y1073640D01*
X918895Y1073584D01*
X918765Y1073510D01*
X918691Y1073491D01*
X918580Y1073473D01*
X915339D01*
X915228Y1073454D01*
X915099Y1073380D01*
X915043Y1073343D01*
X914987Y1073269D01*
X914969Y1073232D01*
X914932Y1073140D01*
X914895Y1072991D01*
X914913Y1072917D01*
X914932Y1072825D01*
Y1072806D01*
X914950Y1072788D01*
X915006Y1072695D01*
X915099Y1072547D01*
X915247Y1072399D01*
X915265D01*
X915284Y1072362D01*
X915339Y1072343D01*
X915413Y1072306D01*
X915580Y1072232D01*
X915691Y1072214D01*
X915802Y1072195D01*
X911766D01*
X919075D01*
X919043D01*
X919135Y1072214D01*
X919302Y1072232D01*
X919487Y1072269D01*
X919691Y1072343D01*
X919894Y1072436D01*
X920079Y1072584D01*
X920246Y1072769D01*
X920265Y1072788D01*
X920302Y1072880D01*
X920357Y1072991D01*
X920394Y1073158D01*
X920431Y1073362D01*
X920450Y1073621D01*
X920447Y1073640D01*
X920413Y1073899D01*
X920339Y1074195D01*
X919820Y1075714D01*
X918469Y1079676D01*
X918450Y1079713D01*
X918413Y1079806D01*
X918339Y1079954D01*
X918246Y1080139D01*
X918098Y1080342D01*
X917913Y1080583D01*
X917691Y1080824D01*
X917432Y1081065D01*
X917413D01*
X917395Y1081083D01*
X917302Y1081157D01*
X917135Y1081268D01*
X916932Y1081379D01*
X916673Y1081490D01*
X916395Y1081602D01*
X916080Y1081676D01*
X915765Y1081694D01*
D02*
G37*
G36*
X884639Y1072195D02*
D01*
X884573D01*
X884639D01*
D02*
G37*
G36*
X884083D02*
X880713D01*
X884083D01*
D01*
D02*
G37*
G36*
X865363Y1081694D02*
X863400D01*
X863252Y1081657D01*
X863067Y1081620D01*
X862863Y1081546D01*
X862660Y1081453D01*
X862474Y1081305D01*
X862308Y1081102D01*
X862289Y1081083D01*
X862252Y1080991D01*
X862197Y1080880D01*
X862141Y1080713D01*
X862104Y1080509D01*
X862086Y1080250D01*
X862123Y1079991D01*
X862197Y1079676D01*
X863122Y1076935D01*
X863141Y1076917D01*
X863159Y1076843D01*
X863234Y1076732D01*
X863308Y1076621D01*
X863437Y1076510D01*
X863585Y1076398D01*
X863789Y1076324D01*
X864011Y1076306D01*
X867918D01*
X868640Y1074195D01*
Y1074176D01*
X868659Y1074139D01*
Y1074084D01*
X868678Y1074010D01*
X868659Y1073843D01*
X868640Y1073751D01*
X868603Y1073677D01*
X868585Y1073640D01*
X868492Y1073584D01*
X868363Y1073510D01*
X868289Y1073491D01*
X868177Y1073473D01*
X864937D01*
X864826Y1073454D01*
X864696Y1073380D01*
X864641Y1073343D01*
X864585Y1073269D01*
X864567Y1073232D01*
X864530Y1073139D01*
X864493Y1072991D01*
X864511Y1072917D01*
X864530Y1072825D01*
Y1072806D01*
X864548Y1072788D01*
X864604Y1072695D01*
X864696Y1072547D01*
X864845Y1072399D01*
X864863D01*
X864882Y1072362D01*
X864937Y1072343D01*
X865011Y1072306D01*
X865178Y1072232D01*
X865289Y1072214D01*
X865400Y1072195D01*
X862086D01*
X868640D01*
X868733Y1072214D01*
X868900Y1072232D01*
X869029Y1072258D01*
X869085Y1072269D01*
X869288Y1072343D01*
X869492Y1072436D01*
X869677Y1072584D01*
X869844Y1072769D01*
X869863Y1072788D01*
X869900Y1072880D01*
X869955Y1072991D01*
X869992Y1073158D01*
X870029Y1073362D01*
X870045Y1073584D01*
X870048Y1073621D01*
X870011Y1073899D01*
X869937Y1074195D01*
X869029Y1076854D01*
X868066Y1079676D01*
X868048Y1079713D01*
X868011Y1079806D01*
X867937Y1079954D01*
X867844Y1080139D01*
X867696Y1080342D01*
X867511Y1080583D01*
X867289Y1080824D01*
X867029Y1081065D01*
X867011D01*
X866992Y1081083D01*
X866900Y1081157D01*
X866733Y1081268D01*
X866529Y1081379D01*
X866270Y1081490D01*
X865993Y1081602D01*
X865678Y1081676D01*
X865363Y1081694D01*
D02*
G37*
%LPD*%
G36*
X895915Y1081676D02*
X895804Y1081620D01*
X895675Y1081509D01*
X895656Y1081472D01*
X895619Y1081398D01*
X895601Y1081250D01*
Y1081157D01*
X895638Y1081046D01*
X896804Y1077583D01*
X893527D01*
X892360Y1081046D01*
Y1081065D01*
X892342Y1081083D01*
X892286Y1081176D01*
X892194Y1081324D01*
X892045Y1081456D01*
X892027Y1081472D01*
X892008Y1081490D01*
X891990Y1081509D01*
X891934Y1081546D01*
X891860Y1081583D01*
X891694Y1081657D01*
X891601Y1081694D01*
X892045D01*
D01*
X896027D01*
X895915Y1081676D01*
D02*
G37*
G36*
X881250D02*
X881139Y1081620D01*
X881010Y1081509D01*
X880991Y1081472D01*
X880954Y1081398D01*
X880935Y1081250D01*
Y1081157D01*
X880973Y1081046D01*
X882139Y1077583D01*
X878862D01*
X877695Y1081046D01*
Y1081065D01*
X877676Y1081083D01*
X877621Y1081176D01*
X877528Y1081324D01*
X877380Y1081456D01*
X877362Y1081472D01*
X877343Y1081490D01*
X877325Y1081509D01*
X877269Y1081546D01*
X877195Y1081583D01*
X877028Y1081657D01*
X876936Y1081694D01*
X877380D01*
D01*
X881361D01*
X881250Y1081676D01*
D02*
G37*
G36*
X904137D02*
X904044Y1081639D01*
X904026D01*
X903970Y1081602D01*
X903896Y1081528D01*
X903840Y1081416D01*
X902841Y1077954D01*
X899767Y1081096D01*
X899543Y1081324D01*
X899489Y1081379D01*
X899471Y1081398D01*
X899434Y1081435D01*
X899360Y1081490D01*
X899285Y1081546D01*
X899063Y1081657D01*
X898952Y1081694D01*
X898822Y1081713D01*
X904211D01*
X904137Y1081676D01*
D02*
G37*
G36*
X887916Y1080398D02*
X887990D01*
X888175Y1080324D01*
X888268Y1080268D01*
X888379Y1080194D01*
X888398D01*
X888416Y1080157D01*
X888527Y1080046D01*
X888657Y1079898D01*
X888768Y1079676D01*
X889472Y1077583D01*
X886194D01*
X885490Y1079676D01*
Y1079694D01*
X885472Y1079731D01*
X885453Y1079787D01*
Y1079861D01*
Y1080028D01*
X885490Y1080102D01*
X885528Y1080194D01*
Y1080213D01*
X885546Y1080231D01*
X885639Y1080305D01*
X885768Y1080379D01*
X885861Y1080417D01*
X887861D01*
X887916Y1080398D01*
D02*
G37*
G36*
X929727Y1084046D02*
X929801D01*
X929986Y1083972D01*
X930097Y1083935D01*
X930208Y1083861D01*
X930227D01*
X930245Y1083824D01*
X930338Y1083750D01*
X930412Y1083676D01*
X930467Y1083583D01*
X930523Y1083472D01*
X930579Y1083342D01*
X931134Y1081694D01*
X930597Y1082139D01*
X930579Y1082157D01*
X930523Y1082176D01*
X930449Y1082231D01*
X930338Y1082305D01*
X930190Y1082379D01*
X930023Y1082490D01*
X929819Y1082639D01*
X929597Y1082787D01*
X929579Y1082805D01*
X929541Y1082824D01*
X929467Y1082879D01*
X929393Y1082953D01*
X929245Y1083139D01*
X929171Y1083250D01*
X929134Y1083361D01*
Y1083379D01*
X929116Y1083416D01*
X929097Y1083472D01*
Y1083546D01*
Y1083712D01*
X929134Y1083787D01*
X929171Y1083861D01*
Y1083879D01*
X929190Y1083898D01*
X929282Y1083972D01*
X929412Y1084027D01*
X929504Y1084064D01*
X929671D01*
X929727Y1084046D01*
D02*
G37*
G36*
X930967Y1080380D02*
X931041D01*
X931227Y1080305D01*
X931338Y1080250D01*
X931449Y1080176D01*
X931467D01*
X931486Y1080139D01*
X931597Y1080046D01*
X931727Y1079880D01*
X931819Y1079676D01*
X932856Y1076637D01*
X933689Y1074195D01*
Y1074176D01*
X933708Y1074139D01*
Y1074084D01*
X933726Y1074010D01*
Y1073843D01*
X933708Y1073751D01*
X933671Y1073677D01*
X933634Y1073640D01*
X933560Y1073584D01*
X933411Y1073510D01*
X933319Y1073491D01*
X933208Y1073473D01*
X932856D01*
X931356D01*
X931301Y1073491D01*
X931227D01*
X931023Y1073565D01*
X930930Y1073603D01*
X930819Y1073677D01*
X930801Y1073695D01*
X930764Y1073714D01*
X930652Y1073825D01*
X930523Y1073991D01*
X930467Y1074084D01*
X930430Y1074195D01*
X928560Y1079676D01*
Y1079694D01*
X928542Y1079732D01*
X928523Y1079787D01*
Y1079843D01*
Y1080009D01*
X928560Y1080102D01*
X928597Y1080176D01*
Y1080194D01*
X928616Y1080213D01*
X928708Y1080287D01*
X928838Y1080361D01*
X928931Y1080398D01*
X930912D01*
X930967Y1080380D01*
D02*
G37*
G36*
X923653Y1080398D02*
X923727D01*
X923913Y1080324D01*
X924005Y1080268D01*
X924116Y1080194D01*
X924135D01*
X924153Y1080157D01*
X924264Y1080046D01*
X924394Y1079898D01*
X924505Y1079676D01*
X926375Y1074195D01*
Y1074176D01*
X926394Y1074139D01*
Y1074084D01*
X926412Y1074010D01*
X926394Y1073843D01*
X926375Y1073751D01*
X926338Y1073677D01*
X926320Y1073640D01*
X926227Y1073584D01*
X926097Y1073510D01*
X926005Y1073491D01*
X925894Y1073473D01*
X924005D01*
X923950Y1073491D01*
X923875D01*
X923690Y1073565D01*
X923598Y1073603D01*
X923487Y1073677D01*
X923468Y1073695D01*
X923431Y1073714D01*
X923320Y1073825D01*
X923190Y1073973D01*
X923135Y1074084D01*
X923098Y1074195D01*
X921228Y1079676D01*
Y1079694D01*
X921209Y1079732D01*
X921190Y1079787D01*
Y1079861D01*
Y1080028D01*
X921228Y1080102D01*
X921265Y1080194D01*
Y1080213D01*
X921283Y1080231D01*
X921376Y1080305D01*
X921505Y1080380D01*
X921598Y1080417D01*
X923598D01*
X923653Y1080398D01*
D02*
G37*
G36*
X916321D02*
X916395D01*
X916580Y1080324D01*
X916673Y1080268D01*
X916784Y1080194D01*
X916802D01*
X916821Y1080157D01*
X916932Y1080046D01*
X917061Y1079898D01*
X917172Y1079676D01*
X917876Y1077583D01*
X914599D01*
X913895Y1079676D01*
Y1079694D01*
X913876Y1079732D01*
X913858Y1079787D01*
Y1079861D01*
Y1080028D01*
X913895Y1080102D01*
X913932Y1080194D01*
Y1080213D01*
X913951Y1080231D01*
X914043Y1080305D01*
X914173Y1080380D01*
X914265Y1080417D01*
X916265D01*
X916321Y1080398D01*
D02*
G37*
G36*
X865919Y1080398D02*
X865993D01*
X866178Y1080324D01*
X866270Y1080268D01*
X866381Y1080194D01*
X866400D01*
X866418Y1080157D01*
X866529Y1080046D01*
X866659Y1079898D01*
X866770Y1079676D01*
X867474Y1077583D01*
X864196D01*
X863493Y1079676D01*
Y1079694D01*
X863474Y1079731D01*
X863456Y1079787D01*
Y1079861D01*
Y1080028D01*
X863493Y1080102D01*
X863530Y1080194D01*
Y1080213D01*
X863548Y1080231D01*
X863641Y1080305D01*
X863771Y1080379D01*
X863863Y1080417D01*
X865863D01*
X865919Y1080398D01*
D02*
G37*
%LPC*%
G36*
X360069Y556260D02*
X360032D01*
X359940Y556241D01*
X359810Y556186D01*
X359644Y556075D01*
X359625D01*
X359606Y556038D01*
X359514Y555945D01*
X359440Y555797D01*
X359421Y555704D01*
X359403Y555612D01*
Y556260D01*
D01*
Y543113D01*
D01*
Y543706D01*
X359421Y543613D01*
X359477Y543465D01*
X359588Y543280D01*
X359606D01*
X359625Y543261D01*
X359736Y543206D01*
X359884Y543132D01*
X360069Y543113D01*
X359403D01*
X360699D01*
D01*
X360088D01*
X360162Y543132D01*
X360292Y543169D01*
X360477Y543224D01*
X360514Y543261D01*
X360588Y543354D01*
X360662Y543521D01*
X360680Y543632D01*
X360699Y543743D01*
Y552020D01*
X360680Y552112D01*
X360625Y552242D01*
X360514Y552390D01*
Y552408D01*
X360477Y552427D01*
X360384Y552501D01*
X360255Y552575D01*
X360162Y552612D01*
X360032D01*
X359921Y552594D01*
X359773Y552538D01*
X359625Y552446D01*
X359606D01*
X359588Y552408D01*
X359514Y552335D01*
X359440Y552186D01*
X359403Y552094D01*
Y555575D01*
X359421Y555482D01*
X359477Y555334D01*
X359569Y555186D01*
X359606Y555149D01*
X359699Y555093D01*
X359847Y555019D01*
X359958Y555001D01*
X360069Y554982D01*
X360125D01*
X360181Y555001D01*
X360255D01*
X360403Y555056D01*
X360551Y555168D01*
X360569Y555205D01*
X360625Y555297D01*
X360680Y555427D01*
X360699Y555612D01*
Y555630D01*
X360680Y555723D01*
X360643Y555834D01*
X360551Y556001D01*
Y556019D01*
X360514Y556038D01*
X360440Y556130D01*
X360292Y556223D01*
X360181Y556241D01*
X360069Y556260D01*
D02*
G37*
G36*
X369883D02*
X368002D01*
X369198D01*
X369124Y556241D01*
X369031Y556223D01*
X368920Y556149D01*
X368883Y556130D01*
X368828Y556075D01*
X368717Y555964D01*
X368680Y555890D01*
X368624Y555797D01*
X366032Y545761D01*
X363476Y555742D01*
Y555760D01*
Y555779D01*
X363439Y555871D01*
X363365Y555982D01*
X363273Y556093D01*
X363236Y556112D01*
X363162Y556167D01*
X363032Y556223D01*
X362865Y556260D01*
X362828D01*
X362717Y556241D01*
X362569Y556186D01*
X362402Y556075D01*
X362384D01*
X362365Y556038D01*
X362291Y555964D01*
X362236Y555816D01*
X362199Y555723D01*
Y556260D01*
D01*
Y543113D01*
D01*
Y555612D01*
X362217Y555464D01*
X365421Y543650D01*
Y543632D01*
X365458Y543576D01*
X365495Y543484D01*
X365550Y543391D01*
X365643Y543280D01*
X365754Y543206D01*
X365884Y543132D01*
X366050Y543113D01*
X369883D01*
X366124D01*
X366198Y543150D01*
X366291Y543187D01*
X366402Y543243D01*
X366495Y543335D01*
X366587Y543465D01*
X366661Y543650D01*
X369865Y555464D01*
X369883Y555612D01*
Y555649D01*
X369865Y555760D01*
X369809Y555908D01*
X369698Y556056D01*
Y556075D01*
X369661Y556093D01*
X369568Y556167D01*
X369420Y556223D01*
X369328Y556260D01*
X369883D01*
D02*
G37*
G36*
X377197D02*
X371328D01*
Y543113D01*
D01*
Y545909D01*
X371346Y545817D01*
Y545724D01*
X371365Y545594D01*
X371439Y545317D01*
X371531Y545002D01*
X371698Y544650D01*
X371902Y544298D01*
X372050Y544132D01*
X372198Y543965D01*
X372216D01*
X372235Y543928D01*
X372290Y543891D01*
X372346Y543835D01*
X372531Y543687D01*
X372772Y543539D01*
X373087Y543391D01*
X373438Y543243D01*
X373827Y543150D01*
X374049Y543132D01*
X374272Y543113D01*
X377197D01*
X376623D01*
X376734Y543132D01*
X376882Y543187D01*
X377031Y543280D01*
Y543298D01*
X377049Y543317D01*
X377105Y543410D01*
X377179Y543558D01*
X377197Y543743D01*
Y543761D01*
X377179Y543854D01*
X377142Y543965D01*
X377049Y544132D01*
Y544150D01*
X377012Y544169D01*
X376938Y544261D01*
X376790Y544354D01*
X376679Y544372D01*
X376568Y544391D01*
X374160D01*
X374031Y544409D01*
X373864Y544446D01*
X373679Y544502D01*
X373494Y544594D01*
X373290Y544706D01*
X373105Y544854D01*
X373087Y544872D01*
X373031Y544946D01*
X372957Y545039D01*
X372864Y545187D01*
X372772Y545354D01*
X372698Y545557D01*
X372642Y545780D01*
X372624Y546020D01*
Y547854D01*
Y547891D01*
Y547965D01*
X372642Y548094D01*
X372679Y548242D01*
X372735Y548428D01*
X372827Y548613D01*
X372938Y548816D01*
X373105Y549002D01*
X373124Y549020D01*
X373198Y549076D01*
X373290Y549150D01*
X373438Y549242D01*
X373605Y549335D01*
X373809Y549409D01*
X374031Y549464D01*
X374272Y549483D01*
X376586D01*
X376660Y549501D01*
X376771Y549520D01*
X376882Y549557D01*
X376993Y549631D01*
X377105Y549742D01*
X377179Y549909D01*
X377197Y550112D01*
Y555649D01*
X377179Y555723D01*
X377160Y555816D01*
X377123Y555945D01*
X377049Y556056D01*
X376938Y556167D01*
X376771Y556241D01*
X376568Y556260D01*
X377197D01*
D02*
G37*
%LPD*%
G36*
X371846Y556241D02*
X371698Y556167D01*
X371624Y556130D01*
X371550Y556056D01*
X371531D01*
X371513Y556019D01*
X371439Y555927D01*
X371365Y555779D01*
X371328Y555704D01*
Y556260D01*
X371957D01*
X371846Y556241D01*
D02*
G37*
G36*
X371346Y555482D02*
X371401Y555334D01*
X371513Y555186D01*
X371550Y555149D01*
X371642Y555093D01*
X371790Y555019D01*
X371883Y555001D01*
X371994Y554982D01*
X375901D01*
Y550761D01*
X374160D01*
X374068Y550742D01*
X373957D01*
X373846Y550723D01*
X373568Y550649D01*
X373235Y550557D01*
X372883Y550390D01*
X372531Y550187D01*
X372364Y550038D01*
X372198Y549890D01*
X372179Y549872D01*
X372161Y549853D01*
X372068Y549742D01*
X371920Y549557D01*
X371753Y549316D01*
X371605Y549020D01*
X371457Y548668D01*
X371365Y548261D01*
X371328Y548057D01*
Y555575D01*
X371346Y555482D01*
D02*
G37*
%LPC*%
G36*
X251460Y924560D02*
X243776D01*
D01*
X244405D01*
X244294Y924541D01*
X244146Y924486D01*
X243979Y924375D01*
X243961D01*
X243942Y924338D01*
X243868Y924264D01*
X243813Y924116D01*
X243776Y924023D01*
Y923912D01*
X243794Y923764D01*
X246998Y911950D01*
Y911932D01*
X247034Y911876D01*
X247072Y911784D01*
X247127Y911691D01*
X247220Y911580D01*
X247331Y911506D01*
X247460Y911432D01*
X247627Y911413D01*
X247701D01*
X247775Y911450D01*
X247868Y911487D01*
X247979Y911543D01*
X248071Y911635D01*
X248164Y911765D01*
X248238Y911950D01*
X251441Y923764D01*
X251460Y923912D01*
Y919005D01*
Y923912D01*
Y923949D01*
X251441Y924060D01*
X251386Y924208D01*
X251275Y924356D01*
Y924375D01*
X251238Y924393D01*
X251145Y924467D01*
X250997Y924523D01*
X250905Y924560D01*
X251460D01*
D02*
G37*
G36*
X242294Y920912D02*
X236425D01*
D01*
X238313D01*
X238165Y920875D01*
X237961Y920838D01*
X237739Y920764D01*
X237498Y920671D01*
X237258Y920523D01*
X237036Y920320D01*
X237017Y920301D01*
X236943Y920209D01*
X236850Y920098D01*
X236721Y919912D01*
X236610Y919709D01*
X236517Y919468D01*
X236443Y919190D01*
X236425Y918894D01*
Y913283D01*
X236462Y913117D01*
X236499Y912932D01*
X236573Y912691D01*
X236665Y912469D01*
X236813Y912228D01*
X237017Y911987D01*
X237036Y911969D01*
X237128Y911895D01*
X237258Y911802D01*
X237424Y911710D01*
X237628Y911598D01*
X237869Y911506D01*
X238147Y911432D01*
X238461Y911413D01*
X240331D01*
X240443Y911432D01*
X240591Y911450D01*
X240794Y911487D01*
X241017Y911561D01*
X241257Y911654D01*
X241498Y911802D01*
X241720Y911987D01*
X241739Y912006D01*
X241813Y912098D01*
X241905Y912209D01*
X241998Y912376D01*
X242109Y912580D01*
X242202Y912839D01*
X242276Y913117D01*
X242294Y913413D01*
Y912006D01*
Y918950D01*
Y918931D01*
X242276Y919024D01*
X242257Y919172D01*
X242220Y919357D01*
X242165Y919560D01*
X242054Y919801D01*
X241924Y920042D01*
X241739Y920283D01*
X241720Y920301D01*
X241628Y920375D01*
X241517Y920486D01*
X241350Y920597D01*
X241128Y920708D01*
X240887Y920820D01*
X240609Y920894D01*
X240294Y920912D01*
X242294D01*
D01*
D02*
G37*
G36*
X234962D02*
X229092D01*
D01*
X229722D01*
X229610Y920894D01*
X229462Y920838D01*
X229314Y920727D01*
X229296D01*
X229277Y920690D01*
X229203Y920616D01*
X229129Y920468D01*
X229092Y920375D01*
Y911413D01*
Y912024D01*
X229111Y911950D01*
X229129Y911839D01*
X229166Y911728D01*
X229259Y911617D01*
X229370Y911506D01*
X229536Y911432D01*
X229758Y911413D01*
X232999D01*
X233110Y911432D01*
X233258Y911450D01*
X233462Y911487D01*
X233684Y911561D01*
X233925Y911654D01*
X234165Y911802D01*
X234388Y911987D01*
X234406Y912006D01*
X234480Y912098D01*
X234573Y912209D01*
X234665Y912376D01*
X234776Y912580D01*
X234869Y912839D01*
X234943Y913117D01*
X234962Y913413D01*
Y911950D01*
Y920301D01*
X234943Y920394D01*
X234888Y920542D01*
X234776Y920690D01*
Y920708D01*
X234739Y920727D01*
X234647Y920801D01*
X234517Y920875D01*
X234425Y920912D01*
X234962D01*
D02*
G37*
G36*
X227611Y924560D02*
X223574D01*
D01*
X226055D01*
X225944Y924541D01*
X225796Y924486D01*
X225648Y924375D01*
X225629D01*
X225611Y924338D01*
X225537Y924264D01*
X225463Y924116D01*
X225426Y924023D01*
Y923912D01*
Y920912D01*
X224204D01*
X224093Y920894D01*
X223944Y920820D01*
X223870Y920764D01*
X223796Y920690D01*
X223778D01*
X223759Y920653D01*
X223685Y920560D01*
X223611Y920431D01*
X223574Y920338D01*
Y920227D01*
X223592Y920135D01*
X223648Y919986D01*
X223759Y919838D01*
X223796Y919801D01*
X223889Y919746D01*
X224037Y919672D01*
X224130Y919653D01*
X224241Y919635D01*
X225426D01*
Y912043D01*
Y912024D01*
Y911987D01*
X225444Y911876D01*
X225500Y911728D01*
X225611Y911580D01*
X225648Y911561D01*
X225740Y911506D01*
X225907Y911432D01*
X226092Y911413D01*
X226111D01*
X226185Y911432D01*
X226315Y911469D01*
X226500Y911524D01*
X226537Y911561D01*
X226611Y911654D01*
X226685Y911821D01*
X226703Y911932D01*
X226722Y912043D01*
Y919635D01*
X227037D01*
X227148Y919653D01*
X227296Y919709D01*
X227444Y919801D01*
Y919820D01*
X227463Y919838D01*
X227518Y919949D01*
X227592Y920098D01*
X227611Y920264D01*
Y920283D01*
X227592Y920375D01*
X227555Y920486D01*
X227463Y920653D01*
Y920671D01*
X227425Y920690D01*
X227351Y920783D01*
X227203Y920875D01*
X227092Y920894D01*
X226981Y920912D01*
X226722D01*
Y923912D01*
Y923930D01*
Y923949D01*
X226703Y924042D01*
X226648Y924190D01*
X226537Y924338D01*
Y924356D01*
X226500Y924375D01*
X226407Y924449D01*
X226277Y924523D01*
X226185Y924560D01*
X227611D01*
D01*
D02*
G37*
%LPD*%
G36*
X250701Y924541D02*
X250608Y924523D01*
X250497Y924449D01*
X250460Y924430D01*
X250405Y924375D01*
X250294Y924264D01*
X250256Y924190D01*
X250201Y924097D01*
X247609Y914061D01*
X245053Y924042D01*
Y924060D01*
Y924079D01*
X245016Y924171D01*
X244942Y924282D01*
X244850Y924393D01*
X244813Y924412D01*
X244739Y924467D01*
X244609Y924523D01*
X244442Y924560D01*
X250775D01*
X250701Y924541D01*
D02*
G37*
G36*
X240406Y919616D02*
X240461D01*
X240628Y919542D01*
X240720Y919486D01*
X240794Y919412D01*
X240832Y919375D01*
X240887Y919264D01*
X240961Y919116D01*
X240980Y919005D01*
X240998Y918894D01*
Y913413D01*
Y913394D01*
Y913357D01*
X240980Y913302D01*
Y913228D01*
X240905Y913061D01*
X240868Y912969D01*
X240794Y912895D01*
X240776D01*
X240757Y912858D01*
X240646Y912802D01*
X240498Y912728D01*
X240406Y912709D01*
X240294Y912691D01*
X238406D01*
X238350Y912709D01*
X238276D01*
X238109Y912783D01*
X238017Y912821D01*
X237943Y912895D01*
X237924Y912913D01*
X237906Y912932D01*
X237832Y913043D01*
X237758Y913191D01*
X237721Y913302D01*
Y913413D01*
Y918894D01*
Y918912D01*
Y918950D01*
X237739Y919005D01*
Y919079D01*
X237813Y919246D01*
X237869Y919320D01*
X237943Y919412D01*
X237961Y919431D01*
X237980Y919449D01*
X238091Y919523D01*
X238258Y919598D01*
X238350Y919635D01*
X240350D01*
X240406Y919616D01*
D02*
G37*
G36*
X234184Y920894D02*
X234036Y920838D01*
X233888Y920727D01*
X233869D01*
X233851Y920690D01*
X233777Y920616D01*
X233703Y920468D01*
X233666Y920375D01*
Y920264D01*
Y913413D01*
Y913394D01*
Y913357D01*
X233647Y913302D01*
Y913228D01*
X233573Y913061D01*
X233536Y912969D01*
X233462Y912895D01*
X233443D01*
X233425Y912858D01*
X233314Y912802D01*
X233166Y912728D01*
X233073Y912709D01*
X232962Y912691D01*
X230388D01*
Y920264D01*
Y920283D01*
Y920301D01*
X230370Y920394D01*
X230314Y920542D01*
X230203Y920690D01*
Y920708D01*
X230166Y920727D01*
X230073Y920801D01*
X229944Y920875D01*
X229851Y920912D01*
X234295D01*
X234184Y920894D01*
D02*
G37*
%LPC*%
G36*
X405130Y556260D02*
X398983D01*
X398871Y556241D01*
X398723Y556167D01*
X398649Y556130D01*
X398575Y556056D01*
X398557D01*
X398538Y556019D01*
X398464Y555927D01*
X398390Y555779D01*
X398353Y555704D01*
Y556260D01*
D01*
Y543113D01*
X402334D01*
X405130D01*
X402334D01*
X402408Y543132D01*
X402630Y543150D01*
X402890Y543224D01*
X403204Y543317D01*
X403538Y543465D01*
X403889Y543669D01*
X404075Y543798D01*
X404241Y543946D01*
X404260Y543965D01*
X404278Y543983D01*
X404315Y544039D01*
X404371Y544095D01*
X404519Y544280D01*
X404686Y544520D01*
X404852Y544835D01*
X404982Y545187D01*
X405093Y545576D01*
X405112Y545798D01*
X405130Y546020D01*
Y553446D01*
X405112Y553538D01*
Y553631D01*
X405093Y553742D01*
X405019Y554020D01*
X404926Y554353D01*
X404778Y554686D01*
X404575Y555038D01*
X404445Y555205D01*
X404297Y555371D01*
X404278Y555390D01*
X404260Y555408D01*
X404204Y555445D01*
X404149Y555519D01*
X403964Y555649D01*
X403723Y555816D01*
X403408Y555982D01*
X403056Y556130D01*
X402667Y556223D01*
X402445Y556241D01*
X402223Y556260D01*
X405130D01*
D02*
G37*
G36*
X388021D02*
X384706D01*
X384614Y556241D01*
X384502D01*
X384391Y556223D01*
X384114Y556149D01*
X383780Y556056D01*
X383428Y555890D01*
X383077Y555686D01*
X382910Y555538D01*
X382743Y555390D01*
X382725Y555371D01*
X382706Y555353D01*
X382595Y555242D01*
X382466Y555056D01*
X382299Y554816D01*
X382132Y554519D01*
X381984Y554168D01*
X381892Y553760D01*
X381873Y553557D01*
X381855Y553334D01*
Y556260D01*
D01*
D01*
Y543113D01*
D01*
Y545909D01*
X381873Y545817D01*
Y545724D01*
X381892Y545594D01*
X381966Y545317D01*
X382058Y545002D01*
X382225Y544650D01*
X382429Y544298D01*
X382577Y544132D01*
X382725Y543965D01*
X382743D01*
X382762Y543928D01*
X382817Y543891D01*
X382873Y543835D01*
X383058Y543687D01*
X383299Y543539D01*
X383614Y543391D01*
X383965Y543243D01*
X384373Y543150D01*
X384595Y543132D01*
X384817Y543113D01*
X381855D01*
X388650D01*
D01*
X388039D01*
X388113Y543132D01*
X388224Y543150D01*
X388335Y543187D01*
X388447Y543261D01*
X388558Y543372D01*
X388632Y543539D01*
X388650Y543743D01*
Y555649D01*
X388632Y555723D01*
X388613Y555816D01*
X388576Y555945D01*
X388502Y556056D01*
X388391Y556167D01*
X388224Y556241D01*
X388021Y556260D01*
D02*
G37*
G36*
X396353D02*
X396223D01*
X396149Y556241D01*
X396057Y556223D01*
X395927Y556167D01*
X395890Y556149D01*
X395872Y556130D01*
X395835Y556075D01*
X395779Y556019D01*
X395742Y555927D01*
X395686Y555816D01*
X395649Y555667D01*
X391391Y546020D01*
Y555612D01*
Y555630D01*
Y555649D01*
X391372Y555742D01*
X391317Y555890D01*
X391205Y556038D01*
Y556056D01*
X391169Y556075D01*
X391076Y556149D01*
X390946Y556223D01*
X390854Y556260D01*
X390724D01*
X390613Y556241D01*
X390465Y556186D01*
X390317Y556075D01*
X390298D01*
X390280Y556038D01*
X390206Y555964D01*
X390132Y555816D01*
X390094Y555723D01*
Y556260D01*
D01*
Y543113D01*
D01*
Y543706D01*
X390113Y543632D01*
X390169Y543484D01*
X390280Y543298D01*
X390298D01*
X390317Y543261D01*
X390428Y543206D01*
X390594Y543150D01*
X390798Y543113D01*
X390094D01*
X394286D01*
X390798D01*
X391094Y543169D01*
X391335Y543447D01*
X395594Y553353D01*
Y543743D01*
Y543724D01*
Y543687D01*
X395612Y543576D01*
X395668Y543428D01*
X395779Y543280D01*
X395816Y543261D01*
X395909Y543206D01*
X396075Y543132D01*
X396260Y543113D01*
X396890D01*
X396279D01*
X396353Y543132D01*
X396483Y543169D01*
X396668Y543243D01*
X396705Y543280D01*
X396779Y543372D01*
X396853Y543521D01*
X396872Y543632D01*
X396890Y543743D01*
Y555649D01*
X396872Y555742D01*
X396816Y555890D01*
X396705Y556038D01*
Y556056D01*
X396668Y556075D01*
X396575Y556149D01*
X396446Y556223D01*
X396353Y556260D01*
D02*
G37*
%LPD*%
G36*
X402334Y543113D02*
D01*
D01*
D01*
D02*
G37*
G36*
X398371Y555482D02*
X398427Y555334D01*
X398538Y555186D01*
X398575Y555149D01*
X398668Y555093D01*
X398816Y555019D01*
X398908Y555001D01*
X399020Y554982D01*
X402334D01*
X402464Y554964D01*
X402612Y554927D01*
X402797Y554871D01*
X402982Y554779D01*
X403186Y554668D01*
X403371Y554501D01*
X403389Y554482D01*
X403445Y554408D01*
X403519Y554316D01*
X403593Y554168D01*
X403686Y554001D01*
X403760Y553797D01*
X403815Y553575D01*
X403834Y553334D01*
Y546020D01*
Y545983D01*
Y545909D01*
X403815Y545780D01*
X403778Y545631D01*
X403723Y545446D01*
X403630Y545261D01*
X403519Y545057D01*
X403352Y544872D01*
X403334Y544854D01*
X403260Y544798D01*
X403167Y544724D01*
X403019Y544632D01*
X402853Y544539D01*
X402667Y544465D01*
X402445Y544409D01*
X402223Y544391D01*
X399649D01*
Y549483D01*
X400890D01*
X401001Y549501D01*
X401149Y549557D01*
X401297Y549650D01*
Y549668D01*
X401316Y549687D01*
X401371Y549779D01*
X401445Y549927D01*
X401464Y550112D01*
Y550131D01*
X401445Y550224D01*
X401408Y550335D01*
X401316Y550501D01*
Y550520D01*
X401278Y550538D01*
X401204Y550631D01*
X401056Y550723D01*
X400945Y550742D01*
X400834Y550761D01*
X398983D01*
X398908Y550742D01*
X398816Y550723D01*
X398686Y550686D01*
X398557Y550594D01*
X398464Y550483D01*
X398390Y550335D01*
X398353Y550112D01*
Y555575D01*
X398371Y555482D01*
D02*
G37*
G36*
Y543650D02*
X398390Y543539D01*
X398427Y543428D01*
X398520Y543317D01*
X398631Y543206D01*
X398797Y543132D01*
X399020Y543113D01*
X398353D01*
Y543724D01*
X398371Y543650D01*
D02*
G37*
G36*
X387354Y544391D02*
X384706D01*
X384577Y544409D01*
X384428Y544446D01*
X384243Y544502D01*
X384040Y544594D01*
X383836Y544706D01*
X383651Y544854D01*
X383632Y544872D01*
X383577Y544946D01*
X383484Y545039D01*
X383391Y545169D01*
X383317Y545335D01*
X383225Y545539D01*
X383169Y545761D01*
X383151Y546020D01*
Y553334D01*
Y553371D01*
Y553446D01*
X383169Y553575D01*
X383206Y553723D01*
X383280Y553908D01*
X383354Y554094D01*
X383484Y554297D01*
X383651Y554482D01*
X383669Y554501D01*
X383743Y554557D01*
X383836Y554649D01*
X383984Y554742D01*
X384151Y554816D01*
X384354Y554908D01*
X384577Y554964D01*
X384817Y554982D01*
X387354D01*
Y544391D01*
D02*
G37*
%LPC*%
G36*
X402597Y626110D02*
X395802D01*
X398653D01*
X398561Y626091D01*
X398450D01*
X398338Y626073D01*
X398061Y625999D01*
X397727Y625906D01*
X397375Y625740D01*
X397024Y625536D01*
X396857Y625388D01*
X396690Y625240D01*
X396672Y625221D01*
X396653Y625203D01*
X396542Y625092D01*
X396413Y624906D01*
X396246Y624666D01*
X396079Y624369D01*
X395931Y624018D01*
X395839Y623610D01*
X395820Y623407D01*
X395802Y623184D01*
Y615759D01*
X395820Y615667D01*
Y615574D01*
X395839Y615444D01*
X395913Y615167D01*
X396005Y614852D01*
X396172Y614500D01*
X396376Y614148D01*
X396524Y613982D01*
X396672Y613815D01*
X396690D01*
X396709Y613778D01*
X396764Y613741D01*
X396820Y613685D01*
X397005Y613537D01*
X397246Y613389D01*
X397561Y613241D01*
X397912Y613093D01*
X398320Y613000D01*
X398542Y612982D01*
X398764Y612963D01*
X395802D01*
X402597D01*
X401986D01*
X402060Y612982D01*
X402171Y613000D01*
X402282Y613037D01*
X402393Y613111D01*
X402505Y613222D01*
X402579Y613389D01*
X402597Y613593D01*
Y625499D01*
X402579Y625573D01*
X402560Y625666D01*
X402523Y625795D01*
X402449Y625906D01*
X402338Y626017D01*
X402171Y626091D01*
X401968Y626110D01*
X402597D01*
D02*
G37*
G36*
X394357D02*
X393061D01*
D01*
X393691D01*
X393580Y626091D01*
X393432Y626036D01*
X393283Y625925D01*
X393265D01*
X393246Y625888D01*
X393172Y625814D01*
X393098Y625666D01*
X393061Y625573D01*
Y613537D01*
X393080Y613426D01*
X393135Y613278D01*
X393246Y613130D01*
X393283Y613111D01*
X393376Y613056D01*
X393543Y612982D01*
X393728Y612963D01*
X393746D01*
X393820Y612982D01*
X393950Y613019D01*
X394135Y613074D01*
X394172Y613111D01*
X394246Y613204D01*
X394320Y613371D01*
X394339Y613482D01*
X394357Y613593D01*
Y625499D01*
X394339Y625592D01*
X394283Y625740D01*
X394172Y625888D01*
Y625906D01*
X394135Y625925D01*
X394043Y625999D01*
X393913Y626073D01*
X393820Y626110D01*
X394357D01*
D01*
D02*
G37*
G36*
X391598D02*
X384803D01*
D01*
X387654D01*
X387562Y626091D01*
X387451D01*
X387340Y626073D01*
X387062Y625999D01*
X386729Y625906D01*
X386377Y625740D01*
X386025Y625536D01*
X385858Y625388D01*
X385692Y625240D01*
X385673Y625221D01*
X385654Y625203D01*
X385543Y625092D01*
X385414Y624906D01*
X385247Y624666D01*
X385080Y624369D01*
X384932Y624018D01*
X384840Y623610D01*
X384821Y623407D01*
X384803Y623184D01*
Y615759D01*
X384821Y615667D01*
Y615574D01*
X384840Y615444D01*
X384914Y615167D01*
X385006Y614852D01*
X385173Y614500D01*
X385377Y614148D01*
X385525Y613982D01*
X385673Y613815D01*
X385692D01*
X385710Y613778D01*
X385766Y613741D01*
X385821Y613685D01*
X386006Y613537D01*
X386247Y613389D01*
X386562Y613241D01*
X386914Y613093D01*
X387321Y613000D01*
X387543Y612982D01*
X387765Y612963D01*
X388784D01*
X388858Y612982D01*
X388969D01*
X389080Y613000D01*
X389358Y613074D01*
X389673Y613167D01*
X390006Y613315D01*
X390358Y613519D01*
X390543Y613648D01*
X390710Y613797D01*
X390728Y613815D01*
X390747Y613834D01*
X390784Y613889D01*
X390839Y613945D01*
X390987Y614130D01*
X391154Y614370D01*
X391321Y614685D01*
X391450Y615037D01*
X391561Y615426D01*
X391580Y615648D01*
X391598Y615870D01*
Y626110D01*
D02*
G37*
%LPD*%
G36*
X401301Y614241D02*
X398653D01*
X398524Y614259D01*
X398375Y614296D01*
X398190Y614352D01*
X397987Y614445D01*
X397783Y614556D01*
X397598Y614704D01*
X397579Y614722D01*
X397524Y614796D01*
X397431Y614889D01*
X397338Y615019D01*
X397264Y615185D01*
X397172Y615389D01*
X397116Y615611D01*
X397098Y615870D01*
Y623184D01*
Y623221D01*
Y623296D01*
X397116Y623425D01*
X397153Y623573D01*
X397227Y623758D01*
X397301Y623944D01*
X397431Y624147D01*
X397598Y624332D01*
X397616Y624351D01*
X397690Y624407D01*
X397783Y624499D01*
X397931Y624592D01*
X398098Y624666D01*
X398301Y624758D01*
X398524Y624814D01*
X398764Y624832D01*
X401301D01*
Y614241D01*
D02*
G37*
G36*
X391598Y623296D02*
X391580Y623388D01*
Y623481D01*
X391561Y623592D01*
X391487Y623870D01*
X391395Y624203D01*
X391246Y624536D01*
X391043Y624888D01*
X390913Y625055D01*
X390765Y625221D01*
X390747Y625240D01*
X390728Y625258D01*
X390672Y625295D01*
X390617Y625369D01*
X390432Y625499D01*
X390191Y625666D01*
X389876Y625832D01*
X389524Y625980D01*
X389117Y626073D01*
X388895Y626091D01*
X388673Y626110D01*
X391598D01*
Y623296D01*
D02*
G37*
G36*
X388913Y624814D02*
X389080Y624777D01*
X389265Y624721D01*
X389450Y624629D01*
X389654Y624518D01*
X389839Y624351D01*
X389858Y624332D01*
X389913Y624258D01*
X389987Y624166D01*
X390061Y624018D01*
X390154Y623851D01*
X390228Y623647D01*
X390284Y623425D01*
X390302Y623184D01*
Y615870D01*
Y615833D01*
Y615759D01*
X390284Y615630D01*
X390247Y615481D01*
X390191Y615296D01*
X390098Y615111D01*
X389987Y614907D01*
X389821Y614722D01*
X389802Y614704D01*
X389728Y614648D01*
X389636Y614574D01*
X389487Y614482D01*
X389321Y614389D01*
X389117Y614315D01*
X388913Y614259D01*
X388673Y614241D01*
X387654D01*
X387525Y614259D01*
X387377Y614296D01*
X387191Y614352D01*
X386988Y614445D01*
X386784Y614556D01*
X386599Y614704D01*
X386580Y614722D01*
X386525Y614796D01*
X386432Y614889D01*
X386340Y615019D01*
X386266Y615185D01*
X386173Y615389D01*
X386117Y615611D01*
X386099Y615870D01*
Y623184D01*
Y623221D01*
Y623296D01*
X386117Y623425D01*
X386155Y623573D01*
X386228Y623758D01*
X386303Y623944D01*
X386432Y624147D01*
X386599Y624332D01*
X386617Y624351D01*
X386692Y624407D01*
X386784Y624499D01*
X386932Y624592D01*
X387099Y624666D01*
X387303Y624758D01*
X387525Y624814D01*
X387765Y624832D01*
X388784D01*
X388913Y624814D01*
D02*
G37*
%LPC*%
G36*
X231419Y691768D02*
D01*
Y688842D01*
X231401Y688935D01*
X231364Y689046D01*
X231271Y689212D01*
Y689231D01*
X231234Y689249D01*
X231160Y689342D01*
X231012Y689435D01*
X230901Y689453D01*
X230790Y689472D01*
X229142D01*
Y691120D01*
Y691138D01*
Y691157D01*
X229123Y691249D01*
X229068Y691397D01*
X228957Y691545D01*
Y691564D01*
X228920Y691582D01*
X228827Y691656D01*
X228697Y691731D01*
X228605Y691768D01*
X228475D01*
D01*
D01*
D01*
X225568D01*
X228475D01*
X228364Y691749D01*
X228216Y691693D01*
X228068Y691582D01*
X228049D01*
X228031Y691545D01*
X227957Y691471D01*
X227883Y691323D01*
X227846Y691231D01*
Y691120D01*
Y689472D01*
X226198D01*
X226087Y689453D01*
X225938Y689379D01*
X225846Y689342D01*
X225772Y689268D01*
X225753D01*
X225735Y689231D01*
X225661Y689138D01*
X225605Y688990D01*
X225568Y688916D01*
Y688786D01*
X225587Y688694D01*
X225642Y688546D01*
X225753Y688398D01*
X225790Y688361D01*
X225883Y688305D01*
X226031Y688231D01*
X226124Y688212D01*
X226235Y688194D01*
X227846D01*
Y686546D01*
Y686527D01*
Y686490D01*
X227864Y686379D01*
X227920Y686231D01*
X228031Y686083D01*
X228068Y686065D01*
X228160Y686009D01*
X228327Y685935D01*
X228512Y685916D01*
X225568D01*
X228531D01*
X228605Y685935D01*
X228734Y685972D01*
X228920Y686046D01*
X228957Y686083D01*
X229031Y686176D01*
X229105Y686324D01*
X229123Y686435D01*
X229142Y686546D01*
Y688194D01*
X230845D01*
X230956Y688212D01*
X231105Y688268D01*
X231253Y688361D01*
Y688379D01*
X231271Y688398D01*
X231327Y688490D01*
X231401Y688638D01*
X231419Y688823D01*
Y688379D01*
Y691768D01*
D02*
G37*
G36*
X238622Y697230D02*
X233104D01*
X232993Y697212D01*
X232845Y697137D01*
X232752Y697100D01*
X232679Y697026D01*
X232660D01*
X232641Y696989D01*
X232567Y696897D01*
X232512Y696749D01*
X232475Y696674D01*
Y696545D01*
X232493Y696452D01*
X232549Y696304D01*
X232660Y696156D01*
X232697Y696119D01*
X232790Y696064D01*
X232938Y695989D01*
X233030Y695971D01*
X233141Y695952D01*
X235215D01*
Y684713D01*
Y684694D01*
Y684657D01*
X235234Y684546D01*
X235289Y684398D01*
X235400Y684250D01*
X235438Y684231D01*
X235530Y684176D01*
X235697Y684102D01*
X235882Y684083D01*
X232475D01*
D01*
X239252D01*
Y686083D01*
Y684083D01*
X235900D01*
X235974Y684102D01*
X236104Y684139D01*
X236289Y684194D01*
X236326Y684231D01*
X236400Y684324D01*
X236474Y684491D01*
X236493Y684602D01*
X236511Y684713D01*
Y695952D01*
X238678D01*
X238789Y695971D01*
X238937Y696026D01*
X239085Y696119D01*
Y696137D01*
X239104Y696156D01*
X239159Y696249D01*
X239233Y696397D01*
X239252Y696582D01*
Y686083D01*
Y696582D01*
Y696600D01*
X239233Y696693D01*
X239196Y696804D01*
X239104Y696971D01*
Y696989D01*
X239067Y697008D01*
X238993Y697100D01*
X238845Y697193D01*
X238733Y697212D01*
X238622Y697230D01*
D02*
G37*
G36*
X249382Y1117600D02*
Y1114786D01*
X249363Y1114878D01*
Y1114971D01*
X249345Y1115082D01*
X249271Y1115359D01*
X249178Y1115693D01*
X249030Y1116026D01*
X248826Y1116378D01*
X248697Y1116545D01*
X248548Y1116711D01*
X248530Y1116730D01*
X248511Y1116748D01*
X248456Y1116785D01*
X248400Y1116859D01*
X248215Y1116989D01*
X247974Y1117156D01*
X247660Y1117322D01*
X247308Y1117470D01*
X246919Y1117563D01*
X246697Y1117581D01*
X246475Y1117600D01*
X243234D01*
X243123Y1117581D01*
X242975Y1117507D01*
X242901Y1117470D01*
X242827Y1117396D01*
X242808D01*
X242790Y1117359D01*
X242716Y1117267D01*
X242642Y1117119D01*
X242605Y1117045D01*
Y1116915D01*
X242623Y1116822D01*
X242679Y1116674D01*
X242790Y1116526D01*
X242827Y1116489D01*
X242919Y1116433D01*
X243067Y1116359D01*
X243160Y1116341D01*
X243271Y1116322D01*
X246586D01*
X246715Y1116304D01*
X246863Y1116267D01*
X247049Y1116211D01*
X247234Y1116119D01*
X247437Y1116008D01*
X247623Y1115841D01*
X247641Y1115822D01*
X247697Y1115748D01*
X247771Y1115656D01*
X247845Y1115508D01*
X247937Y1115341D01*
X248011Y1115137D01*
X248067Y1114915D01*
X248085Y1114674D01*
Y1107360D01*
Y1107323D01*
Y1107249D01*
X248067Y1107120D01*
X248030Y1106972D01*
X247974Y1106786D01*
X247882Y1106601D01*
X247771Y1106397D01*
X247604Y1106212D01*
X247586Y1106194D01*
X247512Y1106138D01*
X247419Y1106064D01*
X247271Y1105972D01*
X247104Y1105879D01*
X246919Y1105805D01*
X246697Y1105749D01*
X246475Y1105731D01*
X243901D01*
Y1110823D01*
X245141D01*
X245252Y1110841D01*
X245401Y1110897D01*
X245549Y1110990D01*
Y1111008D01*
X245567Y1111027D01*
X245623Y1111119D01*
X245697Y1111267D01*
X245715Y1111452D01*
Y1111471D01*
X245697Y1111564D01*
X245660Y1111675D01*
X245567Y1111841D01*
Y1111860D01*
X245530Y1111878D01*
X245456Y1111971D01*
X245308Y1112064D01*
X245197Y1112082D01*
X245086Y1112101D01*
X243234D01*
X243160Y1112082D01*
X243067Y1112064D01*
X242938Y1112027D01*
X242808Y1111934D01*
X242716Y1111823D01*
X242642Y1111675D01*
X242605Y1111452D01*
Y1104453D01*
Y1105064D01*
X242623Y1104990D01*
X242642Y1104879D01*
X242679Y1104768D01*
X242771Y1104657D01*
X242882Y1104546D01*
X243049Y1104472D01*
X243271Y1104453D01*
X242605D01*
X249382D01*
Y1117600D01*
D02*
G37*
G36*
X241142D02*
X234346D01*
X234976D01*
X234865Y1117581D01*
X234716Y1117526D01*
X234568Y1117415D01*
X234550D01*
X234531Y1117378D01*
X234457Y1117304D01*
X234383Y1117156D01*
X234346Y1117063D01*
Y1104453D01*
Y1105046D01*
X234365Y1104972D01*
X234420Y1104824D01*
X234531Y1104638D01*
X234550D01*
X234568Y1104601D01*
X234680Y1104546D01*
X234846Y1104490D01*
X235050Y1104453D01*
D01*
X235346Y1104509D01*
X235587Y1104787D01*
X239846Y1114693D01*
Y1105083D01*
Y1105064D01*
Y1105027D01*
X239864Y1104916D01*
X239920Y1104768D01*
X240031Y1104620D01*
X240068Y1104601D01*
X240160Y1104546D01*
X240327Y1104472D01*
X240512Y1104453D01*
X236796D01*
X240531D01*
X240605Y1104472D01*
X240734Y1104509D01*
X240920Y1104583D01*
X240957Y1104620D01*
X241031Y1104712D01*
X241105Y1104861D01*
X241123Y1104972D01*
X241142Y1105083D01*
Y1116989D01*
X241123Y1117082D01*
X241068Y1117230D01*
X240957Y1117378D01*
Y1117396D01*
X240920Y1117415D01*
X240827Y1117489D01*
X240697Y1117563D01*
X240605Y1117600D01*
X241142D01*
D02*
G37*
G36*
X232272D02*
X228958D01*
X228865Y1117581D01*
X228754D01*
X228643Y1117563D01*
X228365Y1117489D01*
X228032Y1117396D01*
X227680Y1117230D01*
X227328Y1117026D01*
X227162Y1116878D01*
X226995Y1116730D01*
X226977Y1116711D01*
X226958Y1116693D01*
X226847Y1116582D01*
X226717Y1116396D01*
X226551Y1116156D01*
X226384Y1115859D01*
X226236Y1115508D01*
X226143Y1115100D01*
X226125Y1114897D01*
X226106Y1114674D01*
Y1107249D01*
X226125Y1107157D01*
Y1107064D01*
X226143Y1106934D01*
X226217Y1106657D01*
X226310Y1106342D01*
X226477Y1105990D01*
X226680Y1105638D01*
X226828Y1105472D01*
X226977Y1105305D01*
X226995D01*
X227014Y1105268D01*
X227069Y1105231D01*
X227125Y1105175D01*
X227310Y1105027D01*
X227551Y1104879D01*
X227865Y1104731D01*
X228217Y1104583D01*
X228625Y1104490D01*
X228847Y1104472D01*
X229069Y1104453D01*
X226106D01*
D01*
X232291D01*
X232365Y1104472D01*
X232476Y1104490D01*
X232587Y1104527D01*
X232698Y1104601D01*
X232809Y1104712D01*
X232883Y1104879D01*
X232902Y1105083D01*
Y1116989D01*
X232883Y1117063D01*
X232865Y1117156D01*
X232828Y1117285D01*
X232754Y1117396D01*
X232643Y1117507D01*
X232476Y1117581D01*
X232272Y1117600D01*
D02*
G37*
%LPD*%
G36*
X249382Y1104453D02*
X246586D01*
X246660Y1104472D01*
X246882Y1104490D01*
X247141Y1104564D01*
X247456Y1104657D01*
X247789Y1104805D01*
X248141Y1105009D01*
X248326Y1105138D01*
X248493Y1105286D01*
X248511Y1105305D01*
X248530Y1105323D01*
X248567Y1105379D01*
X248622Y1105435D01*
X248771Y1105620D01*
X248937Y1105861D01*
X249104Y1106175D01*
X249233Y1106527D01*
X249345Y1106916D01*
X249363Y1107138D01*
X249382Y1107360D01*
Y1104453D01*
D02*
G37*
G36*
X240401Y1117581D02*
X240308Y1117563D01*
X240179Y1117507D01*
X240142Y1117489D01*
X240123Y1117470D01*
X240086Y1117415D01*
X240031Y1117359D01*
X239994Y1117267D01*
X239938Y1117156D01*
X239901Y1117008D01*
X235642Y1107360D01*
Y1116952D01*
Y1116970D01*
Y1116989D01*
X235624Y1117082D01*
X235568Y1117230D01*
X235457Y1117378D01*
Y1117396D01*
X235420Y1117415D01*
X235328Y1117489D01*
X235198Y1117563D01*
X235105Y1117600D01*
X240475D01*
X240401Y1117581D01*
D02*
G37*
G36*
X231606Y1105731D02*
X228958D01*
X228828Y1105749D01*
X228680Y1105786D01*
X228495Y1105842D01*
X228291Y1105935D01*
X228088Y1106046D01*
X227902Y1106194D01*
X227884Y1106212D01*
X227828Y1106286D01*
X227736Y1106379D01*
X227643Y1106509D01*
X227569Y1106675D01*
X227477Y1106879D01*
X227421Y1107101D01*
X227402Y1107360D01*
Y1114674D01*
Y1114711D01*
Y1114786D01*
X227421Y1114915D01*
X227458Y1115063D01*
X227532Y1115248D01*
X227606Y1115434D01*
X227736Y1115637D01*
X227902Y1115822D01*
X227921Y1115841D01*
X227995Y1115897D01*
X228088Y1115989D01*
X228236Y1116082D01*
X228402Y1116156D01*
X228606Y1116248D01*
X228828Y1116304D01*
X229069Y1116322D01*
X231606D01*
Y1105731D01*
D02*
G37*
%LPC*%
G36*
X378460Y626110D02*
X375868D01*
X375794Y626091D01*
X375682D01*
X375553Y626073D01*
X375275Y625999D01*
X374942Y625906D01*
X374590Y625758D01*
X374238Y625536D01*
X374072Y625406D01*
X373905Y625258D01*
X373886Y625240D01*
X373868Y625221D01*
X373831Y625166D01*
X373775Y625110D01*
X373627Y624925D01*
X373479Y624684D01*
X373331Y624369D01*
X373183Y624018D01*
X373090Y623629D01*
X373053Y623407D01*
Y623184D01*
Y622277D01*
Y621981D01*
Y621777D01*
X373127Y621573D01*
Y621555D01*
Y621536D01*
X373146Y621481D01*
X373164Y621407D01*
X373220Y621222D01*
X373331Y621018D01*
X373349Y620999D01*
X373386Y620925D01*
X373442Y620833D01*
X373516Y620722D01*
X373627Y620592D01*
X373738Y620444D01*
X373886Y620314D01*
X374053Y620185D01*
X374035Y620166D01*
X373960Y620148D01*
X373849Y620074D01*
X373720Y620000D01*
X373572Y619870D01*
X373405Y619703D01*
X373220Y619500D01*
X373053Y619240D01*
X373035Y619203D01*
X372979Y619111D01*
X372905Y618963D01*
X372812Y618777D01*
X372738Y618555D01*
X372664Y618296D01*
X372609Y618000D01*
X372590Y617704D01*
D01*
D01*
Y615778D01*
X372609Y615685D01*
Y615574D01*
X372627Y615463D01*
X372701Y615167D01*
X372794Y614852D01*
X372961Y614500D01*
X373164Y614148D01*
X373312Y613982D01*
X373461Y613815D01*
X373479D01*
X373498Y613778D01*
X373553Y613741D01*
X373609Y613685D01*
X373794Y613537D01*
X374035Y613389D01*
X374349Y613241D01*
X374701Y613093D01*
X375090Y613000D01*
X375312Y612982D01*
X375534Y612963D01*
X378460D01*
X377886D01*
X377997Y612982D01*
X378145Y613037D01*
X378293Y613130D01*
Y613148D01*
X378312Y613167D01*
X378367Y613260D01*
X378442Y613408D01*
X378460Y613593D01*
Y613611D01*
X378442Y613704D01*
X378405Y613815D01*
X378312Y613982D01*
Y614000D01*
X378275Y614019D01*
X378201Y614111D01*
X378053Y614204D01*
X377942Y614222D01*
X377830Y614241D01*
X375423D01*
X375294Y614259D01*
X375127Y614296D01*
X374942Y614352D01*
X374757Y614445D01*
X374553Y614556D01*
X374368Y614704D01*
X374349Y614722D01*
X374294Y614796D01*
X374220Y614889D01*
X374127Y615037D01*
X374035Y615204D01*
X373960Y615407D01*
X373905Y615630D01*
X373886Y615889D01*
Y617722D01*
Y617759D01*
Y617833D01*
X373905Y617963D01*
X373942Y618111D01*
X373997Y618296D01*
X374090Y618481D01*
X374201Y618685D01*
X374368Y618870D01*
X374386Y618889D01*
X374442Y618944D01*
X374553Y619037D01*
X374683Y619129D01*
X374849Y619203D01*
X375053Y619296D01*
X375275Y619351D01*
X375534Y619370D01*
X376053D01*
X376164Y619389D01*
X376312Y619444D01*
X376460Y619537D01*
Y619555D01*
X376479Y619574D01*
X376534Y619666D01*
X376608Y619814D01*
X376627Y620000D01*
Y620018D01*
X376608Y620111D01*
X376571Y620222D01*
X376479Y620388D01*
Y620407D01*
X376442Y620425D01*
X376368Y620518D01*
X376219Y620611D01*
X376108Y620629D01*
X375997Y620648D01*
X375886D01*
X375757Y620666D01*
X375590Y620703D01*
X375405Y620759D01*
X375220Y620851D01*
X375016Y620962D01*
X374831Y621110D01*
X374812Y621129D01*
X374757Y621203D01*
X374683Y621296D01*
X374590Y621444D01*
X374497Y621610D01*
X374423Y621814D01*
X374368Y622036D01*
X374349Y622277D01*
Y623184D01*
Y623221D01*
Y623296D01*
X374368Y623425D01*
X374405Y623592D01*
X374460Y623777D01*
X374553Y623962D01*
X374664Y624166D01*
X374831Y624351D01*
X374849Y624369D01*
X374905Y624425D01*
X375016Y624499D01*
X375145Y624592D01*
X375312Y624684D01*
X375516Y624758D01*
X375738Y624814D01*
X375997Y624832D01*
X377868D01*
X377997Y624851D01*
X378145Y624906D01*
X378293Y624999D01*
Y625018D01*
X378312Y625036D01*
X378367Y625129D01*
X378442Y625277D01*
X378460Y625462D01*
Y622277D01*
Y625462D01*
Y625480D01*
X378442Y625573D01*
X378405Y625684D01*
X378312Y625851D01*
Y625869D01*
X378275Y625888D01*
X378201Y625980D01*
X378053Y626073D01*
X377942Y626091D01*
X377830Y626110D01*
X378460D01*
D02*
G37*
G36*
X361517D02*
X360661D01*
X360832D01*
X360758Y626091D01*
X360666Y626073D01*
X360554Y625999D01*
X360517Y625980D01*
X360462Y625925D01*
X360351Y625814D01*
X360314Y625740D01*
X360258Y625647D01*
X357666Y615611D01*
X355111Y625592D01*
Y625610D01*
Y625629D01*
X355074Y625721D01*
X355000Y625832D01*
X354907Y625943D01*
X354870Y625962D01*
X354796Y626017D01*
X354666Y626073D01*
X354500Y626110D01*
X354463D01*
X354351Y626091D01*
X354203Y626036D01*
X354037Y625925D01*
X354018D01*
X354000Y625888D01*
X353926Y625814D01*
X353870Y625666D01*
X353833Y625573D01*
Y625462D01*
X353851Y625314D01*
X357055Y613500D01*
Y613482D01*
X357092Y613426D01*
X357129Y613334D01*
X357184Y613241D01*
X357277Y613130D01*
X357388Y613056D01*
X357518Y612982D01*
X357684Y612963D01*
X353833D01*
D01*
X361517D01*
X357758D01*
X357832Y613000D01*
X357925Y613037D01*
X358036Y613093D01*
X358129Y613185D01*
X358221Y613315D01*
X358295Y613500D01*
X361499Y625314D01*
X361517Y625462D01*
Y625499D01*
X361499Y625610D01*
X361443Y625758D01*
X361332Y625906D01*
Y625925D01*
X361295Y625943D01*
X361203Y626017D01*
X361054Y626073D01*
X360962Y626110D01*
X361517D01*
D02*
G37*
G36*
X370720Y614685D02*
X370664D01*
X370590Y614667D01*
X370516Y614648D01*
X370424Y614611D01*
X370313Y614574D01*
X370220Y614500D01*
X370109Y614408D01*
X370090Y614389D01*
X370072Y614370D01*
X370016Y614315D01*
X369961Y614241D01*
X369868Y614056D01*
X369850Y613945D01*
X369831Y613815D01*
D01*
Y613759D01*
X369850Y613704D01*
X369868Y613630D01*
X369924Y613445D01*
X369998Y613352D01*
X370072Y613241D01*
X370090Y613222D01*
X370109Y613204D01*
X370165Y613148D01*
X370239Y613111D01*
X370331Y613056D01*
X370442Y613000D01*
X370572Y612982D01*
X370720Y612963D01*
X369831D01*
D01*
X371590D01*
Y613852D01*
X371572Y613963D01*
X371498Y614130D01*
X371461Y614241D01*
X371387Y614352D01*
X371368Y614370D01*
X371350Y614408D01*
X371294Y614463D01*
X371220Y614519D01*
X371127Y614574D01*
X371016Y614630D01*
X370868Y614667D01*
X370720Y614685D01*
D02*
G37*
G36*
X368202Y626110D02*
X366239D01*
X366165Y626091D01*
X366054D01*
X365924Y626073D01*
X365647Y625999D01*
X365313Y625906D01*
X364961Y625758D01*
X364610Y625536D01*
X364443Y625406D01*
X364276Y625258D01*
X364258Y625240D01*
X364239Y625221D01*
X364202Y625166D01*
X364147Y625110D01*
X363998Y624925D01*
X363850Y624684D01*
X363702Y624369D01*
X363554Y624018D01*
X363462Y623629D01*
X363424Y623407D01*
Y623184D01*
Y622277D01*
Y621981D01*
Y621777D01*
X363499Y621573D01*
Y621555D01*
Y621536D01*
X363517Y621481D01*
X363536Y621407D01*
X363591Y621222D01*
X363702Y621018D01*
X363721Y620999D01*
X363758Y620925D01*
X363813Y620833D01*
X363887Y620722D01*
X363998Y620592D01*
X364110Y620444D01*
X364258Y620314D01*
X364424Y620185D01*
X364406Y620166D01*
X364332Y620148D01*
X364221Y620074D01*
X364091Y620000D01*
X363943Y619870D01*
X363776Y619703D01*
X363591Y619500D01*
X363424Y619240D01*
X363406Y619203D01*
X363350Y619111D01*
X363276Y618963D01*
X363184Y618777D01*
X363110Y618555D01*
X363036Y618296D01*
X362980Y618000D01*
X362962Y617704D01*
Y615778D01*
X362980Y615685D01*
Y615574D01*
X362999Y615463D01*
X363073Y615167D01*
X363165Y614852D01*
X363332Y614500D01*
X363536Y614148D01*
X363684Y613982D01*
X363832Y613815D01*
X363850D01*
X363869Y613778D01*
X363924Y613741D01*
X363980Y613685D01*
X364165Y613537D01*
X364406Y613389D01*
X364721Y613241D01*
X365073Y613093D01*
X365461Y613000D01*
X365684Y612982D01*
X365906Y612963D01*
X362962D01*
D01*
X368831D01*
D01*
X368257D01*
X368368Y612982D01*
X368517Y613037D01*
X368665Y613130D01*
Y613148D01*
X368683Y613167D01*
X368739Y613260D01*
X368813Y613408D01*
X368831Y613593D01*
Y613611D01*
X368813Y613704D01*
X368776Y613815D01*
X368683Y613982D01*
Y614000D01*
X368646Y614019D01*
X368572Y614111D01*
X368424Y614204D01*
X368313Y614222D01*
X368202Y614241D01*
X365795D01*
X365665Y614259D01*
X365498Y614296D01*
X365313Y614352D01*
X365128Y614445D01*
X364924Y614556D01*
X364739Y614704D01*
X364721Y614722D01*
X364665Y614796D01*
X364591Y614889D01*
X364498Y615037D01*
X364406Y615204D01*
X364332Y615407D01*
X364276Y615630D01*
X364258Y615889D01*
Y617722D01*
Y617759D01*
Y617833D01*
X364276Y617963D01*
X364313Y618111D01*
X364369Y618296D01*
X364462Y618481D01*
X364572Y618685D01*
X364739Y618870D01*
X364758Y618889D01*
X364813Y618944D01*
X364924Y619037D01*
X365054Y619129D01*
X365221Y619203D01*
X365424Y619296D01*
X365647Y619351D01*
X365906Y619370D01*
X366424D01*
X366535Y619389D01*
X366683Y619444D01*
X366832Y619537D01*
Y619555D01*
X366850Y619574D01*
X366906Y619666D01*
X366980Y619814D01*
X366998Y620000D01*
Y620018D01*
X366980Y620111D01*
X366943Y620222D01*
X366850Y620388D01*
Y620407D01*
X366813Y620425D01*
X366739Y620518D01*
X366591Y620611D01*
X366480Y620629D01*
X366369Y620648D01*
X366258D01*
X366128Y620666D01*
X365961Y620703D01*
X365776Y620759D01*
X365591Y620851D01*
X365387Y620962D01*
X365202Y621110D01*
X365184Y621129D01*
X365128Y621203D01*
X365054Y621296D01*
X364961Y621444D01*
X364869Y621610D01*
X364795Y621814D01*
X364739Y622036D01*
X364721Y622277D01*
Y623184D01*
Y623221D01*
Y623296D01*
X364739Y623425D01*
X364776Y623592D01*
X364832Y623777D01*
X364924Y623962D01*
X365036Y624166D01*
X365202Y624351D01*
X365221Y624369D01*
X365276Y624425D01*
X365387Y624499D01*
X365517Y624592D01*
X365684Y624684D01*
X365887Y624758D01*
X366109Y624814D01*
X366369Y624832D01*
X368239D01*
X368368Y624851D01*
X368517Y624906D01*
X368665Y624999D01*
Y625018D01*
X368683Y625036D01*
X368739Y625129D01*
X368813Y625277D01*
X368831Y625462D01*
Y625480D01*
X368813Y625573D01*
X368776Y625684D01*
X368683Y625851D01*
Y625869D01*
X368646Y625888D01*
X368572Y625980D01*
X368424Y626073D01*
X368313Y626091D01*
X368202Y626110D01*
D02*
G37*
%LPD*%
G36*
X371590Y612963D02*
X370794D01*
X370868Y612982D01*
X370942Y613000D01*
X371165Y613056D01*
X371257Y613111D01*
X371350Y613185D01*
X371368Y613204D01*
X371387Y613241D01*
X371424Y613297D01*
X371461Y613371D01*
X371553Y613574D01*
X371572Y613685D01*
X371590Y613815D01*
Y612963D01*
D02*
G37*
%LPC*%
G36*
X231882Y751458D02*
D01*
Y748532D01*
X231864Y748625D01*
X231827Y748736D01*
X231734Y748902D01*
Y748921D01*
X231697Y748939D01*
X231623Y749032D01*
X231475Y749125D01*
X231364Y749143D01*
X231253Y749162D01*
X229605D01*
Y750809D01*
Y750828D01*
Y750847D01*
X229586Y750939D01*
X229531Y751087D01*
X229420Y751235D01*
Y751254D01*
X229382Y751272D01*
X229290Y751347D01*
X229160Y751421D01*
X229068Y751458D01*
X228938D01*
X228827Y751439D01*
X228679Y751384D01*
X228531Y751272D01*
X228512D01*
X228494Y751235D01*
X228420Y751161D01*
X228346Y751013D01*
X228309Y750921D01*
Y750809D01*
Y749162D01*
X226661D01*
X226549Y749143D01*
X226401Y749069D01*
X226309Y749032D01*
X226235Y748958D01*
X226216D01*
X226198Y748921D01*
X226124Y748828D01*
X226068Y748680D01*
X226031Y748606D01*
Y748476D01*
X226049Y748384D01*
X226105Y748236D01*
X226216Y748088D01*
X226253Y748051D01*
X226346Y747995D01*
X226494Y747921D01*
X226586Y747902D01*
X226698Y747884D01*
X228309D01*
Y746236D01*
Y746217D01*
Y746180D01*
X228327Y746069D01*
X228383Y745921D01*
X228494Y745773D01*
X228531Y745754D01*
X228623Y745699D01*
X228790Y745625D01*
X228975Y745606D01*
X226031D01*
D01*
X231882D01*
Y751458D01*
D02*
G37*
G36*
X238159Y756920D02*
X232938D01*
X233549D01*
X233438Y756901D01*
X233290Y756827D01*
X233216Y756790D01*
X233141Y756716D01*
X233123D01*
X233104Y756679D01*
X233030Y756587D01*
X232975Y756439D01*
X232938Y756365D01*
Y744495D01*
Y756235D01*
X232956Y756142D01*
X233012Y755994D01*
X233104Y755846D01*
X233141Y755809D01*
X233234Y755753D01*
X233382Y755679D01*
X233475Y755661D01*
X233586Y755642D01*
X237493D01*
Y751421D01*
X235382D01*
X235271Y751402D01*
X235123Y751328D01*
X235049Y751291D01*
X234974Y751217D01*
X234956D01*
X234937Y751180D01*
X234863Y751087D01*
X234789Y750939D01*
X234752Y750865D01*
Y750772D01*
Y750754D01*
Y750735D01*
X234771Y750643D01*
X234826Y750495D01*
X234937Y750347D01*
X234974Y750310D01*
X235067Y750254D01*
X235215Y750180D01*
X235308Y750161D01*
X235419Y750143D01*
X237493D01*
Y745051D01*
X233549D01*
X233438Y745032D01*
X233290Y744958D01*
X233216Y744921D01*
X233141Y744847D01*
X233123D01*
X233104Y744810D01*
X233030Y744718D01*
X232975Y744569D01*
X232938Y744495D01*
D01*
D01*
Y743773D01*
Y744366D01*
X232956Y744273D01*
X233012Y744125D01*
X233104Y743977D01*
X233141Y743940D01*
X233234Y743884D01*
X233382Y743810D01*
X233475Y743792D01*
X233586Y743773D01*
X232938D01*
X238789D01*
D01*
X238178D01*
X238252Y743792D01*
X238363Y743810D01*
X238474Y743847D01*
X238585Y743921D01*
X238696Y744032D01*
X238770Y744199D01*
X238789Y744403D01*
Y756309D01*
X238770Y756383D01*
X238752Y756476D01*
X238715Y756605D01*
X238641Y756716D01*
X238530Y756827D01*
X238363Y756901D01*
X238159Y756920D01*
D02*
G37*
%LPD*%
G36*
X231882Y745606D02*
X228994D01*
X229068Y745625D01*
X229197Y745662D01*
X229382Y745736D01*
X229420Y745773D01*
X229494Y745866D01*
X229568Y746014D01*
X229586Y746125D01*
X229605Y746236D01*
Y747884D01*
X231308D01*
X231419Y747902D01*
X231567Y747958D01*
X231716Y748051D01*
Y748069D01*
X231734Y748088D01*
X231790Y748180D01*
X231864Y748328D01*
X231882Y748513D01*
Y745606D01*
D02*
G37*
%LPC*%
G36*
X415521Y556260D02*
D01*
Y555649D01*
X415502Y555742D01*
X415447Y555890D01*
X415336Y556038D01*
Y556056D01*
X415299Y556075D01*
X415206Y556149D01*
X415076Y556223D01*
X414984Y556260D01*
X415521D01*
X410084D01*
X414854D01*
X414743Y556241D01*
X414595Y556186D01*
X414447Y556075D01*
X414428D01*
X414410Y556038D01*
X414336Y555964D01*
X414262Y555816D01*
X414225Y555723D01*
Y555612D01*
Y549872D01*
X409929Y555964D01*
X409910Y555982D01*
X409892Y556019D01*
X409781Y556112D01*
X409632Y556223D01*
X409521Y556241D01*
X409410Y556260D01*
X408725D01*
X409373D01*
X409262Y556241D01*
X409114Y556167D01*
X409021Y556130D01*
X408947Y556056D01*
X408929D01*
X408910Y556019D01*
X408836Y555927D01*
X408762Y555797D01*
X408725Y555704D01*
Y555575D01*
X408744Y555482D01*
X408781Y555371D01*
X408855Y555242D01*
X412077Y551001D01*
X408799Y544002D01*
X408762Y543835D01*
Y543817D01*
X408744Y543780D01*
Y543761D01*
Y543724D01*
X408762Y543669D01*
Y543613D01*
X408836Y543447D01*
X408873Y543354D01*
X408947Y543280D01*
X408984Y543261D01*
X409077Y543206D01*
X409244Y543132D01*
X409447Y543113D01*
X408725D01*
X411443D01*
X409447D01*
X409743Y543169D01*
X409966Y543447D01*
X412947Y550020D01*
X414225Y548094D01*
Y543743D01*
Y543724D01*
Y543687D01*
X414243Y543576D01*
X414299Y543428D01*
X414410Y543280D01*
X414447Y543261D01*
X414539Y543206D01*
X414706Y543132D01*
X414891Y543113D01*
X415521D01*
Y556260D01*
D02*
G37*
G36*
X429260D02*
D01*
Y553446D01*
X429241Y553538D01*
Y553631D01*
X429223Y553742D01*
X429149Y554020D01*
X429056Y554353D01*
X428908Y554686D01*
X428704Y555038D01*
X428575Y555205D01*
X428427Y555371D01*
X428408Y555390D01*
X428390Y555408D01*
X428334Y555445D01*
X428279Y555519D01*
X428093Y555649D01*
X427853Y555816D01*
X427538Y555982D01*
X427186Y556130D01*
X426779Y556223D01*
X426557Y556241D01*
X426334Y556260D01*
X429260D01*
X423390D01*
X424020D01*
X423909Y556241D01*
X423761Y556167D01*
X423668Y556130D01*
X423594Y556056D01*
X423575D01*
X423557Y556019D01*
X423483Y555927D01*
X423427Y555779D01*
X423390Y555704D01*
Y555575D01*
X423409Y555482D01*
X423464Y555334D01*
X423575Y555186D01*
X423612Y555149D01*
X423705Y555093D01*
X423853Y555019D01*
X423946Y555001D01*
X424057Y554982D01*
X426446D01*
X426575Y554964D01*
X426723Y554927D01*
X426908Y554871D01*
X427094Y554779D01*
X427297Y554668D01*
X427482Y554501D01*
X427501Y554482D01*
X427556Y554427D01*
X427631Y554316D01*
X427723Y554186D01*
X427816Y554020D01*
X427890Y553816D01*
X427945Y553594D01*
X427964Y553334D01*
Y546020D01*
Y545983D01*
Y545909D01*
X427945Y545780D01*
X427908Y545613D01*
X427853Y545428D01*
X427760Y545243D01*
X427649Y545039D01*
X427482Y544854D01*
X427464Y544835D01*
X427390Y544780D01*
X427297Y544706D01*
X427149Y544632D01*
X426982Y544539D01*
X426797Y544465D01*
X426575Y544409D01*
X426334Y544391D01*
X424020D01*
X423909Y544372D01*
X423761Y544298D01*
X423668Y544261D01*
X423594Y544187D01*
X423575D01*
X423557Y544150D01*
X423483Y544058D01*
X423427Y543909D01*
X423390Y543835D01*
Y543706D01*
X423409Y543613D01*
X423464Y543465D01*
X423575Y543317D01*
X423612Y543280D01*
X423705Y543224D01*
X423853Y543150D01*
X423946Y543132D01*
X424057Y543113D01*
X429260D01*
Y556260D01*
D02*
G37*
G36*
X421927D02*
X416983D01*
D01*
X421261D01*
X421150Y556241D01*
X421002Y556186D01*
X420854Y556075D01*
X420835D01*
X420816Y556038D01*
X420742Y555964D01*
X420668Y555816D01*
X420631Y555723D01*
Y555612D01*
Y544391D01*
X417594D01*
X417483Y544372D01*
X417335Y544298D01*
X417261Y544261D01*
X417187Y544187D01*
X417169D01*
X417150Y544150D01*
X417076Y544058D01*
X417020Y543909D01*
X416983Y543835D01*
Y543706D01*
X417002Y543613D01*
X417058Y543465D01*
X417150Y543317D01*
X417187Y543280D01*
X417280Y543224D01*
X417428Y543150D01*
X417520Y543132D01*
X417632Y543113D01*
X421316D01*
X421390Y543132D01*
X421502Y543150D01*
X421613Y543187D01*
X421724Y543261D01*
X421835Y543372D01*
X421909Y543539D01*
X421927Y543743D01*
Y543113D01*
D01*
Y556260D01*
D02*
G37*
%LPD*%
G36*
X415521Y543113D02*
X414910D01*
X414984Y543132D01*
X415113Y543169D01*
X415299Y543224D01*
X415336Y543261D01*
X415410Y543354D01*
X415484Y543521D01*
X415502Y543632D01*
X415521Y543743D01*
Y543113D01*
D02*
G37*
G36*
X429260D02*
X426446D01*
X426520Y543132D01*
X426631D01*
X426742Y543150D01*
X427020Y543224D01*
X427334Y543317D01*
X427686Y543465D01*
X428019Y543669D01*
X428205Y543798D01*
X428371Y543946D01*
X428390Y543965D01*
X428408Y543983D01*
X428445Y544039D01*
X428501Y544095D01*
X428649Y544280D01*
X428816Y544520D01*
X428982Y544835D01*
X429112Y545187D01*
X429223Y545576D01*
X429241Y545798D01*
X429260Y546020D01*
Y543113D01*
D02*
G37*
G36*
X421927Y555649D02*
X421909Y555742D01*
X421853Y555890D01*
X421742Y556038D01*
Y556056D01*
X421705Y556075D01*
X421613Y556149D01*
X421483Y556223D01*
X421390Y556260D01*
X421927D01*
Y555649D01*
D02*
G37*
%LPC*%
G36*
X241586Y836930D02*
X237753D01*
D01*
X241586D01*
D02*
G37*
G36*
X237753D02*
X237679D01*
X237587Y836911D01*
X237494Y836856D01*
X237383Y836800D01*
X237290Y836708D01*
X237198Y836578D01*
X237124Y836393D01*
X233920Y824579D01*
X233902Y824431D01*
Y836930D01*
D01*
D01*
Y823802D01*
D01*
Y824394D01*
X233920Y824283D01*
X233994Y824135D01*
X234031Y824061D01*
X234105Y823968D01*
X234142Y823950D01*
X234235Y823894D01*
X234383Y823820D01*
X234568Y823802D01*
X233902D01*
X234605D01*
X234698Y823820D01*
X234809Y823857D01*
X234939Y823913D01*
X234957Y823931D01*
X235031Y823987D01*
X235105Y824080D01*
X235161Y824209D01*
X236031Y827449D01*
X239457D01*
X240308Y824320D01*
Y824302D01*
Y824283D01*
X240346Y824172D01*
X240420Y824042D01*
X240531Y823931D01*
X240568Y823913D01*
X240642Y823876D01*
X240772Y823820D01*
X240938Y823802D01*
X241586D01*
X240975D01*
X241086Y823820D01*
X241234Y823876D01*
X241401Y823968D01*
X241438Y824005D01*
X241494Y824098D01*
X241549Y824265D01*
X241586Y824468D01*
D01*
X241568Y824579D01*
X238364Y836393D01*
Y836412D01*
X238327Y836486D01*
X238290Y836560D01*
X238235Y836671D01*
X238142Y836763D01*
X238050Y836856D01*
X237920Y836911D01*
X237753Y836930D01*
D02*
G37*
G36*
X240938Y823802D02*
X240693D01*
X240938D01*
D01*
D02*
G37*
%LPD*%
G36*
X239160Y828746D02*
X236327D01*
X237735Y834393D01*
X239160Y828746D01*
D02*
G37*
%LPC*%
G36*
X241142Y801370D02*
X237642D01*
X237550Y801351D01*
X237457D01*
X237327Y801333D01*
X237050Y801277D01*
X236735Y801166D01*
X236402Y801018D01*
X236068Y800833D01*
X235902Y800703D01*
X235753Y800555D01*
X235735Y800537D01*
X235661Y800481D01*
X235568Y800389D01*
X235457Y800259D01*
X235346Y800111D01*
X235217Y799944D01*
X235105Y799759D01*
X235013Y799555D01*
X234865Y799037D01*
X234809Y798722D01*
Y798426D01*
Y797518D01*
Y797482D01*
Y797407D01*
X234828Y797259D01*
X234846Y797093D01*
X234883Y796908D01*
X234920Y796685D01*
X234994Y796482D01*
X235087Y796259D01*
X235105Y796241D01*
X235142Y796167D01*
X235198Y796074D01*
X235272Y795945D01*
X235383Y795815D01*
X235513Y795667D01*
X235661Y795537D01*
X235846Y795408D01*
X235828Y795389D01*
X235753Y795371D01*
X235642Y795297D01*
X235494Y795204D01*
X235328Y795074D01*
X235161Y794908D01*
X234976Y794704D01*
X234809Y794445D01*
X234791Y794408D01*
X234735Y794315D01*
X234661Y794167D01*
X234568Y793982D01*
X234494Y793760D01*
X234420Y793500D01*
X234365Y793241D01*
X234346Y792945D01*
Y791019D01*
X234365Y790927D01*
Y790834D01*
X234402Y790723D01*
X234457Y790445D01*
X234568Y790112D01*
X234735Y789779D01*
X234846Y789612D01*
X234957Y789427D01*
X235105Y789260D01*
X235272Y789093D01*
X235291D01*
X235309Y789056D01*
X235365Y789019D01*
X235439Y788964D01*
X235624Y788816D01*
X235865Y788668D01*
X236161Y788501D01*
X236513Y788353D01*
X236901Y788260D01*
X237105Y788242D01*
X237309Y788223D01*
X234346D01*
X241142D01*
Y800759D01*
X241123Y800833D01*
X241105Y800926D01*
X241068Y801055D01*
X240994Y801166D01*
X240883Y801277D01*
X240716Y801351D01*
X240512Y801370D01*
X241142D01*
D02*
G37*
%LPD*%
G36*
X239846Y795871D02*
X237661D01*
X237531Y795889D01*
X237364Y795926D01*
X237179Y795982D01*
X236994Y796074D01*
X236790Y796185D01*
X236605Y796352D01*
X236587Y796370D01*
X236531Y796445D01*
X236439Y796537D01*
X236346Y796685D01*
X236272Y796852D01*
X236179Y797056D01*
X236124Y797278D01*
X236105Y797518D01*
Y798444D01*
Y798481D01*
Y798556D01*
X236124Y798685D01*
X236161Y798833D01*
X236216Y799018D01*
X236309Y799204D01*
X236420Y799407D01*
X236587Y799592D01*
X236605Y799611D01*
X236679Y799667D01*
X236772Y799759D01*
X236920Y799852D01*
X237087Y799926D01*
X237290Y800018D01*
X237512Y800074D01*
X237772Y800092D01*
X239846D01*
Y795871D01*
D02*
G37*
G36*
Y789501D02*
X237198D01*
X237068Y789519D01*
X236920Y789556D01*
X236735Y789612D01*
X236531Y789705D01*
X236327Y789816D01*
X236142Y789964D01*
X236124Y789982D01*
X236068Y790056D01*
X235976Y790149D01*
X235883Y790279D01*
X235809Y790445D01*
X235716Y790649D01*
X235661Y790871D01*
X235642Y791130D01*
Y792963D01*
Y793000D01*
Y793075D01*
X235661Y793186D01*
X235698Y793334D01*
X235772Y793519D01*
X235865Y793704D01*
X235994Y793908D01*
X236161Y794093D01*
X236179Y794111D01*
X236253Y794167D01*
X236346Y794260D01*
X236494Y794352D01*
X236661Y794426D01*
X236864Y794519D01*
X237068Y794574D01*
X237309Y794593D01*
X239846D01*
Y789501D01*
D02*
G37*
G36*
X241142Y788223D02*
X240531D01*
X240605Y788242D01*
X240716Y788260D01*
X240827Y788297D01*
X240938Y788371D01*
X241049Y788482D01*
X241123Y788649D01*
X241142Y788853D01*
Y788223D01*
D02*
G37*
%LPC*%
G36*
X239048Y671830D02*
X233530D01*
X233419Y671812D01*
X233271Y671737D01*
X233178Y671700D01*
X233104Y671626D01*
X233086D01*
X233067Y671589D01*
X232993Y671497D01*
X232938Y671349D01*
X232901Y671274D01*
Y671145D01*
X232919Y671052D01*
X232975Y670904D01*
X233086Y670756D01*
X233123Y670719D01*
X233216Y670664D01*
X233364Y670589D01*
X233456Y670571D01*
X233567Y670552D01*
X235641D01*
Y659313D01*
Y659294D01*
Y659257D01*
X235660Y659146D01*
X235715Y658998D01*
X235826Y658850D01*
X235863Y658831D01*
X235956Y658776D01*
X236123Y658702D01*
X236308Y658683D01*
X232901D01*
D01*
X239678D01*
Y670552D01*
Y658683D01*
X236326D01*
X236400Y658702D01*
X236530Y658739D01*
X236715Y658794D01*
X236752Y658831D01*
X236826Y658924D01*
X236900Y659091D01*
X236919Y659202D01*
X236937Y659313D01*
Y670552D01*
X239104D01*
X239215Y670571D01*
X239363Y670626D01*
X239511Y670719D01*
Y670738D01*
X239530Y670756D01*
X239585Y670849D01*
X239659Y670997D01*
X239678Y671182D01*
Y670552D01*
Y671182D01*
Y671200D01*
X239659Y671293D01*
X239622Y671404D01*
X239530Y671571D01*
Y671589D01*
X239493Y671608D01*
X239419Y671700D01*
X239270Y671793D01*
X239159Y671812D01*
X239048Y671830D01*
D02*
G37*
G36*
X231271Y664072D02*
X225142D01*
X225753D01*
X225642Y664053D01*
X225494Y663979D01*
X225420Y663942D01*
X225346Y663868D01*
X225327D01*
X225309Y663831D01*
X225235Y663738D01*
X225179Y663590D01*
X225142Y663516D01*
Y662794D01*
Y663386D01*
X225161Y663294D01*
X225216Y663146D01*
X225309Y662998D01*
X225346Y662961D01*
X225438Y662905D01*
X225587Y662831D01*
X225679Y662812D01*
X225790Y662794D01*
X231327D01*
X231438Y662812D01*
X231604Y662868D01*
X231753Y662961D01*
Y662979D01*
X231771Y662998D01*
X231827Y663090D01*
X231901Y663238D01*
X231919Y663423D01*
Y663442D01*
X231901Y663535D01*
X231864Y663646D01*
X231771Y663812D01*
Y663831D01*
X231734Y663849D01*
X231642Y663942D01*
X231493Y664035D01*
X231382Y664053D01*
X231271Y664072D01*
D02*
G37*
G36*
X248465Y958850D02*
Y956036D01*
X248447Y956128D01*
Y956221D01*
X248428Y956332D01*
X248354Y956609D01*
X248261Y956943D01*
X248113Y957276D01*
X247910Y957628D01*
X247780Y957795D01*
X247632Y957961D01*
X247613Y957980D01*
X247595Y957998D01*
X247539Y958035D01*
X247484Y958109D01*
X247299Y958239D01*
X247058Y958406D01*
X246743Y958572D01*
X246391Y958720D01*
X245984Y958813D01*
X245762Y958831D01*
X245539Y958850D01*
X248465D01*
X244521D01*
X244429Y958831D01*
X244317D01*
X244206Y958813D01*
X243929Y958739D01*
X243595Y958646D01*
X243243Y958480D01*
X242892Y958276D01*
X242725Y958128D01*
X242558Y957980D01*
X242540Y957961D01*
X242521Y957943D01*
X242410Y957832D01*
X242281Y957646D01*
X242114Y957406D01*
X241947Y957109D01*
X241799Y956758D01*
X241707Y956350D01*
X241688Y956147D01*
X241670Y955924D01*
Y948499D01*
X241688Y948407D01*
Y948314D01*
X241707Y948184D01*
X241781Y947907D01*
X241873Y947592D01*
X242040Y947240D01*
X242243Y946888D01*
X242392Y946722D01*
X242540Y946555D01*
X242558D01*
X242577Y946518D01*
X242632Y946481D01*
X242688Y946425D01*
X242873Y946277D01*
X243114Y946129D01*
X243429Y945981D01*
X243780Y945833D01*
X244188Y945740D01*
X244410Y945722D01*
X244632Y945703D01*
X245651D01*
X245725Y945722D01*
X245836D01*
X245947Y945740D01*
X246225Y945814D01*
X246539Y945907D01*
X246873Y946055D01*
X247225Y946259D01*
X247410Y946388D01*
X247576Y946536D01*
X247595Y946555D01*
X247613Y946573D01*
X247650Y946629D01*
X247706Y946685D01*
X247854Y946870D01*
X248021Y947111D01*
X248187Y947425D01*
X248317Y947777D01*
X248428Y948166D01*
X248447Y948388D01*
X248465Y948610D01*
Y958850D01*
D02*
G37*
G36*
X232893D02*
X227023D01*
D01*
X230300D01*
X230226Y958831D01*
X230115D01*
X229986Y958813D01*
X229708Y958739D01*
X229375Y958646D01*
X229023Y958498D01*
X228671Y958276D01*
X228504Y958146D01*
X228338Y957998D01*
X228319Y957980D01*
X228300Y957961D01*
X228263Y957906D01*
X228208Y957850D01*
X228060Y957665D01*
X227912Y957424D01*
X227764Y957109D01*
X227615Y956758D01*
X227523Y956369D01*
X227486Y956147D01*
Y955924D01*
Y955017D01*
Y954721D01*
Y954517D01*
X227560Y954313D01*
Y954295D01*
Y954276D01*
X227578Y954221D01*
X227597Y954147D01*
X227652Y953962D01*
X227764Y953758D01*
X227782Y953739D01*
X227819Y953665D01*
X227875Y953573D01*
X227949Y953462D01*
X228060Y953332D01*
X228171Y953184D01*
X228319Y953054D01*
X228486Y952925D01*
X228467Y952906D01*
X228393Y952888D01*
X228282Y952814D01*
X228152Y952739D01*
X228004Y952610D01*
X227838Y952443D01*
X227652Y952240D01*
X227486Y951980D01*
X227467Y951943D01*
X227412Y951851D01*
X227338Y951703D01*
X227245Y951517D01*
X227171Y951295D01*
X227097Y951036D01*
X227041Y950740D01*
X227023Y950443D01*
Y950462D01*
Y950443D01*
Y948518D01*
X227041Y948425D01*
Y948314D01*
X227060Y948203D01*
X227134Y947907D01*
X227227Y947592D01*
X227393Y947240D01*
X227597Y946888D01*
X227745Y946722D01*
X227893Y946555D01*
X227912D01*
X227930Y946518D01*
X227986Y946481D01*
X228041Y946425D01*
X228227Y946277D01*
X228467Y946129D01*
X228782Y945981D01*
X229134Y945833D01*
X229523Y945740D01*
X229745Y945722D01*
X229967Y945703D01*
X232319D01*
X232430Y945722D01*
X232578Y945777D01*
X232726Y945870D01*
Y945888D01*
X232745Y945907D01*
X232800Y946000D01*
X232874Y946148D01*
X232893Y946333D01*
Y946351D01*
X232874Y946444D01*
X232837Y946555D01*
X232745Y946722D01*
Y946740D01*
X232708Y946759D01*
X232633Y946851D01*
X232485Y946944D01*
X232374Y946962D01*
X232263Y946981D01*
X229856D01*
X229726Y946999D01*
X229560Y947036D01*
X229375Y947092D01*
X229189Y947185D01*
X228986Y947296D01*
X228801Y947444D01*
X228782Y947462D01*
X228726Y947536D01*
X228652Y947629D01*
X228560Y947777D01*
X228467Y947944D01*
X228393Y948147D01*
X228338Y948370D01*
X228319Y948629D01*
Y950462D01*
Y950499D01*
Y950573D01*
X228338Y950703D01*
X228375Y950851D01*
X228430Y951036D01*
X228523Y951221D01*
X228634Y951425D01*
X228801Y951610D01*
X228819Y951628D01*
X228874Y951684D01*
X228986Y951777D01*
X229115Y951869D01*
X229282Y951943D01*
X229486Y952036D01*
X229708Y952091D01*
X229967Y952110D01*
X230485D01*
X230597Y952129D01*
X230745Y952184D01*
X230893Y952277D01*
Y952295D01*
X230911Y952314D01*
X230967Y952406D01*
X231041Y952554D01*
X231059Y952739D01*
Y952758D01*
X231041Y952851D01*
X231004Y952962D01*
X230911Y953128D01*
Y953147D01*
X230874Y953165D01*
X230800Y953258D01*
X230652Y953351D01*
X230541Y953369D01*
X230430Y953388D01*
X230319D01*
X230189Y953406D01*
X230023Y953443D01*
X229837Y953499D01*
X229652Y953591D01*
X229449Y953702D01*
X229263Y953850D01*
X229245Y953869D01*
X229189Y953943D01*
X229115Y954036D01*
X229023Y954184D01*
X228930Y954351D01*
X228856Y954554D01*
X228801Y954776D01*
X228782Y955017D01*
Y955924D01*
Y955961D01*
Y956036D01*
X228801Y956165D01*
X228838Y956332D01*
X228893Y956517D01*
X228986Y956702D01*
X229097Y956906D01*
X229263Y957091D01*
X229282Y957109D01*
X229338Y957165D01*
X229449Y957239D01*
X229578Y957332D01*
X229745Y957424D01*
X229949Y957498D01*
X230171Y957554D01*
X230430Y957572D01*
X232300D01*
X232430Y957591D01*
X232578Y957646D01*
X232726Y957739D01*
Y957757D01*
X232745Y957776D01*
X232800Y957869D01*
X232874Y958017D01*
X232893Y958202D01*
Y955017D01*
Y958202D01*
Y958220D01*
X232874Y958313D01*
X232837Y958424D01*
X232745Y958591D01*
Y958609D01*
X232708Y958628D01*
X232633Y958720D01*
X232485Y958813D01*
X232374Y958831D01*
X232263Y958850D01*
X232893D01*
D01*
D02*
G37*
G36*
X237300D02*
X234985D01*
X234874Y958831D01*
X234726Y958757D01*
X234633Y958720D01*
X234559Y958646D01*
X234541D01*
X234522Y958609D01*
X234448Y958517D01*
X234393Y958369D01*
X234356Y958295D01*
Y958165D01*
X234374Y958072D01*
X234429Y957924D01*
X234541Y957776D01*
X234578Y957739D01*
X234670Y957683D01*
X234818Y957609D01*
X234911Y957591D01*
X235022Y957572D01*
X237411D01*
X237540Y957554D01*
X237689Y957517D01*
X237874Y957461D01*
X238059Y957369D01*
X238263Y957258D01*
X238448Y957091D01*
X238466Y957072D01*
X238522Y957017D01*
X238596Y956906D01*
X238688Y956776D01*
X238781Y956609D01*
X238855Y956406D01*
X238911Y956184D01*
X238929Y955924D01*
Y948610D01*
Y948573D01*
Y948499D01*
X238911Y948370D01*
X238874Y948203D01*
X238818Y948018D01*
X238725Y947833D01*
X238614Y947629D01*
X238448Y947444D01*
X238429Y947425D01*
X238355Y947370D01*
X238263Y947296D01*
X238114Y947222D01*
X237948Y947129D01*
X237763Y947055D01*
X237540Y946999D01*
X237300Y946981D01*
X234985D01*
X234874Y946962D01*
X234726Y946888D01*
X234633Y946851D01*
X234559Y946777D01*
X234541D01*
X234522Y946740D01*
X234448Y946648D01*
X234393Y946499D01*
X234356Y946425D01*
D01*
D01*
Y945703D01*
Y946296D01*
X234374Y946203D01*
X234429Y946055D01*
X234541Y945907D01*
X234578Y945870D01*
X234670Y945814D01*
X234818Y945740D01*
X234911Y945722D01*
X235022Y945703D01*
X234356D01*
X237411D01*
X237485Y945722D01*
X237596D01*
X237707Y945740D01*
X237985Y945814D01*
X238300Y945907D01*
X238651Y946055D01*
X238985Y946259D01*
X239170Y946388D01*
X239336Y946536D01*
X239355Y946555D01*
X239373Y946573D01*
X239410Y946629D01*
X239466Y946685D01*
X239614Y946870D01*
X239781Y947111D01*
X239947Y947425D01*
X240077Y947777D01*
X240188Y948166D01*
X240207Y948388D01*
X240225Y948610D01*
Y945907D01*
Y948610D01*
Y956036D01*
X240207Y956128D01*
Y956221D01*
X240188Y956332D01*
X240114Y956609D01*
X240021Y956943D01*
X239873Y957276D01*
X239670Y957628D01*
X239540Y957795D01*
X239392Y957961D01*
X239373Y957980D01*
X239355Y957998D01*
X239299Y958035D01*
X239244Y958109D01*
X239059Y958239D01*
X238818Y958406D01*
X238503Y958572D01*
X238151Y958720D01*
X237744Y958813D01*
X237522Y958831D01*
X237300Y958850D01*
D02*
G37*
%LPD*%
G36*
X245780Y957554D02*
X245947Y957517D01*
X246132Y957461D01*
X246317Y957369D01*
X246521Y957258D01*
X246706Y957091D01*
X246725Y957072D01*
X246780Y956998D01*
X246854Y956906D01*
X246928Y956758D01*
X247021Y956591D01*
X247095Y956387D01*
X247150Y956165D01*
X247169Y955924D01*
Y948610D01*
Y948573D01*
Y948499D01*
X247150Y948370D01*
X247113Y948222D01*
X247058Y948036D01*
X246965Y947851D01*
X246854Y947647D01*
X246688Y947462D01*
X246669Y947444D01*
X246595Y947388D01*
X246502Y947314D01*
X246354Y947222D01*
X246188Y947129D01*
X245984Y947055D01*
X245780Y946999D01*
X245539Y946981D01*
X244521D01*
X244391Y946999D01*
X244243Y947036D01*
X244058Y947092D01*
X243855Y947185D01*
X243651Y947296D01*
X243466Y947444D01*
X243447Y947462D01*
X243392Y947536D01*
X243299Y947629D01*
X243206Y947759D01*
X243132Y947925D01*
X243040Y948129D01*
X242984Y948351D01*
X242966Y948610D01*
Y955924D01*
Y955961D01*
Y956036D01*
X242984Y956165D01*
X243021Y956313D01*
X243095Y956498D01*
X243169Y956684D01*
X243299Y956887D01*
X243466Y957072D01*
X243484Y957091D01*
X243558Y957147D01*
X243651Y957239D01*
X243799Y957332D01*
X243966Y957406D01*
X244169Y957498D01*
X244391Y957554D01*
X244632Y957572D01*
X245651D01*
X245780Y957554D01*
D02*
G37*
%LPC*%
G36*
X249382Y871220D02*
Y868406D01*
X249363Y868498D01*
Y868591D01*
X249345Y868702D01*
X249271Y868979D01*
X249178Y869313D01*
X249030Y869646D01*
X248826Y869998D01*
X248697Y870165D01*
X248548Y870331D01*
X248530Y870350D01*
X248511Y870368D01*
X248456Y870405D01*
X248400Y870479D01*
X248215Y870609D01*
X247974Y870776D01*
X247660Y870942D01*
X247308Y871090D01*
X246919Y871183D01*
X246697Y871201D01*
X246475Y871220D01*
X243234D01*
X243123Y871201D01*
X242975Y871127D01*
X242901Y871090D01*
X242827Y871016D01*
X242808D01*
X242790Y870979D01*
X242716Y870887D01*
X242642Y870739D01*
X242605Y870665D01*
Y870535D01*
X242623Y870442D01*
X242679Y870294D01*
X242790Y870146D01*
X242827Y870109D01*
X242919Y870053D01*
X243067Y869979D01*
X243160Y869961D01*
X243271Y869942D01*
X246586D01*
X246715Y869924D01*
X246863Y869887D01*
X247049Y869831D01*
X247234Y869739D01*
X247437Y869628D01*
X247623Y869461D01*
X247641Y869442D01*
X247697Y869368D01*
X247771Y869276D01*
X247845Y869128D01*
X247937Y868961D01*
X248011Y868757D01*
X248067Y868535D01*
X248085Y868294D01*
Y860980D01*
Y860943D01*
Y860869D01*
X248067Y860740D01*
X248030Y860592D01*
X247974Y860406D01*
X247882Y860221D01*
X247771Y860017D01*
X247604Y859832D01*
X247586Y859814D01*
X247512Y859758D01*
X247419Y859684D01*
X247271Y859592D01*
X247104Y859499D01*
X246919Y859425D01*
X246697Y859369D01*
X246475Y859351D01*
X243901D01*
Y864443D01*
X245141D01*
X245252Y864461D01*
X245401Y864517D01*
X245549Y864610D01*
Y864628D01*
X245567Y864647D01*
X245623Y864739D01*
X245697Y864887D01*
X245715Y865072D01*
Y865091D01*
X245697Y865184D01*
X245660Y865295D01*
X245567Y865461D01*
Y865480D01*
X245530Y865498D01*
X245456Y865591D01*
X245308Y865684D01*
X245197Y865702D01*
X245086Y865721D01*
X243234D01*
X243160Y865702D01*
X243067Y865684D01*
X242938Y865647D01*
X242808Y865554D01*
X242716Y865443D01*
X242642Y865295D01*
X242605Y865072D01*
Y858073D01*
Y858684D01*
X242623Y858610D01*
X242642Y858499D01*
X242679Y858388D01*
X242771Y858277D01*
X242882Y858166D01*
X243049Y858092D01*
X243271Y858073D01*
X242605D01*
X249382D01*
Y871220D01*
D02*
G37*
G36*
X241142D02*
X234346D01*
X234976D01*
X234865Y871201D01*
X234716Y871146D01*
X234568Y871035D01*
X234550D01*
X234531Y870998D01*
X234457Y870924D01*
X234383Y870776D01*
X234346Y870683D01*
Y858073D01*
Y858666D01*
X234365Y858592D01*
X234420Y858444D01*
X234531Y858258D01*
X234550D01*
X234568Y858221D01*
X234680Y858166D01*
X234846Y858110D01*
X235050Y858073D01*
D01*
X235346Y858129D01*
X235587Y858407D01*
X239846Y868313D01*
Y858703D01*
Y858684D01*
Y858647D01*
X239864Y858536D01*
X239920Y858388D01*
X240031Y858240D01*
X240068Y858221D01*
X240160Y858166D01*
X240327Y858092D01*
X240512Y858073D01*
X236796D01*
X240531D01*
X240605Y858092D01*
X240734Y858129D01*
X240920Y858203D01*
X240957Y858240D01*
X241031Y858332D01*
X241105Y858481D01*
X241123Y858592D01*
X241142Y858703D01*
Y870609D01*
X241123Y870702D01*
X241068Y870850D01*
X240957Y870998D01*
Y871016D01*
X240920Y871035D01*
X240827Y871109D01*
X240697Y871183D01*
X240605Y871220D01*
X241142D01*
D02*
G37*
G36*
X232272D02*
X228958D01*
X228865Y871201D01*
X228754D01*
X228643Y871183D01*
X228365Y871109D01*
X228032Y871016D01*
X227680Y870850D01*
X227328Y870646D01*
X227162Y870498D01*
X226995Y870350D01*
X226977Y870331D01*
X226958Y870313D01*
X226847Y870202D01*
X226717Y870016D01*
X226551Y869776D01*
X226384Y869479D01*
X226236Y869128D01*
X226143Y868720D01*
X226125Y868517D01*
X226106Y868294D01*
Y860869D01*
X226125Y860777D01*
Y860684D01*
X226143Y860554D01*
X226217Y860277D01*
X226310Y859962D01*
X226477Y859610D01*
X226680Y859258D01*
X226828Y859092D01*
X226977Y858925D01*
X226995D01*
X227014Y858888D01*
X227069Y858851D01*
X227125Y858795D01*
X227310Y858647D01*
X227551Y858499D01*
X227865Y858351D01*
X228217Y858203D01*
X228625Y858110D01*
X228847Y858092D01*
X229069Y858073D01*
X226106D01*
D01*
X232291D01*
X232365Y858092D01*
X232476Y858110D01*
X232587Y858147D01*
X232698Y858221D01*
X232809Y858332D01*
X232883Y858499D01*
X232902Y858703D01*
Y870609D01*
X232883Y870683D01*
X232865Y870776D01*
X232828Y870905D01*
X232754Y871016D01*
X232643Y871127D01*
X232476Y871201D01*
X232272Y871220D01*
D02*
G37*
%LPD*%
G36*
X249382Y858073D02*
X246586D01*
X246660Y858092D01*
X246882Y858110D01*
X247141Y858184D01*
X247456Y858277D01*
X247789Y858425D01*
X248141Y858629D01*
X248326Y858758D01*
X248493Y858906D01*
X248511Y858925D01*
X248530Y858943D01*
X248567Y858999D01*
X248622Y859055D01*
X248771Y859240D01*
X248937Y859481D01*
X249104Y859795D01*
X249233Y860147D01*
X249345Y860536D01*
X249363Y860758D01*
X249382Y860980D01*
Y858073D01*
D02*
G37*
G36*
X240401Y871201D02*
X240308Y871183D01*
X240179Y871127D01*
X240142Y871109D01*
X240123Y871090D01*
X240086Y871035D01*
X240031Y870979D01*
X239994Y870887D01*
X239938Y870776D01*
X239901Y870628D01*
X235642Y860980D01*
Y870572D01*
Y870590D01*
Y870609D01*
X235624Y870702D01*
X235568Y870850D01*
X235457Y870998D01*
Y871016D01*
X235420Y871035D01*
X235328Y871109D01*
X235198Y871183D01*
X235105Y871220D01*
X240475D01*
X240401Y871201D01*
D02*
G37*
G36*
X231606Y859351D02*
X228958D01*
X228828Y859369D01*
X228680Y859406D01*
X228495Y859462D01*
X228291Y859555D01*
X228088Y859666D01*
X227902Y859814D01*
X227884Y859832D01*
X227828Y859906D01*
X227736Y859999D01*
X227643Y860129D01*
X227569Y860295D01*
X227477Y860499D01*
X227421Y860721D01*
X227402Y860980D01*
Y868294D01*
Y868331D01*
Y868406D01*
X227421Y868535D01*
X227458Y868683D01*
X227532Y868868D01*
X227606Y869054D01*
X227736Y869257D01*
X227902Y869442D01*
X227921Y869461D01*
X227995Y869517D01*
X228088Y869609D01*
X228236Y869702D01*
X228402Y869776D01*
X228606Y869868D01*
X228828Y869924D01*
X229069Y869942D01*
X231606D01*
Y859351D01*
D02*
G37*
%LPC*%
G36*
X229586Y994410D02*
X226532D01*
D01*
X229586D01*
D02*
G37*
G36*
X240716D02*
Y991596D01*
X240697Y991688D01*
Y991781D01*
X240679Y991892D01*
X240605Y992169D01*
X240512Y992503D01*
X240364Y992836D01*
X240160Y993188D01*
X240031Y993355D01*
X239883Y993521D01*
X239864Y993540D01*
X239846Y993558D01*
X239790Y993595D01*
X239734Y993669D01*
X239549Y993799D01*
X239309Y993966D01*
X238994Y994132D01*
X238642Y994280D01*
X238235Y994373D01*
X238013Y994391D01*
X237790Y994410D01*
X240716D01*
X234846D01*
D01*
X235476D01*
X235365Y994391D01*
X235217Y994317D01*
X235124Y994280D01*
X235050Y994206D01*
X235031D01*
X235013Y994169D01*
X234939Y994077D01*
X234883Y993929D01*
X234846Y993855D01*
Y993725D01*
X234865Y993632D01*
X234920Y993484D01*
X235031Y993336D01*
X235068Y993299D01*
X235161Y993243D01*
X235309Y993169D01*
X235402Y993151D01*
X235513Y993132D01*
X237901D01*
X238031Y993114D01*
X238179Y993077D01*
X238364Y993021D01*
X238549Y992929D01*
X238753Y992818D01*
X238938Y992651D01*
X238957Y992632D01*
X239012Y992577D01*
X239086Y992466D01*
X239179Y992336D01*
X239272Y992169D01*
X239346Y991966D01*
X239401Y991744D01*
X239420Y991484D01*
Y984170D01*
Y984133D01*
Y984059D01*
X239401Y983930D01*
X239364Y983763D01*
X239309Y983578D01*
X239216Y983393D01*
X239105Y983189D01*
X238938Y983004D01*
X238920Y982985D01*
X238846Y982930D01*
X238753Y982856D01*
X238605Y982782D01*
X238438Y982689D01*
X238253Y982615D01*
X238031Y982559D01*
X237790Y982541D01*
X235476D01*
X235365Y982522D01*
X235217Y982448D01*
X235124Y982411D01*
X235050Y982337D01*
X235031D01*
X235013Y982300D01*
X234939Y982208D01*
X234883Y982059D01*
X234846Y981985D01*
D01*
D01*
Y981263D01*
Y981856D01*
X234865Y981763D01*
X234920Y981615D01*
X235031Y981467D01*
X235068Y981430D01*
X235161Y981374D01*
X235309Y981300D01*
X235402Y981282D01*
X235513Y981263D01*
X237901D01*
X237975Y981282D01*
X238086D01*
X238198Y981300D01*
X238475Y981374D01*
X238790Y981467D01*
X239142Y981615D01*
X239475Y981819D01*
X239660Y981948D01*
X239827Y982096D01*
X239846Y982115D01*
X239864Y982133D01*
X239901Y982189D01*
X239957Y982245D01*
X240105Y982430D01*
X240271Y982671D01*
X240438Y982985D01*
X240568Y983337D01*
X240679Y983726D01*
X240697Y983948D01*
X240716Y984170D01*
Y982559D01*
Y984170D01*
Y994410D01*
D02*
G37*
G36*
X230161D02*
X230032D01*
X229921Y994391D01*
X229810Y994373D01*
X229662Y994336D01*
X229328Y994243D01*
X229125Y994188D01*
X228939Y994095D01*
X228717Y994003D01*
X228514Y993873D01*
X228291Y993725D01*
X228069Y993558D01*
X227847Y993355D01*
X227625Y993132D01*
X227606D01*
X227569Y993095D01*
X227532Y993058D01*
X227458Y993003D01*
X227273Y992855D01*
X227069Y992632D01*
X226884Y992336D01*
X226699Y991984D01*
X226625Y991781D01*
X226588Y991558D01*
X226551Y991336D01*
X226532Y991077D01*
Y990910D01*
X226551Y990781D01*
X226569Y990651D01*
X226588Y990484D01*
X226680Y990151D01*
Y990133D01*
X226717Y990077D01*
X226754Y989966D01*
X226791Y989855D01*
X226866Y989688D01*
X226958Y989522D01*
X227069Y989318D01*
X227199Y989114D01*
X231680Y982541D01*
X227254D01*
X227143Y982522D01*
X226995Y982448D01*
X226903Y982411D01*
X226828Y982337D01*
X226810D01*
X226791Y982300D01*
X226717Y982208D01*
X226662Y982059D01*
X226625Y981985D01*
Y981893D01*
Y981874D01*
Y981856D01*
X226643Y981763D01*
X226699Y981615D01*
X226791Y981467D01*
X226828Y981430D01*
X226921Y981374D01*
X227069Y981300D01*
X227180Y981282D01*
X227291Y981263D01*
X232791D01*
X232883Y981282D01*
X233032Y981356D01*
X233106Y981393D01*
X233198Y981467D01*
Y981485D01*
X233235Y981504D01*
X233291Y981597D01*
X233346Y981745D01*
X233383Y981930D01*
Y981967D01*
X233365Y982041D01*
X233346Y982133D01*
X233291Y982226D01*
X228291Y989818D01*
X228106Y990170D01*
X227976Y990466D01*
Y990484D01*
X227958Y990521D01*
X227939Y990577D01*
X227921Y990651D01*
X227884Y990855D01*
X227865Y991077D01*
Y991096D01*
Y991114D01*
X227884Y991225D01*
X227902Y991373D01*
X227958Y991577D01*
X228032Y991799D01*
X228162Y992040D01*
X228328Y992281D01*
X228550Y992503D01*
X228569Y992521D01*
X228606Y992558D01*
X228680Y992595D01*
X228754Y992669D01*
X228865Y992725D01*
X228995Y992799D01*
X229291Y992947D01*
X229310D01*
X229365Y992966D01*
X229439Y993003D01*
X229550Y993040D01*
X229662Y993058D01*
X229810Y993095D01*
X230106Y993114D01*
X230198D01*
X230310Y993095D01*
X230458Y993077D01*
X230624Y993040D01*
X230809Y992966D01*
X230995Y992892D01*
X231180Y992781D01*
X231198Y992762D01*
X231254Y992725D01*
X231346Y992632D01*
X231458Y992521D01*
X231587Y992373D01*
X231717Y992188D01*
X231847Y991966D01*
X231976Y991688D01*
X231995Y991651D01*
X232032Y991577D01*
X232106Y991466D01*
X232217Y991373D01*
X232235Y991355D01*
X232309Y991336D01*
X232402Y991299D01*
X232532Y991262D01*
X232587D01*
X232643Y991281D01*
X232698D01*
X232865Y991336D01*
X233032Y991429D01*
X233069Y991466D01*
X233124Y991558D01*
X233198Y991725D01*
X233217Y991818D01*
X233235Y991929D01*
X233198Y992095D01*
Y992114D01*
X233180Y992151D01*
X233161Y992206D01*
X233124Y992299D01*
X233032Y992503D01*
X232883Y992762D01*
X232717Y993058D01*
X232495Y993355D01*
X232235Y993632D01*
X231939Y993873D01*
X231902Y993892D01*
X231809Y993966D01*
X231643Y994040D01*
X231421Y994151D01*
X231161Y994243D01*
X230865Y994336D01*
X230532Y994391D01*
X230161Y994410D01*
D02*
G37*
G36*
X248956D02*
X242160D01*
X245012D01*
X244919Y994391D01*
X244808D01*
X244697Y994373D01*
X244419Y994299D01*
X244086Y994206D01*
X243734Y994040D01*
X243382Y993836D01*
X243216Y993688D01*
X243049Y993540D01*
X243030Y993521D01*
X243012Y993503D01*
X242901Y993392D01*
X242771Y993206D01*
X242605Y992966D01*
X242438Y992669D01*
X242290Y992318D01*
X242197Y991910D01*
X242179Y991707D01*
X242160Y991484D01*
Y984059D01*
X242179Y983967D01*
Y983874D01*
X242197Y983744D01*
X242271Y983467D01*
X242364Y983152D01*
X242530Y982800D01*
X242734Y982448D01*
X242882Y982282D01*
X243030Y982115D01*
X243049D01*
X243067Y982078D01*
X243123Y982041D01*
X243179Y981985D01*
X243364Y981837D01*
X243605Y981689D01*
X243919Y981541D01*
X244271Y981393D01*
X244678Y981300D01*
X244901Y981282D01*
X245123Y981263D01*
X246141D01*
X246215Y981282D01*
X246326D01*
X246437Y981300D01*
X246715Y981374D01*
X247030Y981467D01*
X247363Y981615D01*
X247715Y981819D01*
X247900Y981948D01*
X248067Y982096D01*
X248085Y982115D01*
X248104Y982133D01*
X248141Y982189D01*
X248197Y982245D01*
X248345Y982430D01*
X248511Y982671D01*
X248678Y982985D01*
X248808Y983337D01*
X248919Y983726D01*
X248937Y983948D01*
X248956Y984170D01*
Y982856D01*
Y984170D01*
Y994410D01*
D02*
G37*
%LPD*%
G36*
Y991596D02*
X248937Y991688D01*
Y991781D01*
X248919Y991892D01*
X248845Y992169D01*
X248752Y992503D01*
X248604Y992836D01*
X248400Y993188D01*
X248271Y993355D01*
X248123Y993521D01*
X248104Y993540D01*
X248085Y993558D01*
X248030Y993595D01*
X247974Y993669D01*
X247789Y993799D01*
X247549Y993966D01*
X247234Y994132D01*
X246882Y994280D01*
X246475Y994373D01*
X246252Y994391D01*
X246030Y994410D01*
X248956D01*
Y991596D01*
D02*
G37*
G36*
X246271Y993114D02*
X246437Y993077D01*
X246623Y993021D01*
X246808Y992929D01*
X247012Y992818D01*
X247197Y992651D01*
X247215Y992632D01*
X247271Y992558D01*
X247345Y992466D01*
X247419Y992318D01*
X247512Y992151D01*
X247586Y991947D01*
X247641Y991725D01*
X247660Y991484D01*
Y984170D01*
Y984133D01*
Y984059D01*
X247641Y983930D01*
X247604Y983782D01*
X247549Y983596D01*
X247456Y983411D01*
X247345Y983207D01*
X247178Y983022D01*
X247160Y983004D01*
X247086Y982948D01*
X246993Y982874D01*
X246845Y982782D01*
X246678Y982689D01*
X246475Y982615D01*
X246271Y982559D01*
X246030Y982541D01*
X245012D01*
X244882Y982559D01*
X244734Y982596D01*
X244549Y982652D01*
X244345Y982745D01*
X244142Y982856D01*
X243956Y983004D01*
X243938Y983022D01*
X243882Y983096D01*
X243790Y983189D01*
X243697Y983319D01*
X243623Y983485D01*
X243530Y983689D01*
X243475Y983911D01*
X243456Y984170D01*
Y991484D01*
Y991521D01*
Y991596D01*
X243475Y991725D01*
X243512Y991873D01*
X243586Y992058D01*
X243660Y992244D01*
X243790Y992447D01*
X243956Y992632D01*
X243975Y992651D01*
X244049Y992707D01*
X244142Y992799D01*
X244290Y992892D01*
X244456Y992966D01*
X244660Y993058D01*
X244882Y993114D01*
X245123Y993132D01*
X246141D01*
X246271Y993114D01*
D02*
G37*
%LPC*%
G36*
X247558Y1028700D02*
Y1025885D01*
X247539Y1025978D01*
Y1026071D01*
X247521Y1026182D01*
X247447Y1026460D01*
X247354Y1026793D01*
X247206Y1027126D01*
X247002Y1027478D01*
X246873Y1027645D01*
X246725Y1027811D01*
X246706Y1027830D01*
X246688Y1027848D01*
X246632Y1027885D01*
X246576Y1027959D01*
X246391Y1028089D01*
X246150Y1028256D01*
X245836Y1028422D01*
X245484Y1028570D01*
X245077Y1028663D01*
X244854Y1028681D01*
X244632Y1028700D01*
X247558D01*
X243614D01*
X243521Y1028681D01*
X243410D01*
X243299Y1028663D01*
X243021Y1028589D01*
X242688Y1028496D01*
X242336Y1028330D01*
X241984Y1028126D01*
X241818Y1027978D01*
X241651Y1027830D01*
X241632Y1027811D01*
X241614Y1027793D01*
X241503Y1027682D01*
X241373Y1027496D01*
X241207Y1027256D01*
X241040Y1026959D01*
X240892Y1026608D01*
X240799Y1026200D01*
X240781Y1025997D01*
X240762Y1025774D01*
Y1018349D01*
X240781Y1018257D01*
Y1018164D01*
X240799Y1018034D01*
X240873Y1017757D01*
X240966Y1017442D01*
X241133Y1017090D01*
X241336Y1016738D01*
X241484Y1016572D01*
X241632Y1016405D01*
X241651D01*
X241670Y1016368D01*
X241725Y1016331D01*
X241781Y1016275D01*
X241966Y1016127D01*
X242206Y1015979D01*
X242521Y1015831D01*
X242873Y1015683D01*
X243281Y1015590D01*
X243503Y1015572D01*
X243725Y1015553D01*
X244743D01*
X244817Y1015572D01*
X244928D01*
X245040Y1015590D01*
X245317Y1015664D01*
X245632Y1015757D01*
X245965Y1015905D01*
X246317Y1016109D01*
X246502Y1016238D01*
X246669Y1016386D01*
X246688Y1016405D01*
X246706Y1016423D01*
X246743Y1016479D01*
X246799Y1016535D01*
X246947Y1016720D01*
X247113Y1016961D01*
X247280Y1017275D01*
X247410Y1017627D01*
X247521Y1018016D01*
X247539Y1018238D01*
X247558Y1018460D01*
Y1028700D01*
D02*
G37*
G36*
X231967D02*
X227930D01*
D01*
X228560D01*
X228449Y1028681D01*
X228300Y1028626D01*
X228134Y1028515D01*
X228115D01*
X228097Y1028478D01*
X228023Y1028404D01*
X227967Y1028256D01*
X227930Y1028163D01*
Y1016127D01*
X227949Y1016016D01*
X228004Y1015868D01*
X228115Y1015720D01*
X228152Y1015701D01*
X228245Y1015646D01*
X228412Y1015572D01*
X228597Y1015553D01*
X228615D01*
X228689Y1015572D01*
X228819Y1015609D01*
X229004Y1015664D01*
X229041Y1015701D01*
X229115Y1015794D01*
X229189Y1015961D01*
X229208Y1016072D01*
X229226Y1016183D01*
Y1026774D01*
X230874Y1024867D01*
X230911Y1024830D01*
X231004Y1024774D01*
X231134Y1024719D01*
X231319Y1024682D01*
X231356D01*
X231485Y1024700D01*
X231633Y1024756D01*
X231782Y1024867D01*
X231819Y1024904D01*
X231874Y1024997D01*
X231930Y1025145D01*
X231967Y1025330D01*
Y1016701D01*
Y1028700D01*
D02*
G37*
G36*
X239318D02*
X233448D01*
D01*
X234078D01*
X233967Y1028681D01*
X233818Y1028607D01*
X233726Y1028570D01*
X233652Y1028496D01*
X233633D01*
X233615Y1028459D01*
X233541Y1028367D01*
X233485Y1028219D01*
X233448Y1028145D01*
Y1028015D01*
X233467Y1027922D01*
X233522Y1027774D01*
X233633Y1027626D01*
X233670Y1027589D01*
X233763Y1027533D01*
X233911Y1027459D01*
X234004Y1027441D01*
X234115Y1027422D01*
X236503D01*
X236633Y1027404D01*
X236781Y1027367D01*
X236966Y1027311D01*
X237152Y1027219D01*
X237355Y1027108D01*
X237540Y1026941D01*
X237559Y1026922D01*
X237614Y1026867D01*
X237689Y1026756D01*
X237781Y1026626D01*
X237874Y1026460D01*
X237948Y1026256D01*
X238003Y1026034D01*
X238022Y1025774D01*
Y1018460D01*
Y1018423D01*
Y1018349D01*
X238003Y1018220D01*
X237966Y1018053D01*
X237911Y1017868D01*
X237818Y1017683D01*
X237707Y1017479D01*
X237540Y1017294D01*
X237522Y1017275D01*
X237448Y1017220D01*
X237355Y1017146D01*
X237207Y1017072D01*
X237040Y1016979D01*
X236855Y1016905D01*
X236633Y1016849D01*
X236392Y1016831D01*
X234078D01*
X233967Y1016812D01*
X233818Y1016738D01*
X233726Y1016701D01*
X233652Y1016627D01*
X233633D01*
X233615Y1016590D01*
X233541Y1016498D01*
X233485Y1016349D01*
X233448Y1016275D01*
D01*
D01*
Y1015553D01*
Y1016146D01*
X233467Y1016053D01*
X233522Y1015905D01*
X233633Y1015757D01*
X233670Y1015720D01*
X233763Y1015664D01*
X233911Y1015590D01*
X234004Y1015572D01*
X234115Y1015553D01*
X236503D01*
X236577Y1015572D01*
X236689D01*
X236800Y1015590D01*
X237077Y1015664D01*
X237392Y1015757D01*
X237744Y1015905D01*
X238077Y1016109D01*
X238263Y1016238D01*
X238429Y1016386D01*
X238448Y1016405D01*
X238466Y1016423D01*
X238503Y1016479D01*
X238559Y1016535D01*
X238707Y1016720D01*
X238874Y1016961D01*
X239040Y1017275D01*
X239170Y1017627D01*
X239281Y1018016D01*
X239299Y1018238D01*
X239318Y1018460D01*
Y1015701D01*
Y1028700D01*
D02*
G37*
%LPD*%
G36*
X244873Y1027404D02*
X245040Y1027367D01*
X245225Y1027311D01*
X245410Y1027219D01*
X245614Y1027108D01*
X245799Y1026941D01*
X245817Y1026922D01*
X245873Y1026848D01*
X245947Y1026756D01*
X246021Y1026608D01*
X246113Y1026441D01*
X246188Y1026237D01*
X246243Y1026015D01*
X246262Y1025774D01*
Y1018460D01*
Y1018423D01*
Y1018349D01*
X246243Y1018220D01*
X246206Y1018072D01*
X246150Y1017886D01*
X246058Y1017701D01*
X245947Y1017497D01*
X245780Y1017312D01*
X245762Y1017294D01*
X245688Y1017238D01*
X245595Y1017164D01*
X245447Y1017072D01*
X245280Y1016979D01*
X245077Y1016905D01*
X244873Y1016849D01*
X244632Y1016831D01*
X243614D01*
X243484Y1016849D01*
X243336Y1016886D01*
X243151Y1016942D01*
X242947Y1017035D01*
X242743Y1017146D01*
X242558Y1017294D01*
X242540Y1017312D01*
X242484Y1017386D01*
X242392Y1017479D01*
X242299Y1017609D01*
X242225Y1017775D01*
X242132Y1017979D01*
X242077Y1018201D01*
X242058Y1018460D01*
Y1025774D01*
Y1025811D01*
Y1025885D01*
X242077Y1026015D01*
X242114Y1026163D01*
X242188Y1026348D01*
X242262Y1026534D01*
X242392Y1026737D01*
X242558Y1026922D01*
X242577Y1026941D01*
X242651Y1026997D01*
X242743Y1027089D01*
X242892Y1027182D01*
X243058Y1027256D01*
X243262Y1027348D01*
X243484Y1027404D01*
X243725Y1027422D01*
X244743D01*
X244873Y1027404D01*
D02*
G37*
G36*
X231967Y1025349D02*
X231948Y1025423D01*
X231893Y1025552D01*
X231856Y1025645D01*
X231800Y1025756D01*
X229060Y1028515D01*
X229023Y1028552D01*
X228930Y1028607D01*
X228801Y1028663D01*
X228615Y1028700D01*
X231967D01*
Y1025349D01*
D02*
G37*
G36*
X239318Y1025885D02*
X239299Y1025978D01*
Y1026071D01*
X239281Y1026182D01*
X239207Y1026460D01*
X239114Y1026793D01*
X238966Y1027126D01*
X238762Y1027478D01*
X238633Y1027645D01*
X238485Y1027811D01*
X238466Y1027830D01*
X238448Y1027848D01*
X238392Y1027885D01*
X238337Y1027959D01*
X238151Y1028089D01*
X237911Y1028256D01*
X237596Y1028422D01*
X237244Y1028570D01*
X236837Y1028663D01*
X236614Y1028681D01*
X236392Y1028700D01*
X239318D01*
Y1025885D01*
D02*
G37*
%LPC*%
G36*
X231734Y723762D02*
X225605D01*
X226216D01*
X226105Y723743D01*
X225957Y723669D01*
X225883Y723632D01*
X225809Y723558D01*
X225790D01*
X225772Y723521D01*
X225698Y723428D01*
X225642Y723280D01*
X225605Y723206D01*
Y722484D01*
Y723076D01*
X225624Y722984D01*
X225679Y722836D01*
X225772Y722688D01*
X225809Y722651D01*
X225901Y722595D01*
X226049Y722521D01*
X226142Y722502D01*
X226253Y722484D01*
X231790D01*
X231901Y722502D01*
X232067Y722558D01*
X232216Y722651D01*
Y722669D01*
X232234Y722688D01*
X232290Y722780D01*
X232364Y722928D01*
X232382Y723113D01*
Y723132D01*
X232364Y723225D01*
X232327Y723336D01*
X232234Y723502D01*
Y723521D01*
X232197Y723539D01*
X232104Y723632D01*
X231956Y723725D01*
X231845Y723743D01*
X231734Y723762D01*
D02*
G37*
G36*
X238585Y731520D02*
X233364D01*
X233975D01*
X233864Y731501D01*
X233715Y731427D01*
X233641Y731390D01*
X233567Y731316D01*
X233549D01*
X233530Y731279D01*
X233456Y731187D01*
X233401Y731039D01*
X233364Y730965D01*
Y719095D01*
Y730835D01*
X233382Y730742D01*
X233438Y730594D01*
X233530Y730446D01*
X233567Y730409D01*
X233660Y730353D01*
X233808Y730279D01*
X233901Y730261D01*
X234012Y730242D01*
X237919D01*
Y726021D01*
X235808D01*
X235697Y726002D01*
X235549Y725928D01*
X235474Y725891D01*
X235400Y725817D01*
X235382D01*
X235363Y725780D01*
X235289Y725687D01*
X235215Y725539D01*
X235178Y725465D01*
Y725372D01*
Y725354D01*
Y725335D01*
X235197Y725243D01*
X235252Y725095D01*
X235363Y724947D01*
X235400Y724910D01*
X235493Y724854D01*
X235641Y724780D01*
X235734Y724761D01*
X235845Y724743D01*
X237919D01*
Y719651D01*
X233975D01*
X233864Y719632D01*
X233715Y719558D01*
X233641Y719521D01*
X233567Y719447D01*
X233549D01*
X233530Y719410D01*
X233456Y719318D01*
X233401Y719169D01*
X233364Y719095D01*
D01*
D01*
Y718373D01*
Y718966D01*
X233382Y718873D01*
X233438Y718725D01*
X233530Y718577D01*
X233567Y718540D01*
X233660Y718484D01*
X233808Y718410D01*
X233901Y718392D01*
X234012Y718373D01*
X233364D01*
X239215D01*
D01*
X238604D01*
X238678Y718392D01*
X238789Y718410D01*
X238900Y718447D01*
X239011Y718521D01*
X239122Y718632D01*
X239196Y718799D01*
X239215Y719003D01*
Y730909D01*
X239196Y730983D01*
X239178Y731076D01*
X239141Y731205D01*
X239067Y731316D01*
X238956Y731427D01*
X238789Y731501D01*
X238585Y731520D01*
D02*
G37*
G36*
X248928Y1064260D02*
X242132D01*
X244984D01*
X244891Y1064241D01*
X244780D01*
X244669Y1064223D01*
X244391Y1064149D01*
X244058Y1064056D01*
X243706Y1063890D01*
X243354Y1063686D01*
X243188Y1063538D01*
X243021Y1063390D01*
X243003Y1063371D01*
X242984Y1063353D01*
X242873Y1063242D01*
X242743Y1063056D01*
X242577Y1062816D01*
X242410Y1062519D01*
X242262Y1062168D01*
X242169Y1061760D01*
X242151Y1061557D01*
X242132Y1061334D01*
Y1053909D01*
X242151Y1053817D01*
Y1053724D01*
X242169Y1053594D01*
X242243Y1053317D01*
X242336Y1053002D01*
X242503Y1052650D01*
X242706Y1052298D01*
X242855Y1052132D01*
X243003Y1051965D01*
X243021D01*
X243040Y1051928D01*
X243095Y1051891D01*
X243151Y1051835D01*
X243336Y1051687D01*
X243577Y1051539D01*
X243892Y1051391D01*
X244243Y1051243D01*
X244651Y1051150D01*
X244873Y1051132D01*
X245095Y1051113D01*
X246113D01*
X246188Y1051132D01*
X246299D01*
X246410Y1051150D01*
X246688Y1051224D01*
X247002Y1051317D01*
X247336Y1051465D01*
X247687Y1051669D01*
X247873Y1051798D01*
X248039Y1051946D01*
X248058Y1051965D01*
X248076Y1051983D01*
X248113Y1052039D01*
X248169Y1052095D01*
X248317Y1052280D01*
X248484Y1052521D01*
X248650Y1052835D01*
X248780Y1053187D01*
X248891Y1053576D01*
X248909Y1053798D01*
X248928Y1054020D01*
Y1052724D01*
Y1064260D01*
D02*
G37*
G36*
X240688D02*
X234818D01*
D01*
X235448D01*
X235337Y1064241D01*
X235189Y1064167D01*
X235096Y1064130D01*
X235022Y1064056D01*
X235004D01*
X234985Y1064019D01*
X234911Y1063927D01*
X234855Y1063779D01*
X234818Y1063705D01*
Y1063575D01*
X234837Y1063482D01*
X234892Y1063334D01*
X235004Y1063186D01*
X235041Y1063149D01*
X235133Y1063093D01*
X235281Y1063019D01*
X235374Y1063001D01*
X235485Y1062982D01*
X237874D01*
X238003Y1062964D01*
X238151Y1062927D01*
X238337Y1062871D01*
X238522Y1062779D01*
X238725Y1062668D01*
X238911Y1062501D01*
X238929Y1062482D01*
X238985Y1062427D01*
X239059Y1062316D01*
X239151Y1062186D01*
X239244Y1062020D01*
X239318Y1061816D01*
X239373Y1061594D01*
X239392Y1061334D01*
Y1054020D01*
Y1053983D01*
Y1053909D01*
X239373Y1053780D01*
X239336Y1053613D01*
X239281Y1053428D01*
X239188Y1053243D01*
X239077Y1053039D01*
X238911Y1052854D01*
X238892Y1052835D01*
X238818Y1052780D01*
X238725Y1052706D01*
X238577Y1052632D01*
X238411Y1052539D01*
X238225Y1052465D01*
X238003Y1052409D01*
X237763Y1052391D01*
X235448D01*
X235337Y1052372D01*
X235189Y1052298D01*
X235096Y1052261D01*
X235022Y1052187D01*
X235004D01*
X234985Y1052150D01*
X234911Y1052058D01*
X234855Y1051909D01*
X234818Y1051835D01*
D01*
D01*
Y1051113D01*
Y1051706D01*
X234837Y1051613D01*
X234892Y1051465D01*
X235004Y1051317D01*
X235041Y1051280D01*
X235133Y1051224D01*
X235281Y1051150D01*
X235374Y1051132D01*
X235485Y1051113D01*
X237874D01*
X237948Y1051132D01*
X238059D01*
X238170Y1051150D01*
X238448Y1051224D01*
X238762Y1051317D01*
X239114Y1051465D01*
X239447Y1051669D01*
X239633Y1051798D01*
X239799Y1051946D01*
X239818Y1051965D01*
X239836Y1051983D01*
X239873Y1052039D01*
X239929Y1052095D01*
X240077Y1052280D01*
X240244Y1052521D01*
X240410Y1052835D01*
X240540Y1053187D01*
X240651Y1053576D01*
X240670Y1053798D01*
X240688Y1054020D01*
Y1052446D01*
Y1064260D01*
D02*
G37*
G36*
X233356D02*
X226560D01*
X229412D01*
X229319Y1064241D01*
X229208D01*
X229097Y1064223D01*
X228819Y1064149D01*
X228486Y1064056D01*
X228134Y1063890D01*
X227782Y1063686D01*
X227615Y1063538D01*
X227449Y1063390D01*
X227430Y1063371D01*
X227412Y1063353D01*
X227301Y1063242D01*
X227171Y1063056D01*
X227004Y1062816D01*
X226838Y1062519D01*
X226690Y1062168D01*
X226597Y1061760D01*
X226579Y1061557D01*
X226560Y1061334D01*
Y1053909D01*
X226579Y1053817D01*
Y1053724D01*
X226597Y1053594D01*
X226671Y1053317D01*
X226764Y1053002D01*
X226930Y1052650D01*
X227134Y1052298D01*
X227282Y1052132D01*
X227430Y1051965D01*
X227449D01*
X227467Y1051928D01*
X227523Y1051891D01*
X227578Y1051835D01*
X227764Y1051687D01*
X228004Y1051539D01*
X228319Y1051391D01*
X228671Y1051243D01*
X229078Y1051150D01*
X229300Y1051132D01*
X229523Y1051113D01*
X230541D01*
X230615Y1051132D01*
X230726D01*
X230837Y1051150D01*
X231115Y1051224D01*
X231430Y1051317D01*
X231763Y1051465D01*
X232115Y1051669D01*
X232300Y1051798D01*
X232467Y1051946D01*
X232485Y1051965D01*
X232504Y1051983D01*
X232541Y1052039D01*
X232596Y1052095D01*
X232745Y1052280D01*
X232911Y1052521D01*
X233078Y1052835D01*
X233207Y1053187D01*
X233319Y1053576D01*
X233337Y1053798D01*
X233356Y1054020D01*
Y1064260D01*
D02*
G37*
%LPD*%
G36*
X248928Y1061445D02*
X248909Y1061538D01*
Y1061631D01*
X248891Y1061742D01*
X248817Y1062020D01*
X248724Y1062353D01*
X248576Y1062686D01*
X248372Y1063038D01*
X248243Y1063205D01*
X248095Y1063371D01*
X248076Y1063390D01*
X248058Y1063408D01*
X248002Y1063445D01*
X247947Y1063519D01*
X247761Y1063649D01*
X247521Y1063816D01*
X247206Y1063982D01*
X246854Y1064130D01*
X246447Y1064223D01*
X246225Y1064241D01*
X246002Y1064260D01*
X248928D01*
Y1061445D01*
D02*
G37*
G36*
X246243Y1062964D02*
X246410Y1062927D01*
X246595Y1062871D01*
X246780Y1062779D01*
X246984Y1062668D01*
X247169Y1062501D01*
X247188Y1062482D01*
X247243Y1062408D01*
X247317Y1062316D01*
X247391Y1062168D01*
X247484Y1062001D01*
X247558Y1061797D01*
X247613Y1061575D01*
X247632Y1061334D01*
Y1054020D01*
Y1053983D01*
Y1053909D01*
X247613Y1053780D01*
X247576Y1053632D01*
X247521Y1053446D01*
X247428Y1053261D01*
X247317Y1053057D01*
X247150Y1052872D01*
X247132Y1052854D01*
X247058Y1052798D01*
X246965Y1052724D01*
X246817Y1052632D01*
X246651Y1052539D01*
X246447Y1052465D01*
X246243Y1052409D01*
X246002Y1052391D01*
X244984D01*
X244854Y1052409D01*
X244706Y1052446D01*
X244521Y1052502D01*
X244317Y1052595D01*
X244114Y1052706D01*
X243929Y1052854D01*
X243910Y1052872D01*
X243855Y1052946D01*
X243762Y1053039D01*
X243669Y1053169D01*
X243595Y1053335D01*
X243503Y1053539D01*
X243447Y1053761D01*
X243429Y1054020D01*
Y1061334D01*
Y1061371D01*
Y1061445D01*
X243447Y1061575D01*
X243484Y1061723D01*
X243558Y1061908D01*
X243632Y1062094D01*
X243762Y1062297D01*
X243929Y1062482D01*
X243947Y1062501D01*
X244021Y1062557D01*
X244114Y1062649D01*
X244262Y1062742D01*
X244429Y1062816D01*
X244632Y1062908D01*
X244854Y1062964D01*
X245095Y1062982D01*
X246113D01*
X246243Y1062964D01*
D02*
G37*
G36*
X240688Y1061445D02*
X240670Y1061538D01*
Y1061631D01*
X240651Y1061742D01*
X240577Y1062020D01*
X240485Y1062353D01*
X240336Y1062686D01*
X240133Y1063038D01*
X240003Y1063205D01*
X239855Y1063371D01*
X239836Y1063390D01*
X239818Y1063408D01*
X239762Y1063445D01*
X239707Y1063519D01*
X239522Y1063649D01*
X239281Y1063816D01*
X238966Y1063982D01*
X238614Y1064130D01*
X238207Y1064223D01*
X237985Y1064241D01*
X237763Y1064260D01*
X240688D01*
Y1061445D01*
D02*
G37*
G36*
X233356D02*
X233337Y1061538D01*
Y1061631D01*
X233319Y1061742D01*
X233244Y1062020D01*
X233152Y1062353D01*
X233004Y1062686D01*
X232800Y1063038D01*
X232670Y1063205D01*
X232522Y1063371D01*
X232504Y1063390D01*
X232485Y1063408D01*
X232430Y1063445D01*
X232374Y1063519D01*
X232189Y1063649D01*
X231948Y1063816D01*
X231633Y1063982D01*
X231282Y1064130D01*
X230874Y1064223D01*
X230652Y1064241D01*
X230430Y1064260D01*
X233356D01*
Y1061445D01*
D02*
G37*
G36*
X230671Y1062964D02*
X230837Y1062927D01*
X231022Y1062871D01*
X231208Y1062779D01*
X231411Y1062668D01*
X231597Y1062501D01*
X231615Y1062482D01*
X231671Y1062408D01*
X231745Y1062316D01*
X231819Y1062168D01*
X231911Y1062001D01*
X231985Y1061797D01*
X232041Y1061575D01*
X232059Y1061334D01*
Y1054020D01*
Y1053983D01*
Y1053909D01*
X232041Y1053780D01*
X232004Y1053632D01*
X231948Y1053446D01*
X231856Y1053261D01*
X231745Y1053057D01*
X231578Y1052872D01*
X231560Y1052854D01*
X231485Y1052798D01*
X231393Y1052724D01*
X231245Y1052632D01*
X231078Y1052539D01*
X230874Y1052465D01*
X230671Y1052409D01*
X230430Y1052391D01*
X229412D01*
X229282Y1052409D01*
X229134Y1052446D01*
X228949Y1052502D01*
X228745Y1052595D01*
X228541Y1052706D01*
X228356Y1052854D01*
X228338Y1052872D01*
X228282Y1052946D01*
X228189Y1053039D01*
X228097Y1053169D01*
X228023Y1053335D01*
X227930Y1053539D01*
X227875Y1053761D01*
X227856Y1054020D01*
Y1061334D01*
Y1061371D01*
Y1061445D01*
X227875Y1061575D01*
X227912Y1061723D01*
X227986Y1061908D01*
X228060Y1062094D01*
X228189Y1062297D01*
X228356Y1062482D01*
X228375Y1062501D01*
X228449Y1062557D01*
X228541Y1062649D01*
X228689Y1062742D01*
X228856Y1062816D01*
X229060Y1062908D01*
X229282Y1062964D01*
X229523Y1062982D01*
X230541D01*
X230671Y1062964D01*
D02*
G37*
%LPC*%
G36*
X232272Y1153160D02*
X228939D01*
X228847Y1153141D01*
X228736D01*
X228625Y1153123D01*
X228328Y1153049D01*
X228013Y1152956D01*
X227662Y1152808D01*
X227310Y1152586D01*
X227125Y1152456D01*
X226958Y1152308D01*
X226940Y1152290D01*
X226884Y1152234D01*
X226810Y1152142D01*
X226717Y1152030D01*
X226606Y1151882D01*
X226495Y1151734D01*
X226403Y1151549D01*
X226310Y1151364D01*
X226162Y1150845D01*
X226106Y1150512D01*
Y1153160D01*
D01*
Y1140013D01*
X232291D01*
X232365Y1140032D01*
X232495Y1140069D01*
X232680Y1140124D01*
X232717Y1140161D01*
X232791Y1140254D01*
X232865Y1140421D01*
X232883Y1140532D01*
X232902Y1140643D01*
Y1152549D01*
X232883Y1152623D01*
X232865Y1152716D01*
X232828Y1152845D01*
X232754Y1152956D01*
X232643Y1153067D01*
X232476Y1153141D01*
X232272Y1153160D01*
D02*
G37*
%LPD*%
G36*
X247049Y1140013D02*
D01*
D01*
D01*
D02*
G37*
%LPC*%
G36*
X249382Y1153160D02*
X242605D01*
Y1140013D01*
D01*
Y1151938D01*
X242623Y1151827D01*
X242697Y1151660D01*
X242734Y1151586D01*
X242808Y1151494D01*
X242845Y1151457D01*
X242938Y1151401D01*
X243104Y1151327D01*
X243197Y1151308D01*
X243308Y1151290D01*
X243623Y1151401D01*
X243660Y1151419D01*
X243734Y1151475D01*
X243882Y1151549D01*
X244067Y1151642D01*
X244290Y1151734D01*
X244549Y1151808D01*
X244827Y1151864D01*
X245123Y1151882D01*
X246586D01*
X246715Y1151864D01*
X246882Y1151827D01*
X247067Y1151753D01*
X247271Y1151679D01*
X247456Y1151549D01*
X247641Y1151382D01*
X247660Y1151364D01*
X247715Y1151290D01*
X247789Y1151197D01*
X247863Y1151049D01*
X247937Y1150882D01*
X248011Y1150679D01*
X248067Y1150457D01*
X248085Y1150197D01*
X248067Y1149901D01*
X248030Y1149734D01*
X247993Y1149605D01*
Y1149586D01*
X247974Y1149568D01*
X247900Y1149457D01*
X247789Y1149290D01*
X247604Y1149068D01*
X243475Y1144865D01*
X243456Y1144846D01*
X243419Y1144809D01*
X243345Y1144735D01*
X243253Y1144642D01*
X243160Y1144513D01*
X243067Y1144365D01*
X242975Y1144198D01*
X242882Y1144013D01*
X242808Y1143809D01*
X242697Y1143420D01*
X242660Y1143198D01*
Y1142920D01*
Y1142902D01*
Y1142865D01*
Y1142809D01*
X242679Y1142717D01*
X242697Y1142624D01*
X242716Y1142513D01*
X242771Y1142217D01*
X242882Y1141902D01*
X243049Y1141550D01*
X243160Y1141383D01*
X243290Y1141198D01*
X243438Y1141013D01*
X243605Y1140846D01*
X243641Y1140809D01*
X243734Y1140717D01*
X243901Y1140587D01*
X244123Y1140439D01*
X244401Y1140272D01*
X244753Y1140143D01*
X245141Y1140050D01*
X245364Y1140032D01*
X245604Y1140013D01*
X247049D01*
X249382D01*
X247049D01*
X247141Y1140032D01*
X247252D01*
X247363Y1140050D01*
X247660Y1140106D01*
X247993Y1140180D01*
X248363Y1140310D01*
X248752Y1140476D01*
X249122Y1140698D01*
X249326Y1140920D01*
X249382Y1141180D01*
Y1141217D01*
X249363Y1141328D01*
X249308Y1141458D01*
X249215Y1141624D01*
Y1141643D01*
X249178Y1141661D01*
X249085Y1141754D01*
X248937Y1141828D01*
X248845Y1141846D01*
X248752Y1141865D01*
X248437Y1141754D01*
X248400Y1141735D01*
X248308Y1141680D01*
X248178Y1141606D01*
X247993Y1141532D01*
X247771Y1141439D01*
X247512Y1141365D01*
X247234Y1141309D01*
X246956Y1141291D01*
X245512D01*
X245382Y1141309D01*
X245234Y1141346D01*
X245049Y1141402D01*
X244845Y1141495D01*
X244641Y1141606D01*
X244456Y1141772D01*
X244438Y1141791D01*
X244382Y1141865D01*
X244290Y1141957D01*
X244197Y1142106D01*
X244123Y1142272D01*
X244030Y1142476D01*
X243975Y1142680D01*
X243956Y1142920D01*
X243993Y1143217D01*
Y1143235D01*
Y1143254D01*
X244030Y1143346D01*
Y1143365D01*
X244049Y1143402D01*
X244086Y1143494D01*
Y1143513D01*
X244104Y1143550D01*
X244123Y1143605D01*
X244160Y1143680D01*
X244290Y1143865D01*
X244456Y1144087D01*
X248530Y1148160D01*
X248548Y1148179D01*
X248585Y1148216D01*
X248659Y1148309D01*
X248734Y1148401D01*
X248826Y1148549D01*
X248937Y1148716D01*
X249067Y1148901D01*
X249178Y1149123D01*
Y1149142D01*
X249215Y1149216D01*
X249233Y1149327D01*
X249271Y1149457D01*
X249308Y1149623D01*
X249345Y1149809D01*
X249363Y1150012D01*
X249382Y1150234D01*
Y1150346D01*
X249363Y1150438D01*
X249345Y1150531D01*
X249326Y1150660D01*
X249271Y1150938D01*
X249160Y1151253D01*
X248974Y1151605D01*
X248882Y1151771D01*
X248752Y1151956D01*
X248604Y1152142D01*
X248437Y1152308D01*
Y1152327D01*
X248400Y1152345D01*
X248308Y1152438D01*
X248141Y1152586D01*
X247919Y1152734D01*
X247641Y1152882D01*
X247308Y1153030D01*
X246900Y1153123D01*
X246697Y1153160D01*
X249382D01*
D02*
G37*
G36*
X245604Y1140013D02*
D01*
X242605D01*
X245604D01*
D02*
G37*
G36*
X241142Y1153160D02*
X234346D01*
Y1140013D01*
D01*
Y1142809D01*
X234365Y1142717D01*
Y1142624D01*
X234383Y1142494D01*
X234457Y1142217D01*
X234550Y1141902D01*
X234716Y1141550D01*
X234920Y1141198D01*
X235068Y1141032D01*
X235217Y1140865D01*
X235235D01*
X235254Y1140828D01*
X235309Y1140791D01*
X235365Y1140735D01*
X235550Y1140587D01*
X235791Y1140439D01*
X236105Y1140291D01*
X236457Y1140143D01*
X236864Y1140050D01*
X237087Y1140032D01*
X237309Y1140013D01*
X238327D01*
X238401Y1140032D01*
X238512D01*
X238624Y1140050D01*
X238901Y1140124D01*
X239216Y1140217D01*
X239549Y1140365D01*
X239901Y1140569D01*
X240086Y1140698D01*
X240253Y1140846D01*
X240271Y1140865D01*
X240290Y1140883D01*
X240327Y1140939D01*
X240383Y1140995D01*
X240531Y1141180D01*
X240697Y1141421D01*
X240864Y1141735D01*
X240994Y1142087D01*
X241105Y1142476D01*
X241123Y1142698D01*
X241142Y1142920D01*
Y1152549D01*
X241123Y1152642D01*
X241068Y1152790D01*
X240957Y1152938D01*
Y1152956D01*
X240920Y1152975D01*
X240827Y1153049D01*
X240697Y1153123D01*
X240605Y1153160D01*
X241142D01*
D02*
G37*
%LPD*%
G36*
X231606Y1146772D02*
X228958D01*
X228828Y1146790D01*
X228680Y1146827D01*
X228495Y1146883D01*
X228291Y1146975D01*
X228088Y1147087D01*
X227902Y1147235D01*
X227884Y1147253D01*
X227828Y1147327D01*
X227736Y1147420D01*
X227643Y1147550D01*
X227569Y1147716D01*
X227477Y1147920D01*
X227421Y1148142D01*
X227402Y1148401D01*
Y1150234D01*
Y1150271D01*
Y1150346D01*
X227421Y1150475D01*
X227458Y1150623D01*
X227532Y1150808D01*
X227606Y1150994D01*
X227736Y1151197D01*
X227902Y1151382D01*
X227921Y1151401D01*
X227995Y1151457D01*
X228088Y1151549D01*
X228236Y1151642D01*
X228402Y1151716D01*
X228606Y1151808D01*
X228828Y1151864D01*
X229069Y1151882D01*
X231606D01*
Y1146772D01*
D02*
G37*
G36*
X226125Y1148198D02*
Y1148105D01*
X226143Y1147975D01*
X226217Y1147698D01*
X226310Y1147364D01*
X226477Y1147031D01*
X226680Y1146679D01*
X226828Y1146513D01*
X226977Y1146346D01*
X226995D01*
X227014Y1146309D01*
X227069Y1146272D01*
X227125Y1146216D01*
X227310Y1146068D01*
X227551Y1145920D01*
X227865Y1145772D01*
X228217Y1145624D01*
X228625Y1145531D01*
X228847Y1145513D01*
X229069Y1145494D01*
X231606D01*
Y1140643D01*
Y1140624D01*
Y1140587D01*
X231624Y1140476D01*
X231680Y1140328D01*
X231791Y1140180D01*
X231828Y1140161D01*
X231921Y1140106D01*
X232087Y1140032D01*
X232272Y1140013D01*
X226106D01*
Y1148290D01*
X226125Y1148198D01*
D02*
G37*
G36*
X244790Y1153141D02*
X244623Y1153123D01*
X244438Y1153086D01*
X244234Y1153030D01*
X244012Y1152975D01*
X243975D01*
X243901Y1152938D01*
X243790Y1152901D01*
X243641Y1152845D01*
X243475Y1152790D01*
X243290Y1152697D01*
X242919Y1152493D01*
X242901Y1152475D01*
X242864Y1152456D01*
X242808Y1152401D01*
X242753Y1152327D01*
X242734Y1152308D01*
X242697Y1152234D01*
X242642Y1152123D01*
X242605Y1151975D01*
Y1153160D01*
X244938D01*
X244790Y1153141D01*
D02*
G37*
G36*
X234865D02*
X234716Y1153086D01*
X234568Y1152975D01*
X234550D01*
X234531Y1152938D01*
X234457Y1152864D01*
X234383Y1152716D01*
X234346Y1152623D01*
Y1153160D01*
X234976D01*
X234865Y1153141D01*
D02*
G37*
G36*
X240364D02*
X240216Y1153086D01*
X240068Y1152975D01*
X240049D01*
X240031Y1152938D01*
X239957Y1152864D01*
X239883Y1152716D01*
X239846Y1152623D01*
Y1152512D01*
Y1142920D01*
Y1142883D01*
Y1142809D01*
X239827Y1142680D01*
X239790Y1142532D01*
X239734Y1142346D01*
X239642Y1142161D01*
X239531Y1141957D01*
X239364Y1141772D01*
X239346Y1141754D01*
X239272Y1141698D01*
X239179Y1141624D01*
X239031Y1141532D01*
X238864Y1141439D01*
X238661Y1141365D01*
X238457Y1141309D01*
X238216Y1141291D01*
X237198D01*
X237068Y1141309D01*
X236920Y1141346D01*
X236735Y1141402D01*
X236531Y1141495D01*
X236327Y1141606D01*
X236142Y1141754D01*
X236124Y1141772D01*
X236068Y1141846D01*
X235976Y1141939D01*
X235883Y1142069D01*
X235809Y1142235D01*
X235716Y1142439D01*
X235661Y1142661D01*
X235642Y1142920D01*
Y1152512D01*
Y1152530D01*
Y1152549D01*
X235624Y1152642D01*
X235568Y1152790D01*
X235457Y1152938D01*
Y1152956D01*
X235420Y1152975D01*
X235328Y1153049D01*
X235198Y1153123D01*
X235105Y1153160D01*
X240475D01*
X240364Y1153141D01*
D02*
G37*
%LPC*%
G36*
X421863Y626110D02*
D01*
Y625499D01*
X421844Y625573D01*
X421826Y625666D01*
X421789Y625795D01*
X421715Y625906D01*
X421604Y626017D01*
X421437Y626091D01*
X421233Y626110D01*
X417919D01*
X417826Y626091D01*
X417715D01*
X417604Y626073D01*
X417326Y625999D01*
X416993Y625906D01*
X416641Y625740D01*
X416289Y625536D01*
X416123Y625388D01*
X415956Y625240D01*
X415938Y625221D01*
X415919Y625203D01*
X415808Y625092D01*
X415678Y624906D01*
X415512Y624666D01*
X415345Y624369D01*
X415197Y624018D01*
X415104Y623610D01*
X415086Y623407D01*
X415067Y623184D01*
Y621240D01*
X415086Y621148D01*
Y621055D01*
X415104Y620925D01*
X415178Y620648D01*
X415271Y620314D01*
X415438Y619981D01*
X415641Y619629D01*
X415789Y619463D01*
X415938Y619296D01*
X415956D01*
X415975Y619259D01*
X416030Y619222D01*
X416086Y619166D01*
X416271Y619018D01*
X416511Y618870D01*
X416826Y618722D01*
X417178Y618574D01*
X417585Y618481D01*
X417808Y618463D01*
X418030Y618444D01*
X417937D01*
X415141Y613871D01*
X415123Y613852D01*
X415104Y613797D01*
X415086Y613704D01*
X415067Y613574D01*
Y613537D01*
X415086Y613426D01*
X415160Y613278D01*
X415215Y613204D01*
X415289Y613111D01*
X415326Y613093D01*
X415419Y613037D01*
X415567Y612982D01*
X415752Y612963D01*
X415067D01*
X421863D01*
Y626110D01*
D02*
G37*
%LPD*%
G36*
X420567Y619722D02*
X417919D01*
X417789Y619740D01*
X417641Y619777D01*
X417456Y619833D01*
X417252Y619925D01*
X417048Y620037D01*
X416863Y620185D01*
X416845Y620203D01*
X416789Y620277D01*
X416697Y620370D01*
X416604Y620499D01*
X416530Y620666D01*
X416437Y620870D01*
X416382Y621092D01*
X416363Y621351D01*
Y623184D01*
Y623221D01*
Y623296D01*
X416382Y623425D01*
X416419Y623573D01*
X416493Y623758D01*
X416567Y623944D01*
X416697Y624147D01*
X416863Y624332D01*
X416882Y624351D01*
X416956Y624407D01*
X417048Y624499D01*
X417197Y624592D01*
X417363Y624666D01*
X417567Y624758D01*
X417789Y624814D01*
X418030Y624832D01*
X420567D01*
Y619722D01*
D02*
G37*
G36*
X421863Y612963D02*
X421252D01*
X421326Y612982D01*
X421455Y613019D01*
X421641Y613074D01*
X421678Y613111D01*
X421752Y613204D01*
X421826Y613371D01*
X421844Y613482D01*
X421863Y613593D01*
Y612963D01*
D02*
G37*
G36*
X420567Y613593D02*
Y613574D01*
Y613537D01*
X420585Y613426D01*
X420641Y613278D01*
X420752Y613130D01*
X420789Y613111D01*
X420881Y613056D01*
X421048Y612982D01*
X421233Y612963D01*
X415845D01*
X415956Y612982D01*
X416067Y613019D01*
X416086Y613037D01*
X416141Y613093D01*
X416215Y613167D01*
X416308Y613297D01*
X419308Y618444D01*
X420567D01*
Y613593D01*
D02*
G37*
D10*
X584390Y601190D02*
G03*
X584390Y601190I-1250J0D01*
G01*
X586140Y545220D02*
G03*
X586140Y545220I-1250J0D01*
G01*
X497030Y693030D02*
G03*
X497030Y693030I-1250J0D01*
G01*
X322820Y727100D02*
G03*
X322820Y727100I-1250J0D01*
G01*
X479510Y583610D02*
G03*
X479510Y583610I-1250J0D01*
G01*
X531100Y940460D02*
G03*
X531100Y940460I-1250J0D01*
G01*
X534600Y906940D02*
G03*
X534600Y906940I-1250J0D01*
G01*
X404150Y1055230D02*
G03*
X404150Y1055230I-1250J0D01*
G01*
X413860Y848360D02*
G03*
X413860Y848360I-1250J0D01*
G01*
D12*
X610140Y615690D02*
G03*
X610140Y615690I-3000J0D01*
G01*
X609140Y557770D02*
G03*
X609140Y557770I-3000J0D01*
G01*
X475280Y681980D02*
G03*
X475280Y681980I-3000J0D01*
G01*
X383650Y1042030D02*
G03*
X383650Y1042030I-3000J0D01*
G01*
D13*
X597140Y605690D02*
Y656690D01*
X627140Y605690D02*
Y656690D01*
X597140Y605690D02*
X627140D01*
X597140Y656690D02*
X627140D01*
X539130Y556500D02*
Y586500D01*
X505130D02*
X559130D01*
X505130Y556500D02*
Y586500D01*
Y556500D02*
X559130D01*
Y586500D01*
X596140Y547770D02*
Y597770D01*
X628140Y547770D02*
Y597770D01*
X596140Y547770D02*
X628140D01*
X596140Y597770D02*
X628140D01*
X442280Y638980D02*
X482280D01*
X442280Y691980D02*
X482280D01*
X442280Y638980D02*
Y691980D01*
X482280Y638980D02*
Y691980D01*
X326390Y583820D02*
Y599820D01*
Y599820D02*
Y599820D01*
Y599820D02*
X332390Y593820D01*
X320390D02*
X326390Y599820D01*
X341390Y561820D02*
Y621820D01*
X311390D02*
X341390D01*
X311390Y561820D02*
Y621820D01*
Y561820D02*
X341390D01*
X518713Y813949D02*
X531020D01*
X518713Y805020D02*
Y813949D01*
X295070Y742850D02*
X298570D01*
X295070Y735470D02*
Y742850D01*
X313570D02*
X317070D01*
Y735470D02*
Y742850D01*
X503350Y956210D02*
X506850D01*
X503350Y948830D02*
Y956210D01*
X521850D02*
X525350D01*
Y948830D02*
Y956210D01*
X499750Y923440D02*
X506350D01*
X499750Y915290D02*
Y923440D01*
X522350D02*
X528950D01*
Y915290D02*
Y923440D01*
X390650Y952030D02*
Y1052030D01*
X358650Y952030D02*
Y1052030D01*
X390650D01*
X358650Y952030D02*
X390650D01*
X320140Y653210D02*
Y656710D01*
Y653210D02*
X327520D01*
X320140Y671710D02*
Y675210D01*
X327520D01*
X320140Y681150D02*
Y684650D01*
Y681150D02*
X327520D01*
X320140Y699650D02*
Y703150D01*
X327520D01*
X387110Y804310D02*
Y854310D01*
X357110Y804310D02*
X387110D01*
X357110D02*
Y854310D01*
X387110D01*
X306960Y772670D02*
Y803670D01*
X345960Y772670D02*
Y803670D01*
X283960D02*
X345960D01*
X283960Y772670D02*
Y803670D01*
Y772670D02*
X345960D01*
X322960Y854950D02*
Y885950D01*
X283960Y854950D02*
Y885950D01*
Y854950D02*
X345960D01*
Y885950D01*
X283960D02*
X345960D01*
X415940Y1084820D02*
Y1114820D01*
X381940D02*
X435940D01*
X381940Y1084820D02*
Y1114820D01*
Y1084820D02*
X435940D01*
Y1114820D01*
X415940Y1119110D02*
Y1149110D01*
X381940D02*
X435940D01*
X381940Y1119110D02*
Y1149110D01*
Y1119110D02*
X435940D01*
Y1149110D01*
X450520Y1144870D02*
X454520D01*
X450520Y1092870D02*
Y1144870D01*
X500520Y1092870D02*
X504520D01*
X500520Y1144870D02*
X504520D01*
Y1092870D02*
Y1144870D01*
X450520Y1092870D02*
X454520D01*
X305670Y1155750D02*
Y1193750D01*
X382670Y1155750D02*
Y1193750D01*
X305670Y1155750D02*
X382670D01*
X305670Y1193750D02*
X382670D01*
X531580Y1064780D02*
Y1129780D01*
Y1064780D02*
X621580D01*
Y1129780D01*
X531580D02*
X621580D01*
X561580Y1097280D02*
X591580D01*
X579080Y1084780D02*
X591580Y1097280D01*
X579080Y1109780D02*
X591580Y1097280D01*
X621580Y1137170D02*
Y1202170D01*
X531580D02*
X621580D01*
X531580Y1137170D02*
Y1202170D01*
Y1137170D02*
X621580D01*
X561580Y1169670D02*
X591580D01*
X561580D02*
X574080Y1182170D01*
X561580Y1169670D02*
X574080Y1157170D01*
D64*
X439652Y1147090D02*
X448316D01*
D66*
X381860Y846560D02*
G03*
X381860Y846560I-2500J0D01*
G01*
M02*
