G04*
G04 #@! TF.GenerationSoftware,Altium Limited,Altium Designer,19.1.6 (110)*
G04*
G04 Layer_Color=128*
%FSLAX44Y44*%
%MOMM*%
G71*
G01*
G75*
G04:AMPARAMS|DCode=18|XSize=0.8mm|YSize=1mm|CornerRadius=0.1mm|HoleSize=0mm|Usage=FLASHONLY|Rotation=0.000|XOffset=0mm|YOffset=0mm|HoleType=Round|Shape=RoundedRectangle|*
%AMROUNDEDRECTD18*
21,1,0.8000,0.8000,0,0,0.0*
21,1,0.6000,1.0000,0,0,0.0*
1,1,0.2000,0.3000,-0.4000*
1,1,0.2000,-0.3000,-0.4000*
1,1,0.2000,-0.3000,0.4000*
1,1,0.2000,0.3000,0.4000*
%
%ADD18ROUNDEDRECTD18*%
G04:AMPARAMS|DCode=19|XSize=0.8mm|YSize=1mm|CornerRadius=0.1mm|HoleSize=0mm|Usage=FLASHONLY|Rotation=90.000|XOffset=0mm|YOffset=0mm|HoleType=Round|Shape=RoundedRectangle|*
%AMROUNDEDRECTD19*
21,1,0.8000,0.8000,0,0,90.0*
21,1,0.6000,1.0000,0,0,90.0*
1,1,0.2000,0.4000,0.3000*
1,1,0.2000,0.4000,-0.3000*
1,1,0.2000,-0.4000,-0.3000*
1,1,0.2000,-0.4000,0.3000*
%
%ADD19ROUNDEDRECTD19*%
%ADD32R,1.4000X2.4000*%
%ADD65C,1.0000*%
%ADD92O,1.3500X0.4500*%
G04:AMPARAMS|DCode=93|XSize=0.6mm|YSize=1.45mm|CornerRadius=0.051mm|HoleSize=0mm|Usage=FLASHONLY|Rotation=270.000|XOffset=0mm|YOffset=0mm|HoleType=Round|Shape=RoundedRectangle|*
%AMROUNDEDRECTD93*
21,1,0.6000,1.3480,0,0,270.0*
21,1,0.4980,1.4500,0,0,270.0*
1,1,0.1020,-0.6740,-0.2490*
1,1,0.1020,-0.6740,0.2490*
1,1,0.1020,0.6740,0.2490*
1,1,0.1020,0.6740,-0.2490*
%
%ADD93ROUNDEDRECTD93*%
%ADD94O,2.0000X0.3500*%
%ADD95O,1.9000X0.6000*%
G04:AMPARAMS|DCode=96|XSize=1.27mm|YSize=2.1mm|CornerRadius=0.1588mm|HoleSize=0mm|Usage=FLASHONLY|Rotation=90.000|XOffset=0mm|YOffset=0mm|HoleType=Round|Shape=RoundedRectangle|*
%AMROUNDEDRECTD96*
21,1,1.2700,1.7825,0,0,90.0*
21,1,0.9525,2.1000,0,0,90.0*
1,1,0.3175,0.8913,0.4763*
1,1,0.3175,0.8913,-0.4763*
1,1,0.3175,-0.8913,-0.4763*
1,1,0.3175,-0.8913,0.4763*
%
%ADD96ROUNDEDRECTD96*%
G04:AMPARAMS|DCode=97|XSize=1.3mm|YSize=1.1mm|CornerRadius=0.055mm|HoleSize=0mm|Usage=FLASHONLY|Rotation=0.000|XOffset=0mm|YOffset=0mm|HoleType=Round|Shape=RoundedRectangle|*
%AMROUNDEDRECTD97*
21,1,1.3000,0.9900,0,0,0.0*
21,1,1.1900,1.1000,0,0,0.0*
1,1,0.1100,0.5950,-0.4950*
1,1,0.1100,-0.5950,-0.4950*
1,1,0.1100,-0.5950,0.4950*
1,1,0.1100,0.5950,0.4950*
%
%ADD97ROUNDEDRECTD97*%
%ADD98R,0.7000X0.9000*%
%ADD99O,0.4500X1.3500*%
%ADD100R,0.8000X0.9000*%
%ADD101R,1.8000X1.8400*%
%ADD102O,1.6500X0.6500*%
%ADD103R,0.9000X0.7000*%
G04:AMPARAMS|DCode=104|XSize=1.55mm|YSize=0.6mm|CornerRadius=0.051mm|HoleSize=0mm|Usage=FLASHONLY|Rotation=180.000|XOffset=0mm|YOffset=0mm|HoleType=Round|Shape=RoundedRectangle|*
%AMROUNDEDRECTD104*
21,1,1.5500,0.4980,0,0,180.0*
21,1,1.4480,0.6000,0,0,180.0*
1,1,0.1020,-0.7240,0.2490*
1,1,0.1020,0.7240,0.2490*
1,1,0.1020,0.7240,-0.2490*
1,1,0.1020,-0.7240,-0.2490*
%
%ADD104ROUNDEDRECTD104*%
%ADD105R,1.7000X2.5000*%
%ADD106R,4.0000X1.5000*%
G04:AMPARAMS|DCode=107|XSize=0.6mm|YSize=1.2mm|CornerRadius=0.075mm|HoleSize=0mm|Usage=FLASHONLY|Rotation=90.000|XOffset=0mm|YOffset=0mm|HoleType=Round|Shape=RoundedRectangle|*
%AMROUNDEDRECTD107*
21,1,0.6000,1.0500,0,0,90.0*
21,1,0.4500,1.2000,0,0,90.0*
1,1,0.1500,0.5250,0.2250*
1,1,0.1500,0.5250,-0.2250*
1,1,0.1500,-0.5250,-0.2250*
1,1,0.1500,-0.5250,0.2250*
%
%ADD107ROUNDEDRECTD107*%
%ADD108R,1.0000X3.3000*%
%ADD109R,1.7200X3.2000*%
D18*
X688220Y792480D02*
D03*
X673220D02*
D03*
X688220Y718820D02*
D03*
X673220D02*
D03*
X688220Y698500D02*
D03*
X673220D02*
D03*
X688220Y812800D02*
D03*
X673220D02*
D03*
X688220Y868680D02*
D03*
X673220D02*
D03*
X688220Y754380D02*
D03*
X673220D02*
D03*
X688220Y774700D02*
D03*
X673220D02*
D03*
X688220Y850900D02*
D03*
X673220D02*
D03*
X688220Y830580D02*
D03*
X673220D02*
D03*
X820300Y1158240D02*
D03*
X805300D02*
D03*
X871100D02*
D03*
X856100D02*
D03*
X972700D02*
D03*
X957700D02*
D03*
X921900D02*
D03*
X906900D02*
D03*
X610750Y666750D02*
D03*
X595750D02*
D03*
X627500Y665480D02*
D03*
X642500D02*
D03*
X670440Y553720D02*
D03*
X655440D02*
D03*
X412630Y684530D02*
D03*
X397630D02*
D03*
Y671830D02*
D03*
X412630D02*
D03*
X544710Y821690D02*
D03*
X529710D02*
D03*
X525900Y769620D02*
D03*
X540900D02*
D03*
X270630Y746760D02*
D03*
X285630D02*
D03*
X306190Y759460D02*
D03*
X321190D02*
D03*
X270630D02*
D03*
X285630D02*
D03*
X253880Y767080D02*
D03*
X238880D02*
D03*
X316110Y703580D02*
D03*
X301110D02*
D03*
X273170Y657860D02*
D03*
X288170D02*
D03*
Y670560D02*
D03*
X273170D02*
D03*
X288170Y685800D02*
D03*
X273170D02*
D03*
X273170Y698500D02*
D03*
X288170D02*
D03*
X450730Y619760D02*
D03*
X435730D02*
D03*
X452000Y553720D02*
D03*
X437000D02*
D03*
X622180Y1239520D02*
D03*
X607180D02*
D03*
X579240D02*
D03*
X594240D02*
D03*
D19*
X568960Y564000D02*
D03*
Y579000D02*
D03*
X513080Y684410D02*
D03*
Y669410D02*
D03*
X488950Y972700D02*
D03*
Y957700D02*
D03*
X302260Y685680D02*
D03*
Y670680D02*
D03*
X438150Y583050D02*
D03*
Y598050D02*
D03*
X393700Y878720D02*
D03*
Y863720D02*
D03*
X379730Y781170D02*
D03*
Y796170D02*
D03*
Y878720D02*
D03*
Y863720D02*
D03*
X400050Y1200030D02*
D03*
Y1185030D02*
D03*
Y1174090D02*
D03*
Y1159090D02*
D03*
X414020Y1174090D02*
D03*
Y1159090D02*
D03*
X445770Y1145420D02*
D03*
Y1130420D02*
D03*
D32*
X549630Y571500D02*
D03*
X514630D02*
D03*
X426440Y1099820D02*
D03*
X391440D02*
D03*
X426440Y1134110D02*
D03*
X391440D02*
D03*
D65*
X269060Y1021080D02*
X291070D01*
D92*
X636950Y869340D02*
D03*
Y878840D02*
D03*
Y888340D02*
D03*
X658450Y869340D02*
D03*
Y878840D02*
D03*
Y888340D02*
D03*
X636950Y793140D02*
D03*
Y802640D02*
D03*
Y812140D02*
D03*
X658450Y793140D02*
D03*
Y802640D02*
D03*
Y812140D02*
D03*
X636950Y831240D02*
D03*
Y840740D02*
D03*
Y850240D02*
D03*
X658450Y831240D02*
D03*
Y840740D02*
D03*
Y850240D02*
D03*
X636950Y699160D02*
D03*
Y708660D02*
D03*
Y718160D02*
D03*
X658450Y699160D02*
D03*
Y708660D02*
D03*
Y718160D02*
D03*
X636950Y755040D02*
D03*
Y764540D02*
D03*
Y774040D02*
D03*
X658450Y755040D02*
D03*
Y764540D02*
D03*
Y774040D02*
D03*
D93*
X639390Y566420D02*
D03*
Y579120D02*
D03*
X584890Y553720D02*
D03*
Y566420D02*
D03*
Y579120D02*
D03*
Y591820D02*
D03*
X639390Y553720D02*
D03*
Y591820D02*
D03*
D94*
X641140Y627940D02*
D03*
Y614940D02*
D03*
Y640940D02*
D03*
X583140Y608440D02*
D03*
Y614940D02*
D03*
Y621440D02*
D03*
Y627940D02*
D03*
Y634440D02*
D03*
Y640940D02*
D03*
Y647440D02*
D03*
Y653940D02*
D03*
X641140Y608440D02*
D03*
Y621440D02*
D03*
Y634440D02*
D03*
Y647440D02*
D03*
Y653940D02*
D03*
D95*
X428780Y646430D02*
D03*
Y659130D02*
D03*
Y671830D02*
D03*
Y684530D02*
D03*
X495780Y646430D02*
D03*
Y659130D02*
D03*
Y671830D02*
D03*
Y684530D02*
D03*
D96*
X326390Y611670D02*
D03*
Y571970D02*
D03*
D97*
X529520Y785520D02*
D03*
Y804520D02*
D03*
X552520Y785520D02*
D03*
Y804520D02*
D03*
D98*
X306070Y746100D02*
D03*
X299570Y727100D02*
D03*
X312570D02*
D03*
X514350Y959460D02*
D03*
X507850Y940460D02*
D03*
X520850D02*
D03*
D99*
X470510Y583610D02*
D03*
X461010D02*
D03*
X451510D02*
D03*
X470510Y605110D02*
D03*
X461010D02*
D03*
X451510D02*
D03*
D100*
X514350Y926940D02*
D03*
X504850Y906940D02*
D03*
X523850D02*
D03*
D101*
X321070Y970280D02*
D03*
X291070D02*
D03*
X321070Y995680D02*
D03*
X291070D02*
D03*
X321070Y1021080D02*
D03*
X291070D02*
D03*
X321070Y1046480D02*
D03*
X291070D02*
D03*
X322340Y817880D02*
D03*
X292340D02*
D03*
X322340Y840740D02*
D03*
X292340D02*
D03*
D102*
X402900Y1046480D02*
D03*
Y1033780D02*
D03*
Y1021080D02*
D03*
Y1008380D02*
D03*
Y995680D02*
D03*
Y982980D02*
D03*
Y970280D02*
D03*
Y957580D02*
D03*
X346400Y1046480D02*
D03*
Y1033780D02*
D03*
Y1021080D02*
D03*
Y1008380D02*
D03*
Y995680D02*
D03*
Y982980D02*
D03*
Y970280D02*
D03*
Y957580D02*
D03*
D103*
X316890Y664210D02*
D03*
X335890Y657710D02*
D03*
Y670710D02*
D03*
X316890Y692150D02*
D03*
X335890Y685650D02*
D03*
Y698650D02*
D03*
D104*
X345110Y848360D02*
D03*
Y835660D02*
D03*
Y822960D02*
D03*
Y810260D02*
D03*
X399110D02*
D03*
Y822960D02*
D03*
Y835660D02*
D03*
Y848360D02*
D03*
D105*
X294960Y788670D02*
D03*
X334960D02*
D03*
Y869950D02*
D03*
X294960D02*
D03*
D106*
X477520Y1136870D02*
D03*
Y1100870D02*
D03*
D107*
X443930Y1155090D02*
D03*
Y1164590D02*
D03*
Y1174090D02*
D03*
X467930D02*
D03*
Y1164590D02*
D03*
Y1155090D02*
D03*
D108*
X313170Y1174750D02*
D03*
X375170D02*
D03*
D109*
X608580Y1097280D02*
D03*
X544580D02*
D03*
Y1169670D02*
D03*
X608580D02*
D03*
M02*
