G04*
G04 #@! TF.GenerationSoftware,Altium Limited,Altium Designer,19.1.6 (110)*
G04*
G04 Layer_Color=8388736*
%FSLAX44Y44*%
%MOMM*%
G71*
G01*
G75*
%ADD23R,0.4318X2.0541*%
G04:AMPARAMS|DCode=24|XSize=2.0541mm|YSize=0.4318mm|CornerRadius=0.2159mm|HoleSize=0mm|Usage=FLASHONLY|Rotation=90.000|XOffset=0mm|YOffset=0mm|HoleType=Round|Shape=RoundedRectangle|*
%AMROUNDEDRECTD24*
21,1,2.0541,0.0000,0,0,90.0*
21,1,1.6223,0.4318,0,0,90.0*
1,1,0.4318,0.0000,0.8112*
1,1,0.4318,0.0000,-0.8112*
1,1,0.4318,0.0000,-0.8112*
1,1,0.4318,0.0000,0.8112*
%
%ADD24ROUNDEDRECTD24*%
%ADD29R,0.6500X1.0500*%
G04:AMPARAMS|DCode=33|XSize=0.5mm|YSize=0.75mm|CornerRadius=0.1mm|HoleSize=0mm|Usage=FLASHONLY|Rotation=90.000|XOffset=0mm|YOffset=0mm|HoleType=Round|Shape=RoundedRectangle|*
%AMROUNDEDRECTD33*
21,1,0.5000,0.5500,0,0,90.0*
21,1,0.3000,0.7500,0,0,90.0*
1,1,0.2000,0.2750,0.1500*
1,1,0.2000,0.2750,-0.1500*
1,1,0.2000,-0.2750,-0.1500*
1,1,0.2000,-0.2750,0.1500*
%
%ADD33ROUNDEDRECTD33*%
G04:AMPARAMS|DCode=34|XSize=0.9mm|YSize=1.1mm|CornerRadius=0.15mm|HoleSize=0mm|Usage=FLASHONLY|Rotation=0.000|XOffset=0mm|YOffset=0mm|HoleType=Round|Shape=RoundedRectangle|*
%AMROUNDEDRECTD34*
21,1,0.9000,0.8000,0,0,0.0*
21,1,0.6000,1.1000,0,0,0.0*
1,1,0.3000,0.3000,-0.4000*
1,1,0.3000,-0.3000,-0.4000*
1,1,0.3000,-0.3000,0.4000*
1,1,0.3000,0.3000,0.4000*
%
%ADD34ROUNDEDRECTD34*%
G04:AMPARAMS|DCode=35|XSize=0.9mm|YSize=1.1mm|CornerRadius=0.15mm|HoleSize=0mm|Usage=FLASHONLY|Rotation=90.000|XOffset=0mm|YOffset=0mm|HoleType=Round|Shape=RoundedRectangle|*
%AMROUNDEDRECTD35*
21,1,0.9000,0.8000,0,0,90.0*
21,1,0.6000,1.1000,0,0,90.0*
1,1,0.3000,0.4000,0.3000*
1,1,0.3000,0.4000,-0.3000*
1,1,0.3000,-0.4000,-0.3000*
1,1,0.3000,-0.4000,0.3000*
%
%ADD35ROUNDEDRECTD35*%
%ADD36O,0.4000X2.2000*%
%ADD37R,0.8000X1.4000*%
G04:AMPARAMS|DCode=38|XSize=1.5mm|YSize=1.8mm|CornerRadius=0.225mm|HoleSize=0mm|Usage=FLASHONLY|Rotation=0.000|XOffset=0mm|YOffset=0mm|HoleType=Round|Shape=RoundedRectangle|*
%AMROUNDEDRECTD38*
21,1,1.5000,1.3500,0,0,0.0*
21,1,1.0500,1.8000,0,0,0.0*
1,1,0.4500,0.5250,-0.6750*
1,1,0.4500,-0.5250,-0.6750*
1,1,0.4500,-0.5250,0.6750*
1,1,0.4500,0.5250,0.6750*
%
%ADD38ROUNDEDRECTD38*%
%ADD39R,2.5000X1.5000*%
G04:AMPARAMS|DCode=40|XSize=1.5mm|YSize=1.8mm|CornerRadius=0.225mm|HoleSize=0mm|Usage=FLASHONLY|Rotation=90.000|XOffset=0mm|YOffset=0mm|HoleType=Round|Shape=RoundedRectangle|*
%AMROUNDEDRECTD40*
21,1,1.5000,1.3500,0,0,90.0*
21,1,1.0500,1.8000,0,0,90.0*
1,1,0.4500,0.6750,0.5250*
1,1,0.4500,0.6750,-0.5250*
1,1,0.4500,-0.6750,-0.5250*
1,1,0.4500,-0.6750,0.5250*
%
%ADD40ROUNDEDRECTD40*%
G04:AMPARAMS|DCode=41|XSize=0.35mm|YSize=1.25mm|CornerRadius=0.1mm|HoleSize=0mm|Usage=FLASHONLY|Rotation=180.000|XOffset=0mm|YOffset=0mm|HoleType=Round|Shape=RoundedRectangle|*
%AMROUNDEDRECTD41*
21,1,0.3500,1.0500,0,0,180.0*
21,1,0.1500,1.2500,0,0,180.0*
1,1,0.2000,-0.0750,0.5250*
1,1,0.2000,0.0750,0.5250*
1,1,0.2000,0.0750,-0.5250*
1,1,0.2000,-0.0750,-0.5250*
%
%ADD41ROUNDEDRECTD41*%
G04:AMPARAMS|DCode=42|XSize=3.2mm|YSize=5.7mm|CornerRadius=0.825mm|HoleSize=0mm|Usage=FLASHONLY|Rotation=270.000|XOffset=0mm|YOffset=0mm|HoleType=Round|Shape=RoundedRectangle|*
%AMROUNDEDRECTD42*
21,1,3.2000,4.0500,0,0,270.0*
21,1,1.5500,5.7000,0,0,270.0*
1,1,1.6500,-2.0250,-0.7750*
1,1,1.6500,-2.0250,0.7750*
1,1,1.6500,2.0250,0.7750*
1,1,1.6500,2.0250,-0.7750*
%
%ADD42ROUNDEDRECTD42*%
%ADD43R,1.3000X1.3000*%
%ADD44O,2.2000X0.4000*%
%ADD45R,1.5000X2.5000*%
%ADD46C,1.0000*%
%ADD47C,1.7510*%
%ADD48C,2.1000*%
%ADD49O,2.1000X1.6240*%
%ADD50C,1.9000*%
%ADD51P,2.0566X8X202.5*%
G04:AMPARAMS|DCode=52|XSize=2.2mm|YSize=2.2mm|CornerRadius=0.575mm|HoleSize=0mm|Usage=FLASHONLY|Rotation=90.000|XOffset=0mm|YOffset=0mm|HoleType=Round|Shape=RoundedRectangle|*
%AMROUNDEDRECTD52*
21,1,2.2000,1.0500,0,0,90.0*
21,1,1.0500,2.2000,0,0,90.0*
1,1,1.1500,0.5250,0.5250*
1,1,1.1500,0.5250,-0.5250*
1,1,1.1500,-0.5250,-0.5250*
1,1,1.1500,-0.5250,0.5250*
%
%ADD52ROUNDEDRECTD52*%
%ADD53C,2.2000*%
%ADD54C,1.7000*%
%ADD55R,1.7000X1.7000*%
%ADD56R,1.4000X1.4000*%
%ADD57C,1.4000*%
%ADD58C,1.4500*%
%ADD59O,5.6000X2.6400*%
%ADD60O,1.4970X1.8780*%
%ADD61O,1.5000X1.7510*%
%ADD62P,1.8401X8X292.5*%
%ADD63C,0.8000*%
%ADD64C,6.1000*%
G36*
X968529Y568832D02*
Y538988D01*
X834671D01*
Y568832D01*
Y600202D01*
X968529D01*
Y568832D01*
D02*
G37*
%LPC*%
G36*
X895367Y588543D02*
X890370D01*
D01*
X886928D01*
X886493D01*
X890370D01*
X890037Y588515D01*
X889759Y588404D01*
X889537Y588237D01*
X889343Y588071D01*
X889232Y587876D01*
X889121Y587738D01*
X889093Y587627D01*
X889065Y587571D01*
X883041Y569776D01*
X882986Y569609D01*
Y569470D01*
X883013Y569276D01*
X883069Y569137D01*
X883096Y569081D01*
X883263Y568943D01*
X883457Y568859D01*
X883596Y568832D01*
X882986D01*
Y569470D01*
Y568832D01*
D01*
X897338D01*
D01*
X883652D01*
X883791Y568859D01*
X883929Y568887D01*
X884179Y568998D01*
X884290Y569054D01*
X884346Y569081D01*
X884401Y569137D01*
X884429D01*
X884568Y569248D01*
X884679Y569359D01*
X884846Y569581D01*
X884929Y569748D01*
X884957Y569776D01*
Y569803D01*
X886511Y574301D01*
X890315D01*
X890787Y574328D01*
X891259Y574440D01*
X891675Y574578D01*
X892036Y574745D01*
X892341Y574911D01*
X892591Y575050D01*
X892730Y575161D01*
X892785Y575189D01*
X893202Y575550D01*
X893535Y575911D01*
X893813Y576244D01*
X894035Y576605D01*
X894201Y576883D01*
X894312Y577132D01*
X894368Y577271D01*
X894396Y577327D01*
X897172Y585517D01*
X897283Y585989D01*
X897338Y586377D01*
X897311Y586766D01*
X897291Y586877D01*
X897255Y587071D01*
D01*
X897172Y587321D01*
D01*
Y587321D01*
D01*
X897158Y587349D01*
X897089Y587488D01*
X897033Y587627D01*
X897005Y587654D01*
X896756Y587960D01*
X896478Y588182D01*
X896395Y588220D01*
X896172Y588321D01*
X895867Y588432D01*
X895590Y588487D01*
X895367Y588543D01*
D02*
G37*
G36*
X886493D02*
X886067D01*
D01*
X885935D01*
X886067D01*
X885928Y588487D01*
X885678Y588376D01*
X885567Y588321D01*
X885484Y588265D01*
X885456Y588237D01*
X885428Y588210D01*
X885179Y587988D01*
X885040Y587765D01*
X884957Y587627D01*
X884929Y587599D01*
Y587571D01*
X884231Y585517D01*
X881070Y576216D01*
X877239D01*
X877072Y576244D01*
X876933Y576272D01*
X876739Y576383D01*
X876600Y576466D01*
X876572Y576522D01*
X876517Y576633D01*
X876489Y576772D01*
X876461Y577021D01*
X876489Y577132D01*
Y577216D01*
X876517Y577271D01*
Y577299D01*
X880015Y587571D01*
X880070Y587738D01*
Y587876D01*
X880043Y588098D01*
X879987Y588210D01*
X879959Y588265D01*
X879765Y588432D01*
X879598Y588515D01*
X879432Y588543D01*
X880769D01*
X879210D01*
X879071Y588487D01*
X878821Y588376D01*
X878710Y588321D01*
X878627Y588265D01*
X878599Y588237D01*
X878571Y588210D01*
X878321Y587988D01*
X878183Y587765D01*
X878099Y587627D01*
X878072Y587599D01*
Y587571D01*
X875934Y581294D01*
D01*
X874574Y577299D01*
D01*
X874463Y576855D01*
X874407Y576438D01*
X874435Y576050D01*
X874490Y575744D01*
X874546Y575494D01*
X874629Y575328D01*
X874685Y575189D01*
X874712Y575161D01*
X874962Y574884D01*
X875240Y574662D01*
X875545Y574523D01*
X875851Y574412D01*
X876128Y574356D01*
X876378Y574328D01*
X876517Y574301D01*
X875934D01*
D01*
X882986D01*
D01*
X881375D01*
X881708Y574328D01*
X882014Y574440D01*
X882236Y574606D01*
X882402Y574773D01*
X882541Y574939D01*
X882625Y575106D01*
X882652Y575217D01*
X882680Y575245D01*
X886872Y587571D01*
X886928Y587738D01*
Y587876D01*
X886900Y588098D01*
X886844Y588210D01*
X886817Y588265D01*
X886622Y588432D01*
X886456Y588515D01*
X886289Y588543D01*
X886493D01*
D02*
G37*
G36*
X855195Y594012D02*
X839482D01*
X846895D01*
X846562Y593984D01*
X846284Y593873D01*
X846062Y593707D01*
X845895Y593540D01*
X845756Y593346D01*
X845673Y593207D01*
X845645Y593096D01*
X845618Y593040D01*
X839538Y575245D01*
X839482Y575078D01*
Y574911D01*
X839510Y574662D01*
X839593Y574523D01*
X839621Y574467D01*
X839871Y574384D01*
X840037Y574328D01*
X840148Y574301D01*
X839482D01*
X848421D01*
X848727Y574328D01*
X848977Y574440D01*
X849088Y574467D01*
X849171Y574523D01*
X849199Y574551D01*
X849227D01*
X849449Y574773D01*
X849615Y574995D01*
X849699Y575161D01*
X849726Y575217D01*
Y575245D01*
X855806Y593040D01*
X855862Y593207D01*
Y588543D01*
Y593373D01*
X855834Y593595D01*
X855723Y593762D01*
X855584Y593901D01*
X855445Y593956D01*
X855279Y593984D01*
X855195Y594012D01*
D02*
G37*
G36*
X839482Y588293D02*
D01*
D01*
D01*
D02*
G37*
G36*
Y588210D02*
D01*
D01*
D01*
D02*
G37*
G36*
Y588182D02*
D01*
D01*
D01*
D02*
G37*
G36*
X952280Y588543D02*
X952224D01*
X952086Y588515D01*
X951919Y588460D01*
X951614Y588321D01*
X951475Y588210D01*
X951364Y588154D01*
D01*
X951308Y588098D01*
X951281Y588071D01*
X944146Y582019D01*
X946006Y587571D01*
X946061Y587738D01*
Y587876D01*
X946033Y588098D01*
X945978Y588210D01*
X945950Y588265D01*
X945756Y588432D01*
X945589Y588515D01*
X945423Y588543D01*
X945201D01*
X945062Y588487D01*
X944812Y588376D01*
X944701Y588321D01*
X944617Y588265D01*
X944590Y588237D01*
X944562Y588210D01*
X944312Y587988D01*
X944173Y587765D01*
X944090Y587627D01*
X944062Y587599D01*
Y587571D01*
X941897Y581204D01*
X939870Y575245D01*
X939815Y575078D01*
D01*
Y574911D01*
X939842Y574689D01*
X939926Y574551D01*
X939954Y574495D01*
X940203Y574384D01*
X940370Y574328D01*
X940481Y574301D01*
X940509D01*
D01*
D01*
X940814Y574328D01*
X941064Y574440D01*
X941175Y574467D01*
D01*
X941217Y574495D01*
D01*
X941258Y574523D01*
D01*
D01*
D01*
X941286Y574551D01*
D01*
D01*
D01*
D01*
D01*
X941314D01*
D01*
D01*
D01*
X941342Y574578D01*
D01*
X941425Y574662D01*
X941453Y574689D01*
D01*
D01*
D01*
D01*
X941480Y574717D01*
X941508Y574745D01*
D01*
X941536Y574773D01*
D01*
D01*
D01*
D01*
D01*
X941557Y574800D01*
D01*
D01*
X941640Y574911D01*
D01*
D01*
X941661Y574939D01*
X941702Y574995D01*
D01*
D01*
D01*
D01*
X941744Y575078D01*
D01*
D01*
X941786Y575161D01*
D01*
D01*
D01*
X941800Y575189D01*
X941814Y575217D01*
D01*
Y575245D01*
D01*
X943313Y579603D01*
X944978Y581075D01*
X946672Y574773D01*
X946755Y574606D01*
X946839Y574467D01*
X946894Y574412D01*
X946922Y574384D01*
X947061Y574328D01*
X947199Y574301D01*
X941897D01*
D01*
X951364D01*
X947338D01*
X947616Y574328D01*
X947866Y574440D01*
X948060Y574523D01*
X948088Y574551D01*
X948116D01*
X948254Y574689D01*
X948393Y574800D01*
X948560Y575050D01*
X948643Y575217D01*
X948671Y575245D01*
Y575272D01*
X948699Y575744D01*
X946700Y582379D01*
X952558Y587127D01*
X952641Y587155D01*
X952696Y587210D01*
X952807Y587349D01*
X952863Y587488D01*
X952891Y587515D01*
Y587543D01*
X952918Y587682D01*
D01*
X952946Y587821D01*
X952891Y588043D01*
X952880Y588071D01*
X952835Y588182D01*
X952807Y588237D01*
X952724Y588348D01*
X952613Y588404D01*
X952447Y588515D01*
X952280Y588543D01*
D02*
G37*
G36*
X963885D02*
Y588126D01*
X963773Y588293D01*
X963635Y588432D01*
X963468Y588487D01*
X963329Y588515D01*
X963246Y588543D01*
X958388D01*
X957916Y588515D01*
X957444Y588404D01*
X957027Y588237D01*
X956639Y588071D01*
X956333Y587904D01*
X956083Y587738D01*
X955945Y587627D01*
X955917Y587599D01*
X955889D01*
X955500Y587238D01*
X955167Y586877D01*
X954890Y586516D01*
X954668Y586211D01*
X954529Y585933D01*
X954418Y585711D01*
X954362Y585572D01*
X954334Y585517D01*
X951530Y577299D01*
X951419Y576855D01*
X951364Y576438D01*
D01*
D01*
X951392Y576050D01*
X951447Y575744D01*
X951503Y575494D01*
X951586Y575328D01*
X951641Y575189D01*
X951669Y575161D01*
X951919Y574884D01*
X952197Y574662D01*
X952502Y574523D01*
X952807Y574412D01*
X953085Y574356D01*
X953335Y574328D01*
X953474Y574301D01*
X956278D01*
X956777Y574328D01*
X957249Y574440D01*
X957638Y574578D01*
X957999Y574773D01*
X958277Y574939D01*
X958499Y575078D01*
X958610Y575189D01*
X958665Y575217D01*
X958693Y575078D01*
X958721Y574967D01*
X958804Y574800D01*
X958832Y574745D01*
X958860Y574717D01*
X959082Y574523D01*
X959276Y574384D01*
X959443Y574328D01*
X959470Y574301D01*
X959498D01*
X959748Y574273D01*
X951364D01*
X963885D01*
Y588543D01*
D02*
G37*
G36*
X839482Y587904D02*
D01*
D01*
D01*
D02*
G37*
G36*
Y586402D02*
Y586377D01*
D01*
Y586402D01*
D02*
G37*
G36*
Y585572D02*
Y585544D01*
D01*
Y585572D01*
D02*
G37*
G36*
Y577216D02*
Y577132D01*
D01*
Y577216D01*
D02*
G37*
G36*
Y577105D02*
D01*
D01*
D01*
D02*
G37*
G36*
Y576855D02*
D01*
D01*
D01*
D02*
G37*
G36*
Y576577D02*
D01*
D01*
D01*
D02*
G37*
G36*
Y576466D02*
D01*
D01*
D01*
D02*
G37*
G36*
Y576244D02*
D01*
D01*
D01*
D02*
G37*
G36*
Y575744D02*
Y575661D01*
D01*
Y575744D01*
D02*
G37*
G36*
Y575522D02*
D01*
D01*
D01*
D02*
G37*
G36*
Y575161D02*
D01*
D01*
D01*
D02*
G37*
G36*
Y575106D02*
Y575078D01*
D01*
Y575106D01*
D02*
G37*
G36*
X941258Y588543D02*
X937094D01*
X936816Y588515D01*
X936594Y588432D01*
X936372Y588293D01*
X936206Y588154D01*
X936067Y588015D01*
X935984Y587876D01*
X935928Y587793D01*
X935900Y587765D01*
X930903Y578890D01*
X929851Y577021D01*
X928960Y575439D01*
X928876Y575245D01*
X928821Y575078D01*
Y574939D01*
Y574745D01*
X928876Y574606D01*
X928904Y574551D01*
X929099Y574412D01*
X929293Y574328D01*
X929459Y574301D01*
X929515D01*
X929792Y574328D01*
X930042Y574412D01*
X930237Y574523D01*
X930431Y574662D01*
X930542Y574800D01*
X930653Y574911D01*
X930709Y574995D01*
X930736Y575023D01*
X930768Y575078D01*
X937233Y586627D01*
X939593D01*
X935706Y575245D01*
X935650Y575078D01*
Y574911D01*
X935678Y574689D01*
X935761Y574551D01*
X935789Y574495D01*
X936039Y574384D01*
X936206Y574328D01*
X936317Y574301D01*
X936344D01*
X936650Y574328D01*
X936927Y574440D01*
X937011Y574467D01*
X937094Y574523D01*
X937150Y574551D01*
X937177D01*
X937399Y574773D01*
X937538Y574995D01*
X937622Y575161D01*
X937649Y575217D01*
Y575245D01*
X941841Y587571D01*
X941897Y587738D01*
D01*
Y587904D01*
Y588126D01*
D01*
X941878Y588154D01*
D01*
D01*
X941860Y588182D01*
D01*
D01*
X941841Y588210D01*
D01*
X941835Y588220D01*
X941823Y588237D01*
D01*
D01*
D01*
D01*
X941804Y588265D01*
X941786Y588293D01*
D01*
D01*
X941758Y588321D01*
X941730Y588348D01*
D01*
X941675Y588404D01*
D01*
D01*
X941647Y588432D01*
D01*
D01*
D01*
X941480Y588487D01*
X941342Y588515D01*
X941258Y588543D01*
D02*
G37*
G36*
X916467Y593984D02*
X916272D01*
X915828Y593956D01*
X915412Y593873D01*
X915023Y593762D01*
X914662Y593623D01*
X914385Y593484D01*
X914162Y593373D01*
X914024Y593290D01*
X913968Y593262D01*
X913524Y592929D01*
X913163Y592541D01*
X912885Y592180D01*
X912635Y591819D01*
X912469Y591485D01*
X912330Y591236D01*
X912275Y591069D01*
X912247Y591041D01*
Y591014D01*
X910387Y585517D01*
X908332Y579496D01*
D01*
X907583Y577299D01*
D01*
X907472Y576855D01*
X907444Y576438D01*
Y576077D01*
X907499Y575772D01*
X907583Y575522D01*
X907666Y575328D01*
X907722Y575189D01*
X907749Y575161D01*
X907999Y574884D01*
X908277Y574662D01*
X908332Y574636D01*
D01*
X908582Y574523D01*
X908888Y574412D01*
X909165Y574356D01*
X909387Y574328D01*
X909526Y574301D01*
X907444D01*
X901309Y574301D01*
X901780Y574328D01*
X902225Y574440D01*
X902641Y574578D01*
X903002Y574745D01*
X903307Y574884D01*
X903557Y575023D01*
X903696Y575134D01*
X903752Y575161D01*
X904168Y575522D01*
X904501Y575883D01*
X904779Y576216D01*
X905001Y576577D01*
X905167Y576855D01*
X905278Y577105D01*
X905334Y577243D01*
X905362Y577299D01*
X908166Y585517D01*
X908277Y585961D01*
X908332Y586377D01*
X908305Y586738D01*
X908249Y587044D01*
X908191Y587238D01*
D01*
X908166Y587321D01*
Y587321D01*
D01*
X908083Y587488D01*
D01*
X908027Y587627D01*
X907999Y587654D01*
X907749Y587960D01*
X907472Y588182D01*
X907444Y588194D01*
D01*
X907166Y588321D01*
X906861Y588432D01*
X906583Y588487D01*
X906361Y588543D01*
X903418D01*
X902946Y588515D01*
X902475Y588404D01*
X902058Y588237D01*
X901669Y588071D01*
X901364Y587904D01*
X901114Y587738D01*
X900975Y587627D01*
X900948Y587599D01*
X900920D01*
X900531Y587238D01*
X900198Y586877D01*
X899920Y586516D01*
X899698Y586211D01*
X899559Y585933D01*
X899448Y585711D01*
X899393Y585572D01*
X899365Y585517D01*
X897338Y579577D01*
D01*
X897104Y578890D01*
X896561Y577299D01*
X896450Y576855D01*
X896406Y576522D01*
X896395Y576438D01*
X896416Y576133D01*
X896422Y576050D01*
X896478Y575744D01*
X896533Y575494D01*
X896617Y575328D01*
X896672Y575189D01*
X896700Y575161D01*
X896950Y574884D01*
X897227Y574662D01*
X897533Y574523D01*
X897838Y574412D01*
X898116Y574356D01*
X898366Y574328D01*
X898504Y574301D01*
X897338D01*
X918382Y574301D01*
D01*
X912302D01*
X912774Y574328D01*
X913246Y574440D01*
X913663Y574578D01*
X914024Y574745D01*
X914329Y574911D01*
X914579Y575050D01*
X914718Y575161D01*
X914773Y575189D01*
X915190Y575522D01*
X915523Y575883D01*
X915800Y576244D01*
X916022Y576577D01*
X916189Y576855D01*
X916300Y577105D01*
X916356Y577243D01*
X916383Y577299D01*
X919187Y585517D01*
X919298Y585989D01*
X919326Y586377D01*
X919298Y586766D01*
X919243Y587071D01*
X919224Y587127D01*
D01*
X919215Y587155D01*
X919187Y587238D01*
D01*
Y587238D01*
X919160Y587321D01*
D01*
D01*
X919146Y587349D01*
D01*
X919076Y587488D01*
D01*
D01*
X919043Y587571D01*
X919021Y587627D01*
X918993Y587654D01*
X918743Y587960D01*
X918465Y588182D01*
X918382Y588220D01*
X918160Y588321D01*
X917855Y588432D01*
X917577Y588487D01*
X917355Y588543D01*
X915578D01*
X916300Y588682D01*
X916578Y588848D01*
X916800Y589015D01*
X916966Y589126D01*
X916994Y589181D01*
X917022D01*
X917383Y589514D01*
X917660Y589875D01*
X917910Y590236D01*
X918105Y590569D01*
X918243Y590902D01*
X918327Y591152D01*
X918382Y591319D01*
X918410Y591347D01*
Y591375D01*
X918465Y591791D01*
X918438Y592152D01*
X918354Y592485D01*
X918216Y592763D01*
X918077Y593013D01*
X917966Y593179D01*
X917855Y593290D01*
X917827Y593318D01*
X917660Y593540D01*
X917466Y593707D01*
X917188Y593818D01*
X916939Y593901D01*
X916689Y593956D01*
X916467Y593984D01*
D02*
G37*
G36*
X876727Y588543D02*
X855862D01*
X859443D01*
X858971Y588515D01*
X858499Y588404D01*
X858083Y588237D01*
X857694Y588071D01*
X857389Y587904D01*
X857139Y587738D01*
X857000Y587627D01*
X856972Y587599D01*
X856945D01*
X856556Y587238D01*
X856223Y586877D01*
X855945Y586516D01*
X855862Y586402D01*
X855784Y586294D01*
X855723Y586211D01*
X855584Y585933D01*
X855473Y585711D01*
X855418Y585572D01*
X855390Y585517D01*
X852586Y577299D01*
X852475Y576855D01*
X852438Y576577D01*
X852419Y576438D01*
D01*
X852447Y576050D01*
X852503Y575744D01*
X852558Y575494D01*
X852641Y575328D01*
X852697Y575189D01*
X852725Y575161D01*
X852974Y574884D01*
X853252Y574662D01*
X853558Y574523D01*
X853863Y574412D01*
X854140Y574356D01*
X854390Y574328D01*
X854390D01*
X854529Y574301D01*
X857333D01*
X857805Y574328D01*
X858249Y574440D01*
X858666Y574578D01*
X859027Y574745D01*
X859332Y574884D01*
X859582Y575023D01*
X859721Y575134D01*
X859776Y575161D01*
X860193Y575522D01*
X860526Y575883D01*
X860804Y576216D01*
X861026Y576577D01*
X861192Y576855D01*
X861303Y577105D01*
X861359Y577243D01*
X861386Y577299D01*
X864190Y585517D01*
X864302Y585961D01*
X864357Y586377D01*
X864329Y586738D01*
X864274Y587044D01*
X864215Y587238D01*
D01*
X864190Y587321D01*
X864107Y587488D01*
D01*
X864052Y587627D01*
X864024Y587654D01*
X863956Y587738D01*
X863774Y587960D01*
X863496Y588182D01*
X863191Y588321D01*
X862886Y588432D01*
X862858Y588437D01*
X862608Y588487D01*
X862386Y588543D01*
X864357D01*
X871131D01*
X870853Y588515D01*
X870631Y588432D01*
X870409Y588293D01*
X870243Y588154D01*
X870104Y588015D01*
X870021Y587876D01*
X869965Y587793D01*
X869937Y587765D01*
X862997Y575439D01*
X862913Y575245D01*
X862858Y575078D01*
Y574939D01*
Y574745D01*
X862913Y574606D01*
X862941Y574551D01*
X863136Y574412D01*
X863330Y574328D01*
X863496Y574301D01*
X863496D01*
X863022D01*
X863552D01*
X863829Y574328D01*
X864079Y574412D01*
X864274Y574523D01*
X864357Y574582D01*
D01*
X864468Y574662D01*
X864579Y574800D01*
X864690Y574911D01*
X864746Y574995D01*
X864773Y575023D01*
X871270Y586627D01*
X873630D01*
X869743Y575245D01*
X869687Y575078D01*
Y574911D01*
X869715Y574689D01*
X869798Y574551D01*
X869826Y574495D01*
X870076Y574384D01*
X870243Y574328D01*
X870354Y574301D01*
X870381D01*
X870687Y574328D01*
X870964Y574440D01*
X871048Y574467D01*
X871131Y574523D01*
X871187Y574551D01*
X871214D01*
X871436Y574773D01*
X871575Y574995D01*
X871658Y575161D01*
X871686Y575217D01*
Y575245D01*
X875878Y587571D01*
X875897Y587627D01*
X875934Y587738D01*
Y587904D01*
Y588126D01*
D01*
X875915Y588154D01*
D01*
X875878Y588210D01*
X875823Y588293D01*
D01*
D01*
X875795Y588321D01*
D01*
D01*
X875740Y588376D01*
X875684Y588432D01*
D01*
D01*
X875517Y588487D01*
X875379Y588515D01*
X875295Y588543D01*
D01*
D01*
X876727D01*
D02*
G37*
G36*
X870354Y574301D02*
X865781D01*
X870354D01*
D01*
D02*
G37*
G36*
X854529D02*
X854462D01*
X854529D01*
D01*
D02*
G37*
G36*
X930265Y588543D02*
X925406D01*
X924934Y588515D01*
X924462Y588404D01*
X924046Y588237D01*
X923657Y588071D01*
X923352Y587904D01*
X923102Y587738D01*
X922963Y587627D01*
X922935Y587599D01*
X922907D01*
X922519Y587238D01*
X922186Y586877D01*
X921908Y586516D01*
X921686Y586211D01*
X921547Y585933D01*
X921436Y585711D01*
X921381Y585572D01*
X921353Y585517D01*
X919326Y579577D01*
D01*
X918549Y577299D01*
D01*
X918438Y576855D01*
X918393Y576522D01*
X918382Y576438D01*
D01*
X918396Y576244D01*
X918410Y576050D01*
X918465Y575744D01*
X918521Y575494D01*
X918604Y575328D01*
X918660Y575189D01*
X918688Y575161D01*
X918938Y574884D01*
X919215Y574662D01*
X919520Y574523D01*
X919826Y574412D01*
X920104Y574356D01*
X920353Y574328D01*
X920492Y574301D01*
X923296D01*
X923796Y574328D01*
X924268Y574440D01*
X924657Y574578D01*
X925017Y574773D01*
X925295Y574939D01*
X925517Y575078D01*
X925628Y575189D01*
X925684Y575217D01*
X925712Y575078D01*
X925739Y574967D01*
X925823Y574800D01*
X925850Y574745D01*
X925878Y574717D01*
X926100Y574523D01*
X926294Y574384D01*
X926461Y574328D01*
X926489Y574301D01*
X926517D01*
X926766Y574273D01*
X918382D01*
X930903D01*
X926766D01*
X927100Y574328D01*
X927349Y574412D01*
X927516Y574495D01*
X927544Y574551D01*
X927572D01*
X927821Y574800D01*
X927960Y575023D01*
X928044Y575189D01*
X928071Y575217D01*
Y575245D01*
X928127Y575467D01*
Y575661D01*
X928071Y575828D01*
X927988Y575939D01*
X927905Y576022D01*
X927794Y576077D01*
X927738Y576133D01*
X927710D01*
X927516Y576272D01*
X927405Y576411D01*
X927349Y576522D01*
X927322Y576549D01*
X927294Y576855D01*
X927322Y577077D01*
X927349Y577243D01*
X927377Y577271D01*
Y577299D01*
X928821Y581572D01*
X930153Y585517D01*
D01*
D01*
X930172Y585572D01*
D01*
X930219Y585711D01*
X930613Y586877D01*
D01*
X930679Y587071D01*
X930735Y587238D01*
D01*
X930763Y587321D01*
X930819Y587488D01*
D01*
X930847Y587571D01*
X930903Y587738D01*
Y587904D01*
Y588126D01*
X930792Y588293D01*
X930653Y588432D01*
X930487Y588487D01*
X930348Y588515D01*
X930265Y588543D01*
D02*
G37*
G36*
X887761Y559420D02*
X881145D01*
X887011D01*
X886733Y559365D01*
X886511Y559281D01*
X886372Y559198D01*
X886345Y559170D01*
X886317D01*
X886123Y559004D01*
X885956Y558837D01*
X885873Y558726D01*
X885845Y558671D01*
X880098Y549065D01*
X880903Y558698D01*
X880875Y558837D01*
X880848Y558976D01*
X880737Y559142D01*
X880653Y559226D01*
X880626Y559254D01*
X880487Y559365D01*
X880348Y559392D01*
X880265Y559420D01*
X878099D01*
X880043D01*
X879904Y559365D01*
X879654Y559254D01*
X879543Y559198D01*
X879460Y559142D01*
X879432Y559115D01*
X879404Y559087D01*
X879154Y558837D01*
X879016Y558643D01*
X878932Y558504D01*
X878904Y558476D01*
Y558448D01*
X878849Y558199D01*
X878099Y545956D01*
X878127Y545678D01*
X878183Y545484D01*
X878238Y545373D01*
X878266Y545345D01*
X878432Y545261D01*
X878599Y545206D01*
X878710Y545178D01*
X878099D01*
X878766D01*
X879016Y545206D01*
X879265Y545289D01*
X879460Y545428D01*
X879654Y545567D01*
X879793Y545706D01*
X879904Y545844D01*
X879959Y545928D01*
X879987Y545956D01*
X887539Y558115D01*
X887594Y558199D01*
X887650Y558337D01*
X887705Y558421D01*
Y558476D01*
X887733Y558615D01*
X887761Y558754D01*
X887705Y558976D01*
X887650Y559087D01*
X887622Y559142D01*
X887455Y559309D01*
X887233Y559392D01*
X887066Y559420D01*
X887761D01*
D02*
G37*
G36*
X907555Y547760D02*
X907472D01*
X907222Y547732D01*
X907000Y547677D01*
X906805Y547593D01*
X906639Y547510D01*
X906500Y547427D01*
X906389Y547344D01*
X906333Y547288D01*
X906306Y547260D01*
X906139Y547094D01*
X906028Y546927D01*
X905917Y546788D01*
X905834Y546677D01*
X905751Y546511D01*
X905723Y546483D01*
Y546455D01*
X905667Y546261D01*
Y546289D01*
Y545178D01*
X908416Y545178D01*
D01*
X906583Y545178D01*
X906805Y545206D01*
X907028Y545234D01*
X907222Y545317D01*
X907388Y545400D01*
X907527Y545456D01*
X907638Y545539D01*
X907694Y545567D01*
X907722Y545595D01*
X907888Y545761D01*
X908027Y545900D01*
X908138Y546039D01*
X908221Y546178D01*
X908305Y546289D01*
X908332Y546372D01*
X908360Y546427D01*
Y546455D01*
X908416Y546650D01*
Y546955D01*
Y546816D01*
X908360Y547094D01*
X908332Y547205D01*
X908305Y547288D01*
X908249Y547316D01*
Y547344D01*
X908138Y547482D01*
X907999Y547593D01*
X907888Y547649D01*
X907749Y547705D01*
X907638Y547732D01*
X907555Y547760D01*
D02*
G37*
G36*
X922047Y564889D02*
X920492D01*
X920159Y564862D01*
X919826Y564834D01*
X919160Y564695D01*
X918577Y564473D01*
X918021Y564223D01*
X917577Y563973D01*
X917383Y563862D01*
X917244Y563779D01*
X917105Y563668D01*
X917022Y563612D01*
X916966Y563585D01*
X916939Y563557D01*
X916356Y563057D01*
X915856Y562530D01*
X915467Y562030D01*
X915134Y561530D01*
X914912Y561114D01*
X914829Y560947D01*
X914745Y560808D01*
X914690Y560670D01*
X914662Y560586D01*
X914634Y560531D01*
Y560503D01*
X910887Y549537D01*
X910803Y549204D01*
X910720Y548871D01*
X910692Y548565D01*
X910664Y548288D01*
X910720Y547760D01*
X910803Y547288D01*
X910942Y546927D01*
X911053Y546650D01*
X911109Y546566D01*
X911164Y546483D01*
X911192Y546455D01*
Y546427D01*
X911386Y546205D01*
X911581Y546011D01*
X911997Y545706D01*
X912413Y545484D01*
X912830Y545345D01*
X913219Y545234D01*
X913524Y545206D01*
X913635Y545178D01*
X910664D01*
D01*
X925045D01*
X915162D01*
X915523Y545206D01*
X915856Y545234D01*
X916494Y545373D01*
X917105Y545595D01*
X917660Y545817D01*
X918105Y546039D01*
X918299Y546150D01*
X918438Y546261D01*
X918577Y546344D01*
X918660Y546400D01*
X918715Y546455D01*
X918743D01*
X919326Y546955D01*
X919826Y547482D01*
X920242Y548010D01*
X920548Y548482D01*
X920798Y548898D01*
X920881Y549093D01*
X920964Y549231D01*
X921020Y549370D01*
X921047Y549454D01*
X921075Y549509D01*
Y549537D01*
X924823Y560503D01*
X924934Y560836D01*
X924990Y561141D01*
X925017Y561447D01*
X925045Y561752D01*
X925017Y562280D01*
X924906Y562724D01*
X924795Y563085D01*
X924684Y563362D01*
X924573Y563529D01*
X924546Y563557D01*
Y563585D01*
X924379Y563807D01*
X924185Y564029D01*
X923768Y564334D01*
X923324Y564584D01*
X922880Y564723D01*
X922491Y564834D01*
X922186Y564862D01*
X922047Y564889D01*
D02*
G37*
G36*
X904057Y564889D02*
X903974D01*
X903391Y564695D01*
X903141Y564501D01*
X902946Y564306D01*
X902835Y564140D01*
X902808Y564084D01*
Y564057D01*
X895423Y550397D01*
X895340Y550231D01*
X895312Y550092D01*
X895284Y549953D01*
X895312Y549731D01*
X895340Y549592D01*
X895367Y549537D01*
X895534Y549398D01*
X895756Y549315D01*
X895923Y549287D01*
X900503D01*
X899421Y546122D01*
X899365Y545956D01*
Y545789D01*
X899393Y545539D01*
X899476Y545400D01*
X899504Y545345D01*
X899754Y545261D01*
X899920Y545206D01*
X900031Y545178D01*
X895284D01*
D01*
X905556D01*
Y550481D01*
X905528Y550703D01*
X905445Y550842D01*
X905417Y550897D01*
X905334Y551008D01*
X905251Y551064D01*
X905056Y551175D01*
X904918Y551203D01*
X903085D01*
X904168Y554340D01*
X904223Y554506D01*
Y554645D01*
X904196Y554867D01*
X904112Y554978D01*
X904085Y555034D01*
X903890Y555200D01*
X903724Y555284D01*
X903557Y555311D01*
X903363D01*
X903224Y555256D01*
X902974Y555145D01*
X902780Y555034D01*
X902752Y555006D01*
X902724Y554978D01*
X902475Y554756D01*
X902336Y554534D01*
X902252Y554395D01*
X902225Y554367D01*
Y554340D01*
X901142Y551203D01*
X897755D01*
X904612Y563751D01*
X904696Y563945D01*
X904723Y564084D01*
X904751Y564223D01*
X904696Y564417D01*
X904640Y564556D01*
X904612Y564612D01*
X904418Y564778D01*
X904223Y564862D01*
X904057Y564889D01*
D02*
G37*
%LPD*%
G36*
X894812Y586572D02*
X895034Y586460D01*
X895145Y586349D01*
X895173Y586322D01*
Y586294D01*
X895229Y586183D01*
X895284Y586044D01*
X895312Y585794D01*
X895284Y585711D01*
Y585628D01*
X895256Y585572D01*
Y585544D01*
X892452Y577299D01*
X892286Y576994D01*
X892092Y576744D01*
X891925Y576577D01*
X891869Y576549D01*
X891842Y576522D01*
X891675Y576411D01*
X891508Y576355D01*
X891259Y576244D01*
X891148D01*
X891064Y576216D01*
X887150D01*
X890703Y586627D01*
X894701D01*
X894812Y586572D01*
D02*
G37*
G36*
X847783Y575245D02*
X847728Y575078D01*
Y574911D01*
X847755Y574662D01*
X847839Y574523D01*
X847866Y574467D01*
X848116Y574384D01*
X848283Y574328D01*
X848394Y574301D01*
X840176D01*
X840481Y574328D01*
X840731Y574440D01*
X840842Y574467D01*
X840926Y574523D01*
X840954Y574551D01*
X840981D01*
X841203Y574773D01*
X841370Y574995D01*
X841453Y575161D01*
X841481Y575217D01*
Y575245D01*
X847228Y592096D01*
X853530D01*
X847783Y575245D01*
D02*
G37*
G36*
X951364Y576438D02*
D01*
D01*
D01*
D02*
G37*
G36*
X958388Y577299D02*
X958332Y577132D01*
X958249Y576966D01*
X958054Y576744D01*
X957888Y576577D01*
X957832Y576549D01*
X957805Y576522D01*
X957638Y576411D01*
X957499Y576355D01*
X957222Y576244D01*
X957111D01*
X957027Y576216D01*
X954195D01*
X954029Y576244D01*
X953890Y576272D01*
X953696Y576383D01*
X953557Y576466D01*
X953529Y576522D01*
X953474Y576633D01*
X953446Y576772D01*
X953418Y577021D01*
X953446Y577132D01*
Y577216D01*
X953474Y577271D01*
Y577299D01*
X956278Y585517D01*
X956444Y585850D01*
X956639Y586072D01*
X956805Y586239D01*
X956833Y586294D01*
X956861D01*
X957027Y586405D01*
X957166Y586488D01*
X957444Y586599D01*
X957555D01*
X957638Y586627D01*
X961580D01*
X958388Y577299D01*
D02*
G37*
G36*
X963885Y574273D02*
X959748D01*
X960081Y574328D01*
X960331Y574412D01*
X960498Y574495D01*
X960525Y574551D01*
X960553D01*
X960803Y574800D01*
X960942Y575023D01*
X961025Y575189D01*
X961053Y575217D01*
Y575245D01*
X961108Y575467D01*
Y575661D01*
X961053Y575828D01*
X960969Y575939D01*
X960886Y576022D01*
X960775Y576077D01*
X960720Y576133D01*
X960692D01*
X960498Y576272D01*
X960387Y576411D01*
X960331Y576522D01*
X960303Y576549D01*
X960275Y576855D01*
X960303Y577077D01*
X960331Y577243D01*
X960359Y577271D01*
Y577299D01*
X963829Y587571D01*
X963885Y587738D01*
Y574273D01*
D02*
G37*
G36*
X915939Y592041D02*
X916133Y591958D01*
X916272Y591846D01*
X916300Y591819D01*
Y591791D01*
X916356Y591680D01*
X916411Y591569D01*
Y591319D01*
Y591208D01*
X916383Y591125D01*
X916356Y591069D01*
Y591041D01*
X916300Y590875D01*
X916189Y590708D01*
X915967Y590431D01*
X915856Y590320D01*
X915745Y590236D01*
X915689Y590209D01*
X915662Y590181D01*
X915328Y589959D01*
X915023Y589737D01*
X914773Y589570D01*
X914551Y589459D01*
X914385Y589348D01*
X914274Y589265D01*
X914190Y589237D01*
X914162Y589209D01*
X913357Y588543D01*
X914190Y591014D01*
X914274Y591208D01*
X914357Y591375D01*
X914440Y591513D01*
X914551Y591624D01*
X914690Y591735D01*
X914718Y591791D01*
X914745D01*
X914912Y591902D01*
X915079Y591958D01*
X915356Y592068D01*
X915467D01*
X915551Y592096D01*
X915800D01*
X915939Y592041D01*
D02*
G37*
G36*
X916800Y586544D02*
X916994Y586433D01*
X917133Y586322D01*
X917161Y586294D01*
Y586266D01*
X917216Y586155D01*
X917272Y586016D01*
Y585766D01*
Y585683D01*
X917244Y585600D01*
X917216Y585544D01*
Y585517D01*
X914412Y577299D01*
X914357Y577132D01*
X914274Y576994D01*
X914079Y576744D01*
X913913Y576577D01*
X913857Y576549D01*
X913829Y576522D01*
X913663Y576411D01*
X913524Y576355D01*
X913219Y576244D01*
X913107D01*
X913024Y576216D01*
X910248D01*
X910081Y576244D01*
X909943Y576272D01*
X909721Y576383D01*
X909609Y576466D01*
X909554Y576522D01*
X909498Y576633D01*
X909471Y576772D01*
Y577021D01*
X909498Y577132D01*
Y577216D01*
X909526Y577271D01*
Y577299D01*
X912330Y585517D01*
X912469Y585822D01*
X912663Y586072D01*
X912830Y586211D01*
X912858Y586266D01*
X912885D01*
X913052Y586377D01*
X913219Y586461D01*
X913496Y586572D01*
X913607D01*
X913690Y586599D01*
X916661D01*
X916800Y586544D01*
D02*
G37*
G36*
X905806Y586572D02*
X906000Y586460D01*
X906139Y586349D01*
X906167Y586322D01*
Y586294D01*
X906222Y586155D01*
X906278Y586044D01*
Y585794D01*
Y585683D01*
X906250Y585600D01*
X906222Y585544D01*
Y585517D01*
X903418Y577299D01*
X903363Y577132D01*
X903280Y576966D01*
X903085Y576744D01*
X902919Y576577D01*
X902863Y576549D01*
X902835Y576522D01*
X902669Y576411D01*
X902530Y576355D01*
X902252Y576244D01*
X902141D01*
X902058Y576216D01*
X899226D01*
X899060Y576244D01*
X898921Y576272D01*
X898727Y576383D01*
X898588Y576466D01*
X898560Y576522D01*
X898504Y576633D01*
X898477Y576772D01*
X898449Y577021D01*
X898477Y577132D01*
Y577216D01*
X898504Y577271D01*
Y577299D01*
X901309Y585517D01*
X901475Y585850D01*
X901669Y586072D01*
X901836Y586239D01*
X901864Y586294D01*
X901891D01*
X902058Y586405D01*
X902197Y586488D01*
X902475Y586599D01*
X902586D01*
X902669Y586627D01*
X905667D01*
X905806Y586572D01*
D02*
G37*
G36*
X861831D02*
X862025Y586460D01*
X862164Y586349D01*
X862192Y586322D01*
Y586294D01*
X862247Y586155D01*
X862303Y586044D01*
Y585794D01*
Y585683D01*
X862275Y585600D01*
X862247Y585544D01*
Y585517D01*
X859443Y577299D01*
X859388Y577132D01*
X859304Y576966D01*
X859110Y576744D01*
X858943Y576577D01*
X858888Y576549D01*
X858860Y576522D01*
X858693Y576411D01*
X858555Y576355D01*
X858277Y576244D01*
X858166D01*
X858083Y576216D01*
X855251D01*
X855084Y576244D01*
X854946Y576272D01*
X854751Y576383D01*
X854613Y576466D01*
X854585Y576522D01*
X854529Y576633D01*
X854501Y576772D01*
X854474Y577021D01*
X854501Y577132D01*
Y577216D01*
D01*
X854529Y577271D01*
Y577299D01*
X855862Y581204D01*
X857333Y585517D01*
X857500Y585850D01*
X857694Y586072D01*
X857861Y586239D01*
X857888Y586294D01*
X857916D01*
X858083Y586405D01*
X858222Y586488D01*
X858499Y586599D01*
X858610D01*
X858693Y586627D01*
X861692D01*
X861831Y586572D01*
D02*
G37*
G36*
X925406Y577299D02*
X925351Y577132D01*
X925267Y576966D01*
X925073Y576744D01*
X924906Y576577D01*
X924851Y576549D01*
X924823Y576522D01*
X924657Y576411D01*
X924518Y576355D01*
X924240Y576244D01*
X924129D01*
X924046Y576216D01*
X921214D01*
X921047Y576244D01*
X920909Y576272D01*
X920714Y576383D01*
X920575Y576466D01*
X920548Y576522D01*
X920492Y576633D01*
X920464Y576772D01*
X920437Y577021D01*
X920464Y577132D01*
Y577216D01*
X920492Y577271D01*
Y577299D01*
X923296Y585517D01*
X923463Y585850D01*
X923657Y586072D01*
X923824Y586239D01*
X923851Y586294D01*
X923879D01*
X924046Y586405D01*
X924185Y586488D01*
X924462Y586599D01*
X924573D01*
X924657Y586627D01*
X928599D01*
X925406Y577299D01*
D02*
G37*
G36*
X905695Y545678D02*
X905723Y545595D01*
X905751Y545539D01*
Y545511D01*
X905862Y545400D01*
X905973Y545317D01*
X906250Y545234D01*
X906389Y545206D01*
X906472Y545178D01*
X905667D01*
Y545789D01*
X905695Y545678D01*
D02*
G37*
G36*
X921575Y562946D02*
X921880Y562863D01*
X922130Y562724D01*
X922352Y562613D01*
X922519Y562474D01*
X922630Y562335D01*
X922685Y562252D01*
X922713Y562224D01*
X922852Y561947D01*
X922963Y561641D01*
X922991Y561363D01*
Y561086D01*
X922963Y560864D01*
X922935Y560670D01*
X922907Y560558D01*
X922880Y560503D01*
X919132Y549537D01*
X918965Y549148D01*
X918771Y548815D01*
X918549Y548510D01*
X918327Y548260D01*
X918132Y548065D01*
X917966Y547927D01*
X917855Y547816D01*
X917799Y547788D01*
X917438Y547566D01*
X917077Y547399D01*
X916744Y547260D01*
X916439Y547177D01*
X916189Y547122D01*
X915995Y547094D01*
X914440D01*
X914107Y547122D01*
X913801Y547205D01*
X913552Y547316D01*
X913329Y547455D01*
X913191Y547593D01*
X913052Y547705D01*
X912996Y547788D01*
X912969Y547816D01*
X912830Y548093D01*
X912747Y548399D01*
X912719Y548676D01*
Y548954D01*
X912747Y549176D01*
X912774Y549370D01*
X912830Y549481D01*
Y549537D01*
X916578Y560503D01*
X916717Y560864D01*
X916911Y561197D01*
X917133Y561502D01*
X917355Y561752D01*
X917549Y561974D01*
X917716Y562113D01*
X917855Y562224D01*
X917883Y562252D01*
X918243Y562502D01*
X918604Y562668D01*
X918938Y562807D01*
X919243Y562891D01*
X919493Y562946D01*
X919687Y562974D01*
X921214D01*
X921575Y562946D01*
D02*
G37*
G36*
X905556Y545178D02*
X900059D01*
X900365Y545206D01*
X900614Y545317D01*
X900725Y545345D01*
X900809Y545400D01*
X900837Y545428D01*
X900864D01*
X901086Y545650D01*
X901253Y545872D01*
X901336Y546039D01*
X901364Y546094D01*
Y546122D01*
X902447Y549287D01*
X904196D01*
X904390Y549315D01*
X904529Y549342D01*
X904807Y549454D01*
X904918Y549509D01*
X905001Y549537D01*
X905029Y549592D01*
X905056D01*
X905278Y549814D01*
X905417Y550037D01*
X905501Y550175D01*
X905528Y550203D01*
Y550231D01*
X905556Y550370D01*
Y545178D01*
D02*
G37*
D23*
X293780Y657176D02*
D03*
D24*
X300280D02*
D03*
X306780D02*
D03*
X313280D02*
D03*
Y699184D02*
D03*
X306780D02*
D03*
X300280D02*
D03*
X293780D02*
D03*
D29*
X551860Y563450D02*
D03*
Y604950D02*
D03*
X573360Y563450D02*
D03*
Y604950D02*
D03*
X645840Y563450D02*
D03*
Y604950D02*
D03*
X667340Y563450D02*
D03*
Y604950D02*
D03*
X598850Y563450D02*
D03*
Y604950D02*
D03*
X620350Y563450D02*
D03*
Y604950D02*
D03*
D33*
X364580Y1032660D02*
D03*
Y1026160D02*
D03*
Y1019660D02*
D03*
X344080D02*
D03*
Y1026160D02*
D03*
Y1032660D02*
D03*
X364580Y999640D02*
D03*
Y993140D02*
D03*
Y986640D02*
D03*
X344080D02*
D03*
Y993140D02*
D03*
Y999640D02*
D03*
D34*
X311270Y1024890D02*
D03*
X326270D02*
D03*
X311270Y991870D02*
D03*
X326270D02*
D03*
X374770Y1042670D02*
D03*
X389770D02*
D03*
X322460Y638810D02*
D03*
X307460D02*
D03*
X354210Y704850D02*
D03*
X339210D02*
D03*
X365880D02*
D03*
X380880D02*
D03*
X326270Y1055370D02*
D03*
X311270D02*
D03*
X326270Y1068070D02*
D03*
X311270D02*
D03*
X326270Y976630D02*
D03*
X311270D02*
D03*
X374770Y995680D02*
D03*
X389770D02*
D03*
X487560Y1038860D02*
D03*
X472560D02*
D03*
X335160Y1167130D02*
D03*
X320160D02*
D03*
X354450Y1137920D02*
D03*
X369450D02*
D03*
X311270Y1080770D02*
D03*
X326270D02*
D03*
X335160Y1182370D02*
D03*
X320160D02*
D03*
X514230Y1019810D02*
D03*
X499230D02*
D03*
X487560D02*
D03*
X472560D02*
D03*
X514230Y1038860D02*
D03*
X499230D02*
D03*
X610990Y844550D02*
D03*
X625990D02*
D03*
X551300Y894080D02*
D03*
X566300D02*
D03*
X431680Y723900D02*
D03*
X416680D02*
D03*
X570110Y694690D02*
D03*
X555110D02*
D03*
X604640Y763270D02*
D03*
X619640D02*
D03*
X604640Y787400D02*
D03*
X619640D02*
D03*
X612260Y828040D02*
D03*
X627260D02*
D03*
X486530Y1127760D02*
D03*
X501530D02*
D03*
X485260Y1097280D02*
D03*
X500260D02*
D03*
X454780Y1127760D02*
D03*
X469780D02*
D03*
X454780Y1097280D02*
D03*
X469780D02*
D03*
D35*
X605790Y720210D02*
D03*
Y735210D02*
D03*
X619760Y735210D02*
D03*
Y720210D02*
D03*
X633730Y735210D02*
D03*
Y720210D02*
D03*
X326390Y684650D02*
D03*
Y699650D02*
D03*
Y672980D02*
D03*
Y657980D02*
D03*
X378460Y650360D02*
D03*
Y665360D02*
D03*
X668020Y633610D02*
D03*
Y618610D02*
D03*
X574040Y633610D02*
D03*
Y618610D02*
D03*
X306070Y864990D02*
D03*
Y879990D02*
D03*
Y777360D02*
D03*
Y792360D02*
D03*
X304800Y1182250D02*
D03*
Y1167250D02*
D03*
X505460Y610990D02*
D03*
Y625990D02*
D03*
X518160Y610990D02*
D03*
Y625990D02*
D03*
X530860Y610990D02*
D03*
Y625990D02*
D03*
X551180Y633610D02*
D03*
Y618610D02*
D03*
X621030Y633610D02*
D03*
Y618610D02*
D03*
X306070Y849510D02*
D03*
Y834510D02*
D03*
Y807840D02*
D03*
Y822840D02*
D03*
X300990Y716400D02*
D03*
Y731400D02*
D03*
X645160Y633610D02*
D03*
Y618610D02*
D03*
X598170Y633610D02*
D03*
Y618610D02*
D03*
D36*
X549270Y721560D02*
D03*
X544270D02*
D03*
X569270Y873560D02*
D03*
X564270D02*
D03*
X559270D02*
D03*
X554270D02*
D03*
X549270D02*
D03*
X544270D02*
D03*
X539270D02*
D03*
X534270D02*
D03*
X529270D02*
D03*
X524270D02*
D03*
X519270D02*
D03*
X514270D02*
D03*
X509270D02*
D03*
X504270D02*
D03*
X499270D02*
D03*
X494270D02*
D03*
X489270D02*
D03*
X484270D02*
D03*
X479270D02*
D03*
X474270D02*
D03*
X469270D02*
D03*
X464270D02*
D03*
X459270D02*
D03*
X454270D02*
D03*
X449270D02*
D03*
Y721560D02*
D03*
X454270D02*
D03*
X459270D02*
D03*
X464270D02*
D03*
X469270D02*
D03*
X474270D02*
D03*
X479270D02*
D03*
X484270D02*
D03*
X489270D02*
D03*
X494270D02*
D03*
X499270D02*
D03*
X504270D02*
D03*
X509270D02*
D03*
X514270D02*
D03*
X519270D02*
D03*
X524270D02*
D03*
X529270D02*
D03*
X534270D02*
D03*
X539270D02*
D03*
X554270D02*
D03*
X559270D02*
D03*
X564270D02*
D03*
X569270D02*
D03*
D37*
X344830Y690180D02*
D03*
X354330D02*
D03*
X363830D02*
D03*
Y666180D02*
D03*
X354330D02*
D03*
X344830D02*
D03*
D38*
X425450Y872490D02*
D03*
X402590D02*
D03*
X551180Y650240D02*
D03*
X574040D02*
D03*
X645160D02*
D03*
X668020D02*
D03*
X598170D02*
D03*
X621030D02*
D03*
X449580Y895350D02*
D03*
X426720D02*
D03*
X614680Y861060D02*
D03*
X637540D02*
D03*
D39*
X332740Y722910D02*
D03*
Y757910D02*
D03*
Y846810D02*
D03*
Y811810D02*
D03*
D40*
X367030Y1122680D02*
D03*
Y1099820D02*
D03*
X401320Y722630D02*
D03*
Y745490D02*
D03*
D41*
X346550Y1137580D02*
D03*
X341550D02*
D03*
X336550D02*
D03*
X331550D02*
D03*
X326550D02*
D03*
X346550Y1095080D02*
D03*
X341550D02*
D03*
X336550D02*
D03*
X331550D02*
D03*
X326550D02*
D03*
D42*
X576580Y1074720D02*
D03*
Y1175720D02*
D03*
D43*
X505795Y593450D02*
D03*
X518295D02*
D03*
Y574950D02*
D03*
X505795D02*
D03*
D44*
X585270Y737560D02*
D03*
Y742560D02*
D03*
Y747560D02*
D03*
Y752560D02*
D03*
Y757560D02*
D03*
Y762560D02*
D03*
Y767560D02*
D03*
Y772560D02*
D03*
Y777560D02*
D03*
Y782560D02*
D03*
Y787560D02*
D03*
Y792560D02*
D03*
Y797560D02*
D03*
Y802560D02*
D03*
Y807560D02*
D03*
Y812560D02*
D03*
Y817560D02*
D03*
Y822560D02*
D03*
Y827560D02*
D03*
Y832560D02*
D03*
Y837560D02*
D03*
Y842560D02*
D03*
Y847560D02*
D03*
Y852560D02*
D03*
Y857560D02*
D03*
X433270D02*
D03*
Y852560D02*
D03*
Y847560D02*
D03*
Y842560D02*
D03*
Y837560D02*
D03*
Y832560D02*
D03*
Y827560D02*
D03*
Y822560D02*
D03*
Y817560D02*
D03*
Y812560D02*
D03*
Y807560D02*
D03*
Y802560D02*
D03*
Y797560D02*
D03*
Y792560D02*
D03*
Y787560D02*
D03*
Y782560D02*
D03*
Y777560D02*
D03*
Y772560D02*
D03*
Y767560D02*
D03*
Y762560D02*
D03*
Y757560D02*
D03*
Y752560D02*
D03*
Y747560D02*
D03*
Y742560D02*
D03*
Y737560D02*
D03*
D45*
X409220Y924560D02*
D03*
X444220D02*
D03*
X622020Y694690D02*
D03*
X587020D02*
D03*
D46*
X440688Y1065530D02*
D03*
Y1127760D02*
D03*
Y1097280D02*
D03*
D47*
X711200Y660400D02*
D03*
Y711200D02*
D03*
Y736600D02*
D03*
Y762000D02*
D03*
Y787400D02*
D03*
Y812800D02*
D03*
Y838200D02*
D03*
Y863600D02*
D03*
Y889000D02*
D03*
X736600Y1117600D02*
D03*
X711200D02*
D03*
X685800D02*
D03*
X660400D02*
D03*
Y1092200D02*
D03*
X685800D02*
D03*
X711200D02*
D03*
X736600D02*
D03*
Y965200D02*
D03*
Y990600D02*
D03*
Y1016000D02*
D03*
Y1041400D02*
D03*
Y1066800D02*
D03*
X711200Y914400D02*
D03*
X685800D02*
D03*
X660400D02*
D03*
X635000D02*
D03*
X609600D02*
D03*
Y965200D02*
D03*
Y939800D02*
D03*
X635000D02*
D03*
Y965200D02*
D03*
Y990600D02*
D03*
Y1041400D02*
D03*
Y1016000D02*
D03*
X711200Y939800D02*
D03*
X685800D02*
D03*
X660400D02*
D03*
X685800Y965200D02*
D03*
X660400D02*
D03*
Y990600D02*
D03*
X685800D02*
D03*
Y1016000D02*
D03*
X660400D02*
D03*
X711200Y1066800D02*
D03*
X685800D02*
D03*
X660400D02*
D03*
Y1041400D02*
D03*
X685800D02*
D03*
X711200D02*
D03*
Y1016000D02*
D03*
Y990600D02*
D03*
Y965200D02*
D03*
D48*
X952400Y1130000D02*
D03*
X977800D02*
D03*
X850800D02*
D03*
X876200D02*
D03*
X952400Y900000D02*
D03*
X977800D02*
D03*
X901600D02*
D03*
X927000D02*
D03*
X876200D02*
D03*
X901600Y670000D02*
D03*
X927000D02*
D03*
X876200D02*
D03*
X825400D02*
D03*
X901600Y874600D02*
D03*
X927000D02*
D03*
X952400Y1104600D02*
D03*
X977800D02*
D03*
X901600D02*
D03*
X927000D02*
D03*
X850800D02*
D03*
X876200D02*
D03*
X800000D02*
D03*
X825400D02*
D03*
Y644600D02*
D03*
X927000D02*
D03*
X977800D02*
D03*
X901600Y1130000D02*
D03*
X927000D02*
D03*
X850800Y874600D02*
D03*
X876200D02*
D03*
X952400D02*
D03*
X977800D02*
D03*
X1003200Y644600D02*
D03*
Y670000D02*
D03*
X977800D02*
D03*
X952400Y644600D02*
D03*
Y670000D02*
D03*
X901600Y644600D02*
D03*
X876200D02*
D03*
X850800D02*
D03*
Y670000D02*
D03*
X800000Y644600D02*
D03*
Y670000D02*
D03*
X1003200Y874600D02*
D03*
Y900000D02*
D03*
X850800D02*
D03*
X825400D02*
D03*
X800000D02*
D03*
Y874600D02*
D03*
X825400D02*
D03*
X1003200Y1104600D02*
D03*
Y1130000D02*
D03*
X825400D02*
D03*
X800000D02*
D03*
D49*
X431800Y963930D02*
D03*
Y989330D02*
D03*
Y1014730D02*
D03*
Y1040130D02*
D03*
D50*
X368300Y598170D02*
D03*
X393700D02*
D03*
Y572770D02*
D03*
X368300D02*
D03*
X419100D02*
D03*
X429660Y1193800D02*
D03*
D51*
X419100Y598170D02*
D03*
X479660Y1193800D02*
D03*
D52*
X267080Y794310D02*
D03*
Y918060D02*
D03*
Y1111530D02*
D03*
D53*
Y829310D02*
D03*
Y864310D02*
D03*
Y1058060D02*
D03*
Y1023060D02*
D03*
Y953060D02*
D03*
Y988060D02*
D03*
Y1146530D02*
D03*
D54*
X254000Y723900D02*
D03*
Y664210D02*
D03*
X374650Y1220470D02*
D03*
X577850Y997230D02*
D03*
D55*
X254000Y749300D02*
D03*
Y689610D02*
D03*
X323850Y1220470D02*
D03*
D56*
X489350Y941070D02*
D03*
D57*
X539350D02*
D03*
D58*
X364490Y780310D02*
D03*
Y878310D02*
D03*
D59*
X1041300Y690550D02*
D03*
X761900D02*
D03*
X1041300Y920550D02*
D03*
X761900D02*
D03*
X1041300Y1150550D02*
D03*
X761900D02*
D03*
D60*
X542580Y1219200D02*
D03*
X559580D02*
D03*
X576580D02*
D03*
D61*
X593580Y1220470D02*
D03*
X610580D02*
D03*
D62*
X577850Y1032230D02*
D03*
D63*
X241350Y559230D02*
D03*
X249350Y551230D02*
D03*
X279350Y559230D02*
D03*
X271350Y551230D02*
D03*
X279350Y581230D02*
D03*
X271350Y589230D02*
D03*
X249350D02*
D03*
X241350Y581230D02*
D03*
X260350Y547730D02*
D03*
X282850Y570230D02*
D03*
X260350Y592730D02*
D03*
X237850Y570230D02*
D03*
X1039480Y1191310D02*
D03*
X1031480Y559230D02*
D03*
X1039480Y551230D02*
D03*
X1069480Y559230D02*
D03*
X1061480Y551230D02*
D03*
X1069480Y581230D02*
D03*
X1061480Y589230D02*
D03*
X1039480D02*
D03*
X1031480Y581230D02*
D03*
X1050480Y547730D02*
D03*
X1072980Y570230D02*
D03*
X1050480Y592730D02*
D03*
X1027980Y570230D02*
D03*
Y1210310D02*
D03*
X1050480Y1232810D02*
D03*
X1072980Y1210310D02*
D03*
X1050480Y1187810D02*
D03*
X1031480Y1221310D02*
D03*
X1039480Y1229310D02*
D03*
X1061480D02*
D03*
X1069480Y1221310D02*
D03*
X1061480Y1191310D02*
D03*
X1069480Y1199310D02*
D03*
X1031480D02*
D03*
X237850Y1210310D02*
D03*
X260350Y1232810D02*
D03*
X282850Y1210310D02*
D03*
X260350Y1187810D02*
D03*
X241350Y1221310D02*
D03*
X249350Y1229310D02*
D03*
X271350D02*
D03*
X279350Y1221310D02*
D03*
X271350Y1191310D02*
D03*
X279350Y1199310D02*
D03*
X249350Y1191310D02*
D03*
X241350Y1199310D02*
D03*
D64*
X260350Y570230D02*
D03*
X1050480D02*
D03*
Y1210310D02*
D03*
X260350D02*
D03*
M02*
