G04*
G04 #@! TF.GenerationSoftware,Altium Limited,Altium Designer,19.1.6 (110)*
G04*
G04 Layer_Physical_Order=3*
G04 Layer_Color=16440176*
%FSLAX44Y44*%
%MOMM*%
G71*
G01*
G75*
%ADD48C,2.1000*%
%ADD58R,1.4000X1.4000*%
%ADD59C,1.4000*%
%ADD66C,1.3000*%
%ADD69C,1.0000*%
%ADD75C,2.0000*%
%ADD76O,5.5000X2.5400*%
%ADD78O,2.0000X1.5240*%
%ADD79C,1.8000*%
%ADD80P,1.9483X8X202.5*%
G04:AMPARAMS|DCode=81|XSize=2.1mm|YSize=2.1mm|CornerRadius=0.525mm|HoleSize=0mm|Usage=FLASHONLY|Rotation=90.000|XOffset=0mm|YOffset=0mm|HoleType=Round|Shape=RoundedRectangle|*
%AMROUNDEDRECTD81*
21,1,2.1000,1.0500,0,0,90.0*
21,1,1.0500,2.1000,0,0,90.0*
1,1,1.0500,0.5250,0.5250*
1,1,1.0500,0.5250,-0.5250*
1,1,1.0500,-0.5250,-0.5250*
1,1,1.0500,-0.5250,0.5250*
%
%ADD81ROUNDEDRECTD81*%
%ADD82C,1.6000*%
%ADD83R,1.6000X1.6000*%
%ADD84C,1.3500*%
%ADD85O,1.3970X1.7780*%
%ADD86O,1.4000X1.6510*%
%ADD87P,1.7318X8X292.5*%
%ADD88C,0.7000*%
%ADD89C,6.0000*%
%ADD90C,0.4000*%
%ADD91C,0.6000*%
%ADD92C,1.5240*%
G36*
X1057325Y1246823D02*
X1062068Y1245552D01*
X1066605Y1243672D01*
X1070859Y1241217D01*
X1074754Y1238227D01*
X1078227Y1234754D01*
X1081217Y1230858D01*
X1083672Y1226605D01*
X1085552Y1222068D01*
X1086823Y1217324D01*
X1087463Y1212462D01*
X1087451Y1210012D01*
X1087452Y1210006D01*
X1087451Y1210000D01*
X1087464Y570000D01*
Y567544D01*
X1086823Y562675D01*
X1085552Y557932D01*
X1083672Y553395D01*
X1081217Y549142D01*
X1078227Y545246D01*
X1074754Y541773D01*
X1070858Y538783D01*
X1066605Y536328D01*
X1062068Y534448D01*
X1057325Y533177D01*
X1052462Y532537D01*
X1050012Y532549D01*
X1050006Y532548D01*
X1050000Y532549D01*
X260000Y532536D01*
X257545D01*
X252675Y533177D01*
X247932Y534448D01*
X243395Y536328D01*
X239142Y538783D01*
X235245Y541773D01*
X231773Y545246D01*
X228783Y549142D01*
X226328Y553395D01*
X224448Y557932D01*
X223177Y562676D01*
X222537Y567538D01*
X222549Y569988D01*
X222548Y569994D01*
X222549Y570000D01*
X222536Y1210000D01*
Y1212455D01*
X223177Y1217325D01*
X224448Y1222068D01*
X226328Y1226605D01*
X228783Y1230858D01*
X231773Y1234754D01*
X235245Y1238227D01*
X239142Y1241217D01*
X243395Y1243672D01*
X247932Y1245552D01*
X252676Y1246823D01*
X257538Y1247463D01*
X259988Y1247451D01*
X259994Y1247452D01*
X260000Y1247451D01*
X335309Y1247452D01*
X335795Y1246279D01*
X322986Y1233470D01*
X310850D01*
Y1207470D01*
X319052D01*
X320848Y1206726D01*
X323850Y1206331D01*
X326852Y1206726D01*
X328648Y1207470D01*
X336850D01*
Y1214526D01*
X351727Y1229403D01*
X363683D01*
X364244Y1228264D01*
X363294Y1227026D01*
X361985Y1223864D01*
X361538Y1220470D01*
X361985Y1217076D01*
X363294Y1213914D01*
X365378Y1211198D01*
X368094Y1209115D01*
X371256Y1207805D01*
X374650Y1207358D01*
X378044Y1207805D01*
X381206Y1209115D01*
X383922Y1211198D01*
X386006Y1213914D01*
X387315Y1217076D01*
X387762Y1220470D01*
X387315Y1223864D01*
X386006Y1227026D01*
X385056Y1228264D01*
X385617Y1229403D01*
X532405D01*
X532966Y1228264D01*
X532111Y1227149D01*
X530904Y1224234D01*
X530492Y1221105D01*
Y1217295D01*
X530904Y1214166D01*
X532111Y1211251D01*
X534032Y1208747D01*
X536536Y1206826D01*
X539451Y1205619D01*
X542580Y1205207D01*
X545709Y1205619D01*
X548624Y1206826D01*
X550274Y1208092D01*
X550319Y1208034D01*
X553032Y1205953D01*
X556190Y1204644D01*
X559580Y1204198D01*
X562970Y1204644D01*
X566129Y1205953D01*
X568841Y1208034D01*
X570712Y1210472D01*
X572049Y1209447D01*
X574234Y1208541D01*
X575580Y1208364D01*
Y1219200D01*
X577580D01*
Y1208364D01*
X578926Y1208541D01*
X581111Y1209447D01*
X582988Y1210887D01*
X584428Y1212764D01*
X584834Y1213743D01*
X586288Y1213934D01*
X587161Y1212796D01*
X589041Y1211354D01*
X591231Y1210447D01*
X593580Y1210137D01*
X595929Y1210447D01*
X598119Y1211354D01*
X599999Y1212796D01*
X601378Y1214594D01*
X602060Y1214685D01*
X602100D01*
X602782Y1214594D01*
X604161Y1212796D01*
X606041Y1211354D01*
X608231Y1210447D01*
X609580Y1210269D01*
Y1220470D01*
X610580D01*
Y1221470D01*
X619658D01*
Y1221725D01*
X619348Y1224074D01*
X618441Y1226264D01*
X617007Y1228133D01*
X617068Y1228619D01*
X617334Y1229403D01*
X974153D01*
X990701Y1212855D01*
Y1138414D01*
X990668Y1138374D01*
X989556Y1136294D01*
X988942Y1136177D01*
X988144Y1136235D01*
X988141Y1136236D01*
X986358Y1138559D01*
X983852Y1140482D01*
X980933Y1141691D01*
X977800Y1142104D01*
X974667Y1141691D01*
X971748Y1140482D01*
X969241Y1138559D01*
X967318Y1136052D01*
X966109Y1133133D01*
X965741Y1130334D01*
X964460D01*
X964091Y1133133D01*
X962882Y1136052D01*
X960958Y1138559D01*
X958452Y1140482D01*
X955533Y1141691D01*
X952400Y1142104D01*
X949267Y1141691D01*
X946348Y1140482D01*
X943841Y1138559D01*
X941918Y1136052D01*
X940709Y1133133D01*
X940340Y1130334D01*
X939060D01*
X938691Y1133133D01*
X937482Y1136052D01*
X935558Y1138559D01*
X933052Y1140482D01*
X930133Y1141691D01*
X927000Y1142104D01*
X923867Y1141691D01*
X920948Y1140482D01*
X918441Y1138559D01*
X916518Y1136052D01*
X915309Y1133133D01*
X914940Y1130334D01*
X913660D01*
X913291Y1133133D01*
X912082Y1136052D01*
X910158Y1138559D01*
X907652Y1140482D01*
X904733Y1141691D01*
X901600Y1142104D01*
X898467Y1141691D01*
X895548Y1140482D01*
X893042Y1138559D01*
X891118Y1136052D01*
X889909Y1133133D01*
X889540Y1130334D01*
X888260D01*
X887891Y1133133D01*
X886682Y1136052D01*
X884759Y1138559D01*
X882252Y1140482D01*
X879333Y1141691D01*
X876200Y1142104D01*
X873067Y1141691D01*
X870148Y1140482D01*
X867642Y1138559D01*
X865718Y1136052D01*
X864509Y1133133D01*
X864140Y1130334D01*
X862859D01*
X862491Y1133133D01*
X861282Y1136052D01*
X859359Y1138559D01*
X856852Y1140482D01*
X853933Y1141691D01*
X850800Y1142104D01*
X847667Y1141691D01*
X844748Y1140482D01*
X842242Y1138559D01*
X840318Y1136052D01*
X839109Y1133133D01*
X838740Y1130334D01*
X837459D01*
X837091Y1133133D01*
X835882Y1136052D01*
X833959Y1138559D01*
X831452Y1140482D01*
X828533Y1141691D01*
X825400Y1142104D01*
X822267Y1141691D01*
X819348Y1140482D01*
X816842Y1138559D01*
X814918Y1136052D01*
X813709Y1133133D01*
X813341Y1130334D01*
X812059D01*
X811691Y1133133D01*
X810482Y1136052D01*
X808559Y1138559D01*
X806052Y1140482D01*
X803133Y1141691D01*
X800000Y1142104D01*
X796867Y1141691D01*
X793948Y1140482D01*
X791441Y1138559D01*
X789518Y1136052D01*
X788309Y1133133D01*
X787896Y1130000D01*
X788309Y1126867D01*
X789518Y1123948D01*
X791441Y1121441D01*
X793948Y1119518D01*
X796867Y1118309D01*
X799666Y1117941D01*
Y1116659D01*
X796867Y1116291D01*
X793948Y1115082D01*
X791441Y1113158D01*
X789518Y1110652D01*
X788309Y1107733D01*
X787896Y1104600D01*
X788309Y1101467D01*
X789518Y1098548D01*
X791441Y1096041D01*
X793948Y1094118D01*
X796867Y1092909D01*
X800000Y1092496D01*
X803133Y1092909D01*
X806052Y1094118D01*
X808559Y1096041D01*
X810482Y1098548D01*
X811691Y1101467D01*
X812059Y1104266D01*
X813341D01*
X813709Y1101467D01*
X814918Y1098548D01*
X816842Y1096041D01*
X819348Y1094118D01*
X822267Y1092909D01*
X825400Y1092496D01*
X828533Y1092909D01*
X831452Y1094118D01*
X833959Y1096041D01*
X835882Y1098548D01*
X837091Y1101467D01*
X837459Y1104266D01*
X838740D01*
X839109Y1101467D01*
X840318Y1098548D01*
X842242Y1096041D01*
X844748Y1094118D01*
X847667Y1092909D01*
X850800Y1092496D01*
X853933Y1092909D01*
X856852Y1094118D01*
X859359Y1096041D01*
X861282Y1098548D01*
X862491Y1101467D01*
X862859Y1104266D01*
X864140D01*
X864509Y1101467D01*
X865718Y1098548D01*
X867642Y1096041D01*
X870148Y1094118D01*
X873067Y1092909D01*
X876200Y1092496D01*
X879333Y1092909D01*
X882252Y1094118D01*
X884759Y1096041D01*
X886682Y1098548D01*
X887891Y1101467D01*
X888260Y1104266D01*
X889540D01*
X889909Y1101467D01*
X891118Y1098548D01*
X893042Y1096041D01*
X895548Y1094118D01*
X898467Y1092909D01*
X901600Y1092496D01*
X904733Y1092909D01*
X907652Y1094118D01*
X910158Y1096041D01*
X912082Y1098548D01*
X913291Y1101467D01*
X913660Y1104266D01*
X914940D01*
X915309Y1101467D01*
X916518Y1098548D01*
X918441Y1096041D01*
X920948Y1094118D01*
X923867Y1092909D01*
X927000Y1092496D01*
X930133Y1092909D01*
X933052Y1094118D01*
X935558Y1096041D01*
X937482Y1098548D01*
X938691Y1101467D01*
X939060Y1104266D01*
X940340D01*
X940709Y1101467D01*
X941918Y1098548D01*
X943841Y1096041D01*
X946348Y1094118D01*
X949267Y1092909D01*
X952400Y1092496D01*
X955533Y1092909D01*
X958452Y1094118D01*
X960958Y1096041D01*
X962882Y1098548D01*
X964091Y1101467D01*
X964460Y1104266D01*
X965741D01*
X966109Y1101467D01*
X967318Y1098548D01*
X969241Y1096041D01*
X971748Y1094118D01*
X974667Y1092909D01*
X977800Y1092496D01*
X980933Y1092909D01*
X983852Y1094118D01*
X986358Y1096041D01*
X988141Y1098364D01*
X988144Y1098365D01*
X988942Y1098423D01*
X989556Y1098306D01*
X990668Y1096226D01*
X990701Y1096186D01*
Y908414D01*
X990668Y908374D01*
X989556Y906294D01*
X988942Y906177D01*
X988144Y906235D01*
X988141Y906236D01*
X986358Y908559D01*
X983852Y910482D01*
X980933Y911691D01*
X977800Y912104D01*
X974667Y911691D01*
X971748Y910482D01*
X969241Y908559D01*
X967318Y906052D01*
X966109Y903133D01*
X965741Y900334D01*
X964460D01*
X964091Y903133D01*
X962882Y906052D01*
X960958Y908559D01*
X958452Y910482D01*
X955533Y911691D01*
X952400Y912104D01*
X949267Y911691D01*
X946348Y910482D01*
X943841Y908559D01*
X941918Y906052D01*
X940709Y903133D01*
X940340Y900334D01*
X939060D01*
X938691Y903133D01*
X937482Y906052D01*
X935558Y908559D01*
X933052Y910482D01*
X930133Y911691D01*
X927000Y912104D01*
X923867Y911691D01*
X920948Y910482D01*
X918441Y908559D01*
X916518Y906052D01*
X915309Y903133D01*
X914940Y900334D01*
X913660D01*
X913291Y903133D01*
X912082Y906052D01*
X910158Y908559D01*
X907652Y910482D01*
X904733Y911691D01*
X901600Y912104D01*
X898467Y911691D01*
X895548Y910482D01*
X893042Y908559D01*
X891118Y906052D01*
X889909Y903133D01*
X889540Y900334D01*
X888260D01*
X887891Y903133D01*
X886682Y906052D01*
X884759Y908559D01*
X882252Y910482D01*
X879333Y911691D01*
X876200Y912104D01*
X873067Y911691D01*
X870148Y910482D01*
X867642Y908559D01*
X865718Y906052D01*
X864509Y903133D01*
X864140Y900334D01*
X862859D01*
X862491Y903133D01*
X861282Y906052D01*
X859359Y908559D01*
X856852Y910482D01*
X853933Y911691D01*
X850800Y912104D01*
X847667Y911691D01*
X844748Y910482D01*
X842242Y908559D01*
X840318Y906052D01*
X839109Y903133D01*
X838740Y900334D01*
X837459D01*
X837091Y903133D01*
X835882Y906052D01*
X833959Y908559D01*
X831452Y910482D01*
X828533Y911691D01*
X825400Y912104D01*
X822267Y911691D01*
X819348Y910482D01*
X816842Y908559D01*
X814918Y906052D01*
X813709Y903133D01*
X813341Y900334D01*
X812059D01*
X811691Y903133D01*
X810482Y906052D01*
X808559Y908559D01*
X806052Y910482D01*
X803133Y911691D01*
X800000Y912104D01*
X796867Y911691D01*
X793948Y910482D01*
X791441Y908559D01*
X789518Y906052D01*
X788309Y903133D01*
X787896Y900000D01*
X788309Y896867D01*
X789518Y893948D01*
X791441Y891441D01*
X793948Y889518D01*
X796867Y888309D01*
X799666Y887941D01*
Y886659D01*
X796867Y886291D01*
X793948Y885082D01*
X791441Y883158D01*
X789518Y880652D01*
X788309Y877733D01*
X787896Y874600D01*
X788309Y871467D01*
X789518Y868548D01*
X791441Y866041D01*
X793948Y864118D01*
X796867Y862909D01*
X800000Y862496D01*
X803133Y862909D01*
X806052Y864118D01*
X808559Y866041D01*
X810482Y868548D01*
X811691Y871467D01*
X812059Y874266D01*
X813341D01*
X813709Y871467D01*
X814918Y868548D01*
X816842Y866041D01*
X819348Y864118D01*
X822267Y862909D01*
X825400Y862496D01*
X828533Y862909D01*
X831452Y864118D01*
X833959Y866041D01*
X835882Y868548D01*
X837091Y871467D01*
X837459Y874266D01*
X838740D01*
X839109Y871467D01*
X840318Y868548D01*
X842242Y866041D01*
X844748Y864118D01*
X847667Y862909D01*
X850800Y862496D01*
X853933Y862909D01*
X856852Y864118D01*
X859359Y866041D01*
X861282Y868548D01*
X862491Y871467D01*
X862859Y874266D01*
X864140D01*
X864509Y871467D01*
X865718Y868548D01*
X867642Y866041D01*
X870148Y864118D01*
X873067Y862909D01*
X876200Y862496D01*
X879333Y862909D01*
X882252Y864118D01*
X884759Y866041D01*
X886682Y868548D01*
X887891Y871467D01*
X888260Y874266D01*
X889540D01*
X889909Y871467D01*
X891118Y868548D01*
X893042Y866041D01*
X895548Y864118D01*
X898467Y862909D01*
X901600Y862496D01*
X904733Y862909D01*
X907652Y864118D01*
X910158Y866041D01*
X912082Y868548D01*
X913291Y871467D01*
X913660Y874266D01*
X914940D01*
X915309Y871467D01*
X916518Y868548D01*
X918441Y866041D01*
X920948Y864118D01*
X923867Y862909D01*
X927000Y862496D01*
X930133Y862909D01*
X933052Y864118D01*
X935558Y866041D01*
X937482Y868548D01*
X938691Y871467D01*
X939060Y874266D01*
X940340D01*
X940709Y871467D01*
X941918Y868548D01*
X943841Y866041D01*
X946348Y864118D01*
X949267Y862909D01*
X952400Y862496D01*
X955533Y862909D01*
X958452Y864118D01*
X960958Y866041D01*
X962882Y868548D01*
X964091Y871467D01*
X964460Y874266D01*
X965741D01*
X966109Y871467D01*
X967318Y868548D01*
X969241Y866041D01*
X971748Y864118D01*
X974667Y862909D01*
X977800Y862496D01*
X980933Y862909D01*
X983852Y864118D01*
X986358Y866041D01*
X988141Y868364D01*
X988144Y868365D01*
X988942Y868423D01*
X989556Y868306D01*
X990668Y866226D01*
X990701Y866186D01*
Y678414D01*
X990668Y678374D01*
X989556Y676294D01*
X988942Y676177D01*
X988144Y676235D01*
X988141Y676236D01*
X986358Y678559D01*
X983852Y680482D01*
X980933Y681691D01*
X977800Y682104D01*
X974667Y681691D01*
X971748Y680482D01*
X969241Y678559D01*
X967318Y676052D01*
X966109Y673133D01*
X965741Y670334D01*
X964460D01*
X964091Y673133D01*
X962882Y676052D01*
X960958Y678559D01*
X958452Y680482D01*
X955533Y681691D01*
X952400Y682104D01*
X949267Y681691D01*
X946348Y680482D01*
X943841Y678559D01*
X941918Y676052D01*
X940709Y673133D01*
X940340Y670334D01*
X939060D01*
X938691Y673133D01*
X937482Y676052D01*
X935558Y678559D01*
X933052Y680482D01*
X930133Y681691D01*
X927000Y682104D01*
X923867Y681691D01*
X920948Y680482D01*
X918441Y678559D01*
X916518Y676052D01*
X915309Y673133D01*
X914940Y670334D01*
X913660D01*
X913291Y673133D01*
X912082Y676052D01*
X910158Y678559D01*
X907652Y680482D01*
X904733Y681691D01*
X901600Y682104D01*
X898467Y681691D01*
X895548Y680482D01*
X893042Y678559D01*
X891118Y676052D01*
X889909Y673133D01*
X889540Y670334D01*
X888260D01*
X887891Y673133D01*
X886682Y676052D01*
X884759Y678559D01*
X882252Y680482D01*
X879333Y681691D01*
X876200Y682104D01*
X873067Y681691D01*
X870148Y680482D01*
X867642Y678559D01*
X865718Y676052D01*
X864509Y673133D01*
X864140Y670334D01*
X862859D01*
X862491Y673133D01*
X861282Y676052D01*
X859359Y678559D01*
X856852Y680482D01*
X853933Y681691D01*
X850800Y682104D01*
X847667Y681691D01*
X844748Y680482D01*
X842242Y678559D01*
X840318Y676052D01*
X839109Y673133D01*
X838740Y670334D01*
X837459D01*
X837091Y673133D01*
X835882Y676052D01*
X833959Y678559D01*
X831452Y680482D01*
X828533Y681691D01*
X825400Y682104D01*
X822267Y681691D01*
X819348Y680482D01*
X816842Y678559D01*
X814918Y676052D01*
X813709Y673133D01*
X813341Y670334D01*
X812059D01*
X811691Y673133D01*
X810482Y676052D01*
X808559Y678559D01*
X806052Y680482D01*
X803133Y681691D01*
X800000Y682104D01*
X796867Y681691D01*
X793948Y680482D01*
X791441Y678559D01*
X789518Y676052D01*
X788309Y673133D01*
X787896Y670000D01*
X788309Y666867D01*
X789518Y663948D01*
X791441Y661441D01*
X793948Y659518D01*
X796867Y658309D01*
X799666Y657941D01*
Y656659D01*
X796867Y656291D01*
X793948Y655082D01*
X791441Y653158D01*
X789518Y650652D01*
X788309Y647733D01*
X787896Y644600D01*
X788309Y641467D01*
X789518Y638548D01*
X791441Y636041D01*
X793948Y634118D01*
X796867Y632909D01*
X800000Y632496D01*
X803133Y632909D01*
X806052Y634118D01*
X808559Y636041D01*
X810482Y638548D01*
X811691Y641467D01*
X812059Y644266D01*
X813341D01*
X813709Y641467D01*
X814918Y638548D01*
X816842Y636041D01*
X819348Y634118D01*
X822267Y632909D01*
X825400Y632496D01*
X828533Y632909D01*
X831452Y634118D01*
X833959Y636041D01*
X835882Y638548D01*
X837091Y641467D01*
X837459Y644266D01*
X838740D01*
X839109Y641467D01*
X840318Y638548D01*
X842242Y636041D01*
X844748Y634118D01*
X847667Y632909D01*
X850800Y632496D01*
X853933Y632909D01*
X856852Y634118D01*
X859359Y636041D01*
X861282Y638548D01*
X862491Y641467D01*
X862859Y644266D01*
X864140D01*
X864509Y641467D01*
X865718Y638548D01*
X867642Y636041D01*
X870148Y634118D01*
X873067Y632909D01*
X876200Y632496D01*
X879333Y632909D01*
X882252Y634118D01*
X884759Y636041D01*
X886682Y638548D01*
X887891Y641467D01*
X888260Y644266D01*
X889540D01*
X889909Y641467D01*
X891118Y638548D01*
X893042Y636041D01*
X895548Y634118D01*
X898467Y632909D01*
X901600Y632496D01*
X904733Y632909D01*
X907652Y634118D01*
X910158Y636041D01*
X912082Y638548D01*
X913291Y641467D01*
X913660Y644266D01*
X914940D01*
X915309Y641467D01*
X916518Y638548D01*
X918441Y636041D01*
X920948Y634118D01*
X923867Y632909D01*
X927000Y632496D01*
X930133Y632909D01*
X933052Y634118D01*
X935558Y636041D01*
X937482Y638548D01*
X938691Y641467D01*
X939060Y644266D01*
X940340D01*
X940709Y641467D01*
X941918Y638548D01*
X943841Y636041D01*
X946348Y634118D01*
X949267Y632909D01*
X952400Y632496D01*
X955533Y632909D01*
X958452Y634118D01*
X960958Y636041D01*
X962882Y638548D01*
X964091Y641467D01*
X964460Y644266D01*
X965741D01*
X966109Y641467D01*
X967318Y638548D01*
X969241Y636041D01*
X971748Y634118D01*
X974667Y632909D01*
X977800Y632496D01*
X980933Y632909D01*
X983852Y634118D01*
X986358Y636041D01*
X988141Y638364D01*
X988144Y638366D01*
X988942Y638423D01*
X989556Y638306D01*
X990668Y636226D01*
X992542Y633942D01*
X994826Y632068D01*
X997432Y630675D01*
X1000259Y629817D01*
X1003200Y629527D01*
X1006141Y629817D01*
X1008968Y630675D01*
X1011574Y632068D01*
X1013858Y633942D01*
X1015732Y636226D01*
X1017125Y638832D01*
X1017983Y641659D01*
X1018273Y644600D01*
X1017983Y647541D01*
X1017125Y650368D01*
X1015732Y652974D01*
X1013899Y655208D01*
Y659392D01*
X1015732Y661626D01*
X1017125Y664232D01*
X1017983Y667059D01*
X1018273Y670000D01*
X1017983Y672941D01*
X1017125Y675768D01*
X1015732Y678374D01*
X1014605Y679747D01*
X1014620Y679799D01*
X1016016Y680066D01*
X1019087Y677710D01*
X1022663Y676228D01*
X1026500Y675723D01*
X1036300D01*
Y690550D01*
X1041300D01*
D01*
X1036300D01*
Y705377D01*
X1026500D01*
X1022663Y704872D01*
X1019087Y703391D01*
X1016016Y701034D01*
X1015102Y699843D01*
X1013899Y700251D01*
Y863992D01*
X1015732Y866226D01*
X1017125Y868832D01*
X1017983Y871659D01*
X1018273Y874600D01*
X1017983Y877541D01*
X1017125Y880368D01*
X1015732Y882974D01*
X1013899Y885208D01*
Y889392D01*
X1015732Y891626D01*
X1017125Y894232D01*
X1017983Y897059D01*
X1018273Y900000D01*
X1017983Y902941D01*
X1017125Y905768D01*
X1015732Y908374D01*
X1014605Y909747D01*
X1014620Y909799D01*
X1016016Y910066D01*
X1019087Y907710D01*
X1022663Y906228D01*
X1026500Y905723D01*
X1036300D01*
Y920550D01*
Y935377D01*
X1026500D01*
X1022663Y934872D01*
X1019087Y933391D01*
X1016016Y931034D01*
X1015102Y929843D01*
X1013899Y930251D01*
Y1093992D01*
X1015732Y1096226D01*
X1017125Y1098832D01*
X1017983Y1101659D01*
X1018273Y1104600D01*
X1017983Y1107541D01*
X1017125Y1110368D01*
X1015732Y1112974D01*
X1013899Y1115208D01*
Y1119392D01*
X1015732Y1121626D01*
X1017125Y1124232D01*
X1017983Y1127059D01*
X1018273Y1130000D01*
X1017983Y1132941D01*
X1017125Y1135768D01*
X1015732Y1138374D01*
X1014605Y1139747D01*
X1014620Y1139799D01*
X1016016Y1140066D01*
X1019087Y1137710D01*
X1022663Y1136228D01*
X1026500Y1135723D01*
X1036300D01*
Y1150550D01*
Y1165377D01*
X1026500D01*
X1022663Y1164872D01*
X1019087Y1163391D01*
X1016016Y1161034D01*
X1015102Y1159843D01*
X1013899Y1160251D01*
Y1217660D01*
X1013504Y1220662D01*
X1012345Y1223460D01*
X1010502Y1225862D01*
X990074Y1246289D01*
X990560Y1247463D01*
X1050000Y1247464D01*
X1052456D01*
X1057325Y1246823D01*
D02*
G37*
%LPC*%
G36*
X1051480Y1238219D02*
Y1232810D01*
X1049480D01*
Y1238219D01*
X1048334Y1237991D01*
X1046515Y1236775D01*
X1045299Y1234956D01*
X1044967Y1233284D01*
X1043642Y1232981D01*
X1043445Y1233276D01*
X1041626Y1234491D01*
X1040480Y1234719D01*
Y1229310D01*
X1039480D01*
Y1228310D01*
X1034071D01*
X1034218Y1227570D01*
X1034112Y1227376D01*
X1033414Y1226678D01*
X1033221Y1226572D01*
X1032480Y1226719D01*
Y1221310D01*
X1031480D01*
Y1220310D01*
X1026071D01*
X1026299Y1219164D01*
X1027515Y1217345D01*
X1027809Y1217148D01*
X1027506Y1215823D01*
X1025834Y1215491D01*
X1024015Y1214275D01*
X1022799Y1212456D01*
X1022571Y1211310D01*
X1027980D01*
Y1209310D01*
X1022571D01*
X1022799Y1208164D01*
X1024015Y1206345D01*
X1025834Y1205129D01*
X1027506Y1204797D01*
X1027809Y1203472D01*
X1027515Y1203275D01*
X1026299Y1201456D01*
X1026071Y1200310D01*
X1031480D01*
Y1199310D01*
X1032480D01*
Y1193901D01*
X1033221Y1194048D01*
X1033414Y1193942D01*
X1034112Y1193244D01*
X1034218Y1193050D01*
X1034071Y1192310D01*
X1039480D01*
Y1191310D01*
X1040480D01*
Y1185901D01*
X1041626Y1186129D01*
X1043445Y1187345D01*
X1043642Y1187639D01*
X1044967Y1187336D01*
X1045299Y1185664D01*
X1046515Y1183845D01*
X1048334Y1182629D01*
X1049480Y1182401D01*
Y1187810D01*
X1051480D01*
Y1182401D01*
X1052626Y1182629D01*
X1054445Y1183845D01*
X1055661Y1185664D01*
X1055993Y1187336D01*
X1057318Y1187639D01*
X1057515Y1187345D01*
X1059334Y1186129D01*
X1060480Y1185901D01*
Y1191310D01*
X1061480D01*
Y1192310D01*
X1066889D01*
X1066742Y1193050D01*
X1066848Y1193244D01*
X1067546Y1193942D01*
X1067740Y1194048D01*
X1068480Y1193901D01*
Y1199310D01*
X1069480D01*
Y1200310D01*
X1074889D01*
X1074661Y1201456D01*
X1073446Y1203275D01*
X1073151Y1203472D01*
X1073454Y1204797D01*
X1075126Y1205129D01*
X1076945Y1206345D01*
X1078161Y1208164D01*
X1078389Y1209310D01*
X1072980D01*
Y1211310D01*
X1078389D01*
X1078161Y1212456D01*
X1076945Y1214275D01*
X1075126Y1215491D01*
X1073454Y1215823D01*
X1073151Y1217148D01*
X1073446Y1217345D01*
X1074661Y1219164D01*
X1074889Y1220310D01*
X1069480D01*
Y1221310D01*
X1068480D01*
Y1226719D01*
X1067740Y1226572D01*
X1067546Y1226678D01*
X1066848Y1227376D01*
X1066742Y1227570D01*
X1066889Y1228310D01*
X1061480D01*
Y1229310D01*
X1060480D01*
Y1234719D01*
X1059334Y1234491D01*
X1057515Y1233276D01*
X1057318Y1232981D01*
X1055993Y1233284D01*
X1055661Y1234956D01*
X1054445Y1236775D01*
X1052626Y1237991D01*
X1051480Y1238219D01*
D02*
G37*
G36*
X261350D02*
Y1232810D01*
X259350D01*
Y1238219D01*
X258204Y1237991D01*
X256385Y1236775D01*
X255169Y1234956D01*
X254837Y1233284D01*
X253512Y1232981D01*
X253315Y1233276D01*
X251496Y1234491D01*
X250350Y1234719D01*
Y1229310D01*
X249350D01*
Y1228310D01*
X243941D01*
X244088Y1227570D01*
X243982Y1227376D01*
X243284Y1226678D01*
X243090Y1226572D01*
X242350Y1226719D01*
Y1221310D01*
X241350D01*
Y1220310D01*
X235941D01*
X236169Y1219164D01*
X237384Y1217345D01*
X237679Y1217148D01*
X237376Y1215823D01*
X235704Y1215491D01*
X233885Y1214275D01*
X232669Y1212456D01*
X232441Y1211310D01*
X237850D01*
Y1209310D01*
X232441D01*
X232669Y1208164D01*
X233885Y1206345D01*
X235704Y1205129D01*
X237376Y1204797D01*
X237679Y1203472D01*
X237384Y1203275D01*
X236169Y1201456D01*
X235941Y1200310D01*
X241350D01*
Y1199310D01*
X242350D01*
Y1193901D01*
X243090Y1194048D01*
X243284Y1193942D01*
X243982Y1193244D01*
X244088Y1193050D01*
X243941Y1192310D01*
X249350D01*
Y1191310D01*
X250350D01*
Y1185901D01*
X251496Y1186129D01*
X253315Y1187345D01*
X253512Y1187639D01*
X254837Y1187336D01*
X255169Y1185664D01*
X256385Y1183845D01*
X258204Y1182629D01*
X259350Y1182401D01*
Y1187810D01*
X261350D01*
Y1182401D01*
X262496Y1182629D01*
X264315Y1183845D01*
X265531Y1185664D01*
X265863Y1187336D01*
X267188Y1187639D01*
X267385Y1187345D01*
X269204Y1186129D01*
X270350Y1185901D01*
Y1191310D01*
X271350D01*
Y1192310D01*
X276759D01*
X276612Y1193050D01*
X276718Y1193244D01*
X277416Y1193942D01*
X277610Y1194048D01*
X278350Y1193901D01*
Y1199310D01*
X279350D01*
Y1200310D01*
X284759D01*
X284531Y1201456D01*
X283316Y1203275D01*
X283021Y1203472D01*
X283324Y1204797D01*
X284996Y1205129D01*
X286815Y1206345D01*
X288031Y1208164D01*
X288259Y1209310D01*
X282850D01*
Y1211310D01*
X288259D01*
X288031Y1212456D01*
X286815Y1214275D01*
X284996Y1215491D01*
X283324Y1215823D01*
X283021Y1217148D01*
X283316Y1217345D01*
X284531Y1219164D01*
X284759Y1220310D01*
X279350D01*
Y1221310D01*
X278350D01*
Y1226719D01*
X277610Y1226572D01*
X277416Y1226678D01*
X276718Y1227376D01*
X276612Y1227570D01*
X276759Y1228310D01*
X271350D01*
Y1229310D01*
X270350D01*
Y1234719D01*
X269204Y1234491D01*
X267385Y1233276D01*
X267188Y1232981D01*
X265863Y1233284D01*
X265531Y1234956D01*
X264315Y1236775D01*
X262496Y1237991D01*
X261350Y1238219D01*
D02*
G37*
G36*
X1038480Y1234719D02*
X1037334Y1234491D01*
X1035515Y1233276D01*
X1034299Y1231456D01*
X1034071Y1230310D01*
X1038480D01*
Y1234719D01*
D02*
G37*
G36*
X248350D02*
X247204Y1234491D01*
X245385Y1233276D01*
X244169Y1231456D01*
X243941Y1230310D01*
X248350D01*
Y1234719D01*
D02*
G37*
G36*
X272350D02*
Y1230310D01*
X276759D01*
X276531Y1231456D01*
X275315Y1233276D01*
X273496Y1234491D01*
X272350Y1234719D01*
D02*
G37*
G36*
X1062480D02*
Y1230310D01*
X1066889D01*
X1066661Y1231456D01*
X1065445Y1233276D01*
X1063626Y1234491D01*
X1062480Y1234719D01*
D02*
G37*
G36*
X1030480Y1226719D02*
X1029334Y1226491D01*
X1027515Y1225275D01*
X1026299Y1223456D01*
X1026071Y1222310D01*
X1030480D01*
Y1226719D01*
D02*
G37*
G36*
X240350D02*
X239204Y1226491D01*
X237384Y1225275D01*
X236169Y1223456D01*
X235941Y1222310D01*
X240350D01*
Y1226719D01*
D02*
G37*
G36*
X280350D02*
Y1222310D01*
X284759D01*
X284531Y1223456D01*
X283316Y1225275D01*
X281496Y1226491D01*
X280350Y1226719D01*
D02*
G37*
G36*
X1070480D02*
Y1222310D01*
X1074889D01*
X1074661Y1223456D01*
X1073446Y1225275D01*
X1071626Y1226491D01*
X1070480Y1226719D01*
D02*
G37*
G36*
X619658Y1219470D02*
X611580D01*
Y1210269D01*
X612929Y1210447D01*
X615119Y1211354D01*
X616999Y1212796D01*
X618441Y1214676D01*
X619348Y1216865D01*
X619658Y1219215D01*
Y1219470D01*
D02*
G37*
G36*
X430660Y1204763D02*
Y1194800D01*
X440623D01*
X440377Y1196672D01*
X439268Y1199348D01*
X437505Y1201645D01*
X435207Y1203409D01*
X432532Y1204517D01*
X430660Y1204763D01*
D02*
G37*
G36*
X428660D02*
X426788Y1204517D01*
X424113Y1203409D01*
X421815Y1201645D01*
X420051Y1199348D01*
X418943Y1196672D01*
X418697Y1194800D01*
X428660D01*
Y1204763D01*
D02*
G37*
G36*
X284759Y1198310D02*
X280350D01*
Y1193901D01*
X281496Y1194129D01*
X283316Y1195344D01*
X284531Y1197164D01*
X284759Y1198310D01*
D02*
G37*
G36*
X1030480Y1198310D02*
X1026071D01*
X1026299Y1197164D01*
X1027515Y1195344D01*
X1029334Y1194129D01*
X1030480Y1193901D01*
Y1198310D01*
D02*
G37*
G36*
X240350D02*
X235941D01*
X236169Y1197164D01*
X237384Y1195344D01*
X239204Y1194129D01*
X240350Y1193901D01*
Y1198310D01*
D02*
G37*
G36*
X1074889Y1198310D02*
X1070480D01*
Y1193901D01*
X1071626Y1194129D01*
X1073446Y1195344D01*
X1074661Y1197164D01*
X1074889Y1198310D01*
D02*
G37*
G36*
X276759Y1190310D02*
X272350D01*
Y1185901D01*
X273496Y1186129D01*
X275315Y1187345D01*
X276531Y1189164D01*
X276759Y1190310D01*
D02*
G37*
G36*
X248350Y1190310D02*
X243941D01*
X244169Y1189164D01*
X245385Y1187345D01*
X247204Y1186129D01*
X248350Y1185901D01*
Y1190310D01*
D02*
G37*
G36*
X1038480D02*
X1034071D01*
X1034299Y1189164D01*
X1035515Y1187345D01*
X1037334Y1186129D01*
X1038480Y1185901D01*
Y1190310D01*
D02*
G37*
G36*
X1066889Y1190310D02*
X1062480D01*
Y1185901D01*
X1063626Y1186129D01*
X1065445Y1187345D01*
X1066661Y1189164D01*
X1066889Y1190310D01*
D02*
G37*
G36*
X440623Y1192800D02*
X430660D01*
Y1182837D01*
X432532Y1183083D01*
X435207Y1184192D01*
X437505Y1185955D01*
X439268Y1188252D01*
X440377Y1190928D01*
X440623Y1192800D01*
D02*
G37*
G36*
X428660D02*
X418697D01*
X418943Y1190928D01*
X420051Y1188252D01*
X421815Y1185955D01*
X424113Y1184192D01*
X426788Y1183083D01*
X428660Y1182837D01*
Y1192800D01*
D02*
G37*
G36*
X486660Y1207800D02*
X472660D01*
X465660Y1200800D01*
Y1186800D01*
X472660Y1179800D01*
X486660D01*
X493660Y1186800D01*
Y1200800D01*
X486660Y1207800D01*
D02*
G37*
G36*
X344170Y1189430D02*
X342343Y1189190D01*
X340640Y1188484D01*
X339178Y1187362D01*
X338055Y1185900D01*
X337350Y1184197D01*
X337110Y1182370D01*
X337350Y1180543D01*
X338055Y1178840D01*
X339178Y1177378D01*
X340640Y1176255D01*
X342343Y1175550D01*
X343516Y1175396D01*
X343556Y1175390D01*
Y1174110D01*
X343516Y1174104D01*
X342343Y1173950D01*
X340640Y1173244D01*
X339178Y1172122D01*
X338055Y1170660D01*
X337350Y1168957D01*
X337110Y1167130D01*
X337350Y1165303D01*
X338055Y1163600D01*
X339178Y1162138D01*
X340640Y1161015D01*
X342343Y1160310D01*
X344170Y1160070D01*
X345997Y1160310D01*
X347700Y1161015D01*
X349162Y1162138D01*
X350285Y1163600D01*
X350990Y1165303D01*
X351230Y1167130D01*
X350990Y1168957D01*
X350285Y1170660D01*
X349162Y1172122D01*
X347700Y1173244D01*
X345997Y1173950D01*
X344824Y1174104D01*
X344784Y1174110D01*
Y1175390D01*
X344824Y1175396D01*
X345997Y1175550D01*
X347700Y1176255D01*
X349162Y1177378D01*
X350285Y1178840D01*
X350990Y1180543D01*
X351230Y1182370D01*
X350990Y1184197D01*
X350285Y1185900D01*
X349162Y1187362D01*
X347700Y1188484D01*
X345997Y1189190D01*
X344170Y1189430D01*
D02*
G37*
G36*
X1056100Y1165377D02*
X1046300D01*
Y1155550D01*
X1069940D01*
X1068940Y1157963D01*
X1066584Y1161034D01*
X1063513Y1163391D01*
X1059937Y1164872D01*
X1056100Y1165377D01*
D02*
G37*
G36*
X776700D02*
X766900D01*
Y1155550D01*
X790540D01*
X789540Y1157963D01*
X787184Y1161034D01*
X784113Y1163391D01*
X780537Y1164872D01*
X776700Y1165377D01*
D02*
G37*
G36*
X756900D02*
X747100D01*
X743263Y1164872D01*
X739687Y1163391D01*
X736616Y1161034D01*
X734260Y1157963D01*
X733260Y1155550D01*
X756900D01*
Y1165377D01*
D02*
G37*
G36*
X1069940Y1145550D02*
X1046300D01*
Y1135723D01*
X1056100D01*
X1059937Y1136228D01*
X1063513Y1137710D01*
X1066584Y1140066D01*
X1068940Y1143137D01*
X1069940Y1145550D01*
D02*
G37*
G36*
X790540Y1145550D02*
X766900D01*
Y1135723D01*
X776700D01*
X780537Y1136228D01*
X784113Y1137710D01*
X787184Y1140066D01*
X789540Y1143137D01*
X790540Y1145550D01*
D02*
G37*
G36*
X756900D02*
X733260D01*
X734260Y1143137D01*
X736616Y1140066D01*
X739687Y1137710D01*
X743263Y1136228D01*
X747100Y1135723D01*
X756900D01*
Y1145550D01*
D02*
G37*
G36*
X267080Y1162105D02*
X264041Y1161806D01*
X261120Y1160919D01*
X258427Y1159480D01*
X256067Y1157543D01*
X254130Y1155183D01*
X252690Y1152490D01*
X251804Y1149568D01*
X251505Y1146530D01*
X251804Y1143492D01*
X252690Y1140570D01*
X254130Y1137877D01*
X256067Y1135517D01*
X258427Y1133580D01*
X261120Y1132141D01*
X264041Y1131254D01*
X267080Y1130955D01*
X270118Y1131254D01*
X273040Y1132141D01*
X275733Y1133580D01*
X278093Y1135517D01*
X280030Y1137877D01*
X281469Y1140570D01*
X282356Y1143492D01*
X282655Y1146530D01*
X282356Y1149568D01*
X281469Y1152490D01*
X280030Y1155183D01*
X278093Y1157543D01*
X275733Y1159480D01*
X273040Y1160919D01*
X270118Y1161806D01*
X267080Y1162105D01*
D02*
G37*
G36*
X433070Y1122698D02*
X431119Y1122310D01*
X429895Y1121492D01*
X428671Y1122310D01*
X426720Y1122698D01*
X424769Y1122310D01*
X423545Y1121492D01*
X422321Y1122310D01*
X420370Y1122698D01*
X418419Y1122310D01*
X417195Y1121492D01*
X415971Y1122310D01*
X414020Y1122698D01*
X412069Y1122310D01*
X410415Y1121205D01*
X409310Y1119551D01*
X408922Y1117600D01*
X409310Y1115649D01*
X410415Y1113995D01*
X412069Y1112890D01*
X414020Y1112502D01*
X415971Y1112890D01*
X417195Y1113708D01*
X418419Y1112890D01*
X420370Y1112502D01*
X422321Y1112890D01*
X423545Y1113708D01*
X424769Y1112890D01*
X426720Y1112502D01*
X428671Y1112890D01*
X429895Y1113708D01*
X431119Y1112890D01*
X433070Y1112502D01*
X435021Y1112890D01*
X436675Y1113995D01*
X437780Y1115649D01*
X438168Y1117600D01*
X437780Y1119551D01*
X436675Y1121205D01*
X435021Y1122310D01*
X433070Y1122698D01*
D02*
G37*
G36*
X272330Y1124093D02*
X269580D01*
Y1114030D01*
X279642D01*
Y1116780D01*
X279393Y1118673D01*
X278663Y1120436D01*
X277501Y1121951D01*
X275986Y1123113D01*
X274223Y1123843D01*
X272330Y1124093D01*
D02*
G37*
G36*
X264580D02*
X261830D01*
X259937Y1123843D01*
X258174Y1123113D01*
X256659Y1121951D01*
X255497Y1120436D01*
X254767Y1118673D01*
X254517Y1116780D01*
Y1114030D01*
X264580D01*
Y1124093D01*
D02*
G37*
G36*
X736600Y1127303D02*
X734089Y1126972D01*
X731749Y1126003D01*
X729739Y1124461D01*
X728197Y1122451D01*
X727228Y1120111D01*
X726897Y1117600D01*
X727228Y1115089D01*
X728197Y1112748D01*
X729739Y1110739D01*
X731749Y1109197D01*
X734089Y1108228D01*
X736600Y1107897D01*
X739111Y1108228D01*
X741451Y1109197D01*
X743461Y1110739D01*
X745003Y1112748D01*
X745972Y1115089D01*
X746303Y1117600D01*
X745972Y1120111D01*
X745003Y1122451D01*
X743461Y1124461D01*
X741451Y1126003D01*
X739111Y1126972D01*
X736600Y1127303D01*
D02*
G37*
G36*
X711200D02*
X708689Y1126972D01*
X706348Y1126003D01*
X704339Y1124461D01*
X702797Y1122451D01*
X701828Y1120111D01*
X701497Y1117600D01*
X701828Y1115089D01*
X702797Y1112748D01*
X704339Y1110739D01*
X706348Y1109197D01*
X708689Y1108228D01*
X711200Y1107897D01*
X713711Y1108228D01*
X716051Y1109197D01*
X718061Y1110739D01*
X719603Y1112748D01*
X720572Y1115089D01*
X720903Y1117600D01*
X720572Y1120111D01*
X719603Y1122451D01*
X718061Y1124461D01*
X716051Y1126003D01*
X713711Y1126972D01*
X711200Y1127303D01*
D02*
G37*
G36*
X685800D02*
X683289Y1126972D01*
X680948Y1126003D01*
X678939Y1124461D01*
X677397Y1122451D01*
X676428Y1120111D01*
X676097Y1117600D01*
X676428Y1115089D01*
X677397Y1112748D01*
X678939Y1110739D01*
X680948Y1109197D01*
X683289Y1108228D01*
X685800Y1107897D01*
X688311Y1108228D01*
X690651Y1109197D01*
X692661Y1110739D01*
X694203Y1112748D01*
X695172Y1115089D01*
X695503Y1117600D01*
X695172Y1120111D01*
X694203Y1122451D01*
X692661Y1124461D01*
X690651Y1126003D01*
X688311Y1126972D01*
X685800Y1127303D01*
D02*
G37*
G36*
X660400D02*
X657889Y1126972D01*
X655548Y1126003D01*
X653539Y1124461D01*
X651997Y1122451D01*
X651028Y1120111D01*
X650697Y1117600D01*
X651028Y1115089D01*
X651997Y1112748D01*
X653539Y1110739D01*
X655548Y1109197D01*
X657889Y1108228D01*
X660400Y1107897D01*
X662911Y1108228D01*
X665251Y1109197D01*
X667261Y1110739D01*
X668803Y1112748D01*
X669772Y1115089D01*
X670103Y1117600D01*
X669772Y1120111D01*
X668803Y1122451D01*
X667261Y1124461D01*
X665251Y1126003D01*
X662911Y1126972D01*
X660400Y1127303D01*
D02*
G37*
G36*
X279642Y1109030D02*
X269580D01*
Y1098967D01*
X272330D01*
X274223Y1099217D01*
X275986Y1099947D01*
X277501Y1101109D01*
X278663Y1102624D01*
X279393Y1104387D01*
X279642Y1106280D01*
Y1109030D01*
D02*
G37*
G36*
X264580D02*
X254517D01*
Y1106280D01*
X254767Y1104387D01*
X255497Y1102624D01*
X256659Y1101109D01*
X258174Y1099947D01*
X259937Y1099217D01*
X261830Y1098967D01*
X264580D01*
Y1109030D01*
D02*
G37*
G36*
X346710Y1087388D02*
X345149Y1087078D01*
X343826Y1086194D01*
X342942Y1084871D01*
X342650Y1083400D01*
X342506Y1083029D01*
X342475Y1082998D01*
X340785D01*
X340754Y1083029D01*
X340610Y1083400D01*
X340318Y1084871D01*
X339434Y1086194D01*
X338111Y1087078D01*
X336550Y1087388D01*
X334989Y1087078D01*
X333666Y1086194D01*
X332782Y1084871D01*
X332472Y1083310D01*
X332782Y1081749D01*
X333666Y1080426D01*
X334989Y1079542D01*
X336460Y1079250D01*
X336831Y1079106D01*
X337426Y1078511D01*
X337570Y1078140D01*
X337862Y1076669D01*
X338746Y1075346D01*
X340069Y1074462D01*
X341630Y1074152D01*
X343191Y1074462D01*
X344514Y1075346D01*
X345398Y1076669D01*
X345690Y1078140D01*
X345834Y1078511D01*
X346429Y1079106D01*
X346800Y1079250D01*
X348271Y1079542D01*
X349594Y1080426D01*
X350478Y1081749D01*
X350788Y1083310D01*
X350478Y1084871D01*
X349594Y1086194D01*
X348271Y1087078D01*
X346710Y1087388D01*
D02*
G37*
G36*
X736600Y1101903D02*
X734089Y1101572D01*
X731749Y1100603D01*
X729739Y1099061D01*
X728197Y1097051D01*
X727228Y1094711D01*
X726897Y1092200D01*
X727228Y1089689D01*
X728197Y1087348D01*
X729739Y1085339D01*
X731749Y1083797D01*
X734089Y1082828D01*
X736600Y1082497D01*
X739111Y1082828D01*
X741451Y1083797D01*
X743461Y1085339D01*
X745003Y1087348D01*
X745972Y1089689D01*
X746303Y1092200D01*
X745972Y1094711D01*
X745003Y1097051D01*
X743461Y1099061D01*
X741451Y1100603D01*
X739111Y1101572D01*
X736600Y1101903D01*
D02*
G37*
G36*
X711200D02*
X708689Y1101572D01*
X706348Y1100603D01*
X704339Y1099061D01*
X702797Y1097051D01*
X701828Y1094711D01*
X701497Y1092200D01*
X701828Y1089689D01*
X702797Y1087348D01*
X704339Y1085339D01*
X706348Y1083797D01*
X708689Y1082828D01*
X711200Y1082497D01*
X713711Y1082828D01*
X716051Y1083797D01*
X718061Y1085339D01*
X719603Y1087348D01*
X720572Y1089689D01*
X720903Y1092200D01*
X720572Y1094711D01*
X719603Y1097051D01*
X718061Y1099061D01*
X716051Y1100603D01*
X713711Y1101572D01*
X711200Y1101903D01*
D02*
G37*
G36*
X685800D02*
X683289Y1101572D01*
X680948Y1100603D01*
X678939Y1099061D01*
X677397Y1097051D01*
X676428Y1094711D01*
X676097Y1092200D01*
X676428Y1089689D01*
X677397Y1087348D01*
X678939Y1085339D01*
X680948Y1083797D01*
X683289Y1082828D01*
X685800Y1082497D01*
X688311Y1082828D01*
X690651Y1083797D01*
X692661Y1085339D01*
X694203Y1087348D01*
X695172Y1089689D01*
X695503Y1092200D01*
X695172Y1094711D01*
X694203Y1097051D01*
X692661Y1099061D01*
X690651Y1100603D01*
X688311Y1101572D01*
X685800Y1101903D01*
D02*
G37*
G36*
X660400D02*
X657889Y1101572D01*
X655548Y1100603D01*
X653539Y1099061D01*
X651997Y1097051D01*
X651028Y1094711D01*
X650697Y1092200D01*
X651028Y1089689D01*
X651997Y1087348D01*
X653539Y1085339D01*
X655548Y1083797D01*
X657889Y1082828D01*
X660400Y1082497D01*
X662911Y1082828D01*
X665251Y1083797D01*
X667261Y1085339D01*
X668803Y1087348D01*
X669772Y1089689D01*
X670103Y1092200D01*
X669772Y1094711D01*
X668803Y1097051D01*
X667261Y1099061D01*
X665251Y1100603D01*
X662911Y1101572D01*
X660400Y1101903D01*
D02*
G37*
G36*
X490220Y1088658D02*
X488659Y1088348D01*
X487336Y1087464D01*
X486452Y1086141D01*
X486142Y1084580D01*
X486452Y1083019D01*
X487336Y1081696D01*
X488659Y1080812D01*
X490220Y1080502D01*
X491781Y1080812D01*
X493104Y1081696D01*
X493988Y1083019D01*
X494298Y1084580D01*
X493988Y1086141D01*
X493104Y1087464D01*
X491781Y1088348D01*
X490220Y1088658D01*
D02*
G37*
G36*
X737600Y1076371D02*
Y1067800D01*
X746171D01*
X745972Y1069311D01*
X745003Y1071652D01*
X743461Y1073661D01*
X741451Y1075203D01*
X739111Y1076172D01*
X737600Y1076371D01*
D02*
G37*
G36*
X735600D02*
X734089Y1076172D01*
X731749Y1075203D01*
X729739Y1073661D01*
X728197Y1071652D01*
X727228Y1069311D01*
X727029Y1067800D01*
X735600D01*
Y1076371D01*
D02*
G37*
G36*
X746171Y1065800D02*
X737600D01*
Y1057229D01*
X739111Y1057428D01*
X741451Y1058397D01*
X743461Y1059939D01*
X745003Y1061948D01*
X745972Y1064289D01*
X746171Y1065800D01*
D02*
G37*
G36*
X735600D02*
X727029D01*
X727228Y1064289D01*
X728197Y1061948D01*
X729739Y1059939D01*
X731749Y1058397D01*
X734089Y1057428D01*
X735600Y1057229D01*
Y1065800D01*
D02*
G37*
G36*
X711200Y1076503D02*
X708689Y1076172D01*
X706348Y1075203D01*
X704339Y1073661D01*
X702797Y1071652D01*
X701828Y1069311D01*
X701497Y1066800D01*
X701828Y1064289D01*
X702797Y1061948D01*
X704339Y1059939D01*
X706348Y1058397D01*
X708689Y1057428D01*
X711200Y1057097D01*
X713711Y1057428D01*
X716051Y1058397D01*
X718061Y1059939D01*
X719603Y1061948D01*
X720572Y1064289D01*
X720903Y1066800D01*
X720572Y1069311D01*
X719603Y1071652D01*
X718061Y1073661D01*
X716051Y1075203D01*
X713711Y1076172D01*
X711200Y1076503D01*
D02*
G37*
G36*
X685800D02*
X683289Y1076172D01*
X680948Y1075203D01*
X678939Y1073661D01*
X677397Y1071652D01*
X676428Y1069311D01*
X676097Y1066800D01*
X676428Y1064289D01*
X677397Y1061948D01*
X678939Y1059939D01*
X680948Y1058397D01*
X683289Y1057428D01*
X685800Y1057097D01*
X688311Y1057428D01*
X690651Y1058397D01*
X692661Y1059939D01*
X694203Y1061948D01*
X695172Y1064289D01*
X695503Y1066800D01*
X695172Y1069311D01*
X694203Y1071652D01*
X692661Y1073661D01*
X690651Y1075203D01*
X688311Y1076172D01*
X685800Y1076503D01*
D02*
G37*
G36*
X660400D02*
X657889Y1076172D01*
X655548Y1075203D01*
X653539Y1073661D01*
X651997Y1071652D01*
X651028Y1069311D01*
X650697Y1066800D01*
X651028Y1064289D01*
X651997Y1061948D01*
X653539Y1059939D01*
X655548Y1058397D01*
X657889Y1057428D01*
X660400Y1057097D01*
X662911Y1057428D01*
X665251Y1058397D01*
X667261Y1059939D01*
X668803Y1061948D01*
X669772Y1064289D01*
X670103Y1066800D01*
X669772Y1069311D01*
X668803Y1071652D01*
X667261Y1073661D01*
X665251Y1075203D01*
X662911Y1076172D01*
X660400Y1076503D01*
D02*
G37*
G36*
X359410Y1064970D02*
X357583Y1064730D01*
X355880Y1064025D01*
X354418Y1062902D01*
X353296Y1061440D01*
X352590Y1059737D01*
X352350Y1057910D01*
X352590Y1056083D01*
X353296Y1054380D01*
X354418Y1052918D01*
X355880Y1051796D01*
X357583Y1051090D01*
X359410Y1050850D01*
X361237Y1051090D01*
X362940Y1051796D01*
X364402Y1052918D01*
X365524Y1054380D01*
X366230Y1056083D01*
X366470Y1057910D01*
X366230Y1059737D01*
X365524Y1061440D01*
X364402Y1062902D01*
X362940Y1064025D01*
X361237Y1064730D01*
X359410Y1064970D01*
D02*
G37*
G36*
X379730Y1057928D02*
X377779Y1057540D01*
X376125Y1056435D01*
X375020Y1054781D01*
X374632Y1052830D01*
X375020Y1050879D01*
X376125Y1049225D01*
X377779Y1048120D01*
X379730Y1047732D01*
X381681Y1048120D01*
X383335Y1049225D01*
X384440Y1050879D01*
X384828Y1052830D01*
X384440Y1054781D01*
X383335Y1056435D01*
X381681Y1057540D01*
X379730Y1057928D01*
D02*
G37*
G36*
X267080Y1073635D02*
X264041Y1073336D01*
X261120Y1072449D01*
X258427Y1071010D01*
X256067Y1069073D01*
X254130Y1066713D01*
X252690Y1064020D01*
X251804Y1061099D01*
X251505Y1058060D01*
X251804Y1055022D01*
X252690Y1052100D01*
X254130Y1049407D01*
X256067Y1047047D01*
X258427Y1045110D01*
X261120Y1043671D01*
X264041Y1042784D01*
X267080Y1042485D01*
X270118Y1042784D01*
X273040Y1043671D01*
X275733Y1045110D01*
X278093Y1047047D01*
X280030Y1049407D01*
X281469Y1052100D01*
X282356Y1055022D01*
X282655Y1058060D01*
X282356Y1061099D01*
X281469Y1064020D01*
X280030Y1066713D01*
X278093Y1069073D01*
X275733Y1071010D01*
X273040Y1072449D01*
X270118Y1073336D01*
X267080Y1073635D01*
D02*
G37*
G36*
X736600Y1051103D02*
X734089Y1050772D01*
X731749Y1049803D01*
X729739Y1048261D01*
X728197Y1046252D01*
X727228Y1043911D01*
X726897Y1041400D01*
X727228Y1038889D01*
X728197Y1036548D01*
X729739Y1034539D01*
X731749Y1032997D01*
X734089Y1032028D01*
X736600Y1031697D01*
X739111Y1032028D01*
X741451Y1032997D01*
X743461Y1034539D01*
X745003Y1036548D01*
X745972Y1038889D01*
X746303Y1041400D01*
X745972Y1043911D01*
X745003Y1046252D01*
X743461Y1048261D01*
X741451Y1049803D01*
X739111Y1050772D01*
X736600Y1051103D01*
D02*
G37*
G36*
X711200D02*
X708689Y1050772D01*
X706348Y1049803D01*
X704339Y1048261D01*
X702797Y1046252D01*
X701828Y1043911D01*
X701497Y1041400D01*
X701828Y1038889D01*
X702797Y1036548D01*
X704339Y1034539D01*
X706348Y1032997D01*
X708689Y1032028D01*
X711200Y1031697D01*
X713711Y1032028D01*
X716051Y1032997D01*
X718061Y1034539D01*
X719603Y1036548D01*
X720572Y1038889D01*
X720903Y1041400D01*
X720572Y1043911D01*
X719603Y1046252D01*
X718061Y1048261D01*
X716051Y1049803D01*
X713711Y1050772D01*
X711200Y1051103D01*
D02*
G37*
G36*
X685800D02*
X683289Y1050772D01*
X680948Y1049803D01*
X678939Y1048261D01*
X677397Y1046252D01*
X676428Y1043911D01*
X676097Y1041400D01*
X676428Y1038889D01*
X677397Y1036548D01*
X678939Y1034539D01*
X680948Y1032997D01*
X683289Y1032028D01*
X685800Y1031697D01*
X688311Y1032028D01*
X690651Y1032997D01*
X692661Y1034539D01*
X694203Y1036548D01*
X695172Y1038889D01*
X695503Y1041400D01*
X695172Y1043911D01*
X694203Y1046252D01*
X692661Y1048261D01*
X690651Y1049803D01*
X688311Y1050772D01*
X685800Y1051103D01*
D02*
G37*
G36*
X660400D02*
X657889Y1050772D01*
X655548Y1049803D01*
X653539Y1048261D01*
X651997Y1046252D01*
X651028Y1043911D01*
X650697Y1041400D01*
X651028Y1038889D01*
X651997Y1036548D01*
X653539Y1034539D01*
X655548Y1032997D01*
X657889Y1032028D01*
X660400Y1031697D01*
X662911Y1032028D01*
X665251Y1032997D01*
X667261Y1034539D01*
X668803Y1036548D01*
X669772Y1038889D01*
X670103Y1041400D01*
X669772Y1043911D01*
X668803Y1046252D01*
X667261Y1048261D01*
X665251Y1049803D01*
X662911Y1050772D01*
X660400Y1051103D01*
D02*
G37*
G36*
X635000D02*
X632489Y1050772D01*
X630149Y1049803D01*
X628139Y1048261D01*
X626597Y1046252D01*
X625628Y1043911D01*
X625297Y1041400D01*
X625628Y1038889D01*
X626597Y1036548D01*
X628139Y1034539D01*
X630149Y1032997D01*
X632489Y1032028D01*
X635000Y1031697D01*
X637511Y1032028D01*
X639851Y1032997D01*
X641861Y1034539D01*
X643403Y1036548D01*
X644372Y1038889D01*
X644703Y1041400D01*
X644372Y1043911D01*
X643403Y1046252D01*
X641861Y1048261D01*
X639851Y1049803D01*
X637511Y1050772D01*
X635000Y1051103D01*
D02*
G37*
G36*
X434180Y1049833D02*
X429420D01*
X426909Y1049502D01*
X424568Y1048533D01*
X422559Y1046991D01*
X421017Y1044982D01*
X420048Y1042641D01*
X419717Y1040130D01*
X420048Y1037619D01*
X421017Y1035278D01*
X422559Y1033269D01*
X424568Y1031727D01*
X426909Y1030758D01*
X429420Y1030427D01*
X434180D01*
X436691Y1030758D01*
X439031Y1031727D01*
X441041Y1033269D01*
X442583Y1035278D01*
X443552Y1037619D01*
X443883Y1040130D01*
X443552Y1042641D01*
X442583Y1044982D01*
X441041Y1046991D01*
X439031Y1048533D01*
X436691Y1049502D01*
X434180Y1049833D01*
D02*
G37*
G36*
X582850Y1042230D02*
X572850D01*
X567850Y1037230D01*
Y1027230D01*
X572850Y1022230D01*
X582850D01*
X587850Y1027230D01*
Y1037230D01*
X582850Y1042230D01*
D02*
G37*
G36*
X267080Y1038635D02*
X264041Y1038336D01*
X261120Y1037449D01*
X258427Y1036010D01*
X256067Y1034073D01*
X254130Y1031713D01*
X252690Y1029020D01*
X251804Y1026099D01*
X251505Y1023060D01*
X251804Y1020022D01*
X252690Y1017100D01*
X254130Y1014407D01*
X256067Y1012047D01*
X258427Y1010110D01*
X261120Y1008671D01*
X264041Y1007784D01*
X267080Y1007485D01*
X270118Y1007784D01*
X273040Y1008671D01*
X275733Y1010110D01*
X278093Y1012047D01*
X280030Y1014407D01*
X281469Y1017100D01*
X282356Y1020022D01*
X282655Y1023060D01*
X282356Y1026099D01*
X281469Y1029020D01*
X280030Y1031713D01*
X278093Y1034073D01*
X275733Y1036010D01*
X273040Y1037449D01*
X270118Y1038336D01*
X267080Y1038635D01*
D02*
G37*
G36*
X736600Y1025703D02*
X734089Y1025372D01*
X731749Y1024403D01*
X729739Y1022861D01*
X728197Y1020852D01*
X727228Y1018511D01*
X726897Y1016000D01*
X727228Y1013489D01*
X728197Y1011149D01*
X729739Y1009139D01*
X731749Y1007597D01*
X734089Y1006628D01*
X736600Y1006297D01*
X739111Y1006628D01*
X741451Y1007597D01*
X743461Y1009139D01*
X745003Y1011149D01*
X745972Y1013489D01*
X746303Y1016000D01*
X745972Y1018511D01*
X745003Y1020852D01*
X743461Y1022861D01*
X741451Y1024403D01*
X739111Y1025372D01*
X736600Y1025703D01*
D02*
G37*
G36*
X711200D02*
X708689Y1025372D01*
X706348Y1024403D01*
X704339Y1022861D01*
X702797Y1020852D01*
X701828Y1018511D01*
X701497Y1016000D01*
X701828Y1013489D01*
X702797Y1011149D01*
X704339Y1009139D01*
X706348Y1007597D01*
X708689Y1006628D01*
X711200Y1006297D01*
X713711Y1006628D01*
X716051Y1007597D01*
X718061Y1009139D01*
X719603Y1011149D01*
X720572Y1013489D01*
X720903Y1016000D01*
X720572Y1018511D01*
X719603Y1020852D01*
X718061Y1022861D01*
X716051Y1024403D01*
X713711Y1025372D01*
X711200Y1025703D01*
D02*
G37*
G36*
X685800D02*
X683289Y1025372D01*
X680948Y1024403D01*
X678939Y1022861D01*
X677397Y1020852D01*
X676428Y1018511D01*
X676097Y1016000D01*
X676428Y1013489D01*
X677397Y1011149D01*
X678939Y1009139D01*
X680948Y1007597D01*
X683289Y1006628D01*
X685800Y1006297D01*
X688311Y1006628D01*
X690651Y1007597D01*
X692661Y1009139D01*
X694203Y1011149D01*
X695172Y1013489D01*
X695503Y1016000D01*
X695172Y1018511D01*
X694203Y1020852D01*
X692661Y1022861D01*
X690651Y1024403D01*
X688311Y1025372D01*
X685800Y1025703D01*
D02*
G37*
G36*
X660400D02*
X657889Y1025372D01*
X655548Y1024403D01*
X653539Y1022861D01*
X651997Y1020852D01*
X651028Y1018511D01*
X650697Y1016000D01*
X651028Y1013489D01*
X651997Y1011149D01*
X653539Y1009139D01*
X655548Y1007597D01*
X657889Y1006628D01*
X660400Y1006297D01*
X662911Y1006628D01*
X665251Y1007597D01*
X667261Y1009139D01*
X668803Y1011149D01*
X669772Y1013489D01*
X670103Y1016000D01*
X669772Y1018511D01*
X668803Y1020852D01*
X667261Y1022861D01*
X665251Y1024403D01*
X662911Y1025372D01*
X660400Y1025703D01*
D02*
G37*
G36*
X635000D02*
X632489Y1025372D01*
X630149Y1024403D01*
X628139Y1022861D01*
X626597Y1020852D01*
X625628Y1018511D01*
X625297Y1016000D01*
X625628Y1013489D01*
X626597Y1011149D01*
X628139Y1009139D01*
X630149Y1007597D01*
X632489Y1006628D01*
X635000Y1006297D01*
X637511Y1006628D01*
X639851Y1007597D01*
X641861Y1009139D01*
X643403Y1011149D01*
X644372Y1013489D01*
X644703Y1016000D01*
X644372Y1018511D01*
X643403Y1020852D01*
X641861Y1022861D01*
X639851Y1024403D01*
X637511Y1025372D01*
X635000Y1025703D01*
D02*
G37*
G36*
X434180Y1024433D02*
X429420D01*
X426909Y1024102D01*
X424568Y1023133D01*
X422559Y1021591D01*
X421017Y1019582D01*
X420048Y1017241D01*
X419717Y1014730D01*
X420048Y1012219D01*
X421017Y1009878D01*
X422559Y1007869D01*
X424568Y1006327D01*
X426909Y1005358D01*
X429420Y1005027D01*
X434180D01*
X436691Y1005358D01*
X439031Y1006327D01*
X441041Y1007869D01*
X442583Y1009878D01*
X443552Y1012219D01*
X443883Y1014730D01*
X443552Y1017241D01*
X442583Y1019582D01*
X441041Y1021591D01*
X439031Y1023133D01*
X436691Y1024102D01*
X434180Y1024433D01*
D02*
G37*
G36*
X514350Y1014748D02*
X512399Y1014360D01*
X510745Y1013255D01*
X509640Y1011601D01*
X509252Y1009650D01*
X509640Y1007699D01*
X510745Y1006045D01*
X512399Y1004940D01*
X514350Y1004552D01*
X516301Y1004940D01*
X517955Y1006045D01*
X519060Y1007699D01*
X519448Y1009650D01*
X519060Y1011601D01*
X517955Y1013255D01*
X516301Y1014360D01*
X514350Y1014748D01*
D02*
G37*
G36*
X386080Y1010938D02*
X384129Y1010550D01*
X382475Y1009445D01*
X381370Y1007791D01*
X380982Y1005840D01*
X381370Y1003889D01*
X382475Y1002235D01*
X384129Y1001130D01*
X386080Y1000742D01*
X388031Y1001130D01*
X389685Y1002235D01*
X390790Y1003889D01*
X391178Y1005840D01*
X390790Y1007791D01*
X389685Y1009445D01*
X388031Y1010550D01*
X386080Y1010938D01*
D02*
G37*
G36*
X578850Y1007185D02*
Y998230D01*
X587805D01*
X587593Y999840D01*
X586585Y1002273D01*
X584982Y1004362D01*
X582893Y1005965D01*
X580461Y1006973D01*
X578850Y1007185D01*
D02*
G37*
G36*
X576850D02*
X575239Y1006973D01*
X572807Y1005965D01*
X570718Y1004362D01*
X569115Y1002273D01*
X568107Y999840D01*
X567895Y998230D01*
X576850D01*
Y1007185D01*
D02*
G37*
G36*
X434180Y999033D02*
X432800D01*
Y990330D01*
X443751D01*
X443552Y991841D01*
X442583Y994182D01*
X441041Y996191D01*
X439031Y997733D01*
X436691Y998702D01*
X434180Y999033D01*
D02*
G37*
G36*
X430800D02*
X429420D01*
X426909Y998702D01*
X424568Y997733D01*
X422559Y996191D01*
X421017Y994182D01*
X420048Y991841D01*
X419849Y990330D01*
X430800D01*
Y999033D01*
D02*
G37*
G36*
X576850Y996230D02*
X567895D01*
X568107Y994620D01*
X569115Y992187D01*
X570718Y990098D01*
X572807Y988495D01*
X575239Y987487D01*
X576850Y987275D01*
Y996230D01*
D02*
G37*
G36*
X587805D02*
X578850D01*
Y987275D01*
X580461Y987487D01*
X582893Y988495D01*
X584982Y990098D01*
X586585Y992187D01*
X587593Y994620D01*
X587805Y996230D01*
D02*
G37*
G36*
X736600Y1000303D02*
X734089Y999972D01*
X731749Y999003D01*
X729739Y997461D01*
X728197Y995452D01*
X727228Y993111D01*
X726897Y990600D01*
X727228Y988089D01*
X728197Y985749D01*
X729739Y983739D01*
X731749Y982197D01*
X734089Y981228D01*
X736600Y980897D01*
X739111Y981228D01*
X741451Y982197D01*
X743461Y983739D01*
X745003Y985749D01*
X745972Y988089D01*
X746303Y990600D01*
X745972Y993111D01*
X745003Y995452D01*
X743461Y997461D01*
X741451Y999003D01*
X739111Y999972D01*
X736600Y1000303D01*
D02*
G37*
G36*
X711200D02*
X708689Y999972D01*
X706348Y999003D01*
X704339Y997461D01*
X702797Y995452D01*
X701828Y993111D01*
X701497Y990600D01*
X701828Y988089D01*
X702797Y985749D01*
X704339Y983739D01*
X706348Y982197D01*
X708689Y981228D01*
X711200Y980897D01*
X713711Y981228D01*
X716051Y982197D01*
X718061Y983739D01*
X719603Y985749D01*
X720572Y988089D01*
X720903Y990600D01*
X720572Y993111D01*
X719603Y995452D01*
X718061Y997461D01*
X716051Y999003D01*
X713711Y999972D01*
X711200Y1000303D01*
D02*
G37*
G36*
X685800D02*
X683289Y999972D01*
X680948Y999003D01*
X678939Y997461D01*
X677397Y995452D01*
X676428Y993111D01*
X676097Y990600D01*
X676428Y988089D01*
X677397Y985749D01*
X678939Y983739D01*
X680948Y982197D01*
X683289Y981228D01*
X685800Y980897D01*
X688311Y981228D01*
X690651Y982197D01*
X692661Y983739D01*
X694203Y985749D01*
X695172Y988089D01*
X695503Y990600D01*
X695172Y993111D01*
X694203Y995452D01*
X692661Y997461D01*
X690651Y999003D01*
X688311Y999972D01*
X685800Y1000303D01*
D02*
G37*
G36*
X660400D02*
X657889Y999972D01*
X655548Y999003D01*
X653539Y997461D01*
X651997Y995452D01*
X651028Y993111D01*
X650697Y990600D01*
X651028Y988089D01*
X651997Y985749D01*
X653539Y983739D01*
X655548Y982197D01*
X657889Y981228D01*
X660400Y980897D01*
X662911Y981228D01*
X665251Y982197D01*
X667261Y983739D01*
X668803Y985749D01*
X669772Y988089D01*
X670103Y990600D01*
X669772Y993111D01*
X668803Y995452D01*
X667261Y997461D01*
X665251Y999003D01*
X662911Y999972D01*
X660400Y1000303D01*
D02*
G37*
G36*
X635000D02*
X632489Y999972D01*
X630149Y999003D01*
X628139Y997461D01*
X626597Y995452D01*
X625628Y993111D01*
X625297Y990600D01*
X625628Y988089D01*
X626597Y985749D01*
X628139Y983739D01*
X630149Y982197D01*
X632489Y981228D01*
X635000Y980897D01*
X637511Y981228D01*
X639851Y982197D01*
X641861Y983739D01*
X643403Y985749D01*
X644372Y988089D01*
X644703Y990600D01*
X644372Y993111D01*
X643403Y995452D01*
X641861Y997461D01*
X639851Y999003D01*
X637511Y999972D01*
X635000Y1000303D01*
D02*
G37*
G36*
X443751Y988330D02*
X432800D01*
Y979627D01*
X434180D01*
X436691Y979958D01*
X439031Y980927D01*
X441041Y982469D01*
X442583Y984479D01*
X443552Y986819D01*
X443751Y988330D01*
D02*
G37*
G36*
X430800D02*
X419849D01*
X420048Y986819D01*
X421017Y984479D01*
X422559Y982469D01*
X424568Y980927D01*
X426909Y979958D01*
X429420Y979627D01*
X430800D01*
Y988330D01*
D02*
G37*
G36*
X267080Y1003635D02*
X264041Y1003336D01*
X261120Y1002449D01*
X258427Y1001010D01*
X256067Y999073D01*
X254130Y996713D01*
X252690Y994020D01*
X251804Y991099D01*
X251505Y988060D01*
X251804Y985022D01*
X252690Y982100D01*
X254130Y979407D01*
X256067Y977047D01*
X258427Y975110D01*
X261120Y973671D01*
X264041Y972784D01*
X267080Y972485D01*
X270118Y972784D01*
X273040Y973671D01*
X275733Y975110D01*
X278093Y977047D01*
X280030Y979407D01*
X281469Y982100D01*
X282356Y985022D01*
X282655Y988060D01*
X282356Y991099D01*
X281469Y994020D01*
X280030Y996713D01*
X278093Y999073D01*
X275733Y1001010D01*
X273040Y1002449D01*
X270118Y1003336D01*
X267080Y1003635D01*
D02*
G37*
G36*
X736600Y974903D02*
X734089Y974572D01*
X731749Y973603D01*
X729739Y972061D01*
X728197Y970051D01*
X727228Y967711D01*
X726897Y965200D01*
X727228Y962689D01*
X728197Y960349D01*
X729739Y958339D01*
X731749Y956797D01*
X734089Y955828D01*
X736600Y955497D01*
X739111Y955828D01*
X741451Y956797D01*
X743461Y958339D01*
X745003Y960349D01*
X745972Y962689D01*
X746303Y965200D01*
X745972Y967711D01*
X745003Y970051D01*
X743461Y972061D01*
X741451Y973603D01*
X739111Y974572D01*
X736600Y974903D01*
D02*
G37*
G36*
X711200D02*
X708689Y974572D01*
X706348Y973603D01*
X704339Y972061D01*
X702797Y970051D01*
X701828Y967711D01*
X701497Y965200D01*
X701828Y962689D01*
X702797Y960349D01*
X704339Y958339D01*
X706348Y956797D01*
X708689Y955828D01*
X711200Y955497D01*
X713711Y955828D01*
X716051Y956797D01*
X718061Y958339D01*
X719603Y960349D01*
X720572Y962689D01*
X720903Y965200D01*
X720572Y967711D01*
X719603Y970051D01*
X718061Y972061D01*
X716051Y973603D01*
X713711Y974572D01*
X711200Y974903D01*
D02*
G37*
G36*
X685800D02*
X683289Y974572D01*
X680948Y973603D01*
X678939Y972061D01*
X677397Y970051D01*
X676428Y967711D01*
X676097Y965200D01*
X676428Y962689D01*
X677397Y960349D01*
X678939Y958339D01*
X680948Y956797D01*
X683289Y955828D01*
X685800Y955497D01*
X688311Y955828D01*
X690651Y956797D01*
X692661Y958339D01*
X694203Y960349D01*
X695172Y962689D01*
X695503Y965200D01*
X695172Y967711D01*
X694203Y970051D01*
X692661Y972061D01*
X690651Y973603D01*
X688311Y974572D01*
X685800Y974903D01*
D02*
G37*
G36*
X660400D02*
X657889Y974572D01*
X655548Y973603D01*
X653539Y972061D01*
X651997Y970051D01*
X651028Y967711D01*
X650697Y965200D01*
X651028Y962689D01*
X651997Y960349D01*
X653539Y958339D01*
X655548Y956797D01*
X657889Y955828D01*
X660400Y955497D01*
X662911Y955828D01*
X665251Y956797D01*
X667261Y958339D01*
X668803Y960349D01*
X669772Y962689D01*
X670103Y965200D01*
X669772Y967711D01*
X668803Y970051D01*
X667261Y972061D01*
X665251Y973603D01*
X662911Y974572D01*
X660400Y974903D01*
D02*
G37*
G36*
X635000D02*
X632489Y974572D01*
X630149Y973603D01*
X628139Y972061D01*
X626597Y970051D01*
X625628Y967711D01*
X625297Y965200D01*
X625628Y962689D01*
X626597Y960349D01*
X628139Y958339D01*
X630149Y956797D01*
X632489Y955828D01*
X635000Y955497D01*
X637511Y955828D01*
X639851Y956797D01*
X641861Y958339D01*
X643403Y960349D01*
X644372Y962689D01*
X644703Y965200D01*
X644372Y967711D01*
X643403Y970051D01*
X641861Y972061D01*
X639851Y973603D01*
X637511Y974572D01*
X635000Y974903D01*
D02*
G37*
G36*
X609600D02*
X607089Y974572D01*
X604748Y973603D01*
X602739Y972061D01*
X601197Y970051D01*
X600228Y967711D01*
X599897Y965200D01*
X600228Y962689D01*
X601197Y960349D01*
X602739Y958339D01*
X604748Y956797D01*
X607089Y955828D01*
X609600Y955497D01*
X612111Y955828D01*
X614451Y956797D01*
X616461Y958339D01*
X618003Y960349D01*
X618972Y962689D01*
X619303Y965200D01*
X618972Y967711D01*
X618003Y970051D01*
X616461Y972061D01*
X614451Y973603D01*
X612111Y974572D01*
X609600Y974903D01*
D02*
G37*
G36*
X434180Y973633D02*
X429420D01*
X426909Y973302D01*
X424568Y972333D01*
X422559Y970791D01*
X421017Y968782D01*
X420048Y966441D01*
X419717Y963930D01*
X420048Y961419D01*
X421017Y959079D01*
X422559Y957069D01*
X424568Y955527D01*
X426909Y954558D01*
X429420Y954227D01*
X434180D01*
X436691Y954558D01*
X439031Y955527D01*
X441041Y957069D01*
X442583Y959079D01*
X443552Y961419D01*
X443883Y963930D01*
X443552Y966441D01*
X442583Y968782D01*
X441041Y970791D01*
X439031Y972333D01*
X436691Y973302D01*
X434180Y973633D01*
D02*
G37*
G36*
X712200Y949371D02*
Y940800D01*
X720771D01*
X720572Y942311D01*
X719603Y944651D01*
X718061Y946661D01*
X716051Y948203D01*
X713711Y949172D01*
X712200Y949371D01*
D02*
G37*
G36*
X710200D02*
X708689Y949172D01*
X706348Y948203D01*
X704339Y946661D01*
X702797Y944651D01*
X701828Y942311D01*
X701629Y940800D01*
X710200D01*
Y949371D01*
D02*
G37*
G36*
X686800D02*
Y940800D01*
X695371D01*
X695172Y942311D01*
X694203Y944651D01*
X692661Y946661D01*
X690651Y948203D01*
X688311Y949172D01*
X686800Y949371D01*
D02*
G37*
G36*
X684800D02*
X683289Y949172D01*
X680948Y948203D01*
X678939Y946661D01*
X677397Y944651D01*
X676428Y942311D01*
X676229Y940800D01*
X684800D01*
Y949371D01*
D02*
G37*
G36*
X661400D02*
Y940800D01*
X669971D01*
X669772Y942311D01*
X668803Y944651D01*
X667261Y946661D01*
X665251Y948203D01*
X662911Y949172D01*
X661400Y949371D01*
D02*
G37*
G36*
X659400D02*
X657889Y949172D01*
X655548Y948203D01*
X653539Y946661D01*
X651997Y944651D01*
X651028Y942311D01*
X650829Y940800D01*
X659400D01*
Y949371D01*
D02*
G37*
G36*
X636000D02*
Y940800D01*
X644571D01*
X644372Y942311D01*
X643403Y944651D01*
X641861Y946661D01*
X639851Y948203D01*
X637511Y949172D01*
X636000Y949371D01*
D02*
G37*
G36*
X634000D02*
X632489Y949172D01*
X630149Y948203D01*
X628139Y946661D01*
X626597Y944651D01*
X625628Y942311D01*
X625429Y940800D01*
X634000D01*
Y949371D01*
D02*
G37*
G36*
X610600D02*
Y940800D01*
X619171D01*
X618972Y942311D01*
X618003Y944651D01*
X616461Y946661D01*
X614451Y948203D01*
X612111Y949172D01*
X610600Y949371D01*
D02*
G37*
G36*
X608600D02*
X607089Y949172D01*
X604748Y948203D01*
X602739Y946661D01*
X601197Y944651D01*
X600228Y942311D01*
X600029Y940800D01*
X608600D01*
Y949371D01*
D02*
G37*
G36*
X267080Y968635D02*
X264041Y968336D01*
X261120Y967449D01*
X258427Y966010D01*
X256067Y964073D01*
X254130Y961713D01*
X252690Y959020D01*
X251804Y956098D01*
X251505Y953060D01*
X251804Y950022D01*
X252690Y947100D01*
X254130Y944407D01*
X256067Y942047D01*
X258427Y940110D01*
X261120Y938671D01*
X264041Y937784D01*
X267080Y937485D01*
X270118Y937784D01*
X273040Y938671D01*
X275733Y940110D01*
X278093Y942047D01*
X280030Y944407D01*
X281469Y947100D01*
X282356Y950022D01*
X282655Y953060D01*
X282356Y956098D01*
X281469Y959020D01*
X280030Y961713D01*
X278093Y964073D01*
X275733Y966010D01*
X273040Y967449D01*
X270118Y968336D01*
X267080Y968635D01*
D02*
G37*
G36*
X498350Y950070D02*
X480350D01*
Y932070D01*
X498350D01*
Y950070D01*
D02*
G37*
G36*
X539350Y950148D02*
X537001Y949838D01*
X534811Y948932D01*
X532931Y947489D01*
X531488Y945609D01*
X530582Y943419D01*
X530272Y941070D01*
X530582Y938720D01*
X531488Y936531D01*
X532931Y934651D01*
X534811Y933208D01*
X537001Y932302D01*
X539350Y931992D01*
X541699Y932302D01*
X543889Y933208D01*
X545769Y934651D01*
X547211Y936531D01*
X548118Y938720D01*
X548428Y941070D01*
X548118Y943419D01*
X547211Y945609D01*
X545769Y947489D01*
X543889Y948932D01*
X541699Y949838D01*
X539350Y950148D01*
D02*
G37*
G36*
X720771Y938800D02*
X712200D01*
Y930229D01*
X713711Y930428D01*
X716051Y931397D01*
X718061Y932939D01*
X719603Y934949D01*
X720572Y937289D01*
X720771Y938800D01*
D02*
G37*
G36*
X710200D02*
X701629D01*
X701828Y937289D01*
X702797Y934949D01*
X704339Y932939D01*
X706348Y931397D01*
X708689Y930428D01*
X710200Y930229D01*
Y938800D01*
D02*
G37*
G36*
X695371D02*
X686800D01*
Y930229D01*
X688311Y930428D01*
X690651Y931397D01*
X692661Y932939D01*
X694203Y934949D01*
X695172Y937289D01*
X695371Y938800D01*
D02*
G37*
G36*
X684800D02*
X676229D01*
X676428Y937289D01*
X677397Y934949D01*
X678939Y932939D01*
X680948Y931397D01*
X683289Y930428D01*
X684800Y930229D01*
Y938800D01*
D02*
G37*
G36*
X669971D02*
X661400D01*
Y930229D01*
X662911Y930428D01*
X665251Y931397D01*
X667261Y932939D01*
X668803Y934949D01*
X669772Y937289D01*
X669971Y938800D01*
D02*
G37*
G36*
X659400D02*
X650829D01*
X651028Y937289D01*
X651997Y934949D01*
X653539Y932939D01*
X655548Y931397D01*
X657889Y930428D01*
X659400Y930229D01*
Y938800D01*
D02*
G37*
G36*
X644571D02*
X636000D01*
Y930229D01*
X637511Y930428D01*
X639851Y931397D01*
X641861Y932939D01*
X643403Y934949D01*
X644372Y937289D01*
X644571Y938800D01*
D02*
G37*
G36*
X634000D02*
X625429D01*
X625628Y937289D01*
X626597Y934949D01*
X628139Y932939D01*
X630149Y931397D01*
X632489Y930428D01*
X634000Y930229D01*
Y938800D01*
D02*
G37*
G36*
X619171D02*
X610600D01*
Y930229D01*
X612111Y930428D01*
X614451Y931397D01*
X616461Y932939D01*
X618003Y934949D01*
X618972Y937289D01*
X619171Y938800D01*
D02*
G37*
G36*
X608600D02*
X600029D01*
X600228Y937289D01*
X601197Y934949D01*
X602739Y932939D01*
X604748Y931397D01*
X607089Y930428D01*
X608600Y930229D01*
Y938800D01*
D02*
G37*
G36*
X1056100Y935377D02*
X1046300D01*
Y925550D01*
X1069940D01*
X1068940Y927963D01*
X1066584Y931034D01*
X1063513Y933391D01*
X1059937Y934872D01*
X1056100Y935377D01*
D02*
G37*
G36*
X776700D02*
X766900D01*
Y925550D01*
X790540D01*
X789540Y927963D01*
X787184Y931034D01*
X784113Y933391D01*
X780537Y934872D01*
X776700Y935377D01*
D02*
G37*
G36*
X756900D02*
X747100D01*
X743263Y934872D01*
X739687Y933391D01*
X736616Y931034D01*
X734260Y927963D01*
X733260Y925550D01*
X756900D01*
Y935377D01*
D02*
G37*
G36*
X461010Y942358D02*
X459059Y941970D01*
X457405Y940865D01*
X456300Y939211D01*
X455912Y937260D01*
X456300Y935309D01*
X457118Y934085D01*
X456300Y932861D01*
X455912Y930910D01*
X456300Y928959D01*
X457118Y927735D01*
X456300Y926511D01*
X455912Y924560D01*
X456300Y922609D01*
X457118Y921385D01*
X456300Y920161D01*
X455912Y918210D01*
X456300Y916259D01*
X457118Y915035D01*
X456300Y913811D01*
X455912Y911860D01*
X456300Y909909D01*
X457405Y908255D01*
X459059Y907150D01*
X461010Y906762D01*
X462961Y907150D01*
X464615Y908255D01*
X465720Y909909D01*
X466108Y911860D01*
X465720Y913811D01*
X464902Y915035D01*
X465720Y916259D01*
X466108Y918210D01*
X465720Y920161D01*
X464902Y921385D01*
X465720Y922609D01*
X466108Y924560D01*
X465720Y926511D01*
X464902Y927735D01*
X465720Y928959D01*
X466108Y930910D01*
X465720Y932861D01*
X464902Y934085D01*
X465720Y935309D01*
X466108Y937260D01*
X465720Y939211D01*
X464615Y940865D01*
X462961Y941970D01*
X461010Y942358D01*
D02*
G37*
G36*
X1069940Y915550D02*
X1046300D01*
Y905723D01*
X1056100D01*
X1059937Y906228D01*
X1063513Y907710D01*
X1066584Y910066D01*
X1068940Y913137D01*
X1069940Y915550D01*
D02*
G37*
G36*
X790540D02*
X766900D01*
Y905723D01*
X776700D01*
X780537Y906228D01*
X784113Y907710D01*
X787184Y910066D01*
X789540Y913137D01*
X790540Y915550D01*
D02*
G37*
G36*
X756900D02*
X733260D01*
X734260Y913137D01*
X736616Y910066D01*
X739687Y907710D01*
X743263Y906228D01*
X747100Y905723D01*
X756900D01*
Y915550D01*
D02*
G37*
G36*
X711200Y924103D02*
X708689Y923772D01*
X706348Y922803D01*
X704339Y921261D01*
X702797Y919251D01*
X701828Y916911D01*
X701497Y914400D01*
X701828Y911889D01*
X702797Y909548D01*
X704339Y907539D01*
X706348Y905997D01*
X708689Y905028D01*
X711200Y904697D01*
X713711Y905028D01*
X716051Y905997D01*
X718061Y907539D01*
X719603Y909548D01*
X720572Y911889D01*
X720903Y914400D01*
X720572Y916911D01*
X719603Y919251D01*
X718061Y921261D01*
X716051Y922803D01*
X713711Y923772D01*
X711200Y924103D01*
D02*
G37*
G36*
X685800D02*
X683289Y923772D01*
X680948Y922803D01*
X678939Y921261D01*
X677397Y919251D01*
X676428Y916911D01*
X676097Y914400D01*
X676428Y911889D01*
X677397Y909548D01*
X678939Y907539D01*
X680948Y905997D01*
X683289Y905028D01*
X685800Y904697D01*
X688311Y905028D01*
X690651Y905997D01*
X692661Y907539D01*
X694203Y909548D01*
X695172Y911889D01*
X695503Y914400D01*
X695172Y916911D01*
X694203Y919251D01*
X692661Y921261D01*
X690651Y922803D01*
X688311Y923772D01*
X685800Y924103D01*
D02*
G37*
G36*
X660400D02*
X657889Y923772D01*
X655548Y922803D01*
X653539Y921261D01*
X651997Y919251D01*
X651028Y916911D01*
X650697Y914400D01*
X651028Y911889D01*
X651997Y909548D01*
X653539Y907539D01*
X655548Y905997D01*
X657889Y905028D01*
X660400Y904697D01*
X662911Y905028D01*
X665251Y905997D01*
X667261Y907539D01*
X668803Y909548D01*
X669772Y911889D01*
X670103Y914400D01*
X669772Y916911D01*
X668803Y919251D01*
X667261Y921261D01*
X665251Y922803D01*
X662911Y923772D01*
X660400Y924103D01*
D02*
G37*
G36*
X635000D02*
X632489Y923772D01*
X630149Y922803D01*
X628139Y921261D01*
X626597Y919251D01*
X625628Y916911D01*
X625297Y914400D01*
X625628Y911889D01*
X626597Y909548D01*
X628139Y907539D01*
X630149Y905997D01*
X632489Y905028D01*
X635000Y904697D01*
X637511Y905028D01*
X639851Y905997D01*
X641861Y907539D01*
X643403Y909548D01*
X644372Y911889D01*
X644703Y914400D01*
X644372Y916911D01*
X643403Y919251D01*
X641861Y921261D01*
X639851Y922803D01*
X637511Y923772D01*
X635000Y924103D01*
D02*
G37*
G36*
X609600D02*
X607089Y923772D01*
X604748Y922803D01*
X602739Y921261D01*
X601197Y919251D01*
X600228Y916911D01*
X599897Y914400D01*
X600228Y911889D01*
X601197Y909548D01*
X602739Y907539D01*
X604748Y905997D01*
X607089Y905028D01*
X609600Y904697D01*
X612111Y905028D01*
X614451Y905997D01*
X616461Y907539D01*
X618003Y909548D01*
X618972Y911889D01*
X619303Y914400D01*
X618972Y916911D01*
X618003Y919251D01*
X616461Y921261D01*
X614451Y922803D01*
X612111Y923772D01*
X609600Y924103D01*
D02*
G37*
G36*
X272330Y933649D02*
X261830D01*
X259154Y933296D01*
X256661Y932263D01*
X254520Y930620D01*
X252876Y928479D01*
X251844Y925986D01*
X251491Y923310D01*
Y912810D01*
X251844Y910134D01*
X252876Y907641D01*
X254520Y905500D01*
X256661Y903857D01*
X259154Y902824D01*
X261830Y902472D01*
X272330D01*
X275006Y902824D01*
X277499Y903857D01*
X279640Y905500D01*
X281283Y907641D01*
X282316Y910134D01*
X282668Y912810D01*
Y923310D01*
X282316Y925986D01*
X281283Y928479D01*
X279640Y930620D01*
X277499Y932263D01*
X275006Y933296D01*
X272330Y933649D01*
D02*
G37*
G36*
X551180Y908068D02*
X549229Y907680D01*
X547575Y906575D01*
X546470Y904921D01*
X546082Y902970D01*
X546470Y901019D01*
X547575Y899365D01*
X549229Y898260D01*
X551180Y897872D01*
X553131Y898260D01*
X554785Y899365D01*
X555890Y901019D01*
X556278Y902970D01*
X555890Y904921D01*
X554785Y906575D01*
X553131Y907680D01*
X551180Y908068D01*
D02*
G37*
G36*
X524510Y894348D02*
X522949Y894038D01*
X521626Y893154D01*
X520742Y891831D01*
X520432Y890270D01*
X520742Y888709D01*
X521626Y887386D01*
X522949Y886502D01*
X524510Y886192D01*
X526071Y886502D01*
X527394Y887386D01*
X528278Y888709D01*
X528588Y890270D01*
X528278Y891831D01*
X527394Y893154D01*
X526071Y894038D01*
X524510Y894348D01*
D02*
G37*
G36*
X614680Y889018D02*
X612729Y888630D01*
X611075Y887525D01*
X609970Y885871D01*
X609582Y883920D01*
X609970Y881969D01*
X610058Y881838D01*
X609142Y880922D01*
X609011Y881010D01*
X607060Y881398D01*
X605109Y881010D01*
X603455Y879905D01*
X602350Y878251D01*
X601962Y876300D01*
X602350Y874349D01*
X603455Y872695D01*
X605109Y871590D01*
X607060Y871202D01*
X609011Y871590D01*
X610665Y872695D01*
X611075D01*
X612729Y871590D01*
X614680Y871202D01*
X616631Y871590D01*
X618285Y872695D01*
X619390Y874349D01*
X619778Y876300D01*
X619390Y878251D01*
X618801Y879133D01*
X618374Y880110D01*
X618801Y881087D01*
X619390Y881969D01*
X619778Y883920D01*
X619390Y885871D01*
X618285Y887525D01*
X616631Y888630D01*
X614680Y889018D01*
D02*
G37*
G36*
X711200Y898703D02*
X708689Y898372D01*
X706348Y897403D01*
X704339Y895861D01*
X702797Y893851D01*
X701828Y891511D01*
X701497Y889000D01*
X701828Y886489D01*
X702797Y884148D01*
X704339Y882139D01*
X706348Y880597D01*
X708689Y879628D01*
X711200Y879297D01*
X713711Y879628D01*
X716051Y880597D01*
X718061Y882139D01*
X719603Y884148D01*
X720572Y886489D01*
X720903Y889000D01*
X720572Y891511D01*
X719603Y893851D01*
X718061Y895861D01*
X716051Y897403D01*
X713711Y898372D01*
X711200Y898703D01*
D02*
G37*
G36*
X316230Y885208D02*
X314279Y884820D01*
X312625Y883715D01*
X311520Y882061D01*
X311132Y880110D01*
X311520Y878159D01*
X312625Y876505D01*
X314279Y875400D01*
X316230Y875012D01*
X318181Y875400D01*
X319835Y876505D01*
X320940Y878159D01*
X321328Y880110D01*
X320940Y882061D01*
X319835Y883715D01*
X318181Y884820D01*
X316230Y885208D01*
D02*
G37*
G36*
X673100Y882918D02*
X671539Y882608D01*
X670216Y881724D01*
X669332Y880401D01*
X669022Y878840D01*
X669332Y877279D01*
X670216Y875956D01*
X671539Y875072D01*
X673100Y874762D01*
X674661Y875072D01*
X675984Y875956D01*
X676868Y877279D01*
X677178Y878840D01*
X676868Y880401D01*
X675984Y881724D01*
X674661Y882608D01*
X673100Y882918D01*
D02*
G37*
G36*
X364490Y887135D02*
X362206Y886835D01*
X360077Y885953D01*
X358249Y884551D01*
X356847Y882723D01*
X355965Y880594D01*
X355664Y878310D01*
X355965Y876026D01*
X356847Y873897D01*
X358249Y872069D01*
X360077Y870667D01*
X362206Y869785D01*
X362952Y869687D01*
X362994Y868400D01*
X362539Y868310D01*
X360885Y867205D01*
X360475D01*
X358821Y868310D01*
X356870Y868698D01*
X354919Y868310D01*
X353265Y867205D01*
X352855D01*
X351201Y868310D01*
X349250Y868698D01*
X347299Y868310D01*
X345645Y867205D01*
X344540Y865551D01*
X344152Y863600D01*
X344540Y861649D01*
X345645Y859995D01*
X347299Y858890D01*
X349250Y858502D01*
X351201Y858890D01*
X352855Y859995D01*
X353265D01*
X354919Y858890D01*
X356870Y858502D01*
X358821Y858890D01*
X360475Y859995D01*
X360885D01*
X362539Y858890D01*
X364490Y858502D01*
X366441Y858890D01*
X368095Y859995D01*
X369200Y861649D01*
X369588Y863600D01*
X369200Y865551D01*
X368095Y867205D01*
X366441Y868310D01*
X365986Y868400D01*
X366028Y869687D01*
X366774Y869785D01*
X368903Y870667D01*
X370731Y872069D01*
X372133Y873897D01*
X373015Y876026D01*
X373316Y878310D01*
X373015Y880594D01*
X372133Y882723D01*
X370731Y884551D01*
X368903Y885953D01*
X366774Y886835D01*
X364490Y887135D01*
D02*
G37*
G36*
X268580Y876720D02*
Y865810D01*
X279490D01*
X279258Y867573D01*
X277999Y870614D01*
X275995Y873225D01*
X273384Y875229D01*
X270343Y876488D01*
X268580Y876720D01*
D02*
G37*
G36*
X265580Y876720D02*
X263817Y876488D01*
X260776Y875229D01*
X258165Y873225D01*
X256161Y870614D01*
X254902Y867573D01*
X254669Y865810D01*
X265580D01*
Y876720D01*
D02*
G37*
G36*
X711200Y873303D02*
X708689Y872972D01*
X706348Y872003D01*
X704339Y870461D01*
X702797Y868452D01*
X701828Y866111D01*
X701497Y863600D01*
X701828Y861089D01*
X702797Y858748D01*
X704339Y856739D01*
X706348Y855197D01*
X708689Y854228D01*
X711200Y853897D01*
X713711Y854228D01*
X716051Y855197D01*
X718061Y856739D01*
X719603Y858748D01*
X720572Y861089D01*
X720903Y863600D01*
X720572Y866111D01*
X719603Y868452D01*
X718061Y870461D01*
X716051Y872003D01*
X713711Y872972D01*
X711200Y873303D01*
D02*
G37*
G36*
X469900Y861328D02*
X468339Y861018D01*
X467016Y860134D01*
X466132Y858811D01*
X465822Y857250D01*
X466132Y855689D01*
X467016Y854366D01*
X468339Y853482D01*
X469900Y853172D01*
X471461Y853482D01*
X472784Y854366D01*
X473668Y855689D01*
X473978Y857250D01*
X473668Y858811D01*
X472784Y860134D01*
X471461Y861018D01*
X469900Y861328D01*
D02*
G37*
G36*
X458470Y860058D02*
X456909Y859748D01*
X455586Y858864D01*
X454702Y857541D01*
X454392Y855980D01*
X454702Y854419D01*
X455586Y853096D01*
X456909Y852212D01*
X458470Y851902D01*
X460031Y852212D01*
X461354Y853096D01*
X462238Y854419D01*
X462548Y855980D01*
X462238Y857541D01*
X461354Y858864D01*
X460031Y859748D01*
X458470Y860058D01*
D02*
G37*
G36*
X265580Y862810D02*
X254669D01*
X254902Y861047D01*
X256161Y858006D01*
X258165Y855395D01*
X260776Y853391D01*
X263817Y852132D01*
X265580Y851900D01*
Y862810D01*
D02*
G37*
G36*
X279490D02*
X268580D01*
Y851900D01*
X270343Y852132D01*
X273384Y853391D01*
X275995Y855395D01*
X277999Y858006D01*
X279258Y861047D01*
X279490Y862810D01*
D02*
G37*
G36*
X519430Y858788D02*
X517869Y858478D01*
X516546Y857594D01*
X515662Y856271D01*
X515352Y854710D01*
X515662Y853149D01*
X516546Y851826D01*
X517869Y850942D01*
X519430Y850632D01*
X520991Y850942D01*
X522314Y851826D01*
X523198Y853149D01*
X523508Y854710D01*
X523198Y856271D01*
X522314Y857594D01*
X520991Y858478D01*
X519430Y858788D01*
D02*
G37*
G36*
X568960Y854978D02*
X567399Y854668D01*
X566076Y853784D01*
X565192Y852461D01*
X564882Y850900D01*
X565192Y849339D01*
X566076Y848016D01*
X567399Y847132D01*
X568960Y846822D01*
X570521Y847132D01*
X571844Y848016D01*
X572728Y849339D01*
X573038Y850900D01*
X572728Y852461D01*
X571844Y853784D01*
X570521Y854668D01*
X568960Y854978D01*
D02*
G37*
G36*
X600710Y866408D02*
X599149Y866098D01*
X597826Y865214D01*
X596942Y863891D01*
X596632Y862330D01*
X596942Y860769D01*
X597390Y860099D01*
X597723Y859155D01*
X597390Y858211D01*
X596942Y857541D01*
X596632Y855980D01*
X596942Y854419D01*
X597826Y853096D01*
X598069Y852934D01*
Y851406D01*
X597826Y851244D01*
X596942Y849921D01*
X596632Y848360D01*
X596942Y846799D01*
X597826Y845476D01*
X599149Y844592D01*
X600710Y844282D01*
X602271Y844592D01*
X603594Y845476D01*
X604478Y846799D01*
X604788Y848360D01*
X604478Y849921D01*
X603594Y851244D01*
X603351Y851406D01*
Y852934D01*
X603594Y853096D01*
X604478Y854419D01*
X604788Y855980D01*
X604478Y857541D01*
X604030Y858211D01*
X603697Y859155D01*
X604030Y860099D01*
X604478Y860769D01*
X604788Y862330D01*
X604478Y863891D01*
X603594Y865214D01*
X602271Y866098D01*
X600710Y866408D01*
D02*
G37*
G36*
X464820Y851168D02*
X463259Y850858D01*
X461936Y849974D01*
X461052Y848651D01*
X460742Y847090D01*
X461052Y845529D01*
X461936Y844206D01*
X463259Y843322D01*
X464820Y843012D01*
X466381Y843322D01*
X467704Y844206D01*
X468588Y845529D01*
X468898Y847090D01*
X468588Y848651D01*
X467704Y849974D01*
X466381Y850858D01*
X464820Y851168D01*
D02*
G37*
G36*
X673100Y844818D02*
X671539Y844508D01*
X670216Y843624D01*
X669332Y842301D01*
X669022Y840740D01*
X669332Y839179D01*
X670216Y837856D01*
X671539Y836972D01*
X673100Y836662D01*
X674661Y836972D01*
X675984Y837856D01*
X676868Y839179D01*
X677178Y840740D01*
X676868Y842301D01*
X675984Y843624D01*
X674661Y844508D01*
X673100Y844818D01*
D02*
G37*
G36*
X554990Y857518D02*
X553429Y857208D01*
X552106Y856324D01*
X551222Y855001D01*
X550912Y853440D01*
X551128Y852354D01*
X551152Y851812D01*
X550288Y850991D01*
X549619Y850858D01*
X548296Y849974D01*
X547412Y848651D01*
X547120Y847180D01*
X546976Y846809D01*
X546381Y846214D01*
X546010Y846070D01*
X544539Y845778D01*
X543216Y844894D01*
X542332Y843571D01*
X542022Y842010D01*
X542238Y840924D01*
X542262Y840382D01*
X541398Y839561D01*
X540729Y839428D01*
X539406Y838544D01*
X538522Y837221D01*
X538212Y835660D01*
X538522Y834099D01*
X539406Y832776D01*
X540729Y831892D01*
X542290Y831582D01*
X543851Y831892D01*
X545174Y832776D01*
X546058Y834099D01*
X546368Y835660D01*
X546152Y836746D01*
X546128Y837288D01*
X546992Y838109D01*
X547661Y838242D01*
X548984Y839126D01*
X549868Y840449D01*
X550160Y841920D01*
X550304Y842291D01*
X550899Y842886D01*
X551270Y843030D01*
X552741Y843322D01*
X554064Y844206D01*
X554948Y845529D01*
X555258Y847090D01*
X555042Y848176D01*
X555018Y848718D01*
X555882Y849539D01*
X556551Y849672D01*
X557874Y850556D01*
X558758Y851879D01*
X559068Y853440D01*
X558758Y855001D01*
X557874Y856324D01*
X556551Y857208D01*
X554990Y857518D01*
D02*
G37*
G36*
X384810Y838468D02*
X383249Y838158D01*
X381926Y837274D01*
X381042Y835951D01*
X380732Y834390D01*
X381042Y832829D01*
X381926Y831506D01*
X383249Y830622D01*
X384810Y830312D01*
X386371Y830622D01*
X387694Y831506D01*
X388578Y832829D01*
X388888Y834390D01*
X388578Y835951D01*
X387694Y837274D01*
X386371Y838158D01*
X384810Y838468D01*
D02*
G37*
G36*
X711200Y847903D02*
X708689Y847572D01*
X706348Y846603D01*
X704339Y845061D01*
X702797Y843052D01*
X701828Y840711D01*
X701497Y838200D01*
X701828Y835689D01*
X702797Y833348D01*
X704339Y831339D01*
X706348Y829797D01*
X708689Y828828D01*
X711200Y828497D01*
X713711Y828828D01*
X716051Y829797D01*
X718061Y831339D01*
X719603Y833348D01*
X720572Y835689D01*
X720903Y838200D01*
X720572Y840711D01*
X719603Y843052D01*
X718061Y845061D01*
X716051Y846603D01*
X713711Y847572D01*
X711200Y847903D01*
D02*
G37*
G36*
X552450Y834658D02*
X550889Y834348D01*
X549566Y833464D01*
X548682Y832141D01*
X548372Y830580D01*
X548682Y829019D01*
X549566Y827696D01*
X550889Y826812D01*
X552450Y826502D01*
X554011Y826812D01*
X555334Y827696D01*
X556218Y829019D01*
X556528Y830580D01*
X556218Y832141D01*
X555334Y833464D01*
X554011Y834348D01*
X552450Y834658D01*
D02*
G37*
G36*
X384810Y827038D02*
X383249Y826728D01*
X381926Y825844D01*
X381042Y824521D01*
X380732Y822960D01*
X381042Y821399D01*
X381926Y820076D01*
X383249Y819192D01*
X384810Y818882D01*
X386371Y819192D01*
X387694Y820076D01*
X388578Y821399D01*
X388888Y822960D01*
X388578Y824521D01*
X387694Y825844D01*
X386371Y826728D01*
X384810Y827038D01*
D02*
G37*
G36*
X267080Y841918D02*
X263817Y841488D01*
X260776Y840229D01*
X258165Y838225D01*
X256161Y835614D01*
X254902Y832573D01*
X254472Y829310D01*
X254902Y826047D01*
X256161Y823006D01*
X258165Y820395D01*
X260776Y818391D01*
X263817Y817132D01*
X267080Y816702D01*
X270343Y817132D01*
X273384Y818391D01*
X275995Y820395D01*
X277999Y823006D01*
X279258Y826047D01*
X279688Y829310D01*
X279258Y832573D01*
X277999Y835614D01*
X275995Y838225D01*
X273384Y840229D01*
X270343Y841488D01*
X267080Y841918D01*
D02*
G37*
G36*
X377190Y820688D02*
X375629Y820378D01*
X374306Y819494D01*
X373422Y818171D01*
X373112Y816610D01*
X373422Y815049D01*
X374306Y813726D01*
X375629Y812842D01*
X377190Y812532D01*
X378751Y812842D01*
X380074Y813726D01*
X380958Y815049D01*
X381268Y816610D01*
X380958Y818171D01*
X380074Y819494D01*
X378751Y820378D01*
X377190Y820688D01*
D02*
G37*
G36*
X711200Y822503D02*
X708689Y822172D01*
X706348Y821203D01*
X704339Y819661D01*
X702797Y817652D01*
X701828Y815311D01*
X701497Y812800D01*
X701828Y810289D01*
X702797Y807949D01*
X704339Y805939D01*
X706348Y804397D01*
X708689Y803428D01*
X711200Y803097D01*
X713711Y803428D01*
X716051Y804397D01*
X718061Y805939D01*
X719603Y807949D01*
X720572Y810289D01*
X720903Y812800D01*
X720572Y815311D01*
X719603Y817652D01*
X718061Y819661D01*
X716051Y821203D01*
X713711Y822172D01*
X711200Y822503D01*
D02*
G37*
G36*
X566420Y809258D02*
X564859Y808948D01*
X563536Y808064D01*
X562652Y806741D01*
X562342Y805180D01*
X562652Y803619D01*
X563536Y802296D01*
X564859Y801412D01*
X566420Y801102D01*
X567981Y801412D01*
X569304Y802296D01*
X570188Y803619D01*
X570498Y805180D01*
X570188Y806741D01*
X569304Y808064D01*
X567981Y808948D01*
X566420Y809258D01*
D02*
G37*
G36*
X673100Y806718D02*
X671539Y806408D01*
X670216Y805524D01*
X669332Y804201D01*
X669022Y802640D01*
X669332Y801079D01*
X670216Y799756D01*
X671539Y798872D01*
X673100Y798562D01*
X674661Y798872D01*
X675984Y799756D01*
X676868Y801079D01*
X677178Y802640D01*
X676868Y804201D01*
X675984Y805524D01*
X674661Y806408D01*
X673100Y806718D01*
D02*
G37*
G36*
X449580Y821958D02*
X448019Y821648D01*
X446696Y820764D01*
X445812Y819441D01*
X445502Y817880D01*
X445812Y816319D01*
X446696Y814996D01*
X448019Y814112D01*
X449490Y813820D01*
X449861Y813676D01*
X450456Y813081D01*
X450600Y812710D01*
X450892Y811239D01*
X451776Y809916D01*
X453099Y809032D01*
X454594Y808735D01*
X454392Y807720D01*
X454702Y806159D01*
X455586Y804836D01*
X456909Y803952D01*
X458404Y803655D01*
X458202Y802640D01*
X458512Y801079D01*
X459396Y799756D01*
X460719Y798872D01*
X462280Y798562D01*
X463841Y798872D01*
X465164Y799756D01*
X466048Y801079D01*
X466358Y802640D01*
X466048Y804201D01*
X465164Y805524D01*
X463841Y806408D01*
X462346Y806705D01*
X462548Y807720D01*
X462238Y809281D01*
X461354Y810604D01*
X460031Y811488D01*
X458536Y811785D01*
X458738Y812800D01*
X458428Y814361D01*
X457544Y815684D01*
X456221Y816568D01*
X454750Y816860D01*
X454379Y817004D01*
X453784Y817599D01*
X453640Y817970D01*
X453348Y819441D01*
X452464Y820764D01*
X451141Y821648D01*
X449580Y821958D01*
D02*
G37*
G36*
X601980Y811548D02*
X600029Y811160D01*
X598375Y810055D01*
X597270Y808401D01*
X596882Y806450D01*
X597270Y804499D01*
X597859Y803617D01*
X598286Y802640D01*
X597859Y801663D01*
X597270Y800781D01*
X596882Y798830D01*
X597270Y796879D01*
X598375Y795225D01*
X600029Y794120D01*
X601980Y793732D01*
X603931Y794120D01*
X605585Y795225D01*
X606690Y796879D01*
X607078Y798830D01*
X606690Y800781D01*
X606101Y801663D01*
X605674Y802640D01*
X606101Y803617D01*
X606690Y804499D01*
X607078Y806450D01*
X606690Y808401D01*
X605585Y810055D01*
X603931Y811160D01*
X601980Y811548D01*
D02*
G37*
G36*
X541020Y802908D02*
X539459Y802598D01*
X538136Y801714D01*
X537252Y800391D01*
X536942Y798830D01*
X537252Y797269D01*
X538136Y795946D01*
X538379Y795784D01*
Y794256D01*
X538136Y794094D01*
X537252Y792771D01*
X536942Y791210D01*
X537252Y789649D01*
X538136Y788326D01*
X539459Y787442D01*
X541020Y787132D01*
X542581Y787442D01*
X543904Y788326D01*
X544788Y789649D01*
X545098Y791210D01*
X544788Y792771D01*
X543904Y794094D01*
X543661Y794256D01*
Y795784D01*
X543904Y795946D01*
X544788Y797269D01*
X545098Y798830D01*
X544788Y800391D01*
X543904Y801714D01*
X542581Y802598D01*
X541020Y802908D01*
D02*
G37*
G36*
X272330Y806873D02*
X261830D01*
X259937Y806623D01*
X258174Y805893D01*
X256659Y804731D01*
X255497Y803216D01*
X254767Y801453D01*
X254517Y799560D01*
Y789060D01*
X254767Y787167D01*
X255497Y785404D01*
X256659Y783889D01*
X258174Y782727D01*
X259937Y781997D01*
X261830Y781748D01*
X272330D01*
X274223Y781997D01*
X275986Y782727D01*
X277501Y783889D01*
X278663Y785404D01*
X279393Y787167D01*
X279642Y789060D01*
Y799560D01*
X279393Y801453D01*
X278663Y803216D01*
X277501Y804731D01*
X275986Y805893D01*
X274223Y806623D01*
X272330Y806873D01*
D02*
G37*
G36*
X711200Y797103D02*
X708689Y796772D01*
X706348Y795803D01*
X704339Y794261D01*
X702797Y792252D01*
X701828Y789911D01*
X701497Y787400D01*
X701828Y784889D01*
X702797Y782549D01*
X704339Y780539D01*
X706348Y778997D01*
X708689Y778028D01*
X711200Y777697D01*
X713711Y778028D01*
X716051Y778997D01*
X718061Y780539D01*
X719603Y782549D01*
X720572Y784889D01*
X720903Y787400D01*
X720572Y789911D01*
X719603Y792252D01*
X718061Y794261D01*
X716051Y795803D01*
X713711Y796772D01*
X711200Y797103D01*
D02*
G37*
G36*
X364490Y789136D02*
X362206Y788835D01*
X360077Y787953D01*
X358249Y786551D01*
X356847Y784723D01*
X355965Y782594D01*
X355664Y780310D01*
X355965Y778026D01*
X356847Y775897D01*
X358249Y774069D01*
X360077Y772667D01*
X362206Y771785D01*
X364490Y771485D01*
X366774Y771785D01*
X368903Y772667D01*
X370731Y774069D01*
X372133Y775897D01*
X373015Y778026D01*
X373316Y780310D01*
X373015Y782594D01*
X372133Y784723D01*
X370731Y786551D01*
X368903Y787953D01*
X366774Y788835D01*
X364490Y789136D01*
D02*
G37*
G36*
X610870Y775988D02*
X608919Y775600D01*
X607265Y774495D01*
X606160Y772841D01*
X605772Y770890D01*
X606160Y768939D01*
X607265Y767285D01*
X608919Y766180D01*
X610870Y765792D01*
X612821Y766180D01*
X614475Y767285D01*
X615580Y768939D01*
X615968Y770890D01*
X615580Y772841D01*
X614475Y774495D01*
X612821Y775600D01*
X610870Y775988D01*
D02*
G37*
G36*
X673100Y768618D02*
X671539Y768308D01*
X670216Y767424D01*
X669332Y766101D01*
X669022Y764540D01*
X669332Y762979D01*
X670216Y761656D01*
X671539Y760772D01*
X673100Y760462D01*
X674661Y760772D01*
X675984Y761656D01*
X676868Y762979D01*
X677178Y764540D01*
X676868Y766101D01*
X675984Y767424D01*
X674661Y768308D01*
X673100Y768618D01*
D02*
G37*
G36*
X238760Y782769D02*
X236672Y782494D01*
X234725Y781688D01*
X233054Y780406D01*
X231772Y778735D01*
X230966Y776788D01*
X230691Y774700D01*
X230966Y772612D01*
X231416Y771525D01*
X230966Y770438D01*
X230691Y768350D01*
X230966Y766262D01*
X231772Y764315D01*
X233054Y762644D01*
X234725Y761362D01*
X236672Y760556D01*
X238760Y760281D01*
X240848Y760556D01*
X242794Y761362D01*
X244466Y762644D01*
X245748Y764315D01*
X246554Y766262D01*
X246829Y768350D01*
X246554Y770438D01*
X246104Y771525D01*
X246554Y772612D01*
X246829Y774700D01*
X246554Y776788D01*
X245748Y778735D01*
X244466Y780406D01*
X242794Y781688D01*
X240848Y782494D01*
X238760Y782769D01*
D02*
G37*
G36*
X389890Y762268D02*
X388329Y761958D01*
X387006Y761074D01*
X386122Y759751D01*
X385812Y758190D01*
X386122Y756629D01*
X387006Y755306D01*
X388329Y754422D01*
X389890Y754112D01*
X391451Y754422D01*
X392774Y755306D01*
X393658Y756629D01*
X393968Y758190D01*
X393658Y759751D01*
X392774Y761074D01*
X391451Y761958D01*
X389890Y762268D01*
D02*
G37*
G36*
X711200Y771703D02*
X708689Y771372D01*
X706348Y770403D01*
X704339Y768861D01*
X702797Y766852D01*
X701828Y764511D01*
X701497Y762000D01*
X701828Y759489D01*
X702797Y757149D01*
X704339Y755139D01*
X706348Y753597D01*
X708689Y752628D01*
X711200Y752297D01*
X713711Y752628D01*
X716051Y753597D01*
X718061Y755139D01*
X719603Y757149D01*
X720572Y759489D01*
X720903Y762000D01*
X720572Y764511D01*
X719603Y766852D01*
X718061Y768861D01*
X716051Y770403D01*
X713711Y771372D01*
X711200Y771703D01*
D02*
G37*
G36*
X264000Y759300D02*
X244000D01*
Y739300D01*
X264000D01*
Y759300D01*
D02*
G37*
G36*
X534670Y753378D02*
X533109Y753068D01*
X531786Y752184D01*
X530902Y750861D01*
X530592Y749300D01*
X530902Y747739D01*
X531786Y746416D01*
X533109Y745532D01*
X534670Y745222D01*
X534969Y745281D01*
X535306Y745025D01*
X535915Y744174D01*
X535672Y742950D01*
X535982Y741389D01*
X536866Y740066D01*
X538189Y739182D01*
X539750Y738872D01*
X541311Y739182D01*
X542634Y740066D01*
X543518Y741389D01*
X543828Y742950D01*
X543518Y744511D01*
X542634Y745834D01*
X541311Y746718D01*
X539750Y747028D01*
X539450Y746969D01*
X539114Y747225D01*
X538505Y748076D01*
X538748Y749300D01*
X538438Y750861D01*
X537554Y752184D01*
X536231Y753068D01*
X534670Y753378D01*
D02*
G37*
G36*
X346710Y739158D02*
X344759Y738770D01*
X343535Y737952D01*
X342311Y738770D01*
X340360Y739158D01*
X338409Y738770D01*
X337185Y737952D01*
X335961Y738770D01*
X334010Y739158D01*
X332059Y738770D01*
X330835Y737952D01*
X329611Y738770D01*
X327660Y739158D01*
X325709Y738770D01*
X324055Y737665D01*
X322950Y736011D01*
X322562Y734060D01*
X322950Y732109D01*
X324055Y730455D01*
X325709Y729350D01*
X327660Y728962D01*
X329611Y729350D01*
X330835Y730168D01*
X332059Y729350D01*
X334010Y728962D01*
X335961Y729350D01*
X337185Y730168D01*
X338409Y729350D01*
X340360Y728962D01*
X342311Y729350D01*
X343535Y730168D01*
X344759Y729350D01*
X346710Y728962D01*
X348661Y729350D01*
X350315Y730455D01*
X351420Y732109D01*
X351808Y734060D01*
X351420Y736011D01*
X350315Y737665D01*
X348661Y738770D01*
X346710Y739158D01*
D02*
G37*
G36*
X556260Y757188D02*
X554699Y756878D01*
X553376Y755994D01*
X552492Y754671D01*
X552182Y753110D01*
X552492Y751549D01*
X553376Y750226D01*
X554699Y749342D01*
X556260Y749032D01*
X556559Y749091D01*
X556896Y748835D01*
X557505Y747984D01*
X557262Y746760D01*
X557572Y745199D01*
X558456Y743876D01*
X559779Y742992D01*
X561340Y742682D01*
X562901Y742992D01*
X564107Y743798D01*
X564654Y743517D01*
X565163Y743092D01*
X564882Y741680D01*
X565192Y740119D01*
X566076Y738796D01*
X567399Y737912D01*
X568960Y737602D01*
X570521Y737912D01*
X571844Y738796D01*
X572728Y740119D01*
X573038Y741680D01*
X572728Y743241D01*
X571844Y744564D01*
X570521Y745448D01*
X568960Y745758D01*
X567399Y745448D01*
X566193Y744642D01*
X565646Y744923D01*
X565137Y745348D01*
X565418Y746760D01*
X565108Y748321D01*
X564224Y749644D01*
X562901Y750528D01*
X561340Y750838D01*
X561040Y750779D01*
X560704Y751035D01*
X560095Y751886D01*
X560338Y753110D01*
X560028Y754671D01*
X559144Y755994D01*
X557821Y756878D01*
X556260Y757188D01*
D02*
G37*
G36*
X711200Y746303D02*
X708689Y745972D01*
X706348Y745003D01*
X704339Y743461D01*
X702797Y741451D01*
X701828Y739111D01*
X701497Y736600D01*
X701828Y734089D01*
X702797Y731749D01*
X704339Y729739D01*
X706348Y728197D01*
X708689Y727228D01*
X711200Y726897D01*
X713711Y727228D01*
X716051Y728197D01*
X718061Y729739D01*
X719603Y731749D01*
X720572Y734089D01*
X720903Y736600D01*
X720572Y739111D01*
X719603Y741451D01*
X718061Y743461D01*
X716051Y745003D01*
X713711Y745972D01*
X711200Y746303D01*
D02*
G37*
G36*
X255000Y733855D02*
Y724900D01*
X263955D01*
X263743Y726510D01*
X262735Y728943D01*
X261132Y731032D01*
X259043Y732635D01*
X256611Y733643D01*
X255000Y733855D01*
D02*
G37*
G36*
X253000D02*
X251390Y733643D01*
X248957Y732635D01*
X246868Y731032D01*
X245265Y728943D01*
X244257Y726510D01*
X244045Y724900D01*
X253000D01*
Y733855D01*
D02*
G37*
G36*
X673100Y730518D02*
X671539Y730208D01*
X670216Y729324D01*
X669332Y728001D01*
X669022Y726440D01*
X669332Y724879D01*
X670216Y723556D01*
X671539Y722672D01*
X673100Y722362D01*
X674661Y722672D01*
X675984Y723556D01*
X676868Y724879D01*
X677178Y726440D01*
X676868Y728001D01*
X675984Y729324D01*
X674661Y730208D01*
X673100Y730518D01*
D02*
G37*
G36*
X431800Y718838D02*
X429849Y718450D01*
X428967Y717861D01*
X427990Y717434D01*
X427013Y717861D01*
X426131Y718450D01*
X424180Y718838D01*
X422229Y718450D01*
X420575Y717345D01*
X419470Y715691D01*
X419082Y713740D01*
X419470Y711789D01*
X420575Y710135D01*
X422229Y709030D01*
X424180Y708642D01*
X426131Y709030D01*
X427013Y709619D01*
X427990Y710046D01*
X428967Y709619D01*
X429849Y709030D01*
X431800Y708642D01*
X433751Y709030D01*
X435405Y710135D01*
X436510Y711789D01*
X436898Y713740D01*
X436510Y715691D01*
X435405Y717345D01*
X433751Y718450D01*
X431800Y718838D01*
D02*
G37*
G36*
X283210Y732808D02*
X281259Y732420D01*
X279605Y731315D01*
X278500Y729661D01*
X278112Y727710D01*
X278500Y725759D01*
X279318Y724535D01*
X278500Y723311D01*
X278112Y721360D01*
X278500Y719409D01*
X279605Y717755D01*
X281259Y716650D01*
X283210Y716262D01*
X285161Y716650D01*
X286815Y717755D01*
X287920Y719409D01*
X288308Y721360D01*
X287920Y723311D01*
X287102Y724535D01*
X287920Y725759D01*
X288308Y727710D01*
X287920Y729661D01*
X286815Y731315D01*
X285161Y732420D01*
X283210Y732808D01*
D02*
G37*
G36*
X263955Y722900D02*
X255000D01*
Y713945D01*
X256611Y714157D01*
X259043Y715165D01*
X261132Y716768D01*
X262735Y718857D01*
X263743Y721290D01*
X263955Y722900D01*
D02*
G37*
G36*
X253000D02*
X244045D01*
X244257Y721290D01*
X245265Y718857D01*
X246868Y716768D01*
X248957Y715165D01*
X251390Y714157D01*
X253000Y713945D01*
Y722900D01*
D02*
G37*
G36*
X365760Y717818D02*
X364199Y717508D01*
X362876Y716624D01*
X361992Y715301D01*
X361682Y713740D01*
X361992Y712179D01*
X362876Y710856D01*
X364199Y709972D01*
X365760Y709662D01*
X367321Y709972D01*
X368644Y710856D01*
X369528Y712179D01*
X369838Y713740D01*
X369528Y715301D01*
X368644Y716624D01*
X367321Y717508D01*
X365760Y717818D01*
D02*
G37*
G36*
X711200Y720903D02*
X708689Y720572D01*
X706348Y719603D01*
X704339Y718061D01*
X702797Y716051D01*
X701828Y713711D01*
X701497Y711200D01*
X701828Y708689D01*
X702797Y706348D01*
X704339Y704339D01*
X706348Y702797D01*
X708689Y701828D01*
X711200Y701497D01*
X713711Y701828D01*
X716051Y702797D01*
X718061Y704339D01*
X719603Y706348D01*
X720572Y708689D01*
X720903Y711200D01*
X720572Y713711D01*
X719603Y716051D01*
X718061Y718061D01*
X716051Y719603D01*
X713711Y720572D01*
X711200Y720903D01*
D02*
G37*
G36*
X419100Y701058D02*
X417149Y700670D01*
X415925Y699852D01*
X414701Y700670D01*
X412750Y701058D01*
X410799Y700670D01*
X409145Y699565D01*
X408040Y697911D01*
X407652Y695960D01*
X408040Y694009D01*
X409145Y692355D01*
X410799Y691250D01*
X412750Y690862D01*
X414701Y691250D01*
X415925Y692068D01*
X417149Y691250D01*
X419100Y690862D01*
X421051Y691250D01*
X422705Y692355D01*
X423810Y694009D01*
X424198Y695960D01*
X423810Y697911D01*
X422705Y699565D01*
X421051Y700670D01*
X419100Y701058D01*
D02*
G37*
G36*
X544830Y707658D02*
X543269Y707348D01*
X541946Y706464D01*
X541062Y705141D01*
X540752Y703580D01*
X541062Y702019D01*
X541946Y700696D01*
X543269Y699812D01*
X544830Y699502D01*
X546391Y699812D01*
X547714Y700696D01*
X548598Y702019D01*
X548908Y703580D01*
X548598Y705141D01*
X547714Y706464D01*
X546391Y707348D01*
X544830Y707658D01*
D02*
G37*
G36*
X1056100Y705377D02*
X1046300D01*
Y695550D01*
X1069940D01*
X1068940Y697963D01*
X1066584Y701034D01*
X1063513Y703391D01*
X1059937Y704872D01*
X1056100Y705377D01*
D02*
G37*
G36*
X776700D02*
X766900D01*
Y695550D01*
X790540D01*
X789540Y697963D01*
X787184Y701034D01*
X784113Y703391D01*
X780537Y704872D01*
X776700Y705377D01*
D02*
G37*
G36*
X756900D02*
X747100D01*
X743263Y704872D01*
X739687Y703391D01*
X736616Y701034D01*
X734260Y697963D01*
X733260Y695550D01*
X756900D01*
Y705377D01*
D02*
G37*
G36*
X599440Y706138D02*
X597489Y705750D01*
X595835Y704645D01*
X594730Y702991D01*
X594342Y701040D01*
X594730Y699089D01*
X595548Y697865D01*
X594730Y696641D01*
X594342Y694690D01*
X594730Y692739D01*
X595548Y691515D01*
X594730Y690291D01*
X594342Y688340D01*
X594730Y686389D01*
X595835Y684735D01*
X597489Y683630D01*
X599440Y683242D01*
X601391Y683630D01*
X603045Y684735D01*
X604150Y686389D01*
X604538Y688340D01*
X604450Y688782D01*
X605348Y689680D01*
X605790Y689592D01*
X607741Y689980D01*
X609395Y691085D01*
X610500Y692739D01*
X610888Y694690D01*
X610500Y696641D01*
X609395Y698295D01*
X607741Y699400D01*
X605790Y699788D01*
X605348Y699700D01*
X604450Y700598D01*
X604538Y701040D01*
X604150Y702991D01*
X603045Y704645D01*
X601391Y705750D01*
X599440Y706138D01*
D02*
G37*
G36*
X454270Y688608D02*
X452709Y688298D01*
X451386Y687414D01*
X450502Y686091D01*
X450192Y684530D01*
X450502Y682969D01*
X451386Y681646D01*
X452709Y680762D01*
X454270Y680452D01*
X455831Y680762D01*
X457154Y681646D01*
X458038Y682969D01*
X458348Y684530D01*
X458038Y686091D01*
X457154Y687414D01*
X455831Y688298D01*
X454270Y688608D01*
D02*
G37*
G36*
X264000Y699610D02*
X244000D01*
Y679610D01*
X264000D01*
Y699610D01*
D02*
G37*
G36*
X711200Y695503D02*
X708689Y695172D01*
X706348Y694203D01*
X704339Y692661D01*
X702797Y690651D01*
X701828Y688311D01*
X701497Y685800D01*
X701828Y683289D01*
X702797Y680948D01*
X704339Y678939D01*
X706348Y677397D01*
X708689Y676428D01*
X711200Y676097D01*
X713711Y676428D01*
X716051Y677397D01*
X718061Y678939D01*
X719603Y680948D01*
X720572Y683289D01*
X720903Y685800D01*
X720572Y688311D01*
X719603Y690651D01*
X718061Y692661D01*
X716051Y694203D01*
X713711Y695172D01*
X711200Y695503D01*
D02*
G37*
G36*
X1069940Y685550D02*
X1046300D01*
Y675723D01*
X1056100D01*
X1059937Y676228D01*
X1063513Y677710D01*
X1066584Y680066D01*
X1068940Y683137D01*
X1069940Y685550D01*
D02*
G37*
G36*
X790540D02*
X766900D01*
Y675723D01*
X776700D01*
X780537Y676228D01*
X784113Y677710D01*
X787184Y680066D01*
X789540Y683137D01*
X790540Y685550D01*
D02*
G37*
G36*
X756900D02*
X733260D01*
X734260Y683137D01*
X736616Y680066D01*
X739687Y677710D01*
X743263Y676228D01*
X747100Y675723D01*
X756900D01*
Y685550D01*
D02*
G37*
G36*
X316230Y686068D02*
X314669Y685758D01*
X313346Y684874D01*
X312462Y683551D01*
X312152Y681990D01*
X312462Y680429D01*
X313346Y679106D01*
Y678524D01*
X312462Y677201D01*
X312152Y675640D01*
X312462Y674079D01*
X313346Y672756D01*
X314669Y671872D01*
X316230Y671562D01*
X317791Y671872D01*
X319114Y672756D01*
X319998Y674079D01*
X320308Y675640D01*
X319998Y677201D01*
X319114Y678524D01*
Y679106D01*
X319998Y680429D01*
X320308Y681990D01*
X319998Y683551D01*
X319114Y684874D01*
X317791Y685758D01*
X316230Y686068D01*
D02*
G37*
G36*
X464270Y676628D02*
X462709Y676318D01*
X461386Y675434D01*
X460502Y674111D01*
X460192Y672550D01*
X460502Y670989D01*
X461386Y669666D01*
X462709Y668782D01*
X464270Y668472D01*
X465831Y668782D01*
X467154Y669666D01*
X468038Y670989D01*
X468348Y672550D01*
X468038Y674111D01*
X467154Y675434D01*
X465831Y676318D01*
X464270Y676628D01*
D02*
G37*
G36*
X397510Y665748D02*
X395949Y665438D01*
X394626Y664554D01*
X393742Y663231D01*
X393432Y661670D01*
X393742Y660109D01*
X394626Y658786D01*
X395949Y657902D01*
X397510Y657592D01*
X399071Y657902D01*
X400394Y658786D01*
X401278Y660109D01*
X401588Y661670D01*
X401278Y663231D01*
X400394Y664554D01*
X399071Y665438D01*
X397510Y665748D01*
D02*
G37*
G36*
X513080Y664478D02*
X511519Y664168D01*
X510196Y663284D01*
X509312Y661961D01*
X509002Y660400D01*
X509312Y658839D01*
X510196Y657516D01*
X511519Y656632D01*
X513080Y656322D01*
X514641Y656632D01*
X515964Y657516D01*
X516848Y658839D01*
X517158Y660400D01*
X516848Y661961D01*
X515964Y663284D01*
X514641Y664168D01*
X513080Y664478D01*
D02*
G37*
G36*
X474270Y663768D02*
X472709Y663458D01*
X471386Y662574D01*
X470502Y661251D01*
X470192Y659690D01*
X470502Y658129D01*
X471386Y656806D01*
X472709Y655922D01*
X474270Y655612D01*
X475831Y655922D01*
X477154Y656806D01*
X478038Y658129D01*
X478348Y659690D01*
X478038Y661251D01*
X477154Y662574D01*
X475831Y663458D01*
X474270Y663768D01*
D02*
G37*
G36*
X459270Y663678D02*
X457709Y663368D01*
X456386Y662484D01*
X455502Y661161D01*
X455192Y659600D01*
X455502Y658039D01*
X456386Y656716D01*
X457709Y655832D01*
X459270Y655522D01*
X460831Y655832D01*
X462154Y656716D01*
X463038Y658039D01*
X463348Y659600D01*
X463038Y661161D01*
X462154Y662484D01*
X460831Y663368D01*
X459270Y663678D01*
D02*
G37*
G36*
X254000Y674296D02*
X251390Y673953D01*
X248957Y672945D01*
X246868Y671342D01*
X245265Y669253D01*
X244257Y666821D01*
X243914Y664210D01*
X244257Y661600D01*
X245265Y659167D01*
X246868Y657078D01*
X248957Y655475D01*
X251390Y654467D01*
X254000Y654124D01*
X256611Y654467D01*
X259043Y655475D01*
X261132Y657078D01*
X262735Y659167D01*
X263743Y661600D01*
X264086Y664210D01*
X263743Y666821D01*
X262735Y669253D01*
X261132Y671342D01*
X259043Y672945D01*
X256611Y673953D01*
X254000Y674296D01*
D02*
G37*
G36*
X369570Y654318D02*
X368009Y654008D01*
X366686Y653124D01*
X365802Y651801D01*
X365492Y650240D01*
X365802Y648679D01*
X366686Y647356D01*
X368009Y646472D01*
X369570Y646162D01*
X371131Y646472D01*
X372454Y647356D01*
X373338Y648679D01*
X373648Y650240D01*
X373338Y651801D01*
X372454Y653124D01*
X371131Y654008D01*
X369570Y654318D01*
D02*
G37*
G36*
X467360Y650508D02*
X465799Y650198D01*
X464476Y649314D01*
X463592Y647991D01*
X463282Y646430D01*
X463592Y644869D01*
X464476Y643546D01*
X465799Y642662D01*
X467360Y642352D01*
X468921Y642662D01*
X470244Y643546D01*
X471128Y644869D01*
X471438Y646430D01*
X471128Y647991D01*
X470244Y649314D01*
X468921Y650198D01*
X467360Y650508D01*
D02*
G37*
G36*
X518160Y639078D02*
X516599Y638768D01*
X515276Y637884D01*
X514392Y636561D01*
X514082Y635000D01*
X514392Y633439D01*
X515276Y632116D01*
X516599Y631232D01*
X518160Y630922D01*
X519721Y631232D01*
X521044Y632116D01*
X521928Y633439D01*
X522238Y635000D01*
X521928Y636561D01*
X521044Y637884D01*
X519721Y638768D01*
X518160Y639078D01*
D02*
G37*
G36*
X306070Y617238D02*
X304119Y616850D01*
X302895Y616032D01*
X301671Y616850D01*
X299720Y617238D01*
X297769Y616850D01*
X296545Y616032D01*
X295321Y616850D01*
X293370Y617238D01*
X291419Y616850D01*
X289765Y615745D01*
X288660Y614091D01*
X288272Y612140D01*
X288660Y610189D01*
X289765Y608535D01*
X291419Y607430D01*
X293370Y607042D01*
X295321Y607430D01*
X296545Y608248D01*
X297769Y607430D01*
X299720Y607042D01*
X301671Y607430D01*
X302895Y608248D01*
X304119Y607430D01*
X306070Y607042D01*
X308021Y607430D01*
X309675Y608535D01*
X310780Y610189D01*
X311168Y612140D01*
X310780Y614091D01*
X309675Y615745D01*
X308021Y616850D01*
X306070Y617238D01*
D02*
G37*
G36*
X443230Y612408D02*
X441669Y612098D01*
X440346Y611214D01*
X439462Y609891D01*
X439152Y608330D01*
X439462Y606769D01*
X440346Y605446D01*
X441669Y604562D01*
X443230Y604252D01*
X444791Y604562D01*
X446114Y605446D01*
X446998Y606769D01*
X447308Y608330D01*
X446998Y609891D01*
X446114Y611214D01*
X444791Y612098D01*
X443230Y612408D01*
D02*
G37*
G36*
X916940Y606058D02*
X915379Y605748D01*
X914056Y604864D01*
X913172Y603541D01*
X912880Y602070D01*
X912736Y601699D01*
X912141Y601104D01*
X911770Y600960D01*
X910299Y600668D01*
X908976Y599784D01*
X908092Y598461D01*
X907782Y596900D01*
X908092Y595339D01*
X908976Y594016D01*
X910299Y593132D01*
X911860Y592822D01*
X913421Y593132D01*
X914744Y594016D01*
X915628Y595339D01*
X915920Y596810D01*
X916064Y597181D01*
X916659Y597776D01*
X917030Y597920D01*
X918501Y598212D01*
X919824Y599096D01*
X920708Y600419D01*
X921018Y601980D01*
X920708Y603541D01*
X919824Y604864D01*
X918501Y605748D01*
X916940Y606058D01*
D02*
G37*
G36*
X1051480Y598139D02*
Y592730D01*
X1049480D01*
Y598139D01*
X1048334Y597911D01*
X1046515Y596695D01*
X1045299Y594876D01*
X1044967Y593204D01*
X1043642Y592900D01*
X1043445Y593195D01*
X1041626Y594411D01*
X1040480Y594639D01*
Y589230D01*
X1039480D01*
Y588230D01*
X1034071D01*
X1034218Y587489D01*
X1034112Y587295D01*
X1033414Y586598D01*
X1033221Y586492D01*
X1032480Y586639D01*
Y581230D01*
X1031480D01*
Y580230D01*
X1026071D01*
X1026299Y579084D01*
X1027515Y577265D01*
X1027809Y577068D01*
X1027506Y575743D01*
X1025834Y575411D01*
X1024015Y574195D01*
X1022799Y572376D01*
X1022571Y571230D01*
X1027980D01*
Y569230D01*
X1022571D01*
X1022799Y568084D01*
X1024015Y566265D01*
X1025834Y565049D01*
X1027505Y564717D01*
X1027808Y563391D01*
X1027515Y563195D01*
X1026299Y561376D01*
X1026071Y560230D01*
X1031480D01*
Y559230D01*
X1032480D01*
Y553821D01*
X1033221Y553969D01*
X1033414Y553862D01*
X1034112Y553165D01*
X1034218Y552971D01*
X1034071Y552230D01*
X1039480D01*
Y551230D01*
X1040480D01*
Y545821D01*
X1041626Y546049D01*
X1043445Y547265D01*
X1043642Y547560D01*
X1044967Y547256D01*
X1045299Y545584D01*
X1046515Y543765D01*
X1048334Y542549D01*
X1049480Y542321D01*
Y547730D01*
X1051480D01*
Y542321D01*
X1052626Y542549D01*
X1054445Y543765D01*
X1055661Y545584D01*
X1055993Y547256D01*
X1057318Y547560D01*
X1057515Y547265D01*
X1059334Y546049D01*
X1060480Y545821D01*
Y551230D01*
X1061480D01*
Y552230D01*
X1066889D01*
X1066742Y552971D01*
X1066848Y553165D01*
X1067546Y553862D01*
X1067740Y553969D01*
X1068480Y553821D01*
Y559230D01*
X1069480D01*
Y560230D01*
X1074889D01*
X1074661Y561376D01*
X1073446Y563195D01*
X1073152Y563391D01*
X1073455Y564717D01*
X1075126Y565049D01*
X1076945Y566265D01*
X1078161Y568084D01*
X1078389Y569230D01*
X1072980D01*
Y571230D01*
X1078389D01*
X1078161Y572376D01*
X1076945Y574195D01*
X1075126Y575411D01*
X1073454Y575743D01*
X1073151Y577068D01*
X1073446Y577265D01*
X1074661Y579084D01*
X1074889Y580230D01*
X1069480D01*
Y581230D01*
X1068480D01*
Y586639D01*
X1067740Y586492D01*
X1067546Y586598D01*
X1066848Y587295D01*
X1066742Y587489D01*
X1066889Y588230D01*
X1061480D01*
Y589230D01*
X1060480D01*
Y594639D01*
X1059334Y594411D01*
X1057515Y593195D01*
X1057318Y592900D01*
X1055993Y593204D01*
X1055661Y594876D01*
X1054445Y596695D01*
X1052626Y597911D01*
X1051480Y598139D01*
D02*
G37*
G36*
X261350D02*
Y592730D01*
X259350D01*
Y598139D01*
X258204Y597911D01*
X256385Y596695D01*
X255169Y594876D01*
X254837Y593204D01*
X253512Y592900D01*
X253315Y593195D01*
X251496Y594411D01*
X250350Y594639D01*
Y589230D01*
X249350D01*
Y588230D01*
X243941D01*
X244088Y587489D01*
X243982Y587295D01*
X243284Y586598D01*
X243090Y586492D01*
X242350Y586639D01*
Y581230D01*
X241350D01*
Y580230D01*
X235941D01*
X236169Y579084D01*
X237384Y577265D01*
X237679Y577068D01*
X237376Y575743D01*
X235704Y575411D01*
X233885Y574195D01*
X232669Y572376D01*
X232441Y571230D01*
X237850D01*
Y569230D01*
X232441D01*
X232669Y568084D01*
X233885Y566265D01*
X235704Y565049D01*
X237375Y564717D01*
X237678Y563391D01*
X237384Y563195D01*
X236169Y561376D01*
X235941Y560230D01*
X241350D01*
Y559230D01*
X242350D01*
Y553821D01*
X243090Y553969D01*
X243284Y553862D01*
X243982Y553165D01*
X244088Y552971D01*
X243941Y552230D01*
X249350D01*
Y551230D01*
X250350D01*
Y545821D01*
X251496Y546049D01*
X253315Y547265D01*
X253512Y547560D01*
X254837Y547256D01*
X255169Y545584D01*
X256385Y543765D01*
X258204Y542549D01*
X259350Y542321D01*
Y547730D01*
X261350D01*
Y542321D01*
X262496Y542549D01*
X264315Y543765D01*
X265531Y545584D01*
X265863Y547256D01*
X267188Y547560D01*
X267385Y547265D01*
X269204Y546049D01*
X270350Y545821D01*
Y551230D01*
X271350D01*
Y552230D01*
X276759D01*
X276612Y552971D01*
X276718Y553165D01*
X277416Y553862D01*
X277610Y553969D01*
X278350Y553821D01*
Y559230D01*
X279350D01*
Y560230D01*
X284759D01*
X284531Y561376D01*
X283316Y563195D01*
X283022Y563391D01*
X283325Y564717D01*
X284996Y565049D01*
X286815Y566265D01*
X288031Y568084D01*
X288259Y569230D01*
X282850D01*
Y571230D01*
X288259D01*
X288031Y572376D01*
X286815Y574195D01*
X284996Y575411D01*
X283324Y575743D01*
X283021Y577068D01*
X283316Y577265D01*
X284531Y579084D01*
X284759Y580230D01*
X279350D01*
Y581230D01*
X278350D01*
Y586639D01*
X277610Y586492D01*
X277416Y586598D01*
X276718Y587295D01*
X276612Y587489D01*
X276759Y588230D01*
X271350D01*
Y589230D01*
X270350D01*
Y594639D01*
X269204Y594411D01*
X267385Y593195D01*
X267188Y592900D01*
X265863Y593204D01*
X265531Y594876D01*
X264315Y596695D01*
X262496Y597911D01*
X261350Y598139D01*
D02*
G37*
G36*
X1038480Y594639D02*
X1037334Y594411D01*
X1035515Y593195D01*
X1034299Y591376D01*
X1034071Y590230D01*
X1038480D01*
Y594639D01*
D02*
G37*
G36*
X248350D02*
X247204Y594411D01*
X245385Y593195D01*
X244169Y591376D01*
X243941Y590230D01*
X248350D01*
Y594639D01*
D02*
G37*
G36*
X272350D02*
Y590230D01*
X276759D01*
X276531Y591376D01*
X275315Y593195D01*
X273496Y594411D01*
X272350Y594639D01*
D02*
G37*
G36*
X1062480D02*
Y590230D01*
X1066889D01*
X1066661Y591376D01*
X1065445Y593195D01*
X1063626Y594411D01*
X1062480Y594639D01*
D02*
G37*
G36*
X424600Y609170D02*
X413600D01*
X408100Y603670D01*
Y592670D01*
X413600Y587170D01*
X424600D01*
X430100Y592670D01*
Y603670D01*
X424600Y609170D01*
D02*
G37*
G36*
X393700Y609265D02*
X390828Y608887D01*
X388153Y607779D01*
X385855Y606015D01*
X384091Y603717D01*
X382983Y601042D01*
X382605Y598170D01*
X382983Y595298D01*
X384091Y592622D01*
X385855Y590325D01*
X388153Y588562D01*
X390828Y587453D01*
X393700Y587075D01*
X396572Y587453D01*
X399248Y588562D01*
X401545Y590325D01*
X403308Y592622D01*
X404417Y595298D01*
X404795Y598170D01*
X404417Y601042D01*
X403308Y603717D01*
X401545Y606015D01*
X399248Y607779D01*
X396572Y608887D01*
X393700Y609265D01*
D02*
G37*
G36*
X368300D02*
X365428Y608887D01*
X362752Y607779D01*
X360455Y606015D01*
X358691Y603717D01*
X357583Y601042D01*
X357205Y598170D01*
X357583Y595298D01*
X358691Y592622D01*
X360455Y590325D01*
X362752Y588562D01*
X365428Y587453D01*
X368300Y587075D01*
X371172Y587453D01*
X373848Y588562D01*
X376145Y590325D01*
X377909Y592622D01*
X379017Y595298D01*
X379395Y598170D01*
X379017Y601042D01*
X377909Y603717D01*
X376145Y606015D01*
X373848Y607779D01*
X371172Y608887D01*
X368300Y609265D01*
D02*
G37*
G36*
X1030480Y586639D02*
X1029334Y586411D01*
X1027515Y585195D01*
X1026299Y583376D01*
X1026071Y582230D01*
X1030480D01*
Y586639D01*
D02*
G37*
G36*
X240350D02*
X239204Y586411D01*
X237384Y585195D01*
X236169Y583376D01*
X235941Y582230D01*
X240350D01*
Y586639D01*
D02*
G37*
G36*
X280350D02*
Y582230D01*
X284759D01*
X284531Y583376D01*
X283316Y585195D01*
X281496Y586411D01*
X280350Y586639D01*
D02*
G37*
G36*
X1070480D02*
Y582230D01*
X1074889D01*
X1074661Y583376D01*
X1073446Y585195D01*
X1071626Y586411D01*
X1070480Y586639D01*
D02*
G37*
G36*
X477520Y587008D02*
X475959Y586698D01*
X474636Y585814D01*
X473752Y584491D01*
X473442Y582930D01*
X473752Y581369D01*
X474636Y580046D01*
X475959Y579162D01*
X477520Y578852D01*
X479081Y579162D01*
X480404Y580046D01*
X481288Y581369D01*
X481598Y582930D01*
X481288Y584491D01*
X480404Y585814D01*
X479081Y586698D01*
X477520Y587008D01*
D02*
G37*
G36*
X394700Y583733D02*
Y573770D01*
X404663D01*
X404417Y575642D01*
X403308Y578317D01*
X401545Y580615D01*
X399248Y582379D01*
X396572Y583487D01*
X394700Y583733D01*
D02*
G37*
G36*
X392700D02*
X390828Y583487D01*
X388153Y582379D01*
X385855Y580615D01*
X384091Y578317D01*
X382983Y575642D01*
X382737Y573770D01*
X392700D01*
Y583733D01*
D02*
G37*
G36*
X488950Y580408D02*
X486999Y580020D01*
X485345Y578915D01*
X484240Y577261D01*
X483852Y575310D01*
X484240Y573359D01*
X485345Y571705D01*
X486999Y570600D01*
X488950Y570212D01*
X490901Y570600D01*
X492555Y571705D01*
X493660Y573359D01*
X494048Y575310D01*
X493660Y577261D01*
X492555Y578915D01*
X490901Y580020D01*
X488950Y580408D01*
D02*
G37*
G36*
X817880Y570498D02*
X816319Y570188D01*
X814996Y569304D01*
X814112Y567981D01*
X813802Y566420D01*
X814112Y564859D01*
X814996Y563536D01*
X816319Y562652D01*
X817880Y562342D01*
X819441Y562652D01*
X820764Y563536D01*
X821648Y564859D01*
X821958Y566420D01*
X821648Y567981D01*
X820764Y569304D01*
X819441Y570188D01*
X817880Y570498D01*
D02*
G37*
G36*
X404663Y571770D02*
X394700D01*
Y561807D01*
X396572Y562053D01*
X399248Y563162D01*
X401545Y564925D01*
X403308Y567223D01*
X404417Y569898D01*
X404663Y571770D01*
D02*
G37*
G36*
X392700D02*
X382737D01*
X382983Y569898D01*
X384091Y567223D01*
X385855Y564925D01*
X388153Y563162D01*
X390828Y562053D01*
X392700Y561807D01*
Y571770D01*
D02*
G37*
G36*
X419100Y583865D02*
X416228Y583487D01*
X413553Y582379D01*
X411255Y580615D01*
X409492Y578317D01*
X408383Y575642D01*
X408005Y572770D01*
X408383Y569898D01*
X409492Y567223D01*
X411255Y564925D01*
X413553Y563162D01*
X416228Y562053D01*
X419100Y561675D01*
X421972Y562053D01*
X424647Y563162D01*
X426945Y564925D01*
X428708Y567223D01*
X429817Y569898D01*
X430195Y572770D01*
X429817Y575642D01*
X428708Y578317D01*
X426945Y580615D01*
X424647Y582379D01*
X421972Y583487D01*
X419100Y583865D01*
D02*
G37*
G36*
X368300D02*
X365428Y583487D01*
X362752Y582379D01*
X360455Y580615D01*
X358691Y578317D01*
X357583Y575642D01*
X357205Y572770D01*
X357583Y569898D01*
X358691Y567223D01*
X360455Y564925D01*
X362752Y563162D01*
X365428Y562053D01*
X368300Y561675D01*
X371172Y562053D01*
X373848Y563162D01*
X376145Y564925D01*
X377909Y567223D01*
X379017Y569898D01*
X379395Y572770D01*
X379017Y575642D01*
X377909Y578317D01*
X376145Y580615D01*
X373848Y582379D01*
X371172Y583487D01*
X368300Y583865D01*
D02*
G37*
G36*
X538480Y589298D02*
X536529Y588910D01*
X534875Y587805D01*
X533770Y586151D01*
X533382Y584200D01*
X533770Y582249D01*
X534588Y581025D01*
X533770Y579801D01*
X533382Y577850D01*
X533770Y575899D01*
X534588Y574675D01*
X533770Y573451D01*
X533382Y571500D01*
X533770Y569549D01*
X534588Y568325D01*
X533770Y567101D01*
X533382Y565150D01*
X533770Y563199D01*
X534875Y561545D01*
X536529Y560440D01*
X538480Y560052D01*
X540431Y560440D01*
X542085Y561545D01*
X543190Y563199D01*
X543578Y565150D01*
X543190Y567101D01*
X542372Y568325D01*
X543190Y569549D01*
X543578Y571500D01*
X543190Y573451D01*
X542372Y574675D01*
X543190Y575899D01*
X543578Y577850D01*
X543190Y579801D01*
X542372Y581025D01*
X543190Y582249D01*
X543578Y584200D01*
X543190Y586151D01*
X542085Y587805D01*
X540431Y588910D01*
X538480Y589298D01*
D02*
G37*
G36*
X452120Y567958D02*
X450559Y567648D01*
X449236Y566764D01*
X448352Y565441D01*
X448042Y563880D01*
X448352Y562319D01*
X449236Y560996D01*
X450559Y560112D01*
X452120Y559802D01*
X453681Y560112D01*
X455004Y560996D01*
X455888Y562319D01*
X456198Y563880D01*
X455888Y565441D01*
X455004Y566764D01*
X453681Y567648D01*
X452120Y567958D01*
D02*
G37*
G36*
X807720Y565418D02*
X806159Y565108D01*
X804836Y564224D01*
X803952Y562901D01*
X803642Y561340D01*
X803952Y559779D01*
X804836Y558456D01*
X806159Y557572D01*
X807720Y557262D01*
X809281Y557572D01*
X810604Y558456D01*
X811488Y559779D01*
X811798Y561340D01*
X811488Y562901D01*
X810604Y564224D01*
X809281Y565108D01*
X807720Y565418D01*
D02*
G37*
G36*
X284759Y558230D02*
X280350D01*
Y553821D01*
X281496Y554049D01*
X283316Y555265D01*
X284531Y557084D01*
X284759Y558230D01*
D02*
G37*
G36*
X240350Y558230D02*
X235941D01*
X236169Y557084D01*
X237384Y555265D01*
X239204Y554049D01*
X240350Y553821D01*
Y558230D01*
D02*
G37*
G36*
X1030480D02*
X1026071D01*
X1026299Y557084D01*
X1027515Y555265D01*
X1029334Y554049D01*
X1030480Y553821D01*
Y558230D01*
D02*
G37*
G36*
X1074889Y558230D02*
X1070480D01*
Y553821D01*
X1071626Y554049D01*
X1073446Y555265D01*
X1074661Y557084D01*
X1074889Y558230D01*
D02*
G37*
G36*
X276759Y550230D02*
X272350D01*
Y545821D01*
X273496Y546049D01*
X275315Y547265D01*
X276531Y549084D01*
X276759Y550230D01*
D02*
G37*
G36*
X1038480Y550230D02*
X1034071D01*
X1034299Y549084D01*
X1035515Y547265D01*
X1037334Y546049D01*
X1038480Y545821D01*
Y550230D01*
D02*
G37*
G36*
X248350D02*
X243941D01*
X244169Y549084D01*
X245385Y547265D01*
X247204Y546049D01*
X248350Y545821D01*
Y550230D01*
D02*
G37*
G36*
X1066889Y550230D02*
X1062480D01*
Y545821D01*
X1063626Y546049D01*
X1065445Y547265D01*
X1066661Y549084D01*
X1066889Y550230D01*
D02*
G37*
%LPD*%
D48*
X267080Y829310D02*
D03*
Y864310D02*
D03*
Y1058060D02*
D03*
Y1023060D02*
D03*
Y953060D02*
D03*
Y988060D02*
D03*
Y1146530D02*
D03*
D58*
X489350Y941070D02*
D03*
D59*
X539350D02*
D03*
D66*
X1002300Y645500D02*
Y1217660D01*
X323850Y1217930D02*
X346922Y1241002D01*
X1002300Y645500D02*
X1003200Y644600D01*
X979170Y1240790D02*
X1002300Y1217660D01*
X346922Y1241002D02*
X951442D01*
X978958D01*
X951442D02*
X951448Y1241008D01*
D69*
X261620Y1204976D02*
Y1211580D01*
X236474Y1179830D02*
X261620Y1204976D01*
X260350Y592730D02*
Y618490D01*
X256540Y622300D02*
X260350Y618490D01*
X266598Y1112012D02*
X267080Y1111530D01*
X242316Y1112012D02*
X266598D01*
X236474Y1117854D02*
X242316Y1112012D01*
X236474Y1117854D02*
Y1179830D01*
X260350Y570230D02*
Y592730D01*
X761900Y688440D02*
Y690550D01*
Y688440D02*
X762000Y688340D01*
X609600Y1203960D02*
Y1213662D01*
X604520Y1198880D02*
X609600Y1203960D01*
X582438Y1198880D02*
X604520D01*
X609600Y1213662D02*
X609815Y1213876D01*
Y1218985D01*
X609600Y1219200D02*
X609815Y1218985D01*
X576580Y1204738D02*
X582438Y1198880D01*
X576580Y1204738D02*
Y1220470D01*
D75*
X800000Y1130000D02*
D03*
Y1104600D02*
D03*
X825400Y1130000D02*
D03*
Y1104600D02*
D03*
X850800Y1130000D02*
D03*
Y1104600D02*
D03*
X876200Y1130000D02*
D03*
Y1104600D02*
D03*
X901600Y1130000D02*
D03*
Y1104600D02*
D03*
X927000Y1130000D02*
D03*
Y1104600D02*
D03*
X952400Y1130000D02*
D03*
Y1104600D02*
D03*
X977800Y1130000D02*
D03*
Y1104600D02*
D03*
X1003200Y1130000D02*
D03*
Y1104600D02*
D03*
X800000Y900000D02*
D03*
Y874600D02*
D03*
X825400Y900000D02*
D03*
Y874600D02*
D03*
X850800Y900000D02*
D03*
Y874600D02*
D03*
X876200Y900000D02*
D03*
Y874600D02*
D03*
X901600Y900000D02*
D03*
Y874600D02*
D03*
X927000Y900000D02*
D03*
Y874600D02*
D03*
X952400Y900000D02*
D03*
Y874600D02*
D03*
X977800Y900000D02*
D03*
Y874600D02*
D03*
X1003200Y900000D02*
D03*
Y874600D02*
D03*
X800000Y670000D02*
D03*
Y644600D02*
D03*
X825400Y670000D02*
D03*
Y644600D02*
D03*
X850800Y670000D02*
D03*
Y644600D02*
D03*
X876200Y670000D02*
D03*
Y644600D02*
D03*
X901600Y670000D02*
D03*
Y644600D02*
D03*
X927000Y670000D02*
D03*
Y644600D02*
D03*
X952400Y670000D02*
D03*
Y644600D02*
D03*
X977800Y670000D02*
D03*
Y644600D02*
D03*
X1003200Y670000D02*
D03*
Y644600D02*
D03*
D76*
X761900Y1150550D02*
D03*
X1041300D02*
D03*
X761900Y920550D02*
D03*
X1041300D02*
D03*
X761900Y690550D02*
D03*
X1041300D02*
D03*
D78*
X431800Y963930D02*
D03*
Y989330D02*
D03*
Y1014730D02*
D03*
Y1040130D02*
D03*
D79*
X368300Y598170D02*
D03*
X393700D02*
D03*
Y572770D02*
D03*
X368300D02*
D03*
X419100D02*
D03*
X429660Y1193800D02*
D03*
D80*
X419100Y598170D02*
D03*
X479660Y1193800D02*
D03*
D81*
X267080Y794310D02*
D03*
Y918060D02*
D03*
Y1111530D02*
D03*
D82*
X254000Y723900D02*
D03*
Y664210D02*
D03*
X374650Y1220470D02*
D03*
X577850Y997230D02*
D03*
D83*
X254000Y749300D02*
D03*
Y689610D02*
D03*
X323850Y1220470D02*
D03*
D84*
X364490Y780310D02*
D03*
Y878310D02*
D03*
D85*
X542580Y1219200D02*
D03*
X559580D02*
D03*
X576580D02*
D03*
D86*
X593580Y1220470D02*
D03*
X610580D02*
D03*
D87*
X577850Y1032230D02*
D03*
D88*
X241350Y559230D02*
D03*
X249350Y551230D02*
D03*
X279350Y559230D02*
D03*
X271350Y551230D02*
D03*
X279350Y581230D02*
D03*
X271350Y589230D02*
D03*
X249350D02*
D03*
X241350Y581230D02*
D03*
X260350Y547730D02*
D03*
X282850Y570230D02*
D03*
X260350Y592730D02*
D03*
X237850Y570230D02*
D03*
X1039480Y1191310D02*
D03*
X1031480Y559230D02*
D03*
X1039480Y551230D02*
D03*
X1069480Y559230D02*
D03*
X1061480Y551230D02*
D03*
X1069480Y581230D02*
D03*
X1061480Y589230D02*
D03*
X1039480D02*
D03*
X1031480Y581230D02*
D03*
X1050480Y547730D02*
D03*
X1072980Y570230D02*
D03*
X1050480Y592730D02*
D03*
X1027980Y570230D02*
D03*
Y1210310D02*
D03*
X1050480Y1232810D02*
D03*
X1072980Y1210310D02*
D03*
X1050480Y1187810D02*
D03*
X1031480Y1221310D02*
D03*
X1039480Y1229310D02*
D03*
X1061480D02*
D03*
X1069480Y1221310D02*
D03*
X1061480Y1191310D02*
D03*
X1069480Y1199310D02*
D03*
X1031480D02*
D03*
X237850Y1210310D02*
D03*
X260350Y1232810D02*
D03*
X282850Y1210310D02*
D03*
X260350Y1187810D02*
D03*
X241350Y1221310D02*
D03*
X249350Y1229310D02*
D03*
X271350D02*
D03*
X279350Y1221310D02*
D03*
X271350Y1191310D02*
D03*
X279350Y1199310D02*
D03*
X249350Y1191310D02*
D03*
X241350Y1199310D02*
D03*
D89*
X260350Y570230D02*
D03*
X1050480D02*
D03*
Y1210310D02*
D03*
X260350D02*
D03*
D90*
X1084580Y1173480D02*
D03*
Y1102360D02*
D03*
X1066800Y1066800D02*
D03*
X1084580Y1031240D02*
D03*
X1066800Y995680D02*
D03*
X1084580Y960120D02*
D03*
Y889000D02*
D03*
X1066800Y853440D02*
D03*
X1084580Y817880D02*
D03*
X1066800Y782320D02*
D03*
X1084580Y746760D02*
D03*
X1066800Y711200D02*
D03*
X1084580Y675640D02*
D03*
X1066800Y640080D02*
D03*
X1084580Y604520D02*
D03*
X1049020Y1173480D02*
D03*
Y1102360D02*
D03*
X1031240Y1066800D02*
D03*
X1049020Y1031240D02*
D03*
X1031240Y995680D02*
D03*
X1049020Y960120D02*
D03*
Y889000D02*
D03*
X1031240Y853440D02*
D03*
X1049020Y817880D02*
D03*
X1031240Y782320D02*
D03*
Y711200D02*
D03*
Y640080D02*
D03*
X1049020Y604520D02*
D03*
X1013460D02*
D03*
X995680Y568960D02*
D03*
X960120Y1209040D02*
D03*
X977900Y1173480D02*
D03*
Y1031240D02*
D03*
Y960120D02*
D03*
Y817880D02*
D03*
Y746760D02*
D03*
Y604520D02*
D03*
X960120Y568960D02*
D03*
X924560Y1209040D02*
D03*
X942340Y1173480D02*
D03*
X924560Y1066800D02*
D03*
X942340Y1031240D02*
D03*
X924560Y995680D02*
D03*
X942340Y960120D02*
D03*
X924560Y924560D02*
D03*
Y853440D02*
D03*
X942340Y817880D02*
D03*
X924560Y782320D02*
D03*
X942340Y746760D02*
D03*
X924560Y711200D02*
D03*
X942340Y604520D02*
D03*
X924560Y568960D02*
D03*
X889000Y1209040D02*
D03*
X906780Y1173480D02*
D03*
X889000Y1137920D02*
D03*
Y1066800D02*
D03*
X906780Y1031240D02*
D03*
X889000Y995680D02*
D03*
X906780Y960120D02*
D03*
X889000Y924560D02*
D03*
Y853440D02*
D03*
X906780Y817880D02*
D03*
X889000Y782320D02*
D03*
X906780Y746760D02*
D03*
X889000Y711200D02*
D03*
Y568960D02*
D03*
X853440Y1209040D02*
D03*
X871220Y1173480D02*
D03*
X853440Y1066800D02*
D03*
X871220Y1031240D02*
D03*
X853440Y995680D02*
D03*
X871220Y960120D02*
D03*
X853440Y924560D02*
D03*
Y853440D02*
D03*
X871220Y817880D02*
D03*
X853440Y782320D02*
D03*
X871220Y746760D02*
D03*
X853440Y711200D02*
D03*
Y568960D02*
D03*
X817880Y1209040D02*
D03*
X835660Y1173480D02*
D03*
Y1031240D02*
D03*
Y960120D02*
D03*
Y817880D02*
D03*
Y746760D02*
D03*
X782320Y1209040D02*
D03*
X800100Y1173480D02*
D03*
X782320Y1066800D02*
D03*
X800100Y1031240D02*
D03*
X782320Y995680D02*
D03*
X800100Y960120D02*
D03*
X782320Y853440D02*
D03*
X800100Y817880D02*
D03*
X782320Y782320D02*
D03*
X800100Y746760D02*
D03*
X782320Y711200D02*
D03*
Y640080D02*
D03*
X746760Y1209040D02*
D03*
X764540Y1173480D02*
D03*
Y1102360D02*
D03*
Y1031240D02*
D03*
Y960120D02*
D03*
Y889000D02*
D03*
X746760Y853440D02*
D03*
X764540Y817880D02*
D03*
X746760Y782320D02*
D03*
X764540Y746760D02*
D03*
X746760Y711200D02*
D03*
Y640080D02*
D03*
X711200Y1209040D02*
D03*
X728980Y1173480D02*
D03*
X711200Y1137920D02*
D03*
X728980Y1102360D02*
D03*
Y1031240D02*
D03*
Y889000D02*
D03*
Y817880D02*
D03*
Y746760D02*
D03*
Y675640D02*
D03*
X675640Y1209040D02*
D03*
Y1137920D02*
D03*
X693420Y1102360D02*
D03*
Y1031240D02*
D03*
X657860Y1173480D02*
D03*
X640080Y1137920D02*
D03*
Y1066800D02*
D03*
X604520Y1209040D02*
D03*
X622300Y1173480D02*
D03*
X604520Y1137920D02*
D03*
X622300Y1031240D02*
D03*
X568960Y1137920D02*
D03*
X586740Y1102360D02*
D03*
X533400Y1137920D02*
D03*
Y1066800D02*
D03*
X515620Y1173480D02*
D03*
Y1102360D02*
D03*
X462280Y1209040D02*
D03*
X480060Y1031240D02*
D03*
X426720Y1209040D02*
D03*
X391160D02*
D03*
X355600D02*
D03*
Y1066800D02*
D03*
X302260Y1102360D02*
D03*
X266700Y1173480D02*
D03*
X248920Y1137920D02*
D03*
Y1066800D02*
D03*
X389890Y758190D02*
D03*
X330200Y941070D02*
D03*
X313690D02*
D03*
X647700Y883920D02*
D03*
Y836930D02*
D03*
Y798830D02*
D03*
Y722630D02*
D03*
Y730250D02*
D03*
Y844550D02*
D03*
Y806450D02*
D03*
Y760730D02*
D03*
Y768350D02*
D03*
X490220Y1084580D02*
D03*
X373380Y675640D02*
D03*
X701675Y924560D02*
D03*
X693420Y842010D02*
D03*
Y676910D02*
D03*
Y643890D02*
D03*
Y577850D02*
D03*
Y544830D02*
D03*
X676910Y676910D02*
D03*
X685165Y660400D02*
D03*
X676910Y544830D02*
D03*
X668655Y924560D02*
D03*
Y891540D02*
D03*
X660400Y676910D02*
D03*
X668655Y594360D02*
D03*
X660400Y544830D02*
D03*
X652145Y924560D02*
D03*
Y594360D02*
D03*
X643890Y544830D02*
D03*
X627380D02*
D03*
X619125Y924560D02*
D03*
Y891540D02*
D03*
X610870Y709930D02*
D03*
Y676910D02*
D03*
Y544830D02*
D03*
X602615Y924560D02*
D03*
Y891540D02*
D03*
X594360Y875030D02*
D03*
X602615Y594360D02*
D03*
X594360Y544830D02*
D03*
X577850Y908050D02*
D03*
X586105Y891540D02*
D03*
X577850Y875030D02*
D03*
X586105Y726440D02*
D03*
X577850Y676910D02*
D03*
Y544830D02*
D03*
X561340Y941070D02*
D03*
X569595Y924560D02*
D03*
X561340Y908050D02*
D03*
X569595Y759460D02*
D03*
X561340Y544830D02*
D03*
X553085Y924560D02*
D03*
X544830Y908050D02*
D03*
Y544830D02*
D03*
X536575Y891540D02*
D03*
X528320Y842010D02*
D03*
X536575Y759460D02*
D03*
X528320Y544830D02*
D03*
X511810Y842010D02*
D03*
X520065Y825500D02*
D03*
Y759460D02*
D03*
X511810Y742950D02*
D03*
Y544830D02*
D03*
X495300Y908050D02*
D03*
X503555Y858520D02*
D03*
X495300Y842010D02*
D03*
X503555Y825500D02*
D03*
X495300Y808990D02*
D03*
X503555Y792480D02*
D03*
X495300Y775970D02*
D03*
X503555Y759460D02*
D03*
X495300Y742950D02*
D03*
X503555Y693420D02*
D03*
X495300Y610870D02*
D03*
X503555Y561340D02*
D03*
X495300Y544830D02*
D03*
X487045Y924560D02*
D03*
Y891540D02*
D03*
Y858520D02*
D03*
X478790Y842010D02*
D03*
X487045Y825500D02*
D03*
X478790Y808990D02*
D03*
X487045Y792480D02*
D03*
X478790Y775970D02*
D03*
X487045Y759460D02*
D03*
X478790Y742950D02*
D03*
X487045Y693420D02*
D03*
X478790Y643890D02*
D03*
X487045Y627380D02*
D03*
X478790Y610870D02*
D03*
X487045Y594360D02*
D03*
Y561340D02*
D03*
X478790Y544830D02*
D03*
X470535Y825500D02*
D03*
Y792480D02*
D03*
X462280Y775970D02*
D03*
X470535Y759460D02*
D03*
X462280Y742950D02*
D03*
X470535Y627380D02*
D03*
Y561340D02*
D03*
X462280Y544830D02*
D03*
X445770Y941070D02*
D03*
Y908050D02*
D03*
X454025Y825500D02*
D03*
Y792480D02*
D03*
Y759460D02*
D03*
X445770Y544830D02*
D03*
X429260Y941070D02*
D03*
Y908050D02*
D03*
X437515Y693420D02*
D03*
X429260Y610870D02*
D03*
Y544830D02*
D03*
X412750Y941070D02*
D03*
X421005Y924560D02*
D03*
X412750Y709930D02*
D03*
Y643890D02*
D03*
Y544830D02*
D03*
X396240Y941070D02*
D03*
X404495Y891540D02*
D03*
Y858520D02*
D03*
Y792480D02*
D03*
X396240Y709930D02*
D03*
X404495Y693420D02*
D03*
Y660400D02*
D03*
X396240Y643890D02*
D03*
X404495Y561340D02*
D03*
X396240Y544830D02*
D03*
X379730Y908050D02*
D03*
X387985Y891540D02*
D03*
X379730Y808990D02*
D03*
X387985Y660400D02*
D03*
X379730Y610870D02*
D03*
Y544830D02*
D03*
X371475Y924560D02*
D03*
X363220Y908050D02*
D03*
X371475Y891540D02*
D03*
X363220Y742950D02*
D03*
X371475Y726440D02*
D03*
X363220Y643890D02*
D03*
Y610870D02*
D03*
Y544830D02*
D03*
X354965Y924560D02*
D03*
X346710Y908050D02*
D03*
X354965Y891540D02*
D03*
X346710Y643890D02*
D03*
X354965Y594360D02*
D03*
Y561340D02*
D03*
X346710Y544830D02*
D03*
X338455Y891540D02*
D03*
Y627380D02*
D03*
Y561340D02*
D03*
X330200Y544830D02*
D03*
X321945Y924560D02*
D03*
Y891540D02*
D03*
X313690Y742950D02*
D03*
X321945Y561340D02*
D03*
X313690Y544830D02*
D03*
X305435Y924560D02*
D03*
X297180Y908050D02*
D03*
X305435Y627380D02*
D03*
X297180Y577850D02*
D03*
X305435Y561340D02*
D03*
X297180Y544830D02*
D03*
X288925Y891540D02*
D03*
X280670Y775970D02*
D03*
Y676910D02*
D03*
Y643890D02*
D03*
Y610870D02*
D03*
X288925Y594360D02*
D03*
X272415Y891540D02*
D03*
X264160Y808990D02*
D03*
X272415Y726440D02*
D03*
X264160Y709930D02*
D03*
Y643890D02*
D03*
X272415Y627380D02*
D03*
X264160Y610870D02*
D03*
X247650Y941070D02*
D03*
X255905Y891540D02*
D03*
X247650Y709930D02*
D03*
Y676910D02*
D03*
Y643890D02*
D03*
X255905Y627380D02*
D03*
X247650Y610870D02*
D03*
X239395Y957580D02*
D03*
X231140Y941070D02*
D03*
X239395Y924560D02*
D03*
X231140Y908050D02*
D03*
Y742950D02*
D03*
X239395Y726440D02*
D03*
X231140Y709930D02*
D03*
X239395Y693420D02*
D03*
X231140Y676910D02*
D03*
X239395Y660400D02*
D03*
X231140Y643890D02*
D03*
X239395Y627380D02*
D03*
X231140Y610870D02*
D03*
X417830Y1021080D02*
D03*
X389890Y1013460D02*
D03*
X452120Y563880D02*
D03*
X341630Y1078230D02*
D03*
X365760Y713740D02*
D03*
X621030Y588010D02*
D03*
Y594360D02*
D03*
X544830Y703580D02*
D03*
X556260Y753110D02*
D03*
X541020Y791210D02*
D03*
X673100Y878840D02*
D03*
X647700D02*
D03*
X600710Y855980D02*
D03*
Y848360D02*
D03*
X673100Y726440D02*
D03*
Y840740D02*
D03*
Y802640D02*
D03*
Y764540D02*
D03*
X542290Y835660D02*
D03*
X552450Y830580D02*
D03*
X546100Y842010D02*
D03*
X554990Y853440D02*
D03*
X568960Y850900D02*
D03*
X600710Y862330D02*
D03*
X551180Y847090D02*
D03*
X566420Y805180D02*
D03*
X541020Y798830D02*
D03*
X518160Y635000D02*
D03*
X519430Y854710D02*
D03*
X539750Y742950D02*
D03*
X534670Y749300D02*
D03*
X467360Y646430D02*
D03*
X464270Y672550D02*
D03*
X454270Y684530D02*
D03*
X359410Y1057910D02*
D03*
X282448Y877824D02*
D03*
X282194Y870204D02*
D03*
X313690Y784860D02*
D03*
X401320Y734060D02*
D03*
X388620Y722630D02*
D03*
X388112Y684530D02*
D03*
X397510Y694944D02*
D03*
X551180Y678180D02*
D03*
X668020Y663448D02*
D03*
X680720Y649986D02*
D03*
X650748Y585724D02*
D03*
X562610Y603504D02*
D03*
X369570Y650240D02*
D03*
X346710Y746760D02*
D03*
X340360D02*
D03*
X334010D02*
D03*
X327660D02*
D03*
X335280Y648970D02*
D03*
Y640080D02*
D03*
X354330Y655320D02*
D03*
X364490Y678180D02*
D03*
X345440D02*
D03*
X354330D02*
D03*
X280670Y712470D02*
D03*
X397510Y661670D02*
D03*
X513080Y660400D02*
D03*
X346710Y1083310D02*
D03*
X464820Y847090D02*
D03*
X462280Y802640D02*
D03*
X458470Y807720D02*
D03*
X336550Y1083310D02*
D03*
X443230Y608330D02*
D03*
X911860Y596900D02*
D03*
X916940Y601980D02*
D03*
X817880Y566420D02*
D03*
X807720Y561340D02*
D03*
X561340Y746760D02*
D03*
X568960Y741680D02*
D03*
X477520Y582930D02*
D03*
X316230Y681990D02*
D03*
Y675640D02*
D03*
X474270Y659690D02*
D03*
X459270Y659600D02*
D03*
X524510Y890270D02*
D03*
X458470Y855980D02*
D03*
X454660Y812800D02*
D03*
X449580Y817880D02*
D03*
X469900Y857250D02*
D03*
X377190Y816610D02*
D03*
X384810Y834390D02*
D03*
Y822960D02*
D03*
X344170Y1167130D02*
D03*
Y1182370D02*
D03*
D91*
X514350Y1009650D02*
D03*
X379730Y1052830D02*
D03*
X538480Y577850D02*
D03*
Y584200D02*
D03*
Y571500D02*
D03*
Y565150D02*
D03*
X283210Y721360D02*
D03*
X238760Y774700D02*
D03*
Y768350D02*
D03*
X283210Y727710D02*
D03*
X461010Y930910D02*
D03*
Y924560D02*
D03*
Y937260D02*
D03*
X610870Y770890D02*
D03*
X601980Y806450D02*
D03*
Y798830D02*
D03*
X652780Y861060D02*
D03*
X646430D02*
D03*
X419100Y695960D02*
D03*
X412750D02*
D03*
X364490Y1043940D02*
D03*
X416560Y1012190D02*
D03*
X386080Y1005840D02*
D03*
X455930Y594360D02*
D03*
X461010Y571500D02*
D03*
X466090Y594360D02*
D03*
X488950Y575310D02*
D03*
X346710Y734060D02*
D03*
X340360D02*
D03*
X327660D02*
D03*
X334010D02*
D03*
X614680Y883920D02*
D03*
X607060Y876300D02*
D03*
X614680D02*
D03*
X599440Y688340D02*
D03*
Y701040D02*
D03*
X306070Y612140D02*
D03*
X299720D02*
D03*
X293370D02*
D03*
X461010Y911860D02*
D03*
Y918210D02*
D03*
X356870Y803910D02*
D03*
Y810260D02*
D03*
X316230Y880110D02*
D03*
X599440Y694690D02*
D03*
X605790D02*
D03*
X431800Y713740D02*
D03*
X424180D02*
D03*
X551180Y902970D02*
D03*
X414020Y1117600D02*
D03*
X420370D02*
D03*
X426720D02*
D03*
X433070D02*
D03*
X364490Y863600D02*
D03*
X425450Y1156970D02*
D03*
Y1164590D02*
D03*
X433070D02*
D03*
X356870Y863600D02*
D03*
X349250D02*
D03*
D92*
X711200Y685800D02*
D03*
Y711200D02*
D03*
Y736600D02*
D03*
Y762000D02*
D03*
Y787400D02*
D03*
Y812800D02*
D03*
Y838200D02*
D03*
Y863600D02*
D03*
Y889000D02*
D03*
X736600Y1117600D02*
D03*
X711200D02*
D03*
X685800D02*
D03*
X660400D02*
D03*
Y1092200D02*
D03*
X685800D02*
D03*
X711200D02*
D03*
X736600D02*
D03*
Y965200D02*
D03*
Y990600D02*
D03*
Y1016000D02*
D03*
Y1041400D02*
D03*
Y1066800D02*
D03*
X711200Y914400D02*
D03*
X685800D02*
D03*
X660400D02*
D03*
X635000D02*
D03*
X609600D02*
D03*
Y965200D02*
D03*
Y939800D02*
D03*
X635000D02*
D03*
Y965200D02*
D03*
Y990600D02*
D03*
Y1041400D02*
D03*
Y1016000D02*
D03*
X711200Y939800D02*
D03*
X685800D02*
D03*
X660400D02*
D03*
X685800Y965200D02*
D03*
X660400D02*
D03*
Y990600D02*
D03*
X685800D02*
D03*
Y1016000D02*
D03*
X660400D02*
D03*
X711200Y1066800D02*
D03*
X685800D02*
D03*
X660400D02*
D03*
Y1041400D02*
D03*
X685800D02*
D03*
X711200D02*
D03*
Y1016000D02*
D03*
Y990600D02*
D03*
Y965200D02*
D03*
M02*
