G04*
G04 #@! TF.GenerationSoftware,Altium Limited,Altium Designer,19.1.6 (110)*
G04*
G04 Layer_Color=16711935*
%FSLAX44Y44*%
%MOMM*%
G71*
G01*
G75*
G04:AMPARAMS|DCode=34|XSize=0.9mm|YSize=1.1mm|CornerRadius=0.15mm|HoleSize=0mm|Usage=FLASHONLY|Rotation=0.000|XOffset=0mm|YOffset=0mm|HoleType=Round|Shape=RoundedRectangle|*
%AMROUNDEDRECTD34*
21,1,0.9000,0.8000,0,0,0.0*
21,1,0.6000,1.1000,0,0,0.0*
1,1,0.3000,0.3000,-0.4000*
1,1,0.3000,-0.3000,-0.4000*
1,1,0.3000,-0.3000,0.4000*
1,1,0.3000,0.3000,0.4000*
%
%ADD34ROUNDEDRECTD34*%
G04:AMPARAMS|DCode=35|XSize=0.9mm|YSize=1.1mm|CornerRadius=0.15mm|HoleSize=0mm|Usage=FLASHONLY|Rotation=90.000|XOffset=0mm|YOffset=0mm|HoleType=Round|Shape=RoundedRectangle|*
%AMROUNDEDRECTD35*
21,1,0.9000,0.8000,0,0,90.0*
21,1,0.6000,1.1000,0,0,90.0*
1,1,0.3000,0.4000,0.3000*
1,1,0.3000,0.4000,-0.3000*
1,1,0.3000,-0.4000,-0.3000*
1,1,0.3000,-0.4000,0.3000*
%
%ADD35ROUNDEDRECTD35*%
%ADD45R,1.5000X2.5000*%
%ADD47O,2.1000X1.6240*%
%ADD48C,2.1000*%
%ADD49C,1.9000*%
%ADD50P,2.0566X8X202.5*%
G04:AMPARAMS|DCode=51|XSize=2.2mm|YSize=2.2mm|CornerRadius=0.575mm|HoleSize=0mm|Usage=FLASHONLY|Rotation=90.000|XOffset=0mm|YOffset=0mm|HoleType=Round|Shape=RoundedRectangle|*
%AMROUNDEDRECTD51*
21,1,2.2000,1.0500,0,0,90.0*
21,1,1.0500,2.2000,0,0,90.0*
1,1,1.1500,0.5250,0.5250*
1,1,1.1500,0.5250,-0.5250*
1,1,1.1500,-0.5250,-0.5250*
1,1,1.1500,-0.5250,0.5250*
%
%ADD51ROUNDEDRECTD51*%
%ADD52C,2.2000*%
%ADD53C,1.7000*%
%ADD54R,1.7000X1.7000*%
%ADD55R,1.4000X1.4000*%
%ADD56C,1.4000*%
%ADD57C,1.4500*%
%ADD58O,5.6000X2.6400*%
%ADD59O,1.4970X1.8780*%
%ADD60O,1.5000X1.7510*%
%ADD61P,1.8401X8X292.5*%
%ADD62C,0.8000*%
%ADD63C,6.1000*%
%ADD67C,1.0000*%
G04:AMPARAMS|DCode=100|XSize=1.55mm|YSize=0.6mm|CornerRadius=0.051mm|HoleSize=0mm|Usage=FLASHONLY|Rotation=180.000|XOffset=0mm|YOffset=0mm|HoleType=Round|Shape=RoundedRectangle|*
%AMROUNDEDRECTD100*
21,1,1.5500,0.4980,0,0,180.0*
21,1,1.4480,0.6000,0,0,180.0*
1,1,0.1020,-0.7240,0.2490*
1,1,0.1020,0.7240,0.2490*
1,1,0.1020,0.7240,-0.2490*
1,1,0.1020,-0.7240,-0.2490*
%
%ADD100ROUNDEDRECTD100*%
G04:AMPARAMS|DCode=110|XSize=0.7mm|YSize=1.55mm|CornerRadius=0.101mm|HoleSize=0mm|Usage=FLASHONLY|Rotation=270.000|XOffset=0mm|YOffset=0mm|HoleType=Round|Shape=RoundedRectangle|*
%AMROUNDEDRECTD110*
21,1,0.7000,1.3480,0,0,270.0*
21,1,0.4980,1.5500,0,0,270.0*
1,1,0.2020,-0.6740,-0.2490*
1,1,0.2020,-0.6740,0.2490*
1,1,0.2020,0.6740,0.2490*
1,1,0.2020,0.6740,-0.2490*
%
%ADD110ROUNDEDRECTD110*%
%ADD111O,2.1000X0.4500*%
%ADD112O,2.0000X0.7000*%
G04:AMPARAMS|DCode=113|XSize=1.37mm|YSize=2.2mm|CornerRadius=0.2088mm|HoleSize=0mm|Usage=FLASHONLY|Rotation=90.000|XOffset=0mm|YOffset=0mm|HoleType=Round|Shape=RoundedRectangle|*
%AMROUNDEDRECTD113*
21,1,1.3700,1.7825,0,0,90.0*
21,1,0.9525,2.2000,0,0,90.0*
1,1,0.4175,0.8913,0.4763*
1,1,0.4175,0.8913,-0.4763*
1,1,0.4175,-0.8913,-0.4763*
1,1,0.4175,-0.8913,0.4763*
%
%ADD113ROUNDEDRECTD113*%
G04:AMPARAMS|DCode=114|XSize=1.4mm|YSize=1.2mm|CornerRadius=0.105mm|HoleSize=0mm|Usage=FLASHONLY|Rotation=0.000|XOffset=0mm|YOffset=0mm|HoleType=Round|Shape=RoundedRectangle|*
%AMROUNDEDRECTD114*
21,1,1.4000,0.9900,0,0,0.0*
21,1,1.1900,1.2000,0,0,0.0*
1,1,0.2100,0.5950,-0.4950*
1,1,0.2100,-0.5950,-0.4950*
1,1,0.2100,-0.5950,0.4950*
1,1,0.2100,0.5950,0.4950*
%
%ADD114ROUNDEDRECTD114*%
%ADD115R,0.8000X1.0000*%
%ADD116O,0.5500X1.4500*%
%ADD117R,0.9000X1.0000*%
%ADD118R,1.9000X1.9400*%
%ADD119O,1.7500X0.7500*%
%ADD120R,1.0000X0.8000*%
%ADD121R,1.8000X2.6000*%
%ADD122R,4.1000X1.6000*%
G04:AMPARAMS|DCode=123|XSize=0.7mm|YSize=1.3mm|CornerRadius=0.125mm|HoleSize=0mm|Usage=FLASHONLY|Rotation=90.000|XOffset=0mm|YOffset=0mm|HoleType=Round|Shape=RoundedRectangle|*
%AMROUNDEDRECTD123*
21,1,0.7000,1.0500,0,0,90.0*
21,1,0.4500,1.3000,0,0,90.0*
1,1,0.2500,0.5250,0.2250*
1,1,0.2500,0.5250,-0.2250*
1,1,0.2500,-0.5250,-0.2250*
1,1,0.2500,-0.5250,0.2250*
%
%ADD123ROUNDEDRECTD123*%
%ADD124R,1.1000X3.4000*%
%ADD125R,1.8200X3.3000*%
G36*
X868831Y1227414D02*
X869160Y1227273D01*
X869395Y1227085D01*
X869583Y1226897D01*
X869724Y1226708D01*
X869818Y1226520D01*
X869865Y1226379D01*
Y1226332D01*
X870289Y1224875D01*
X870336Y1224593D01*
Y1224499D01*
Y1224452D01*
X870289Y1223934D01*
X870101Y1223605D01*
X869865Y1223323D01*
X869583Y1223135D01*
X869301Y1223041D01*
X869066Y1222994D01*
X868878Y1222947D01*
X868831D01*
X868455Y1222994D01*
X868126Y1223135D01*
X867891Y1223323D01*
X867703Y1223511D01*
X867562Y1223699D01*
X867468Y1223887D01*
X867421Y1224028D01*
Y1224076D01*
X866998Y1225533D01*
X866951Y1225815D01*
Y1225909D01*
Y1225956D01*
X866998Y1226473D01*
X867186Y1226850D01*
X867421Y1227085D01*
X867703Y1227273D01*
X867985Y1227367D01*
X868220Y1227461D01*
X868455D01*
X868831Y1227414D01*
D02*
G37*
G36*
X800894D02*
X801223Y1227273D01*
X801458Y1227085D01*
X801646Y1226897D01*
X801787Y1226708D01*
X801881Y1226520D01*
X801928Y1226379D01*
Y1226332D01*
X802351Y1224875D01*
X802398Y1224593D01*
Y1224499D01*
Y1224452D01*
X802351Y1223934D01*
X802163Y1223605D01*
X801928Y1223323D01*
X801646Y1223135D01*
X801364Y1223041D01*
X801129Y1222994D01*
X800941Y1222947D01*
X800894D01*
X800518Y1222994D01*
X800236Y1223135D01*
X799954Y1223323D01*
X799765Y1223511D01*
X799624Y1223699D01*
X799530Y1223887D01*
X799483Y1224028D01*
Y1224076D01*
X799060Y1225533D01*
X799013Y1225815D01*
Y1225909D01*
Y1225956D01*
X799060Y1226473D01*
X799248Y1226850D01*
X799483Y1227085D01*
X799765Y1227273D01*
X800048Y1227367D01*
X800283Y1227461D01*
X800518D01*
X800894Y1227414D01*
D02*
G37*
G36*
X1001650Y1227414D02*
X1001979Y1227273D01*
X1002214Y1227085D01*
X1002402Y1226897D01*
X1002543Y1226708D01*
X1002637Y1226520D01*
X1002684Y1226379D01*
Y1226332D01*
X1009877Y1199533D01*
X1009971Y1199204D01*
Y1199110D01*
Y1199063D01*
X1009877Y1198687D01*
X1009736Y1198358D01*
X1009595Y1198170D01*
X1009501Y1198076D01*
X1009125Y1197841D01*
X1008796Y1197700D01*
X1008514Y1197653D01*
X1008420D01*
X1008044Y1197700D01*
X1007762Y1197841D01*
X1007480Y1197982D01*
X1007291Y1198217D01*
X1007150Y1198405D01*
X1007056Y1198546D01*
X1007009Y1198687D01*
Y1198734D01*
X1002496Y1215566D01*
X995914D01*
X995538Y1215472D01*
X995209Y1215378D01*
X994927Y1215284D01*
X994503Y1214955D01*
X994174Y1214625D01*
X994033Y1214249D01*
X993939Y1213920D01*
X993892Y1213732D01*
Y1213638D01*
X993939Y1213262D01*
X993986Y1212933D01*
X994033Y1212651D01*
X994080Y1212604D01*
Y1212557D01*
X997559Y1199533D01*
X997606Y1199204D01*
Y1199110D01*
Y1199063D01*
X997559Y1198687D01*
X997371Y1198358D01*
X997230Y1198170D01*
X997183Y1198076D01*
X996807Y1197841D01*
X996478Y1197700D01*
X996196Y1197653D01*
X996102D01*
X995726Y1197700D01*
X995444Y1197841D01*
X995162Y1197982D01*
X994974Y1198217D01*
X994832Y1198405D01*
X994738Y1198546D01*
X994691Y1198687D01*
Y1198734D01*
X990977Y1212557D01*
X990883Y1212980D01*
X990789Y1213403D01*
Y1213685D01*
Y1213732D01*
Y1213779D01*
X990836Y1214484D01*
X991024Y1215143D01*
X991212Y1215707D01*
X991494Y1216177D01*
X991729Y1216600D01*
X991964Y1216882D01*
X992152Y1217070D01*
X992200Y1217117D01*
X992717Y1217588D01*
X993281Y1217917D01*
X993845Y1218199D01*
X994362Y1218340D01*
X994832Y1218434D01*
X995209Y1218528D01*
X1001697D01*
X999816Y1225533D01*
X999769Y1225815D01*
Y1225909D01*
Y1225956D01*
X999816Y1226473D01*
X1000004Y1226850D01*
X1000239Y1227085D01*
X1000521Y1227273D01*
X1000803Y1227367D01*
X1001039Y1227461D01*
X1001273D01*
X1001650Y1227414D01*
D02*
G37*
G36*
X976872Y1218434D02*
X977578Y1218387D01*
X978189Y1218246D01*
X978753Y1218105D01*
X979270Y1217964D01*
X979788Y1217822D01*
X980211Y1217682D01*
X980587Y1217493D01*
X980916Y1217352D01*
X981198Y1217211D01*
X981433Y1217070D01*
X981621Y1216929D01*
X981762Y1216882D01*
X981809Y1216788D01*
X981856D01*
X982279Y1216459D01*
X982655Y1216036D01*
X983314Y1215143D01*
X983878Y1214202D01*
X984348Y1213262D01*
X984677Y1212416D01*
X984818Y1212040D01*
X984959Y1211711D01*
X985053Y1211428D01*
X985100Y1211240D01*
X985147Y1211099D01*
Y1211052D01*
X987169Y1203577D01*
X987263Y1203154D01*
X987310Y1202778D01*
Y1202449D01*
Y1202402D01*
Y1202355D01*
X987263Y1201649D01*
X987075Y1201038D01*
X986887Y1200474D01*
X986605Y1199957D01*
X986370Y1199581D01*
X986135Y1199251D01*
X985993Y1199063D01*
X985947Y1199016D01*
X985382Y1198546D01*
X984818Y1198217D01*
X984254Y1197982D01*
X983737Y1197841D01*
X983314Y1197747D01*
X982937Y1197653D01*
X974475D01*
X974005Y1197700D01*
X973628Y1197888D01*
X973393Y1198123D01*
X973205Y1198405D01*
X973111Y1198640D01*
X973017Y1198875D01*
Y1199063D01*
Y1199110D01*
X973064Y1199628D01*
X973252Y1200004D01*
X973487Y1200239D01*
X973723Y1200427D01*
X974005Y1200521D01*
X974240Y1200615D01*
X982232D01*
X982608Y1200709D01*
X982937Y1200803D01*
X983173Y1200897D01*
X983643Y1201226D01*
X983925Y1201555D01*
X984066Y1201884D01*
X984160Y1202213D01*
X984207Y1202402D01*
Y1202495D01*
X984160Y1202872D01*
X984113Y1203248D01*
X984066Y1203483D01*
Y1203530D01*
Y1203577D01*
X983267Y1206586D01*
X970949D01*
X969726Y1211052D01*
X969632Y1211617D01*
X969538Y1212134D01*
Y1212322D01*
Y1212510D01*
Y1212604D01*
Y1212651D01*
X969632Y1213497D01*
X969679Y1213920D01*
X969773Y1214249D01*
X969867Y1214531D01*
X969914Y1214766D01*
X970008Y1214908D01*
Y1214955D01*
X970290Y1215566D01*
X970667Y1216130D01*
X971043Y1216600D01*
X971466Y1217023D01*
X971889Y1217352D01*
X972359Y1217635D01*
X972829Y1217917D01*
X973252Y1218105D01*
X974099Y1218340D01*
X974475Y1218434D01*
X974757Y1218481D01*
X975039Y1218528D01*
X975415D01*
X976872Y1218434D01*
D02*
G37*
G36*
X911380Y1218481D02*
X911709Y1218340D01*
X911944Y1218152D01*
X912132Y1217964D01*
X912273Y1217729D01*
X912367Y1217540D01*
X912414Y1217399D01*
Y1217352D01*
X917210Y1199533D01*
X917304Y1199204D01*
Y1199110D01*
Y1199063D01*
X917210Y1198687D01*
X917069Y1198358D01*
X916928Y1198170D01*
X916834Y1198076D01*
X916458Y1197841D01*
X916129Y1197700D01*
X915847Y1197653D01*
X915752D01*
X915376Y1197700D01*
X915094Y1197841D01*
X914812Y1197982D01*
X914624Y1198217D01*
X914483Y1198405D01*
X914389Y1198546D01*
X914342Y1198687D01*
Y1198734D01*
X909829Y1215566D01*
X903670D01*
X903952Y1214437D01*
X904046Y1214155D01*
Y1214061D01*
Y1214014D01*
X903952Y1213638D01*
X903811Y1213309D01*
X903670Y1213074D01*
X903576Y1212980D01*
X903199Y1212745D01*
X902823Y1212604D01*
X902588Y1212557D01*
X902494D01*
X902118Y1212604D01*
X901836Y1212745D01*
X901554Y1212933D01*
X901366Y1213121D01*
X901225Y1213309D01*
X901131Y1213497D01*
X901084Y1213638D01*
Y1213685D01*
X900285Y1216647D01*
X900237Y1216929D01*
Y1216976D01*
Y1217023D01*
X900285Y1217540D01*
X900472Y1217916D01*
X900708Y1218152D01*
X900990Y1218340D01*
X901272Y1218434D01*
X901507Y1218528D01*
X911004D01*
X911380Y1218481D01*
D02*
G37*
G36*
X887308Y1218434D02*
X888013Y1218387D01*
X888625Y1218246D01*
X889189Y1218105D01*
X889706Y1217964D01*
X890223Y1217822D01*
X890646Y1217682D01*
X891022Y1217493D01*
X891351Y1217352D01*
X891634Y1217211D01*
X891869Y1217070D01*
X892057Y1216929D01*
X892198Y1216882D01*
X892245Y1216788D01*
X892292D01*
X892715Y1216459D01*
X893091Y1216036D01*
X893749Y1215143D01*
X894314Y1214202D01*
X894784Y1213262D01*
X895113Y1212416D01*
X895254Y1212040D01*
X895395Y1211711D01*
X895489Y1211428D01*
X895536Y1211240D01*
X895583Y1211099D01*
Y1211052D01*
X897181Y1205081D01*
X897275Y1204517D01*
X897322Y1204000D01*
X897370Y1203765D01*
Y1203577D01*
Y1203483D01*
Y1203436D01*
X897275Y1202542D01*
X897087Y1201743D01*
X896852Y1201038D01*
X896523Y1200474D01*
X896194Y1199957D01*
X895959Y1199581D01*
X895771Y1199392D01*
X895677Y1199298D01*
X895019Y1198734D01*
X894314Y1198358D01*
X893608Y1198076D01*
X892950Y1197841D01*
X892386Y1197747D01*
X891916Y1197700D01*
X891728Y1197653D01*
X891493D01*
X890458Y1197700D01*
X889565Y1197747D01*
X888766Y1197888D01*
X888108Y1198029D01*
X887543Y1198123D01*
X887167Y1198264D01*
X886932Y1198311D01*
X886838Y1198358D01*
X886180Y1198687D01*
X885569Y1199063D01*
X885005Y1199533D01*
X884487Y1200051D01*
X884017Y1200568D01*
X883641Y1201132D01*
X882936Y1202307D01*
X882419Y1203342D01*
X882184Y1203812D01*
X882042Y1204235D01*
X881901Y1204611D01*
X881807Y1204846D01*
X881760Y1205034D01*
Y1205081D01*
X880162Y1211052D01*
X880068Y1211617D01*
X879974Y1212181D01*
Y1212369D01*
Y1212557D01*
Y1212651D01*
Y1212698D01*
X880068Y1213544D01*
X880115Y1213920D01*
X880209Y1214249D01*
X880303Y1214531D01*
X880350Y1214766D01*
X880444Y1214908D01*
Y1214955D01*
X880726Y1215566D01*
X881102Y1216130D01*
X881478Y1216600D01*
X881901Y1217023D01*
X882325Y1217352D01*
X882795Y1217634D01*
X883265Y1217916D01*
X883688Y1218105D01*
X884534Y1218340D01*
X884910Y1218434D01*
X885192Y1218481D01*
X885475Y1218528D01*
X885851D01*
X887308Y1218434D01*
D02*
G37*
G36*
X856419D02*
X857124Y1218387D01*
X857736Y1218246D01*
X858300Y1218105D01*
X858817Y1217964D01*
X859334Y1217822D01*
X859757Y1217682D01*
X860133Y1217493D01*
X860462Y1217352D01*
X860744Y1217211D01*
X860980Y1217070D01*
X861168Y1216929D01*
X861309Y1216882D01*
X861356Y1216788D01*
X861403D01*
X861826Y1216459D01*
X862202Y1216036D01*
X862860Y1215143D01*
X863424Y1214202D01*
X863895Y1213262D01*
X864224Y1212416D01*
X864365Y1212040D01*
X864506Y1211711D01*
X864600Y1211428D01*
X864647Y1211240D01*
X864694Y1211099D01*
Y1211052D01*
X866715Y1203577D01*
X866809Y1203154D01*
X866857Y1202778D01*
Y1202449D01*
Y1202402D01*
Y1202354D01*
X866809Y1201649D01*
X866621Y1201038D01*
X866433Y1200474D01*
X866151Y1199957D01*
X865916Y1199581D01*
X865681Y1199251D01*
X865540Y1199063D01*
X865493Y1199016D01*
X864929Y1198546D01*
X864365Y1198217D01*
X863801Y1197982D01*
X863283Y1197841D01*
X862860Y1197747D01*
X862484Y1197653D01*
X854021D01*
X853551Y1197700D01*
X853175Y1197888D01*
X852940Y1198123D01*
X852752Y1198405D01*
X852658Y1198640D01*
X852564Y1198875D01*
Y1199063D01*
Y1199110D01*
X852611Y1199628D01*
X852799Y1200004D01*
X853034Y1200239D01*
X853269Y1200427D01*
X853551Y1200521D01*
X853786Y1200615D01*
X861779D01*
X862155Y1200709D01*
X862484Y1200803D01*
X862719Y1200897D01*
X863189Y1201226D01*
X863471Y1201555D01*
X863612Y1201884D01*
X863707Y1202213D01*
X863754Y1202402D01*
Y1202495D01*
X863707Y1202872D01*
X863660Y1203248D01*
X863612Y1203483D01*
Y1203530D01*
Y1203577D01*
X862813Y1206586D01*
X850495D01*
X849273Y1211052D01*
X849179Y1211617D01*
X849085Y1212134D01*
Y1212322D01*
Y1212510D01*
Y1212604D01*
Y1212651D01*
X849179Y1213497D01*
X849226Y1213920D01*
X849320Y1214249D01*
X849414Y1214531D01*
X849461Y1214766D01*
X849555Y1214908D01*
Y1214955D01*
X849837Y1215566D01*
X850213Y1216130D01*
X850589Y1216600D01*
X851012Y1217023D01*
X851435Y1217352D01*
X851906Y1217634D01*
X852376Y1217916D01*
X852799Y1218105D01*
X853645Y1218340D01*
X854021Y1218434D01*
X854303Y1218481D01*
X854585Y1218528D01*
X854962D01*
X856419Y1218434D01*
D02*
G37*
G36*
X835732Y1218481D02*
X836438Y1218434D01*
X837096Y1218340D01*
X837613Y1218246D01*
X838036Y1218105D01*
X838365Y1218011D01*
X838600Y1217964D01*
X838647Y1217916D01*
X839164Y1217682D01*
X839635Y1217352D01*
X840105Y1216976D01*
X840528Y1216600D01*
X841186Y1215707D01*
X841750Y1214814D01*
X842173Y1213967D01*
X842362Y1213544D01*
X842456Y1213215D01*
X842550Y1212933D01*
X842644Y1212745D01*
X842691Y1212604D01*
Y1212557D01*
X845088Y1203577D01*
X845182Y1203154D01*
X845229Y1202778D01*
Y1202449D01*
Y1202402D01*
Y1202354D01*
X845182Y1201649D01*
X844994Y1201038D01*
X844806Y1200474D01*
X844524Y1199957D01*
X844289Y1199581D01*
X844054Y1199251D01*
X843913Y1199063D01*
X843866Y1199016D01*
X843302Y1198546D01*
X842738Y1198217D01*
X842173Y1197982D01*
X841656Y1197841D01*
X841233Y1197747D01*
X840857Y1197653D01*
X835497D01*
X834980Y1197700D01*
X834604Y1197888D01*
X834369Y1198123D01*
X834181Y1198405D01*
X834087Y1198640D01*
X833993Y1198875D01*
Y1199063D01*
Y1199110D01*
X834040Y1199628D01*
X834228Y1200004D01*
X834463Y1200239D01*
X834745Y1200427D01*
X835027Y1200521D01*
X835262Y1200615D01*
X839729D01*
X840152Y1200662D01*
X840528Y1200709D01*
X840857Y1200803D01*
X841139Y1200944D01*
X841562Y1201273D01*
X841844Y1201649D01*
X842032Y1201978D01*
X842126Y1202307D01*
X842173Y1202542D01*
Y1202636D01*
X842126Y1202919D01*
X842079Y1203201D01*
X842032Y1203483D01*
X841985Y1203530D01*
Y1203577D01*
X839588Y1212557D01*
X839399Y1213074D01*
X839212Y1213544D01*
X838929Y1213967D01*
X838647Y1214296D01*
X838365Y1214578D01*
X838036Y1214814D01*
X837331Y1215190D01*
X836720Y1215425D01*
X836202Y1215519D01*
X835967Y1215566D01*
X830655D01*
X830184Y1215613D01*
X829808Y1215801D01*
X829573Y1216036D01*
X829385Y1216318D01*
X829291Y1216553D01*
X829197Y1216788D01*
Y1216976D01*
Y1217023D01*
X829244Y1217540D01*
X829432Y1217916D01*
X829667Y1218152D01*
X829902Y1218340D01*
X830184Y1218434D01*
X830420Y1218528D01*
X834933D01*
X835732Y1218481D01*
D02*
G37*
G36*
X816315Y1227414D02*
X816644Y1227273D01*
X816879Y1227085D01*
X817067Y1226897D01*
X817208Y1226708D01*
X817302Y1226520D01*
X817396Y1226379D01*
Y1226332D01*
X819465Y1218528D01*
X821440D01*
X821910Y1218481D01*
X822286Y1218293D01*
X822521Y1218058D01*
X822709Y1217775D01*
X822803Y1217493D01*
X822850Y1217258D01*
X822897Y1217070D01*
Y1217023D01*
X822850Y1216553D01*
X822662Y1216177D01*
X822427Y1215942D01*
X822145Y1215754D01*
X821910Y1215660D01*
X821675Y1215613D01*
X821487Y1215566D01*
X820264D01*
X824543Y1199533D01*
X824637Y1199204D01*
Y1199110D01*
Y1199063D01*
X824543Y1198687D01*
X824402Y1198358D01*
X824261Y1198170D01*
X824166Y1198076D01*
X823790Y1197841D01*
X823461Y1197700D01*
X823226Y1197653D01*
X823132D01*
X822756Y1197700D01*
X822427Y1197841D01*
X822192Y1197982D01*
X821957Y1198217D01*
X821816Y1198405D01*
X821722Y1198546D01*
X821675Y1198687D01*
Y1198734D01*
X817208Y1215566D01*
X812178D01*
X811660Y1215613D01*
X811284Y1215801D01*
X811049Y1216036D01*
X810861Y1216318D01*
X810767Y1216553D01*
X810673Y1216788D01*
Y1216976D01*
Y1217023D01*
X810720Y1217540D01*
X810908Y1217916D01*
X811143Y1218152D01*
X811425Y1218340D01*
X811707Y1218434D01*
X811943Y1218528D01*
X816409D01*
X814528Y1225533D01*
X814481Y1225815D01*
Y1225909D01*
Y1225956D01*
X814528Y1226473D01*
X814716Y1226850D01*
X814951Y1227085D01*
X815187Y1227273D01*
X815469Y1227367D01*
X815704Y1227461D01*
X815939D01*
X816315Y1227414D01*
D02*
G37*
G36*
X803339Y1218434D02*
X803668Y1218293D01*
X803903Y1218152D01*
X804091Y1217964D01*
X804232Y1217729D01*
X804326Y1217587D01*
X804373Y1217446D01*
Y1217399D01*
X809169Y1199533D01*
X809216Y1199204D01*
Y1199110D01*
Y1199063D01*
X809122Y1198687D01*
X808981Y1198358D01*
X808839Y1198170D01*
X808745Y1198076D01*
X808369Y1197841D01*
X808040Y1197700D01*
X807805Y1197653D01*
X807711D01*
X807288Y1197700D01*
X807006Y1197841D01*
X806724Y1197982D01*
X806536Y1198217D01*
X806395Y1198405D01*
X806301Y1198546D01*
X806254Y1198687D01*
Y1198734D01*
X801458Y1216600D01*
X801411Y1216741D01*
Y1216882D01*
Y1216976D01*
Y1217023D01*
X801505Y1217446D01*
X801646Y1217775D01*
X801787Y1217964D01*
X801881Y1218058D01*
X802257Y1218293D01*
X802587Y1218434D01*
X802868Y1218481D01*
X802963D01*
X803339Y1218434D01*
D02*
G37*
G36*
X791632Y1227414D02*
X791961Y1227273D01*
X792196Y1227085D01*
X792384Y1226897D01*
X792525Y1226708D01*
X792619Y1226520D01*
X792666Y1226379D01*
Y1226332D01*
X799201Y1202119D01*
X799295Y1201790D01*
X799342Y1201461D01*
Y1201273D01*
Y1201179D01*
X799295Y1200662D01*
X799154Y1200145D01*
X798966Y1199722D01*
X798731Y1199345D01*
X798543Y1199063D01*
X798355Y1198828D01*
X798214Y1198687D01*
X798167Y1198640D01*
X797697Y1198311D01*
X797227Y1198076D01*
X796757Y1197888D01*
X796286Y1197794D01*
X795910Y1197700D01*
X795628Y1197653D01*
X795346D01*
X794829Y1197700D01*
X794453Y1197888D01*
X794218Y1198123D01*
X794030Y1198405D01*
X793936Y1198640D01*
X793842Y1198875D01*
Y1199063D01*
Y1199110D01*
X793889Y1199628D01*
X794077Y1200004D01*
X794312Y1200239D01*
X794594Y1200427D01*
X794876Y1200521D01*
X795111Y1200615D01*
X795346D01*
X795628Y1200662D01*
X795816Y1200756D01*
X796004Y1200850D01*
X796098Y1201038D01*
X796192Y1201273D01*
Y1201367D01*
Y1201414D01*
Y1201649D01*
X796145Y1201884D01*
X796098Y1202072D01*
Y1202119D01*
X789798Y1225533D01*
X789751Y1225815D01*
Y1225909D01*
Y1225956D01*
X789798Y1226473D01*
X789986Y1226849D01*
X790221Y1227085D01*
X790503Y1227273D01*
X790786Y1227367D01*
X791021Y1227461D01*
X791256D01*
X791632Y1227414D01*
D02*
G37*
G36*
X776117Y1218434D02*
X776822Y1218387D01*
X777433Y1218246D01*
X777997Y1218105D01*
X778515Y1217963D01*
X779032Y1217822D01*
X779455Y1217681D01*
X779831Y1217493D01*
X780160Y1217352D01*
X780442Y1217211D01*
X780677Y1217070D01*
X780865Y1216929D01*
X781006Y1216882D01*
X781053Y1216788D01*
X781100D01*
X781524Y1216459D01*
X781900Y1216036D01*
X782558Y1215143D01*
X783122Y1214202D01*
X783592Y1213262D01*
X783921Y1212416D01*
X784062Y1212040D01*
X784203Y1211711D01*
X784297Y1211428D01*
X784344Y1211240D01*
X784391Y1211099D01*
Y1211052D01*
X786413Y1203577D01*
X786507Y1203154D01*
X786554Y1202778D01*
Y1202448D01*
Y1202401D01*
Y1202354D01*
X786507Y1201649D01*
X786319Y1201038D01*
X786131Y1200474D01*
X785849Y1199957D01*
X785614Y1199581D01*
X785379Y1199251D01*
X785238Y1199063D01*
X785191Y1199016D01*
X784627Y1198546D01*
X784062Y1198217D01*
X783498Y1197982D01*
X782981Y1197841D01*
X782558Y1197747D01*
X782182Y1197653D01*
X773719D01*
X773249Y1197700D01*
X772873Y1197888D01*
X772638Y1198123D01*
X772450Y1198405D01*
X772356Y1198640D01*
X772262Y1198875D01*
Y1199063D01*
Y1199110D01*
X772309Y1199628D01*
X772497Y1200004D01*
X772732Y1200239D01*
X772967Y1200427D01*
X773249Y1200521D01*
X773484Y1200615D01*
X781477D01*
X781853Y1200709D01*
X782182Y1200803D01*
X782417Y1200897D01*
X782887Y1201226D01*
X783169Y1201555D01*
X783310Y1201884D01*
X783404Y1202213D01*
X783451Y1202401D01*
Y1202495D01*
X783404Y1202872D01*
X783357Y1203248D01*
X783310Y1203483D01*
Y1203530D01*
Y1203577D01*
X782511Y1206586D01*
X770193D01*
X768970Y1211052D01*
X768876Y1211616D01*
X768782Y1212134D01*
Y1212322D01*
Y1212510D01*
Y1212604D01*
Y1212651D01*
X768876Y1213497D01*
X768923Y1213920D01*
X769017Y1214249D01*
X769111Y1214531D01*
X769158Y1214766D01*
X769252Y1214908D01*
Y1214955D01*
X769535Y1215566D01*
X769911Y1216130D01*
X770287Y1216600D01*
X770710Y1217023D01*
X771133Y1217352D01*
X771603Y1217634D01*
X772074Y1217916D01*
X772497Y1218105D01*
X773343Y1218340D01*
X773719Y1218434D01*
X774001Y1218481D01*
X774283Y1218528D01*
X774659D01*
X776117Y1218434D01*
D02*
G37*
G36*
X933007Y1218481D02*
X933336Y1218340D01*
X933571Y1218152D01*
X933759Y1217964D01*
X933901Y1217729D01*
X933995Y1217540D01*
X934042Y1217399D01*
Y1217352D01*
X940974Y1191615D01*
X941141Y1191682D01*
X975274D01*
X975791Y1191635D01*
X976120Y1191447D01*
X976402Y1191212D01*
X976590Y1190977D01*
X976684Y1190695D01*
X976731Y1190460D01*
X976778Y1190272D01*
Y1190225D01*
X976731Y1189707D01*
X976543Y1189378D01*
X976308Y1189096D01*
X976026Y1188908D01*
X975744Y1188814D01*
X975509Y1188767D01*
X975321Y1188720D01*
X941376D01*
X940859Y1188767D01*
X940520Y1188936D01*
X940483Y1188908D01*
X940154Y1188767D01*
X939871Y1188720D01*
X939777D01*
X939401Y1188767D01*
X939072Y1188908D01*
X938837Y1189096D01*
X938649Y1189284D01*
X938508Y1189472D01*
X938414Y1189660D01*
X938367Y1189801D01*
Y1189848D01*
X936251Y1197653D01*
X930092D01*
X929293Y1197700D01*
X928588Y1197747D01*
X927930Y1197841D01*
X927412Y1197935D01*
X926989Y1198029D01*
X926660Y1198123D01*
X926425Y1198217D01*
X926378D01*
X925861Y1198452D01*
X925344Y1198781D01*
X924921Y1199157D01*
X924497Y1199533D01*
X923839Y1200427D01*
X923275Y1201320D01*
X922852Y1202213D01*
X922664Y1202589D01*
X922570Y1202919D01*
X922476Y1203201D01*
X922382Y1203389D01*
X922335Y1203530D01*
Y1203577D01*
X919937Y1212557D01*
X919843Y1212980D01*
X919749Y1213403D01*
Y1213685D01*
Y1213732D01*
Y1213779D01*
X919796Y1214484D01*
X919984Y1215096D01*
X920172Y1215707D01*
X920454Y1216177D01*
X920689Y1216553D01*
X920924Y1216882D01*
X921112Y1217070D01*
X921159Y1217117D01*
X921676Y1217587D01*
X922241Y1217916D01*
X922805Y1218199D01*
X923322Y1218340D01*
X923792Y1218434D01*
X924168Y1218528D01*
X932631D01*
X933007Y1218481D01*
D02*
G37*
G36*
X871229Y1218434D02*
X871558Y1218293D01*
X871793Y1218105D01*
X871981Y1217916D01*
X872122Y1217729D01*
X872216Y1217540D01*
X872263Y1217399D01*
Y1217352D01*
X878375Y1194691D01*
X878563Y1194174D01*
X878751Y1193704D01*
X879034Y1193280D01*
X879316Y1192951D01*
X879645Y1192669D01*
X879927Y1192434D01*
X880585Y1192058D01*
X881243Y1191823D01*
X881760Y1191729D01*
X881948Y1191682D01*
X884158D01*
X884675Y1191635D01*
X885005Y1191447D01*
X885286Y1191212D01*
X885475Y1190977D01*
X885569Y1190695D01*
X885616Y1190460D01*
X885663Y1190272D01*
Y1190225D01*
X885616Y1189707D01*
X885428Y1189378D01*
X885192Y1189096D01*
X884910Y1188908D01*
X884628Y1188814D01*
X884393Y1188767D01*
X884205Y1188720D01*
X883030D01*
X882231Y1188767D01*
X881478Y1188814D01*
X880867Y1188908D01*
X880303Y1189049D01*
X879880Y1189143D01*
X879598Y1189237D01*
X879363Y1189284D01*
X879316Y1189331D01*
X878798Y1189566D01*
X878281Y1189895D01*
X877858Y1190272D01*
X877435Y1190648D01*
X876777Y1191541D01*
X876213Y1192434D01*
X875789Y1193327D01*
X875601Y1193704D01*
X875507Y1194033D01*
X875413Y1194315D01*
X875319Y1194503D01*
X875272Y1194644D01*
Y1194691D01*
X869395Y1216600D01*
X869348Y1216741D01*
Y1216882D01*
Y1216976D01*
Y1217023D01*
X869395Y1217493D01*
X869583Y1217869D01*
X869818Y1218105D01*
X870101Y1218293D01*
X870383Y1218387D01*
X870618Y1218481D01*
X870853D01*
X871229Y1218434D01*
D02*
G37*
%LPC*%
G36*
X976449Y1215566D02*
X976261D01*
X975603Y1215519D01*
X975039Y1215425D01*
X974569Y1215284D01*
X974146Y1215143D01*
X973770Y1214908D01*
X973487Y1214672D01*
X973252Y1214390D01*
X973064Y1214155D01*
X972782Y1213591D01*
X972641Y1213168D01*
X972594Y1212980D01*
Y1212839D01*
Y1212745D01*
Y1212698D01*
X972641Y1212134D01*
X972688Y1211617D01*
X972735Y1211381D01*
X972782Y1211193D01*
X972829Y1211099D01*
Y1211052D01*
X973205Y1209548D01*
X982467D01*
X982091Y1211052D01*
X981809Y1211852D01*
X981480Y1212557D01*
X981104Y1213168D01*
X980681Y1213685D01*
X980211Y1214108D01*
X979694Y1214484D01*
X979223Y1214766D01*
X978706Y1215002D01*
X978236Y1215190D01*
X977766Y1215331D01*
X977343Y1215425D01*
X977014Y1215519D01*
X976684D01*
X976449Y1215566D01*
D02*
G37*
G36*
X886885Y1215566D02*
X886697D01*
X886039Y1215519D01*
X885475Y1215425D01*
X885005Y1215284D01*
X884581Y1215143D01*
X884205Y1214908D01*
X883923Y1214672D01*
X883688Y1214437D01*
X883500Y1214155D01*
X883218Y1213638D01*
X883077Y1213168D01*
X883030Y1213027D01*
Y1212886D01*
Y1212792D01*
Y1212745D01*
X883077Y1212181D01*
X883124Y1211617D01*
X883171Y1211381D01*
X883218Y1211193D01*
X883265Y1211099D01*
Y1211052D01*
X884863Y1205081D01*
X885098Y1204282D01*
X885428Y1203624D01*
X885851Y1203013D01*
X886274Y1202495D01*
X886744Y1202072D01*
X887214Y1201696D01*
X887731Y1201414D01*
X888202Y1201179D01*
X888719Y1200991D01*
X889142Y1200850D01*
X889565Y1200756D01*
X889941Y1200709D01*
X890270Y1200662D01*
X890505Y1200615D01*
X890693D01*
X891351Y1200662D01*
X891916Y1200756D01*
X892386Y1200850D01*
X892809Y1201038D01*
X893185Y1201273D01*
X893467Y1201508D01*
X893702Y1201743D01*
X893890Y1202025D01*
X894173Y1202495D01*
X894314Y1202966D01*
Y1203154D01*
X894361Y1203248D01*
Y1203342D01*
Y1203389D01*
X894314Y1203953D01*
X894220Y1204517D01*
Y1204752D01*
X894173Y1204940D01*
X894125Y1205034D01*
Y1205081D01*
X892527Y1211052D01*
X892245Y1211852D01*
X891916Y1212557D01*
X891540Y1213168D01*
X891116Y1213685D01*
X890646Y1214108D01*
X890129Y1214484D01*
X889659Y1214766D01*
X889142Y1215002D01*
X888672Y1215190D01*
X888202Y1215331D01*
X887778Y1215425D01*
X887449Y1215519D01*
X887120D01*
X886885Y1215566D01*
D02*
G37*
G36*
X855996D02*
X855808D01*
X855150Y1215519D01*
X854585Y1215425D01*
X854115Y1215284D01*
X853692Y1215143D01*
X853316Y1214908D01*
X853034Y1214672D01*
X852799Y1214390D01*
X852611Y1214155D01*
X852329Y1213591D01*
X852188Y1213168D01*
X852141Y1212980D01*
Y1212839D01*
Y1212745D01*
Y1212698D01*
X852188Y1212134D01*
X852235Y1211617D01*
X852282Y1211381D01*
X852329Y1211193D01*
X852376Y1211099D01*
Y1211052D01*
X852752Y1209548D01*
X862014D01*
X861638Y1211052D01*
X861356Y1211852D01*
X861027Y1212557D01*
X860650Y1213168D01*
X860227Y1213685D01*
X859757Y1214108D01*
X859240Y1214484D01*
X858770Y1214766D01*
X858253Y1215002D01*
X857783Y1215190D01*
X857312Y1215331D01*
X856889Y1215425D01*
X856560Y1215519D01*
X856231D01*
X855996Y1215566D01*
D02*
G37*
G36*
X775694Y1215566D02*
X775506D01*
X774847Y1215519D01*
X774283Y1215425D01*
X773813Y1215284D01*
X773390Y1215143D01*
X773014Y1214908D01*
X772732Y1214672D01*
X772497Y1214390D01*
X772309Y1214155D01*
X772026Y1213591D01*
X771885Y1213168D01*
X771838Y1212980D01*
Y1212839D01*
Y1212745D01*
Y1212698D01*
X771885Y1212134D01*
X771932Y1211616D01*
X771979Y1211381D01*
X772026Y1211193D01*
X772074Y1211099D01*
Y1211052D01*
X772450Y1209548D01*
X781712D01*
X781336Y1211052D01*
X781053Y1211852D01*
X780724Y1212557D01*
X780348Y1213168D01*
X779925Y1213685D01*
X779455Y1214108D01*
X778938Y1214484D01*
X778468Y1214766D01*
X777950Y1215002D01*
X777480Y1215190D01*
X777010Y1215331D01*
X776587Y1215425D01*
X776258Y1215519D01*
X775929D01*
X775694Y1215566D01*
D02*
G37*
G36*
X931456Y1215566D02*
X924874D01*
X924497Y1215472D01*
X924168Y1215378D01*
X923886Y1215284D01*
X923463Y1214955D01*
X923134Y1214625D01*
X922993Y1214249D01*
X922899Y1213920D01*
X922852Y1213732D01*
Y1213638D01*
X922899Y1213262D01*
X922946Y1212886D01*
X922993Y1212651D01*
X923040Y1212604D01*
Y1212557D01*
X925391Y1203577D01*
X925579Y1203060D01*
X925767Y1202589D01*
X926049Y1202213D01*
X926331Y1201884D01*
X926660Y1201602D01*
X926989Y1201320D01*
X927647Y1200991D01*
X928259Y1200756D01*
X928776Y1200662D01*
X929011Y1200615D01*
X935499D01*
X931456Y1215566D01*
D02*
G37*
%LPD*%
D34*
X820300Y1158240D02*
D03*
X805300D02*
D03*
X871100D02*
D03*
X856100D02*
D03*
X972700D02*
D03*
X957700D02*
D03*
X921900D02*
D03*
X906900D02*
D03*
X610750Y666750D02*
D03*
X595750D02*
D03*
X627500Y665480D02*
D03*
X642500D02*
D03*
X667900Y553720D02*
D03*
X652900D02*
D03*
X412630Y684530D02*
D03*
X397630D02*
D03*
Y671830D02*
D03*
X412630D02*
D03*
X556140Y821690D02*
D03*
X541140D02*
D03*
X525900Y772160D02*
D03*
X540900D02*
D03*
X270630Y746760D02*
D03*
X285630D02*
D03*
X306190Y759460D02*
D03*
X321190D02*
D03*
X270630D02*
D03*
X285630D02*
D03*
X253880Y767080D02*
D03*
X238880D02*
D03*
X288170Y698500D02*
D03*
X273170D02*
D03*
X273170Y657860D02*
D03*
X288170D02*
D03*
Y670560D02*
D03*
X273170D02*
D03*
X288170Y685800D02*
D03*
X273170D02*
D03*
X238880Y707390D02*
D03*
X253880D02*
D03*
X450730Y619760D02*
D03*
X435730D02*
D03*
X452000Y553720D02*
D03*
X437000D02*
D03*
X622180Y1239520D02*
D03*
X607180D02*
D03*
X579240D02*
D03*
X594240D02*
D03*
D35*
X568960Y564000D02*
D03*
Y579000D02*
D03*
X513080Y684410D02*
D03*
Y669410D02*
D03*
X488950Y972700D02*
D03*
Y957700D02*
D03*
X302260Y685680D02*
D03*
Y670680D02*
D03*
X438150Y583050D02*
D03*
Y598050D02*
D03*
X393700Y878720D02*
D03*
Y863720D02*
D03*
X379730Y781170D02*
D03*
Y796170D02*
D03*
Y878720D02*
D03*
Y863720D02*
D03*
X400050Y1200030D02*
D03*
Y1185030D02*
D03*
Y1174090D02*
D03*
Y1159090D02*
D03*
X414020Y1174090D02*
D03*
Y1159090D02*
D03*
X445770Y1145420D02*
D03*
Y1130420D02*
D03*
D45*
X549630Y571500D02*
D03*
X514630D02*
D03*
X426440Y1099820D02*
D03*
X391440D02*
D03*
X426440Y1134110D02*
D03*
X391440D02*
D03*
D47*
X431800Y963930D02*
D03*
Y989330D02*
D03*
Y1014730D02*
D03*
Y1040130D02*
D03*
D48*
X901600Y874600D02*
D03*
X927000D02*
D03*
X952400Y1104600D02*
D03*
X977800D02*
D03*
X901600D02*
D03*
X927000D02*
D03*
X850800D02*
D03*
X876200D02*
D03*
X800000D02*
D03*
X825400D02*
D03*
Y644600D02*
D03*
X927000D02*
D03*
X977800D02*
D03*
X901600Y1130000D02*
D03*
X927000D02*
D03*
X850800Y874600D02*
D03*
X876200D02*
D03*
X901600Y900000D02*
D03*
X927000D02*
D03*
X952400Y874600D02*
D03*
X977800D02*
D03*
X1003200Y644600D02*
D03*
Y670000D02*
D03*
X977800D02*
D03*
X952400Y644600D02*
D03*
Y670000D02*
D03*
X927000D02*
D03*
X901600Y644600D02*
D03*
Y670000D02*
D03*
X876200Y644600D02*
D03*
Y670000D02*
D03*
X850800Y644600D02*
D03*
Y670000D02*
D03*
X825400D02*
D03*
X800000Y644600D02*
D03*
Y670000D02*
D03*
X1003200Y874600D02*
D03*
Y900000D02*
D03*
X977800D02*
D03*
X952400D02*
D03*
X876200D02*
D03*
X850800D02*
D03*
X825400D02*
D03*
X800000D02*
D03*
Y874600D02*
D03*
X825400D02*
D03*
X1003200Y1104600D02*
D03*
Y1130000D02*
D03*
X977800D02*
D03*
X952400D02*
D03*
X876200D02*
D03*
X850800D02*
D03*
X825400D02*
D03*
X800000D02*
D03*
D49*
X368300Y598170D02*
D03*
X393700D02*
D03*
Y572770D02*
D03*
X368300D02*
D03*
X419100D02*
D03*
X429660Y1193800D02*
D03*
D50*
X419100Y598170D02*
D03*
X479660Y1193800D02*
D03*
D51*
X267080Y794310D02*
D03*
Y918060D02*
D03*
Y1111530D02*
D03*
D52*
Y829310D02*
D03*
Y864310D02*
D03*
Y1058060D02*
D03*
Y1023060D02*
D03*
Y953060D02*
D03*
Y988060D02*
D03*
Y1146530D02*
D03*
D53*
X254000Y723900D02*
D03*
Y664210D02*
D03*
X374650Y1220470D02*
D03*
X577850Y997230D02*
D03*
D54*
X254000Y749300D02*
D03*
Y689610D02*
D03*
X323850Y1220470D02*
D03*
D55*
X489350Y941070D02*
D03*
D56*
X539350D02*
D03*
D57*
X364490Y780310D02*
D03*
Y878310D02*
D03*
D58*
X1041300Y690550D02*
D03*
X761900D02*
D03*
X1041300Y920550D02*
D03*
X761900D02*
D03*
X1041300Y1150550D02*
D03*
X761900D02*
D03*
D59*
X542580Y1219200D02*
D03*
X559580D02*
D03*
X576580D02*
D03*
D60*
X593580Y1220470D02*
D03*
X610580D02*
D03*
D61*
X577850Y1032230D02*
D03*
D62*
X241350Y559230D02*
D03*
X249350Y551230D02*
D03*
X279350Y559230D02*
D03*
X271350Y551230D02*
D03*
X279350Y581230D02*
D03*
X271350Y589230D02*
D03*
X249350D02*
D03*
X241350Y581230D02*
D03*
X260350Y547730D02*
D03*
X282850Y570230D02*
D03*
X260350Y592730D02*
D03*
X237850Y570230D02*
D03*
X1039480Y1191310D02*
D03*
X1031480Y559230D02*
D03*
X1039480Y551230D02*
D03*
X1069480Y559230D02*
D03*
X1061480Y551230D02*
D03*
X1069480Y581230D02*
D03*
X1061480Y589230D02*
D03*
X1039480D02*
D03*
X1031480Y581230D02*
D03*
X1050480Y547730D02*
D03*
X1072980Y570230D02*
D03*
X1050480Y592730D02*
D03*
X1027980Y570230D02*
D03*
Y1210310D02*
D03*
X1050480Y1232810D02*
D03*
X1072980Y1210310D02*
D03*
X1050480Y1187810D02*
D03*
X1031480Y1221310D02*
D03*
X1039480Y1229310D02*
D03*
X1061480D02*
D03*
X1069480Y1221310D02*
D03*
X1061480Y1191310D02*
D03*
X1069480Y1199310D02*
D03*
X1031480D02*
D03*
X237850Y1210310D02*
D03*
X260350Y1232810D02*
D03*
X282850Y1210310D02*
D03*
X260350Y1187810D02*
D03*
X241350Y1221310D02*
D03*
X249350Y1229310D02*
D03*
X271350D02*
D03*
X279350Y1221310D02*
D03*
X271350Y1191310D02*
D03*
X279350Y1199310D02*
D03*
X249350Y1191310D02*
D03*
X241350Y1199310D02*
D03*
D63*
X260350Y570230D02*
D03*
X1050480D02*
D03*
Y1210310D02*
D03*
X260350D02*
D03*
D67*
X269060Y1021080D02*
X291070D01*
D100*
X345110Y848360D02*
D03*
Y835660D02*
D03*
Y822960D02*
D03*
Y810260D02*
D03*
X399110D02*
D03*
Y822960D02*
D03*
Y835660D02*
D03*
Y848360D02*
D03*
D110*
X639390Y566420D02*
D03*
Y579120D02*
D03*
X584890Y553720D02*
D03*
Y566420D02*
D03*
Y579120D02*
D03*
Y591820D02*
D03*
X639390Y553720D02*
D03*
Y591820D02*
D03*
D111*
X641140Y627940D02*
D03*
Y614940D02*
D03*
Y640940D02*
D03*
X583140Y608440D02*
D03*
Y614940D02*
D03*
Y621440D02*
D03*
Y627940D02*
D03*
Y634440D02*
D03*
Y640940D02*
D03*
Y647440D02*
D03*
Y653940D02*
D03*
X641140Y608440D02*
D03*
Y621440D02*
D03*
Y634440D02*
D03*
Y647440D02*
D03*
Y653940D02*
D03*
D112*
X428780Y646430D02*
D03*
Y659130D02*
D03*
Y671830D02*
D03*
Y684530D02*
D03*
X495780Y646430D02*
D03*
Y659130D02*
D03*
Y671830D02*
D03*
Y684530D02*
D03*
D113*
X326390Y611670D02*
D03*
Y571970D02*
D03*
D114*
X529520Y785520D02*
D03*
Y804520D02*
D03*
X552520Y785520D02*
D03*
Y804520D02*
D03*
D115*
X306070Y746100D02*
D03*
X299570Y727100D02*
D03*
X312570D02*
D03*
X514350Y959460D02*
D03*
X507850Y940460D02*
D03*
X520850D02*
D03*
D116*
X470510Y583610D02*
D03*
X461010D02*
D03*
X451510D02*
D03*
X470510Y605110D02*
D03*
X461010D02*
D03*
X451510D02*
D03*
D117*
X514350Y926940D02*
D03*
X504850Y906940D02*
D03*
X523850D02*
D03*
D118*
X321070Y970280D02*
D03*
X291070D02*
D03*
X321070Y995680D02*
D03*
X291070D02*
D03*
X321070Y1021080D02*
D03*
X291070D02*
D03*
X321070Y1046480D02*
D03*
X291070D02*
D03*
X322340Y817880D02*
D03*
X292340D02*
D03*
X322340Y840740D02*
D03*
X292340D02*
D03*
D119*
X402900Y1046480D02*
D03*
Y1033780D02*
D03*
Y1021080D02*
D03*
Y1008380D02*
D03*
Y995680D02*
D03*
Y982980D02*
D03*
Y970280D02*
D03*
Y957580D02*
D03*
X346400Y1046480D02*
D03*
Y1033780D02*
D03*
Y1021080D02*
D03*
Y1008380D02*
D03*
Y995680D02*
D03*
Y982980D02*
D03*
Y970280D02*
D03*
Y957580D02*
D03*
D120*
X316890Y664210D02*
D03*
X335890Y657710D02*
D03*
Y670710D02*
D03*
X316890Y692150D02*
D03*
X335890Y685650D02*
D03*
Y698650D02*
D03*
D121*
X294960Y788670D02*
D03*
X334960D02*
D03*
Y869950D02*
D03*
X294960D02*
D03*
D122*
X477520Y1136870D02*
D03*
Y1100870D02*
D03*
D123*
X443930Y1155090D02*
D03*
Y1164590D02*
D03*
Y1174090D02*
D03*
X467930D02*
D03*
Y1164590D02*
D03*
Y1155090D02*
D03*
D124*
X313170Y1174750D02*
D03*
X375170D02*
D03*
D125*
X608580Y1097280D02*
D03*
X544580D02*
D03*
Y1169670D02*
D03*
X608580D02*
D03*
M02*
