G04*
G04 #@! TF.GenerationSoftware,Altium Limited,Altium Designer,19.1.6 (110)*
G04*
G04 Layer_Color=65535*
%FSLAX44Y44*%
%MOMM*%
G71*
G01*
G75*
%ADD10C,0.2000*%
%ADD11C,0.2500*%
%ADD12C,0.1500*%
%ADD13C,0.6000*%
%ADD14C,0.5000*%
%ADD15C,0.1270*%
%ADD16R,1.0320X1.1110*%
G36*
X490220Y1008380D02*
Y991870D01*
X471170D01*
Y1008380D01*
X490220D01*
D02*
G37*
G36*
X525796Y535940D02*
X499110D01*
Y552450D01*
X525796D01*
Y535940D01*
D02*
G37*
G36*
X622715D02*
X596900D01*
Y552450D01*
X622715D01*
Y535940D01*
D02*
G37*
G36*
X433070Y1088390D02*
X401320D01*
Y1106170D01*
X433070D01*
Y1088390D01*
D02*
G37*
G36*
X670957Y535940D02*
X645160D01*
Y552450D01*
X670957D01*
Y535940D01*
D02*
G37*
G36*
X575725D02*
X549910D01*
Y552450D01*
X575725D01*
Y535940D01*
D02*
G37*
G36*
X335280Y864870D02*
X316230D01*
Y881380D01*
X335280D01*
Y864870D01*
D02*
G37*
G36*
X433070Y1118870D02*
X401320D01*
Y1136650D01*
X433070D01*
Y1118870D01*
D02*
G37*
G36*
X490220Y1066800D02*
Y1050290D01*
X471170D01*
Y1066800D01*
X490220D01*
D02*
G37*
G36*
X433070Y1056640D02*
X401320D01*
Y1074420D01*
X433070D01*
Y1056640D01*
D02*
G37*
G36*
X335280Y775970D02*
X316230D01*
Y792480D01*
X335280D01*
Y775970D01*
D02*
G37*
%LPC*%
G36*
X488676Y1007110D02*
D01*
Y1006554D01*
X488639Y1006647D01*
X488583Y1006795D01*
X488509Y1006888D01*
X488490Y1006925D01*
X488472D01*
X488305Y1007036D01*
X488157Y1007092D01*
X488046Y1007110D01*
X487990D01*
X487861Y1007092D01*
X487750Y1007073D01*
X487657Y1007017D01*
X487583Y1006962D01*
X487491Y1006869D01*
X487472Y1006832D01*
Y1006814D01*
X484806Y1001685D01*
X482195Y1006666D01*
X482121Y1006814D01*
X482028Y1006925D01*
X481917Y1006999D01*
X481824Y1007055D01*
X481750Y1007092D01*
X481676Y1007110D01*
X481621D01*
X481510Y1007092D01*
X481417Y1007073D01*
X481250Y1006999D01*
X481158Y1006906D01*
X481121Y1006888D01*
Y1006869D01*
X481028Y1006703D01*
X480973Y1006573D01*
X480954Y1006480D01*
Y1006443D01*
X481028Y1006147D01*
X484102Y1000518D01*
X481028Y994889D01*
X480991Y994778D01*
X480973Y994667D01*
X480954Y994593D01*
Y994574D01*
X480991Y994389D01*
X481047Y994241D01*
X481102Y994148D01*
X481139Y994111D01*
X481287Y994019D01*
X481436Y993963D01*
X481565Y993945D01*
X480954D01*
X481602D01*
X481732Y993963D01*
X481843Y993982D01*
X481936Y994019D01*
X482010Y994074D01*
X482102Y994167D01*
X482139Y994185D01*
Y994204D01*
X484806Y999370D01*
X487416Y994352D01*
X487491Y994222D01*
X487583Y994111D01*
X487676Y994037D01*
X487768Y994000D01*
X487842Y993963D01*
X487916Y993945D01*
X481845D01*
X488676D01*
Y1007110D01*
D02*
G37*
G36*
X479491Y1007092D02*
Y1006536D01*
X479454Y1006610D01*
X479399Y1006758D01*
X479325Y1006851D01*
X479306Y1006888D01*
X479288D01*
X479214Y1006962D01*
X479121Y1006999D01*
X478973Y1007073D01*
X478862Y1007092D01*
X472714D01*
X473344D01*
X473233Y1007073D01*
X473122Y1007055D01*
X472974Y1006962D01*
X472900Y1006869D01*
X472863Y1006851D01*
Y1006832D01*
X472770Y1006666D01*
X472733Y1006554D01*
X472714Y1006462D01*
Y1006443D01*
X472733Y1006258D01*
X472807Y1006110D01*
X472863Y1006018D01*
X472881Y1005999D01*
Y1005981D01*
X473029Y1005888D01*
X473177Y1005832D01*
X473288Y1005814D01*
X475455D01*
Y994574D01*
X475473Y994463D01*
X475492Y994352D01*
X475566Y994185D01*
X475640Y994093D01*
X475677Y994056D01*
X475862Y994000D01*
X475992Y993963D01*
X476066Y993945D01*
X479491D01*
D01*
X476084D01*
X476269Y993963D01*
X476436Y994037D01*
X476529Y994093D01*
X476566Y994111D01*
X476677Y994259D01*
X476732Y994408D01*
X476751Y994519D01*
Y994556D01*
Y994574D01*
Y1005814D01*
X478825D01*
X478936Y1005832D01*
X479029Y1005851D01*
X479177Y1005925D01*
X479269Y1005981D01*
X479306Y1006018D01*
X479417Y1006166D01*
X479473Y1006314D01*
X479491Y1006406D01*
Y1007092D01*
D02*
G37*
%LPD*%
G36*
X488676Y994574D02*
X488657Y994685D01*
X488639Y994778D01*
X488602Y994852D01*
X488583Y994871D01*
X485528Y1000518D01*
X488583Y1006147D01*
X488639Y1006258D01*
X488657Y1006369D01*
X488676Y1006443D01*
Y994574D01*
D02*
G37*
G36*
Y993945D02*
X487972D01*
X488157Y993963D01*
X488324Y994037D01*
X488416Y994093D01*
X488453Y994111D01*
X488527Y994204D01*
X488583Y994278D01*
X488657Y994426D01*
X488676Y994537D01*
Y993945D01*
D02*
G37*
%LPC*%
G36*
X524526Y551161D02*
X516841D01*
X520674D01*
X520508Y551143D01*
X520378Y551087D01*
X520285Y550995D01*
X520193Y550902D01*
X520137Y550791D01*
X520100Y550717D01*
X520063Y550643D01*
Y550625D01*
X516860Y538811D01*
X516841Y538700D01*
D01*
X516878Y538496D01*
X516934Y538330D01*
X516989Y538237D01*
X517026Y538200D01*
X517193Y538107D01*
X517341Y538052D01*
X517452Y538033D01*
X517489D01*
X517656Y538052D01*
X517786Y538107D01*
X517860Y538144D01*
X517897Y538163D01*
X518008Y538274D01*
X518082Y538404D01*
X518119Y538515D01*
Y538533D01*
Y538552D01*
X518971Y541681D01*
X522396D01*
X523266Y538441D01*
X523322Y538311D01*
X523396Y538218D01*
X523470Y538163D01*
X523489Y538144D01*
X523618Y538089D01*
X523729Y538052D01*
X523822Y538033D01*
X523859D01*
X524044Y538052D01*
X524192Y538126D01*
X524285Y538181D01*
X524322Y538200D01*
X524396Y538292D01*
X524433Y538367D01*
X524507Y538515D01*
X524526Y538626D01*
Y538033D01*
D01*
Y551161D01*
D02*
G37*
G36*
X515397Y551180D02*
X508620D01*
D01*
X509249D01*
X509138Y551161D01*
X509027Y551143D01*
X508879Y551050D01*
X508805Y550958D01*
X508768Y550939D01*
Y550921D01*
X508675Y550754D01*
X508638Y550643D01*
X508620Y550550D01*
Y550532D01*
X508638Y550347D01*
X508713Y550199D01*
X508768Y550106D01*
X508787Y550088D01*
Y550069D01*
X508935Y549976D01*
X509083Y549921D01*
X509194Y549902D01*
X511360D01*
Y538663D01*
X511379Y538552D01*
X511397Y538441D01*
X511471Y538274D01*
X511545Y538181D01*
X511582Y538144D01*
X511768Y538089D01*
X511897Y538052D01*
X511971Y538033D01*
X511990D01*
X512175Y538052D01*
X512342Y538126D01*
X512434Y538181D01*
X512471Y538200D01*
X512582Y538348D01*
X512638Y538496D01*
X512657Y538607D01*
Y538644D01*
Y538663D01*
Y549902D01*
X514730D01*
X514841Y549921D01*
X514934Y549939D01*
X515082Y550014D01*
X515175Y550069D01*
X515212Y550106D01*
X515323Y550254D01*
X515378Y550402D01*
X515397Y550495D01*
Y538033D01*
D01*
Y551180D01*
D02*
G37*
G36*
X507157D02*
X500380D01*
X503065D01*
X502861Y551143D01*
X502454Y551050D01*
X502121Y550902D01*
X501843Y550754D01*
X501621Y550606D01*
X501454Y550458D01*
X501361Y550365D01*
X501324Y550347D01*
Y550328D01*
X501158Y550162D01*
X501010Y549976D01*
X500880Y549791D01*
X500787Y549625D01*
X500602Y549273D01*
X500491Y548958D01*
X500435Y548680D01*
X500417Y548551D01*
X500398Y548458D01*
X500380Y548366D01*
Y548254D01*
X500398Y548032D01*
X500417Y547828D01*
X500454Y547643D01*
X500491Y547477D01*
X500528Y547347D01*
X500547Y547236D01*
X500584Y547162D01*
Y547143D01*
X500695Y546921D01*
X500824Y546736D01*
X500936Y546569D01*
X501028Y546421D01*
X501102Y546329D01*
X501176Y546236D01*
X501213Y546199D01*
X501232Y546180D01*
X505305Y542107D01*
X505472Y541885D01*
X505602Y541699D01*
X505639Y541625D01*
X505657Y541570D01*
X505676Y541533D01*
Y541514D01*
X505713Y541422D01*
X505731Y541385D01*
Y541366D01*
X505768Y541274D01*
Y541255D01*
Y541237D01*
X505805Y540940D01*
X505787Y540700D01*
X505731Y540496D01*
X505639Y540292D01*
X505565Y540126D01*
X505472Y539977D01*
X505379Y539885D01*
X505324Y539811D01*
X505305Y539792D01*
X505120Y539626D01*
X504917Y539515D01*
X504713Y539422D01*
X504528Y539366D01*
X504380Y539329D01*
X504250Y539311D01*
X502806D01*
X502528Y539329D01*
X502250Y539385D01*
X501991Y539459D01*
X501769Y539552D01*
X501584Y539626D01*
X501454Y539700D01*
X501361Y539755D01*
X501324Y539774D01*
X501010Y539885D01*
X500917Y539866D01*
X500824Y539848D01*
X500676Y539774D01*
X500584Y539681D01*
X500547Y539663D01*
Y539644D01*
X500454Y539478D01*
X500398Y539348D01*
X500380Y539237D01*
Y539200D01*
X500435Y538941D01*
X500639Y538718D01*
X501010Y538496D01*
X501398Y538330D01*
X501769Y538200D01*
X502102Y538126D01*
X502398Y538070D01*
X502509Y538052D01*
X502621D01*
X502713Y538033D01*
X504157D01*
X504398Y538052D01*
X504620Y538070D01*
X505009Y538163D01*
X505361Y538292D01*
X505639Y538459D01*
X505861Y538607D01*
X506028Y538737D01*
X506120Y538829D01*
X506157Y538867D01*
X506324Y539033D01*
X506472Y539218D01*
X506602Y539403D01*
X506713Y539570D01*
X506879Y539922D01*
X506990Y540237D01*
X507046Y540533D01*
X507065Y540644D01*
X507083Y540737D01*
X507102Y540829D01*
Y540885D01*
Y540922D01*
Y540940D01*
Y541218D01*
X507065Y541440D01*
X506953Y541829D01*
X506879Y542033D01*
X506787Y542218D01*
X506694Y542385D01*
X506602Y542533D01*
X506509Y542662D01*
X506416Y542755D01*
X506342Y542829D01*
X506305Y542866D01*
X506287Y542885D01*
X502158Y547088D01*
X501972Y547310D01*
X501861Y547477D01*
X501787Y547588D01*
X501769Y547606D01*
Y547625D01*
X501732Y547754D01*
X501695Y547921D01*
X501676Y548217D01*
X501695Y548477D01*
X501750Y548699D01*
X501824Y548903D01*
X501898Y549069D01*
X501972Y549217D01*
X502047Y549310D01*
X502102Y549384D01*
X502121Y549402D01*
X502306Y549569D01*
X502491Y549699D01*
X502695Y549773D01*
X502880Y549847D01*
X503046Y549884D01*
X503176Y549902D01*
X504639D01*
X504935Y549884D01*
X505213Y549828D01*
X505472Y549754D01*
X505694Y549662D01*
X505879Y549569D01*
X506028Y549495D01*
X506102Y549439D01*
X506139Y549421D01*
X506453Y549310D01*
X506564Y549328D01*
X506657Y549347D01*
X506824Y549421D01*
X506916Y549477D01*
X506953Y549514D01*
X507028Y549606D01*
X507065Y549680D01*
X507139Y549847D01*
X507157Y549958D01*
Y538033D01*
D01*
Y551180D01*
D02*
G37*
%LPD*%
G36*
X522100Y542977D02*
X519267D01*
X520693Y548625D01*
X522100Y542977D01*
D02*
G37*
G36*
X524526Y538663D02*
X524507Y538811D01*
X521304Y550625D01*
X521230Y550810D01*
X521137Y550939D01*
X521045Y551032D01*
X520933Y551087D01*
X520841Y551143D01*
X520748Y551161D01*
X524526D01*
Y538663D01*
D02*
G37*
G36*
X515397Y550625D02*
X515360Y550699D01*
X515304Y550847D01*
X515230Y550939D01*
X515212Y550976D01*
X515193D01*
X515119Y551050D01*
X515027Y551087D01*
X514879Y551161D01*
X514767Y551180D01*
X515397D01*
Y550625D01*
D02*
G37*
G36*
X507157Y549995D02*
X507120Y550143D01*
X507065Y550254D01*
X507028Y550328D01*
X507009Y550347D01*
X506953Y550421D01*
X506898Y550476D01*
X506861Y550495D01*
X506842Y550513D01*
X506472Y550717D01*
X506287Y550810D01*
X506120Y550865D01*
X505972Y550921D01*
X505861Y550958D01*
X505787Y550995D01*
X505750D01*
X505528Y551050D01*
X505324Y551106D01*
X505139Y551143D01*
X504972Y551161D01*
X504824Y551180D01*
X507157D01*
Y549995D01*
D02*
G37*
%LPC*%
G36*
X613205Y551180D02*
X610354D01*
D01*
X613205D01*
D02*
G37*
G36*
X621445D02*
D01*
Y548254D01*
X621427Y548477D01*
X621408Y548680D01*
X621316Y549088D01*
X621168Y549439D01*
X621001Y549736D01*
X620834Y549976D01*
X620705Y550162D01*
X620594Y550273D01*
X620575Y550291D01*
X620557Y550310D01*
X620390Y550458D01*
X620223Y550606D01*
X619871Y550810D01*
X619520Y550976D01*
X619186Y551069D01*
X618909Y551143D01*
X618797Y551161D01*
X618686D01*
X618594Y551180D01*
X617575D01*
X617353Y551161D01*
X617131Y551143D01*
X616724Y551050D01*
X616372Y550902D01*
X616057Y550736D01*
X615816Y550569D01*
X615631Y550439D01*
X615576Y550365D01*
X615520Y550328D01*
X615502Y550310D01*
X615483Y550291D01*
X615335Y550125D01*
X615205Y549958D01*
X615002Y549606D01*
X614854Y549273D01*
X614761Y548940D01*
X614687Y548662D01*
X614668Y548551D01*
Y548458D01*
X614650Y548366D01*
Y540940D01*
X614668Y540718D01*
X614687Y540496D01*
X614798Y540107D01*
X614927Y539755D01*
X615094Y539440D01*
X615261Y539200D01*
X615409Y539015D01*
X615465Y538959D01*
X615502Y538904D01*
X615520Y538885D01*
X615539Y538867D01*
X615705Y538718D01*
X615890Y538589D01*
X616242Y538385D01*
X616576Y538237D01*
X616890Y538144D01*
X617168Y538070D01*
X617279Y538052D01*
X617390D01*
X617464Y538033D01*
X621445D01*
Y551180D01*
D02*
G37*
G36*
X613205D02*
D01*
Y548254D01*
X613187Y548477D01*
X613168Y548680D01*
X613076Y549088D01*
X612928Y549439D01*
X612761Y549736D01*
X612594Y549976D01*
X612465Y550162D01*
X612354Y550273D01*
X612335Y550291D01*
X612317Y550310D01*
X612150Y550458D01*
X611983Y550606D01*
X611632Y550810D01*
X611280Y550976D01*
X610947Y551069D01*
X610669Y551143D01*
X610558Y551161D01*
X610447D01*
X610354Y551180D01*
X606410D01*
D01*
X609336D01*
X609113Y551161D01*
X608891Y551143D01*
X608484Y551050D01*
X608132Y550902D01*
X607817Y550736D01*
X607576Y550569D01*
X607391Y550439D01*
X607336Y550365D01*
X607280Y550328D01*
X607262Y550310D01*
X607243Y550291D01*
X607095Y550125D01*
X606965Y549958D01*
X606762Y549606D01*
X606614Y549273D01*
X606521Y548940D01*
X606447Y548662D01*
X606428Y548551D01*
Y548458D01*
X606410Y548366D01*
Y540940D01*
X606428Y540718D01*
X606447Y540496D01*
X606558Y540107D01*
X606688Y539755D01*
X606854Y539440D01*
X607021Y539200D01*
X607169Y539015D01*
X607225Y538959D01*
X607262Y538904D01*
X607280Y538885D01*
X607299Y538867D01*
X607465Y538718D01*
X607650Y538589D01*
X608002Y538385D01*
X608336Y538237D01*
X608650Y538144D01*
X608928Y538070D01*
X609039Y538052D01*
X609150D01*
X609224Y538033D01*
X610243D01*
X610465Y538052D01*
X610687Y538070D01*
X611095Y538163D01*
X611446Y538311D01*
X611761Y538459D01*
X612002Y538607D01*
X612187Y538755D01*
X612243Y538811D01*
X612298Y538848D01*
X612317Y538885D01*
X612335D01*
X612483Y539052D01*
X612631Y539218D01*
X612835Y539570D01*
X613002Y539922D01*
X613094Y540237D01*
X613168Y540514D01*
X613187Y540644D01*
Y540737D01*
X613205Y540829D01*
Y538033D01*
D01*
D01*
Y551180D01*
D02*
G37*
G36*
X604966D02*
D01*
Y542755D01*
X604947Y543051D01*
X604892Y543310D01*
X604818Y543570D01*
X604743Y543792D01*
X604651Y543977D01*
X604577Y544125D01*
X604521Y544218D01*
X604503Y544255D01*
X604336Y544514D01*
X604151Y544718D01*
X603984Y544884D01*
X603818Y545014D01*
X603669Y545107D01*
X603558Y545181D01*
X603484Y545199D01*
X603466Y545218D01*
X603651Y545347D01*
X603799Y545477D01*
X603929Y545625D01*
X604040Y545755D01*
X604114Y545884D01*
X604169Y545977D01*
X604206Y546051D01*
X604225Y546069D01*
X604318Y546292D01*
X604392Y546495D01*
X604429Y546717D01*
X604466Y546903D01*
X604484Y547069D01*
X604503Y547217D01*
Y547291D01*
Y547328D01*
Y548236D01*
Y548532D01*
X604447Y548847D01*
X604299Y549365D01*
X604206Y549569D01*
X604095Y549754D01*
X603966Y549921D01*
X603855Y550069D01*
X603744Y550199D01*
X603651Y550291D01*
X603577Y550347D01*
X603558Y550365D01*
X603410Y550513D01*
X603243Y550643D01*
X602910Y550828D01*
X602577Y550976D01*
X602262Y551087D01*
X601984Y551143D01*
X601855Y551161D01*
X601762D01*
X601670Y551180D01*
X604966D01*
X598800D01*
X598596Y551161D01*
X598429Y551087D01*
X598318Y550976D01*
X598244Y550865D01*
X598207Y550736D01*
X598189Y550643D01*
X598170Y550569D01*
Y538663D01*
X598189Y538459D01*
X598263Y538292D01*
X598374Y538181D01*
X598485Y538107D01*
X598596Y538070D01*
X598707Y538052D01*
X598781Y538033D01*
X602003D01*
X602207Y538052D01*
X602410Y538070D01*
X602799Y538163D01*
X603151Y538311D01*
X603447Y538478D01*
X603688Y538626D01*
X603873Y538774D01*
X603947Y538829D01*
X604003Y538867D01*
X604021Y538904D01*
X604040D01*
X604206Y539070D01*
X604355Y539237D01*
X604466Y539422D01*
X604577Y539589D01*
X604743Y539922D01*
X604855Y540255D01*
X604910Y540533D01*
X604947Y540644D01*
Y540737D01*
X604966Y540829D01*
Y538033D01*
D01*
D01*
Y551180D01*
D02*
G37*
%LPD*%
G36*
X618723Y549884D02*
X618946Y549828D01*
X619149Y549736D01*
X619316Y549662D01*
X619464Y549569D01*
X619557Y549477D01*
X619631Y549421D01*
X619649Y549402D01*
X619816Y549217D01*
X619945Y549014D01*
X620020Y548828D01*
X620094Y548643D01*
X620131Y548495D01*
X620149Y548366D01*
Y548291D01*
Y548254D01*
Y540940D01*
X620131Y540681D01*
X620075Y540459D01*
X619983Y540255D01*
X619908Y540089D01*
X619816Y539959D01*
X619723Y539866D01*
X619668Y539792D01*
X619649Y539774D01*
X619464Y539626D01*
X619260Y539515D01*
X619057Y539422D01*
X618872Y539366D01*
X618723Y539329D01*
X618594Y539311D01*
X617575D01*
X617335Y539329D01*
X617131Y539385D01*
X616927Y539459D01*
X616761Y539552D01*
X616613Y539644D01*
X616520Y539718D01*
X616446Y539774D01*
X616427Y539792D01*
X616261Y539977D01*
X616150Y540181D01*
X616057Y540366D01*
X616002Y540551D01*
X615965Y540700D01*
X615946Y540829D01*
Y540903D01*
Y540940D01*
Y548254D01*
X615965Y548495D01*
X616020Y548717D01*
X616094Y548921D01*
X616187Y549088D01*
X616261Y549236D01*
X616335Y549328D01*
X616390Y549402D01*
X616409Y549421D01*
X616594Y549588D01*
X616798Y549699D01*
X616983Y549791D01*
X617168Y549847D01*
X617335Y549884D01*
X617464Y549902D01*
X618483D01*
X618723Y549884D01*
D02*
G37*
G36*
X621445Y538033D02*
X618483D01*
X618705Y538052D01*
X618927Y538070D01*
X619334Y538163D01*
X619686Y538311D01*
X620001Y538459D01*
X620242Y538607D01*
X620427Y538755D01*
X620482Y538811D01*
X620538Y538848D01*
X620557Y538885D01*
X620575D01*
X620723Y539052D01*
X620871Y539218D01*
X621075Y539570D01*
X621242Y539922D01*
X621334Y540237D01*
X621408Y540514D01*
X621427Y540644D01*
Y540737D01*
X621445Y540829D01*
Y538033D01*
D02*
G37*
G36*
X610484Y549884D02*
X610706Y549828D01*
X610909Y549736D01*
X611076Y549662D01*
X611224Y549569D01*
X611317Y549477D01*
X611391Y549421D01*
X611409Y549402D01*
X611576Y549217D01*
X611706Y549014D01*
X611780Y548828D01*
X611854Y548643D01*
X611891Y548495D01*
X611909Y548366D01*
Y548291D01*
Y548254D01*
Y540940D01*
X611891Y540681D01*
X611835Y540459D01*
X611743Y540255D01*
X611669Y540089D01*
X611576Y539959D01*
X611483Y539866D01*
X611428Y539792D01*
X611409Y539774D01*
X611224Y539626D01*
X611021Y539515D01*
X610817Y539422D01*
X610632Y539366D01*
X610484Y539329D01*
X610354Y539311D01*
X609336D01*
X609095Y539329D01*
X608891Y539385D01*
X608687Y539459D01*
X608521Y539552D01*
X608373Y539644D01*
X608280Y539718D01*
X608206Y539774D01*
X608187Y539792D01*
X608021Y539977D01*
X607910Y540181D01*
X607817Y540366D01*
X607762Y540551D01*
X607725Y540700D01*
X607706Y540829D01*
Y540903D01*
Y540940D01*
Y548254D01*
X607725Y548495D01*
X607780Y548717D01*
X607854Y548921D01*
X607947Y549088D01*
X608021Y549236D01*
X608095Y549328D01*
X608150Y549402D01*
X608169Y549421D01*
X608354Y549588D01*
X608558Y549699D01*
X608743Y549791D01*
X608928Y549847D01*
X609095Y549884D01*
X609224Y549902D01*
X610243D01*
X610484Y549884D01*
D02*
G37*
G36*
X601799D02*
X602021Y549828D01*
X602225Y549736D01*
X602392Y549662D01*
X602540Y549569D01*
X602632Y549477D01*
X602707Y549421D01*
X602725Y549402D01*
X602892Y549217D01*
X603003Y549014D01*
X603095Y548828D01*
X603151Y548643D01*
X603188Y548495D01*
X603206Y548366D01*
Y548291D01*
Y548254D01*
Y547328D01*
X603188Y547088D01*
X603132Y546866D01*
X603040Y546662D01*
X602966Y546495D01*
X602873Y546347D01*
X602781Y546255D01*
X602725Y546180D01*
X602707Y546162D01*
X602521Y545995D01*
X602318Y545884D01*
X602133Y545792D01*
X601947Y545736D01*
X601781Y545699D01*
X601651Y545681D01*
X599466D01*
Y549902D01*
X601540D01*
X601799Y549884D01*
D02*
G37*
G36*
X602244Y544384D02*
X602447Y544329D01*
X602651Y544236D01*
X602818Y544162D01*
X602966Y544070D01*
X603058Y543977D01*
X603132Y543922D01*
X603151Y543903D01*
X603318Y543718D01*
X603447Y543514D01*
X603540Y543329D01*
X603614Y543144D01*
X603651Y542996D01*
X603669Y542885D01*
Y542811D01*
Y542774D01*
Y540940D01*
X603651Y540681D01*
X603595Y540459D01*
X603503Y540255D01*
X603429Y540089D01*
X603336Y539959D01*
X603243Y539866D01*
X603188Y539792D01*
X603170Y539774D01*
X602984Y539626D01*
X602781Y539515D01*
X602577Y539422D01*
X602392Y539366D01*
X602244Y539329D01*
X602114Y539311D01*
X599466D01*
Y544403D01*
X602003D01*
X602244Y544384D01*
D02*
G37*
%LPC*%
G36*
X424694Y1104900D02*
X417010D01*
Y1091753D01*
Y1104252D01*
X417028Y1104104D01*
X420232Y1092290D01*
X420306Y1092105D01*
X420398Y1091975D01*
X420491Y1091883D01*
X420602Y1091827D01*
X420695Y1091790D01*
X420769Y1091753D01*
X420843D01*
X421009Y1091772D01*
X421139Y1091846D01*
X421250Y1091920D01*
X421343Y1092031D01*
X421398Y1092123D01*
X421435Y1092216D01*
X421472Y1092272D01*
Y1092290D01*
X424676Y1104104D01*
X424694Y1104252D01*
Y1104363D01*
X424657Y1104456D01*
X424602Y1104604D01*
X424528Y1104678D01*
X424509Y1104715D01*
X424491D01*
X424324Y1104826D01*
X424176Y1104882D01*
X424065Y1104900D01*
X424694D01*
D01*
D02*
G37*
G36*
X415565D02*
X409696D01*
Y1091753D01*
Y1092383D01*
X409714Y1092198D01*
X409788Y1092049D01*
X409844Y1091957D01*
X409862Y1091938D01*
Y1091920D01*
X410011Y1091827D01*
X410159Y1091772D01*
X410270Y1091753D01*
X412621D01*
X412844Y1091772D01*
X413066Y1091790D01*
X413455Y1091883D01*
X413806Y1092031D01*
X414121Y1092179D01*
X414362Y1092327D01*
X414547Y1092475D01*
X414603Y1092531D01*
X414658Y1092568D01*
X414677Y1092605D01*
X414695D01*
X414843Y1092772D01*
X414991Y1092938D01*
X415195Y1093290D01*
X415362Y1093642D01*
X415454Y1093957D01*
X415528Y1094234D01*
X415547Y1094364D01*
Y1094457D01*
X415565Y1094549D01*
Y1096697D01*
X415528Y1096901D01*
X415436Y1097308D01*
X415288Y1097660D01*
X415140Y1097956D01*
X414973Y1098197D01*
X414825Y1098382D01*
X414732Y1098493D01*
X414714Y1098512D01*
X414695Y1098530D01*
X414529Y1098678D01*
X414362Y1098827D01*
X414010Y1099030D01*
X413658Y1099197D01*
X413325Y1099289D01*
X413047Y1099363D01*
X412936Y1099382D01*
X412825D01*
X412733Y1099401D01*
X410992D01*
Y1103622D01*
X414899D01*
X415010Y1103641D01*
X415103Y1103659D01*
X415251Y1103734D01*
X415343Y1103789D01*
X415380Y1103826D01*
X415491Y1103974D01*
X415547Y1104122D01*
X415565Y1104215D01*
Y1104344D01*
X415528Y1104419D01*
X415454Y1104567D01*
X415380Y1104659D01*
X415362Y1104696D01*
X415343D01*
X415269Y1104770D01*
X415195Y1104807D01*
X415047Y1104882D01*
X414936Y1104900D01*
X415565D01*
D02*
G37*
%LPD*%
G36*
X417473Y1104863D02*
X417325Y1104807D01*
X417232Y1104733D01*
X417195Y1104715D01*
Y1104696D01*
X417084Y1104548D01*
X417028Y1104400D01*
X417010Y1104289D01*
Y1104900D01*
X417565D01*
X417473Y1104863D01*
D02*
G37*
G36*
X423861D02*
X423731Y1104807D01*
X423657Y1104752D01*
X423620Y1104733D01*
X423528Y1104622D01*
X423454Y1104511D01*
X423417Y1104419D01*
Y1104400D01*
Y1104381D01*
X420861Y1094401D01*
X418269Y1104437D01*
X418213Y1104530D01*
X418176Y1104604D01*
X418065Y1104715D01*
X418010Y1104770D01*
X417973Y1104789D01*
X417862Y1104863D01*
X417769Y1104882D01*
X417695Y1104900D01*
X424028D01*
X423861Y1104863D01*
D02*
G37*
G36*
X410122Y1104882D02*
X409955Y1104807D01*
X409844Y1104696D01*
X409770Y1104585D01*
X409733Y1104456D01*
X409714Y1104363D01*
X409696Y1104289D01*
Y1104900D01*
X410325D01*
X410122Y1104882D01*
D02*
G37*
G36*
X409714Y1098549D02*
X409788Y1098382D01*
X409899Y1098271D01*
X410011Y1098197D01*
X410122Y1098160D01*
X410233Y1098141D01*
X410307Y1098123D01*
X412621D01*
X412862Y1098104D01*
X413084Y1098049D01*
X413288Y1097975D01*
X413455Y1097882D01*
X413603Y1097790D01*
X413695Y1097716D01*
X413769Y1097660D01*
X413788Y1097642D01*
X413955Y1097456D01*
X414066Y1097253D01*
X414158Y1097067D01*
X414214Y1096882D01*
X414251Y1096734D01*
X414269Y1096605D01*
Y1096531D01*
Y1096494D01*
Y1094660D01*
X414251Y1094420D01*
X414195Y1094197D01*
X414121Y1093994D01*
X414029Y1093827D01*
X413936Y1093679D01*
X413862Y1093586D01*
X413806Y1093512D01*
X413788Y1093494D01*
X413603Y1093346D01*
X413399Y1093234D01*
X413214Y1093142D01*
X413029Y1093086D01*
X412862Y1093049D01*
X412733Y1093031D01*
X410325D01*
X410214Y1093012D01*
X410103Y1092994D01*
X409955Y1092901D01*
X409881Y1092809D01*
X409844Y1092790D01*
Y1092772D01*
X409751Y1092605D01*
X409714Y1092494D01*
X409696Y1092401D01*
Y1098753D01*
X409714Y1098549D01*
D02*
G37*
%LPC*%
G36*
X669687Y551180D02*
D01*
Y550625D01*
X669650Y550699D01*
X669594Y550847D01*
X669520Y550939D01*
X669502Y550976D01*
X669483D01*
X669409Y551050D01*
X669316Y551087D01*
X669168Y551161D01*
X669057Y551180D01*
X663539D01*
X663428Y551161D01*
X663317Y551143D01*
X663169Y551050D01*
X663095Y550958D01*
X663058Y550939D01*
Y550921D01*
X662965Y550754D01*
X662928Y550643D01*
X662910Y550550D01*
Y550532D01*
X662928Y550347D01*
X663002Y550199D01*
X663058Y550106D01*
X663076Y550088D01*
Y550069D01*
X663225Y549976D01*
X663373Y549921D01*
X663484Y549902D01*
X665650D01*
Y538663D01*
X665669Y538552D01*
X665687Y538441D01*
X665761Y538274D01*
X665835Y538181D01*
X665872Y538144D01*
X666058Y538089D01*
X666187Y538052D01*
X666261Y538033D01*
X662910D01*
X666280D01*
X666465Y538052D01*
X666632Y538126D01*
X666724Y538181D01*
X666761Y538200D01*
X666872Y538348D01*
X666928Y538496D01*
X666946Y538607D01*
Y538644D01*
Y538663D01*
Y549902D01*
X669020D01*
X669131Y549921D01*
X669224Y549939D01*
X669372Y550014D01*
X669465Y550069D01*
X669502Y550106D01*
X669613Y550254D01*
X669668Y550402D01*
X669687Y550495D01*
Y538033D01*
D01*
D01*
Y551180D01*
D02*
G37*
G36*
X653226D02*
D01*
Y548254D01*
X653207Y548477D01*
X653189Y548680D01*
X653096Y549088D01*
X652948Y549439D01*
X652781Y549736D01*
X652615Y549976D01*
X652485Y550162D01*
X652374Y550273D01*
X652355Y550291D01*
X652337Y550310D01*
X652170Y550458D01*
X652003Y550606D01*
X651652Y550810D01*
X651300Y550976D01*
X650967Y551069D01*
X650689Y551143D01*
X650578Y551161D01*
X650467D01*
X650374Y551180D01*
X647060D01*
X646856Y551161D01*
X646689Y551087D01*
X646578Y550976D01*
X646504Y550865D01*
X646467Y550736D01*
X646449Y550643D01*
X646430Y550569D01*
Y538663D01*
X646449Y538552D01*
X646467Y538441D01*
X646541Y538274D01*
X646615Y538181D01*
X646652Y538144D01*
X646837Y538089D01*
X646967Y538052D01*
X647041Y538033D01*
X652541D01*
X652726Y538052D01*
X652874Y538107D01*
X652966Y538163D01*
X653003Y538181D01*
X653077Y538274D01*
X653133Y538348D01*
X653207Y538496D01*
X653226Y538607D01*
Y538033D01*
D01*
D01*
Y551180D01*
D02*
G37*
G36*
X661447D02*
X654670D01*
D01*
X657355D01*
X657151Y551143D01*
X656744Y551050D01*
X656410Y550902D01*
X656133Y550754D01*
X655910Y550606D01*
X655744Y550458D01*
X655651Y550365D01*
X655614Y550347D01*
Y550328D01*
X655448Y550162D01*
X655300Y549976D01*
X655170Y549791D01*
X655077Y549625D01*
X654892Y549273D01*
X654781Y548958D01*
X654725Y548680D01*
X654707Y548551D01*
X654688Y548458D01*
X654670Y548366D01*
Y548254D01*
X654688Y548032D01*
X654707Y547828D01*
X654744Y547643D01*
X654781Y547477D01*
X654818Y547347D01*
X654837Y547236D01*
X654874Y547162D01*
Y547143D01*
X654985Y546921D01*
X655114Y546736D01*
X655225Y546569D01*
X655318Y546421D01*
X655392Y546329D01*
X655466Y546236D01*
X655503Y546199D01*
X655522Y546180D01*
X659595Y542107D01*
X659762Y541885D01*
X659892Y541699D01*
X659929Y541625D01*
X659947Y541570D01*
X659966Y541533D01*
Y541514D01*
X660003Y541422D01*
X660021Y541385D01*
Y541366D01*
X660058Y541274D01*
Y541255D01*
Y541237D01*
X660095Y540940D01*
X660077Y540700D01*
X660021Y540496D01*
X659929Y540292D01*
X659855Y540126D01*
X659762Y539977D01*
X659669Y539885D01*
X659614Y539811D01*
X659595Y539792D01*
X659410Y539626D01*
X659206Y539515D01*
X659003Y539422D01*
X658818Y539366D01*
X658670Y539329D01*
X658540Y539311D01*
X657096D01*
X656818Y539329D01*
X656540Y539385D01*
X656281Y539459D01*
X656059Y539552D01*
X655873Y539626D01*
X655744Y539700D01*
X655651Y539755D01*
X655614Y539774D01*
X655300Y539885D01*
X655207Y539866D01*
X655114Y539848D01*
X654966Y539774D01*
X654874Y539681D01*
X654837Y539663D01*
Y539644D01*
X654744Y539478D01*
X654688Y539348D01*
X654670Y539237D01*
Y539200D01*
X654725Y538941D01*
X654929Y538718D01*
X655300Y538496D01*
X655688Y538330D01*
X656059Y538200D01*
X656392Y538126D01*
X656688Y538070D01*
X656799Y538052D01*
X656910D01*
X657003Y538033D01*
X658447D01*
X658688Y538052D01*
X658910Y538070D01*
X659299Y538163D01*
X659651Y538292D01*
X659929Y538459D01*
X660151Y538607D01*
X660318Y538737D01*
X660410Y538829D01*
X660447Y538867D01*
X660614Y539033D01*
X660762Y539218D01*
X660891Y539403D01*
X661003Y539570D01*
X661169Y539922D01*
X661280Y540237D01*
X661336Y540533D01*
X661354Y540644D01*
X661373Y540737D01*
X661391Y540829D01*
Y540885D01*
Y540922D01*
Y540940D01*
Y541218D01*
X661354Y541440D01*
X661243Y541829D01*
X661169Y542033D01*
X661077Y542218D01*
X660984Y542385D01*
X660891Y542533D01*
X660799Y542662D01*
X660706Y542755D01*
X660632Y542829D01*
X660595Y542866D01*
X660577Y542885D01*
X656448Y547088D01*
X656262Y547310D01*
X656151Y547477D01*
X656077Y547588D01*
X656059Y547606D01*
Y547625D01*
X656022Y547754D01*
X655985Y547921D01*
X655966Y548217D01*
X655985Y548477D01*
X656040Y548699D01*
X656114Y548903D01*
X656188Y549069D01*
X656262Y549217D01*
X656336Y549310D01*
X656392Y549384D01*
X656410Y549402D01*
X656596Y549569D01*
X656781Y549699D01*
X656984Y549773D01*
X657170Y549847D01*
X657336Y549884D01*
X657466Y549902D01*
X658929D01*
X659225Y549884D01*
X659503Y549828D01*
X659762Y549754D01*
X659984Y549662D01*
X660169Y549569D01*
X660318Y549495D01*
X660391Y549439D01*
X660428Y549421D01*
X660743Y549310D01*
X660854Y549328D01*
X660947Y549347D01*
X661114Y549421D01*
X661206Y549477D01*
X661243Y549514D01*
X661317Y549606D01*
X661354Y549680D01*
X661428Y549847D01*
X661447Y549958D01*
Y538033D01*
D01*
Y551180D01*
D02*
G37*
%LPD*%
G36*
X650504Y549884D02*
X650726Y549828D01*
X650929Y549736D01*
X651096Y549662D01*
X651244Y549569D01*
X651337Y549477D01*
X651411Y549421D01*
X651430Y549402D01*
X651596Y549217D01*
X651726Y549014D01*
X651800Y548828D01*
X651874Y548643D01*
X651911Y548495D01*
X651929Y548366D01*
Y548291D01*
Y548254D01*
Y546421D01*
X651911Y546162D01*
X651855Y545940D01*
X651763Y545736D01*
X651689Y545569D01*
X651596Y545440D01*
X651504Y545347D01*
X651448Y545273D01*
X651430Y545255D01*
X651244Y545107D01*
X651041Y544995D01*
X650837Y544903D01*
X650652Y544847D01*
X650504Y544810D01*
X650374Y544792D01*
X647726D01*
Y549902D01*
X650263D01*
X650504Y549884D01*
D02*
G37*
G36*
X653226Y538644D02*
X653207Y538774D01*
X653189Y538867D01*
X653170Y538922D01*
X653151Y538941D01*
X650356Y543514D01*
X650263D01*
X650485Y543533D01*
X650707Y543551D01*
X651115Y543644D01*
X651467Y543792D01*
X651781Y543940D01*
X652022Y544088D01*
X652207Y544236D01*
X652263Y544292D01*
X652318Y544329D01*
X652337Y544366D01*
X652355D01*
X652503Y544533D01*
X652652Y544699D01*
X652855Y545051D01*
X653022Y545384D01*
X653114Y545718D01*
X653189Y545995D01*
X653207Y546125D01*
Y546218D01*
X653226Y546310D01*
Y538644D01*
D02*
G37*
G36*
X651985Y538367D02*
X652078Y538237D01*
X652152Y538163D01*
X652207Y538107D01*
X652226Y538089D01*
X652337Y538052D01*
X652448Y538033D01*
X647060D01*
X647245Y538052D01*
X647411Y538126D01*
X647504Y538181D01*
X647541Y538200D01*
X647652Y538348D01*
X647708Y538496D01*
X647726Y538607D01*
Y538644D01*
Y538663D01*
Y543514D01*
X648985D01*
X651985Y538367D01*
D02*
G37*
G36*
X661447Y549995D02*
X661410Y550143D01*
X661354Y550254D01*
X661317Y550328D01*
X661299Y550347D01*
X661243Y550421D01*
X661188Y550476D01*
X661151Y550495D01*
X661132Y550513D01*
X660762Y550717D01*
X660577Y550810D01*
X660410Y550865D01*
X660262Y550921D01*
X660151Y550958D01*
X660077Y550995D01*
X660040D01*
X659818Y551050D01*
X659614Y551106D01*
X659429Y551143D01*
X659262Y551161D01*
X659114Y551180D01*
X661447D01*
Y549995D01*
D02*
G37*
%LPC*%
G36*
X574455Y551180D02*
D01*
Y550625D01*
X574418Y550717D01*
X574363Y550865D01*
X574289Y550958D01*
X574270Y550995D01*
X574252D01*
X574085Y551106D01*
X573937Y551161D01*
X573826Y551180D01*
X573770D01*
X573641Y551161D01*
X573530Y551143D01*
X573437Y551087D01*
X573381Y551050D01*
X573289Y550939D01*
X573252Y550921D01*
Y550902D01*
X570585Y545755D01*
X567993Y550736D01*
X567901Y550884D01*
X567808Y550995D01*
X567715Y551069D01*
X567623Y551124D01*
X567549Y551161D01*
X567475Y551180D01*
X567419D01*
X567308Y551161D01*
X567215Y551143D01*
X567049Y551069D01*
X566956Y550976D01*
X566919Y550958D01*
Y550939D01*
X566827Y550773D01*
X566771Y550643D01*
X566753Y550550D01*
Y550513D01*
X566827Y550217D01*
X569956Y544421D01*
Y538663D01*
X569974Y538552D01*
X569993Y538441D01*
X570067Y538274D01*
X570141Y538181D01*
X570178Y538144D01*
X570363Y538089D01*
X570493Y538052D01*
X570567Y538033D01*
X566753D01*
X574455D01*
Y551180D01*
D02*
G37*
G36*
X565290D02*
D01*
Y550625D01*
X565253Y550699D01*
X565197Y550847D01*
X565123Y550939D01*
X565104Y550976D01*
X565086D01*
X565012Y551050D01*
X564938Y551087D01*
X564790Y551161D01*
X564679Y551180D01*
X560068D01*
X559864Y551161D01*
X559698Y551087D01*
X559586Y550976D01*
X559512Y550865D01*
X559475Y550736D01*
X559457Y550643D01*
X559438Y550569D01*
Y538663D01*
X559457Y538459D01*
X559531Y538292D01*
X559642Y538181D01*
X559753Y538107D01*
X559864Y538070D01*
X559975Y538052D01*
X560050Y538033D01*
X559438D01*
X565290D01*
Y551180D01*
D02*
G37*
G36*
X557976D02*
D01*
Y550625D01*
X557939Y550717D01*
X557864Y550847D01*
X557790Y550939D01*
X557772Y550976D01*
X557753D01*
X557679Y551050D01*
X557587Y551087D01*
X557439Y551161D01*
X557327Y551180D01*
X557290D01*
X557179Y551161D01*
X557068Y551143D01*
X556920Y551032D01*
X556809Y550939D01*
X556791Y550902D01*
X556772Y550884D01*
X552476Y544792D01*
Y550532D01*
Y550643D01*
X552439Y550736D01*
X552365Y550884D01*
X552291Y550958D01*
X552272Y550995D01*
X552254D01*
X552106Y551106D01*
X551958Y551161D01*
X551847Y551180D01*
X551717D01*
X551624Y551143D01*
X551495Y551069D01*
X551402Y550995D01*
X551365Y550976D01*
Y550958D01*
X551254Y550810D01*
X551199Y550662D01*
X551180Y550569D01*
Y538663D01*
X551199Y538552D01*
X551217Y538441D01*
X551291Y538274D01*
X551365Y538181D01*
X551402Y538144D01*
X551587Y538089D01*
X551717Y538052D01*
X551791Y538033D01*
X551180D01*
D01*
X557976D01*
Y551180D01*
D02*
G37*
%LPD*%
G36*
X574455Y538033D02*
X570585D01*
X570771Y538052D01*
X570937Y538126D01*
X571030Y538181D01*
X571067Y538200D01*
X571178Y538348D01*
X571233Y538496D01*
X571252Y538607D01*
Y538644D01*
Y538663D01*
Y544421D01*
X574363Y550217D01*
X574418Y550328D01*
X574437Y550439D01*
X574455Y550513D01*
Y538033D01*
D02*
G37*
G36*
X565290Y538755D02*
X565253Y538829D01*
X565197Y538978D01*
X565123Y539070D01*
X565104Y539107D01*
X565086D01*
X565012Y539181D01*
X564938Y539218D01*
X564790Y539292D01*
X564679Y539311D01*
X560735D01*
Y544403D01*
X562808D01*
X562920Y544421D01*
X563012Y544440D01*
X563160Y544514D01*
X563253Y544570D01*
X563290Y544607D01*
X563401Y544755D01*
X563456Y544903D01*
X563475Y544995D01*
Y545014D01*
Y545033D01*
Y545125D01*
X563438Y545199D01*
X563364Y545347D01*
X563290Y545440D01*
X563271Y545477D01*
X563253D01*
X563179Y545551D01*
X563105Y545588D01*
X562957Y545662D01*
X562845Y545681D01*
X560735D01*
Y549902D01*
X564642D01*
X564753Y549921D01*
X564845Y549939D01*
X564993Y550014D01*
X565086Y550069D01*
X565123Y550106D01*
X565216Y550254D01*
X565271Y550402D01*
X565290Y550495D01*
Y538755D01*
D02*
G37*
G36*
Y538033D02*
X564642D01*
X564753Y538052D01*
X564845Y538070D01*
X564993Y538144D01*
X565086Y538200D01*
X565123Y538237D01*
X565216Y538385D01*
X565271Y538533D01*
X565290Y538626D01*
Y538033D01*
D02*
G37*
G36*
X557976D02*
X557253D01*
X557457Y538052D01*
X557624Y538126D01*
X557716Y538181D01*
X557753Y538200D01*
X557827Y538274D01*
X557864Y538367D01*
X557939Y538533D01*
Y538589D01*
X557957Y538644D01*
Y538681D01*
Y538700D01*
X557939Y538737D01*
Y538755D01*
X557901Y538922D01*
X554624Y545921D01*
X557846Y550162D01*
X557920Y550291D01*
X557957Y550402D01*
X557976Y550495D01*
Y538033D01*
D02*
G37*
G36*
X556735Y538367D02*
X556957Y538089D01*
X557253Y538033D01*
X551810D01*
X551995Y538052D01*
X552161Y538126D01*
X552254Y538181D01*
X552291Y538200D01*
X552402Y538348D01*
X552458Y538496D01*
X552476Y538607D01*
Y538644D01*
Y538663D01*
Y543014D01*
X553754Y544940D01*
X556735Y538367D01*
D02*
G37*
%LPC*%
G36*
X324551Y880091D02*
X317774D01*
D01*
X318404D01*
X318293Y880073D01*
X318182Y880054D01*
X318034Y879962D01*
X317959Y879869D01*
X317922Y879851D01*
Y879832D01*
X317830Y879666D01*
X317793Y879555D01*
X317774Y879462D01*
Y879555D01*
Y879443D01*
X317793Y879258D01*
X317867Y879110D01*
X317922Y879017D01*
X317941Y878999D01*
Y878980D01*
X318089Y878888D01*
X318237Y878832D01*
X318348Y878814D01*
X320515D01*
Y867574D01*
X320533Y867463D01*
X320552Y867352D01*
X320626Y867185D01*
X320700Y867093D01*
X320737Y867056D01*
X320922Y867000D01*
X321052Y866963D01*
X321126Y866945D01*
X321144D01*
X321329Y866963D01*
X321496Y867037D01*
X321589Y867093D01*
X321626Y867111D01*
X321737Y867260D01*
X321792Y867408D01*
X321811Y867519D01*
Y867556D01*
Y867574D01*
Y878814D01*
X323885D01*
X323996Y878832D01*
X324089Y878851D01*
X324237Y878925D01*
X324329Y878980D01*
X324366Y879017D01*
X324477Y879166D01*
X324533Y879314D01*
X324551Y879406D01*
Y879536D01*
X324514Y879610D01*
X324459Y879758D01*
X324385Y879851D01*
X324366Y879888D01*
X324348D01*
X324274Y879962D01*
X324181Y879999D01*
X324033Y880073D01*
X323922Y880091D01*
X324551D01*
D02*
G37*
G36*
X333736Y880110D02*
X326014D01*
D01*
X326681D01*
X326570Y880091D01*
X326477Y880073D01*
X326311Y879999D01*
X326218Y879906D01*
X326181Y879888D01*
Y879869D01*
X326088Y879703D01*
X326033Y879573D01*
X326014Y879480D01*
Y879443D01*
X326088Y879147D01*
X329162Y873518D01*
X326088Y867889D01*
X326051Y867778D01*
X326033Y867667D01*
X326014Y867593D01*
Y866945D01*
Y867574D01*
X326051Y867389D01*
X326107Y867241D01*
X326162Y867148D01*
X326199Y867111D01*
X326348Y867019D01*
X326496Y866963D01*
X326625Y866945D01*
X326662D01*
X326792Y866963D01*
X326903Y866982D01*
X326996Y867019D01*
X327070Y867074D01*
X327162Y867167D01*
X327199Y867185D01*
Y867204D01*
X329866Y872370D01*
X332477Y867352D01*
X332551Y867222D01*
X332643Y867111D01*
X332736Y867037D01*
X332828Y867000D01*
X332902Y866963D01*
X332976Y866945D01*
X333032D01*
X333217Y866963D01*
X333384Y867037D01*
X333476Y867093D01*
X333513Y867111D01*
X333587Y867204D01*
X333643Y867278D01*
X333717Y867426D01*
X333736Y867537D01*
Y867074D01*
Y867593D01*
Y867574D01*
X333717Y867685D01*
X333699Y867778D01*
X333662Y867852D01*
X333643Y867870D01*
X330588Y873518D01*
X333643Y879147D01*
X333699Y879258D01*
X333717Y879369D01*
X333736Y879443D01*
Y879610D01*
Y879555D01*
X333699Y879647D01*
X333643Y879795D01*
X333569Y879888D01*
X333550Y879925D01*
X333532D01*
X333365Y880036D01*
X333217Y880091D01*
X333106Y880110D01*
X333736D01*
D01*
D02*
G37*
%LPD*%
G36*
X332921Y880091D02*
X332810Y880073D01*
X332717Y880017D01*
X332643Y879962D01*
X332551Y879869D01*
X332532Y879832D01*
Y879814D01*
X329866Y874685D01*
X327255Y879666D01*
X327181Y879814D01*
X327088Y879925D01*
X326977Y879999D01*
X326884Y880054D01*
X326810Y880091D01*
X326736Y880110D01*
X333050D01*
X332921Y880091D01*
D02*
G37*
%LPC*%
G36*
X428879Y1135380D02*
X421824D01*
Y1122233D01*
Y1134732D01*
X421843Y1134584D01*
X425046Y1122770D01*
X425120Y1122585D01*
X425213Y1122455D01*
X425305Y1122363D01*
X425416Y1122307D01*
X425509Y1122270D01*
X425583Y1122233D01*
X425657D01*
X425824Y1122252D01*
X425953Y1122326D01*
X426064Y1122400D01*
X426157Y1122511D01*
X426213Y1122604D01*
X426250Y1122696D01*
X426287Y1122752D01*
Y1122770D01*
X429490Y1134584D01*
X429509Y1134732D01*
Y1127029D01*
Y1134732D01*
Y1134843D01*
X429472Y1134936D01*
X429416Y1135084D01*
X429342Y1135158D01*
X429323Y1135195D01*
X429305D01*
X429138Y1135306D01*
X428990Y1135361D01*
X428879Y1135380D01*
D02*
G37*
G36*
X420380D02*
X414510D01*
Y1122233D01*
Y1122863D01*
X414529Y1122678D01*
X414603Y1122530D01*
X414658Y1122437D01*
X414677Y1122418D01*
Y1122400D01*
X414825Y1122307D01*
X414973Y1122252D01*
X415084Y1122233D01*
X417436D01*
X417658Y1122252D01*
X417880Y1122270D01*
X418269Y1122363D01*
X418621Y1122511D01*
X418936Y1122659D01*
X419176Y1122807D01*
X419361Y1122955D01*
X419417Y1123011D01*
X419473Y1123048D01*
X419491Y1123085D01*
X419510D01*
X419658Y1123252D01*
X419806Y1123418D01*
X420009Y1123770D01*
X420176Y1124122D01*
X420269Y1124437D01*
X420343Y1124733D01*
X420361Y1124844D01*
Y1124955D01*
X420380Y1125048D01*
Y1122863D01*
Y1126973D01*
X420361Y1127270D01*
X420306Y1127566D01*
X420232Y1127825D01*
X420158Y1128047D01*
X420065Y1128233D01*
X419991Y1128381D01*
X419935Y1128473D01*
X419917Y1128510D01*
X419750Y1128770D01*
X419565Y1128973D01*
X419398Y1129140D01*
X419250Y1129269D01*
X419121Y1129344D01*
X419010Y1129418D01*
X418936Y1129436D01*
X418917Y1129455D01*
X419084Y1129584D01*
X419232Y1129714D01*
X419343Y1129862D01*
X419454Y1129992D01*
X419528Y1130103D01*
X419584Y1130195D01*
X419621Y1130269D01*
X419639Y1130288D01*
X419750Y1130492D01*
X419806Y1130677D01*
X419824Y1130751D01*
X419843Y1130806D01*
Y1130825D01*
Y1130843D01*
X419917Y1131047D01*
Y1131251D01*
Y1131547D01*
Y1132454D01*
Y1132677D01*
X419880Y1132899D01*
X419787Y1133288D01*
X419639Y1133639D01*
X419491Y1133954D01*
X419343Y1134195D01*
X419195Y1134380D01*
X419139Y1134436D01*
X419102Y1134491D01*
X419084Y1134510D01*
X419065Y1134528D01*
X418899Y1134676D01*
X418732Y1134806D01*
X418380Y1135028D01*
X418028Y1135176D01*
X417695Y1135269D01*
X417417Y1135343D01*
X417288Y1135361D01*
X417177D01*
X417102Y1135380D01*
X420380D01*
D02*
G37*
G36*
X410751D02*
X404882D01*
Y1122233D01*
Y1122863D01*
X404900Y1122678D01*
X404974Y1122530D01*
X405030Y1122437D01*
X405048Y1122418D01*
Y1122400D01*
X405196Y1122307D01*
X405344Y1122252D01*
X405456Y1122233D01*
X407807D01*
X408029Y1122252D01*
X408251Y1122270D01*
X408640Y1122363D01*
X408992Y1122511D01*
X409307Y1122659D01*
X409548Y1122807D01*
X409733Y1122955D01*
X409788Y1123011D01*
X409844Y1123048D01*
X409862Y1123085D01*
X409881D01*
X410029Y1123252D01*
X410177Y1123418D01*
X410381Y1123770D01*
X410547Y1124122D01*
X410640Y1124437D01*
X410714Y1124733D01*
X410733Y1124844D01*
Y1124955D01*
X410751Y1125048D01*
Y1122844D01*
Y1126973D01*
X410733Y1127270D01*
X410677Y1127566D01*
X410603Y1127825D01*
X410529Y1128047D01*
X410436Y1128233D01*
X410362Y1128381D01*
X410307Y1128473D01*
X410288Y1128510D01*
X410122Y1128770D01*
X409936Y1128973D01*
X409770Y1129140D01*
X409622Y1129269D01*
X409492Y1129344D01*
X409381Y1129418D01*
X409307Y1129436D01*
X409288Y1129455D01*
X409455Y1129584D01*
X409603Y1129714D01*
X409714Y1129862D01*
X409825Y1129992D01*
X409899Y1130103D01*
X409955Y1130195D01*
X409992Y1130269D01*
X410011Y1130288D01*
X410122Y1130492D01*
X410177Y1130677D01*
X410196Y1130751D01*
X410214Y1130806D01*
Y1130825D01*
Y1130843D01*
X410288Y1131047D01*
Y1131251D01*
Y1131547D01*
Y1132454D01*
Y1132677D01*
X410251Y1132899D01*
X410159Y1133288D01*
X410011Y1133639D01*
X409862Y1133954D01*
X409714Y1134195D01*
X409566Y1134380D01*
X409511Y1134436D01*
X409474Y1134491D01*
X409455Y1134510D01*
X409436Y1134528D01*
X409270Y1134676D01*
X409103Y1134806D01*
X408751Y1135028D01*
X408400Y1135176D01*
X408066Y1135269D01*
X407789Y1135343D01*
X407659Y1135361D01*
X407548D01*
X407474Y1135380D01*
X410751D01*
D02*
G37*
G36*
X413510Y1123955D02*
X411751D01*
D01*
X412621D01*
X412473Y1123937D01*
X412325Y1123900D01*
X412214Y1123844D01*
X412122Y1123789D01*
X412047Y1123733D01*
X411992Y1123678D01*
X411973Y1123641D01*
X411955Y1123622D01*
X411881Y1123511D01*
X411844Y1123400D01*
X411770Y1123233D01*
X411751Y1123122D01*
Y1123085D01*
X411770Y1122955D01*
X411788Y1122844D01*
X411881Y1122641D01*
X411918Y1122567D01*
X411955Y1122511D01*
X411973Y1122474D01*
X411992Y1122455D01*
X412084Y1122381D01*
X412177Y1122326D01*
X412399Y1122270D01*
X412473Y1122252D01*
X412547Y1122233D01*
X412621D01*
X412770Y1122252D01*
X412899Y1122270D01*
X413010Y1122326D01*
X413103Y1122381D01*
X413177Y1122418D01*
X413232Y1122474D01*
X413251Y1122492D01*
X413270Y1122511D01*
X413344Y1122622D01*
X413418Y1122715D01*
X413473Y1122900D01*
X413492Y1122974D01*
X413510Y1123029D01*
Y1123085D01*
X413492Y1123215D01*
X413473Y1123326D01*
X413381Y1123511D01*
X413325Y1123585D01*
X413270Y1123641D01*
X413251Y1123659D01*
X413232Y1123678D01*
X413121Y1123770D01*
X413029Y1123844D01*
X412918Y1123881D01*
X412825Y1123918D01*
X412751Y1123937D01*
X412677Y1123955D01*
X413510D01*
D01*
D02*
G37*
%LPD*%
G36*
X422287Y1135343D02*
X422139Y1135287D01*
X422046Y1135213D01*
X422009Y1135195D01*
Y1135176D01*
X421898Y1135028D01*
X421843Y1134880D01*
X421824Y1134769D01*
Y1135380D01*
X422380D01*
X422287Y1135343D01*
D02*
G37*
G36*
X428675D02*
X428546Y1135287D01*
X428472Y1135232D01*
X428435Y1135213D01*
X428342Y1135102D01*
X428268Y1134991D01*
X428231Y1134899D01*
Y1134880D01*
Y1134862D01*
X425676Y1124881D01*
X423083Y1134917D01*
X423028Y1135010D01*
X422991Y1135084D01*
X422880Y1135195D01*
X422824Y1135250D01*
X422787Y1135269D01*
X422676Y1135343D01*
X422583Y1135361D01*
X422509Y1135380D01*
X428842D01*
X428675Y1135343D01*
D02*
G37*
G36*
X415029Y1135361D02*
X414917Y1135343D01*
X414769Y1135250D01*
X414695Y1135158D01*
X414658Y1135139D01*
Y1135121D01*
X414566Y1134954D01*
X414529Y1134843D01*
X414510Y1134750D01*
Y1135380D01*
X415140D01*
X415029Y1135361D01*
D02*
G37*
G36*
X414529Y1134547D02*
X414603Y1134399D01*
X414658Y1134306D01*
X414677Y1134287D01*
Y1134269D01*
X414825Y1134176D01*
X414973Y1134121D01*
X415103Y1134102D01*
X416973D01*
X417232Y1134084D01*
X417454Y1134028D01*
X417658Y1133954D01*
X417825Y1133862D01*
X417954Y1133769D01*
X418065Y1133695D01*
X418121Y1133639D01*
X418139Y1133621D01*
X418306Y1133436D01*
X418417Y1133232D01*
X418510Y1133047D01*
X418565Y1132862D01*
X418602Y1132695D01*
X418621Y1132566D01*
Y1132491D01*
Y1132454D01*
Y1131547D01*
X418602Y1131306D01*
X418547Y1131084D01*
X418473Y1130881D01*
X418380Y1130714D01*
X418288Y1130566D01*
X418213Y1130473D01*
X418158Y1130399D01*
X418139Y1130380D01*
X417954Y1130232D01*
X417751Y1130121D01*
X417565Y1130029D01*
X417380Y1129973D01*
X417214Y1129936D01*
X417084Y1129918D01*
X416973D01*
X416862Y1129899D01*
X416751Y1129881D01*
X416603Y1129788D01*
X416528Y1129695D01*
X416491Y1129677D01*
Y1129658D01*
X416399Y1129492D01*
X416362Y1129381D01*
X416343Y1129288D01*
Y1129269D01*
X416362Y1129084D01*
X416436Y1128936D01*
X416491Y1128844D01*
X416510Y1128825D01*
Y1128807D01*
X416658Y1128714D01*
X416806Y1128659D01*
X416917Y1128640D01*
X417436D01*
X417695Y1128621D01*
X417917Y1128566D01*
X418121Y1128473D01*
X418288Y1128399D01*
X418417Y1128307D01*
X418528Y1128214D01*
X418584Y1128158D01*
X418602Y1128140D01*
X418769Y1127955D01*
X418880Y1127751D01*
X418973Y1127566D01*
X419028Y1127381D01*
X419065Y1127233D01*
X419084Y1127103D01*
Y1127029D01*
Y1126992D01*
Y1125159D01*
X419065Y1124900D01*
X419010Y1124677D01*
X418936Y1124474D01*
X418843Y1124307D01*
X418750Y1124159D01*
X418676Y1124066D01*
X418621Y1123992D01*
X418602Y1123974D01*
X418417Y1123826D01*
X418213Y1123715D01*
X418028Y1123622D01*
X417843Y1123566D01*
X417676Y1123529D01*
X417547Y1123511D01*
X415140D01*
X415029Y1123492D01*
X414917Y1123474D01*
X414769Y1123381D01*
X414695Y1123289D01*
X414658Y1123270D01*
Y1123252D01*
X414566Y1123085D01*
X414529Y1122974D01*
X414510Y1122881D01*
Y1134732D01*
X414529Y1134547D01*
D02*
G37*
G36*
X405400Y1135361D02*
X405289Y1135343D01*
X405141Y1135250D01*
X405067Y1135158D01*
X405030Y1135139D01*
Y1135121D01*
X404937Y1134954D01*
X404900Y1134843D01*
X404882Y1134750D01*
Y1135380D01*
X405511D01*
X405400Y1135361D01*
D02*
G37*
G36*
X404900Y1134547D02*
X404974Y1134399D01*
X405030Y1134306D01*
X405048Y1134287D01*
Y1134269D01*
X405196Y1134176D01*
X405344Y1134121D01*
X405474Y1134102D01*
X407344D01*
X407603Y1134084D01*
X407826Y1134028D01*
X408029Y1133954D01*
X408196Y1133862D01*
X408326Y1133769D01*
X408437Y1133695D01*
X408492Y1133639D01*
X408511Y1133621D01*
X408677Y1133436D01*
X408788Y1133232D01*
X408881Y1133047D01*
X408937Y1132862D01*
X408974Y1132695D01*
X408992Y1132566D01*
Y1132491D01*
Y1132454D01*
Y1131547D01*
X408974Y1131306D01*
X408918Y1131084D01*
X408844Y1130881D01*
X408751Y1130714D01*
X408659Y1130566D01*
X408585Y1130473D01*
X408529Y1130399D01*
X408511Y1130380D01*
X408326Y1130232D01*
X408122Y1130121D01*
X407937Y1130029D01*
X407752Y1129973D01*
X407585Y1129936D01*
X407455Y1129918D01*
X407344D01*
X407233Y1129899D01*
X407122Y1129881D01*
X406974Y1129788D01*
X406900Y1129695D01*
X406863Y1129677D01*
Y1129658D01*
X406770Y1129492D01*
X406733Y1129381D01*
X406715Y1129288D01*
Y1129269D01*
X406733Y1129084D01*
X406807Y1128936D01*
X406863Y1128844D01*
X406881Y1128825D01*
Y1128807D01*
X407029Y1128714D01*
X407178Y1128659D01*
X407289Y1128640D01*
X407807D01*
X408066Y1128621D01*
X408288Y1128566D01*
X408492Y1128473D01*
X408659Y1128399D01*
X408788Y1128307D01*
X408900Y1128214D01*
X408955Y1128158D01*
X408974Y1128140D01*
X409140Y1127955D01*
X409251Y1127751D01*
X409344Y1127566D01*
X409399Y1127381D01*
X409436Y1127233D01*
X409455Y1127103D01*
Y1127029D01*
Y1126992D01*
Y1125159D01*
X409436Y1124900D01*
X409381Y1124677D01*
X409307Y1124474D01*
X409214Y1124307D01*
X409122Y1124159D01*
X409048Y1124066D01*
X408992Y1123992D01*
X408974Y1123974D01*
X408788Y1123826D01*
X408585Y1123715D01*
X408400Y1123622D01*
X408214Y1123566D01*
X408048Y1123529D01*
X407918Y1123511D01*
X405511D01*
X405400Y1123492D01*
X405289Y1123474D01*
X405141Y1123381D01*
X405067Y1123289D01*
X405030Y1123270D01*
Y1123252D01*
X404937Y1123085D01*
X404900Y1122974D01*
X404882Y1122881D01*
Y1134732D01*
X404900Y1134547D01*
D02*
G37*
%LPC*%
G36*
X488676Y1065530D02*
D01*
Y1064975D01*
X488639Y1065067D01*
X488583Y1065215D01*
X488509Y1065308D01*
X488490Y1065345D01*
X488472D01*
X488305Y1065456D01*
X488157Y1065511D01*
X488046Y1065530D01*
X487990D01*
X487861Y1065511D01*
X487750Y1065493D01*
X487657Y1065437D01*
X487583Y1065382D01*
X487491Y1065289D01*
X487472Y1065252D01*
Y1065234D01*
X484806Y1060105D01*
X482195Y1065086D01*
X482121Y1065234D01*
X482028Y1065345D01*
X481917Y1065419D01*
X481824Y1065474D01*
X481750Y1065511D01*
X481676Y1065530D01*
X481621D01*
X481510Y1065511D01*
X481417Y1065493D01*
X481250Y1065419D01*
X481158Y1065326D01*
X481121Y1065308D01*
Y1065289D01*
X481028Y1065123D01*
X480973Y1064993D01*
X480954Y1064900D01*
Y1064863D01*
X481028Y1064567D01*
X484102Y1058938D01*
X481028Y1053309D01*
X480991Y1053198D01*
X480973Y1053087D01*
X480954Y1053013D01*
Y1052994D01*
X480991Y1052809D01*
X481047Y1052661D01*
X481102Y1052568D01*
X481139Y1052531D01*
X481287Y1052439D01*
X481436Y1052383D01*
X481565Y1052365D01*
X480954D01*
X481602D01*
X481732Y1052383D01*
X481843Y1052402D01*
X481936Y1052439D01*
X482010Y1052494D01*
X482102Y1052587D01*
X482139Y1052605D01*
Y1052624D01*
X484806Y1057790D01*
X487416Y1052772D01*
X487491Y1052642D01*
X487583Y1052531D01*
X487676Y1052457D01*
X487768Y1052420D01*
X487842Y1052383D01*
X487916Y1052365D01*
X481845D01*
X488676D01*
Y1065530D01*
D02*
G37*
G36*
X479510Y1065511D02*
X472714D01*
X473344D01*
X473140Y1065493D01*
X472974Y1065419D01*
X472863Y1065308D01*
X472788Y1065197D01*
X472751Y1065067D01*
X472733Y1064975D01*
X472714Y1064900D01*
Y1052994D01*
X472733Y1052883D01*
X472751Y1052772D01*
X472825Y1052605D01*
X472900Y1052513D01*
X472937Y1052476D01*
X473122Y1052420D01*
X473251Y1052383D01*
X473325Y1052365D01*
X472714D01*
X473344D01*
X473529Y1052383D01*
X473696Y1052457D01*
X473788Y1052513D01*
X473825Y1052531D01*
X473936Y1052680D01*
X473992Y1052828D01*
X474011Y1052939D01*
Y1052976D01*
Y1052994D01*
Y1057846D01*
X475270D01*
X478269Y1052698D01*
X478362Y1052568D01*
X478436Y1052494D01*
X478492Y1052439D01*
X478510Y1052420D01*
X478621Y1052383D01*
X478732Y1052365D01*
X479510D01*
X478825D01*
X479010Y1052383D01*
X479158Y1052439D01*
X479251Y1052494D01*
X479288Y1052513D01*
X479362Y1052605D01*
X479417Y1052680D01*
X479491Y1052828D01*
X479510Y1052939D01*
Y1052976D01*
X479491Y1053105D01*
X479473Y1053198D01*
X479454Y1053253D01*
X479436Y1053272D01*
X476640Y1057846D01*
X476547D01*
X476769Y1057864D01*
X476992Y1057883D01*
X477399Y1057975D01*
X477751Y1058123D01*
X478066Y1058271D01*
X478306Y1058420D01*
X478492Y1058568D01*
X478547Y1058623D01*
X478603Y1058660D01*
X478621Y1058697D01*
X478640D01*
X478788Y1058864D01*
X478936Y1059031D01*
X479140Y1059382D01*
X479306Y1059716D01*
X479399Y1060049D01*
X479473Y1060327D01*
X479491Y1060456D01*
Y1060549D01*
X479510Y1060642D01*
Y1062586D01*
X479491Y1062808D01*
X479473Y1063012D01*
X479380Y1063419D01*
X479232Y1063771D01*
X479066Y1064067D01*
X478899Y1064308D01*
X478769Y1064493D01*
X478658Y1064604D01*
X478640Y1064623D01*
X478621Y1064641D01*
X478455Y1064789D01*
X478288Y1064938D01*
X477936Y1065141D01*
X477584Y1065308D01*
X477251Y1065400D01*
X476973Y1065474D01*
X476862Y1065493D01*
X476751D01*
X476658Y1065511D01*
X479510D01*
D02*
G37*
%LPD*%
G36*
X488676Y1052994D02*
X488657Y1053105D01*
X488639Y1053198D01*
X488602Y1053272D01*
X488583Y1053290D01*
X485528Y1058938D01*
X488583Y1064567D01*
X488639Y1064678D01*
X488657Y1064789D01*
X488676Y1064863D01*
Y1052994D01*
D02*
G37*
G36*
Y1052365D02*
X487972D01*
X488157Y1052383D01*
X488324Y1052457D01*
X488416Y1052513D01*
X488453Y1052531D01*
X488527Y1052624D01*
X488583Y1052698D01*
X488657Y1052846D01*
X488676Y1052957D01*
Y1052365D01*
D02*
G37*
G36*
X476788Y1064215D02*
X477010Y1064160D01*
X477214Y1064067D01*
X477380Y1063993D01*
X477529Y1063901D01*
X477621Y1063808D01*
X477695Y1063752D01*
X477714Y1063734D01*
X477881Y1063549D01*
X478010Y1063345D01*
X478084Y1063160D01*
X478158Y1062975D01*
X478195Y1062827D01*
X478214Y1062697D01*
Y1062623D01*
Y1062586D01*
Y1060753D01*
X478195Y1060493D01*
X478140Y1060271D01*
X478047Y1060068D01*
X477973Y1059901D01*
X477881Y1059771D01*
X477788Y1059679D01*
X477732Y1059605D01*
X477714Y1059586D01*
X477529Y1059438D01*
X477325Y1059327D01*
X477121Y1059234D01*
X476936Y1059179D01*
X476788Y1059142D01*
X476658Y1059123D01*
X474011D01*
Y1064234D01*
X476547D01*
X476788Y1064215D01*
D02*
G37*
%LPC*%
G36*
X410001Y1073150D02*
X408242D01*
X408039Y1073113D01*
X407631Y1073020D01*
X407298Y1072872D01*
X407020Y1072724D01*
X406798Y1072576D01*
X406631Y1072428D01*
X406539Y1072335D01*
X406502Y1072317D01*
Y1072298D01*
X406335Y1072132D01*
X406187Y1071946D01*
X406057Y1071761D01*
X405965Y1071595D01*
X405779Y1071243D01*
X405668Y1070928D01*
X405613Y1070650D01*
X405594Y1070521D01*
X405576Y1070428D01*
X405557Y1070335D01*
Y1073150D01*
D01*
D01*
Y1060003D01*
Y1061170D01*
X405613Y1060910D01*
X405817Y1060688D01*
X406187Y1060466D01*
X406576Y1060300D01*
X406946Y1060170D01*
X407279Y1060096D01*
X407576Y1060040D01*
X407687Y1060022D01*
X407798D01*
X407890Y1060003D01*
X409335D01*
X409575Y1060022D01*
X409798Y1060040D01*
X410187Y1060133D01*
X410538Y1060262D01*
X410816Y1060429D01*
X411038Y1060577D01*
X411205Y1060707D01*
X411297Y1060799D01*
X411334Y1060836D01*
X411501Y1061003D01*
X411649Y1061188D01*
X411779Y1061373D01*
X411890Y1061540D01*
X412057Y1061892D01*
X412168Y1062207D01*
X412223Y1062503D01*
X412242Y1062614D01*
X412260Y1062707D01*
X412279Y1062799D01*
Y1062855D01*
Y1062892D01*
Y1062910D01*
Y1063188D01*
X412242Y1063410D01*
X412131Y1063799D01*
X412057Y1064003D01*
X411964Y1064188D01*
X411871Y1064355D01*
X411779Y1064503D01*
X411686Y1064632D01*
X411594Y1064725D01*
X411520Y1064799D01*
X411483Y1064836D01*
X411464Y1064855D01*
X407335Y1069058D01*
X407150Y1069280D01*
X407039Y1069447D01*
X406965Y1069558D01*
X406946Y1069576D01*
Y1069595D01*
X406909Y1069724D01*
X406872Y1069891D01*
X406853Y1070187D01*
X406872Y1070447D01*
X406928Y1070669D01*
X407002Y1070872D01*
X407076Y1071039D01*
X407150Y1071187D01*
X407224Y1071280D01*
X407279Y1071354D01*
X407298Y1071372D01*
X407483Y1071539D01*
X407668Y1071669D01*
X407872Y1071743D01*
X408057Y1071817D01*
X408224Y1071854D01*
X408353Y1071872D01*
X409816D01*
X410112Y1071854D01*
X410390Y1071798D01*
X410649Y1071724D01*
X410872Y1071632D01*
X411057Y1071539D01*
X411205Y1071465D01*
X411279Y1071409D01*
X411316Y1071391D01*
X411631Y1071280D01*
X411742Y1071298D01*
X411834Y1071317D01*
X412001Y1071391D01*
X412094Y1071447D01*
X412131Y1071484D01*
X412205Y1071576D01*
X412242Y1071650D01*
X412316Y1071817D01*
X412334Y1071928D01*
Y1071965D01*
X412297Y1072113D01*
X412242Y1072224D01*
X412205Y1072298D01*
X412186Y1072317D01*
X412131Y1072391D01*
X412075Y1072446D01*
X412038Y1072465D01*
X412020Y1072483D01*
X411649Y1072687D01*
X411464Y1072780D01*
X411297Y1072835D01*
X411149Y1072891D01*
X411038Y1072928D01*
X410964Y1072965D01*
X410927D01*
X410705Y1073020D01*
X410501Y1073076D01*
X410316Y1073113D01*
X410149Y1073131D01*
X410001Y1073150D01*
D02*
G37*
G36*
X419963D02*
X419834D01*
X419741Y1073113D01*
X419611Y1073039D01*
X419519Y1072965D01*
X419482Y1072946D01*
Y1072928D01*
X419371Y1072780D01*
X419315Y1072632D01*
X419297Y1072539D01*
Y1072520D01*
Y1072502D01*
Y1062910D01*
X419278Y1062651D01*
X419223Y1062429D01*
X419130Y1062225D01*
X419056Y1062059D01*
X418963Y1061929D01*
X418871Y1061836D01*
X418815Y1061762D01*
X418797Y1061744D01*
X418611Y1061596D01*
X418408Y1061485D01*
X418204Y1061392D01*
X418019Y1061336D01*
X417871Y1061299D01*
X417741Y1061281D01*
X416723D01*
X416482Y1061299D01*
X416278Y1061355D01*
X416075Y1061429D01*
X415908Y1061522D01*
X415760Y1061614D01*
X415667Y1061688D01*
X415593Y1061744D01*
X415575Y1061762D01*
X415408Y1061947D01*
X415297Y1062151D01*
X415205Y1062336D01*
X415149Y1062522D01*
X415112Y1062670D01*
X415093Y1062799D01*
Y1062873D01*
Y1062910D01*
Y1072502D01*
Y1072613D01*
X415056Y1072706D01*
X414982Y1072854D01*
X414908Y1072928D01*
X414890Y1072965D01*
X414871D01*
X414723Y1073076D01*
X414575Y1073131D01*
X414464Y1073150D01*
X414334D01*
X414242Y1073113D01*
X414112Y1073039D01*
X414019Y1072965D01*
X413982Y1072946D01*
Y1072928D01*
X413871Y1072780D01*
X413816Y1072632D01*
X413797Y1072539D01*
Y1073150D01*
D01*
Y1060003D01*
Y1062910D01*
X413816Y1062688D01*
X413834Y1062466D01*
X413945Y1062077D01*
X414075Y1061725D01*
X414242Y1061411D01*
X414408Y1061170D01*
X414556Y1060985D01*
X414612Y1060929D01*
X414649Y1060873D01*
X414668Y1060855D01*
X414686Y1060836D01*
X414853Y1060688D01*
X415038Y1060559D01*
X415390Y1060355D01*
X415723Y1060207D01*
X416038Y1060114D01*
X416315Y1060040D01*
X416427Y1060022D01*
X416538D01*
X416612Y1060003D01*
X413797D01*
X420593D01*
Y1072613D01*
X420556Y1072706D01*
X420482Y1072854D01*
X420408Y1072928D01*
X420389Y1072965D01*
X420371D01*
X420223Y1073076D01*
X420074Y1073131D01*
X419963Y1073150D01*
D02*
G37*
G36*
X428833D02*
X422037D01*
Y1060003D01*
Y1060633D01*
X422056Y1060522D01*
X422074Y1060411D01*
X422148Y1060244D01*
X422222Y1060151D01*
X422259Y1060114D01*
X422444Y1060059D01*
X422574Y1060022D01*
X422648Y1060003D01*
X422037D01*
X422667D01*
X422852Y1060022D01*
X423018Y1060096D01*
X423111Y1060151D01*
X423148Y1060170D01*
X423259Y1060318D01*
X423315Y1060466D01*
X423333Y1060577D01*
Y1060614D01*
Y1060633D01*
Y1065484D01*
X425870D01*
X426092Y1065503D01*
X426314Y1065521D01*
X426722Y1065614D01*
X427074Y1065762D01*
X427388Y1065910D01*
X427629Y1066058D01*
X427814Y1066206D01*
X427870Y1066262D01*
X427925Y1066299D01*
X427944Y1066336D01*
X427962D01*
X428111Y1066503D01*
X428259Y1066669D01*
X428462Y1067021D01*
X428629Y1067354D01*
X428722Y1067688D01*
X428796Y1067965D01*
X428814Y1068095D01*
Y1068188D01*
X428833Y1068280D01*
Y1070502D01*
X428777Y1070835D01*
X428629Y1071354D01*
X428536Y1071539D01*
X428444Y1071724D01*
X428333Y1071872D01*
X428222Y1072020D01*
X428129Y1072132D01*
X428055Y1072224D01*
X427999Y1072280D01*
X427981Y1072298D01*
X427814Y1072446D01*
X427629Y1072576D01*
X427277Y1072798D01*
X426926Y1072946D01*
X426611Y1073039D01*
X426314Y1073113D01*
X426203Y1073131D01*
X426092D01*
X426000Y1073150D01*
X428833D01*
D01*
D02*
G37*
%LPD*%
G36*
X405576Y1070002D02*
X405594Y1069799D01*
X405631Y1069613D01*
X405668Y1069447D01*
X405705Y1069317D01*
X405724Y1069206D01*
X405761Y1069132D01*
Y1069113D01*
X405872Y1068891D01*
X406002Y1068706D01*
X406113Y1068539D01*
X406205Y1068391D01*
X406279Y1068299D01*
X406353Y1068206D01*
X406391Y1068169D01*
X406409Y1068150D01*
X410483Y1064077D01*
X410649Y1063855D01*
X410779Y1063670D01*
X410816Y1063595D01*
X410835Y1063540D01*
X410853Y1063503D01*
Y1063484D01*
X410890Y1063392D01*
X410909Y1063355D01*
Y1063336D01*
X410946Y1063244D01*
Y1063225D01*
Y1063207D01*
X410983Y1062910D01*
X410964Y1062670D01*
X410909Y1062466D01*
X410816Y1062262D01*
X410742Y1062096D01*
X410649Y1061947D01*
X410557Y1061855D01*
X410501Y1061781D01*
X410483Y1061762D01*
X410298Y1061596D01*
X410094Y1061485D01*
X409890Y1061392D01*
X409705Y1061336D01*
X409557Y1061299D01*
X409427Y1061281D01*
X407983D01*
X407705Y1061299D01*
X407427Y1061355D01*
X407168Y1061429D01*
X406946Y1061522D01*
X406761Y1061596D01*
X406631Y1061670D01*
X406539Y1061725D01*
X406502Y1061744D01*
X406187Y1061855D01*
X406094Y1061836D01*
X406002Y1061818D01*
X405854Y1061744D01*
X405761Y1061651D01*
X405724Y1061633D01*
Y1061614D01*
X405631Y1061448D01*
X405576Y1061318D01*
X405557Y1061207D01*
Y1070224D01*
X405576Y1070002D01*
D02*
G37*
G36*
X420593Y1060003D02*
X417630D01*
X417852Y1060022D01*
X418075Y1060040D01*
X418482Y1060133D01*
X418834Y1060281D01*
X419148Y1060429D01*
X419389Y1060577D01*
X419574Y1060725D01*
X419630Y1060781D01*
X419686Y1060818D01*
X419704Y1060855D01*
X419723D01*
X419871Y1061022D01*
X420019Y1061188D01*
X420223Y1061540D01*
X420389Y1061892D01*
X420482Y1062207D01*
X420556Y1062484D01*
X420574Y1062614D01*
Y1062707D01*
X420593Y1062799D01*
Y1060003D01*
D02*
G37*
G36*
X422463Y1073131D02*
X422296Y1073057D01*
X422185Y1072946D01*
X422111Y1072835D01*
X422074Y1072706D01*
X422056Y1072613D01*
X422037Y1072539D01*
Y1073150D01*
X422667D01*
X422463Y1073131D01*
D02*
G37*
G36*
X426111Y1071854D02*
X426333Y1071798D01*
X426537Y1071706D01*
X426703Y1071632D01*
X426851Y1071539D01*
X426944Y1071447D01*
X427018Y1071391D01*
X427037Y1071372D01*
X427203Y1071187D01*
X427333Y1070984D01*
X427407Y1070798D01*
X427481Y1070613D01*
X427518Y1070465D01*
X427537Y1070335D01*
Y1070261D01*
Y1070224D01*
Y1068391D01*
X427518Y1068132D01*
X427463Y1067910D01*
X427370Y1067706D01*
X427296Y1067540D01*
X427203Y1067410D01*
X427111Y1067317D01*
X427055Y1067243D01*
X427037Y1067225D01*
X426851Y1067077D01*
X426648Y1066965D01*
X426444Y1066873D01*
X426259Y1066817D01*
X426111Y1066780D01*
X425981Y1066762D01*
X423333D01*
Y1071872D01*
X425870D01*
X426111Y1071854D01*
D02*
G37*
%LPC*%
G36*
X333106Y791210D02*
X333050D01*
D01*
X331080D01*
X333050D01*
X332921Y791191D01*
X332810Y791173D01*
X332717Y791117D01*
X332643Y791062D01*
X332551Y790969D01*
X332532Y790932D01*
Y790914D01*
X329866Y785785D01*
X327255Y790766D01*
X327181Y790914D01*
X327088Y791025D01*
X326977Y791099D01*
X326884Y791154D01*
X326810Y791191D01*
X326736Y791210D01*
X326681D01*
X326570Y791191D01*
X326477Y791173D01*
X326311Y791099D01*
X326218Y791006D01*
X326181Y790988D01*
Y790969D01*
X326088Y790803D01*
X326033Y790673D01*
X326014Y790580D01*
Y790747D01*
Y790543D01*
X326088Y790247D01*
X329162Y784618D01*
X326088Y778989D01*
X326051Y778878D01*
X326033Y778767D01*
X326014Y778693D01*
Y778045D01*
Y778674D01*
X326051Y778489D01*
X326107Y778341D01*
X326162Y778248D01*
X326199Y778211D01*
X326348Y778119D01*
X326496Y778063D01*
X326625Y778045D01*
X326662D01*
X326792Y778063D01*
X326903Y778082D01*
X326996Y778119D01*
X327070Y778174D01*
X327162Y778267D01*
X327199Y778285D01*
Y778304D01*
X329866Y783470D01*
X332477Y778452D01*
X332551Y778322D01*
X332643Y778211D01*
X332736Y778137D01*
X332828Y778100D01*
X332902Y778063D01*
X332976Y778045D01*
X326905D01*
X333736D01*
Y778693D01*
Y778674D01*
X333717Y778785D01*
X333699Y778878D01*
X333662Y778952D01*
X333643Y778970D01*
X330588Y784618D01*
X333643Y790247D01*
X333699Y790358D01*
X333717Y790469D01*
X333736Y790543D01*
Y790988D01*
Y790655D01*
X333699Y790747D01*
X333643Y790895D01*
X333569Y790988D01*
X333550Y791025D01*
X333532D01*
X333365Y791136D01*
X333217Y791191D01*
X333106Y791210D01*
D02*
G37*
G36*
X321718Y791191D02*
X318404D01*
X318200Y791173D01*
X318034Y791099D01*
X317922Y790988D01*
X317848Y790877D01*
X317811Y790747D01*
X317793Y790655D01*
X317774Y790580D01*
Y790655D01*
Y778045D01*
Y778674D01*
X317793Y778563D01*
X317811Y778452D01*
X317885Y778285D01*
X317959Y778193D01*
X317997Y778156D01*
X318182Y778100D01*
X318311Y778063D01*
X318385Y778045D01*
X323885D01*
X324070Y778063D01*
X324218Y778119D01*
X324311Y778174D01*
X324348Y778193D01*
X324422Y778285D01*
X324477Y778360D01*
X324551Y778508D01*
X324570Y778619D01*
Y778508D01*
Y778656D01*
X324551Y778785D01*
X324533Y778878D01*
X324514Y778933D01*
X324496Y778952D01*
X321700Y783526D01*
X321607D01*
X321829Y783544D01*
X322052Y783563D01*
X322459Y783655D01*
X322811Y783803D01*
X323126Y783951D01*
X323366Y784100D01*
X323551Y784248D01*
X323607Y784303D01*
X323663Y784340D01*
X323681Y784377D01*
X323700D01*
X323848Y784544D01*
X323996Y784711D01*
X324200Y785062D01*
X324366Y785396D01*
X324459Y785729D01*
X324533Y786007D01*
X324551Y786136D01*
Y786229D01*
X324570Y786322D01*
Y788303D01*
Y788266D01*
X324551Y788488D01*
X324533Y788692D01*
X324440Y789099D01*
X324292Y789451D01*
X324126Y789747D01*
X323959Y789988D01*
X323829Y790173D01*
X323718Y790284D01*
X323700Y790303D01*
X323681Y790321D01*
X323515Y790469D01*
X323348Y790618D01*
X322996Y790821D01*
X322644Y790988D01*
X322311Y791080D01*
X322033Y791154D01*
X321922Y791173D01*
X321811D01*
X321718Y791191D01*
D02*
G37*
%LPD*%
G36*
X333736Y778045D02*
X333032D01*
X333217Y778063D01*
X333384Y778137D01*
X333476Y778193D01*
X333513Y778211D01*
X333587Y778304D01*
X333643Y778378D01*
X333717Y778526D01*
X333736Y778637D01*
Y778045D01*
D02*
G37*
G36*
X321848Y789895D02*
X322070Y789840D01*
X322274Y789747D01*
X322440Y789673D01*
X322589Y789581D01*
X322681Y789488D01*
X322755Y789432D01*
X322774Y789414D01*
X322940Y789229D01*
X323070Y789025D01*
X323144Y788840D01*
X323218Y788655D01*
X323255Y788507D01*
X323274Y788377D01*
Y788303D01*
Y788266D01*
Y786433D01*
X323255Y786173D01*
X323200Y785951D01*
X323107Y785748D01*
X323033Y785581D01*
X322940Y785451D01*
X322848Y785359D01*
X322792Y785285D01*
X322774Y785266D01*
X322589Y785118D01*
X322385Y785007D01*
X322181Y784914D01*
X321996Y784859D01*
X321848Y784822D01*
X321718Y784803D01*
X319070D01*
Y789914D01*
X321607D01*
X321848Y789895D01*
D02*
G37*
G36*
X323329Y778378D02*
X323422Y778248D01*
X323496Y778174D01*
X323551Y778119D01*
X323570Y778100D01*
X323681Y778063D01*
X323792Y778045D01*
X318404D01*
X318589Y778063D01*
X318756Y778137D01*
X318848Y778193D01*
X318885Y778211D01*
X318996Y778360D01*
X319052Y778508D01*
X319070Y778619D01*
Y778656D01*
Y778674D01*
Y783526D01*
X320330D01*
X323329Y778378D01*
D02*
G37*
D10*
X721200Y685800D02*
G03*
X721200Y685800I-10000J0D01*
G01*
Y711200D02*
G03*
X721200Y711200I-10000J0D01*
G01*
Y736600D02*
G03*
X721200Y736600I-10000J0D01*
G01*
Y762000D02*
G03*
X721200Y762000I-10000J0D01*
G01*
Y787400D02*
G03*
X721200Y787400I-10000J0D01*
G01*
Y812800D02*
G03*
X721200Y812800I-10000J0D01*
G01*
Y838200D02*
G03*
X721200Y838200I-10000J0D01*
G01*
Y863600D02*
G03*
X721200Y863600I-10000J0D01*
G01*
Y889000D02*
G03*
X721200Y889000I-10000J0D01*
G01*
X504660Y1193800D02*
G03*
X504660Y1193800I-50000J0D01*
G01*
X617850Y1014730D02*
G03*
X617850Y1014730I-40000J0D01*
G01*
X293350Y570230D02*
G03*
X293350Y570230I-33000J0D01*
G01*
X1083480D02*
G03*
X1083480Y570230I-33000J0D01*
G01*
Y1210310D02*
G03*
X1083480Y1210310I-33000J0D01*
G01*
X293350D02*
G03*
X293350Y1210310I-33000J0D01*
G01*
X457800Y951130D02*
Y1054130D01*
X398800Y951130D02*
X457800D01*
X398800D02*
Y1054130D01*
X457800D01*
X357330Y1015160D02*
Y1037160D01*
X351330Y1015160D02*
Y1037160D01*
Y1015160D02*
X357330D01*
X351330Y1037160D02*
X357330D01*
Y982140D02*
Y1004140D01*
X351330Y982140D02*
Y1004140D01*
Y982140D02*
X357330D01*
X351330Y1004140D02*
X357330D01*
X338830Y679680D02*
X369830D01*
X338830Y676680D02*
X369830D01*
Y679680D01*
X338830Y676680D02*
Y679680D01*
X302260Y537210D02*
X485140D01*
X302260D02*
Y633730D01*
X485140D01*
Y537210D02*
Y633730D01*
X295080Y769810D02*
Y888810D01*
X223080Y769810D02*
X295080D01*
X223080D02*
Y888810D01*
X295080D01*
X223000Y764300D02*
X285000D01*
Y708900D02*
Y764300D01*
X223000Y708900D02*
X285000D01*
X223000Y756980D02*
Y764300D01*
Y708900D02*
Y716220D01*
X223080Y1082560D02*
X295080D01*
X223080Y893560D02*
Y1082560D01*
Y893560D02*
X295080D01*
Y1082560D01*
X288530Y672447D02*
Y683913D01*
X318530D01*
Y672447D02*
Y683913D01*
X288530Y672447D02*
X318530D01*
X317740Y732140D02*
X347740D01*
X317740Y712140D02*
Y766140D01*
X347740D01*
Y712140D02*
Y766140D01*
X317740Y712140D02*
X347740D01*
X317740Y836310D02*
X347740D01*
Y802310D02*
Y856310D01*
X317740Y802310D02*
X347740D01*
X317740D02*
Y856310D01*
X347740D01*
X298070Y857490D02*
Y864490D01*
X314070Y857490D02*
Y864490D01*
X298070Y857490D02*
X314070D01*
X351990Y794310D02*
Y864310D01*
X376990D01*
Y794310D02*
Y864310D01*
X351990Y794310D02*
X376990D01*
X465060Y1046860D02*
X472060D01*
X465060Y1030860D02*
X472060D01*
X465060D02*
Y1046860D01*
X314070Y792860D02*
Y799860D01*
X298070Y792860D02*
Y799860D01*
X314070D01*
X352050Y1104830D02*
Y1127830D01*
X321050Y1104830D02*
Y1127830D01*
X352050D01*
X321050Y1104830D02*
X352050D01*
X607580Y1190220D02*
X641580D01*
Y1060220D02*
Y1190220D01*
X607580Y1060220D02*
X641580D01*
X511580D02*
X545580D01*
X511580D02*
Y1190220D01*
X545580D01*
X223000Y704610D02*
X285000D01*
Y649210D02*
Y704610D01*
X223000Y649210D02*
X285000D01*
X223000Y697290D02*
Y704610D01*
Y649210D02*
Y656530D01*
X295080Y1087030D02*
Y1171030D01*
X223080Y1087030D02*
X295080D01*
X223080D02*
Y1171030D01*
X295080D01*
X558860Y605200D02*
X566360D01*
X546610Y572450D02*
Y595950D01*
X558860Y563200D02*
X566360D01*
X578610Y572450D02*
Y595950D01*
X465060Y1011810D02*
Y1027810D01*
Y1011810D02*
X472060D01*
X465060Y1027810D02*
X472060D01*
X570770Y736060D02*
Y859060D01*
X447770Y736060D02*
Y859060D01*
Y736060D02*
X570770D01*
X447770Y859060D02*
X570770D01*
X652840Y605200D02*
X660340D01*
X640590Y572450D02*
Y595950D01*
X652840Y563200D02*
X660340D01*
X672590Y572450D02*
Y595950D01*
X605850Y605200D02*
X613350D01*
X593600Y572450D02*
Y595950D01*
X605850Y563200D02*
X613350D01*
X625600Y572450D02*
Y595950D01*
X453720Y909560D02*
Y939560D01*
X399720D02*
X453720D01*
X399720Y909560D02*
Y939560D01*
Y909560D02*
X453720D01*
X433720D02*
Y939560D01*
X577520Y679690D02*
Y709690D01*
Y679690D02*
X631520D01*
Y709690D01*
X577520D02*
X631520D01*
X597520Y679690D02*
Y709690D01*
X297750Y1198420D02*
Y1247420D01*
X400750Y1198420D02*
Y1247420D01*
X297750Y1198420D02*
X400750D01*
X297750Y1247420D02*
X400750D01*
X297750Y1242420D02*
X400750D01*
X523130Y1199420D02*
Y1248420D01*
X630130Y1199420D02*
Y1248420D01*
X523130Y1199420D02*
X630130D01*
X523130Y1248420D02*
X630130D01*
X523130Y1235800D02*
X630130D01*
X493660Y1193800D02*
X499660D01*
X496660Y1190800D02*
Y1196800D01*
X577850Y1044730D02*
Y1050730D01*
X574850Y1047730D02*
X580850D01*
X470280Y1119760D02*
X477280D01*
X470280Y1135760D02*
X477280D01*
Y1119760D02*
Y1135760D01*
X470280Y1089280D02*
X477280D01*
X470280Y1105280D02*
X477280D01*
Y1089280D02*
Y1105280D01*
X497045Y562868D02*
Y569532D01*
X493713Y566200D02*
X500377D01*
D11*
X345330Y1040160D02*
G03*
X345330Y1040160I-1250J0D01*
G01*
Y1007140D02*
G03*
X345330Y1007140I-1250J0D01*
G01*
X337080Y666180D02*
G03*
X337080Y666180I-1250J0D01*
G01*
X295030Y641155D02*
G03*
X295030Y641155I-1250J0D01*
G01*
X321050Y1095080D02*
G03*
X321050Y1095080I-1250J0D01*
G01*
X586520Y730560D02*
G03*
X586520Y730560I-1250J0D01*
G01*
X303510Y1203198D02*
G03*
X303510Y1203198I-1250J0D01*
G01*
D12*
X559350Y941070D02*
G03*
X559350Y941070I-45000J0D01*
G01*
D13*
X563770Y746060D02*
G03*
X563770Y746060I-3000J0D01*
G01*
D14*
X490700Y630470D02*
D03*
D15*
X1008280Y1142300D02*
Y1157300D01*
X794920Y1142300D02*
X1008280D01*
X794920D02*
Y1157300D01*
X1008280D01*
Y912300D02*
Y927300D01*
X794920Y912300D02*
X1008280D01*
X794920D02*
Y927300D01*
X1008280D01*
Y682300D02*
Y697300D01*
X794920Y682300D02*
X1008280D01*
X794920D02*
Y697300D01*
X1008280D01*
D16*
X528290Y1204755D02*
D03*
M02*
