M48
;Layer_Color=9474304
;FILE_FORMAT=4:4
METRIC,LZ
;TYPE=PLATED
T1F00S00C0.2000
T2F00S00C0.3000
T3F00S00C0.8000
T4F00S00C0.8500
T5F00S00C0.9000
T6F00S00C1.0000
T7F00S00C1.1000
T8F00S00C1.4000
T10F00S00C3.0000
%
T01
X0080772Y0056134
X0081788Y0056642
X0085344Y0056896
X00889
X0092456
X0096012
X0099568
X0101346Y0060452
X0104902
X0108458
X010668Y0064008
X0103124
Y007112
X010668
X0108458Y0074676
X010668Y0078232
X0103124
X009779Y0074676
X0094234
X0090678
X0087122
X0083566
X008001
X0085344Y0078232
X00889
X0092456
Y007112
X00889
X0085344
X0091186Y005969
X0091694Y0060198
X0094234Y0060452
X009779
X0108458Y0067564
X0078232Y007112
X0074676
X0076454Y0074676
X0072898
X0074676Y0078232
X0078232
X006731Y0076454
X006477Y0076073
Y0076835
Y0073025
Y0072263
X006731Y0072644
X0067691Y0067691
X0069342
X00685165Y006604
X0068072Y00649986
X0069342Y0064389
X0066802Y00663448
X006604Y0067691
X0061087
Y0070993
X00586105Y0072644
X0056896Y0074168
X0056134Y0074676
X0055626Y0075311
X00569595Y0075946
X00536575
X0053467Y007493
X0053975Y0074295
X0051181
X004953
X0047879
X0046228
X00470535Y0075946
X00487045
X00503555
X00520065
X004953Y0077597
X0047879
X0046228
X00470535Y0079248
X00487045
X00503555
X0054102Y0079121
X00454025Y0079248
Y0075946
X0045427Y0068453
X0046427Y0067255
X0045927Y006596
X0047427Y0065969
X0046736Y0064643
X0047879Y0064389
X00487045Y0062738
X00470535
X0047879Y0061087
X004953
X00487045Y0059436
X0047752Y0058293
X00470535Y0056134
X00487045
X00503555
X0051181Y0054483
X0052832
X0054483
X0056134
X0057785
X0059436
X0061087
X0062738
X0064389
X006604
X0067691
X0069342
Y0057785
X00668655Y0059436
X00652145
X00650748Y00585724
X0062103Y0058801
Y0059436
X00602615
X0056261Y00603504
X0051816Y00635
X0051308Y006604
X00503555Y0069342
X00487045
X00437515
X00404495
X0039751Y00694944
X0041275Y0070993
X0040132Y0073406
X00404495Y0079248
Y006604
X0039751Y0066167
X0041275Y0064389
X0042926Y0061087
X0044323Y0060833
X0045212Y0056388
X0044577Y0054483
X0046228
X0047879
X004953
X0042926
X0041275
X00404495Y0056134
X0055118Y0067818
X0057785Y0067691
X0054483Y0070358
X0072898Y0067564
X0074676Y0064008
X0078232
X0039624Y0064389
X00387985Y006604
X00388112Y0068453
X0037338Y0067564
X0036449Y0067818
X0035433
X0034544
X0035433Y0065532
X0034671Y0064389
X0033528Y0064008
Y0064897
X00338455Y0062738
X00305435
X00272415
X00255905
X00239395
X0024765Y0064389
X0026416
X0028067
Y0067691
X0024765
X0023114
X00239395Y0069342
X0024765Y0070993
X0026416
X0028067Y0071247
X00272415Y0072644
X00239395
X0023114Y0074295
Y0070993
X00239395Y006604
X0023114Y0064389
Y0061087
X0024765
X0026416
X0028067
X00288925Y0059436
X0029718Y0057785
X00305435Y0056134
X00321945
X00338455
X00354965
X0036322Y0054483
X0037973
X0039624
X0034671
X003302
X0031369
X0029718
X00354965Y0059436
X0036322Y0061087
X0037973
X0036322Y0064389
X0036957Y0065024
X0036576Y0071374
X00371475Y0072644
X0038862Y0072263
X0039624Y0070993
X0038989Y0075819
X0036322Y0074295
X0034671Y0074676
X0034036
X0033401
X0032766
X0031369Y0074295
Y0078486
X0028067Y0077597
X0031623Y0068199
Y0067564
X0026416Y0080899
X00282194Y00870204
X00282448Y00877824
X00288925Y0089154
X00272415
X00255905
X0023114Y0090805
X00239395Y0092456
X0024765Y0094107
X0023114
X00239395Y0095758
X0031369Y0094107
X003302
X00321945Y0092456
X00305435
X0029718Y0090805
X00321945Y0089154
X00338455
X00354965
X00371475
X00387985
X0037973Y0090805
X0036322
X0034671
X00354965Y0092456
X00371475
X0039624Y0094107
X0038989Y0101346
X0035941Y0105791
X003556Y010668
X0034163Y0107823
X0034671Y0108331
X0033655
X0030226Y0110236
X0024892Y0113792
X002667Y0117348
X0034417Y0116713
Y0118237
X0024892Y010668
X0038481Y0083439
Y0082296
X0037719Y0081661
X0037973Y0080899
X00404495Y0085852
Y0089154
X0042926Y0090805
X0044577
Y0094107
X0042926
X0041275
X00421005Y0092456
X00487045
X004953Y0090805
X00487045Y0089154
Y0085852
X00503555
X0051943Y0085471
X0051181Y0084201
X0052832
X005461
X0054229Y0083566
X0055245Y0083058
X0055118Y0084709
X0055499Y0085344
X0056896Y008509
X0057785Y0087503
X0059436
X0060071Y0086233
Y0085598
Y0084836
X00602615Y0089154
X00619125
Y0092456
X00602615
X00569595
X00553085
X0056134Y0094107
Y0090805
X0057785
X00586105Y0089154
X00536575
X0052451Y0089027
X0054483Y0090805
X00520065Y008255
X00503555
X00487045
X00470535
X00454025
X0044958Y0081788
X0045466Y008128
X0045847Y0080772
X0046228Y0080264
X0047879Y0080899
X004953
Y0084201
X0047879
X0046482Y0084709
X0045847Y0085598
X004699Y0085725
X0054102Y0079883
X0056642Y0080518
X006477Y0080645
Y0079883
X006731Y0080264
Y0084074
X0069342Y0084201
X006477Y0084455
Y0083693
Y0087884
Y0088392
X00668655Y0089154
X006731Y0087884
X00668655Y0092456
X00652145
X00701675
X0072898Y00889
X0076454
X0078232Y0085344
X0074676
X0076454Y0081788
X0072898
X0076454Y0096012
X0078232Y0099568
X0076454Y0103124
X0072898
X0069342
Y0110236
X0072898
X0076454
X0078232Y010668
X0076454Y0117348
X0072898
X007112Y0113792
X0067564
X0064008
X0060452
X0056896
X005334
X0051562Y0117348
Y0110236
X0049022Y0108458
X005334Y010668
X0058674Y0110236
X0064008Y010668
X006223Y0103124
Y0117348
X0065786
X0048006Y0103124
X0041783Y0102108
X008001Y0103124
X0083566
X0087122
X0090678
X0094234
X009779
X0104902
X0108458
X010668Y010668
X0103124
X0104902Y0110236
X0108458
Y0117348
X0104902
X009779
X0094234
X0090678
X0087122
X0083566
X008001
X00889Y0113792
Y010668
X0092456
Y0099568
X00889
X0085344
X0087122Y0096012
X0090678
X0094234
X009779
X0104902
X0108458
X010668Y0099568
X0103124
X0104902Y00889
X0108458
X010668Y0085344
X0103124
X0104902Y0081788
X0108458
X009779
X0094234
X0090678
X0087122
X0083566
X008001
X0085344Y0085344
X00889
X0092456
Y0092456
X00889
X0085344
X0083566Y0096012
X008001
X0085344Y010668
Y0120904
X00889
X0092456
X0096012
X0081788
X0078232
X0074676
X007112
X0067564
X0060452
X0046228
X0042672
X0039116
X003556
T02
X0103148Y0055923
X0102798Y0057023
X0103148Y0058123
X0103948Y0058923
X0105048Y0059273
X0106148Y0058923
X0106948Y0058123
X0107298Y0057023
X0106948Y0055923
X0106148Y0055123
X0105048Y0054773
X0103948Y0055123
X0053848Y0056515
Y005715
Y0057785
Y005842
X0048895Y0057531
X0046101Y005715
X0045593Y0059436
X0046609
X004191Y0069596
X0041275
X0042418Y0071374
X004318
X0059944Y0070104
Y0069469
Y0068834
X0060579Y0069469
X0061087Y0077089
X0034671Y0073406
X0034036
X0033401
X0032766
X0028321Y0072771
Y0072136
X0023876Y0076835
Y007747
X0024935Y0058923
X0026035Y0059273
X0027135Y0058923
X0027935Y0058123
X0028285Y0057023
X0027935Y0055923
X0027135Y0055123
X0026035Y0054773
X0024935Y0055123
X0024135Y0055923
X0023785Y0057023
X0024135Y0058123
X0029337Y0061214
X0029972
X0030607
X0035687Y0080391
Y0081026
Y008636
X0036449
X0034925
X0031623Y0088011
X0038608Y0100584
X0037973Y0105283
X0036449Y0104394
X0026035Y0118781
X0042545Y0116459
Y0115697
X0043307Y0116459
Y011176
X0042672
X0042037
X0041402
X0041656Y0101219
X0051435Y0100965
X0046101Y0093726
Y0093091
Y0092456
Y0091821
Y0091186
X0055118Y0090297
X0061468Y0088392
Y008763
X0060706
X0064643Y0086106
X0065278
X0060198Y0080645
Y0079883
X0105048Y0118781
X0103948Y0119131
X0103148Y0119931
X0102798Y0121031
X0103148Y0122131
X0103948Y0122931
X0105048Y0123281
X0106148Y0122931
X0106948Y0122131
X0107298Y0121031
X0106948Y0119931
X0106148Y0119131
X0027135
X0027935Y0119931
X0028285Y0121031
X0027935Y0122131
X0027135Y0122931
X0026035Y0123281
X0024935Y0122931
X0024135Y0122131
X0023785Y0121031
X0024135Y0119931
X0024935Y0119131
T03
X0057785Y0099723
Y0103223
T04
X0036449Y0078031
Y0087831
T05
X0048935Y0094107
X0053935
T06
X0042966Y011938
X0047966
X0037465Y0122047
X0032385
T07
X008Y006446
Y0067
X008254
Y006446
X008508
Y0067
X008762
Y006446
X009016
Y0067
X00927
Y006446
X009524
Y0067
X009778
Y006446
X010032
Y0067
X007112Y006858
Y007112
Y007366
Y00762
Y007874
X004191Y0059817
Y0057277
X003937
Y0059817
X003683
Y0057277
X00254Y0066421
Y0068961
Y007239
Y007493
X004318Y0096393
Y0098933
Y0101473
Y0104013
X00635Y010414
Y01016
Y009906
Y009652
X006096
Y009398
Y009144
X00635
X006604
X006858
X007112
Y00889
Y008636
Y008382
Y008128
Y009398
X006858
X006604
X00635
X006604Y009652
X006858
Y009906
X006604
Y01016
X006858
Y010414
Y010668
Y010922
Y011176
X007112
X007366
Y010922
X007112
Y010668
X007366
Y010414
Y01016
Y009906
Y009652
X007112
Y009906
Y01016
Y010414
X006604
Y010668
Y010922
Y011176
X008Y0113
Y011046
X008254
Y0113
X008508
Y011046
X008762
Y0113
X009016
Y011046
X00927
Y0113
X009524
Y011046
X009778
Y0113
X010032
Y011046
Y009
X009778
X009524
X00927
X009016
X008762
X008508
X008254
X008
Y008746
X008254
X008508
X008762
X009016
X00927
X009524
X009778
X010032
X0061058Y0122047
X0059358
X0057658
X0055958
X0054258
T08
X0026708Y0079431
Y0082931
Y0086431
Y0091806
Y0095306
Y0098806
Y0102306
Y0105806
Y0111153
Y0114653
T10
X0105048Y0057023
X0026035
X0105048Y0121031
X0026035
M30
